<svg width="48" height="48" viewBox="0 0 48 48" fill="none" xmlns="http://www.w3.org/2000/svg">
<circle cx="24" cy="24" r="23" stroke="white" stroke-width="2"/>
<path d="M28.1208 14.0604C29.1854 14.1092 29.9125 14.2777 30.55 14.525C31.2083 14.7802 31.7646 15.1219 32.3208 15.6781C32.8771 16.234 33.2187 16.7919 33.475 17.4496C33.7208 18.0854 33.8896 18.8121 33.9396 19.8767C33.9875 20.9433 34 21.2842 34 24C34 26.7158 33.9875 27.0558 33.9396 28.1225C33.8896 29.1867 33.7208 29.9135 33.475 30.5496C33.2187 31.2071 32.8771 31.765 32.3208 32.3208C31.7652 32.8771 31.2081 33.2196 30.5506 33.475C29.9143 33.7223 29.1868 33.8908 28.1222 33.9396C27.0556 33.9881 26.7158 34 23.9997 34C21.284 34 20.9434 33.9881 19.8767 33.9396C18.8123 33.8908 18.0855 33.7223 17.4492 33.475C16.7919 33.2196 16.234 32.8771 15.6784 32.3208C15.1223 31.765 14.7806 31.2071 14.525 30.5494C14.2779 29.9135 14.1094 29.1869 14.0604 28.1223C14.0121 27.0556 14 26.7158 14 24C14 21.2842 14.0125 20.9431 14.0602 19.8765C14.1081 18.8123 14.2769 18.0854 14.5248 17.4494C14.781 16.7919 15.1227 16.234 15.679 15.6781C16.2348 15.1221 16.7927 14.7804 17.4505 14.525C18.0863 14.2777 18.813 14.1092 19.8776 14.0604C20.9438 14.0119 21.2848 14 23.9978 14C26.7148 14 27.0545 14.0119 28.1208 14.0604ZM24.0008 18.8646C21.1648 18.8646 18.8655 21.164 18.8655 24C18.8655 26.836 21.1649 29.1344 24.0009 29.1344C26.837 29.1344 29.1356 26.836 29.1356 24C29.1356 21.164 26.8369 18.8646 24.0008 18.8646ZM24.0008 20.8646C25.7321 20.8646 27.1356 22.2683 27.1356 24C27.1356 25.7314 25.7325 27.1344 24.0009 27.1344C22.2691 27.1344 20.8655 25.7311 20.8655 24C20.8655 22.2685 22.2694 20.8646 24.0008 20.8646ZM29.3389 17.4625C28.6764 17.4625 28.1389 17.9994 28.1389 18.6621C28.1389 19.3246 28.6764 19.8621 29.3389 19.8621C30.0014 19.8621 30.5389 19.3246 30.5389 18.6621C30.5389 17.9996 30.0014 17.4621 29.3389 17.4621V17.4625Z" fill="white"/>
</svg>
