<svg width="48" height="48" viewBox="0 0 48 48" fill="none" xmlns="http://www.w3.org/2000/svg">
<circle cx="24" cy="24" r="23" stroke="white" stroke-width="2"/>
<path d="M19.0862 20.5295V31.9997H15.2281V20.5295H19.0862ZM19.3403 16.9813C19.3403 18.0826 18.5025 18.9639 17.1573 18.9639H17.1326C15.8374 18.9639 15 18.0826 15 16.9813C15 15.8566 15.8629 15 17.1827 15C18.5025 15 19.3153 15.8566 19.3403 16.9813ZM33 25.423L32.9998 31.9997H29.1419V25.8631C29.1419 24.3217 28.5836 23.2699 27.187 23.2699C26.1211 23.2699 25.4862 23.979 25.2074 24.6639C25.1054 24.9093 25.0803 25.2513 25.0803 25.5941V32H21.2218C21.2218 32 21.2726 21.6061 21.2218 20.5298H25.0803V22.1544C25.5924 21.3734 26.5095 20.2601 28.5579 20.2601C31.0967 20.2601 33 21.8999 33 25.423Z" fill="white"/>
</svg>
