<svg width="48" height="48" viewBox="0 0 48 48" fill="none" xmlns="http://www.w3.org/2000/svg">
<circle cx="24" cy="24" r="23" stroke="white" stroke-width="2"/>
<path fill-rule="evenodd" clip-rule="evenodd" d="M20.29 32C27.837 32 31.965 25.8437 31.965 20.5055C31.965 20.3302 31.965 20.1559 31.953 19.9827C32.756 19.4116 33.449 18.7028 34 17.8915C33.252 18.2184 32.457 18.433 31.644 18.5275C32.5 18.0224 33.141 17.2289 33.448 16.2926C32.642 16.7632 31.761 17.095 30.842 17.2732C29.288 15.6467 26.689 15.568 25.036 17.098C23.971 18.0845 23.518 19.5554 23.849 20.9584C20.55 20.7949 17.476 19.261 15.392 16.7376C14.303 18.5836 14.86 20.9446 16.663 22.13C16.01 22.1113 15.371 21.938 14.8 21.6249V21.6761C14.801 23.5989 16.178 25.2549 18.092 25.6359C17.488 25.7984 16.854 25.822 16.24 25.7048C16.777 27.351 18.318 28.4783 20.073 28.5108C18.62 29.6351 16.825 30.2455 14.977 30.2436C14.651 30.2426 14.325 30.2239 14 30.1855C15.877 31.3709 18.06 32 20.29 31.997" fill="white"/>
</svg>
