<svg width="27" height="27" viewBox="0 0 27 27" fill="none" xmlns="http://www.w3.org/2000/svg">
<path d="M7.44295 5.66677C6.9312 5.15502 6.10149 5.15502 5.58974 5.66677C5.078 6.17852 5.078 7.00823 5.58974 7.51998L11.5332 13.4634L5.58974 19.4069C5.078 19.9186 5.078 20.7483 5.58974 21.2601C6.10149 21.7718 6.9312 21.7718 7.44295 21.2601L13.3864 15.3166L19.3298 21.2601C19.8416 21.7718 20.6713 21.7718 21.183 21.2601C21.6948 20.7483 21.6948 19.9186 21.183 19.4069L15.2396 13.4634L21.183 7.51998C21.6948 7.00823 21.6948 6.17852 21.183 5.66677C20.6713 5.15502 19.8416 5.15502 19.3298 5.66677L13.3864 11.6102L7.44295 5.66677Z" fill="white"/>
</svg>
