<svg width="360" height="134" viewBox="0 0 360 134" fill="none" xmlns="http://www.w3.org/2000/svg">
<path fill-rule="evenodd" clip-rule="evenodd" d="M182.063 17C186.584 17 190.969 17.5833 195.148 18.6713L194.85 19.1577C184.801 17.0841 170.398 20.1836 164.037 23.1081C148.208 29.6661 136.991 45.5719 136.991 64.0749C136.991 74.0584 140.258 83.2843 145.751 90.6956V98.7299L151.041 96.6367C158.727 103.841 168.954 108.248 180.156 108.248C197.866 108.248 213.14 97.2365 219.782 81.563L223.23 83.4603C225.159 84.5255 227.204 85.6595 229 86.6574C221.176 104.472 203.066 117 182.063 117C153.939 117 131 94.5393 131 67C131 39.4607 153.939 17 182.063 17ZM215.598 80.0507C209.063 93.2898 196.179 102.418 181.717 102.418C174.763 102.418 168.322 100.307 162.882 96.6459C161.406 95.4914 161.838 94.4607 163.224 93.9615C178.258 88.1339 194.189 82.8865 211.601 78.5959L212.877 78.2837C214.937 77.7741 216.511 78.1081 215.598 80.0507ZM207.96 84.2382C206.603 88.3209 202.687 92.7162 195.883 97.4809L196.306 97.3131L196.742 97.1359C201.637 95.1164 207.539 91.7039 210.556 84.2102C211.194 82.1256 208.776 81.4728 207.96 84.2382ZM160.98 67.1518C163.378 63.9377 168.654 67.1902 166.735 70.2884L161.459 79.5826L166.735 85.3914C168.986 87.7817 164.116 93.3501 161.071 90.4762L154.264 83.7646L154.145 91.6648C154.276 93.2386 153.863 94.2684 152.6 94.7532L152.466 94.8014L146.71 97.125V72.8442L154.025 69.5917L153.999 78.0722L160.98 67.1518ZM176.385 61.3185L176.197 83.1666C176.157 84.9434 175.397 86.2789 173.378 87.1725C171.75 87.8393 170.121 88.5068 168.493 89.1748L168.586 67.1451C168.605 65.4914 169.401 64.3382 171.123 63.4129L176.385 61.3185ZM199.78 55.2202L199.874 77.6138C199.885 80.1482 195.172 81.4996 193.767 79.7984L193.672 79.6782C192.416 78.1182 185.78 71.1503 185.78 71.1503L185.499 80.5268C185.358 83.1892 183.29 84.0541 178.734 85.1696L178.546 61.0461L182.68 59.5893C184.252 58.9487 185.502 59.7691 186.062 60.6822L193.109 68.1465L193.015 59.7716C192.922 58.0722 194.644 56.8586 196.774 56.1302L199.78 55.2202ZM219.605 51.8519C225 52.6327 223.121 58.47 218.615 57.7031L218.478 57.6778C212.448 56.5514 208.409 59.4717 208.143 64.7783C208.393 70.1495 212.151 72.3645 216.035 69.2388L216.129 66.872L215.835 66.9355C213.607 67.3957 211.989 67.2241 211.992 65.4429L211.995 65.3244C211.995 65.3244 212.277 62.5023 212.088 62.4114L222.424 59.9538V69.8758C221.39 73.6994 218.196 75.7626 212.558 76.6123C205.355 77.2798 200.971 73.3349 201.096 65.8705C202.505 55.2506 208.675 50.5774 219.605 51.8519ZM150.435 51.1485C153.74 50.0976 155.898 55.99 152.526 59.3827C155.993 59.038 156.032 65.4212 151.992 67.6713L151.851 67.7473L142.881 71.8641L142.867 60.4086C142.857 57.0816 142.842 54.221 142.817 53.8074L142.813 53.7628L150.435 51.1485ZM147.079 61.861L146.851 66.5709L147.107 66.476C148.818 65.828 150.52 64.8573 150.502 62.5614C150.529 61.3307 148.997 60.9162 147.079 61.861ZM163.116 47.6851C163.25 45.5505 167.5 44.7667 167.567 46.9665L167.5 58.533C167.319 61.8872 165.251 64.1309 161.497 64.8715C158.736 65.4067 155.586 64.3027 155.495 61.5594L155.561 50.2336C155.539 47.7385 159.84 47.3805 159.944 49.4699L159.945 49.5802V59.1212C159.9 61.4301 162.958 61.321 163.25 58.5982L163.116 47.6851ZM178.021 51.6062L181.192 55.0696C182.742 56.9866 179.505 59.6222 177.752 58.0758L173.502 54.2199L173.3 58.0758C173.165 60.0038 171.749 60.8967 169.051 61.4081L168.848 44.8752L175.526 42.8497C179.685 41.6081 182.653 47.1189 178.021 51.6062ZM147.062 55.2007L146.851 59.5972L147.107 59.5016C148.684 58.8968 150.248 57.9891 150.233 55.8541C150.258 54.7051 148.839 54.3187 147.062 55.2007ZM193.257 39.1724C196.747 39.6921 195.546 43.5698 192.642 43.0871L192.525 43.0655C188.612 42.3127 185.99 44.2644 185.818 47.8107C185.98 51.3996 188.419 52.8802 190.94 50.7919L191 49.2096L190.742 49.2662C189.342 49.5537 188.331 49.4284 188.316 48.2828L188.318 48.1758C188.318 48.1758 188.5 46.2899 188.379 46.2289L195.086 44.5862V51.2174C194.416 53.7725 192.342 55.1513 188.683 55.7194C184.008 56.1649 181.163 53.5287 181.244 48.5403C182.159 41.4429 186.163 38.3203 193.257 39.1724ZM196.208 37.5333L205.94 35.606L205.94 35.8932C205.909 38.5957 205.076 39.1811 201.111 39.9576L200.47 40.08V42.7644L205.514 41.8696L205.537 42.2258C205.659 44.4752 205.107 45.0665 200.9 45.7579L200.683 45.7931V49.2339L206.011 47.9948L206.03 48.3655C206.104 50.1634 205.839 51.7302 203.312 52.3316L201.248 52.7369C200.119 52.9611 199.083 53.1706 197.924 53.3997L196.35 53.7079L196.208 37.5333ZM216.233 43.0271L219.481 46.7763C221.069 48.8249 217.717 50.9565 215.919 49.2388L211.56 44.9739L211.33 48.6701C211.181 50.514 209.716 51.1954 206.932 51.3448L206.815 35.3573L213.709 34.2547C218.002 33.5872 221.031 39.287 216.233 43.0271ZM173.3 51.3448C177.506 49.3839 176.988 44.7441 173.368 46.4435L173.3 51.3448ZM184.512 21.7769C192.57 21.7769 199.941 24.6112 205.861 29.4101C207.109 30.5396 206.889 31.3905 205.653 31.5301C187.946 35.0148 170.24 39.8618 152.534 45.5158C150.608 46.0424 151.498 42.3145 152.285 41.0997C159.2 29.5253 171.187 21.7769 184.512 21.7769ZM211.368 42.1719C215.712 40.8157 215.205 36.2704 211.464 37.4486L211.368 42.1719ZM167.018 28.01L165.487 28.9398L164.909 29.3008C161.968 31.1728 158.983 33.6822 156.295 40.4762C155.837 42.1755 157.825 42.6729 158.239 41.1905C159.316 36.2082 162.546 31.9531 167.018 28.01ZM184.442 23.7244L184.988 23.8032L185.512 23.8834C193.972 25.2175 197.795 27.7407 194.963 31.9707C203.033 29.66 200.431 24.6496 184.442 23.7244Z" fill="white"/>
</svg>
