<svg width="360" height="174" viewBox="0 0 360 174" fill="none" xmlns="http://www.w3.org/2000/svg">
<path fill-rule="evenodd" clip-rule="evenodd" d="M199.912 98.4203C202.843 98.4203 205.004 99.1001 205.588 99.2694V105.643C205.542 105.619 205.435 105.561 205.273 105.481L205.052 105.377C204.231 104.999 202.56 104.371 200.35 104.371C196.333 104.371 193.534 107.07 193.534 110.706C193.534 114.232 196.212 117.042 200.35 117.042C202.846 117.042 204.699 116.232 205.357 115.903L205.501 115.829C205.539 115.809 205.569 115.793 205.588 115.782V122.156C204.805 122.364 202.684 123 199.912 123C192.911 123 186.774 118.354 186.774 110.706C186.774 103.615 192.327 98.4203 199.912 98.4203ZM134.917 98.4203C137.848 98.4203 140.009 99.1001 140.605 99.2694V105.643C140.559 105.619 140.452 105.561 140.29 105.481L140.07 105.377C139.25 104.999 137.578 104.371 135.368 104.371C131.338 104.371 128.545 107.07 128.545 110.706C128.545 114.232 131.218 117.042 135.368 117.042C138.298 117.042 140.327 115.926 140.605 115.782V122.156C139.824 122.364 137.702 123 134.917 123C127.924 123 121.783 118.354 121.783 110.706C121.783 103.615 127.345 98.4203 134.917 98.4203ZM225.184 98.4202C232.769 98.4202 238.217 103.925 238.217 110.705C238.217 117.496 232.769 123 225.184 123C217.587 123 212.151 117.496 212.151 110.705C212.151 103.925 217.587 98.4202 225.184 98.4202ZM172.931 98.4111C175.967 98.4111 178.817 99.1212 179.004 99.1673V104.234C178.911 104.209 176.286 103.513 174.138 103.513C171.632 103.513 170.279 104.315 170.279 105.456C170.279 106.903 172.109 107.405 173.129 107.722L174.853 108.245C178.898 109.48 180.741 112.144 180.741 115.03C180.741 120.997 175.291 123 170.517 123C167.203 123 164.101 122.415 163.795 122.35V116.89C164.352 117.021 166.964 117.768 169.683 117.768C172.772 117.768 174.204 116.901 174.204 115.553C174.204 114.348 172.97 113.659 171.42 113.189C171.048 113.069 170.477 112.9 170.094 112.773C166.62 111.721 163.729 109.764 163.729 105.835C163.729 101.394 167.19 98.4111 172.931 98.4111ZM155.386 98.8413V122.577H149.158V98.8413H155.386ZM225.184 104.463C221.485 104.463 218.739 107.26 218.739 110.705C218.739 114.156 221.485 116.952 225.184 116.952C228.87 116.952 231.615 114.156 231.615 110.705C231.615 107.26 228.87 104.463 225.184 104.463ZM146.056 51C147.753 51 149.145 52.3278 149.145 53.9627V85.485C149.145 87.1275 147.753 88.4527 146.056 88.4527C144.345 88.4527 142.953 87.1275 142.953 85.485V53.9627C142.953 52.3278 144.345 51 146.056 51ZM213.979 51C215.676 51 217.056 52.3278 217.056 53.9627V85.485C217.056 87.1275 215.676 88.4527 213.979 88.4527C212.27 88.4527 210.892 87.1275 210.892 85.485V53.9627C210.892 52.3278 212.27 51 213.979 51ZM112.091 70.3693C113.793 70.3693 115.181 71.6968 115.181 73.3272V79.5601C115.181 81.2067 113.793 82.5363 112.091 82.5363C110.391 82.5363 109 81.2067 109 79.5601V73.3272C109 71.6968 110.391 70.3693 112.091 70.3693ZM129.07 62.187C130.768 62.187 132.16 63.5192 132.16 65.1494V79.56C132.16 81.2067 130.768 82.5365 129.07 82.5365C127.367 82.5365 125.979 81.2067 125.979 79.56V65.1494C125.979 63.5192 127.367 62.187 129.07 62.187ZM163.027 62.187C164.737 62.187 166.116 63.5192 166.116 65.1494V79.56C166.116 81.2067 164.737 82.5365 163.027 82.5365C161.33 82.5365 159.937 81.2067 159.937 79.56V65.1494C159.937 63.5192 161.33 62.187 163.027 62.187ZM180.011 70.3693C181.696 70.3693 183.086 71.6968 183.086 73.3272V79.5601C183.086 81.2067 181.696 82.5363 180.011 82.5363C178.301 82.5363 176.922 81.2067 176.922 79.5601V73.3272C176.922 71.6968 178.301 70.3693 180.011 70.3693ZM196.982 62.187C198.694 62.187 200.074 63.5192 200.074 65.1494V79.56C200.074 81.2067 198.694 82.5365 196.982 82.5365C195.285 82.5365 193.907 81.2067 193.907 79.56V65.1494C193.907 63.5192 195.285 62.187 196.982 62.187ZM230.926 62.187C232.664 62.187 234.041 63.5192 234.041 65.1494V79.56C234.041 81.2067 232.664 82.5365 230.926 82.5365C229.229 82.5365 227.851 81.2067 227.851 79.56V65.1494C227.851 63.5192 229.229 62.187 230.926 62.187ZM247.925 70.3693C249.62 70.3693 251 71.6968 251 73.3272V79.5601C251 81.2067 249.62 82.5363 247.925 82.5363C246.214 82.5363 244.833 81.2067 244.833 79.5601V73.3272C244.833 71.6968 246.214 70.3693 247.925 70.3693Z" fill="white"/>
</svg>
