<svg width="360" height="174" viewBox="0 0 360 174" fill="none" xmlns="http://www.w3.org/2000/svg">
<path d="M122.392 71.4313V73.0632H120.752V71.4313H118.034V72.6088H116.575V74.0603H118.203V75.676H116.575V74.0603L114.847 74.059V76.5958H113.211V78.2142H112.125V79.8407H110.931C109.59 81.8281 106.23 88.0235 105.213 90.5481C101.553 85.4691 98.7107 83.4532 96.471 82.7261C95.2623 82.3626 93.8067 83.6744 95.8144 85.7377C100.421 90.7882 101.872 94.9705 103.272 98.3077C104.012 100.066 107.334 100.339 108.002 98.5492C109.421 94.7616 111.475 90.5074 113.91 87.0142V85.2032H115.208V83.5713H116.575V81.6788H118.209V79.8556H116.559V78.1979H118.209V79.8556H119.824L119.82 78.2142H121.117V76.2335H122.573V74.8715H123.976V71.4313H122.392ZM122.392 66.4839H123.976V69.8115H122.392V66.4839ZM123.976 64.761H127.15V66.4839H123.976V64.761ZM127.15 63.0422H128.871V64.761H127.15V63.0409V63.0422ZM123.974 69.8115H125.601V71.4313H123.973L123.974 69.8115ZM119.12 68.2596H120.751V69.8129H119.12V68.2596ZM125.601 68.1796H127.423V69.8115H125.601V68.1796ZM120.751 69.8129L122.392 69.8115V71.4313H120.752L120.751 69.8129ZM123.974 66.4839H125.601V68.1796L123.973 68.1782V66.4825L123.974 66.4839ZM128.871 61.3031H130.612V63.0409H128.871V61.3031ZM128.871 64.761H130.612V66.4947H128.871V64.761ZM275.057 99.8203H275.89L276.426 101.778L276.935 99.8203H277.768V102.504H277.222V100.45L276.647 102.504H276.148L275.583 100.45V102.504H275.057V99.8203ZM273.275 100.257H272.575V99.8203H274.52V100.258H273.831V102.504H273.275V100.258V100.257ZM104.555 75.2283C100.508 75.2175 96.6257 76.8223 93.766 79.6847C90.8969 82.5281 89.2866 86.4024 89.2947 90.4409C89.2947 94.5025 90.8819 98.324 93.766 101.201C96.6257 104.062 100.51 105.666 104.555 105.655C108.631 105.655 112.464 104.072 115.349 101.199C118.216 98.3538 119.824 94.4795 119.816 90.4409C119.824 86.4024 118.216 82.5281 115.349 79.6833C112.487 76.8209 108.603 75.2175 104.555 75.2283ZM104.555 112.697C92.2507 112.694 82.2338 102.713 82.2324 90.4409C82.2338 78.1721 92.2507 68.1891 104.555 68.1891C116.862 68.1891 126.877 78.1721 126.877 90.4409C126.877 102.711 116.862 112.694 104.555 112.697ZM263.909 103.095C257.953 103.095 255.83 98.3877 255.83 93.9816C255.83 89.6514 257.947 84.5941 263.909 84.5941C266.368 84.5941 268.087 85.1801 269.658 86.5571L269.785 86.667L269.691 86.8067L267.804 89.509L267.691 89.6677L267.532 89.551C266.546 88.8131 265.558 88.322 263.944 88.322C261.634 88.322 260.463 90.2158 260.463 93.9463C260.463 97.6159 261.635 99.3998 264.046 99.3998C265.637 99.3998 266.671 98.8029 267.729 97.9062L267.881 97.7773L268.003 97.9347L269.956 100.431L270.06 100.562L269.944 100.68C268.33 102.327 266.414 103.095 263.909 103.095ZM243.26 92.3212H249.343C249.239 89.3801 248.272 87.9476 246.385 87.9476C244.534 87.9476 243.51 89.3801 243.26 92.3212ZM246.691 103.095C241.688 103.095 238.579 99.6019 238.579 93.9816C238.579 88.2786 241.642 84.5941 246.385 84.5941C251.19 84.5941 253.946 88.0276 253.946 94.0155V95.2649H243.225C243.469 98.1449 244.639 99.435 247 99.435C248.934 99.435 250.21 98.7201 251.564 97.8573L251.724 97.7569L253.471 100.48L253.565 100.625L253.429 100.731C251.753 102.025 250.092 103.095 246.691 103.095ZM234.277 103.095C230.756 103.095 229.046 101.356 229.046 97.7759V88.185H226.436V84.9712H229.138L229.936 80.1364L229.963 79.9777H233.538V84.9712H237.309V88.1863H233.538V97.5385C233.538 99.0633 233.8 99.606 235.27 99.606C235.715 99.606 236.415 99.4784 237.102 99.2709L237.305 99.2085L237.343 99.4174L237.859 102.257L237.884 102.409L237.741 102.468C237.275 102.656 236.007 103.095 234.276 103.095H234.277ZM224.895 102.787H220.402V90.8696C220.402 89.1332 219.789 88.3912 218.362 88.3912C217.164 88.3912 215.757 89.1088 214.675 90.2619V102.787H210.18V84.9712H213.012L213.052 85.1028L213.846 87.5582C215.696 85.5641 217.647 84.5941 219.801 84.5941C223.182 84.5941 224.895 86.7172 224.895 90.9035V102.787ZM201.882 94.3492C198.938 94.919 197.49 95.4535 196.904 96.1847C196.54 96.6052 196.429 96.9539 196.429 97.6742C196.429 99.0036 197.146 99.7063 198.502 99.7063C199.625 99.7063 200.88 99.2343 201.882 98.4379V94.3492ZM197.576 103.095C194.276 103.095 191.97 100.977 191.97 97.9482C191.97 96.0002 192.648 94.6328 194.109 93.652C195.6 92.6399 198.076 91.9074 201.882 91.3566V90.9035C201.882 88.9487 201.17 88.2202 199.257 88.2202C197.62 88.2202 195.973 88.9026 194.436 89.6392L194.272 89.7192L194.186 89.5565L192.746 86.8569L192.663 86.6995L192.812 86.6046C195.078 85.2141 197.179 84.5941 199.636 84.5941C204.045 84.5941 206.375 86.8704 206.375 91.1776V102.786H203.556L203.507 102.67L202.757 100.939C201.638 101.964 199.881 103.095 197.576 103.095ZM189.81 102.787H185.314V90.8696C185.314 89.3828 185.008 88.3912 183.517 88.3912C182.489 88.3912 181.287 89.003 180.035 90.1669V102.787H175.542V90.8696C175.542 89.3828 175.234 88.3912 173.74 88.3912C172.647 88.3912 171.382 89.06 170.259 90.2293V102.787H165.766V84.9712H168.595L168.635 85.1028L169.43 87.527C171.29 85.5532 173.174 84.5941 175.182 84.5941C177.727 84.5941 178.768 85.9805 179.358 87.2856C180.614 86.0104 182.551 84.5941 184.956 84.5941C188.968 84.5941 189.81 88.0262 189.81 90.9035V102.787ZM151.504 109.145C150.647 109.141 149.792 109.037 148.958 108.835L148.786 108.797L148.813 108.62L149.261 105.715L149.288 105.533L149.468 105.555L149.76 105.591C150.208 105.645 150.56 105.692 151.06 105.692C152.735 105.692 153.807 105.058 154.524 103.643L148.239 85.2208L148.152 84.9712H152.815L152.856 85.1082L156.503 98.1273L159.759 85.1137L159.795 84.9712H164.212L164.137 85.2154L158.548 103.44C157.362 107.333 155.122 109.145 151.504 109.145ZM139.571 103.095C135.044 103.095 132.158 101.378 130.844 100.353L130.708 100.249L130.8 100.102L132.686 97.1614L132.795 96.9918L132.959 97.1112C134.058 97.9143 136.368 99.2627 139.5 99.2627C142.193 99.2627 143.738 98.0961 143.738 96.0667C143.738 93.8324 141.92 93.1948 138.624 92.039L138.237 91.9033C134.93 90.7543 131.869 89.0803 131.869 84.6117C131.869 80.5922 134.973 77.9971 139.776 77.9971C142.622 77.9971 144.834 78.5153 146.733 79.6277L146.883 79.7172L146.808 79.8732L145.298 82.9852L145.214 83.1616L145.039 83.0707C143.432 82.2472 141.65 81.8199 139.845 81.8253C138.133 81.8253 136.09 82.292 136.09 84.51C136.09 86.6805 137.697 87.2096 140.897 88.2623C144.378 89.3937 148.094 91.0188 148.094 96.0002C148.094 100.442 144.907 103.095 139.571 103.095Z" fill="white"/>
</svg>
