<svg width="360" height="134" viewBox="0 0 360 134" fill="none" xmlns="http://www.w3.org/2000/svg">
<path fill-rule="evenodd" clip-rule="evenodd" d="M214.127 46.6034C214.467 46.6034 214.748 46.8616 214.773 47.1871L214.775 47.2364V63.4087C216.844 61.2467 220.428 59.763 223.853 59.763C227.664 59.763 231.116 61.1894 233.574 63.779C236.056 66.3947 237.369 69.9454 237.369 74.0467C237.369 83.9621 230.58 88.4001 223.853 88.4001C217.193 88.4001 210.473 84.0504 210.34 74.3425L210.338 74.0467V47.2364C210.338 46.9046 210.602 46.6306 210.935 46.6053L210.986 46.6034H214.127ZM180.348 60.6819C180.688 60.6819 180.969 60.9401 180.995 61.2655L180.997 61.3148V86.7635C180.997 87.0953 180.732 87.3693 180.399 87.3946L180.348 87.3965H177.212C176.873 87.3965 176.592 87.1383 176.566 86.8128L176.564 86.7635V61.3148C176.564 60.9831 176.829 60.7091 177.162 60.6838L177.212 60.6819H180.348ZM247.289 60.6819C247.629 60.6819 247.909 60.9401 247.935 61.2655L247.937 61.3148V86.7635C247.937 87.0953 247.673 87.3693 247.34 87.3946L247.289 87.3965H244.153C243.813 87.3965 243.533 87.1383 243.507 86.8128L243.505 86.7635V61.3148C243.505 60.9831 243.769 60.7091 244.102 60.6838L244.153 60.6819H247.289ZM169.201 46.6031C169.541 46.6031 169.822 46.8617 169.848 47.1869L169.849 47.2361V50.2972C169.849 50.6289 169.585 50.9032 169.252 50.9286L169.201 50.9305H165.509C163.443 50.9305 161.877 52.5401 161.828 54.6916L161.827 54.7962V60.6818H169.201C169.541 60.6818 169.822 60.9403 169.848 61.2656L169.849 61.3148V64.3762C169.849 64.7079 169.585 64.9819 169.252 65.0072L169.201 65.0092H161.827V86.7635C161.827 87.0952 161.562 87.3692 161.229 87.3946L161.178 87.3965H158.042C157.703 87.3965 157.422 87.1383 157.396 86.8128L157.394 86.7635V65.0092H154.03C153.69 65.0092 153.409 64.751 153.383 64.4255L153.382 64.3762V61.3148C153.382 60.9834 153.646 60.7091 153.979 60.6837L154.03 60.6818H157.394V54.7962C157.394 50.3237 161.083 46.6767 165.647 46.6043L165.786 46.6031H169.201ZM195.746 50.243C196.085 50.243 196.366 50.5012 196.392 50.8267L196.394 50.876V60.682H203.079C203.419 60.682 203.699 60.9402 203.725 61.2657L203.727 61.315V64.376C203.727 64.7077 203.463 64.9817 203.129 65.0071L203.079 65.009H196.394V79.373C196.394 81.5138 197.861 83.0186 199.974 83.0658L200.077 83.067H203.079C203.419 83.067 203.699 83.3255 203.725 83.651L203.727 83.7003V86.7613C203.727 87.0927 203.463 87.367 203.129 87.3924L203.079 87.3943H199.685C195.111 87.3943 192.023 84.4246 191.962 79.9895L191.961 79.8546V65.009H188.597C188.258 65.009 187.977 64.7508 187.951 64.4253L187.949 64.376V61.315C187.949 60.9832 188.214 60.7092 188.547 60.6839L188.597 60.682H191.961V50.876C191.961 50.5442 192.225 50.2702 192.559 50.2449L192.609 50.243H195.746ZM262.019 50.243C262.358 50.243 262.639 50.5012 262.665 50.8267L262.667 50.876V60.682H269.352C269.692 60.682 269.972 60.9402 269.998 61.2657L270 61.315V64.376C270 64.7077 269.736 64.9817 269.402 65.0071L269.352 65.009H262.667V79.373C262.667 81.5138 264.134 83.0186 266.247 83.0658L266.35 83.067H269.352C269.692 83.067 269.972 83.3255 269.998 83.651L270 83.7003V86.7613C270 87.0927 269.736 87.367 269.402 87.3924L269.352 87.3943H265.957C261.384 87.3943 258.296 84.4246 258.235 79.9895L258.234 65.009H254.87C254.531 65.009 254.25 64.7508 254.224 64.4253L254.222 64.376V61.315C254.222 60.9832 254.487 60.7092 254.82 60.6839L254.87 60.682H258.234V50.876C258.234 50.5442 258.499 50.2702 258.832 50.2449L258.882 50.243H262.019ZM223.853 64.0947C218.423 64.0947 214.774 68.0941 214.774 74.0467C214.774 78.8917 217.159 84.0684 223.853 84.0684C230.547 84.0684 232.932 78.8917 232.932 74.0467C232.932 68.0941 229.283 64.0947 223.853 64.0947ZM178.78 49.989C180.435 49.989 181.782 51.3036 181.782 52.9196C181.782 54.5353 180.435 55.85 178.78 55.85C177.125 55.85 175.779 54.5353 175.779 52.9196C175.779 51.3036 177.125 49.989 178.78 49.989ZM245.72 49.9895C247.363 49.9895 248.701 51.3038 248.701 52.9195C248.701 54.5351 247.363 55.8494 245.72 55.8494C244.077 55.8494 242.698 54.5351 242.698 52.9195C242.698 51.3038 244.077 49.9895 245.72 49.9895Z" fill="white"/>
<path fill-rule="evenodd" clip-rule="evenodd" d="M113.597 83.7927C115.635 83.7927 117.288 85.406 117.288 87.3963C117.288 89.3863 115.635 91 113.597 91C111.558 91 109.906 89.3863 109.906 87.3963C109.906 85.406 111.558 83.7927 113.597 83.7927ZM123.762 72.9707C126.153 72.9707 128.092 74.8633 128.092 77.1987C128.092 79.5337 126.153 81.4267 123.762 81.4267C121.37 81.4267 119.431 79.5337 119.431 77.1987C119.431 74.8633 121.37 72.9707 123.762 72.9707ZM113.597 73.451C115.717 73.451 117.436 75.1287 117.436 77.1987C117.436 79.2683 115.717 80.946 113.597 80.946C111.477 80.946 109.758 79.2683 109.758 77.1987C109.758 75.1287 111.477 73.451 113.597 73.451ZM103.3 73.9313C105.148 73.9313 106.646 75.3943 106.646 77.1987C106.646 79.003 105.148 80.4657 103.3 80.4657C101.451 80.4657 99.9528 79.003 99.9528 77.1987C99.9528 75.3943 101.451 73.9313 103.3 73.9313ZM134.197 62.1473C136.942 62.1473 139.168 64.32 139.168 67C139.168 69.6803 136.942 71.8527 134.197 71.8527C131.452 71.8527 129.226 69.6803 129.226 67C129.226 64.32 131.452 62.1473 134.197 62.1473ZM123.762 62.628C126.235 62.628 128.24 64.5853 128.24 67C128.24 69.415 126.235 71.3723 123.762 71.3723C121.288 71.3723 119.283 69.415 119.283 67C119.283 64.5853 121.288 62.628 123.762 62.628ZM113.597 63.1083C115.798 63.1083 117.583 64.8507 117.583 67C117.583 69.1497 115.798 70.8917 113.597 70.8917C111.395 70.8917 109.61 69.1497 109.61 67C109.61 64.8507 111.395 63.1083 113.597 63.1083ZM103.3 63.589C105.23 63.589 106.794 65.1163 106.794 67C106.794 68.8843 105.23 70.4113 103.3 70.4113C101.37 70.4113 99.8053 68.8843 99.8053 67C99.8053 65.1163 101.37 63.589 103.3 63.589ZM93.0017 64.0693C94.6597 64.0693 96.0037 65.3817 96.0037 67C96.0037 68.6187 94.6597 69.9307 93.0017 69.9307C91.3439 69.9307 89.9997 68.6187 89.9997 67C89.9997 65.3817 91.3439 64.0693 93.0017 64.0693ZM123.762 52.573C126.153 52.573 128.092 54.466 128.092 56.801C128.092 59.136 126.153 61.029 123.762 61.029C121.37 61.029 119.431 59.136 119.431 56.801C119.431 54.466 121.37 52.573 123.762 52.573ZM113.597 53.0533C115.717 53.0533 117.436 54.7313 117.436 56.801C117.436 58.8707 115.717 60.5487 113.597 60.5487C111.477 60.5487 109.758 58.8707 109.758 56.801C109.758 54.7313 111.477 53.0533 113.597 53.0533ZM103.3 53.534C105.148 53.534 106.646 54.9967 106.646 56.801C106.646 58.6053 105.148 60.0683 103.3 60.0683C101.451 60.0683 99.9528 58.6053 99.9528 56.801C99.9528 54.9967 101.451 53.534 103.3 53.534ZM113.597 43C115.635 43 117.288 44.6133 117.288 46.6033C117.288 48.5937 115.635 50.207 113.597 50.207C111.558 50.207 109.906 48.5937 109.906 46.6033C109.906 44.6133 111.558 43 113.597 43Z" fill="white"/>
</svg>
