<svg width="360" height="174" viewBox="0 0 360 174" fill="none" xmlns="http://www.w3.org/2000/svg">
<path fill-rule="evenodd" clip-rule="evenodd" d="M115.547 72.7529V62.964C115.547 61.6914 114.888 60.2839 111.692 60.2839V59.4507H123.859V60.2839C120.665 60.2839 120.01 61.6926 120.01 62.964V85.001C120.01 86.2736 120.665 87.6799 123.859 87.6799V88.5131H111.692V87.6799C114.888 87.6799 115.547 86.2736 115.547 85.0022V74.5531H102.282V85.0022C102.282 86.2736 102.938 87.6799 106.135 87.6799V88.5131H93.9652V87.6799C97.1609 87.6799 97.8175 86.2736 97.8175 85.0022V62.9652C97.8175 61.6914 97.1609 60.2839 93.9652 60.2839V59.4507H106.135V60.2839C102.938 60.2839 102.282 61.6926 102.282 62.964V72.7529H115.547ZM124.886 79.6899H125.893C127.251 83.7726 130.314 87.4638 134.953 87.4638C138.499 87.4638 140.904 84.3886 139.902 80.9637C138.104 74.8158 126.158 74.5531 126.158 66.1692C126.158 61.8215 129.614 58.8359 133.904 58.8359C138.543 58.8359 140.643 62.0854 141.695 58.8359H142.612L143.575 68.1891H142.484C141.475 64.1064 138.585 60.6385 134.515 60.6385C131.889 60.6385 129.921 62.0854 129.921 64.8537C129.921 67.3976 132.678 69.1967 134.56 70.3379C140.51 73.9395 144.537 75.8269 144.537 81.0938C144.537 85.0464 141.254 89.1279 135.306 89.1279C130.754 89.1279 127.6 85.9262 127.16 89.1279H126.198L124.886 79.6899ZM159.008 72.4473C163.427 72.4473 166.011 70.5576 166.011 67.0037C166.011 63.6647 163.911 61.8645 160.848 61.2975C156.819 61.0312 155.417 60.9453 155.417 62.4805V72.4473H159.008ZM155.417 84.5629C155.417 86.1005 155.812 86.8908 159.008 86.8908C163.56 86.8908 166.931 85.5299 166.931 80.3931C166.931 75.1679 161.72 74.201 157.608 74.201H155.417V84.5629ZM150.954 62.964C150.954 61.6914 150.297 60.2839 146.752 60.2839V59.4507H158.48C165.223 59.4507 170.477 61.2509 170.477 66.8724C170.477 70.5576 168.022 72.4473 164.656 73.1934V73.2818C168.416 73.9825 171.962 76.308 171.962 80.5256C171.962 85.7937 167.413 88.5131 160.54 88.5131H146.752V87.6799C150.297 87.6799 150.954 86.2736 150.954 85.0022V62.964ZM198.233 68.4911H197.183C195.916 63.6611 192.72 60.3687 187.728 60.3687C180.509 60.3687 177.402 66.2063 177.402 74.109C177.402 80.2558 180.595 86.8824 187.776 86.8824C192.065 86.8824 194.997 85.4774 198.017 82.4941L198.761 83.3727C196.091 86.6652 191.583 88.8617 187.38 88.8617C178.845 88.8617 172.325 83.3727 172.325 73.7569C172.325 65.022 178.495 58.5661 187.294 58.5661C193.29 58.5661 195.479 62.1701 196.926 58.6127H197.841L198.233 68.4911ZM107.253 95.5122L107.632 100.17H107.253C106.868 99.0112 106.371 98.1373 105.763 97.5464C104.888 96.6988 103.761 96.275 102.385 96.275C100.511 96.275 99.0829 97.0176 98.1076 98.505C97.2887 99.7621 96.8816 101.257 96.8816 102.994C96.8816 104.402 97.1514 105.688 97.6934 106.85C98.2377 108.012 98.9492 108.863 99.8278 109.403C100.706 109.946 101.611 110.217 102.538 110.217C103.083 110.217 103.606 110.146 104.113 110.008C104.626 109.868 105.118 109.664 105.578 109.399V105.126C105.578 104.386 105.522 103.902 105.411 103.672C105.3 103.444 105.116 103.261 104.888 103.151C104.654 103.029 104.24 102.97 103.647 102.97V102.557H109.348V102.97H109.077C108.51 102.97 108.125 103.16 107.913 103.538C107.769 103.805 107.698 104.338 107.698 105.126V109.647C106.919 110.074 106.092 110.408 105.233 110.64C104.421 110.851 103.52 110.956 102.527 110.956C99.6834 110.956 97.5227 110.04 96.0436 108.212C94.9346 106.836 94.383 105.256 94.383 103.46C94.383 102.163 94.6934 100.918 95.3166 99.7239C96.0543 98.3068 97.0702 97.2169 98.3571 96.4553C99.4351 95.8226 100.71 95.5122 102.177 95.5122C102.716 95.5122 103.201 95.5516 103.643 95.6412C104.08 95.7271 104.7 95.9205 105.503 96.2178C105.908 96.3694 106.182 96.4446 106.32 96.4446C106.389 96.4435 106.458 96.4256 106.519 96.3923C106.58 96.3591 106.633 96.3115 106.672 96.2536C106.767 96.1282 106.827 95.8787 106.85 95.511L107.253 95.5122ZM113.777 95.1302V108.366C113.777 108.99 113.825 109.403 113.914 109.607C113.999 109.803 114.146 109.965 114.333 110.068C114.523 110.172 114.871 110.228 115.386 110.228V110.618H110.512V110.228C110.968 110.228 111.279 110.18 111.443 110.083C111.623 109.976 111.761 109.811 111.835 109.614C111.928 109.399 111.976 108.982 111.976 108.366V99.3001C111.976 98.1732 111.951 97.482 111.902 97.2253C111.85 96.9686 111.768 96.7896 111.657 96.6976C111.536 96.5993 111.383 96.5488 111.227 96.5556C111.039 96.5556 110.801 96.6117 110.511 96.7311L110.326 96.3479L113.292 95.1278H113.777V95.1302ZM121.403 100.346C122.907 100.346 124.116 100.922 125.032 102.067C125.798 103.025 126.208 104.218 126.192 105.443C126.192 106.339 125.977 107.242 125.551 108.157C125.125 109.072 124.535 109.764 123.787 110.228C123.036 110.693 122.168 110.934 121.285 110.924C119.783 110.924 118.593 110.325 117.711 109.127C116.976 108.148 116.582 106.954 116.591 105.73C116.591 104.811 116.818 103.903 117.27 103.001C117.721 102.097 118.318 101.427 119.056 100.996C119.764 100.57 120.576 100.345 121.403 100.346ZM121.065 101.056C120.683 101.056 120.299 101.167 119.91 101.398C119.524 101.628 119.209 102.027 118.971 102.603C118.73 103.176 118.612 103.912 118.612 104.812C118.612 106.265 118.901 107.518 119.475 108.57C120.05 109.623 120.81 110.15 121.752 110.15C122.452 110.15 123.03 109.86 123.49 109.28C123.946 108.696 124.172 107.699 124.172 106.284C124.172 104.51 123.794 103.115 123.03 102.101C122.519 101.401 121.863 101.056 121.065 101.056ZM130.385 102.361C131.349 101.019 132.387 100.346 133.503 100.346C134.523 100.346 135.412 100.784 136.172 101.659C136.932 102.535 137.314 103.729 137.314 105.25C137.314 107.019 136.729 108.447 135.553 109.53C134.548 110.458 133.425 110.924 132.186 110.924C131.584 110.92 130.988 110.813 130.422 110.608C129.774 110.37 129.159 110.051 128.591 109.66V99.3228C128.591 98.1887 128.566 97.4939 128.509 97.2301C128.457 96.9698 128.372 96.7908 128.258 96.6988C128.133 96.6009 127.978 96.5505 127.819 96.5568C127.62 96.5568 127.363 96.6129 127.06 96.7323L126.907 96.3491L129.895 95.129H130.385V102.361ZM130.385 103.059V109.028C130.753 109.391 131.133 109.667 131.531 109.848C131.924 110.034 132.327 110.128 132.743 110.128C133.399 110.128 134.014 109.764 134.581 109.039C135.148 108.313 135.435 107.258 135.435 105.871C135.435 104.592 135.148 103.61 134.581 102.922C134.014 102.238 133.369 101.893 132.642 101.893C132.26 101.893 131.876 101.993 131.494 102.185C131.204 102.331 130.834 102.625 130.385 103.059ZM144.417 109.18C143.397 109.971 142.756 110.428 142.492 110.553C142.103 110.734 141.688 110.827 141.247 110.827C140.557 110.827 139.99 110.588 139.545 110.117C139.101 109.644 138.877 109.023 138.877 108.255C138.877 107.766 138.985 107.347 139.204 106.989C139.501 106.5 140.016 106.034 140.749 105.596C141.483 105.16 142.707 104.633 144.417 104.008V103.614C144.417 102.621 144.261 101.937 143.945 101.565C143.63 101.197 143.17 101.011 142.57 101.011C142.114 101.011 141.751 101.134 141.483 101.383C141.209 101.628 141.073 101.911 141.073 102.231L141.094 102.863C141.094 103.198 141.009 103.454 140.839 103.636C140.753 103.726 140.65 103.797 140.535 103.844C140.419 103.891 140.296 103.913 140.171 103.908C140.047 103.912 139.924 103.889 139.81 103.84C139.696 103.791 139.594 103.718 139.511 103.625C139.341 103.434 139.256 103.179 139.256 102.852C139.256 102.227 139.575 101.654 140.212 101.13C140.85 100.61 141.744 100.346 142.896 100.346C143.779 100.346 144.501 100.494 145.068 100.792C145.494 101.019 145.81 101.371 146.014 101.851C146.144 102.164 146.207 102.799 146.207 103.766V107.153C146.207 108.105 146.225 108.689 146.262 108.904C146.299 109.116 146.358 109.262 146.441 109.333C146.52 109.404 146.622 109.444 146.729 109.444C146.836 109.446 146.941 109.419 147.033 109.366C147.185 109.273 147.479 109.005 147.912 108.57V109.179C147.104 110.268 146.329 110.815 145.588 110.815C145.428 110.822 145.269 110.792 145.122 110.727C144.976 110.663 144.846 110.566 144.742 110.444C144.531 110.198 144.424 109.777 144.417 109.18ZM144.417 108.473V104.67C143.323 105.109 142.619 105.417 142.299 105.596C141.726 105.915 141.317 106.25 141.073 106.599C140.824 106.949 140.703 107.328 140.703 107.745C140.703 108.265 140.858 108.7 141.168 109.046C141.48 109.387 141.839 109.563 142.244 109.563C142.797 109.563 143.519 109.198 144.417 108.473ZM152.071 95.129V108.366C152.071 108.99 152.119 109.403 152.208 109.607C152.292 109.803 152.439 109.965 152.626 110.068C152.817 110.172 153.164 110.228 153.68 110.228V110.618H148.805V110.228C149.261 110.228 149.572 110.18 149.736 110.083C149.916 109.976 150.055 109.811 150.129 109.614C150.222 109.399 150.27 108.982 150.27 108.366V99.3001C150.27 98.1732 150.243 97.482 150.196 97.2253C150.143 96.9686 150.062 96.7896 149.951 96.6976C149.83 96.5994 149.677 96.5489 149.521 96.5556C149.331 96.5556 149.094 96.6117 148.805 96.7311L148.62 96.3479L151.585 95.1278L152.071 95.129ZM172.167 95.8465L172.331 99.312H171.915C171.836 98.7032 171.729 98.2675 171.588 98.0036C171.391 97.6109 171.079 97.2868 170.695 97.0737C170.32 96.8731 169.832 96.7729 169.223 96.7729H167.147V108.06C167.147 108.967 167.247 109.533 167.44 109.76C167.714 110.064 168.14 110.217 168.712 110.217H169.223V110.618H162.977V110.217H163.5C164.122 110.217 164.563 110.027 164.823 109.648C164.983 109.417 165.064 108.886 165.064 108.06V96.7729H163.292C162.606 96.7729 162.117 96.8254 161.828 96.9245C161.449 97.0629 161.127 97.3304 160.861 97.7207C160.593 98.1147 160.435 98.6435 160.383 99.312H159.97L160.144 95.8465H172.167ZM173.697 104.399C173.69 105.881 174.046 107.042 174.772 107.886C175.495 108.726 176.348 109.146 177.323 109.146C177.976 109.146 178.543 108.967 179.025 108.607C179.506 108.25 179.907 107.633 180.233 106.764L180.57 106.978C180.418 107.975 179.978 108.883 179.247 109.697C178.513 110.514 177.597 110.924 176.5 110.924C175.303 110.924 174.28 110.458 173.431 109.526C172.578 108.592 172.156 107.335 172.156 105.758C172.156 104.052 172.59 102.721 173.465 101.77C174.336 100.815 175.43 100.335 176.748 100.335C177.865 100.335 178.781 100.703 179.496 101.443C180.212 102.178 180.57 103.164 180.57 104.399H173.697ZM173.697 103.766H178.302C178.266 103.127 178.191 102.677 178.073 102.417C177.905 102.024 177.623 101.69 177.264 101.457C176.932 101.234 176.542 101.112 176.141 101.107C175.541 101.107 175.002 101.343 174.528 101.811C174.053 102.28 173.776 102.933 173.697 103.766ZM190.346 106.826C190.08 108.142 189.553 109.153 188.77 109.86C187.988 110.571 187.125 110.923 186.176 110.923C185.045 110.923 184.059 110.448 183.221 109.496C182.38 108.543 181.961 107.261 181.961 105.64C181.961 104.072 182.427 102.795 183.357 101.818C184.289 100.836 185.405 100.346 186.706 100.346C187.685 100.346 188.488 100.606 189.119 101.127C189.749 101.643 190.064 102.183 190.064 102.744C190.064 103.019 189.976 103.242 189.798 103.413C189.619 103.585 189.372 103.669 189.053 103.669C188.626 103.669 188.303 103.532 188.085 103.257C187.963 103.105 187.882 102.811 187.844 102.384C187.803 101.956 187.655 101.628 187.402 101.401C187.146 101.186 186.798 101.079 186.35 101.079C185.623 101.079 185.042 101.346 184.6 101.881C184.015 102.595 183.722 103.536 183.722 104.703C183.722 105.893 184.01 106.945 184.597 107.856C185.178 108.767 185.965 109.224 186.958 109.224C187.663 109.227 188.344 108.967 188.868 108.496C189.268 108.161 189.652 107.555 190.031 106.674L190.346 106.826ZM194.691 95.129V102.428C195.491 101.543 196.128 100.974 196.6 100.721C197.033 100.481 197.518 100.352 198.012 100.346C198.576 100.346 199.062 100.501 199.469 100.814C199.873 101.127 200.173 101.617 200.37 102.287C200.507 102.751 200.573 103.599 200.573 104.833V108.366C200.573 108.994 200.625 109.428 200.729 109.66C200.801 109.835 200.93 109.982 201.096 110.075C201.27 110.177 201.589 110.228 202.053 110.228V110.618H197.167V110.228H197.394C197.857 110.228 198.179 110.154 198.361 110.013C198.542 109.871 198.669 109.663 198.739 109.387C198.761 109.273 198.773 108.93 198.773 108.366V104.833C198.773 103.743 198.717 103.031 198.606 102.688C198.49 102.345 198.312 102.094 198.068 101.922C197.804 101.746 197.491 101.657 197.174 101.666C196.822 101.666 196.452 101.758 196.07 101.948C195.684 102.138 195.225 102.517 194.691 103.094V108.366C194.691 109.046 194.727 109.47 194.802 109.637C194.88 109.804 195.021 109.946 195.228 110.057C195.431 110.168 195.788 110.228 196.296 110.228V110.618H191.365V110.228C191.807 110.228 192.156 110.157 192.407 110.02C192.569 109.928 192.692 109.782 192.756 109.607C192.844 109.403 192.885 108.99 192.885 108.366V99.3347C192.885 98.1934 192.86 97.4939 192.804 97.2301C192.751 96.9698 192.666 96.7908 192.555 96.6988C192.427 96.5977 192.266 96.5471 192.103 96.5568C191.951 96.5568 191.707 96.6129 191.365 96.7323L191.214 96.3491L194.19 95.129H194.691ZM205.79 102.461C206.954 101.053 208.065 100.346 209.121 100.346C209.667 100.346 210.134 100.483 210.523 100.755C210.917 101.026 211.227 101.476 211.458 102.101C211.616 102.535 211.695 103.205 211.695 104.105V108.366C211.695 108.994 211.747 109.426 211.85 109.648C211.928 109.829 212.064 109.979 212.236 110.075C212.41 110.177 212.74 110.228 213.218 110.228V110.618H208.295V110.228H208.503C208.966 110.228 209.292 110.154 209.474 110.013C209.67 109.855 209.806 109.634 209.859 109.387C209.889 109.28 209.905 108.937 209.905 108.366V104.278C209.905 103.371 209.785 102.713 209.552 102.3C209.314 101.892 208.919 101.686 208.362 101.686C207.503 101.686 206.642 102.159 205.79 103.103V108.364C205.79 109.038 205.825 109.453 205.909 109.613C205.994 109.809 206.141 109.973 206.327 110.079C206.506 110.174 206.864 110.227 207.406 110.227V110.617H202.486V110.227H202.705C203.21 110.227 203.554 110.097 203.732 109.84C203.906 109.58 203.994 109.089 203.994 108.364V104.658C203.994 103.46 203.97 102.731 203.914 102.471C203.862 102.208 203.777 102.029 203.666 101.936C203.536 101.836 203.375 101.787 203.212 101.795C202.963 101.806 202.717 101.861 202.486 101.957L202.323 101.563L205.323 100.345H205.788V102.46L205.79 102.461ZM218.875 100.346C220.38 100.346 221.589 100.922 222.504 102.067C223.28 103.049 223.665 104.175 223.665 105.443C223.665 106.339 223.45 107.242 223.023 108.157C222.597 109.072 222.008 109.764 221.259 110.228C220.508 110.693 219.64 110.934 218.756 110.924C217.255 110.924 216.066 110.325 215.183 109.127C214.448 108.148 214.055 106.954 214.064 105.73C214.064 104.811 214.291 103.903 214.742 103.001C215.194 102.097 215.791 101.427 216.529 100.996C217.237 100.57 218.048 100.345 218.875 100.346ZM218.538 101.056C218.156 101.056 217.77 101.167 217.381 101.398C216.996 101.628 216.68 102.027 216.443 102.603C216.203 103.176 216.085 103.912 216.085 104.812C216.085 106.265 216.374 107.518 216.948 108.57C217.522 109.623 218.282 110.15 219.223 110.15C219.924 110.15 220.503 109.86 220.963 109.28C221.419 108.696 221.644 107.699 221.644 106.284C221.644 104.51 221.266 103.115 220.503 102.101C219.991 101.401 219.335 101.056 218.538 101.056ZM228.55 95.129V108.366C228.55 108.99 228.598 109.403 228.687 109.607C228.772 109.803 228.919 109.965 229.106 110.068C229.295 110.172 229.644 110.228 230.159 110.228V110.618H225.285V110.228C225.74 110.228 226.052 110.18 226.215 110.083C226.396 109.976 226.535 109.811 226.609 109.614C226.701 109.399 226.749 108.982 226.749 108.366V99.3001C226.749 98.1732 226.722 97.482 226.675 97.2253C226.623 96.9686 226.541 96.7896 226.43 96.6976C226.309 96.5993 226.156 96.5488 226 96.5556C225.81 96.5556 225.574 96.6117 225.284 96.7311L225.099 96.3479L228.064 95.1278L228.55 95.129ZM236.176 100.346C237.68 100.346 238.889 100.922 239.805 102.067C240.571 103.025 240.981 104.218 240.965 105.443C240.965 106.339 240.751 107.242 240.324 108.157C239.898 109.072 239.308 109.764 238.56 110.228C237.809 110.693 236.94 110.935 236.057 110.924C234.556 110.924 233.366 110.325 232.484 109.127C231.749 108.148 231.355 106.954 231.364 105.73C231.364 104.811 231.591 103.903 232.042 103.001C232.496 102.097 233.092 101.427 233.829 100.996C234.538 100.57 235.349 100.345 236.176 100.346ZM235.838 101.056C235.456 101.056 235.072 101.167 234.681 101.398C234.296 101.628 233.982 102.027 233.744 102.603C233.503 103.176 233.385 103.912 233.385 104.812C233.385 106.265 233.674 107.518 234.248 108.57C234.822 109.623 235.583 110.15 236.525 110.15C237.225 110.15 237.803 109.86 238.263 109.28C238.719 108.696 238.944 107.699 238.944 106.284C238.944 104.51 238.567 103.115 237.803 102.101C237.292 101.401 236.636 101.056 235.838 101.056ZM245.091 106.978C244.482 106.681 244.017 106.268 243.69 105.733C243.365 105.2 243.197 104.587 243.205 103.963C243.205 102.975 243.575 102.127 244.316 101.413C245.058 100.703 246.007 100.346 247.167 100.346C248.116 100.346 248.935 100.58 249.632 101.045H251.738C252.048 101.045 252.231 101.053 252.282 101.07C252.329 101.087 252.367 101.12 252.39 101.164C252.435 101.23 252.457 101.346 252.457 101.513C252.457 101.703 252.439 101.833 252.402 101.904C252.374 101.946 252.334 101.977 252.286 101.993C252.235 102.015 252.05 102.023 251.737 102.023H250.448C250.852 102.547 251.056 103.217 251.056 104.03C251.056 104.96 250.699 105.751 249.992 106.414C249.28 107.075 248.327 107.406 247.134 107.406C246.641 107.406 246.14 107.332 245.625 107.187C245.306 107.462 245.091 107.703 244.98 107.912C244.865 108.12 244.809 108.294 244.809 108.44C244.809 108.563 244.869 108.682 244.988 108.8C245.11 108.916 245.343 108.997 245.688 109.05C245.891 109.079 246.399 109.106 247.211 109.127C248.702 109.161 249.669 109.213 250.111 109.28C250.782 109.373 251.319 109.623 251.723 110.032C252.124 110.437 252.324 110.939 252.324 111.533C252.324 112.355 251.942 113.124 251.175 113.841C250.044 114.902 248.572 115.433 246.755 115.433C245.358 115.433 244.175 115.118 243.212 114.485C242.67 114.121 242.4 113.745 242.4 113.351C242.4 113.177 242.436 113.005 242.519 112.83C242.64 112.559 242.897 112.187 243.279 111.708C243.33 111.641 243.697 111.251 244.387 110.533C244.008 110.307 243.746 110.106 243.589 109.927C243.439 109.761 243.355 109.545 243.357 109.321C243.357 109.068 243.457 108.771 243.665 108.429C243.871 108.086 244.346 107.603 245.091 106.978ZM246.982 100.87C246.448 100.87 245.996 101.085 245.637 101.513C245.273 101.941 245.091 102.6 245.091 103.483C245.091 104.633 245.339 105.521 245.832 106.154C246.207 106.632 246.685 106.87 247.264 106.87C247.816 106.87 248.268 106.667 248.62 106.249C248.976 105.837 249.155 105.187 249.155 104.302C249.155 103.145 248.905 102.242 248.405 101.587C248.035 101.107 247.56 100.87 246.982 100.87ZM244.984 110.618C244.686 110.931 244.427 111.278 244.212 111.652C244.038 111.972 243.953 112.266 243.953 112.537C243.953 112.883 244.161 113.187 244.584 113.452C245.306 113.901 246.351 114.124 247.72 114.124C249.025 114.124 249.984 113.894 250.604 113.432C251.222 112.972 251.535 112.482 251.535 111.956C251.535 111.582 251.349 111.314 250.978 111.154C250.604 110.994 249.855 110.898 248.743 110.868C247.112 110.827 245.859 110.741 244.984 110.618ZM252.987 100.639H257.625V101.045H257.398C257.072 101.045 256.827 101.116 256.665 101.257C256.587 101.321 256.524 101.401 256.482 101.492C256.44 101.584 256.418 101.684 256.42 101.784C256.42 102.067 256.539 102.461 256.779 102.959L259.2 107.993L261.428 102.484C261.551 102.183 261.609 101.888 261.609 101.598C261.616 101.495 261.59 101.392 261.535 101.304C261.464 101.218 261.37 101.153 261.264 101.116C261.139 101.068 260.924 101.044 260.613 101.044V100.639H263.849V101.045C263.581 101.074 263.374 101.13 263.229 101.22C263.086 101.304 262.926 101.468 262.752 101.709C262.685 101.811 262.562 102.09 262.382 102.547L258.332 112.503C257.94 113.47 257.428 114.198 256.795 114.694C256.161 115.188 255.553 115.434 254.964 115.434C254.536 115.434 254.184 115.311 253.911 115.061C253.636 114.817 253.499 114.534 253.499 114.214C253.499 113.909 253.599 113.665 253.795 113.477C253.995 113.292 254.27 113.199 254.619 113.199C254.855 113.199 255.182 113.28 255.593 113.44C255.883 113.548 256.064 113.604 256.138 113.604C256.353 113.604 256.591 113.489 256.85 113.266C257.105 113.039 257.365 112.603 257.626 111.956L258.332 110.228L254.759 102.699C254.608 102.406 254.433 102.127 254.237 101.863C254.055 101.606 253.906 101.435 253.791 101.35C253.624 101.234 253.358 101.13 252.987 101.045V100.639Z" fill="white"/>
<path fill-rule="evenodd" clip-rule="evenodd" d="M251.315 58.6378V88.1622L266.035 73.4L251.315 58.6378ZM221.876 58.6378V88.1622L207.154 73.4L221.876 58.6378ZM221.876 88.1622L251.314 88.1634L236.595 73.4012L221.876 88.1622ZM221.876 58.6378H251.314L236.595 73.4012L221.876 58.6378Z" fill="white"/>
</svg>
