<svg width="360" height="174" viewBox="0 0 360 174" fill="none" xmlns="http://www.w3.org/2000/svg">
<path fill-rule="evenodd" clip-rule="evenodd" d="M76.8258 72.2424C87.4054 76.3843 81.9001 84.7537 80.0941 88.2179C76.5338 95.0526 78.8063 103.351 88.5533 105.137C88.7672 105.182 88.751 105.36 88.5533 105.341C74.4104 104.279 70.1108 96.2854 74.8485 87.2891C77.3998 82.4446 81.2988 77.2294 76.6524 72.4119C76.5267 72.2544 76.6311 72.1547 76.8258 72.2424ZM96.8424 83.0927C96.6528 82.9472 96.7734 82.7887 97.03 82.9093C106.646 87.0233 114.246 102.617 92.1311 105.336C91.9212 105.354 91.902 105.187 92.1291 105.131C106.032 100.806 100.336 85.7935 96.8424 83.0927ZM193.251 84.7467C193.584 84.7467 193.786 84.7955 193.786 84.9689C193.786 85.1463 193.63 85.1951 193.377 85.1951C193.122 85.1951 192.588 85.1951 192.127 85.4941C191.796 85.7213 191.416 86.1479 190.726 87.7494C189.733 90.1054 189.046 91.4568 187.672 94.5412C186.036 98.1978 184.841 100.927 184.281 102.179C183.617 103.633 183.461 104.033 183.109 104.033C182.776 104.033 182.622 103.682 182.138 102.505L175.714 87.1973C175.129 85.82 174.695 85.5469 173.777 85.2948C173.395 85.1951 172.987 85.1951 172.784 85.1951C172.554 85.1951 172.479 85.1194 172.479 84.9689C172.479 84.7696 172.758 84.7467 173.14 84.7467C174.49 84.7467 175.944 84.8184 176.837 84.8184C177.475 84.8184 178.695 84.7467 179.971 84.7467C180.277 84.7467 180.557 84.7955 180.557 84.9689C180.557 85.1463 180.405 85.1951 180.175 85.1951C179.77 85.1951 179.387 85.221 179.18 85.3705C179.003 85.4941 178.928 85.6705 178.928 85.8967C178.928 86.2226 179.156 86.9242 179.511 87.8252L183.898 99.2013H183.998C185.094 96.4427 188.408 88.3763 189.018 86.7239C189.146 86.396 189.249 86.0213 189.249 85.7971C189.249 85.5978 189.146 85.3944 188.917 85.3187C188.611 85.221 188.23 85.1951 187.896 85.1951C187.672 85.1951 187.464 85.1702 187.464 84.9948C187.464 84.7955 187.693 84.7467 188.18 84.7467C189.451 84.7467 190.524 84.8184 190.856 84.8184C191.289 84.8184 192.487 84.7467 193.251 84.7467ZM160.034 84.393C166.38 84.393 170.332 88.0266 170.332 93.763C170.332 99.4984 166.254 104.032 159.779 104.032C152.464 104.032 149.507 98.6473 149.507 94.2115C149.507 89.9301 152.388 84.393 160.034 84.393ZM282.766 84.3932C284.423 84.3932 285.493 84.6433 286.156 84.8187C286.389 84.8715 286.516 84.9453 286.516 85.1197C286.516 85.4456 286.414 86.1731 286.414 88.1254C286.414 88.6765 286.337 88.8779 286.132 88.8779C285.954 88.8779 285.876 88.7274 285.876 88.4264C285.876 88.2012 285.751 87.4248 285.216 86.773C284.833 86.2987 284.092 85.5462 282.435 85.5462C280.55 85.5462 279.404 86.6246 279.404 88.1254C279.404 89.2765 279.99 90.1535 282.105 91.7351L282.817 92.2593C285.876 94.5864 287 96.2666 287 98.6475C287 100.098 286.438 101.83 284.601 103.005C283.325 103.81 281.902 104.032 280.55 104.032C279.07 104.032 277.925 103.858 276.827 103.38C276.422 103.206 276.344 103.082 276.344 102.532C276.344 101.154 276.448 99.6491 276.471 99.2475C276.5 98.8728 276.573 98.5967 276.777 98.5967C277.007 98.5967 277.034 98.8249 277.034 99.0203C277.034 99.3481 277.133 99.8733 277.261 100.301C277.822 102.155 279.327 102.831 280.908 102.831C283.2 102.831 284.323 101.304 284.323 99.975C284.323 98.7472 283.94 97.5692 281.823 95.9687L280.65 95.0647C277.848 92.9091 276.879 91.1581 276.879 89.127C276.879 86.3744 279.223 84.3932 282.766 84.3932ZM126.133 84.3192C126.413 84.3192 126.643 84.6431 127.075 85.0966C127.381 85.4205 131.257 89.5035 134.977 93.1361C136.71 94.8403 140.153 98.448 140.585 98.8476H140.712L140.457 87.601C140.432 86.0742 140.202 85.5979 139.591 85.3457C139.209 85.1952 138.595 85.1952 138.239 85.1952C137.934 85.1952 137.832 85.1195 137.832 84.969C137.832 84.7697 138.113 84.7458 138.494 84.7458C139.821 84.7458 141.043 84.8185 141.578 84.8185C141.859 84.8185 142.826 84.7458 144.076 84.7458C144.408 84.7458 144.663 84.7697 144.663 84.969C144.663 85.1195 144.51 85.1952 144.204 85.1952C143.95 85.1952 143.746 85.1952 143.441 85.272C142.725 85.4723 142.521 85.9975 142.496 87.3977L142.218 103.206C142.218 103.757 142.115 103.983 141.885 103.983C141.604 103.983 141.298 103.707 141.017 103.433C139.413 101.927 136.15 98.6473 133.501 96.0661C130.719 93.3614 127.891 90.229 127.434 89.7537H127.357L127.636 100.276C127.688 102.23 128.018 102.88 128.528 103.055C128.962 103.206 129.448 103.232 129.854 103.232C130.133 103.232 130.286 103.281 130.286 103.433C130.286 103.633 130.058 103.682 129.701 103.682C128.043 103.682 127.023 103.608 126.54 103.608C126.31 103.608 125.112 103.682 123.788 103.682C123.457 103.682 123.225 103.657 123.225 103.433C123.225 103.281 123.38 103.232 123.635 103.232C123.965 103.232 124.424 103.206 124.782 103.108C125.444 102.908 125.547 102.179 125.571 100.001L125.801 85.1703C125.801 84.672 125.876 84.3192 126.133 84.3192ZM202.843 84.1921C203.07 84.1921 203.222 84.4183 203.478 84.9943C204.092 86.3746 208.168 96.5967 209.799 100.401C210.77 102.651 211.507 103.005 212.044 103.13C212.425 103.206 212.808 103.231 213.115 103.231C213.317 103.231 213.446 103.257 213.446 103.433C213.446 103.62 213.244 103.675 212.453 103.682L211.479 103.682C210.47 103.68 209.015 103.671 207.453 103.634C206.996 103.608 206.69 103.608 206.69 103.433C206.69 103.28 206.794 103.231 207.048 103.206C207.228 103.155 207.403 102.931 207.276 102.63L205.235 97.3222C205.187 97.1967 205.112 97.1439 204.985 97.1439H199.296C199.17 97.1439 199.119 97.1967 199.071 97.3452L197.693 100.928C197.436 101.551 197.31 102.154 197.31 102.456C197.31 102.907 197.542 103.231 198.331 103.231H198.712C199.016 103.231 199.095 103.28 199.095 103.433C199.095 103.634 198.94 103.683 198.662 103.683C197.845 103.683 196.749 103.608 195.959 103.608C195.681 103.608 194.279 103.683 192.953 103.683C192.62 103.683 192.467 103.634 192.467 103.433C192.467 103.28 192.569 103.231 192.772 103.231C193.005 103.231 193.359 103.206 193.563 103.183C194.737 103.03 195.221 102.18 195.728 100.928L202.127 85.1956C202.433 84.4691 202.588 84.1921 202.843 84.1921ZM224.526 84.7459C226.129 84.7459 227.839 84.8944 229.213 85.8202C229.929 86.2986 230.946 87.5742 230.946 89.2545C230.946 91.1072 230.156 92.8123 227.582 94.8613C229.851 97.6737 231.61 99.9011 233.116 101.453C234.542 102.907 235.585 103.082 235.968 103.156C236.25 103.206 236.479 103.232 236.683 103.232C236.884 103.232 236.987 103.308 236.987 103.433C236.987 103.633 236.807 103.682 236.505 103.682H234.083C232.657 103.682 232.019 103.56 231.355 103.206C230.261 102.63 229.292 101.453 227.863 99.5244C226.844 98.1451 225.672 96.4429 225.341 96.0662C225.211 95.9157 225.06 95.8898 224.881 95.8898L222.665 95.842C222.537 95.842 222.462 95.8898 222.462 96.0413L222.463 97.5248C222.465 99.355 222.483 100.875 222.587 101.755C222.665 102.482 222.817 103.03 223.581 103.13C223.965 103.183 224.526 103.232 224.828 103.232C225.035 103.232 225.137 103.308 225.137 103.433C225.137 103.608 224.958 103.682 224.627 103.682C223.223 103.682 221.449 103.616 220.947 103.609L220.878 103.608C220.394 103.608 218.791 103.682 217.77 103.682C217.438 103.682 217.261 103.608 217.261 103.433C217.261 103.308 217.361 103.232 217.667 103.232C218.05 103.232 218.356 103.183 218.586 103.13C219.096 103.03 219.222 102.482 219.325 101.755C219.433 100.875 219.451 99.355 219.454 97.5398L219.454 89.7403C219.451 87.8551 219.442 87.3055 219.403 86.6992C219.35 85.8491 219.146 85.4455 218.303 85.2721C218.102 85.2202 217.667 85.1953 217.311 85.1953C217.03 85.1953 216.878 85.1465 216.878 84.9691C216.878 84.7957 217.058 84.7459 217.438 84.7459C218.791 84.7459 220.394 84.8186 220.93 84.8186C221.799 84.8186 223.734 84.7459 224.526 84.7459ZM238.781 84.3932C238.982 84.3932 239.239 84.6433 239.874 84.6951C240.612 84.7699 241.584 84.8187 242.426 84.8187H252.516C254.149 84.8187 254.761 84.5686 254.963 84.5686C255.144 84.5686 255.168 84.7171 255.168 85.0958C255.168 85.621 255.093 87.3491 255.093 88.0028C255.067 88.253 255.019 88.4015 254.864 88.4015C254.659 88.4015 254.607 88.2769 254.582 87.9002L254.557 87.6261C254.507 86.9724 253.819 86.2728 251.549 86.2229L248.336 86.1482V96.4181C248.336 98.7213 248.336 100.7 248.467 101.779C248.545 102.482 248.695 103.03 249.46 103.13C249.817 103.183 250.377 103.232 250.759 103.232C251.038 103.232 251.167 103.308 251.167 103.433C251.167 103.609 250.964 103.682 250.682 103.682C249.001 103.682 247.396 103.609 246.681 103.609C246.095 103.609 244.488 103.682 243.471 103.682C243.137 103.682 242.963 103.609 242.963 103.433C242.963 103.308 243.06 103.232 243.367 103.232C243.751 103.232 244.057 103.183 244.286 103.13C244.794 103.03 244.949 102.482 245.024 101.755C245.139 100.817 245.151 99.1495 245.153 97.173L245.153 86.1482L241.351 86.2478C239.874 86.2987 239.267 86.4232 238.881 86.9724C238.662 87.2953 238.538 87.5625 238.474 87.7584L238.447 87.8504C238.395 88.0497 238.318 88.1533 238.166 88.1533C237.991 88.1533 237.94 88.0268 237.94 87.7487C237.94 87.3491 238.425 85.0718 238.475 84.8715C238.55 84.5456 238.626 84.3932 238.781 84.3932ZM268.371 84.7459C268.704 84.7459 268.909 84.7957 268.909 84.9462C268.909 85.1465 268.754 85.1953 268.498 85.1953C268.244 85.1953 268.04 85.2202 267.737 85.2721C267.045 85.3946 266.842 85.8202 266.791 86.6992C266.748 87.354 266.741 87.9427 266.739 90.2192L266.739 97.2106C266.74 99.2765 266.75 100.947 266.842 101.906C266.92 102.579 267.097 103.03 267.86 103.13C268.217 103.183 268.777 103.232 269.162 103.232C269.44 103.232 269.57 103.308 269.57 103.433C269.57 103.608 269.367 103.682 269.085 103.682C267.508 103.682 265.997 103.617 265.246 103.609L265.106 103.608C264.521 103.608 262.917 103.682 261.9 103.682C261.564 103.682 261.388 103.608 261.388 103.433C261.388 103.308 261.487 103.232 261.792 103.232C262.176 103.232 262.486 103.183 262.713 103.13C263.222 103.03 263.374 102.607 263.451 101.88C263.558 101.003 263.576 99.4818 263.579 97.5931L263.578 89.7403C263.576 87.8551 263.567 87.3055 263.528 86.6992C263.477 85.8491 263.222 85.4206 262.664 85.295C262.381 85.2202 262.047 85.1953 261.745 85.1953C261.487 85.1953 261.336 85.1465 261.336 84.9462C261.336 84.7957 261.542 84.7459 261.949 84.7459C262.917 84.7459 264.521 84.8186 265.262 84.8186C265.899 84.8186 267.403 84.7459 268.371 84.7459ZM159.296 85.5979C156.363 85.5979 153.024 87.1974 153.024 93.4391C153.024 98.6473 155.956 102.779 160.851 102.779C162.636 102.779 166.766 101.927 166.766 94.6898C166.766 89.077 163.476 85.5979 159.296 85.5979ZM87.2267 68.6572L92.8324 68.6631L90.4422 97.72C90.426 97.9014 90.2587 97.9064 90.2445 97.72L87.2267 68.6572ZM202.204 89.3265C202.127 89.3265 202.077 89.4521 202.049 89.5557L199.707 95.7167C199.68 95.8164 199.707 95.8901 199.808 95.8901H204.499C204.626 95.8901 204.651 95.8164 204.626 95.7426L202.333 89.5557C202.306 89.4521 202.282 89.3265 202.204 89.3265ZM224.039 85.9238C223.402 85.9238 222.944 85.9448 222.688 86.0215C222.512 86.0743 222.462 86.173 222.462 86.3743V93.9863C222.462 94.2644 222.512 94.364 222.688 94.4378C223.225 94.6152 223.991 94.6899 224.627 94.6899C225.644 94.6899 225.979 94.5863 226.437 94.2644C227.199 93.7133 227.939 92.5622 227.939 90.5062C227.939 86.9473 225.547 85.9238 224.039 85.9238Z" fill="white"/>
</svg>
