<svg width="360" height="174" viewBox="0 0 360 174" fill="none" xmlns="http://www.w3.org/2000/svg">
<path fill-rule="evenodd" clip-rule="evenodd" d="M133.933 80.9116C130.769 79.3212 127.547 78.5257 124.266 78.5257C122.085 78.5257 120.414 78.7783 119.255 79.2826C118.096 79.7868 117.516 80.4855 117.516 81.3772C117.516 82.3084 118.135 82.9872 119.373 83.4144C120.257 83.7243 121.701 83.9375 123.706 84.0543C126.653 84.2483 128.598 84.4033 129.541 84.5192C132.213 84.8689 134.188 85.5192 135.465 86.4687C136.742 87.4196 137.381 88.7678 137.381 90.5127C137.381 92.7435 136.379 94.4704 134.375 95.6921C132.371 96.9139 129.492 97.5249 125.739 97.5249C120.296 97.5249 116.062 96.3424 113.036 93.9747L114.982 91.4442C118.322 93.4618 121.918 94.4704 125.769 94.4704C128.264 94.4704 130.199 94.1312 131.575 93.4522C132.891 92.7926 133.55 91.8907 133.55 90.7454C133.55 89.4077 132.685 88.516 130.956 88.0693C130.052 87.8364 127.615 87.5941 123.647 87.3415C120.129 87.1088 117.664 86.6438 116.249 85.9453C114.598 85.1309 113.773 83.7632 113.773 81.8428C113.773 79.8643 114.711 78.3032 116.588 77.1586C118.464 76.0143 121.112 75.4421 124.531 75.4421C129.129 75.4421 132.98 76.4799 136.085 78.5548L133.933 80.9116ZM164.084 79.1083H153.886V97.0307H150.349V79.1083H140.152V75.9654H164.084V79.1083ZM180.943 89.175L175.508 78.9694L170.006 89.175H180.943ZM188.988 97.0307H185.12L182.661 92.3168H168.288L165.829 97.0307H161.961L173.25 75.9654H177.7L188.988 97.0307ZM207.615 93.8881C209.737 93.8881 211.48 93.2124 212.846 91.8583C214.211 90.5049 214.894 88.7669 214.894 86.6438C214.894 84.3859 214.162 82.565 212.698 81.1814C211.235 79.7996 209.313 79.1083 206.937 79.1083H196.68V93.8881H207.615ZM206.642 75.9654C210.356 75.9654 213.298 76.9403 215.47 78.8895C217.64 80.8389 218.726 83.453 218.726 86.7306C218.726 89.7378 217.577 92.2395 215.278 94.2367C213.136 96.0993 210.483 97.0307 207.319 97.0307H193.143V75.9654H206.642ZM239.269 89.175L233.834 78.9694L228.332 89.175H239.269ZM247.314 97.0307H243.446L240.986 92.3168H226.615L224.155 97.0307H220.288L231.576 75.9654H236.027L247.314 97.0307ZM104.5 57.8839C104.5 57.8839 137.409 43.5875 180.357 43.5875C223.303 43.5875 255.5 57.9384 255.5 57.9384C255.5 57.9384 224.052 47.0942 180.343 47.0942C136.634 47.0942 104.5 57.8839 104.5 57.8839ZM104.5 116.116C104.5 116.116 136.634 126.905 180.343 126.905C224.052 126.905 255.5 116.061 255.5 116.061C255.5 116.061 223.303 130.413 180.357 130.413C137.409 130.413 104.5 116.116 104.5 116.116Z" fill="white"/>
</svg>
