<svg width="360" height="174" viewBox="0 0 360 174" fill="none" xmlns="http://www.w3.org/2000/svg">
<path fill-rule="evenodd" clip-rule="evenodd" d="M101.695 121.46C101.165 120.99 100.905 120.24 100.905 119.24V112.96H100.065C99.8848 112.96 99.7348 112.89 99.5948 112.75C99.4548 112.61 99.3848 112.45 99.3848 112.27C99.3848 112.09 99.4448 111.92 99.5848 111.79C99.7148 111.66 99.8748 111.59 100.065 111.59H100.905V109.13C100.905 108.92 100.975 108.73 101.125 108.58C101.275 108.43 101.455 108.35 101.665 108.35C101.885 108.35 102.065 108.43 102.215 108.58C102.375 108.73 102.445 108.92 102.445 109.13V111.59H105.135C105.325 111.59 105.485 111.66 105.625 111.79C105.765 111.92 105.845 112.09 105.845 112.27C105.845 112.46 105.765 112.62 105.625 112.76C105.485 112.89 105.325 112.96 105.135 112.96H102.445V119.04C102.445 120.19 103.035 120.77 104.195 120.77C104.405 120.77 104.615 120.75 104.815 120.71L105.135 120.63C105.325 120.63 105.485 120.69 105.605 120.83C105.735 120.96 105.795 121.12 105.795 121.29C105.795 121.59 105.655 121.79 105.355 121.9C104.905 122.08 104.395 122.18 103.835 122.18C102.935 122.18 102.225 121.94 101.695 121.46ZM108.465 107.99C108.465 107.77 108.545 107.59 108.685 107.43C108.835 107.28 109.015 107.2 109.235 107.2C109.445 107.2 109.625 107.28 109.785 107.43C109.935 107.59 110.015 107.77 110.015 107.99V113.4C110.825 112.05 112.015 111.37 113.565 111.37C114.795 111.37 115.765 111.75 116.475 112.5C117.185 113.26 117.535 114.27 117.535 115.53V121.31C117.535 121.53 117.465 121.71 117.315 121.86C117.165 122.02 116.985 122.1 116.775 122.1C116.555 122.1 116.375 122.02 116.225 121.86C116.065 121.71 115.995 121.53 115.995 121.31V115.92C115.995 114.94 115.745 114.17 115.235 113.61C114.735 113.06 114.035 112.78 113.125 112.78C112.225 112.78 111.485 113.08 110.895 113.68C110.305 114.29 110.015 115.07 110.015 116.04V121.31C110.015 121.54 109.935 121.73 109.795 121.88C109.645 122.02 109.465 122.1 109.255 122.1C109.025 122.1 108.835 122.02 108.685 121.86C108.545 121.71 108.465 121.53 108.465 121.31V107.99ZM125.355 122.24C123.905 122.24 122.675 121.73 121.675 120.72C120.685 119.7 120.185 118.41 120.185 116.82V116.78C120.185 115.27 120.655 113.98 121.605 112.94C122.555 111.89 123.745 111.37 125.155 111.37C126.635 111.37 127.805 111.88 128.675 112.92C129.535 113.95 129.975 115.19 129.975 116.64C129.975 116.84 129.905 117.01 129.765 117.15C129.625 117.3 129.455 117.37 129.255 117.37H121.745C121.855 118.47 122.255 119.33 122.945 119.95C123.635 120.58 124.455 120.89 125.405 120.89C126.525 120.89 127.515 120.49 128.385 119.68C128.535 119.56 128.685 119.5 128.835 119.5C129.015 119.5 129.175 119.56 129.315 119.69C129.445 119.82 129.515 119.98 129.515 120.16C129.515 120.37 129.435 120.53 129.275 120.67C128.185 121.71 126.885 122.24 125.355 122.24ZM128.425 116.22C128.345 115.2 128.025 114.35 127.445 113.68C126.875 113.01 126.095 112.68 125.115 112.68C124.225 112.68 123.465 113.01 122.845 113.68C122.225 114.35 121.855 115.2 121.745 116.22H128.425ZM139.615 120.65C138.595 119.59 138.075 118.32 138.075 116.84V116.8C138.075 115.31 138.595 114.03 139.615 112.97C140.635 111.9 141.895 111.37 143.395 111.37C144.835 111.37 146.115 111.87 147.205 112.88C147.365 113.01 147.445 113.19 147.445 113.42C147.445 113.64 147.375 113.81 147.225 113.95C147.075 114.1 146.905 114.17 146.705 114.17C146.515 114.17 146.355 114.11 146.205 113.98C145.305 113.15 144.365 112.74 143.375 112.74C142.335 112.74 141.455 113.13 140.735 113.9C140.025 114.68 139.665 115.64 139.665 116.76V116.8C139.665 117.93 140.025 118.89 140.755 119.67C141.485 120.46 142.395 120.85 143.475 120.85C144.505 120.85 145.465 120.43 146.365 119.58C146.495 119.45 146.645 119.38 146.805 119.38C146.995 119.38 147.155 119.45 147.295 119.59C147.435 119.73 147.505 119.9 147.505 120.08C147.505 120.27 147.445 120.43 147.305 120.57C146.195 121.68 144.895 122.24 143.395 122.24C141.895 122.24 140.635 121.71 139.615 120.65ZM151.065 120.66C150.045 119.6 149.535 118.33 149.535 116.84V116.8C149.535 115.31 150.055 114.03 151.085 112.97C152.125 111.9 153.415 111.37 154.955 111.37C156.485 111.37 157.775 111.89 158.805 112.95C159.835 114 160.345 115.27 160.345 116.76V116.8C160.345 118.29 159.825 119.57 158.785 120.64C157.735 121.7 156.445 122.24 154.915 122.24C153.375 122.24 152.095 121.71 151.065 120.66ZM157.685 119.68C158.405 118.9 158.765 117.96 158.765 116.84V116.8C158.765 115.68 158.395 114.72 157.645 113.92C156.905 113.13 155.995 112.74 154.915 112.74C153.815 112.74 152.905 113.13 152.195 113.91C151.475 114.7 151.115 115.65 151.115 116.76V116.8C151.115 117.93 151.485 118.89 152.225 119.67C152.955 120.46 153.865 120.85 154.955 120.85C156.065 120.85 156.975 120.46 157.685 119.68ZM163.135 112.27C163.135 112.06 163.205 111.87 163.355 111.72C163.505 111.57 163.685 111.49 163.895 111.49C164.115 111.49 164.295 111.56 164.445 111.71C164.605 111.86 164.685 112.05 164.685 112.27V113.34C165.545 112.03 166.665 111.37 168.035 111.37C169.585 111.37 170.695 112.06 171.365 113.44C172.255 112.06 173.475 111.37 175.015 111.37C176.205 111.37 177.145 111.74 177.835 112.49C178.515 113.25 178.865 114.27 178.865 115.55V121.31C178.865 121.53 178.795 121.71 178.645 121.86C178.495 122.02 178.315 122.1 178.105 122.1C177.885 122.1 177.705 122.02 177.545 121.86C177.395 121.71 177.315 121.53 177.315 121.31V115.92C177.315 114.91 177.085 114.14 176.605 113.59C176.135 113.05 175.475 112.78 174.635 112.78C173.815 112.78 173.135 113.07 172.595 113.64C172.055 114.22 171.785 115 171.785 116V121.31C171.785 121.53 171.705 121.71 171.555 121.86C171.395 122.02 171.215 122.1 170.995 122.1C170.785 122.1 170.605 122.02 170.455 121.86C170.315 121.71 170.235 121.53 170.235 121.31V115.88C170.235 114.91 170.005 114.15 169.525 113.6C169.055 113.05 168.395 112.78 167.565 112.78C166.745 112.78 166.055 113.09 165.505 113.7C164.955 114.32 164.685 115.1 164.685 116.06V121.31C164.685 121.54 164.605 121.73 164.455 121.88C164.315 122.02 164.135 122.1 163.915 122.1C163.695 122.1 163.505 122.02 163.355 121.86C163.205 121.71 163.135 121.53 163.135 121.31V112.27ZM186.745 122.24C185.295 122.24 184.065 121.73 183.065 120.72C182.075 119.7 181.575 118.41 181.575 116.82V116.78C181.575 115.27 182.045 113.98 182.995 112.94C183.945 111.89 185.125 111.37 186.545 111.37C188.015 111.37 189.185 111.88 190.055 112.92C190.925 113.95 191.365 115.19 191.365 116.64C191.365 116.84 191.295 117.01 191.155 117.15C191.015 117.3 190.845 117.37 190.645 117.37H183.135C183.245 118.47 183.645 119.33 184.335 119.95C185.015 120.58 185.835 120.89 186.785 120.89C187.915 120.89 188.905 120.49 189.775 119.68C189.925 119.56 190.075 119.5 190.215 119.5C190.405 119.5 190.565 119.56 190.705 119.69C190.835 119.82 190.905 119.98 190.905 120.16C190.905 120.37 190.825 120.53 190.665 120.67C189.575 121.71 188.275 122.24 186.745 122.24ZM189.815 116.22C189.735 115.2 189.405 114.35 188.835 113.68C188.255 113.01 187.485 112.68 186.505 112.68C185.615 112.68 184.855 113.01 184.235 113.68C183.605 114.35 183.245 115.2 183.135 116.22H189.815ZM203.965 121.31C203.965 121.53 203.885 121.71 203.745 121.86C203.595 122.02 203.415 122.1 203.195 122.1C202.985 122.1 202.805 122.02 202.645 121.86C202.495 121.71 202.415 121.53 202.415 121.31V119.9C201.375 121.45 200.045 122.22 198.445 122.22C197.125 122.22 195.965 121.73 194.975 120.75C193.985 119.77 193.485 118.46 193.485 116.82V116.78C193.485 115.16 193.985 113.85 194.975 112.86C195.965 111.86 197.125 111.37 198.445 111.37C200.075 111.37 201.395 112.11 202.415 113.58V107.99C202.415 107.76 202.485 107.57 202.635 107.42C202.785 107.27 202.965 107.2 203.175 107.2C203.405 107.2 203.595 107.28 203.745 107.43C203.885 107.59 203.965 107.77 203.965 107.99V121.31ZM196.115 113.84C195.425 114.57 195.075 115.54 195.075 116.76V116.8C195.075 118 195.435 118.97 196.145 119.71C196.865 120.46 197.725 120.83 198.725 120.83C199.725 120.83 200.605 120.45 201.355 119.69C202.105 118.93 202.475 117.97 202.475 116.8V116.76C202.475 115.61 202.105 114.65 201.355 113.89C200.605 113.14 199.725 112.76 198.725 112.76C197.685 112.76 196.815 113.12 196.115 113.84ZM207.215 124.97C206.885 124.84 206.725 124.62 206.725 124.31C206.725 124.12 206.795 123.97 206.935 123.84C207.065 123.71 207.215 123.65 207.395 123.65C207.485 123.65 207.615 123.67 207.775 123.73C208.135 123.85 208.505 123.91 208.895 123.91C209.365 123.91 209.755 123.76 210.065 123.48C210.385 123.19 210.685 122.71 210.985 122.06L211.065 121.9L206.725 112.68C206.665 112.52 206.625 112.37 206.625 112.25C206.625 112.04 206.705 111.86 206.855 111.71C207.015 111.56 207.195 111.49 207.415 111.49C207.775 111.49 208.035 111.69 208.195 112.09L211.805 120.26L215.015 112.07C215.165 111.68 215.405 111.49 215.755 111.49C215.975 111.49 216.155 111.56 216.295 111.71C216.445 111.86 216.515 112.04 216.515 112.25C216.515 112.35 216.495 112.47 216.435 112.64L212.385 122.34C211.945 123.4 211.455 124.15 210.915 124.6C210.375 125.05 209.705 125.28 208.915 125.28C208.355 125.28 207.785 125.18 207.215 124.97ZM225.575 121.35C224.805 120.77 224.425 119.98 224.425 118.98V118.94C224.425 117.86 224.825 117.03 225.625 116.45C226.425 115.87 227.505 115.57 228.855 115.57C229.945 115.57 231.005 115.72 232.045 116.02V115.66C232.045 114.73 231.775 114.02 231.245 113.54C230.705 113.06 229.945 112.82 228.955 112.82C228.035 112.82 227.135 113.01 226.265 113.4C226.175 113.44 226.085 113.46 225.985 113.46C225.805 113.46 225.645 113.39 225.505 113.26C225.375 113.13 225.305 112.97 225.305 112.8C225.305 112.47 225.445 112.26 225.725 112.15C226.815 111.68 227.945 111.45 229.115 111.45C230.585 111.45 231.705 111.83 232.465 112.6C233.175 113.31 233.535 114.32 233.535 115.64V121.33C233.535 121.55 233.465 121.73 233.325 121.88C233.185 122.02 233.005 122.1 232.785 122.1C232.575 122.1 232.395 122.03 232.255 121.89C232.115 121.74 232.045 121.57 232.045 121.37V120.43C231.135 121.62 229.885 122.22 228.295 122.22C227.255 122.22 226.345 121.93 225.575 121.35ZM231.055 120.19C231.725 119.66 232.065 118.99 232.065 118.17V117.16C231.055 116.87 230.035 116.72 229.015 116.72C228.055 116.72 227.305 116.92 226.785 117.31C226.255 117.69 225.985 118.22 225.985 118.88V118.92C225.985 119.55 226.235 120.05 226.745 120.43C227.245 120.8 227.865 120.99 228.595 120.99C229.555 120.99 230.375 120.72 231.055 120.19ZM236.825 112.27C236.825 112.06 236.895 111.87 237.045 111.72C237.185 111.57 237.375 111.49 237.585 111.49C237.795 111.49 237.985 111.56 238.135 111.71C238.285 111.86 238.365 112.05 238.365 112.27V113.68C239.405 112.14 240.735 111.37 242.335 111.37C243.665 111.37 244.815 111.86 245.805 112.84C246.795 113.82 247.295 115.13 247.295 116.76V116.8C247.295 118.43 246.795 119.73 245.805 120.73C244.815 121.72 243.665 122.22 242.335 122.22C240.705 122.22 239.385 121.48 238.365 120V124.53C238.365 124.76 238.295 124.95 238.145 125.1C237.995 125.24 237.815 125.32 237.605 125.32C237.375 125.32 237.185 125.24 237.045 125.09C236.895 124.93 236.825 124.75 236.825 124.53V112.27ZM244.665 119.74C245.365 119.02 245.705 118.04 245.705 116.82V116.78C245.705 115.59 245.355 114.62 244.645 113.87C243.935 113.13 243.075 112.76 242.055 112.76C241.055 112.76 240.175 113.14 239.425 113.89C238.685 114.65 238.305 115.61 238.305 116.76V116.8C238.305 117.97 238.685 118.93 239.425 119.69C240.175 120.45 241.055 120.83 242.055 120.83C243.105 120.83 243.975 120.47 244.665 119.74ZM250.145 112.27C250.145 112.06 250.215 111.87 250.365 111.72C250.515 111.57 250.695 111.49 250.905 111.49C251.115 111.49 251.305 111.56 251.455 111.71C251.615 111.86 251.685 112.05 251.685 112.27V113.68C252.735 112.14 254.055 111.37 255.655 111.37C256.985 111.37 258.145 111.86 259.135 112.84C260.115 113.82 260.615 115.13 260.615 116.76V116.8C260.615 118.43 260.115 119.73 259.135 120.73C258.145 121.72 256.985 122.22 255.655 122.22C254.025 122.22 252.705 121.48 251.685 120V124.53C251.685 124.76 251.615 124.95 251.465 125.1C251.315 125.24 251.135 125.32 250.925 125.32C250.695 125.32 250.515 125.24 250.365 125.09C250.215 124.93 250.145 124.75 250.145 124.53V112.27ZM257.985 119.74C258.685 119.02 259.025 118.04 259.025 116.82V116.78C259.025 115.59 258.675 114.62 257.965 113.87C257.255 113.13 256.395 112.76 255.375 112.76C254.375 112.76 253.495 113.14 252.755 113.89C252.005 114.65 251.625 115.61 251.625 116.76V116.8C251.625 117.97 252.005 118.93 252.755 119.69C253.495 120.45 254.375 120.83 255.375 120.83C256.425 120.83 257.295 120.47 257.985 119.74ZM234.435 89.74C233.875 89.34 233.595 88.77 233.595 88.05C233.595 87.48 233.795 87.01 234.195 86.63C234.595 86.25 235.085 86.06 235.645 86.06C236.125 86.06 236.505 86.18 236.785 86.42C240.035 88.63 243.325 89.74 246.655 89.74C248.545 89.74 250.085 89.29 251.295 88.38C252.495 87.47 253.095 86.28 253.095 84.79V84.67C253.095 83.26 252.445 82.17 251.145 81.41C249.835 80.64 247.905 79.9 245.335 79.17C243.765 78.73 242.525 78.33 241.605 77.96C240.675 77.6 239.635 77.09 238.475 76.42C237.305 75.76 236.445 74.92 235.885 73.92C235.325 72.91 235.045 71.72 235.045 70.35V70.23C235.045 67.58 236.035 65.42 238.025 63.77C240.005 62.12 242.545 61.3 245.635 61.3C249.005 61.3 252.315 62.18 255.565 63.95C256.325 64.4 256.705 65.04 256.705 65.89C256.705 66.45 256.505 66.92 256.105 67.31C255.705 67.69 255.225 67.88 254.665 67.88C254.305 67.88 253.955 67.8 253.635 67.64C250.825 66.03 248.125 65.22 245.515 65.22C243.705 65.22 242.255 65.64 241.155 66.49C240.045 67.34 239.495 68.42 239.495 69.75V69.87C239.495 70.44 239.655 70.96 239.975 71.44C240.295 71.92 240.655 72.33 241.055 72.65C241.465 72.97 242.095 73.31 242.955 73.68C243.815 74.04 244.515 74.3 245.035 74.46C245.555 74.62 246.375 74.88 247.495 75.25C248.665 75.61 249.635 75.93 250.415 76.21C251.205 76.49 252.085 76.89 253.065 77.39C254.045 77.89 254.835 78.44 255.415 79.02C255.995 79.6 256.485 80.34 256.885 81.22C257.285 82.11 257.495 83.1 257.495 84.18V84.3C257.495 87.2 256.445 89.49 254.365 91.16C252.275 92.83 249.625 93.66 246.415 93.66C242.085 93.66 238.095 92.36 234.435 89.74ZM215.815 91.46C214.225 90.03 213.435 87.81 213.435 84.79V65.95H210.905C210.385 65.95 209.915 65.74 209.495 65.31C209.075 64.89 208.865 64.42 208.865 63.89C208.865 63.33 209.065 62.85 209.465 62.44C209.865 62.04 210.345 61.84 210.905 61.84H213.435V54.47C213.435 53.83 213.655 53.28 214.095 52.81C214.535 52.35 215.085 52.12 215.725 52.12C216.365 52.12 216.915 52.35 217.375 52.81C217.835 53.28 218.065 53.83 218.065 54.47V61.84H226.135C226.695 61.84 227.185 62.04 227.605 62.44C228.025 62.85 228.245 63.33 228.245 63.89C228.245 64.46 228.025 64.94 227.605 65.34C227.185 65.75 226.695 65.95 226.135 65.95H218.065V84.18C218.065 87.65 219.815 89.38 223.305 89.38C223.945 89.38 224.565 89.32 225.175 89.2L226.135 88.95C226.695 88.95 227.165 89.16 227.545 89.56C227.925 89.96 228.125 90.42 228.125 90.95C228.125 91.83 227.675 92.44 226.795 92.76C225.435 93.32 223.905 93.6 222.225 93.6C219.535 93.6 217.395 92.89 215.815 91.46ZM175.605 89.04C172.535 85.88 171.005 82.07 171.005 77.6V77.48C171.005 73.01 172.555 69.18 175.665 65.98C178.775 62.78 182.645 61.18 187.255 61.18C191.865 61.18 195.725 62.76 198.815 65.92C201.895 69.08 203.445 72.89 203.445 77.36V77.48C203.445 81.95 201.875 85.78 198.755 88.98C195.625 92.18 191.745 93.78 187.135 93.78C182.525 93.78 178.675 92.2 175.605 89.04ZM195.465 86.12C197.615 83.78 198.685 80.94 198.685 77.6V77.48C198.685 74.1 197.575 71.22 195.345 68.85C193.125 66.47 190.385 65.28 187.135 65.28C183.845 65.28 181.125 66.46 178.975 68.81C176.835 71.17 175.755 74.02 175.755 77.36V77.48C175.755 80.86 176.865 83.73 179.065 86.09C181.275 88.44 184.005 89.62 187.255 89.62C190.585 89.62 193.325 88.45 195.465 86.12ZM135.855 51.03C135.855 50.39 136.075 49.83 136.515 49.37C136.965 48.91 137.505 48.68 138.145 48.68C138.785 48.68 139.335 48.91 139.795 49.37C140.265 49.83 140.495 50.39 140.495 51.03V67.28C142.935 63.21 146.485 61.18 151.145 61.18C154.835 61.18 157.745 62.31 159.875 64.59C161.995 66.86 163.065 69.89 163.065 73.68V91.01C163.065 91.65 162.835 92.2 162.395 92.67C161.955 93.13 161.415 93.36 160.775 93.36C160.135 93.36 159.575 93.13 159.115 92.67C158.655 92.2 158.425 91.65 158.425 91.01V74.82C158.425 71.88 157.675 69.58 156.165 67.91C154.665 66.24 152.545 65.4 149.815 65.4C147.135 65.4 144.905 66.31 143.135 68.12C141.375 69.93 140.495 72.29 140.495 75.19V91.01C140.495 91.69 140.275 92.26 139.825 92.7C139.385 93.14 138.845 93.36 138.205 93.36C137.525 93.36 136.965 93.13 136.515 92.67C136.075 92.2 135.855 91.65 135.855 91.01V51.03ZM104.195 89.74C103.635 89.34 103.355 88.77 103.355 88.05C103.355 87.48 103.555 87.01 103.955 86.63C104.365 86.25 104.845 86.06 105.405 86.06C105.885 86.06 106.265 86.18 106.545 86.42C109.795 88.63 113.085 89.74 116.415 89.74C118.305 89.74 119.845 89.29 121.055 88.38C122.255 87.47 122.855 86.28 122.855 84.79V84.67C122.855 83.26 122.205 82.17 120.905 81.41C119.595 80.64 117.665 79.9 115.095 79.17C113.525 78.73 112.285 78.33 111.365 77.96C110.435 77.6 109.395 77.09 108.235 76.42C107.065 75.76 106.205 74.92 105.645 73.92C105.085 72.91 104.805 71.72 104.805 70.35V70.23C104.805 67.58 105.795 65.42 107.785 63.77C109.765 62.12 112.305 61.3 115.395 61.3C118.765 61.3 122.075 62.18 125.325 63.95C126.085 64.4 126.465 65.04 126.465 65.89C126.465 66.45 126.265 66.92 125.865 67.31C125.465 67.69 124.985 67.88 124.425 67.88C124.065 67.88 123.715 67.8 123.395 67.64C120.595 66.03 117.885 65.22 115.275 65.22C113.465 65.22 112.015 65.64 110.915 66.49C109.805 67.34 109.255 68.42 109.255 69.75V69.87C109.255 70.44 109.415 70.96 109.735 71.44C110.055 71.92 110.415 72.33 110.825 72.65C111.225 72.97 111.855 73.31 112.715 73.68C113.575 74.04 114.275 74.3 114.795 74.46C115.315 74.62 116.135 74.88 117.265 75.25C118.425 75.61 119.395 75.93 120.175 76.21C120.965 76.49 121.845 76.89 122.825 77.39C123.815 77.89 124.595 78.44 125.175 79.02C125.755 79.6 126.245 80.34 126.645 81.22C127.055 82.11 127.255 83.1 127.255 84.18V84.3C127.255 87.2 126.205 89.49 124.125 91.16C122.035 92.83 119.385 93.66 116.175 93.66C111.845 93.66 107.855 92.36 104.195 89.74Z" fill="white"/>
</svg>
