<svg width="360" height="174" viewBox="0 0 360 174" fill="none" xmlns="http://www.w3.org/2000/svg">
<path fill-rule="evenodd" clip-rule="evenodd" d="M102.711 71.6267C106.77 71.6267 110.626 72.5574 114.025 74.936L115.75 72.7126H116.511L116.816 83.3643H115.75L115.553 82.8341C113.508 77.4633 110.217 72.7126 103.929 72.7126C98.7534 72.7126 90.4325 77.6765 90.4325 90.7067C90.4325 103.841 97.5357 107.408 102.609 107.408C107.886 107.408 111.133 104.41 111.133 99.1355V95.3087C111.133 92.8784 110.372 92.413 106.77 92.1545V91.0687H119.961V92.1545C116.944 92.4066 116.29 93.0519 116.259 94.8572L116.258 104.099C111.945 106.581 107.277 108.494 102.254 108.494C93.8826 108.494 84.75 103.117 84.75 90.7067C84.75 77.7799 93.9841 71.6267 102.711 71.6267ZM263.885 71.54C266.727 71.54 269.923 72.5224 272.054 74.4873L273.576 73.1429H274.286V83.7434H273.373C272.663 81.158 271.901 77.4863 270.126 75.4697C268.654 73.7639 266.828 72.6258 264.545 72.6258C259.775 72.6258 257.137 75.8834 257.137 80.5892C257.137 85.004 260.363 86.1318 263.841 87.1991L264.038 87.2595C269.568 88.9654 275.25 91.2927 275.25 98.2214C275.25 105.563 269.669 108.408 263.175 108.408C260.08 108.408 257.086 107.477 254.499 105.771L252.571 107.683H251.962V96.8766H252.977C253.637 102.358 256.325 107.322 262.668 107.322C269.416 107.322 270.836 102.41 270.836 99.8244C270.836 94.6019 266.169 93.981 262.363 92.5336L261.558 92.2578C256.208 90.388 253.028 88.4386 253.028 81.9332C253.028 75.6253 257.898 71.54 263.885 71.54ZM162.309 71.1098L174.463 102.662C175.345 104.917 176.03 106.11 178.088 106.58L178.427 106.54C180.092 106.331 181.248 105.933 181.468 103.988L181.487 103.789C181.487 103.789 181.487 103.737 181.538 103.634V76.1769L180.889 75.4666C179.763 74.2498 178.658 73.2213 177.124 73.1779V72.092H184.684L209.799 100.169V76.4872C209.799 73.8501 208.429 73.4881 205.334 73.1779V72.092L215.342 72.0913L215.526 71.2648L216.24 71.4697C217.438 71.8049 218.671 72.0921 219.94 72.0921H245.207C246.729 72.0921 248.2 71.6785 249.621 71.2648L251.498 80.9341L250.788 81.296C249.519 79.3311 248.505 77.1594 246.982 75.3497L246.465 74.7278C245.618 73.7252 245.008 73.178 243.431 73.178H235.161V103.789C235.161 106.012 236.176 106.529 239.879 106.684V107.77H225.419V106.684L225.882 106.661C229.019 106.479 230.036 105.911 230.036 103.789V73.178H221.716C219.838 73.178 219.331 73.9536 218.164 75.3497C216.642 77.1594 215.627 79.3311 214.054 81.2443L213.395 80.8824L215.072 73.3061C212.131 73.8906 211.169 74.8509 211.169 76.4354V108.184H210.407L182.908 77.6764V103.789C182.908 105.547 184.176 106.581 187.576 106.684V107.77L165.404 107.77V106.684L166.059 106.68C167.6 106.649 169.666 106.412 169.666 104.617C169.666 103.117 166.825 96.4981 166.166 94.223H154.039L153.955 94.5079C153.27 96.712 150.589 103.178 150.589 104.461C150.589 106.478 153.278 106.478 154.699 106.684V107.77L142.945 107.77L141.889 105.933C139.642 102.048 136.308 96.4918 133.711 93.7574C132.138 92.0511 129.855 91.7408 127.673 91.6374V103.789C127.673 106.426 128.891 106.684 131.986 106.684V107.77H118.795V106.684L119.363 106.68C121.778 106.637 122.69 106.242 122.549 103.789V76.0735C122.549 73.4364 121.331 73.1779 118.997 73.1779V72.092C123.513 72.092 128.181 71.8852 132.848 71.8852C138.937 71.8852 145.787 74.2637 145.787 81.6062C145.787 87.0354 142.539 89.4657 137.821 91.0686C141.017 94.533 144.467 99.4969 146.497 103.789C146.849 104.546 147.306 105.149 147.869 105.605C148.259 105.217 148.567 104.74 148.762 104.203L159.113 76.6942L158.199 75.143C159.874 74.1606 161.091 72.6093 162.309 71.1098ZM159.874 78.1937L154.597 92.8269H165.607L159.874 78.1937ZM131.529 72.9711L131.151 72.9744C128.818 73.0181 127.673 73.5192 127.673 76.0735V90.5515C129.196 90.5515 130.718 90.4481 132.24 90.3447C137.466 89.9311 140.256 86.8286 140.256 81.5545C140.256 76.2286 136.857 72.9711 131.529 72.9711ZM252.614 65.5056C255.151 65.5056 256.35 68.0914 256.35 70.3477C256.35 73.6852 254.044 76.083 251.461 77.8222L251 76.9291C252.337 75.9415 254.367 74.0142 254.367 72.228C254.367 71.6169 254.182 71.1938 253.629 70.8178C251.922 70.0187 250.077 70.3477 250.077 67.9034C250.077 66.4927 251.276 65.5056 252.614 65.5056Z" fill="white"/>
</svg>
