<svg width="360" height="174" viewBox="0 0 360 174" fill="none" xmlns="http://www.w3.org/2000/svg">
<path fill-rule="evenodd" clip-rule="evenodd" d="M236.916 55.3444H236.907C236.907 55.3444 236.907 55.3444 236.916 55.3444ZM230.595 56.993C226.393 57.8785 222.173 57.5864 217.962 56.9458C216.502 56.7198 215.042 56.4748 213.572 56.3335C211.632 56.1545 209.738 56.3806 208.08 57.5111C207.939 57.6053 207.807 57.7089 207.675 57.8219C207.543 57.935 207.421 58.048 207.298 58.1705C207.185 58.293 207.072 58.4249 206.959 58.5567C206.855 58.6886 206.761 58.8299 206.667 58.9712C206.045 59.9227 205.894 60.9778 206.535 61.9952C207.195 63.0314 208.287 63.3046 209.361 63.0974C209.653 63.0409 209.945 62.9749 210.228 62.8996C210.52 62.8148 210.803 62.73 211.085 62.6358C211.358 62.5416 211.641 62.4285 211.914 62.3155C212.187 62.193 212.451 62.0706 212.724 61.9293C213.902 61.3169 214.966 60.4502 216.153 59.6401C213.968 62.193 211.792 64.6329 208.287 65.1981C205.179 65.7069 203.869 63.267 203.973 61.0908C204.105 58.5379 205.791 57.1154 207.845 55.9944C208.212 55.7966 208.598 55.6176 208.994 55.4668C209.38 55.3161 209.785 55.1842 210.19 55.09C210.605 54.9864 211.019 54.9205 211.443 54.8734C211.858 54.8263 212.282 54.8074 212.696 54.8263C215.701 54.9016 218.706 55.1183 221.702 55.3255C226.422 55.6364 231.141 55.6741 235.842 55.1465C236.172 55.1183 236.501 55.0994 236.831 55.0712L236.907 55.3444C234.806 55.9002 232.724 56.5502 230.595 56.993ZM102.355 105.734C105.369 106.648 108.384 107.571 111.398 108.485C118.624 110.68 125.962 112.423 133.442 113.44C138.896 114.184 144.379 114.74 149.871 115.192C160.639 116.068 171.444 116.106 182.23 115.908C189.625 115.776 197.02 115.409 204.415 115.051C211.782 114.703 219.111 113.949 226.412 112.884C234.891 111.641 243.294 110.03 251.329 106.931C255.276 105.414 259.063 103.586 262.172 100.628C264.282 98.603 265.752 96.2573 265.639 93.1768C265.573 91.387 264.914 89.8043 263.915 88.3536C261.748 85.2166 258.677 83.2006 255.267 81.6368C252.799 80.5063 250.199 79.7998 247.523 79.3476C245.922 79.0744 245.074 78.302 245.027 77.0867C245.008 76.5686 245.159 76.0411 245.244 75.4382C244.669 76.0787 244.17 76.7382 243.567 77.2657C242.936 77.8121 242.248 78.3208 241.494 78.6788C240.581 79.1121 239.591 79.0933 238.753 78.4244C237.905 77.7367 237.754 76.7759 237.98 75.7773C238.159 75.0237 238.48 74.2983 238.762 73.4881C238.546 73.6106 238.348 73.7519 238.131 73.8367C237.613 74.0439 237.104 74.3077 236.567 74.4113C234.693 74.7881 233.996 74.0816 234.335 72.0091C233.958 72.3388 233.647 72.5461 233.43 72.8193C232.074 74.5055 230.699 76.1824 229.408 77.9157C228.984 78.4998 228.56 78.7918 227.844 78.7165C227.326 78.6599 226.789 78.707 226.101 78.707C226.337 78.3679 226.469 78.1701 226.619 77.9817C228.146 76.0316 229.681 74.091 231.198 72.141C231.471 71.783 231.725 71.378 231.876 70.9635C231.97 70.7091 231.942 70.2758 231.782 70.125C231.631 69.9931 231.151 70.0402 230.962 70.1816C230.275 70.7091 229.634 71.2932 229.022 71.8961C227.194 73.7142 225.414 75.57 223.586 77.3788C222.672 78.2831 221.532 78.773 220.261 78.9708C217.887 79.3571 216.323 77.9723 216.427 75.5889C216.492 73.912 217.218 72.5649 218.414 71.4345C218.593 71.2649 218.782 71.1048 218.895 70.8127C218.348 71.0011 217.821 71.2272 217.265 71.378C215.466 71.8396 213.666 72.3106 211.858 72.7062C211.368 72.8099 211.123 73.0171 210.887 73.4222C209.719 75.4193 208.57 77.4353 207.308 79.3759C207.063 79.7433 206.808 80.1013 206.526 80.4404C206.252 80.7795 205.951 81.1093 205.64 81.4201C205.329 81.731 205 82.023 204.66 82.2962C204.312 82.5788 203.954 82.8332 203.587 83.0687C201.976 84.1238 200.195 84.51 198.32 84.1897C195.08 83.6245 193.639 80.2614 195.287 77.2469C196.606 74.8258 198.744 73.4316 201.26 72.5178C203.7 71.6323 206.252 71.2272 208.815 71.0577C209.691 71.0011 210.19 70.7185 210.511 69.9649C210.624 69.6917 210.793 69.4468 210.972 69.1265C210.209 69.1265 209.54 69.1076 208.871 69.1265C204.048 69.2866 199.715 70.7845 195.692 73.4787C193.431 74.986 191.481 76.644 189.974 78.9426C188.005 81.9477 185.791 84.8021 183.05 87.1666C182.221 87.8826 181.222 88.5137 180.196 88.8623C178.858 89.3145 177.803 88.2028 178.142 86.8275C178.293 86.2246 178.556 85.6028 178.933 85.1129C179.564 84.2934 180.271 83.4926 181.062 82.8238C183.662 80.61 186.309 78.4527 188.938 76.2766C189.06 76.1824 189.211 76.107 189.296 75.9845C190.436 74.336 191.557 72.678 192.687 71.02L192.489 70.841C192.348 71.02 192.216 71.2178 192.046 71.378C190.191 73.2338 188.401 75.165 186.432 76.8983C185.528 77.6896 184.341 78.2643 183.182 78.6411C181.656 79.1404 180.883 78.2078 181.364 76.6628C181.797 75.2592 182.862 74.3265 183.841 73.3186C184.51 72.6309 185.226 71.962 185.848 71.2272C186.046 70.9917 186.017 70.549 186.083 70.2098C185.735 70.1721 185.339 70.0214 185.028 70.1156C184.633 70.2381 184.265 70.5301 183.945 70.8127C182.909 71.6794 181.92 72.6026 180.883 73.4693C180.148 74.0722 179.291 74.3831 178.321 74.2323C177.134 74.0345 176.616 73.2903 176.823 72.1033L176.898 71.6794L176.719 71.5475C175.938 72.433 175.118 73.2903 174.383 74.2135C173.479 75.3534 172.612 76.5215 171.821 77.7367C171.35 78.4527 170.85 78.8484 169.965 78.7165C169.494 78.6505 169.004 78.707 168.326 78.707C168.656 78.302 168.882 78.0382 169.089 77.7744C170.615 75.7961 172.141 73.8178 173.648 71.8301C174.016 71.3403 174.496 70.8504 174.232 69.9084C173.714 70.2098 173.206 70.4171 172.81 70.7562C172.518 71.0106 172.226 71.2649 171.934 71.5287C171.642 71.783 171.35 72.0468 171.067 72.3012C170.775 72.5649 170.493 72.8287 170.2 73.0925C169.918 73.3562 169.635 73.62 169.353 73.8932C168.439 74.741 167.582 75.6548 166.668 76.5121C165.34 77.7556 163.823 78.6788 161.939 78.7447C160.686 78.7824 160.121 78.0476 160.658 76.9266C161.195 75.815 161.929 74.7787 162.664 73.7802C163.342 72.857 164.143 72.0374 164.878 71.1519C165.113 70.8692 165.283 70.5301 165.481 70.2287L165.302 69.9931C164.953 70.1816 164.567 70.3134 164.256 70.549C161.43 72.7345 158.755 75.099 156.503 77.8969C155.994 78.5186 155.476 78.7918 154.685 78.7165C153.96 78.6505 153.225 78.707 152.273 78.707C152.631 78.2643 152.848 77.9628 153.093 77.6991C154.629 76.0222 156.173 74.3642 157.681 72.6686C158.105 72.1975 158.453 71.6511 158.745 71.0953C158.858 70.8692 158.858 70.3982 158.708 70.2758C158.51 70.1156 158.048 70.0591 157.822 70.1816C157.69 70.2475 157.558 70.3229 157.426 70.4076C157.294 70.4924 157.172 70.5772 157.05 70.662C156.927 70.7562 156.805 70.8504 156.692 70.9446C156.569 71.0388 156.456 71.1424 156.352 71.2461C154.892 72.6403 153.489 74.091 152.038 75.4853C150.446 77.0208 148.694 78.3302 146.461 78.7918C146.357 78.8201 146.244 78.8389 146.141 78.8484C146.037 78.8578 145.924 78.8672 145.82 78.8766C145.707 78.8766 145.604 78.8766 145.491 78.8672C145.387 78.8672 145.274 78.8578 145.17 78.8389C143.965 78.6599 143.541 78.0665 143.315 76.2954C142.627 76.4461 141.93 76.5592 141.261 76.757C141.101 76.8041 140.931 77.1056 140.903 77.3128C140.338 81.0527 136.579 84.3405 132.783 84.3876C130.427 84.4158 129.024 83.0216 128.967 80.6759C128.911 78.4339 129.693 76.4367 130.569 74.4396C130.691 74.1664 130.814 73.8838 130.936 73.6106C130.955 73.5635 130.927 73.507 130.898 73.3657C129.777 73.4975 128.638 73.5823 127.517 73.7707C127.3 73.8084 127.093 74.1758 126.951 74.4302C124.982 77.9817 122.373 80.9114 118.774 82.8897C117.211 83.747 115.571 84.331 113.753 84.2934C111.568 84.2557 109.938 83.3419 109.335 81.7593C108.638 79.9223 109.241 77.652 110.823 76.2672C112.397 74.8918 114.281 74.1005 116.269 73.62C118.944 72.9794 121.648 72.4707 124.351 71.9526C125.774 71.6794 126.188 71.3874 126.848 69.7482C125.745 69.8989 124.7 70.0308 123.664 70.1816C118.831 70.8692 114.092 71.9809 109.542 73.7425C104.54 75.6831 100.112 78.4904 96.8059 82.8144C95.3551 84.7173 94.3848 86.818 94.4131 89.2862C94.4508 92.1594 95.8921 94.3073 97.9175 96.1537C100.508 98.4994 103.598 100.007 106.829 101.25C112.491 103.436 118.388 104.707 124.351 105.725C131.398 106.921 138.491 107.647 145.623 108.108C150.455 108.419 155.307 108.655 160.149 108.777C166.498 108.937 172.857 109.088 179.206 108.994C181.043 108.956 182.88 108.918 184.717 108.871C186.554 108.815 188.391 108.758 190.219 108.683C192.056 108.617 193.893 108.542 195.73 108.447C197.557 108.363 199.394 108.259 201.231 108.155C207.411 107.797 213.6 107.307 219.752 106.563C228.146 105.536 236.511 104.274 244.876 102.974C250.105 102.155 255.295 101.081 260.533 100.186C259.412 100.685 258.291 101.212 257.142 101.674C251.433 103.991 245.507 105.555 239.497 106.874C237.754 107.251 235.993 107.609 234.241 107.948C232.479 108.287 230.717 108.598 228.946 108.881C227.185 109.173 225.414 109.437 223.633 109.681C221.862 109.926 220.091 110.143 218.311 110.331C216.822 110.501 215.343 110.652 213.855 110.802C212.376 110.944 210.887 111.085 209.399 111.217C207.91 111.349 206.431 111.471 204.943 111.584C203.455 111.697 201.966 111.801 200.478 111.905C194.976 112.263 189.465 112.479 183.954 112.555C177.125 112.649 170.276 112.649 163.446 112.46C161.863 112.413 160.281 112.357 158.698 112.291C157.125 112.225 155.542 112.15 153.96 112.065C152.386 111.98 150.804 111.876 149.231 111.773C147.648 111.66 146.075 111.547 144.492 111.424C133.809 110.567 123.202 109.173 112.849 106.271C108.007 104.915 103.249 103.285 98.9538 100.6C97.211 99.5168 95.5247 98.2733 94.0645 96.832C89.7029 92.508 89.3449 87.176 92.9435 82.1926C95.5907 78.5186 99.1704 75.994 103.099 73.8838C107.884 71.312 113.037 69.8142 118.322 68.7308C121.563 68.0714 124.86 67.6946 128.129 67.167C128.43 67.1105 128.817 66.9127 128.977 66.6677C130.785 63.8887 132.538 61.072 134.94 58.7357C134.968 58.7075 134.959 58.6509 134.996 58.4625C134.356 58.8299 133.819 59.1973 133.235 59.4705C132.905 59.6213 132.585 59.772 132.255 59.9227C131.925 60.0734 131.596 60.2147 131.266 60.3655C130.936 60.5068 130.597 60.6481 130.267 60.7894C129.938 60.9307 129.608 61.072 129.269 61.2039C129.005 61.3169 128.666 61.2887 128.364 61.251C126.603 61.0249 126.141 60.0829 127.008 58.5473C127.573 57.5582 127.243 56.7669 126.122 56.5785C121.94 55.8908 118.058 56.7763 114.516 59.0278C113.744 59.527 113.094 60.3655 112.642 61.185C111.926 62.5133 112.51 63.8981 113.876 64.567C115.053 65.151 116.316 65.1981 117.521 64.7836C118.765 64.3597 119.942 63.738 121.148 63.201C121.365 63.0974 121.563 62.9561 121.798 62.8901C119.5 65.1228 116.947 66.7808 113.527 66.2061C111.7 65.8953 110.588 64.2467 110.814 62.3814C111.059 60.4314 112.067 58.9618 113.65 57.8785C116.269 56.0886 119.227 55.2125 122.335 54.977C124.201 54.8357 126.094 55.0241 127.969 55.09C128.27 55.0994 128.562 55.2313 128.845 55.3444C130.06 55.8154 130.409 56.6161 129.966 57.8314C129.909 58.0009 129.796 58.1517 129.759 58.3212C129.711 58.5379 129.617 58.8676 129.711 58.9524C129.862 59.0937 130.192 59.1596 130.39 59.0937C130.588 59.0183 130.785 58.9524 130.983 58.877C131.181 58.8111 131.379 58.7357 131.567 58.6604C131.765 58.585 131.963 58.5096 132.151 58.4249C132.349 58.3495 132.547 58.2647 132.735 58.1893C134.996 57.2567 137.248 56.3147 139.584 55.4857C136.155 58.8865 133.395 62.7488 130.927 67.0069C132.18 66.9032 133.319 66.8279 134.441 66.6772C134.648 66.6489 134.846 66.3286 134.996 66.1025C136.758 63.5025 138.604 60.959 141.073 58.9618C143.088 57.3415 145.255 55.9567 147.818 55.335C147.968 55.2973 148.119 55.269 148.27 55.2596C150.54 55.0712 151.718 56.5313 150.945 58.6792C150.286 60.4974 149.146 62.0423 147.799 63.4271C144.869 66.4416 141.261 68.175 137.135 68.7685C136.023 68.9286 135.364 69.3337 135.053 70.37C135.025 70.4736 134.977 70.5584 134.94 70.662C134.94 70.6808 134.949 70.7091 134.977 70.8316C136.843 70.7656 138.661 70.3511 140.451 69.8236C142.231 69.3149 143.983 68.7025 145.802 68.2221C145.029 68.7214 144.266 69.2584 143.465 69.72C140.762 71.2932 137.888 72.4519 134.78 72.9888C134.478 73.0359 134.083 73.3374 133.969 73.6106C133.291 75.2309 132.604 76.8512 132.104 78.5186C131.878 79.2817 131.954 80.2049 132.123 81.0056C132.368 82.1643 133.282 82.5883 134.403 82.2491C136.513 81.6085 138.067 79.6679 138.237 77.3222L134.714 77.7838C134.714 77.7838 134.714 77.7744 134.704 77.7744C134.704 77.765 134.704 77.7556 134.704 77.7556C134.704 77.7462 134.704 77.7462 134.695 77.7367C134.695 77.7367 134.695 77.7273 134.695 77.7179C135.684 77.407 136.664 77.0773 137.653 76.7947C138.275 76.6251 138.275 76.3048 137.983 75.8527C137.502 75.0896 136.409 74.8258 135.543 75.3722C134.912 75.7773 134.365 76.3237 133.791 76.7947C133.988 75.3628 135.496 73.9026 137.078 73.62C138.774 73.328 139.989 73.9497 140.894 75.6737C142.033 75.099 143.381 75.0802 144.172 73.6765C145.538 71.2555 147.497 69.3526 150.05 68.1562C150.719 67.8453 151.51 67.6757 152.255 67.6475C153.545 67.5909 154.176 68.5047 153.583 69.6729C153.159 70.5113 152.509 71.2837 151.831 71.9432C150.248 73.4787 148.317 74.4584 146.263 75.2215C145.82 75.3816 145.368 75.6077 145.528 76.0976C145.651 76.465 146.046 76.9454 146.376 77.0019C146.923 77.0867 147.554 76.9737 148.072 76.757C149.73 76.0787 150.992 74.8541 152.245 73.6012C152.641 73.1961 153.036 72.8099 153.442 72.4142C153.837 72.0185 154.242 71.6323 154.647 71.2461C155.052 70.8598 155.467 70.483 155.872 70.0968C156.287 69.72 156.701 69.3431 157.125 68.9757C157.671 68.4859 158.434 68.2127 159.141 67.9489C159.819 67.6946 160.535 67.7228 161.053 68.3069C161.581 68.9004 161.553 69.6446 161.317 70.3323C161.119 70.8975 160.799 71.4156 160.62 72.0374C160.95 71.7453 161.251 71.4156 161.6 71.1613C162.871 70.2287 164.124 69.2678 165.462 68.4294C166.018 68.0808 166.753 67.9395 167.421 67.8453C168.514 67.6946 169.032 68.3823 168.59 69.3902C168.524 69.5315 168.458 69.6823 168.382 69.8236C168.307 69.9555 168.232 70.0968 168.147 70.2287C168.071 70.37 167.977 70.5019 167.892 70.6337C167.798 70.7562 167.704 70.8881 167.6 71.0106C166.385 72.5178 165.113 73.978 163.87 75.4664C163.804 75.5418 163.71 75.6077 163.672 75.6925C163.503 76.107 163.352 76.5309 163.192 76.9454C163.634 76.8324 164.162 76.823 164.501 76.5686C165.33 75.9374 166.093 75.2121 166.847 74.4961C168.825 72.6497 170.756 70.7562 172.782 68.9663C173.356 68.4576 174.176 68.1185 174.939 67.9301C176.474 67.5533 177.219 68.3823 176.861 69.9272C176.823 70.0685 176.785 70.2098 176.88 70.4547C177.285 70.0214 177.671 69.5692 178.095 69.1641C178.952 68.354 179.894 67.7511 181.138 67.7699C182.174 67.7793 182.57 68.2692 182.202 69.2301C181.882 70.0685 181.26 70.6808 180.403 71.0011C179.574 71.312 179.338 71.1048 178.971 69.833C178.585 70.4642 178.114 71.0577 177.84 71.7359C177.53 72.5178 178.114 73.1678 178.924 72.9229C179.611 72.7157 180.29 72.3577 180.864 71.9149C182.127 70.9635 183.285 69.8801 184.548 68.9381C184.708 68.825 184.868 68.712 185.038 68.6083C185.207 68.5141 185.377 68.4199 185.556 68.3257C185.735 68.2409 185.914 68.1656 186.093 68.0902C186.281 68.0243 186.46 67.9583 186.658 67.9018C187.817 67.5533 188.815 68.3728 188.646 69.5692C188.608 69.7576 188.57 69.9366 188.514 70.1156C188.457 70.2946 188.401 70.4736 188.316 70.6432C188.241 70.8127 188.156 70.9823 188.062 71.1424C187.958 71.3026 187.854 71.4533 187.732 71.604C186.837 72.7062 185.791 73.686 184.802 74.7128C184.699 74.8258 184.567 74.92 184.482 75.0425C184.218 75.4099 183.587 75.7679 184.058 76.2389C184.237 76.4179 185.028 76.2577 185.339 76.0034C185.65 75.749 185.961 75.4853 186.272 75.2215C186.583 74.9577 186.884 74.6845 187.195 74.4113C187.496 74.1381 187.798 73.8649 188.09 73.5918C188.391 73.3091 188.683 73.0265 188.975 72.7439C190.53 71.2272 192.009 69.654 193.535 68.1091C193.686 67.9583 193.912 67.7982 194.1 67.7888C195.212 67.7605 196.333 67.7793 197.595 67.7793L194.703 71.6606L194.807 71.8019C194.995 71.6794 195.193 71.5664 195.381 71.4345C198.565 68.9757 202.183 67.7134 206.196 67.4591C206.667 67.4308 207.147 67.4025 207.618 67.3648C208.099 67.3272 208.579 67.2989 209.05 67.2612C209.531 67.2141 210.002 67.1764 210.482 67.1388C210.953 67.0917 211.434 67.0446 211.905 66.9974C212.234 66.9692 212.611 66.7148 212.809 66.4416C214.882 63.6909 217.303 61.3735 220.477 59.9133C220.666 59.8285 220.854 59.7437 221.052 59.6589C221.25 59.5741 221.448 59.4988 221.645 59.4234C221.834 59.3481 222.041 59.2727 222.239 59.1973C222.437 59.1314 222.635 59.0654 222.842 58.9995C219.724 61.1474 216.756 63.4365 214.618 66.875L224.245 65.7916L224.311 65.9612C223.209 66.3945 222.135 66.9503 220.995 67.2424C218.65 67.8359 216.276 68.2786 213.911 68.7968C213.751 68.8344 213.534 68.8815 213.45 68.9946C213.045 69.541 212.668 70.1062 212.282 70.662L212.404 70.8975C213.864 70.6055 215.334 70.3794 216.766 69.9837C218.876 69.4091 220.948 68.6931 223.04 68.062C223.595 67.8924 224.161 67.8076 224.801 67.6663C224.735 68.3823 224.424 68.6649 223.888 68.8721C221.363 69.8613 219.46 71.4627 218.791 74.2323C218.772 74.3077 218.753 74.3925 218.744 74.4679C218.735 74.5526 218.716 74.6374 218.716 74.7128C218.706 74.7976 218.697 74.8824 218.697 74.9671C218.697 75.0425 218.697 75.1273 218.706 75.2121C218.782 76.6346 219.884 77.4636 221.24 77.0208C221.975 76.7853 222.748 76.4179 223.285 75.8809C224.321 74.8447 225.206 73.6671 226.139 72.5178C226.309 72.3106 226.412 72.028 226.488 71.7642C226.638 71.2084 226.704 70.6149 226.139 70.2475C225.574 69.8801 225.065 70.1721 224.603 70.5301C224.34 70.7468 224.114 70.9917 223.869 71.2178L223.718 71.0671L226.657 67.9018C227.863 68.8156 227.967 70.0308 227.731 71.5287C228.635 70.6526 229.389 69.9084 230.171 69.1924C231.028 68.4011 231.951 67.7511 233.204 67.7699C234.58 67.7888 235.041 68.3823 234.693 69.7294C234.636 69.9366 234.589 70.1533 234.523 70.4453C235.239 69.833 235.804 69.1736 236.511 68.7685C236.718 68.6554 236.925 68.5518 237.133 68.4482C237.34 68.354 237.557 68.2692 237.773 68.1844C237.999 68.0996 238.216 68.0337 238.442 67.9678C238.668 67.9112 238.894 67.8547 239.12 67.8076C239.949 67.6475 240.467 68.3257 240.053 69.0323C239.601 69.7859 238.96 70.5113 238.225 71.0011C237.481 71.5004 237.038 71.0388 236.963 69.7482C236.125 70.3229 235.72 71.1236 235.588 72.0468C235.503 72.6026 236.002 73.0454 236.662 72.8946C237.302 72.7533 237.99 72.499 238.508 72.0939C239.469 71.3403 240.307 70.4359 241.212 69.6163C242.248 68.6743 243.397 67.9301 244.829 67.7793C246.789 67.5627 247.627 68.3257 247.646 70.2758C247.655 70.37 247.674 70.4547 247.721 70.7468C248.183 69.9931 248.55 69.3997 248.908 68.8062C250.321 66.4511 251.753 64.096 253.147 61.722C253.439 61.2133 253.769 60.9966 254.353 61.0532C254.937 61.1097 255.521 61.0626 256.247 61.0626C256.058 61.4206 255.917 61.7032 255.747 61.9764C253.477 65.8105 251.197 69.6446 248.936 73.4881C248.569 74.1193 248.23 74.7976 248.004 75.4853C247.712 76.3614 248.013 76.7099 248.908 76.9737C252.187 77.9157 255.578 78.4715 258.677 79.9976C261.56 81.4296 264.16 83.2383 266.251 85.7159C270.952 91.3116 270.538 97.5762 265.168 102.55C262.455 105.056 259.318 106.884 255.974 108.381C249.407 111.339 242.474 113.12 235.437 114.505C233.722 114.853 231.999 115.164 230.265 115.456C228.541 115.748 226.808 116.021 225.074 116.266C223.341 116.511 221.598 116.728 219.856 116.926C218.113 117.114 216.37 117.293 214.627 117.434C208.928 117.915 203.229 118.348 197.529 118.64C191.764 118.923 185.999 119.064 180.233 119.14C174.675 119.205 169.117 119.205 163.559 119.045C155.778 118.81 148.025 118.198 140.309 117.114C129.627 115.616 119.132 113.365 109.147 109.154C106.989 108.24 104.926 107.128 102.816 106.111C102.637 106.026 102.486 105.904 102.317 105.8L102.355 105.734ZM115.044 88.3253C115.025 90.8971 115.025 93.4689 115.044 96.0406C115.053 96.408 115.195 96.7849 115.279 97.2182H112.312C112.406 96.766 112.547 96.3515 112.566 95.937C112.604 95.1269 112.604 94.3073 112.557 93.4971C112.547 93.2993 112.293 92.9602 112.152 92.9507C109.938 92.9225 107.724 92.9319 105.397 92.9319C105.492 94.4015 105.105 95.8051 105.699 97.2182H102.741C102.807 96.7095 102.939 96.1914 102.939 95.6638C102.967 93.1957 102.957 90.7275 102.939 88.2594C102.939 87.8826 102.788 87.5152 102.694 87.0818H105.746C105.077 88.3536 105.501 89.6536 105.388 91.0384H107.997C109.326 91.0384 110.645 91.029 111.973 91.0384C112.378 91.0478 112.595 90.9536 112.585 90.492C112.557 89.6536 112.604 88.8152 112.566 87.9768C112.547 87.6847 112.35 87.4021 112.208 87.063H115.298C115.204 87.534 115.053 87.9297 115.044 88.3253ZM252.413 89.4275C252.516 89.8043 252.554 90.1906 252.733 90.492C253.468 91.7449 254.24 92.9696 255.013 94.2037C255.889 93.45 257.82 90.0869 257.763 89.4181H260.665C260.297 90.3413 260.316 96.6436 260.693 97.4631H258.347C258.432 97.011 258.574 96.5588 258.583 96.0972C258.611 94.7595 258.592 93.4123 258.413 92.0087L255.022 97.5102L251.744 92.0746L251.527 92.1217C251.612 93.8739 251.339 95.645 251.725 97.4537H249.539C249.916 96.7095 249.916 90.2 249.53 89.4275H252.413ZM245.62 95.9935V97.7081C245.206 97.6421 244.801 97.5197 244.396 97.5197C242.173 97.5008 239.949 97.5102 237.726 97.5102H236.982V89.4181C237.151 89.4087 237.415 89.3804 237.688 89.3804C239.883 89.3804 242.078 89.3898 244.273 89.371C244.678 89.371 245.084 89.2485 245.555 89.1732V90.85C244.952 90.7935 244.415 90.6898 243.868 90.6804C242.493 90.6616 241.117 90.6898 239.733 90.671C239.215 90.6616 238.96 90.8123 239.036 91.3587C239.054 91.5377 239.054 91.7167 239.036 91.8957C238.941 92.508 239.215 92.6964 239.808 92.6681C240.543 92.6305 241.287 92.7058 242.031 92.6493C242.483 92.6116 242.926 92.4326 243.416 92.3102V94.2884C242.87 94.166 242.37 93.9776 241.862 93.9399C241.127 93.8834 240.383 93.9399 239.648 93.921C239.177 93.9116 239.007 94.0906 239.036 94.5522C239.064 95.0327 239.036 95.5131 239.036 96.116C241.306 96.0406 243.454 96.2385 245.62 95.9935ZM125.614 94.2884C125.105 94.166 124.634 93.9776 124.144 93.9399C123.381 93.8834 122.618 93.9399 121.845 93.921C121.393 93.9116 121.195 94.0718 121.224 94.5428C121.252 95.0232 121.233 95.5037 121.233 96.1066C123.456 96.0689 125.614 96.2008 127.827 96.0218V97.6704C127.375 97.6233 126.932 97.5197 126.48 97.5197C124.031 97.5008 121.591 97.5102 119.179 97.5102V89.3804H119.914C122.053 89.3804 124.201 89.3898 126.339 89.371C126.791 89.371 127.253 89.2579 127.761 89.2014V90.8877C125.727 90.4732 123.701 90.7464 121.685 90.6993C121.535 90.6993 121.28 90.9725 121.252 91.142C121.054 92.5833 121.129 92.6587 122.561 92.6587C123.174 92.6587 123.786 92.7058 124.389 92.6399C124.785 92.6116 125.152 92.4326 125.614 92.2913V94.2884ZM168.26 92.5457H173.611V89.4463H175.702C175.636 92.1123 175.645 94.7595 175.702 97.4537H173.611V94.0812H168.156C168.203 95.2022 167.94 96.3233 168.364 97.4631H166.008C166.329 96.5117 166.3 90.1435 165.942 89.4463H168.26V92.5457ZM213.082 95.0232C214.269 96.295 217.321 96.7283 218.772 95.8428C218.998 95.7109 219.272 95.353 219.234 95.1551C219.196 94.9008 218.876 94.5428 218.631 94.5051C217.679 94.345 216.709 94.2979 215.748 94.1848C215.127 94.1095 214.486 94.0435 213.874 93.8834C213.035 93.6667 212.423 93.1674 212.3 92.2254C212.178 91.2551 212.583 90.5391 213.393 90.0493C214.806 89.192 216.361 89.2108 217.915 89.4369C218.961 89.5971 219.978 89.9079 221.099 90.1717L220.025 91.9239C218.574 90.558 216.879 90.4072 215.098 90.8311C214.769 90.9065 214.524 91.3493 214.232 91.6225C214.542 91.8768 214.825 92.3007 215.174 92.3573C216.248 92.5457 217.35 92.5739 218.433 92.7152C218.961 92.7812 219.498 92.8754 219.978 93.0826C221.504 93.7515 221.749 95.6732 220.355 96.587C219.62 97.0675 218.687 97.3689 217.811 97.4914C216.266 97.6892 214.703 97.6327 213.224 97.011C212.941 96.8885 212.611 96.8696 212.206 96.7849L213.082 95.0232ZM144.699 96.3138C144.728 94.4015 144.728 92.4986 144.699 90.5862C144.69 90.2188 144.502 89.842 144.379 89.4369H146.847C146.762 89.9362 146.612 90.4355 146.602 90.9442C146.574 92.3667 146.593 93.7892 146.593 95.2211C146.593 95.4848 146.621 95.758 146.64 96.0124C148.119 96.2667 152.452 96.1349 153.234 95.8146V97.7081C152.801 97.6421 152.368 97.5291 151.934 97.5197C149.645 97.5008 147.347 97.5102 145.057 97.5102H144.36C144.492 97.0581 144.69 96.6812 144.699 96.3138ZM203.304 97.4631C203.426 96.0124 203.935 94.5805 202.757 93.3087C202.07 92.5551 201.486 91.7072 200.826 90.9348C200.393 90.4166 199.913 89.955 199.442 89.4558H202.56C202.654 89.842 202.654 90.2094 202.823 90.4638C203.351 91.2362 203.954 91.971 204.613 92.8283C205.376 91.8862 206.111 91.0101 206.789 90.1058C206.874 89.9927 206.705 89.6819 206.648 89.4275H209.258L205.659 93.8928C205.574 93.987 205.461 94.1 205.452 94.2037C205.386 95.2682 205.207 96.3515 205.631 97.4631H203.304ZM233.412 89.1826V90.9442H229.851C229.869 93.0638 229.785 95.2305 229.898 97.4537H227.882C227.985 95.2493 227.91 93.0826 227.929 90.8406C226.685 90.8594 225.508 90.6333 224.321 91.029V89.192C224.764 89.2579 225.188 89.371 225.621 89.371C227.844 89.3898 230.058 89.3898 232.272 89.371C232.63 89.371 232.978 89.2579 233.412 89.1826ZM162.862 90.9348H159.386C159.103 91.8674 159.226 96.8696 159.612 97.4443H157.097C157.181 97.2182 157.313 97.0204 157.323 96.8131C157.332 94.8537 157.332 92.8942 157.332 90.9254H153.809V89.1826C154.826 89.5123 162.137 89.4558 162.862 89.0507V90.9348ZM141.289 97.4537H138.416C138.67 96.3704 137.954 95.4566 136.862 95.4566C135.976 95.4566 135.081 95.4472 134.186 95.4566C133.319 95.466 132.594 96.6341 132.971 97.4537H130.785C132.067 95.0609 133.348 92.7058 134.601 90.3319C134.704 90.134 134.572 89.8043 134.544 89.4558H136.928C137.041 89.9268 137.059 90.3601 137.248 90.6898C137.512 91.1703 137.775 91.6507 138.049 92.1217C138.312 92.6022 138.586 93.0732 138.859 93.5537C139.132 94.0247 139.396 94.4957 139.669 94.9761C139.951 95.4472 140.225 95.9182 140.498 96.3892C140.705 96.7472 140.997 97.0675 141.289 97.4537ZM196.728 88.1369L195.259 90.5203C193.987 88.9188 192.263 88.7775 190.52 88.7681C189.88 88.7681 189.211 88.9565 188.599 89.1826C188.307 89.2956 187.93 89.7384 187.958 89.9927C187.996 90.313 188.373 90.784 188.665 90.8406C189.917 91.0667 191.189 91.1609 192.442 91.3304C193.271 91.4435 194.11 91.5565 194.92 91.7732C195.947 92.0558 196.672 92.687 196.813 93.8268C196.973 95.0421 196.531 95.9747 195.485 96.5965C193.827 97.5668 191.999 97.774 190.153 97.6044C188.881 97.4914 187.628 97.0675 186.366 96.7943C186.055 96.7283 185.735 96.7189 185.32 96.6718L186.422 94.4486C188.457 96.116 190.718 96.2385 193.111 95.6732C193.328 95.6261 193.591 95.5602 193.733 95.4095C193.987 95.1269 194.336 94.7783 194.326 94.458C194.326 94.2037 193.902 93.7986 193.591 93.7326C192.81 93.5442 191.99 93.5066 191.18 93.4123C189.946 93.2616 188.693 93.1863 187.478 92.9319C186.422 92.7058 185.659 92.0464 185.49 90.8782C185.301 89.5782 185.829 88.6362 186.912 87.9862C188.382 87.1195 190.012 86.9594 191.651 87.1383C192.857 87.2796 194.034 87.6282 195.231 87.8826C195.664 87.9673 196.107 88.0333 196.728 88.1369ZM135.693 91.4435L134.092 94.3355H137.125L135.693 91.4435ZM209.013 72.8287C206.997 72.6874 202.899 73.6483 200.713 74.741C199.413 75.3816 198.217 76.1447 197.407 77.3788C196.041 79.4701 197.086 81.9854 199.451 82.268C200.506 82.3904 201.448 81.9759 202.334 81.4296C205.631 79.423 207.345 76.2012 209.013 72.8287ZM124.229 74.0063C123.4 74.1099 122.561 74.1852 121.742 74.2983C118.982 74.7034 116.24 75.2309 113.782 76.6063C112.915 77.0867 112.114 77.7744 111.464 78.5281C110.748 79.3476 110.852 80.3933 111.332 81.3448C111.784 82.2491 112.642 82.5694 113.584 82.4564C114.45 82.3433 115.345 82.1549 116.155 81.8252C118.473 80.8832 120.338 79.2911 121.958 77.4259C122.835 76.4179 123.588 75.3157 124.398 74.2512L124.229 74.0063ZM137.992 66.2438C138.501 66.1496 139 66.0554 139.49 65.9235C143.352 64.9532 146.32 62.8054 148.194 59.2633C148.505 58.6604 148.957 57.9067 148.345 57.285C147.752 56.6821 147.026 57.1154 146.414 57.3886C142.288 59.235 139.575 62.5698 137.078 66.3757C137.502 66.3192 137.757 66.2909 137.992 66.2438ZM243.049 70.191C241.391 71.4722 240.307 73.1678 239.761 75.1838C239.742 75.2592 239.723 75.3345 239.714 75.4099C239.704 75.4853 239.695 75.5606 239.686 75.636C239.686 75.7114 239.686 75.7867 239.686 75.8621C239.686 75.9374 239.686 76.0128 239.695 76.0882C239.77 76.8324 240.27 77.1998 240.967 76.9737C241.438 76.8135 241.965 76.5969 242.276 76.2295C242.549 75.9092 242.813 75.5795 243.086 75.2497C243.35 74.9295 243.614 74.5903 243.878 74.2606C244.132 73.9215 244.396 73.5823 244.641 73.2432C244.895 72.9041 245.149 72.5649 245.394 72.2164C245.696 71.7924 245.809 71.1895 245.875 70.6432C245.969 69.9272 245.507 69.5033 244.462 69.4939C244.16 69.6352 243.529 69.8142 243.049 70.191ZM187.949 78.9143L187.741 78.7353C185.716 80.4404 183.681 82.1267 181.693 83.8694C181.119 84.3687 180.676 85.0093 180.243 85.6405C179.932 86.0927 179.367 86.705 179.894 87.176C180.412 87.647 181.034 87.0818 181.411 86.705C182.654 85.4615 183.879 84.2086 185.009 82.8615C186.055 81.6085 186.978 80.2426 187.949 78.9143ZM150.144 71.7642C150.804 71.2084 151.378 70.5584 151.925 69.8989C152.076 69.7105 152.01 69.3431 152.038 69.0605C151.765 69.0323 151.463 68.9098 151.237 68.9946C148.891 69.8801 147.243 71.5193 146.141 73.7613C147.639 73.3657 148.995 72.7345 150.144 71.7642ZM132.651 69.2489C131.869 69.3243 131.162 69.3714 130.465 69.4656C129.391 69.5975 128.713 70.2852 128.487 71.4816C129.052 71.4251 129.608 71.2932 130.154 71.3214C131.454 71.3968 132.264 70.8692 132.566 69.5975L132.651 69.2489Z" fill="white"/>
</svg>
