<svg width="360" height="174" viewBox="0 0 360 174" fill="none" xmlns="http://www.w3.org/2000/svg">
<path d="M89.1383 72.8658C89.6265 72.3847 90.4193 72.3847 90.9075 72.8658L110.297 91.9556L100.611 101.494L90.9088 91.9401C90.4206 91.4594 89.6278 91.4594 89.1395 91.9401L79.4361 101.495L69.75 91.9569L89.1383 72.8658ZM174.729 75.4455C181.056 75.4455 186.205 80.5347 186.205 86.7895C186.205 93.0442 181.056 98.1334 174.729 98.1334C168.402 98.1334 163.254 93.0442 163.254 86.7895C163.254 80.5347 168.402 75.4455 174.729 75.4455ZM221.573 75.8963C221.698 75.8963 221.801 76.0047 221.801 76.1291V97.4499C221.801 97.5818 221.69 97.6826 221.565 97.6826H218.02C218.012 97.6751 218.004 97.6751 217.996 97.6751C217.996 97.6751 217.989 97.6671 217.981 97.6671C217.977 97.6671 217.973 97.6654 217.969 97.6633C217.965 97.6616 217.961 97.6595 217.957 97.6595L217.953 97.6583C217.947 97.6536 217.945 97.6515 217.941 97.6515C217.938 97.6478 217.933 97.6461 217.93 97.644C217.926 97.6419 217.922 97.6402 217.918 97.636L217.902 97.6204L217.887 97.6049L217.879 97.5973L205.885 82.6872V97.4574C205.885 97.5894 205.775 97.6906 205.649 97.6906H202.136C202.002 97.6906 201.9 97.5818 201.9 97.4574V76.1371C201.9 76.0051 202.01 75.9039 202.136 75.9039H205.665C205.751 75.9039 205.822 75.9585 205.861 76.0283L217.824 90.9229V76.1291C217.824 75.9972 217.933 75.8963 218.059 75.8963H221.573ZM150.93 75.8963C151.056 75.8963 151.166 76.0047 151.174 76.1215V79.5945C151.174 79.7268 151.064 79.8276 150.938 79.8276H144.132V97.4499C144.132 97.5818 144.022 97.6826 143.896 97.6826H140.383C140.249 97.6826 140.147 97.5738 140.147 97.4499V79.8356H133.34C133.207 79.8356 133.105 79.7268 133.105 79.6024V76.1291C133.105 75.9972 133.215 75.8963 133.34 75.8963H150.93ZM281.431 75.8963C281.566 75.8963 281.668 76.0047 281.668 76.1291V93.7433H290.022C290.149 93.7433 290.25 93.8521 290.25 93.9765V97.4499C290.25 97.5818 290.14 97.6826 290.013 97.6826H277.917C277.786 97.6826 277.68 97.5738 277.68 97.4499V76.1291C277.68 75.9972 277.794 75.8963 277.917 75.8963H281.431ZM251.658 75.8728C251.756 75.8728 251.832 75.9274 251.87 76.0127L261.2 97.3566C261.234 97.4263 261.225 97.5121 261.2 97.5738C261.153 97.636 261.081 97.6751 261.005 97.6751L257.344 97.6515C257.246 97.6515 257.17 97.5973 257.128 97.5121L249.72 80.8999L242.307 97.5121C242.265 97.5973 242.189 97.6515 242.096 97.6515L238.43 97.6751C238.354 97.6751 238.274 97.636 238.236 97.5738C238.198 97.5121 238.189 97.4263 238.219 97.3566L247.549 76.0127C247.587 75.9274 247.667 75.8728 247.76 75.8728H251.658ZM174.737 79.4546C170.65 79.4546 167.318 82.7493 167.318 86.7895C167.318 90.8296 170.65 94.1244 174.737 94.1244C178.824 94.1244 182.157 90.8376 182.157 86.7895C182.157 82.7414 178.824 79.4546 174.737 79.4546Z" fill="white"/>
</svg>
