<svg width="360" height="174" viewBox="0 0 360 174" fill="none" xmlns="http://www.w3.org/2000/svg">
<path fill-rule="evenodd" clip-rule="evenodd" d="M186.828 39.25C193.041 39.25 198.079 44.2802 198.079 50.4853V123.515C198.079 129.72 193.041 134.75 186.828 134.75C180.614 134.75 175.577 129.72 175.577 123.515V86.0038L175.538 83.6501C175.439 77.8177 170.709 73.124 164.868 73.0639C162.059 73.035 159.805 70.7375 159.834 67.9322C159.846 66.7904 160.242 65.6858 160.96 64.7968L177.183 44.6971C179.152 41.4331 182.735 39.25 186.828 39.25ZM209.389 84.1912C215.594 84.1912 220.624 89.2214 220.624 95.4265C220.624 101.632 215.594 106.662 209.389 106.662H203.748V84.1912H209.389ZM161.28 78.5735C166.057 78.5735 169.93 82.446 169.93 87.2229L169.929 87.2895L169.78 106.662H150.549C144.378 106.662 139.376 101.66 139.376 95.4892C139.376 93.145 140.113 90.8627 141.48 88.9638L141.654 88.7285L149.875 78.5735H161.28Z" fill="white"/>
</svg>
