<svg width="360" height="174" viewBox="0 0 360 174" fill="none" xmlns="http://www.w3.org/2000/svg">
<path fill-rule="evenodd" clip-rule="evenodd" d="M127.826 61.5767C132.427 61.6251 135.468 62.9229 137.211 64.8696C138.664 66.487 139.196 68.7243 138.838 71.7267L138.296 75.9203L138.238 76.3464H138.228C137.221 82.3608 132.94 85.6441 124.911 85.7215H123.758C119.119 85.6731 116.068 84.2785 114.325 82.3318C112.911 80.7628 112.388 78.5934 112.737 75.7072L113.279 71.5136C114.18 65.044 118.47 61.6639 126.674 61.5767H127.826ZM131.603 75.5232L132.107 71.6976C132.368 69.6734 132.136 68.1916 131.361 67.194C130.441 65.9834 128.795 65.78 127.545 65.78H126.364C124.553 65.78 123.042 66.2643 121.996 67.2812C120.911 68.3272 120.252 69.8381 119.972 71.8913L119.468 75.7072C119.245 77.4311 119.361 78.7193 119.807 79.6297C120.466 80.85 122.015 81.586 124.165 81.586H125.434C127.594 81.586 129.153 80.7822 130.17 79.5037C130.906 78.5352 131.371 77.2278 131.603 75.5232ZM193.917 61.5767C198.517 61.6251 201.558 62.9229 203.302 64.8696C204.754 66.487 205.287 68.7243 204.929 71.7267L204.386 75.9203L204.338 76.3464H204.319C203.311 82.3608 199.031 85.6441 191.011 85.7215H189.849C185.21 85.6731 182.159 84.2785 180.416 82.3318C179.002 80.7628 178.479 78.5934 178.828 75.7072L179.37 71.5136C180.271 65.044 184.551 61.6639 192.764 61.5767H193.917ZM197.694 75.5232L198.198 71.6976C198.459 69.6734 198.217 68.1916 197.452 67.194C196.532 65.9834 194.885 65.78 193.636 65.78H192.464C190.643 65.78 189.133 66.2643 188.087 67.2812C187.002 68.3272 186.334 69.8381 186.072 71.8913L185.559 75.7072C185.336 77.4311 185.452 78.7193 185.898 79.6297C186.556 80.85 188.106 81.586 190.266 81.586H191.525C193.684 81.586 195.244 80.7822 196.261 79.5037C196.997 78.5352 197.462 77.2278 197.694 75.5232ZM264.627 64.8696C266.08 66.487 266.613 68.7243 266.255 71.7267L265.712 75.9203L265.654 76.3464H265.644C264.637 82.3608 260.356 85.6441 252.327 85.7215H251.185C246.536 85.6731 243.485 84.2785 241.742 82.3318C240.328 80.7628 239.805 78.5934 240.153 75.7072L240.696 71.5136C241.596 65.044 245.887 61.6639 254.09 61.5767H255.243C259.843 61.6251 262.884 62.9229 264.627 64.8696ZM259.02 75.5232L259.523 71.6976C259.785 69.6734 259.543 68.1916 258.778 67.194C257.858 65.9834 256.211 65.78 254.962 65.78H253.79C251.969 65.78 250.458 66.2643 249.412 67.2812C248.328 68.3272 247.669 69.8381 247.398 71.8913L246.884 75.7072C246.662 77.4311 246.768 78.7193 247.223 79.6297C247.882 80.85 249.432 81.586 251.582 81.586H252.841C255.01 81.586 256.56 80.7822 257.586 79.5037C258.323 78.5352 258.787 77.2278 259.02 75.5232ZM215.263 68.7533C216.047 68.8986 216.541 69.2763 216.851 69.6056C217.423 70.2352 217.684 71.1455 217.578 72.1044L216.716 79.1163V79.126L216.483 80.9274L216.473 81.0534H216.512L216.502 81.063H220.425C220.667 81.063 221.006 81.0437 221.413 80.9952C223.166 80.8112 226.062 80.0945 226.895 77.8379C226.914 77.7701 226.933 77.712 226.962 77.6442C227.146 77.0341 227.292 76.3948 227.379 75.7169L227.708 73.2666V73.2569L227.873 72.1141C227.999 71.1843 228.018 70.3029 227.921 69.5088C227.65 67.2522 224.938 66.5355 223.224 66.3418C222.836 66.303 222.498 66.2837 222.255 66.2837H218.343V66.2933H215.272L215.263 66.274C214.343 66.2159 213.733 66.0609 213.384 65.8091C212.551 65.2086 212.125 64.2304 212.086 62.8067L212.067 62.0997H212.822H221.374H221.5L222.507 62.1094C227.698 62.1481 231.137 63.1844 233.025 65.2861C234.439 66.8648 234.972 68.9955 234.633 71.7848L234.439 73.2666L234.168 75.5619C234.129 75.8622 234.071 76.4142 234.023 76.7048C233.771 78.1866 233.345 79.465 232.725 80.511C232.56 80.8015 232.376 81.0824 232.173 81.3439C231.969 81.6151 231.756 81.8669 231.514 82.109C231.282 82.3512 231.04 82.5739 230.778 82.787C230.517 83 230.246 83.1938 229.965 83.3681C229.858 83.4262 229.761 83.4843 229.664 83.5424C229.568 83.6005 229.461 83.6586 229.364 83.7071C229.258 83.7652 229.161 83.8136 229.054 83.862C228.948 83.9104 228.841 83.9589 228.744 84.0073C227.834 84.4238 226.798 84.753 225.645 84.9855C225.296 85.0436 224.735 85.1114 224.037 85.1598C223.224 85.2276 222.236 85.2567 221.238 85.276H214.168H213.219C211.466 85.2276 210.43 84.9274 209.868 84.2978C209.849 84.2688 209.82 84.2397 209.8 84.2107C209.771 84.1816 209.752 84.1526 209.733 84.1138C209.704 84.0848 209.684 84.0557 209.665 84.017C209.645 83.9879 209.626 83.9492 209.616 83.9201C209.423 83.5521 209.355 83.1066 209.423 82.5642L210.285 76.0849L211.195 68.6952H214.614C214.846 68.6952 215.059 68.7243 215.263 68.7533ZM108.572 81.0534C108.408 81.9541 108.049 82.7773 108.049 82.7773C107.972 82.971 107.885 83.1356 107.788 83.31C107.41 83.9976 106.926 84.54 106.306 84.9177C105.899 85.1792 104.96 85.2276 104.011 85.2857L96.9405 85.2954C92.9212 85.1017 90.2191 83.8814 88.6404 82.1284C87.2748 80.6078 86.7809 78.5256 87.1102 75.7363L87.6332 71.6879C88.3789 66.3611 91.5072 63.2135 97.3279 62.3612C98.3255 62.2062 99.3908 62.1191 100.553 62.1094H101.192H111.003L110.79 62.8358C110.626 63.4266 110.393 63.9302 110.132 64.3757C110.083 64.4532 110.044 64.55 109.996 64.6275C109.647 65.1408 109.241 65.5379 108.737 65.8381C108.32 66.0996 107.672 66.2546 106.722 66.3127L106.713 66.3321H101.541C100.011 66.3321 98.8097 66.4967 97.88 66.826C96.9405 67.165 96.1948 67.6396 95.6718 68.2497C95.5362 68.4047 95.4103 68.579 95.2941 68.7533C95.1682 68.9567 95.0519 69.1601 94.9454 69.3829C94.9163 69.4507 94.897 69.5088 94.8679 69.5766C94.8389 69.6541 94.8001 69.7315 94.7711 69.809C94.7517 69.8768 94.7226 69.9543 94.6936 70.0318C94.6645 70.1092 94.6452 70.1867 94.6161 70.2642C94.5967 70.3417 94.5774 70.4192 94.5483 70.4967C94.5096 70.6613 94.4805 70.7775 94.4515 70.8841C94.3643 71.2521 94.2771 71.6395 94.2287 72.0559L93.7541 75.591C93.7348 75.7556 93.7154 75.93 93.696 76.0946C93.6863 76.2593 93.667 76.4336 93.667 76.5982C93.6573 76.7629 93.6573 76.9372 93.6573 77.1019C93.6573 77.2665 93.667 77.4408 93.6767 77.6055C93.6767 77.6636 93.6767 77.7217 93.6863 77.7798C93.6863 77.8379 93.696 77.896 93.7057 77.9541C93.7154 78.0122 93.7154 78.0704 93.7251 78.1285C93.7348 78.1866 93.7445 78.235 93.7638 78.2931C93.7638 78.3125 93.7638 78.3222 93.7638 78.3319C93.7638 78.3415 93.7638 78.3609 93.7735 78.3706C93.7735 78.3803 93.7735 78.39 93.7735 78.3997C93.7735 78.419 93.7832 78.4287 93.7832 78.4384C93.8897 78.942 94.0931 79.3585 94.3837 79.7071C94.7808 80.172 95.3715 80.511 96.156 80.7337C96.9405 80.9468 97.9478 81.0534 99.2262 81.063V81.0534H108.572ZM150.586 81.586L150.547 81.8669C150.518 82.109 150.46 82.3512 150.392 82.5739C150.315 82.8063 150.218 83.0291 150.102 83.2422C149.986 83.4552 149.85 83.6586 149.705 83.8426C149.55 84.0363 149.385 84.2107 149.201 84.3656C149.027 84.5109 148.852 84.6465 148.659 84.7627C148.465 84.8693 148.262 84.9661 148.049 85.0436C147.845 85.1211 147.622 85.1792 147.409 85.2179C147.187 85.2567 146.964 85.276 146.741 85.276H143.254L143.574 82.632L143.7 81.586L146.102 62.09H148.959C150.78 62.09 152.01 62.5646 152.62 63.4847L158.954 73.5087L167.961 63.3878C168.745 62.5259 170.034 62.09 171.806 62.09H174.779L172.339 81.586L172.3 81.8669C172.271 82.109 172.213 82.3415 172.135 82.5739C172.058 82.8063 171.971 83.0291 171.854 83.2422C171.738 83.4552 171.603 83.6489 171.448 83.8426C171.302 84.0267 171.128 84.2107 170.944 84.3656C170.779 84.5109 170.595 84.6368 170.402 84.753C170.218 84.8693 170.014 84.9661 169.801 85.0436C169.588 85.1211 169.375 85.1792 169.152 85.2179C168.939 85.2567 168.716 85.2664 168.494 85.2664H165.123L166.818 71.746L159.729 80.5982C159.525 80.8403 158.867 81.5667 158.073 81.5667H158.014C157.269 81.5667 156.697 80.8306 156.494 80.4916L151.816 71.7073L150.586 81.586ZM97.4441 105.605C97.4151 106.67 96.9502 107.532 96.0689 108.191C95.1778 108.84 94.035 109.169 92.621 109.169C90.8583 109.169 89.483 108.598 88.4758 107.455C87.4782 106.312 86.9746 104.733 86.9746 102.728C86.9746 100.685 87.4782 99.0772 88.4758 97.915C89.483 96.7528 90.8583 96.1717 92.621 96.1717C94.0931 96.1717 95.265 96.4913 96.1367 97.1305C97.0083 97.7794 97.4441 98.6414 97.4441 99.7261H95.6718C95.6718 99.0966 95.4103 98.5833 94.8776 98.1959C94.3449 97.8085 93.6573 97.6148 92.7953 97.6148C91.5072 97.6148 90.5097 98.0409 89.8026 98.9029C89.0956 99.7552 88.747 100.966 88.747 102.525C88.747 104.191 89.0956 105.469 89.7833 106.38C90.4806 107.3 91.4588 107.755 92.7178 107.755C93.5508 107.755 94.2287 107.561 94.7614 107.184C95.2844 106.806 95.5846 106.273 95.6718 105.605H97.4441ZM99.5071 100.21H101.134V101.092C101.764 100.336 102.587 99.9586 103.594 99.9586L104.03 99.9779V101.479L103.701 101.46C102.8 101.46 102.141 101.702 101.735 102.186C101.328 102.661 101.134 103.436 101.134 104.491V108.917H99.5071V100.21ZM109.957 109.169C108.659 109.169 107.643 108.772 106.916 107.987C106.18 107.193 105.812 106.099 105.812 104.704C105.812 103.222 106.18 102.07 106.916 101.227C107.652 100.385 108.669 99.9586 109.957 99.9586C111.207 99.9586 112.156 100.327 112.805 101.063C113.463 101.789 113.793 102.845 113.793 104.239L113.783 104.83H107.497C107.546 105.818 107.739 106.573 108.078 107.087C108.466 107.668 109.076 107.968 109.909 107.968C110.5 107.968 110.984 107.803 111.362 107.474C111.739 107.155 111.972 106.699 112.04 106.128H113.715C113.589 107.116 113.211 107.871 112.563 108.394C111.923 108.908 111.052 109.169 109.957 109.169ZM111.633 101.876C111.274 101.402 110.674 101.169 109.822 101.169C109.086 101.169 108.504 101.44 108.098 101.992C107.788 102.409 107.594 102.951 107.526 103.629H112.127C112.078 102.835 111.914 102.254 111.633 101.876ZM116.378 108.443C115.807 107.968 115.526 107.3 115.526 106.448C115.526 105.527 115.914 104.811 116.698 104.278C117.473 103.755 118.558 103.503 119.923 103.503H121.395V102.767C121.395 102.206 121.231 101.799 120.911 101.547C120.591 101.295 120.068 101.169 119.352 101.169C118.858 101.169 118.47 101.285 118.17 101.518C117.87 101.75 117.705 102.07 117.667 102.486H115.972C116.039 101.615 116.349 100.975 116.921 100.569C117.483 100.162 118.344 99.9586 119.487 99.9586C120.543 99.9586 121.395 100.22 122.044 100.733C122.693 101.247 123.013 101.925 123.013 102.767V105.799C123.013 106.622 123.032 107.31 123.08 107.871C123.119 108.423 123.177 108.772 123.255 108.917H121.715C121.647 108.849 121.599 108.646 121.56 108.336C121.56 108.278 121.55 108.21 121.541 108.152C121.531 108.094 121.531 108.026 121.521 107.968C121.511 107.9 121.511 107.842 121.511 107.784C121.502 107.716 121.502 107.658 121.502 107.59C121.395 107.784 121.269 107.958 121.134 108.133C120.553 108.82 119.759 109.169 118.742 109.169C117.734 109.169 116.95 108.927 116.378 108.443ZM119.904 104.685C118.993 104.685 118.306 104.83 117.851 105.13C117.395 105.421 117.163 105.866 117.163 106.457C117.163 106.941 117.328 107.31 117.647 107.571C117.967 107.833 118.422 107.968 119.013 107.968C119.807 107.968 120.398 107.745 120.795 107.3C121.192 106.854 121.386 106.205 121.395 105.343V104.685H119.904ZM130.092 109.043C129.957 109.072 129.831 109.092 129.695 109.101C129.56 109.121 129.434 109.13 129.298 109.14C129.163 109.15 129.037 109.159 128.901 109.169C128.766 109.169 128.63 109.169 128.504 109.169C127.894 109.169 127.371 109.004 126.954 108.675C126.528 108.336 126.315 107.939 126.315 107.464V101.373H124.494V100.21H126.315V98.6414L127.933 97.9731V100.21H130.092V101.373H127.933V107.087C127.933 107.397 128.01 107.619 128.165 107.755C128.32 107.9 128.572 107.968 128.911 107.968C129.337 107.958 129.734 107.92 130.092 107.852V109.053V109.043ZM132.184 100.21H133.802V108.917H132.184V100.21ZM133.879 96.4138V98.0603H132.097V96.4138H133.879ZM138.422 100.21V101.411C138.499 101.295 138.596 101.179 138.693 101.072C139.361 100.336 140.271 99.9586 141.395 99.9586C142.557 99.9586 143.4 100.268 143.952 100.879C144.494 101.479 144.765 102.438 144.765 103.726V108.917H143.148V103.755C143.148 102.864 142.974 102.215 142.635 101.818C142.296 101.411 141.753 101.208 141.007 101.208C140.146 101.208 139.516 101.431 139.119 101.867C138.732 102.312 138.538 103.019 138.538 103.997V108.917H136.911V100.21H138.422ZM153.036 110.583C153.404 110.157 153.588 109.431 153.588 108.404V107.242L153.317 107.619C152.668 108.404 151.797 108.801 150.731 108.801C149.588 108.801 148.688 108.404 148.039 107.61C147.38 106.816 147.061 105.721 147.061 104.327C147.061 103.058 147.419 102.012 148.145 101.189C148.872 100.375 149.792 99.9586 150.935 99.9586C152 99.9586 152.843 100.356 153.453 101.14L153.588 101.305V100.21H155.206V108.404C155.206 109.799 154.886 110.825 154.228 111.464C153.579 112.104 152.542 112.423 151.128 112.423C149.889 112.423 148.988 112.2 148.407 111.745C147.835 111.29 147.545 110.573 147.545 109.595H149.24C149.24 110.157 149.395 110.564 149.705 110.825C150.015 111.087 150.499 111.213 151.167 111.213C152.039 111.213 152.668 111 153.036 110.583ZM151.177 101.15C150.412 101.15 149.831 101.431 149.404 101.992C148.988 102.544 148.775 103.329 148.775 104.346C148.775 105.45 148.978 106.264 149.366 106.806C149.763 107.339 150.373 107.61 151.177 107.61C151.942 107.61 152.533 107.329 152.959 106.767C153.375 106.196 153.588 105.402 153.588 104.375C153.588 103.348 153.375 102.554 152.959 101.992C152.533 101.431 151.942 101.15 151.177 101.15ZM163.109 97.8375V96.4138H173.297V97.8375H169.065V108.917H167.341V97.8375H163.109ZM175.293 100.21H176.92V101.092C177.549 100.336 178.372 99.9586 179.38 99.9586L179.815 99.9779V101.479L179.486 101.46C178.585 101.46 177.927 101.702 177.53 102.186C177.123 102.661 176.92 103.436 176.92 104.491V108.917H175.293V100.21ZM184.067 107.368C184.406 107.765 184.949 107.968 185.694 107.968C186.595 107.968 187.244 107.745 187.631 107.29C188.019 106.845 188.203 106.128 188.154 105.14V100.21H189.772V108.917H188.271V107.784L188.087 108.017C187.409 108.791 186.508 109.169 185.384 109.169C184.193 109.169 183.331 108.859 182.769 108.239C182.208 107.61 181.927 106.641 181.927 105.314V100.21H183.554V105.421C183.554 106.312 183.719 106.961 184.067 107.368ZM197.142 101.537C196.832 101.295 196.396 101.169 195.835 101.169C195.273 101.169 194.827 101.276 194.508 101.479C194.43 101.518 194.362 101.576 194.304 101.644C194.246 101.702 194.198 101.77 194.149 101.847C194.111 101.925 194.082 102.002 194.062 102.089C194.043 102.176 194.033 102.264 194.033 102.341C194.033 102.622 194.12 102.845 194.295 103.019C194.459 103.193 194.721 103.329 195.079 103.426L196.871 103.91C197.781 104.152 198.44 104.472 198.837 104.85C199.234 105.227 199.428 105.731 199.428 106.36C199.428 107.232 199.108 107.92 198.459 108.423C197.81 108.917 196.919 109.169 195.776 109.169C194.585 109.169 193.675 108.927 193.055 108.443C192.435 107.949 192.116 107.242 192.116 106.312H193.791C193.791 106.825 193.965 107.232 194.324 107.523C194.672 107.823 195.157 107.968 195.776 107.968C196.425 107.968 196.929 107.833 197.287 107.581C197.646 107.329 197.83 106.971 197.83 106.506C197.83 106.234 197.713 106.002 197.491 105.808C197.268 105.624 196.929 105.46 196.474 105.343L194.682 104.859C193.878 104.646 193.287 104.356 192.929 103.988C192.58 103.62 192.406 103.126 192.406 102.496C192.406 101.702 192.706 101.082 193.316 100.637C193.927 100.191 194.769 99.9586 195.835 99.9586C196.91 99.9586 197.752 100.191 198.372 100.656C198.982 101.111 199.282 101.75 199.282 102.554H197.607C197.607 102.128 197.452 101.779 197.142 101.537ZM206.449 109.101C206.314 109.121 206.178 109.13 206.043 109.14C205.917 109.15 205.781 109.159 205.646 109.169C205.51 109.169 205.384 109.169 205.248 109.169C204.638 109.169 204.125 109.004 203.699 108.675C203.273 108.336 203.06 107.939 203.06 107.464V101.373H201.239V100.21H203.06V98.6414L204.677 97.9731V100.21H206.837V101.373H204.677V107.087C204.677 107.397 204.754 107.619 204.919 107.755C205.064 107.9 205.316 107.968 205.655 107.968C206.091 107.958 206.478 107.92 206.837 107.852V109.043C206.711 109.072 206.575 109.092 206.449 109.101ZM216.018 107.426C215.021 106.254 214.517 104.646 214.517 102.593C214.517 100.588 215.021 99.0191 216.018 97.8763C217.025 96.7431 218.41 96.1717 220.173 96.1717C221.945 96.1717 223.33 96.7431 224.328 97.8763C225.335 99.0191 225.829 100.588 225.829 102.593C225.829 104.646 225.335 106.254 224.328 107.426C223.33 108.588 221.945 109.169 220.173 109.169C218.41 109.169 217.025 108.588 216.028 107.426H216.018ZM223.079 106.409C223.766 105.518 224.105 104.249 224.105 102.612C224.105 101.014 223.766 99.7842 223.079 98.9029C222.391 98.0216 221.422 97.5857 220.173 97.5857C218.924 97.5857 217.955 98.0216 217.268 98.9029C216.58 99.7842 216.241 101.014 216.241 102.612C216.241 104.249 216.58 105.518 217.268 106.409C217.955 107.31 218.924 107.755 220.173 107.755C221.422 107.755 222.391 107.31 223.079 106.409ZM228.057 100.21H229.558V101.411C229.635 101.295 229.732 101.179 229.829 101.072C230.507 100.336 231.398 99.9586 232.531 99.9586C233.693 99.9586 234.536 100.268 235.088 100.879C235.63 101.479 235.902 102.438 235.902 103.726V108.917H234.284V103.755C234.284 102.864 234.11 102.215 233.771 101.818C233.432 101.411 232.89 101.208 232.144 101.208C231.282 101.208 230.643 101.431 230.255 101.867C229.868 102.312 229.674 103.019 229.674 103.997V108.917H228.057V100.21ZM238.633 96.4138H240.25V108.917H238.633V96.4138ZM243.466 100.21H245.083V108.917H243.466V100.21ZM243.378 96.4138H245.161V98.0603H243.378V96.4138ZM249.703 100.21V101.411C249.78 101.295 249.877 101.179 249.984 101.072C250.642 100.336 251.553 99.9586 252.686 99.9586C253.838 99.9586 254.691 100.268 255.233 100.879C255.775 101.479 256.047 102.438 256.047 103.726V108.917H254.429V103.755C254.429 102.864 254.255 102.215 253.916 101.818C253.577 101.411 253.034 101.208 252.289 101.208C251.427 101.208 250.797 101.431 250.4 101.867C250.013 102.312 249.819 103.019 249.819 103.997V108.917H248.202V100.21H249.703ZM262.497 109.169C261.199 109.169 260.182 108.772 259.456 107.987C258.72 107.193 258.352 106.099 258.352 104.704C258.352 103.222 258.72 102.07 259.456 101.227C260.192 100.385 261.199 99.9586 262.497 99.9586C263.736 99.9586 264.695 100.327 265.344 101.063C266.003 101.789 266.332 102.845 266.332 104.239L266.313 104.83H260.037C260.076 105.818 260.269 106.573 260.618 107.087C260.996 107.668 261.615 107.968 262.448 107.968C263.039 107.968 263.523 107.803 263.901 107.474C264.279 107.155 264.502 106.699 264.579 106.128H266.245C266.129 107.116 265.741 107.871 265.102 108.394C264.463 108.908 263.591 109.169 262.497 109.169ZM264.163 101.876C263.814 101.402 263.213 101.169 262.351 101.169C261.615 101.169 261.034 101.44 260.628 101.992C260.318 102.409 260.124 102.951 260.056 103.629H264.666C264.608 102.835 264.443 102.254 264.163 101.876ZM270.545 97.8279C271.94 97.8279 273.024 98.9029 273.024 100.249C273.024 101.615 271.94 102.67 270.526 102.67C269.131 102.67 268.017 101.615 268.017 100.249C268.017 98.9029 269.131 97.8279 270.526 97.8279H270.545ZM270.516 98.3121C269.441 98.3121 268.647 99.1838 268.647 100.249C268.647 101.324 269.441 102.176 270.545 102.176C271.61 102.186 272.405 101.324 272.405 100.249C272.405 99.1838 271.61 98.3121 270.526 98.3121H270.516ZM269.577 101.498V99.0966C269.799 99.0482 270.109 99.0094 270.516 99.0094C270.971 99.0094 271.184 99.0772 271.359 99.2031C271.494 99.3 271.601 99.4937 271.601 99.7164C271.601 99.9973 271.397 100.201 271.097 100.288V100.317C271.33 100.394 271.465 100.578 271.543 100.908C271.61 101.276 271.659 101.421 271.717 101.498H271.107C271.039 101.411 270.991 101.198 270.913 100.927C270.865 100.656 270.719 100.54 270.409 100.54H270.148V101.498H269.577ZM270.429 100.143C270.739 100.143 270.991 100.036 270.991 99.7842C270.991 99.5712 270.826 99.4162 270.468 99.4162C270.322 99.4162 270.216 99.4356 270.158 99.4453V100.143H270.429Z" fill="white"/>
</svg>
