<svg width="360" height="174" viewBox="0 0 360 174" fill="none" xmlns="http://www.w3.org/2000/svg">
<path d="M200.998 75.8191C201.886 75.8191 202.607 76.1152 203.162 76.7074C203.717 77.2997 203.995 78.1953 203.995 79.3944V99.7059L203.994 100.094C203.986 101.366 203.938 102.417 203.851 103.248C203.754 104.162 203.618 104.824 203.44 105.233C202.433 107.778 200.295 109.05 197.024 109.05C195.188 109.05 193.797 108.801 192.85 108.304C191.903 107.807 191.429 107.083 191.429 106.133C191.429 105.431 191.644 104.857 192.073 104.411C192.502 103.965 193.064 103.742 193.76 103.742C193.849 103.742 193.993 103.753 194.193 103.775C194.393 103.797 194.689 103.822 195.081 103.852C195.473 103.881 195.743 103.895 195.891 103.895C196.705 103.895 197.249 103.581 197.523 102.952C197.797 102.323 197.934 101.197 197.934 99.5743V79.3944L197.938 79.1451C197.976 78.084 198.255 77.2751 198.778 76.7184C199.34 76.1189 200.08 75.8191 200.998 75.8191ZM107.831 64.95C111.386 64.95 114.436 65.691 116.98 67.173C119.524 68.6549 121.429 70.5705 122.696 72.9197C123.962 75.269 124.596 77.6621 124.596 80.0991C124.596 82.3605 123.94 83.826 122.629 84.4956C121.318 85.1652 119.474 85.5001 117.097 85.5001H99.2988L99.3085 85.9052C99.3784 87.7809 99.7917 89.4461 100.549 90.901C101.36 92.4599 102.437 93.6345 103.782 94.4249C105.126 95.2152 106.609 95.6104 108.231 95.6104C109.32 95.6104 110.314 95.4842 111.214 95.2317C112.114 94.9792 112.986 94.584 113.83 94.0461C114.675 93.5082 115.452 92.9319 116.163 92.3172C116.874 91.7024 117.797 90.8681 118.93 89.8143C119.396 89.4191 120.063 89.2215 120.929 89.2215C121.863 89.2215 122.618 89.474 123.196 89.9789C123.774 90.4839 124.062 91.1974 124.062 92.1196C124.062 92.9319 123.74 93.8815 123.096 94.9682C122.452 96.055 121.479 97.0979 120.18 98.0969C118.88 99.0958 117.247 99.9246 115.28 100.583C113.314 101.242 111.053 101.571 108.498 101.571C102.654 101.571 98.1101 99.9246 94.8661 96.6313C91.622 93.3381 90 88.8702 90 83.2277C90 80.5711 90.4 78.1067 91.1999 75.8343C91.9998 73.5619 93.1663 71.6134 94.6994 69.9887C96.2326 68.364 98.1212 67.1181 100.365 66.2509C102.61 65.3836 105.098 64.95 107.831 64.95ZM132.706 75.8191C133.535 75.8191 134.227 76.0933 134.782 76.6416C135.337 77.19 135.614 77.9467 135.614 78.9119V79.4822L135.858 79.2012C136.839 78.1005 137.882 77.2803 138.989 76.7403C140.188 76.1554 141.52 75.863 142.985 75.863C144.51 75.863 145.82 76.1627 146.915 76.7623C148.01 77.3618 148.913 78.2684 149.624 79.4822C150.645 78.2538 151.74 77.3435 152.909 76.7513C154.079 76.1591 155.374 75.863 156.795 75.863C158.452 75.863 159.881 76.1847 161.08 76.8281C162.278 77.4715 163.174 78.3927 163.766 79.5918C164.284 80.6739 164.543 82.3775 164.543 84.7026V96.3937L164.539 96.6411C164.503 97.7757 164.216 98.6364 163.677 99.2233C163.1 99.8521 162.338 100.166 161.39 100.166C160.473 100.166 159.722 99.8484 159.137 99.2123C158.552 98.5762 158.26 97.6367 158.26 96.3937V86.3258L158.259 85.9812C158.249 84.8536 158.194 83.9375 158.093 83.233C157.982 82.458 157.683 81.8072 157.194 81.2808C156.706 80.7544 155.966 80.4912 154.974 80.4912C154.175 80.4912 153.416 80.7251 152.698 81.1931C151.981 81.661 151.422 82.2898 151.022 83.0794C150.578 84.0884 150.356 85.8724 150.356 88.4315V96.3937L150.352 96.6411C150.316 97.7757 150.029 98.6364 149.49 99.2233C148.913 99.8521 148.151 100.166 147.204 100.166C146.286 100.166 145.542 99.8521 144.972 99.2233C144.402 98.5945 144.118 97.6513 144.118 96.3937V86.8522L144.117 86.5106C144.109 85.168 144.058 84.1121 143.962 83.3427C143.859 82.5091 143.577 81.8255 143.119 81.2918C142.66 80.758 141.934 80.4912 140.943 80.4912C138.959 80.4912 137.653 81.1638 137.024 82.5091C136.395 83.8545 136.081 85.7847 136.081 88.2999V96.3937L136.076 96.6554C136.038 97.7694 135.755 98.6217 135.226 99.2123C134.656 99.8484 133.905 100.166 132.972 100.166C132.055 100.166 131.304 99.8484 130.719 99.2123C130.134 98.5762 129.842 97.6367 129.842 96.3937V79.2628L129.847 79.0078C129.884 78.0068 130.145 77.2364 130.63 76.6965C131.156 76.1115 131.848 75.8191 132.706 75.8191ZM181.016 75.8191C182.852 75.8191 184.517 76.1115 186.012 76.6965C187.507 77.2814 188.787 78.1149 189.853 79.197C190.918 80.2791 191.729 81.566 192.284 83.0575C192.839 84.5491 193.116 86.1942 193.116 87.9928C193.116 89.7768 192.835 91.4219 192.273 92.9281C191.71 94.4343 190.896 95.7284 189.83 96.8105C188.765 97.8926 187.492 98.7225 186.012 99.3001C184.532 99.8777 182.867 100.166 181.016 100.166C179.181 100.166 177.531 99.874 176.066 99.2891C174.6 98.7042 173.331 97.867 172.258 96.7776C171.185 95.6882 170.371 94.4014 169.816 92.9171C169.261 91.4329 168.983 89.7914 168.983 87.9928C168.983 86.1795 169.264 84.5198 169.827 83.0136C170.389 81.5075 171.196 80.2206 172.247 79.1531C173.298 78.0857 174.571 77.2631 176.066 76.6855C177.56 76.1079 179.211 75.8191 181.016 75.8191ZM216.494 67.462L216.772 67.4639C217.858 67.4795 218.657 67.5885 219.17 67.791C219.725 68.0104 220.135 68.4052 220.402 68.9755C220.668 69.5458 220.972 70.4744 221.312 71.7612L226.041 89.3747L230.77 71.7612L230.848 71.4706C231.157 70.3336 231.434 69.5019 231.68 68.9755C231.947 68.4052 232.357 68.0104 232.912 67.791C233.467 67.5717 234.359 67.462 235.588 67.462H237.63L237.916 67.4663C239.04 67.5011 239.944 67.7446 240.627 68.1968C241.367 68.6867 241.738 69.6335 241.738 71.0373V96.4815L241.733 96.74C241.696 97.8399 241.42 98.6749 240.905 99.2452C240.35 99.8594 239.606 100.166 238.674 100.166C237.8 100.166 237.083 99.8594 236.52 99.2452C235.958 98.6311 235.676 97.7098 235.676 96.4815V74.2837L230.459 94.7706L230.382 95.0714C230.076 96.2494 229.825 97.1252 229.627 97.6989C229.412 98.3203 229.016 98.887 228.439 99.3988C227.862 99.9106 227.062 100.166 226.041 100.166C225.271 100.166 224.62 100.002 224.087 99.673C223.554 99.3439 223.14 98.9235 222.844 98.4117C222.548 97.8999 222.315 97.3333 222.145 96.7118C221.974 96.0903 221.801 95.4432 221.623 94.7706L216.406 74.2837V96.4815L216.401 96.74C216.365 97.8399 216.088 98.6749 215.573 99.2452C215.018 99.8594 214.282 100.166 213.364 100.166C212.476 100.166 211.751 99.8631 211.188 99.2562C210.626 98.6494 210.345 97.7244 210.345 96.4815V71.0373L210.348 70.7944C210.389 69.5237 210.758 68.6579 211.455 68.1968C212.195 67.7069 213.194 67.462 214.452 67.462H216.494ZM258.833 75.7752C261.201 75.7752 263.232 76.2687 264.927 77.2558C266.622 78.2429 267.891 79.5187 268.735 81.0834C269.578 82.6481 270 84.242 270 85.8651C270 87.3713 269.563 88.3474 268.69 88.7934C267.817 89.2394 266.588 89.4624 265.005 89.4624H253.149L253.158 89.799C253.212 91.0211 253.486 92.108 253.982 93.0597C254.522 94.0979 255.24 94.8803 256.135 95.4067C257.031 95.9331 258.019 96.1963 259.099 96.1963C259.824 96.1963 260.487 96.1122 261.086 95.9441C261.686 95.7759 262.266 95.5127 262.829 95.1544C263.391 94.7962 263.909 94.4123 264.383 94.0029C264.857 93.5934 265.471 93.0377 266.226 92.3358C266.537 92.0726 266.981 91.941 267.558 91.941C268.179 91.941 268.683 92.1092 269.068 92.4455C269.452 92.7818 269.645 93.2571 269.645 93.8713C269.645 94.4123 269.43 95.0448 269.001 95.7686C268.572 96.4925 267.924 97.187 267.058 97.8524C266.192 98.5177 265.105 99.0698 263.795 99.5085C262.485 99.9471 260.979 100.166 259.277 100.166C255.384 100.166 252.357 99.0698 250.196 96.8763C248.035 94.6828 246.955 91.7071 246.955 87.9489C246.955 86.1795 247.221 84.5381 247.754 83.0246C248.287 81.5111 249.064 80.2133 250.085 79.1312C251.107 78.0491 252.365 77.2192 253.86 76.6416C255.354 76.064 257.012 75.7752 258.833 75.7752ZM181.016 80.2499C179.832 80.2499 178.789 80.5533 177.886 81.1602C176.983 81.767 176.288 82.6627 175.799 83.8472C175.311 85.0316 175.066 86.4135 175.066 87.9928C175.066 89.5575 175.307 90.9247 175.788 92.0946C176.269 93.2644 176.957 94.1601 177.853 94.7816C178.748 95.403 179.803 95.7138 181.016 95.7138C182.852 95.7138 184.313 95.0301 185.401 93.6629C186.489 92.2956 187.033 90.4056 187.033 87.9928C187.033 85.5507 186.489 83.6497 185.401 82.2898C184.313 80.9298 182.852 80.2499 181.016 80.2499ZM258.633 79.9428C257.123 79.9428 255.884 80.4583 254.914 81.4892C253.945 82.5201 253.356 84.0446 253.149 86.0625H264.139C263.991 84.0153 263.432 82.4835 262.463 81.4672C261.493 80.4509 260.217 79.9428 258.633 79.9428ZM104.666 71.6064C103.241 71.6064 102.07 72.3056 101.154 73.7039C100.711 74.3816 100.296 75.6595 99.9099 77.5376C99.883 77.6682 99.8695 77.8012 99.8695 77.9346C99.8695 79.024 100.753 79.9072 101.842 79.9072H108.144C108.227 79.9072 108.31 79.9002 108.392 79.8861C109.198 79.7487 109.739 78.9844 109.602 78.1789C109.216 75.9192 108.777 74.4176 108.283 73.6742C107.368 72.2956 106.162 71.6064 104.666 71.6064ZM106.062 75.204C107.018 75.204 107.792 75.9691 107.792 76.913C107.792 77.8568 107.018 78.6219 106.062 78.6219C105.107 78.6219 104.333 77.8568 104.333 76.913C104.333 75.9691 105.107 75.204 106.062 75.204ZM200.998 67.1769C201.782 67.1769 202.478 67.4254 203.085 67.9226C203.692 68.4198 203.995 69.1437 203.995 70.0942C203.995 71.0154 203.699 71.7356 203.107 72.2547C202.515 72.7738 201.812 73.0334 200.998 73.0334C200.154 73.0334 199.433 72.7775 198.833 72.2657C198.234 71.7539 197.934 71.03 197.934 70.0942C197.934 69.246 198.241 68.5478 198.855 67.9994C199.47 67.451 200.184 67.1769 200.998 67.1769Z" fill="white"/>
</svg>
