<svg width="360" height="174" viewBox="0 0 360 174" fill="none" xmlns="http://www.w3.org/2000/svg">
<path fill-rule="evenodd" clip-rule="evenodd" d="M165.336 79.0874C165.408 78.3625 165.511 77.4101 165.618 76.4255C165.992 73.0209 166.249 70.544 166.186 69.6731C166.066 68.0196 164.884 66.8389 163.175 66.6657C161.647 66.5019 159.777 67.2217 159.311 68.8472C158.344 72.2221 157.326 77.6699 156.949 79.7512C154.552 80.1238 147.572 81.212 143.085 81.9463L143.783 74.3875C143.887 73.2585 143.361 72.1661 142.41 71.5363C141.455 70.9047 140.23 70.8419 139.215 71.3741C137.263 72.3961 136.17 74.2024 135.872 76.8949C135.78 77.7267 135.418 80.2062 134.959 83.3485C133.757 91.5694 131.941 103.992 131.829 108.032L131.813 108.474C131.768 109.602 131.718 110.879 132.324 111.929C132.54 112.304 132.821 112.657 133.184 113.012C134.041 113.849 135.272 114.247 136.472 114.062C137.634 113.889 138.612 113.218 139.155 112.221C139.333 111.896 139.448 111.563 139.498 111.232C139.816 109.092 141.689 93.2934 142.154 89.3582C144.491 88.9151 151.107 87.6674 155.582 86.9323C155.187 90.3887 154.721 94.0938 154.268 97.692C153.749 101.816 153.213 106.078 152.788 109.943C152.604 111.597 153.552 113.103 155.145 113.69C155.583 113.85 156.031 113.925 156.468 113.918C157.567 113.899 158.6 113.367 159.257 112.417C160.046 111.277 160.323 109.88 160.504 108.541L161.238 103.063C161.82 98.7029 162.4 94.3434 163.035 89.9575C163.418 86.6505 163.418 86.6505 165.201 86.1038L165.775 85.9273C167.345 85.4324 168.35 83.5718 168.019 81.7799C167.813 80.6713 166.99 79.4456 165.336 79.0874ZM269.367 57.152C263.469 51.6152 253.297 53.3238 249.105 60.0686C241.92 71.6296 254.811 79.9575 257.982 89.915C266.682 117.242 220.712 121.689 207.477 105.6C204.476 101.951 199.287 107.152 202.262 110.771C214.754 125.955 241.085 125.926 256.17 114.896C264.793 108.592 268.175 99.0357 265.33 88.8175C263.782 83.2602 260.821 79.185 257.469 74.6166C254.971 71.2129 252.573 66.2693 256.545 62.7551C258.449 61.0711 261.928 60.235 264.152 62.3231C267.597 65.5588 272.821 60.3963 269.367 57.152ZM206.199 66.7939C206.278 65.3084 205.963 64.2015 205.234 63.4079C204.559 62.6728 203.569 62.2739 202.294 62.2238C200.056 62.133 199.304 65.0292 199.206 66.153L199 68.5178C198.189 77.8575 197.697 83.4784 196.212 92.1763C194.9 90.1782 193.782 88.343 192.702 86.5579C191.315 84.2678 189.882 81.8996 188.037 79.2096C186.395 76.8134 185.026 74.9587 183.729 73.3714L183.624 73.2441C182.472 71.8274 180.869 69.8785 177.569 70.2995C174.999 70.617 174.317 73.3095 173.911 74.918L173.845 75.1718C173.024 78.3625 172.363 81.9437 171.763 86.4433C171.088 91.5083 170.493 96.6301 169.919 101.584L169.438 105.715C169.321 106.71 169.629 107.713 170.284 108.468C170.912 109.192 171.779 109.609 172.727 109.64C172.902 109.646 173.068 109.644 173.229 109.636C176.117 109.486 176.589 107.104 176.848 105.792C177.129 104.376 177.322 102.82 177.51 101.316C177.586 100.704 177.661 100.1 177.74 99.5221C178.062 97.1666 178.423 94.4435 178.797 91.6263C179.283 87.956 179.79 84.1235 180.262 80.7392C181.486 82.5897 183.206 85.2974 184.698 87.6487C186.611 90.662 188.59 93.7789 189.939 95.7753C190.263 96.2549 190.564 96.7854 190.872 97.3228C192.217 99.6715 193.881 102.569 197.693 102.101C198.378 102.01 198.98 101.693 199.521 101.276L199.522 101.28C202.909 99.4117 203.35 94.9095 203.629 93.0031C204.255 88.7275 205.728 75.603 206.199 66.7939ZM218.297 99.5696C218.609 96.8695 218.879 94.1626 219.138 91.4548C226.443 97.4781 234.353 100.763 244.62 99.6417C249.708 99.0858 249.766 91.1017 244.62 91.6636C236.218 92.5812 230.215 90.2104 224.355 85.3925C231.073 78.6936 236.654 70.6781 242.994 63.6923C246.449 59.8853 240.779 54.2253 237.307 58.051C231.528 64.4172 226.368 71.6262 220.415 77.9279C220.92 72.9063 221.499 67.8939 222.309 62.9113C223.127 57.8888 215.378 55.7269 214.554 60.7901C212.462 73.6405 211.745 86.6488 210.254 99.5696C209.667 104.662 217.715 104.621 218.297 99.5696ZM145.738 62.5022C154.491 60.8971 163.544 59.2385 176.946 57.6393C178.865 57.4109 179.706 56.0554 179.69 54.8127C179.67 53.2602 178.323 51.5303 176.105 51.3249C174.076 51.1398 171.305 51.5218 169.078 51.8308C168.472 51.9148 167.901 51.9946 167.387 52.0574C159.118 53.0565 151.749 54.289 143.949 55.5936C140.248 56.2124 136.5 56.8405 132.594 57.45C128.693 58.0594 123.499 59.0976 119.326 59.9328C116.748 60.448 114.521 60.8928 113.349 61.0855C106.322 62.2365 101.099 63.2653 94.0735 64.8806C94.0418 64.8874 90.86 65.6751 90.0872 66.9772C89.4445 68.0603 89.3238 69.3633 89.7526 70.5516C90.1591 71.678 91.0286 72.5548 92.136 72.958C92.6683 73.1499 93.1552 73.2084 93.6173 73.127C96.3191 72.6788 98.9943 71.9743 101.581 71.2926C102.88 70.9489 104.179 70.6068 105.485 70.2961C108.243 69.6374 111.01 69.0161 114.003 68.343L116.843 67.703L115.722 77.7616C114.653 87.3261 113.645 96.361 112.706 105.381C112.277 109.494 112.151 113.048 112.319 116.248C112.407 117.92 114.19 120.413 115.826 120.576C115.922 120.587 116.018 120.59 116.114 120.589C117.836 120.56 119.763 118.835 120.396 117.557C121.187 115.957 121.644 109.492 121.61 108.095C121.571 106.533 123.384 84.3663 125.208 72.8766C125.61 70.3428 126.024 67.4449 126.22 66.0613C127.644 65.76 130.695 65.1276 133.285 64.7041C137.676 63.9809 141.774 63.2296 145.738 62.5022Z" fill="white"/>
</svg>
