<svg width="360" height="174" viewBox="0 0 360 174" fill="none" xmlns="http://www.w3.org/2000/svg">
<path fill-rule="evenodd" clip-rule="evenodd" d="M180 38.5C206.743 38.5 228.5 60.2572 228.5 86.9999C228.5 113.743 206.743 135.5 180 135.5C153.257 135.5 131.5 113.743 131.5 86.9999C131.5 60.2572 153.257 38.5 180 38.5ZM180 45.7515C157.256 45.7515 138.751 64.2555 138.751 86.9999C138.751 109.744 157.256 128.249 180 128.249C202.745 128.249 221.248 109.744 221.248 86.9999C221.248 64.2555 202.745 45.7515 180 45.7515ZM159.234 65.6265H160.168L160.168 101.122H199.832V101.117H207.083V102.056C207.083 105.465 204.368 108.253 200.987 108.37L200.766 108.374H159.234C155.825 108.374 153.038 105.659 152.921 102.277L152.917 102.056V71.9439C152.917 68.5347 155.632 65.7474 159.013 65.6304L159.234 65.6265ZM200.766 83.3742C204.175 83.3742 206.962 86.089 207.079 89.4702L207.083 89.6917V96.295H199.832V90.6256H173.934V83.3742H200.766ZM207.049 65.6265V72.878H164.99V65.6265H207.049Z" fill="white"/>
</svg>
