<svg width="360" height="174" viewBox="0 0 360 174" fill="none" xmlns="http://www.w3.org/2000/svg">
<path fill-rule="evenodd" clip-rule="evenodd" d="M179.951 72.7023L241.107 134H118.142L179.951 72.7023ZM244.781 105.108L249.581 109.958L245.481 124.46L254.781 115.214L258 118.467L243.948 132.436L239.752 128.196L243.364 112.97L234.034 122.417L230.729 119.077L244.781 105.108ZM105.563 113.268L116.164 124.158L122.181 118.275L125.372 121.553L115.792 130.923L102 116.753L105.563 113.268ZM123.317 95.8742L126.012 98.642L119.983 104.537L122.549 107.172L127.543 102.288L130.364 105.187L125.37 110.071L128.363 113.146L134.595 107.05L137.291 109.821L127.474 119.42L113.533 105.443L123.317 95.8742ZM238.144 98.4L241.678 101.972L227.626 115.941L224.091 112.369L238.144 98.4ZM226.045 86.1739L229.666 89.8332L219.033 100.404L224.982 106.415L221.563 109.814L211.994 100.143L226.045 86.1739ZM132.67 86.7042C135.581 84.0538 138.49 85.0395 139.247 85.3675L139.437 85.4568C143.996 87.8563 141.968 93.2683 142.102 93.2452C142.347 93.2026 145.449 94.2106 147.991 95.0579L151.337 96.1865L147.685 99.7568L135.517 96.5406L143.044 104.273L139.363 107.872L125.454 93.8315L132.67 86.7042ZM211.16 71.1311L219.695 79.7566C222.305 83.5556 218.973 86.8101 218.973 86.8101C215.498 89.8039 212.331 88.0556 212.331 88.0556L211.959 89.2552L209.321 97.4427L205.614 93.6962L208.379 81.0974L200.701 88.73L197.08 85.0716L211.16 71.1311ZM137.614 90.5832C136.417 89.3531 134.979 90.2239 134.737 90.4271L134.185 90.9292C133.359 91.6673 131.956 92.9111 132.044 93.0014L135.364 96.4125C135.364 96.4125 135.64 96.2568 137.684 94.2567C139.729 92.2576 137.614 90.5832 137.614 90.5832ZM145.471 73.5573C148.778 70.3224 155.645 69.8357 159.605 73.9033C162.831 77.2192 164.568 83.3954 159.691 88.1659C156.383 91.4008 150.278 93.3137 145.146 88.0423C140.475 83.2424 142.163 76.7922 145.471 73.5573ZM148.222 76.6756C146.352 78.5039 146.198 81.157 148.769 83.7976C151.827 86.9408 154.504 87.5227 156.694 85.3812C158.885 83.2397 158.767 81.1258 155.223 77.4861C152.118 74.2948 149.506 75.4194 148.222 76.6756ZM214.586 80.1116L212 77.4977L208.639 80.8385L211.11 83.4515C212.691 85.0485 214.484 83.8421 214.484 83.8421C216.686 81.7682 214.873 80.4016 214.586 80.1116ZM198.229 58.0633L208 67.9371L205.16 70.7592L199.04 64.5741L196.751 66.849L201.578 71.7281L198.623 74.6658L193.824 69.8161L190.753 72.8695L196.816 78.9968L193.919 81.8767L184.177 72.0323L198.229 58.0633ZM165.558 54.542L168.819 68.1426L174.268 73.7396L170.646 77.2815L164.794 71.4558L152.356 67.4522L156.27 63.6248L163.566 66.3188L161.406 58.6025L165.558 54.542ZM180.356 40L184.953 44.6468L179.892 54.6327L190.211 49.9609L194.637 54.4334L180.585 68.4024L177.194 64.9753L184.611 57.6025L174.465 62.2173L172.367 60.0972L177.083 49.936L169.521 57.2217L166.304 53.969L180.356 40Z" fill="white"/>
</svg>
