<svg width="360" height="174" viewBox="0 0 360 174" fill="none" xmlns="http://www.w3.org/2000/svg">
<path fill-rule="evenodd" clip-rule="evenodd" d="M179.39 77.22L170.03 86.49C169.87 86.65 169.68 86.78 169.47 86.87C169.25 86.96 169.03 87 168.8 87C168.57 87 168.34 86.96 168.13 86.87C167.92 86.78 167.72 86.65 167.56 86.49L148.11 67.22C147.95 67.06 147.82 66.87 147.73 66.66C147.65 66.45 147.6 66.23 147.6 66C147.6 65.77 147.65 65.55 147.73 65.34C147.82 65.13 147.95 64.93 148.11 64.77L167.56 45.51C167.72 45.35 167.92 45.22 168.13 45.13C168.34 45.04 168.57 45 168.8 45C169.03 45 169.25 45.04 169.47 45.13C169.68 45.22 169.87 45.35 170.03 45.51L176.64 52.05L173.9 54.77L168.8 49.71L152.36 66L168.8 82.29L176.69 74.47L179.98 71.21L185.24 66L182.63 63.41L185.36 60.7L189.48 64.78C189.64 64.94 189.77 65.13 189.86 65.34C189.95 65.55 189.99 65.77 189.99 66C189.99 66.23 189.95 66.45 189.86 66.66C189.77 66.87 189.64 67.06 189.48 67.22L182.68 73.96L179.4 77.22H179.39ZM211.09 64.78C211.25 64.94 211.38 65.13 211.47 65.34C211.55 65.55 211.6 65.77 211.6 66C211.6 66.23 211.55 66.45 211.47 66.66C211.38 66.87 211.25 67.06 211.09 67.23L191.64 86.49C191.48 86.65 191.28 86.78 191.07 86.87C190.86 86.95 190.63 87 190.4 87C190.17 87 189.95 86.95 189.73 86.87C189.52 86.78 189.33 86.65 189.17 86.49L182.55 79.94L185.29 77.23L190.4 82.29L206.84 66L190.4 49.71L182.32 57.72L179.57 60.44L173.96 66L176.6 68.61L173.86 71.33L169.72 67.22C169.55 67.06 169.43 66.87 169.34 66.66C169.25 66.45 169.2 66.23 169.2 66C169.2 65.77 169.25 65.55 169.34 65.34C169.43 65.13 169.55 64.94 169.72 64.78L176.41 58.14L179.7 54.89L189.17 45.51C189.33 45.35 189.52 45.22 189.73 45.13C189.95 45.05 190.17 45 190.4 45C190.63 45 190.86 45.05 191.07 45.13C191.28 45.22 191.48 45.35 191.64 45.51L211.09 64.78ZM258.8 129H252.4L244.08 118.01L242 129H236.4L241.2 103.64H246.8L244.74 114.51L256.4 103.64H262.8L249.2 116.32L258.8 129ZM226 129L216.54 111.36L213.2 129H207.6L212.4 103.64H218L227.46 121.28L230.8 103.64H236.4L231.6 129H226ZM182.8 103.64H188.4L194.44 114.47L202.8 103.64H208.4L196.8 118.7L194.8 129H189.2L191.2 118.7L182.8 103.64ZM162 129L166.8 103.64H172.4L168.5 124.25H183.6L182.8 129H162ZM154 108.4L134.8 124.25H150.8L150 129H126L126.8 124.25L146 108.4H130L130.8 103.64H154.8L154 108.4ZM125.2 108.4H101.2L102 103.64H126L125.2 108.4ZM123.2 118.7H99.2L100 113.94H124L123.2 118.7ZM121.2 129H97.2L98 124.25H122L121.2 129Z" fill="white"/>
</svg>
