<svg width="360" height="174" viewBox="0 0 360 174" fill="none" xmlns="http://www.w3.org/2000/svg">
<path fill-rule="evenodd" clip-rule="evenodd" d="M196.351 100.45C196.282 99.3757 196.433 98.5492 196.874 97.6676C197.274 96.8549 198.279 95.7391 199.037 95.2708C199.354 95.0917 199.615 94.9126 199.602 94.8713C199.602 94.8438 199.381 94.6785 199.119 94.4994C197.769 93.6316 197.232 91.6205 197.921 90.1603C198.238 89.5129 199.023 88.7002 199.533 88.5074C199.753 88.4247 199.932 88.3283 199.932 88.2732C199.932 88.2181 199.67 87.8875 199.354 87.5431C198.031 86.083 197.37 83.9754 197.522 81.6337C197.604 80.3114 197.811 79.5262 198.348 78.4104C199.161 76.7299 200.566 75.504 202.425 74.8703C203.651 74.4433 205.759 74.3744 207.04 74.6912C208.376 75.0356 209.216 75.5177 210.139 76.4131C210.566 76.8401 210.938 77.1983 210.938 77.1983C210.952 77.1983 211.076 76.9916 211.186 76.7299C211.875 75.2973 213.542 74.2918 215.208 74.2918H215.773V78.2727H215.374C214.768 78.2727 213.803 78.5895 213.404 78.9339C212.756 79.4573 212.688 79.7466 212.701 81.6751C212.715 84.1821 212.357 85.4907 211.255 87.0748C210.346 88.3421 208.707 89.4165 207.109 89.7609C206.227 89.9399 204.009 89.9675 203.059 89.8022C202.508 89.7058 202.343 89.7195 202.067 89.8573C201.654 90.0777 201.53 90.3256 201.53 90.9455C201.53 91.345 201.585 91.4965 201.819 91.7444C202.37 92.2954 203.004 92.4056 206.007 92.5158C207.494 92.5571 209.065 92.6536 209.45 92.7224C210.428 92.8877 211.806 93.3699 212.536 93.8106C214.492 95.0228 215.622 97.2681 215.401 99.541C215.057 103.054 212.357 105.409 207.935 106.084C206.861 106.236 203.775 106.208 202.77 106.029C199.023 105.34 196.516 103.15 196.351 100.45ZM211.2 100.478C211.53 99.8578 211.572 99.6925 211.572 98.9624C211.572 98.2461 211.53 98.0946 211.255 97.6125C211.035 97.2543 210.745 96.9651 210.346 96.7309C209.244 96.0559 209.01 96.0284 205.649 95.9733L202.591 95.9457L201.957 96.2901C199.96 97.3645 199.436 99.6374 200.827 101.208C201.516 101.993 202.756 102.53 204.312 102.737C205.401 102.888 206.875 102.861 207.715 102.709C209.478 102.365 210.566 101.662 211.2 100.478ZM208.762 83.6862C209.602 80.6144 207.784 77.4738 205.139 77.4738C204.175 77.4738 203.486 77.7768 202.756 78.5344C201.227 80.091 200.883 82.474 201.861 84.6091C202.742 86.4962 204.753 87.364 206.475 86.5927C207.591 86.083 208.39 85.0774 208.762 83.6862ZM117.035 92.3505C115.754 91.1108 114.735 89.3063 114.184 87.3365C113.812 85.959 113.73 83.4658 113.977 81.9781C114.473 79.0303 116.016 76.7161 118.275 75.5453C119.501 74.8979 120.576 74.6086 122.063 74.5397C124.818 74.3882 127.132 75.3111 128.62 77.1156C129.281 77.9283 130.025 79.4298 130.301 80.5869C130.562 81.6062 130.755 83.5484 130.714 84.5815L130.672 85.3392L124.157 85.3667L117.642 85.3943L117.724 85.959C118.027 88.7002 119.887 90.9179 122.394 91.5791C123.262 91.7995 125.176 91.7995 126.251 91.5791C126.692 91.4827 127.518 91.221 128.069 90.9868C128.62 90.7526 129.13 90.546 129.185 90.5322C129.254 90.5047 130.204 93.1495 130.204 93.3836C130.204 93.5076 128.413 94.2239 127.559 94.4443C125.92 94.8713 123.014 94.9953 121.54 94.7198C119.749 94.3754 118.399 93.6729 117.035 92.3505ZM126.402 79.6915C125.948 78.9063 125.424 78.4104 124.625 77.9972C122.297 76.8263 119.295 77.9421 118.165 80.394C117.986 80.7797 117.821 81.3445 117.779 81.6337L117.724 82.1572H127.008V81.799C127.008 81.2618 126.719 80.2149 126.402 79.6915ZM152.63 93.3423C152.63 93.1908 153.484 90.6424 153.58 90.546C153.621 90.5047 154.145 90.6562 154.737 90.9042C156.28 91.5103 157.313 91.7582 158.374 91.772C159.875 91.7995 161.018 91.4001 161.79 90.6149C162.52 89.8573 162.713 89.017 162.313 88.2043C161.914 87.4191 161.28 87.061 158.484 86.0968C155.963 85.229 154.93 84.6917 154.048 83.8239C152.988 82.7633 152.616 81.8128 152.616 80.1736C152.63 76.7575 155.068 74.7188 159.393 74.5397C160.991 74.4571 162.148 74.5948 163.415 75.0081C164.131 75.2285 165.495 75.8483 165.495 75.931C165.495 75.9448 165.371 76.6059 165.22 77.4049C165.082 78.2038 164.958 78.8512 164.958 78.8788C164.958 78.8926 164.614 78.741 164.187 78.5482C162.658 77.8319 161.666 77.5977 160.178 77.5839C158.718 77.5839 158.139 77.7217 157.396 78.2589C156.17 79.1543 156.17 80.6282 157.382 81.4133C157.988 81.7853 158.566 82.0194 160.757 82.7219C163.525 83.5898 164.793 84.3611 165.647 85.6697C166.294 86.6064 166.487 87.3778 166.487 88.6727C166.473 90.7526 165.633 92.323 163.897 93.5076C162.231 94.6509 159.352 95.133 156.721 94.7198C155.137 94.4718 152.63 93.6316 152.63 93.3423ZM229.107 89.4578C227.922 86.8406 227.84 83.0939 228.914 80.3389C229.947 77.7079 231.876 75.8208 234.479 74.9254C235.388 74.6086 235.636 74.5673 237.083 74.5259C238.46 74.4846 238.818 74.5122 239.631 74.705C242.496 75.3938 244.673 77.4324 245.747 80.4078C246.698 83.0663 246.656 86.5789 245.651 89.2236C244.122 93.2459 240.058 95.5049 235.788 94.7198C232.73 94.155 230.429 92.3367 229.107 89.4578ZM219.065 91.6067C218.349 90.119 218.321 89.9124 218.321 83.7551V78.2727H220.443V74.2918H218.321V68.7819H222.151V74.2918H226.724V78.2727H222.137L222.165 83.8653C222.206 89.3201 222.206 89.444 222.44 89.9399C222.784 90.7113 223.459 91.3863 224.079 91.5929C224.603 91.772 225.402 91.7582 226.118 91.5929C226.338 91.524 226.366 91.6067 226.71 92.9428C226.917 93.7142 227.055 94.3616 227.027 94.3754C226.669 94.6785 223.515 94.8575 222.605 94.6234C221.104 94.2239 219.795 93.1219 219.065 91.6067ZM95.23 67.8176H99.3762L99.39 73.9887L99.4313 80.1598L104.252 73.9887L109.087 67.8176H111.636C114.046 67.8176 114.17 67.8314 114.019 68.0105C112.834 69.388 104.005 80.4216 103.977 80.5455C103.949 80.6695 105.809 83.1352 109.308 87.612C112.256 91.4001 114.68 94.5269 114.68 94.5683C114.68 94.6234 113.426 94.6647 111.897 94.6509H109.101L104.321 88.0803C101.69 84.4713 99.5002 81.5235 99.4588 81.5098C99.4037 81.5098 99.3762 84.4713 99.3762 88.0803V94.6647H95.23V67.8176ZM133.813 77.4049L134.116 77.1294C136.265 75.1458 139.323 74.154 142.739 74.3193C144.31 74.3882 145.15 74.581 146.321 75.1596C147.836 75.8897 148.897 77.1845 149.434 78.9477C149.792 80.1736 149.861 81.6888 149.861 88.3283V94.6647H146.045V88.3834C146.045 84.9259 145.99 81.7164 145.949 81.2343C145.756 79.54 145.108 78.4518 143.938 77.8732C143.373 77.5977 143.235 77.5702 142.106 77.5839C140.411 77.5839 139.006 77.9972 137.987 78.7824L137.643 79.0441V94.6647H133.813V77.4049ZM169.958 74.7188H173.788V94.6647H169.958V74.7188ZM178.03 77.3222L178.485 76.9641C180.799 75.0356 183.65 74.154 186.97 74.3193C190 74.4708 192.094 75.6417 193.141 77.7768C193.954 79.4435 193.913 78.989 193.954 87.2538L193.995 94.6647H190.152V87.8737C190.152 83.2592 190.111 80.9037 190.042 80.518C189.78 79.292 189.105 78.3553 188.155 77.8732C187.604 77.5977 187.452 77.5702 186.323 77.5702C184.697 77.5839 183.334 77.9696 182.218 78.741L181.86 78.9752V94.6647H178.03V77.3222ZM248.833 77.3498L249.604 76.7299C250.554 75.9723 252.428 75.0218 253.557 74.7326C255.5 74.2367 258.241 74.1678 259.784 74.5673C262.47 75.2698 264.109 77.0192 264.632 79.7604C264.742 80.394 264.77 81.9781 264.77 87.612V94.6647H260.954L260.927 87.5293L260.899 80.3802L260.651 79.7741C260.335 78.9477 259.701 78.2451 258.943 77.8732C258.392 77.5977 258.255 77.5702 257.125 77.5702C255.458 77.5839 254.039 77.9972 253.006 78.7824L252.662 79.0441V94.6647H248.833V77.3498ZM169.958 68.7819H173.788V72.3495H169.958V68.7819ZM240.416 78.9063C239.397 77.8594 237.992 77.3636 236.752 77.6115C234.713 78.0247 233.102 79.6639 232.358 82.1021C232.027 83.1627 231.945 85.2565 232.179 86.4274C232.468 87.7222 233.184 89.1134 234.025 90.0364C235.209 91.3036 236.229 91.7858 237.62 91.7169C238.267 91.6893 238.598 91.6067 239.066 91.3863C242.992 89.4854 243.763 82.3362 240.416 78.9063Z" fill="white"/>
</svg>
