<svg width="360" height="174" viewBox="0 0 360 174" fill="none" xmlns="http://www.w3.org/2000/svg">
<path d="M180 36.5C183.087 36.5 186.142 36.7778 189.138 37.3258C192.73 37.983 195.11 41.4282 194.453 45.0209C193.796 48.6136 190.35 50.9933 186.758 50.3361C184.546 49.9315 182.288 49.7262 180 49.7262C159.414 49.7262 142.726 66.4142 142.726 87C142.726 107.586 159.414 124.274 180 124.274C200.586 124.274 217.274 107.586 217.274 87C217.274 79.8112 215.242 72.9394 211.469 67.0137C209.507 63.9328 210.415 59.8451 213.496 57.8836C216.577 55.9221 220.664 56.8295 222.626 59.9104C227.74 67.9434 230.5 77.276 230.5 87C230.5 114.89 207.89 137.5 180 137.5C152.11 137.5 129.5 114.89 129.5 87C129.5 59.1096 152.11 36.5 180 36.5ZM199.839 61.1488L196.95 71.3324H177.635C175.72 71.3324 174.168 72.8521 174.168 74.7269V87.6848L179.077 82.6474H195.5V92.831H174.168V115.256H163.768V74.7269C163.768 67.2279 169.976 61.1488 177.635 61.1488H199.839ZM204.048 44.3155C207.7 44.3155 210.661 47.2763 210.661 50.9286C210.661 54.5809 207.7 57.5417 204.048 57.5417C200.395 57.5417 197.435 54.5809 197.435 50.9286C197.435 47.2763 200.395 44.3155 204.048 44.3155Z" fill="white"/>
</svg>
