<svg width="360" height="174" viewBox="0 0 360 174" fill="none" xmlns="http://www.w3.org/2000/svg">
<path d="M145.039 71.8141C145.057 71.6448 145.124 71.499 145.237 71.3767C145.35 71.2545 145.51 71.1933 145.718 71.1933H150.616C150.966 71.1933 151.192 71.372 151.296 71.7295L155.146 84.5407L159.025 71.7295C159.158 71.372 159.398 71.1933 159.747 71.1933H164.589C164.759 71.1933 164.912 71.2521 165.049 71.3697C165.186 71.4873 165.264 71.6354 165.283 71.8141C165.613 75.1251 165.95 78.4102 166.295 81.6695C166.639 84.9287 166.977 88.2138 167.307 91.5248V91.5954C167.307 91.9622 167.099 92.1456 166.684 92.1456H162.678C162.244 92.1456 162.017 91.9387 161.998 91.5248L160.767 80.6183L157.581 91.5954C157.563 91.6894 157.494 91.8023 157.376 91.934C157.258 92.0657 157.143 92.1315 157.029 92.1315H153.306C153.193 92.1315 153.073 92.068 152.945 91.941C152.818 91.814 152.749 91.6988 152.74 91.5954L149.555 80.6465L148.323 91.5248C148.304 91.9387 148.073 92.1456 147.629 92.1456H143.623C143.217 92.1456 143.014 91.9387 143.014 91.5248L145.039 71.8141ZM179.696 71.7436C179.705 71.6872 179.736 71.626 179.788 71.5602C179.84 71.4943 179.904 71.4332 179.979 71.3767C180.055 71.3203 180.135 71.2756 180.22 71.2427C180.305 71.2098 180.385 71.1933 180.461 71.1933H184.085C184.245 71.1933 184.382 71.2427 184.495 71.3415C184.608 71.4402 184.693 71.5272 184.75 71.6025L185.104 72.4067L192.536 91.5107C192.612 91.6988 192.598 91.8517 192.494 91.9692C192.39 92.0868 192.211 92.1456 191.956 92.1456H187.893C187.676 92.1456 187.508 92.1056 187.39 92.0257C187.272 91.9457 187.18 91.8117 187.114 91.6236C186.925 91.1439 186.741 90.6665 186.562 90.1915C186.383 89.7165 186.203 89.2391 186.024 88.7594H178.507C178.328 89.2391 178.146 89.7165 177.962 90.1915C177.778 90.6665 177.596 91.1439 177.417 91.6236C177.294 91.9716 177.053 92.1456 176.695 92.1456H172.519C172.339 92.1456 172.191 92.0986 172.073 92.0045C171.955 91.9105 171.933 91.7694 172.009 91.5812L179.696 71.7436ZM182.273 77.7824C182.093 78.2621 181.912 78.7794 181.728 79.3344C181.543 79.8894 181.362 80.449 181.182 81.0134C181.003 81.5778 180.821 82.1351 180.637 82.6853C180.453 83.2356 180.272 83.7506 180.092 84.2303H184.439L182.273 77.7824ZM202.915 78.9252L206.341 71.6307C206.397 71.5178 206.445 71.4355 206.482 71.3838C206.52 71.3321 206.558 71.2944 206.596 71.2709C206.633 71.2474 206.673 71.2333 206.716 71.2286C206.758 71.2239 206.808 71.2121 206.865 71.1933H212.315C212.381 71.1933 212.435 71.2145 212.478 71.2568C212.52 71.2991 212.541 71.3485 212.541 71.405C212.541 71.5084 212.475 71.626 212.343 71.7577L205.633 83.5954V91.4825C205.633 91.9246 205.416 92.1456 204.982 92.1456H200.735C200.546 92.1456 200.4 92.0868 200.296 91.9692C200.192 91.8517 200.14 91.6894 200.14 91.4825V83.5672L193.444 71.7577C193.321 71.6354 193.26 71.5178 193.26 71.405C193.26 71.3485 193.279 71.2991 193.317 71.2568C193.354 71.2145 193.406 71.1933 193.472 71.1933H198.923C198.989 71.2121 199.041 71.2239 199.078 71.2286C199.116 71.2333 199.154 71.2474 199.192 71.2709C199.229 71.2944 199.267 71.3321 199.305 71.3838C199.343 71.4355 199.395 71.5178 199.461 71.6307L202.915 78.9252ZM235.987 81.6906C235.987 82.6877 235.859 83.6354 235.605 84.5337C235.35 85.432 234.986 86.2691 234.514 87.0451C234.043 87.8211 233.479 88.5242 232.823 89.1544C232.167 89.7847 231.44 90.3208 230.643 90.7629C229.845 91.205 228.984 91.546 228.059 91.7858C227.134 92.0257 226.176 92.1456 225.185 92.1456H218.206C218.036 92.1456 217.885 92.108 217.753 92.0327C217.621 91.9575 217.555 91.7976 217.555 91.553V71.8424C217.555 71.6448 217.609 71.4849 217.718 71.3626C217.826 71.2404 217.989 71.1792 218.206 71.1792H225.185C226.176 71.1792 227.132 71.3015 228.052 71.5461C228.972 71.7906 229.831 72.1386 230.628 72.5901C231.426 73.0416 232.155 73.5825 232.816 74.2127C233.476 74.8429 234.04 75.5484 234.507 76.3291C234.975 77.1098 235.338 77.9517 235.597 78.8547C235.857 79.7577 235.987 80.703 235.987 81.6906ZM223.033 76.2445V87.0945H224.223C224.44 87.0945 224.652 87.0874 224.86 87.0733C225.067 87.0592 225.275 87.0428 225.482 87.0239C226.19 86.9675 226.851 86.7958 227.464 86.509C228.078 86.2221 228.613 85.8458 229.071 85.3802C229.529 84.9146 229.888 84.3667 230.147 83.7365C230.407 83.1063 230.536 82.4196 230.536 81.6765C230.536 80.8864 230.388 80.1598 230.09 79.4966C229.793 78.8335 229.39 78.2597 228.88 77.7753C228.37 77.2909 227.774 76.9146 227.089 76.6466C226.405 76.3785 225.676 76.2445 224.902 76.2445H223.033ZM247.099 71.7436C247.109 71.6872 247.139 71.626 247.191 71.5602C247.243 71.4943 247.307 71.4332 247.382 71.3767C247.458 71.3203 247.538 71.2756 247.623 71.2427C247.708 71.2098 247.788 71.1933 247.864 71.1933H251.488C251.648 71.1933 251.785 71.2427 251.898 71.3415C252.012 71.4402 252.096 71.5272 252.153 71.6025L252.507 72.4067L259.939 91.5107C260.015 91.6988 260.001 91.8517 259.897 91.9692C259.793 92.0868 259.614 92.1456 259.359 92.1456H255.296C255.079 92.1456 254.911 92.1056 254.793 92.0257C254.675 91.9457 254.583 91.8117 254.517 91.6236C254.329 91.1439 254.144 90.6665 253.965 90.1915C253.786 89.7165 253.607 89.2391 253.427 88.7594H245.91C245.731 89.2391 245.549 89.7165 245.365 90.1915C245.181 90.6665 244.999 91.1439 244.82 91.6236C244.697 91.9716 244.457 92.1456 244.098 92.1456H239.922C239.742 92.1456 239.594 92.0986 239.476 92.0045C239.358 91.9105 239.337 91.7694 239.412 91.5812L247.099 71.7436ZM249.686 77.7824C249.506 78.2621 249.325 78.7794 249.141 79.3344C248.957 79.8894 248.775 80.449 248.596 81.0134C248.416 81.5778 248.235 82.1351 248.05 82.6853C247.866 83.2356 247.685 83.7506 247.505 84.2303H251.852L249.686 77.7824ZM270.068 78.9252L273.494 71.6307C273.55 71.5178 273.598 71.4355 273.635 71.3838C273.673 71.3321 273.711 71.2944 273.749 71.2709C273.786 71.2474 273.826 71.2333 273.869 71.2286C273.911 71.2239 273.961 71.2121 274.017 71.1933H279.468C279.534 71.1933 279.588 71.2145 279.631 71.2568C279.673 71.2991 279.694 71.3485 279.694 71.405C279.694 71.5084 279.628 71.626 279.496 71.7577L272.786 83.5954V91.4825C272.786 91.9246 272.569 92.1456 272.135 92.1456H267.888C267.699 92.1456 267.553 92.0868 267.449 91.9692C267.345 91.8517 267.293 91.6894 267.293 91.4825V83.5672L260.597 71.7577C260.474 71.6354 260.413 71.5178 260.413 71.405C260.413 71.3485 260.432 71.2991 260.47 71.2568C260.507 71.2145 260.559 71.1933 260.625 71.1933H266.076C266.142 71.2121 266.194 71.2239 266.231 71.2286C266.269 71.2333 266.307 71.2474 266.345 71.2709C266.382 71.2944 266.42 71.3321 266.458 71.3838C266.496 71.4355 266.547 71.5178 266.614 71.6307L270.068 78.9252ZM91.0966 93.1552C91.0427 92.929 90.982 92.6318 90.9145 92.2637C90.9074 92.2247 90.9038 92.1852 90.9038 92.1456C90.9038 91.7838 91.1972 91.4904 91.559 91.4904L95.5795 91.4904C95.8809 91.4904 96.1435 91.6961 96.2157 91.9887C96.3188 92.407 96.4094 92.7353 96.4873 92.9735C96.6981 93.6175 96.9605 94.2502 97.2753 94.8656C97.8928 96.0725 98.6986 97.1826 99.6788 98.1638L108.944 107.438L118.209 98.1638C123.327 93.0399 123.327 84.7313 118.209 79.6074C117.397 78.7946 116.496 78.1014 115.525 77.5357C114.697 77.0538 113.823 76.6676 112.919 76.3804C112.71 76.3142 112.425 76.2366 112.063 76.1476C111.77 76.0755 111.565 75.8129 111.565 75.5113V71.4923C111.565 71.4522 111.568 71.4121 111.576 71.3727C111.642 71.0169 111.984 70.782 112.339 70.8481C112.756 70.9255 113.09 70.995 113.341 71.0567C115.023 71.471 116.648 72.1242 118.162 73.0061C119.524 73.799 120.785 74.7693 121.917 75.9029C129.08 83.0734 129.08 94.6978 121.917 101.868L110.798 112.999C109.774 114.023 108.113 114.023 107.09 112.999L95.9705 101.868C94.6031 100.499 93.4744 98.9445 92.6089 97.2528C91.9339 95.9334 91.4309 94.5575 91.0966 93.1552ZM96.2242 85.7513C96.1517 86.0436 95.8894 86.2488 95.5882 86.2488H91.5669C91.527 86.2488 91.4872 86.2452 91.4479 86.2379C91.0921 86.1722 90.8569 85.8304 90.9226 85.4746C90.991 85.1046 91.0523 84.8066 91.1065 84.5806C91.8837 81.3433 93.5378 78.3381 95.9705 75.9029C98.4904 73.3805 101.621 71.6941 104.989 70.9531C105.138 70.9204 105.325 70.8835 105.551 70.8426C105.59 70.8356 105.629 70.8321 105.668 70.8321C106.03 70.8321 106.323 71.1254 106.323 71.4872V75.5108C106.323 75.8124 106.117 76.075 105.824 76.147C105.456 76.2376 105.167 76.3166 104.955 76.3841C102.996 77.009 101.187 78.0981 99.6788 79.6074C98.1917 81.096 97.1128 82.8787 96.4842 84.8093C96.4102 85.0368 96.3235 85.3508 96.2242 85.7513ZM108.944 96.732C104.601 96.732 101.081 93.2119 101.081 88.8696C101.081 84.5273 104.601 81.0072 108.944 81.0072C113.286 81.0072 116.806 84.5273 116.806 88.8696C116.806 93.2119 113.286 96.732 108.944 96.732ZM108.944 91.4904C110.391 91.4904 111.565 90.317 111.565 88.8696C111.565 87.4222 110.391 86.2488 108.944 86.2488C107.496 86.2488 106.323 87.4222 106.323 88.8696C106.323 90.317 107.496 91.4904 108.944 91.4904ZM85.6771 84.9722C85.6474 85.1503 85.613 85.3864 85.5736 85.6805C85.5301 86.0059 85.2525 86.2488 84.9242 86.2488H80.9609C80.9365 86.2488 80.9121 86.2475 80.8879 86.2447C80.5283 86.2044 80.2695 85.8801 80.3098 85.5205C80.3355 85.292 80.3584 85.1032 80.3787 84.9541C82.1057 72.2355 92.1275 62.153 104.817 60.334C105.015 60.3056 105.274 60.2732 105.594 60.237C105.618 60.2342 105.643 60.2328 105.668 60.2328C106.03 60.2328 106.323 60.5261 106.323 60.888V64.8512C106.323 65.179 106.081 65.4564 105.756 65.5004C105.379 65.5514 105.081 65.5962 104.86 65.6347C95.0439 67.3481 87.3136 75.13 85.6771 84.9722ZM143.104 108.915C142.971 108.833 142.904 108.725 142.904 108.592C142.904 108.51 142.932 108.418 142.989 108.316L143.895 106.688C143.977 106.545 144.092 106.473 144.24 106.473C144.312 106.473 144.396 106.493 144.493 106.534C145 106.765 145.489 106.945 145.96 107.076C146.431 107.206 146.927 107.272 147.45 107.272C147.839 107.272 148.167 107.196 148.436 107.045C148.705 106.894 148.839 106.691 148.839 106.435C148.839 106.245 148.764 106.084 148.613 105.951C148.462 105.818 148.247 105.698 147.968 105.59C147.689 105.483 147.296 105.355 146.789 105.206C145.996 104.971 145.351 104.719 144.854 104.45C144.358 104.181 143.978 103.839 143.714 103.425C143.451 103.01 143.319 102.488 143.319 101.858C143.319 101.142 143.508 100.525 143.887 100.008C144.266 99.491 144.77 99.1007 145.4 98.8371C146.029 98.5735 146.712 98.4417 147.45 98.4417C147.915 98.4417 148.385 98.4954 148.859 98.6029C149.332 98.7104 149.763 98.8461 150.152 99.0099C150.541 99.1737 150.859 99.3375 151.104 99.5013C151.258 99.6036 151.335 99.7188 151.335 99.8468C151.335 99.9236 151.301 100.021 151.235 100.139L150.321 101.797C150.25 101.93 150.145 101.997 150.006 101.997C149.914 101.997 149.802 101.963 149.669 101.897C149.239 101.677 148.843 101.509 148.482 101.394C148.121 101.279 147.713 101.221 147.258 101.221C146.935 101.221 146.656 101.29 146.421 101.428C146.185 101.567 146.068 101.741 146.068 101.951C146.068 102.176 146.219 102.369 146.521 102.53C146.823 102.692 147.309 102.869 147.979 103.064C148.809 103.31 149.479 103.557 149.991 103.805C150.503 104.053 150.915 104.391 151.227 104.818C151.539 105.246 151.696 105.8 151.696 106.481C151.696 107.202 151.504 107.833 151.12 108.373C150.736 108.913 150.214 109.327 149.553 109.613C148.893 109.9 148.164 110.043 147.365 110.043C146.618 110.043 145.87 109.946 145.123 109.752C144.376 109.557 143.703 109.278 143.104 108.915ZM167.053 109.398C167.078 109.465 167.091 109.524 167.091 109.575C167.091 109.657 167.062 109.723 167.003 109.775C166.944 109.826 166.861 109.851 166.753 109.851H164.573C164.465 109.851 164.367 109.817 164.277 109.748C164.188 109.679 164.122 109.59 164.081 109.483L163.575 108.009H159.682L159.183 109.475C159.152 109.583 159.091 109.671 158.999 109.74C158.906 109.809 158.801 109.844 158.684 109.844H156.511C156.403 109.844 156.32 109.819 156.261 109.771C156.202 109.722 156.173 109.654 156.173 109.567C156.173 109.516 156.186 109.457 156.211 109.391L160.311 98.9868C160.363 98.8691 160.436 98.777 160.53 98.7104C160.625 98.6439 160.726 98.6106 160.834 98.6106H162.454C162.561 98.6106 162.662 98.6451 162.757 98.7143C162.852 98.7834 162.919 98.8742 162.96 98.9868L167.053 109.398ZM162.784 105.69L161.624 102.288L160.465 105.69H162.784ZM172.352 99.0252C172.352 98.8921 172.388 98.791 172.459 98.7219C172.531 98.6528 172.631 98.6183 172.759 98.6183H179.715C179.848 98.6183 179.951 98.6541 180.022 98.7258C180.094 98.7974 180.13 98.8972 180.13 99.0252V100.822C180.13 100.95 180.094 101.05 180.022 101.121C179.951 101.193 179.848 101.229 179.715 101.229H175.147V103.724H178.694C178.827 103.724 178.929 103.76 179.001 103.832C179.073 103.903 179.109 104.003 179.109 104.131V105.59C179.109 105.718 179.073 105.818 179.001 105.889C178.929 105.961 178.827 105.997 178.694 105.997H175.147V109.429C175.147 109.557 175.111 109.657 175.039 109.729C174.968 109.8 174.868 109.836 174.74 109.836H172.759C172.631 109.836 172.531 109.8 172.459 109.729C172.388 109.657 172.352 109.557 172.352 109.429V99.0252ZM185.613 99.0252C185.613 98.8972 185.649 98.7974 185.721 98.7258C185.792 98.6541 185.892 98.6183 186.02 98.6183H193.245C193.373 98.6183 193.473 98.6541 193.545 98.7258C193.616 98.7974 193.652 98.8972 193.652 99.0252V100.791C193.652 100.919 193.617 101.019 193.548 101.091C193.479 101.162 193.378 101.198 193.245 101.198H188.369V103.056H192.07C192.209 103.056 192.317 103.093 192.397 103.168C192.476 103.242 192.516 103.345 192.516 103.479V104.937C192.516 105.065 192.476 105.165 192.397 105.237C192.317 105.308 192.209 105.344 192.07 105.344H188.369V107.256H193.245C193.419 107.256 193.556 107.304 193.656 107.398C193.756 107.493 193.806 107.62 193.806 107.778V109.437C193.806 109.56 193.768 109.657 193.694 109.729C193.62 109.8 193.519 109.836 193.391 109.836H186.02C185.892 109.836 185.792 109.801 185.721 109.732C185.649 109.663 185.613 109.565 185.613 109.437V99.0252ZM198.966 99.0252C198.966 98.8972 199.002 98.7974 199.074 98.7258C199.145 98.6541 199.245 98.6183 199.373 98.6183H206.867C206.995 98.6183 207.095 98.6541 207.167 98.7258C207.238 98.7974 207.274 98.8972 207.274 99.0252V100.876C207.274 101.004 207.238 101.105 207.167 101.179C207.095 101.253 206.995 101.29 206.867 101.29H204.51V109.529C204.51 109.662 204.474 109.763 204.402 109.832C204.331 109.901 204.228 109.936 204.095 109.936H202.13C202.002 109.936 201.902 109.9 201.83 109.828C201.759 109.757 201.723 109.657 201.723 109.529V101.29H199.373C199.245 101.29 199.145 101.253 199.074 101.179C199.002 101.105 198.966 101.004 198.966 100.876V99.0252ZM221.748 98.6183C221.974 98.6183 222.086 98.7053 222.086 98.8793C222.086 98.9408 222.071 99.0099 222.04 99.0866L218.378 105.552V109.437C218.378 109.565 218.344 109.665 218.278 109.736C218.211 109.808 218.114 109.844 217.986 109.844H216.005C215.877 109.844 215.777 109.808 215.706 109.736C215.634 109.665 215.598 109.565 215.598 109.437V105.536L211.943 99.0866C211.908 98.9945 211.89 98.9254 211.89 98.8793C211.89 98.7974 211.919 98.7334 211.978 98.6874C212.037 98.6413 212.12 98.6183 212.227 98.6183H214.539C214.636 98.6183 214.729 98.6515 214.819 98.7181C214.908 98.7846 214.981 98.8742 215.038 98.9868L216.988 102.672L218.938 98.9791C218.994 98.8665 219.067 98.7782 219.157 98.7143C219.247 98.6503 219.343 98.6183 219.445 98.6183H221.748Z" fill="white"/>
</svg>
