<svg width="360" height="174" viewBox="0 0 360 174" fill="none" xmlns="http://www.w3.org/2000/svg">
<path d="M124.813 67.4351C124.374 66.9032 123.912 66.3713 123.45 65.8856C119.732 62.1623 115.182 60.2891 109.893 60.2891C104.673 60.2891 100.124 62.1854 96.4052 65.8856C92.6868 69.609 90.793 74.1649 90.793 79.4608C90.793 84.6874 92.6868 89.2433 96.4052 92.9666C100.124 96.6899 104.673 98.5863 109.893 98.5863C115.182 98.5863 119.732 96.6899 123.45 92.9435C123.935 92.4578 124.374 91.9259 124.813 91.394V97.615H128.577V63.2955H124.813V67.4351ZM109.893 94.6317C105.713 94.6317 102.11 93.1285 99.1536 90.1914C96.1974 87.2544 94.6961 83.6236 94.6961 79.4608C94.6961 75.2749 96.1974 71.6441 99.1536 68.6839C102.11 65.7238 105.713 64.2205 109.893 64.2205C114.073 64.2205 117.676 65.7238 120.656 68.7071C122.873 70.9272 124.282 73.5405 124.813 76.4081V82.4441C124.259 85.358 122.85 87.9713 120.656 90.1683C117.699 93.1285 114.073 94.6317 109.893 94.6317Z" fill="white"/>
<path d="M147.378 90.839L135.506 63.2955H131.188L146.269 97.43L146.338 97.615H148.394L163.729 63.2955H159.387L147.378 90.839Z" fill="white"/>
<path d="M198.858 92.9666C202.576 89.2433 204.447 84.6874 204.447 79.4608C204.447 74.1649 202.576 69.609 198.858 65.8856C195.139 62.1623 190.589 60.2891 185.347 60.2891C180.081 60.2891 175.554 62.1854 171.836 65.8856C171.351 66.3713 170.889 66.8801 170.473 67.3889V52.4724H166.708V97.6381H170.473V91.4634C170.889 91.9722 171.351 92.481 171.836 92.9666C175.554 96.7131 180.104 98.6094 185.347 98.6094C190.613 98.5863 195.162 96.69 198.858 92.9666ZM170.473 82.6754V76.2925C171.027 73.4248 172.413 70.8578 174.607 68.6839C177.587 65.7238 181.189 64.1974 185.37 64.1974C189.55 64.1974 193.153 65.7006 196.109 68.6608C199.066 71.6441 200.567 75.2518 200.567 79.4377C200.567 83.6236 199.066 87.2313 196.109 90.1683C193.13 93.1285 189.527 94.6317 185.347 94.6317C181.166 94.6317 177.563 93.1285 174.584 90.1452C172.413 87.9944 171.027 85.4505 170.473 82.6754Z" fill="white"/>
<path d="M213.916 56.3113C214.678 56.3113 215.44 56.4963 216.133 56.8894L266.897 85.4042C268.329 86.2137 269.207 87.74 269.207 89.382C269.207 91.0239 268.283 92.5272 266.851 93.3135L216.087 120.973C215.394 121.343 214.655 121.528 213.916 121.528C213.108 121.528 212.322 121.319 211.606 120.903C210.244 120.094 209.389 118.614 209.389 117.018V60.844C209.389 59.2483 210.244 57.7451 211.629 56.9357C212.322 56.5194 213.131 56.3113 213.916 56.3113ZM248.375 80.7558C247.797 80.7558 247.197 80.8483 246.642 81.0334C246.065 81.2184 245.557 81.4959 245.118 81.889C244.656 82.2591 244.31 82.7447 244.033 83.346C243.779 83.9473 243.64 84.6411 243.64 85.4274C243.64 86.1905 243.756 86.8149 243.963 87.3237C244.194 87.8094 244.471 88.2488 244.818 88.5725C245.164 88.9194 245.58 89.197 246.019 89.4051C246.458 89.6132 246.92 89.8214 247.405 89.9833C247.89 90.1451 248.352 90.3302 248.79 90.492C249.229 90.677 249.622 90.8852 249.991 91.1396C250.361 91.394 250.638 91.7177 250.846 92.0878C251.054 92.4809 251.169 92.9434 251.169 93.5216C251.169 93.9841 251.077 94.4235 250.892 94.7935C250.684 95.1636 250.453 95.4873 250.153 95.7417C249.853 95.9961 249.529 96.1811 249.16 96.3199C248.79 96.4586 248.421 96.528 248.051 96.528C247.266 96.528 246.596 96.343 246.042 95.973C245.488 95.603 245.049 95.1173 244.726 94.516L243.363 95.603C243.917 96.4818 244.61 97.1062 245.418 97.4762C246.227 97.8693 247.081 98.0544 247.982 98.0544C248.559 98.0544 249.137 97.9387 249.714 97.7306C250.292 97.5225 250.8 97.1987 251.262 96.8055C251.724 96.4124 252.093 95.9036 252.37 95.3023C252.647 94.701 252.786 94.0304 252.786 93.2903C252.786 92.2959 252.601 91.5096 252.232 90.9314C251.862 90.3533 251.4 89.8908 250.846 89.5439C250.292 89.197 249.691 88.9194 249.044 88.7113C248.398 88.5032 247.797 88.2488 247.243 87.9944C246.689 87.7169 246.227 87.3931 245.857 86.9768C245.488 86.5606 245.303 85.9824 245.303 85.2424C245.303 84.7336 245.395 84.271 245.58 83.901C245.765 83.531 245.996 83.2072 246.296 82.976C246.573 82.7447 246.92 82.5597 247.289 82.4441C247.659 82.3284 248.028 82.2591 248.421 82.2591C249.668 82.2591 250.615 82.791 251.262 83.8548L252.509 82.7447C251.931 82.0047 251.308 81.4959 250.638 81.1952C249.945 80.8946 249.206 80.7558 248.375 80.7558ZM220.683 81.1259H219.228L212.854 97.615H214.586L216.225 93.2903H223.708L225.325 97.615H227.057L220.683 81.1259ZM233.663 81.1259H228.813V97.615H233.663C234.587 97.615 235.487 97.4531 236.411 97.1062C237.312 96.7593 238.143 96.2505 238.882 95.5567C239.598 94.8629 240.199 94.0072 240.661 92.9897C241.123 91.9721 241.354 90.7696 241.354 89.382C241.354 88.0175 241.123 86.8149 240.661 85.7743C240.222 84.7336 239.621 83.8779 238.882 83.1841C238.143 82.4903 237.335 81.9815 236.411 81.6346C235.487 81.2877 234.563 81.1259 233.663 81.1259ZM233.178 82.6753C234.309 82.6753 235.256 82.8835 236.088 83.2535C236.919 83.6235 237.612 84.1092 238.143 84.7567C238.674 85.4042 239.09 86.098 239.344 86.9075C239.598 87.6937 239.737 88.5263 239.737 89.382C239.737 90.2376 239.598 91.0471 239.344 91.8565C239.09 92.6659 238.698 93.3828 238.143 94.0072C237.589 94.6317 236.896 95.1404 236.088 95.5105C235.256 95.9036 234.286 96.0886 233.178 96.0886H230.291V82.6753H233.178ZM219.944 83.0685L223.108 91.7409H216.757L219.944 83.0685Z" fill="white"/>
<path d="M96.2206 120.649H94.396V102.425H96.2206V120.649Z" fill="white"/>
<path d="M114.097 117.851H114.143V102.402H115.967V120.626H113.681L102.964 105.039H102.918V120.649H101.094V102.425H103.38L114.097 117.851Z" fill="white"/>
<path d="M136.43 105.409C135.645 104.229 134.467 103.628 132.943 103.628C132.458 103.628 131.996 103.697 131.534 103.813C131.072 103.929 130.656 104.137 130.31 104.414C129.94 104.692 129.663 105.015 129.432 105.455C129.201 105.871 129.109 106.38 129.109 106.935C129.109 107.767 129.34 108.392 129.802 108.854C130.263 109.317 130.818 109.687 131.511 109.964C132.18 110.265 132.919 110.52 133.728 110.751C134.536 110.982 135.275 111.283 135.945 111.676C136.615 112.069 137.192 112.578 137.654 113.202C138.116 113.827 138.347 114.705 138.347 115.792C138.347 116.625 138.162 117.365 137.816 118.012C137.469 118.683 137.007 119.238 136.453 119.678C135.876 120.117 135.252 120.464 134.536 120.718C133.843 120.95 133.127 121.088 132.411 121.088C131.303 121.088 130.263 120.88 129.27 120.464C128.277 120.048 127.446 119.354 126.753 118.382L128.439 117.18C128.832 117.851 129.363 118.382 130.056 118.799C130.748 119.192 131.557 119.4 132.504 119.4C132.966 119.4 133.404 119.331 133.866 119.192C134.328 119.053 134.721 118.822 135.09 118.544C135.46 118.267 135.76 117.92 135.991 117.504C136.222 117.087 136.338 116.625 136.338 116.093C136.338 115.469 136.199 114.937 135.945 114.52C135.691 114.104 135.345 113.757 134.906 113.457C134.467 113.179 133.982 112.948 133.428 112.74C132.873 112.555 132.319 112.37 131.718 112.161C131.141 111.976 130.564 111.768 130.009 111.514C129.455 111.283 128.97 110.959 128.531 110.589C128.092 110.219 127.746 109.756 127.492 109.201C127.238 108.646 127.099 107.952 127.099 107.097C127.099 106.218 127.261 105.455 127.584 104.807C127.908 104.16 128.347 103.605 128.901 103.188C129.455 102.749 130.079 102.448 130.772 102.24C131.464 102.032 132.18 101.94 132.896 101.94C133.913 101.94 134.836 102.102 135.668 102.425C136.499 102.749 137.261 103.327 137.977 104.16L136.43 105.409Z" fill="white"/>
<path d="M147.816 120.649H145.991V104.114H139.963V102.425H153.844V104.114H147.816V120.649Z" fill="white"/>
<path d="M174.168 111.514C174.168 112.902 173.937 114.173 173.452 115.353C172.967 116.509 172.321 117.527 171.489 118.382C170.658 119.238 169.665 119.909 168.51 120.371C167.355 120.857 166.131 121.088 164.791 121.088C163.452 121.088 162.205 120.857 161.073 120.371C159.918 119.886 158.948 119.215 158.094 118.382C157.239 117.55 156.592 116.532 156.131 115.353C155.646 114.197 155.415 112.902 155.415 111.514C155.415 110.126 155.646 108.854 156.131 107.675C156.616 106.519 157.262 105.501 158.094 104.645C158.925 103.79 159.918 103.119 161.073 102.657C162.228 102.171 163.452 101.94 164.791 101.94C166.131 101.94 167.378 102.171 168.51 102.657C169.665 103.142 170.635 103.813 171.489 104.645C172.344 105.478 172.99 106.496 173.452 107.675C173.937 108.854 174.168 110.126 174.168 111.514ZM172.205 111.514C172.205 110.473 172.043 109.456 171.697 108.508C171.351 107.559 170.866 106.727 170.242 105.987C169.618 105.247 168.833 104.692 167.909 104.252C166.985 103.813 165.969 103.605 164.814 103.605C163.66 103.605 162.62 103.813 161.72 104.252C160.796 104.692 160.034 105.247 159.387 105.987C158.74 106.704 158.255 107.536 157.932 108.508C157.586 109.456 157.424 110.45 157.424 111.514C157.424 112.555 157.586 113.572 157.932 114.52C158.278 115.469 158.763 116.301 159.387 117.041C160.034 117.758 160.796 118.336 161.72 118.776C162.643 119.215 163.66 119.423 164.814 119.423C165.969 119.423 167.009 119.215 167.909 118.776C168.833 118.336 169.595 117.781 170.242 117.041C170.889 116.301 171.374 115.492 171.697 114.52C172.02 113.572 172.205 112.578 172.205 111.514Z" fill="white"/>
<path d="M179.665 120.649H177.84V102.425H183.383C185.208 102.425 186.663 102.818 187.725 103.628C188.788 104.437 189.319 105.663 189.319 107.282C189.319 108.554 188.926 109.618 188.141 110.496C187.356 111.375 186.224 111.861 184.723 112L189.896 120.649H187.656L182.737 112.185H179.688V120.649H179.665ZM179.665 110.473H182.921C183.73 110.473 184.423 110.381 185 110.219C185.577 110.057 186.016 109.826 186.363 109.525C186.709 109.248 186.94 108.901 187.102 108.531C187.263 108.138 187.333 107.721 187.333 107.282C187.333 106.842 187.263 106.449 187.102 106.056C186.94 105.663 186.709 105.339 186.363 105.039C186.016 104.738 185.577 104.53 185 104.345C184.423 104.183 183.753 104.09 182.921 104.09H179.665V110.473Z" fill="white"/>
<path d="M194.747 118.937H204.378V120.626H192.899V102.402H204.055V104.09H194.747V110.288H203.454V111.976H194.747V118.937Z" fill="white"/>
</svg>
