<svg width="360" height="174" viewBox="0 0 360 174" fill="none" xmlns="http://www.w3.org/2000/svg">
<path fill-rule="evenodd" clip-rule="evenodd" d="M187.341 80.9172L187.321 80.8966C185.181 79.4823 184.09 74.9609 184.056 74.6143C184.037 74.4503 183.998 74.4111 183.998 74.4111L183.994 74.4503C183.805 75.0193 183.31 77.2958 182.974 78.8017C182.82 79.5015 182.708 80.0187 182.688 80.1096L182.655 80.2552C182.626 80.3468 182.616 80.4037 182.573 80.4037C182.523 80.4037 182.504 80.3653 182.432 80.1096C182.349 79.868 181.912 78.1966 181.563 76.8355C181.326 75.8971 181.111 75.0917 181.083 74.9808C181.039 74.8419 181.01 74.8153 181.01 74.7968C180.992 74.8153 180.972 74.8419 180.972 74.8419L180.714 75.6798C180.201 77.332 179.559 79.4091 177.983 80.4576C177.595 80.7525 177.542 80.7237 177.502 80.714C177.449 80.6601 177.502 80.5493 177.634 80.3653C179.822 75.9909 180.787 68.437 180.143 65.1141C180.107 64.925 180.107 64.854 180.161 64.854C180.215 64.8201 180.273 64.8925 180.365 65.0757L180.419 65.1481C181.452 66.6548 182.93 71.6543 182.93 71.6927C182.955 71.7843 182.985 71.8176 182.985 71.8176C183.004 71.8035 183.033 71.7259 183.043 71.6927C183.576 69.8181 185.143 65.791 185.745 64.9457C185.967 64.6464 186.031 64.5984 186.084 64.6169C186.143 64.6464 186.123 64.744 186.095 64.9109L186.069 65.0026C185.827 66.7139 185.599 74.6483 187.545 80.7237C187.637 80.9549 187.617 81.0273 187.573 81.0458C187.505 81.0798 187.433 81.0089 187.341 80.9172ZM175.344 74.502L175.276 74.5212C174.975 74.6483 174.956 74.9084 174.936 75.1264V75.204C174.457 79.2806 172.851 80.5877 172.37 80.8966C172.24 80.969 172.147 80.9897 172.094 80.9357C172.055 80.9172 172.051 80.8773 172.051 80.8241C172.051 80.7237 172.075 80.6601 172.094 80.6209C172.666 78.9318 172.871 73.8215 172.871 70.1661C172.871 68.5678 172.831 67.2437 172.778 66.5824C172.758 66.4375 172.749 66.326 172.749 66.2159C172.749 65.6986 172.903 65.607 173.239 65.4947L173.277 65.4806C173.579 65.3705 173.904 65.259 174.049 64.9841C174.335 64.1196 175.16 63.8048 175.62 63.8048C176.275 63.8048 178.741 64.6893 178.741 69.0274C178.741 71.8035 177.542 73.7491 175.344 74.502ZM179.977 60.0955C173.904 60.0955 168.966 66.0659 168.966 73.4018C168.966 80.7237 173.904 86.7074 179.977 86.7074C186.051 86.7074 190.979 80.7237 190.979 73.4018C190.979 66.0659 186.051 60.0955 179.977 60.0955Z" fill="white"/>
<path fill-rule="evenodd" clip-rule="evenodd" d="M175.397 64.3943C174.898 64.4342 174.844 65.0032 174.844 65.5152C174.844 66.1581 174.79 71.51 174.723 72.7595C174.699 73.3625 174.762 73.6964 174.947 73.8028C175.14 73.9336 175.445 73.7881 175.765 73.6203C176.45 73.2716 176.58 72.6827 176.808 69.0649C176.993 66.1248 176.304 65.0379 175.989 64.7083C175.804 64.5066 175.601 64.3943 175.397 64.3943Z" fill="white"/>
<path fill-rule="evenodd" clip-rule="evenodd" d="M161.498 102.029L160.916 102.2L160.096 99.4425L160.674 99.2578L161.498 102.029ZM161.91 98.9053L162.521 98.742L164.117 100.413L163.617 98.4664L164.176 98.3349L164.864 101.132L164.292 101.276L162.667 99.5866L163.176 101.553L162.624 101.701L161.91 98.9053ZM167.533 97.6403L167.644 98.1191L166.785 98.3023L167.256 100.635L166.664 100.745L166.182 98.4139L165.336 98.5787L165.241 98.0991L167.533 97.6403ZM170.802 97.6403L169.303 97.8634L169.396 98.4664L170.772 98.2639L170.846 98.742L169.482 98.9629L169.585 99.6981L171.152 99.461L171.234 99.9738L169.085 100.288L168.647 97.4482L170.725 97.1245L170.802 97.6403ZM173.848 96.8666C173.955 96.9073 174.057 96.9597 174.14 97.0314C174.198 97.1038 174.252 97.1822 174.309 97.2738C174.343 97.3462 174.382 97.4563 174.382 97.5679C174.402 97.6942 174.382 97.8435 174.324 97.989C174.271 98.1191 174.159 98.2299 174.023 98.3023C174.14 98.3349 174.252 98.3932 174.319 98.4856C174.382 98.5787 174.416 98.7228 174.436 98.9245L174.455 99.1284C174.474 99.2578 174.493 99.3509 174.503 99.3834C174.529 99.461 174.566 99.5156 174.629 99.5334L174.639 99.6058L173.974 99.6789C173.945 99.6058 173.941 99.5688 173.921 99.5334C173.892 99.461 173.883 99.3701 173.864 99.277L173.839 99.0169C173.82 98.8336 173.771 98.7228 173.708 98.6688C173.645 98.6164 173.524 98.5787 173.349 98.5964L172.776 98.6688L172.879 99.789L172.286 99.8422L172.001 96.9797L173.383 96.8297C173.587 96.8297 173.737 96.8297 173.848 96.8666ZM172.644 97.4001L172.718 98.1908L173.368 98.1191C173.495 98.1191 173.587 98.0799 173.654 98.0467C173.757 97.989 173.81 97.8634 173.79 97.7127C173.771 97.5302 173.708 97.4186 173.587 97.3654C173.524 97.3462 173.431 97.3462 173.311 97.3462L172.644 97.4001ZM175.6 96.645L176.226 96.6309L177.453 98.5787L177.356 96.5733L177.923 96.5541L178.054 99.4233L177.453 99.461L176.2 97.4762L176.303 99.5156L175.73 99.5334L175.6 96.645ZM180.049 96.5208L180.742 96.5393L181.746 99.4233H181.082L180.897 98.8336L179.835 98.8144L179.64 99.4033H178.996L180.049 96.5208ZM180.005 98.3223H180.751L180.383 97.2014L180.005 98.3223ZM184.646 96.6841L184.618 97.1822L183.759 97.1245L183.628 99.5156L183.031 99.4757L183.149 97.1038L182.285 97.0521L182.299 96.5541L184.646 96.6841ZM185.992 99.6789L185.385 99.6257L185.641 96.7573L186.252 96.8149L185.992 99.6789ZM189.391 99.809C189.149 100.011 188.818 100.085 188.412 100.031C188.004 99.9738 187.688 99.8289 187.504 99.5688C187.247 99.2578 187.165 98.8528 187.228 98.3459C187.305 97.8043 187.49 97.4386 187.819 97.2154C188.062 97.0137 188.391 96.9597 188.799 96.9974C189.201 97.0521 189.508 97.2154 189.692 97.4563C189.944 97.7519 190.047 98.1723 189.978 98.6888C189.916 99.2009 189.72 99.5866 189.391 99.809ZM189.076 99.3302C189.241 99.1683 189.333 98.9245 189.372 98.6164C189.405 98.3023 189.382 98.0467 189.26 97.8435C189.149 97.661 188.964 97.559 188.731 97.5102C188.494 97.4762 188.299 97.559 188.135 97.6942C187.97 97.8634 187.877 98.0991 187.828 98.4139C187.79 98.7516 187.828 98.9984 187.951 99.1816C188.062 99.3701 188.246 99.4757 188.475 99.5252C188.708 99.5526 188.91 99.4757 189.076 99.3302ZM191.345 97.4563L191.972 97.5679L192.728 99.7358L193.084 97.7858L193.636 97.8775L193.116 100.707L192.52 100.597L191.754 98.3932L191.385 100.388L190.827 100.288L191.345 97.4563ZM195.742 98.3563L196.405 98.5048L196.726 101.553L196.09 101.388L196.032 100.784L195 100.524L194.679 101.06L194.057 100.91L195.742 98.3563ZM195.275 100.085L195.998 100.249L195.906 99.0752L195.275 100.085ZM198.453 99.0376L199.035 99.2009L198.361 101.48L199.753 101.887L199.608 102.383L197.642 101.814L198.453 99.0376ZM161.405 96.8297C161.274 97.0137 161.071 97.143 160.775 97.2346L160.203 97.4001L160.489 98.3932L159.912 98.5595L159.097 95.8004L160.28 95.4531C160.556 95.3807 160.794 95.3807 160.998 95.4708C161.202 95.5639 161.347 95.7664 161.44 96.0612C161.531 96.39 161.527 96.645 161.405 96.8297ZM160.659 95.9689C160.576 95.9312 160.455 95.9312 160.333 95.9504L159.819 96.1137L160.056 96.9206L160.576 96.7765C160.702 96.7388 160.785 96.6649 160.843 96.5932C160.887 96.5001 160.907 96.39 160.853 96.2452C160.814 96.096 160.751 96.0036 160.659 95.9689ZM163.399 97.5826L162.754 94.791L163.341 94.6521L163.594 95.7102L164.67 95.4708L164.423 94.3868L165.005 94.2501L165.67 97.0698L165.078 97.2014L164.782 95.9504L163.706 96.2061L163.992 97.4563L163.399 97.5826ZM167.775 96.6649L167.184 96.7573L166.644 93.9272L167.247 93.8157L167.775 96.6649ZM168.91 93.5408L169.507 93.4484L169.851 95.8004L171.283 95.5972L171.355 96.0856L169.322 96.39L168.91 93.5408ZM173.33 95.8928L172.718 95.9504L172.427 93.0812L173.034 93.0273L173.33 95.8928ZM176.763 94.3868C176.599 94.5354 176.366 94.6277 176.051 94.6469L175.453 94.6795L175.517 95.7102L174.915 95.7472L174.742 92.8595L175.977 92.7967C176.265 92.7864 176.497 92.8447 176.671 92.9903C176.855 93.1211 176.949 93.3376 176.968 93.6516C176.982 93.9997 176.919 94.2405 176.763 94.3868ZM176.226 93.376C176.153 93.3243 176.051 93.3036 175.915 93.3036L175.377 93.3376L175.425 94.1837L175.959 94.1497C176.099 94.1497 176.2 94.0913 176.265 94.0181C176.338 93.945 176.376 93.8341 176.366 93.6893C176.356 93.5408 176.303 93.4292 176.226 93.376ZM182.633 92.7346L183.501 92.7539L183.42 95.6371L182.855 95.6179L182.91 93.6716C182.91 93.6125 182.919 93.5408 182.919 93.4292C182.929 93.3376 182.929 93.2644 182.929 93.212L182.308 95.6179L181.717 95.5972L181.246 93.1543V93.6324L181.194 95.5839L180.621 95.5639L180.713 92.6763L181.581 92.6955L182.043 94.9765L182.633 92.7346ZM187.194 95.6748C186.952 95.8928 186.631 95.9689 186.215 95.9312C185.806 95.8928 185.497 95.7472 185.311 95.507C185.035 95.2174 184.923 94.811 184.977 94.293C185.025 93.7617 185.21 93.376 185.52 93.1543C185.771 92.9371 186.082 92.8595 186.49 92.8979C186.917 92.9371 187.213 93.0812 187.412 93.3243C187.674 93.6125 187.785 94.0181 187.737 94.5354C187.688 95.0482 187.504 95.4346 187.194 95.6748ZM186.859 95.2174C187.009 95.0482 187.102 94.811 187.125 94.4763C187.165 94.1689 187.116 93.9073 186.991 93.7248C186.859 93.5408 186.684 93.4396 186.457 93.4137C186.215 93.3967 186.009 93.4588 185.875 93.6125C185.699 93.7824 185.612 94.0181 185.588 94.3336C185.548 94.6617 185.598 94.9218 185.725 95.1043C185.846 95.2898 186.029 95.4095 186.277 95.4147C186.51 95.4346 186.704 95.3615 186.859 95.2174ZM191.288 93.6716C191.389 93.7248 191.477 93.8009 191.531 93.8933C191.584 93.9849 191.613 94.0758 191.642 94.1689C191.662 94.2612 191.662 94.3713 191.642 94.463C191.622 94.607 191.569 94.7378 191.477 94.8442C191.389 94.9765 191.273 95.0482 191.103 95.0866C191.215 95.1575 191.297 95.2499 191.345 95.3615C191.385 95.4531 191.389 95.6179 191.355 95.8004L191.326 96.0036C191.308 96.1351 191.297 96.2253 191.308 96.2593C191.308 96.3383 191.345 96.4092 191.389 96.4381L191.385 96.5208L190.72 96.4285C190.72 96.3509 190.7 96.2977 190.7 96.2593C190.7 96.1868 190.7 96.096 190.72 96.0036L190.755 95.7472C190.784 95.5639 190.774 95.4346 190.72 95.3615C190.663 95.3075 190.551 95.2499 190.386 95.2322L189.814 95.1391L189.629 96.2593L189.046 96.1684L189.483 93.3243L190.847 93.5201C191.049 93.5585 191.196 93.5984 191.288 93.6716ZM189.998 93.8933L189.876 94.6617L190.516 94.7519C190.643 94.791 190.744 94.791 190.812 94.7519C190.939 94.7186 191.012 94.6277 191.031 94.463C191.06 94.293 191.012 94.1689 190.92 94.0861C190.865 94.058 190.774 94.0181 190.643 93.9997L189.998 93.8933ZM195.275 94.4231C195.367 94.4969 195.445 94.5694 195.498 94.6795C195.537 94.7519 195.571 94.8442 195.591 94.9359C195.61 95.0319 195.6 95.1391 195.581 95.2499C195.547 95.3807 195.489 95.507 195.387 95.6179C195.295 95.7472 195.169 95.8004 195 95.8203C195.12 95.912 195.193 96.0036 195.232 96.1137C195.261 96.2253 195.261 96.3612 195.213 96.5733L195.179 96.7469C195.149 96.8873 195.13 96.9797 195.13 97.0137C195.13 97.0905 195.158 97.1629 195.203 97.2154L195.193 97.2738L194.547 97.1326C194.538 97.0698 194.538 97.0137 194.538 96.9797C194.538 96.9073 194.547 96.8149 194.547 96.7388L194.61 96.4625C194.65 96.2977 194.65 96.1684 194.596 96.096C194.547 96.0235 194.446 95.9607 194.281 95.9312L193.709 95.8004L193.47 96.9073L192.9 96.7942L193.485 93.9657L194.835 94.2612C195.038 94.293 195.183 94.3514 195.275 94.4231ZM193.965 94.5886L193.801 95.3423L194.437 95.4708C194.547 95.507 194.669 95.507 194.732 95.4915C194.854 95.4531 194.935 95.3615 194.955 95.2174C195 95.0319 194.974 94.9026 194.873 94.8302C194.824 94.7814 194.742 94.7519 194.61 94.7186L193.965 94.5886ZM197.216 97.7858L196.634 97.6403L197.357 94.8538L197.934 94.9942L197.216 97.7858ZM199.413 97.4762C199.385 97.6033 199.394 97.6942 199.432 97.7858C199.487 97.9159 199.627 98.026 199.855 98.0991C199.996 98.1383 200.112 98.1523 200.204 98.1523C200.383 98.1383 200.491 98.0511 200.538 97.9159C200.578 97.8043 200.549 97.7312 200.484 97.661C200.417 97.5826 200.305 97.5102 200.15 97.4186L199.874 97.2834C199.617 97.1038 199.432 96.9797 199.34 96.8666C199.191 96.6841 199.156 96.4484 199.24 96.1868C199.32 95.9312 199.467 95.7472 199.689 95.6371C199.928 95.5447 200.224 95.5447 200.578 95.6371C200.869 95.728 201.092 95.8928 201.257 96.1137C201.416 96.3176 201.451 96.5733 201.368 96.8666L200.815 96.7033C200.855 96.5393 200.815 96.39 200.703 96.2792C200.631 96.206 200.518 96.1543 200.388 96.1137C200.233 96.0612 200.106 96.0612 199.996 96.1041C199.893 96.1351 199.821 96.1868 199.783 96.2977C199.763 96.4092 199.772 96.4817 199.845 96.5733C199.893 96.6117 199.996 96.6841 200.18 96.7942L200.631 97.0521C200.815 97.1629 200.961 97.2834 201.039 97.4001C201.164 97.5679 201.174 97.7858 201.111 98.026C201.039 98.2831 200.869 98.4664 200.631 98.5787C200.388 98.6888 200.078 98.6888 199.729 98.5787C199.374 98.4664 199.107 98.3023 198.952 98.0511C198.792 97.8435 198.759 97.5826 198.851 97.293L199.413 97.4762Z" fill="white"/>
<path fill-rule="evenodd" clip-rule="evenodd" d="M179.331 44.9902C179.331 44.6762 179.578 44.4397 179.884 44.4397C180.2 44.4397 180.446 44.6762 180.446 44.9902C180.446 45.285 180.2 45.5407 179.884 45.5407C179.578 45.5407 179.331 45.285 179.331 44.9902ZM181.121 44.9902C181.121 44.3089 180.568 43.7584 179.884 43.7584C179.201 43.7584 178.656 44.3089 178.656 44.9902C178.656 45.67 179.201 46.222 179.884 46.222C180.568 46.222 181.121 45.67 181.121 44.9902Z" fill="white"/>
<path fill-rule="evenodd" clip-rule="evenodd" d="M223.136 64.2838C223.171 64.343 223.229 64.4139 223.229 64.4774V64.5247C223.2 64.5986 223.079 64.708 222.821 64.8011C222.394 64.9644 222.084 64.8203 221.86 64.7279L221.812 64.708C221.787 64.6895 221.758 64.6696 221.72 64.6696C220.479 64.1915 220.939 64.323 220.764 65.4809C220.735 65.6264 220.715 65.8104 220.686 65.9737C220.585 66.7851 220.274 68.09 220.125 68.4565L220.013 68.8429V68.9146C219.915 68.8429 219.755 68.7129 219.527 68.4757L219.285 68.22C218.208 67.0799 217.17 65.9021 217.17 64.8011C217.17 64.3755 217.32 63.9742 217.67 63.5885C217.921 63.4045 218.058 63.2006 218.058 62.9804V62.9169C218.018 62.5592 217.636 62.3568 217.339 62.2252L217.208 62.1536C216.961 62.0235 215.288 61.4198 213.885 62.0967C212.891 62.574 212.28 63.5294 212.042 64.9644V64.9843C211.892 65.959 211.615 67.9784 213.935 69.9727C213.813 70.2195 213.72 70.4405 213.683 70.6969C213.663 70.8276 213.598 71.0308 213.536 71.2525C213.464 71.489 213.386 71.7262 213.333 71.967C212.668 70.9392 211.727 69.3735 211.45 68.8429C210.621 67.3355 210.267 64.8543 211.194 63.0528C211.654 62.1735 212.372 61.5307 213.343 61.105C213.885 60.9033 214.827 60.4977 216.258 60.9521C216.768 61.1782 217.339 61.4013 217.82 61.4538C218.353 61.5307 218.945 61.3814 219.479 61.2358C219.814 61.1442 220.183 61.0518 220.357 61.0674C220.643 61.1265 221.158 61.3289 221.584 61.4915C221.914 61.623 222.175 61.7302 222.35 61.7678C222.463 61.7871 222.588 61.7871 222.749 61.7871C222.895 61.7678 223.229 61.7678 223.311 61.821H223.331C223.331 61.8602 223.292 62.0036 223.108 62.2991L223.098 62.3191C222.912 62.6656 222.821 63.0181 222.821 63.3469C222.821 63.7053 222.942 64.0474 223.136 64.2838ZM222.157 67.558C221.624 68.6988 221.371 69.6491 221.342 70.4212C221.342 70.8084 221.696 71.3449 222.005 71.4505C222.065 71.5097 222.065 71.5614 221.991 71.6013C221.943 71.6198 221.758 71.7262 221.758 71.7262C221.536 71.8562 221.084 72.0202 220.778 72.0395C220.532 72.0801 220.329 71.9863 220.125 71.8178C219.581 71.3249 219.293 70.1663 219.221 69.1178C219.682 69.5663 219.979 69.7267 220.254 69.6358C220.585 69.5427 220.643 69.2102 220.676 68.9545L220.744 68.7129C220.939 68.254 221.25 66.8974 221.371 66.0617C221.38 65.8289 221.434 65.4425 221.502 65.2976C221.521 65.3124 221.53 65.3124 221.544 65.3124L221.595 65.3508C221.657 65.3708 221.729 65.404 221.832 65.4425C221.991 65.738 222.249 66.4178 222.249 67.003C222.249 67.2055 222.21 67.3887 222.157 67.558ZM214.181 71.4365C214.255 71.1949 214.293 71.0308 214.346 70.8084C214.478 70.4028 214.672 69.9639 215.254 69.3203L215.263 69.301C215.273 69.3594 215.308 69.4858 215.308 69.4858L215.38 69.7414C215.492 70.1124 215.657 70.6244 215.767 70.8816C216.122 71.8178 215.991 71.939 217.044 71.489L217.31 71.3781C217.339 71.3449 217.358 71.3449 217.373 71.3449C217.393 71.4173 217.422 71.5274 217.422 71.5614L217.431 71.6013C217.442 71.8562 217.833 73.3621 217.926 73.7493C218.261 75.0343 217.912 74.9434 219.008 74.5022C219.755 74.1897 220.191 74.2702 220.216 74.3389C220.479 74.7779 219.173 76.8742 218.6 77.4047C218.324 77.6286 217.8 78.4924 217.597 78.9512L217.558 79.0244C217.373 79.4825 217.044 80.2554 216.592 80.8052C214.623 83.1431 212.382 82.2017 211.431 81.8212L211.349 81.782C211.533 81.332 211.634 80.8635 211.678 80.3855C212.148 80.8052 212.852 81.08 213.754 81.08C215.53 81.08 216.859 79.317 216.859 77.7579C216.859 76.1737 215.55 75.3291 214.337 75.2183C213.663 75.1451 213.129 75.3483 212.799 75.5123V75.2042C212.799 74.7054 212.881 73.8609 213.489 73.62C213.57 73.586 213.731 73.5269 213.813 73.5025C214.827 73.2328 214.793 73.2328 214.11 72.7399C214.07 72.7119 214.036 72.7023 214.007 72.6683C213.997 72.6683 213.987 72.6483 213.978 72.6483C213.958 72.6099 213.944 72.5722 213.944 72.4983C213.944 72.2227 214.11 71.673 214.181 71.4365ZM212.595 84.462L212.78 84.6106C213.168 84.8766 213.958 85.495 213.904 86.027C213.851 86.4652 213.851 88.2667 213.851 88.3073C213.851 88.5083 213.924 88.9472 214.051 89.6292C214.143 90.0497 214.221 90.493 214.255 90.711C214.293 91.1891 214.143 92.8265 213.885 93.3038C213.774 93.4864 213.556 93.541 213.434 93.5588C213.202 93.5987 212.999 93.5203 212.943 93.4694L212.861 93.3763C212.484 92.3093 212.32 92.879 211.965 93.4694L211.819 93.5588C211.431 93.8159 211.082 93.4487 210.99 93.3378C210.898 93.2314 210.859 93.1391 210.859 93.063V92.9713C211.033 91.9997 210.99 92.0928 210.233 92.511C210.184 92.5524 210.149 92.5694 210.102 92.5834H210.121C210.03 92.6418 209.694 92.7541 209.641 92.6957C209.456 92.5694 209.395 92.4785 209.395 92.1452V92.1253C209.395 91.7063 210.174 90.6911 211.004 90.1989C211.485 89.9233 212.042 89.3352 212.042 88.1558C212.042 88.0502 212.042 87.9386 212.023 87.8086C211.965 87.0741 211.431 86.3544 210.99 86.2103C210.621 86.0802 209.66 85.9339 209.088 85.897C208.845 85.877 207.585 85.6923 205.858 84.3896C204.397 83.2687 203.568 81.1384 203.383 80.4778C203.364 80.3855 203.343 80.2554 203.343 80.1098C203.343 79.2453 203.732 77.6471 203.965 77.2407C204.192 76.8173 204.325 76.2653 204.325 75.7148C204.325 75.6616 204.314 75.6032 204.314 75.5515C204.731 75.8552 205.154 76.232 205.43 76.5077C206.648 77.701 206.44 77.1498 205.799 76.2653C205.508 75.8552 205.042 75.2183 204.47 74.8362C203.965 74.4646 202.996 73.9865 201.962 73.7685C200.963 73.5468 200.152 73.2328 199.764 72.9047C199.847 72.8656 199.929 72.8124 199.987 72.7739C200.021 72.7592 200.579 72.3882 201.065 72.0395C201.244 72.2818 201.521 72.519 201.811 72.6099C202.248 72.7119 203.048 72.5567 203.403 72.0801C203.568 71.8178 203.709 71.5097 203.805 71.2525L203.956 70.92C204.12 70.7368 205.1 70.0355 205.328 69.9291C205.643 69.7799 205.561 69.7267 205.256 69.7599C204.897 69.8183 203.611 70.1663 203.383 70.5727L203.18 70.9924C203.087 71.234 202.975 71.489 202.855 71.6929C202.679 71.9101 202.175 72.0055 201.981 71.939C201.84 71.9101 201.676 71.7446 201.602 71.6198C201.705 71.5274 201.786 71.4505 201.811 71.3781C201.913 71.234 201.87 71.0308 201.715 70.9392C201.554 70.8469 201.35 70.8816 201.244 71.0501L201.249 71.0308C201.141 71.1749 200.336 71.7646 199.618 72.2042C199.12 72.5375 199.027 72.5914 198.271 72.9572L197.882 73.1404L197.697 73.2328C197.383 73.3436 196.892 73.5269 196.811 74.3729C196.757 75.0631 196.48 75.5899 196.267 75.6032C196.053 75.6239 195.743 75.4503 195.601 75.2751C195.601 75.2751 195.51 75.1843 195.461 75.0919C195.253 74.5022 195.151 74.5022 194.797 74.9611C194.68 75.0919 194.254 74.9611 194.118 74.9086C193.986 74.8503 193.793 74.7453 193.851 74.5022C194.078 73.3436 194.078 73.2712 193.211 73.5025C193.085 73.5269 192.993 73.4552 192.905 73.3104C192.842 73.1995 192.953 72.8508 193.109 72.3535L193.128 72.2966C193.259 71.8954 193.657 71.5318 194.059 71.1749C194.244 71.0116 194.487 70.79 194.671 70.6244C195.06 70.2772 195.612 70.1279 196.295 69.9107C196.922 69.7267 197.863 69.2678 198.231 68.8821C198.518 68.6057 199.672 67.7752 200.439 67.408C200.778 67.2639 200.768 67.1331 200.201 67.2823C199.449 67.5727 198.158 67.9983 197.76 68.3937C197.736 68.4373 197.679 68.4757 197.635 68.5148C196.96 66.2353 197.533 65.3708 197.921 64.7819L197.945 64.7442H198.012L198.197 64.7279C198.197 64.7279 198.527 64.708 198.823 64.6895C198.804 64.9644 198.935 65.1292 199.027 65.2407C199.406 65.5873 200.124 65.5149 200.409 65.3907C200.429 65.3907 202.31 64.5986 202.679 64.343C202.81 64.2698 202.951 64.1915 203.067 64.1198C203.107 64.5447 203.208 65.2592 203.33 65.7764C203.465 66.3986 203.752 66.6358 203.965 66.7141C204.192 66.819 204.466 66.7851 204.693 66.655L204.766 66.621C205.027 66.4718 205.58 66.2686 206.114 65.1292C206.173 65.0375 206.206 64.9459 206.264 64.8631C206.264 64.8824 206.268 64.9112 206.28 64.9644C206.309 65.0028 206.371 65.1484 206.4 65.1683L206.502 65.4232C207.279 66.969 208.7 69.8508 208.864 72.8508L208.995 74.1165C209.262 75.788 209.786 76.3045 210.174 76.671C210.267 76.7626 210.345 76.8173 210.388 76.8934C210.529 77.1106 210.82 77.8842 210.961 78.8397C210.961 78.8589 210.951 78.8589 210.951 78.8781C210.951 79.0244 210.98 79.1722 211.013 79.317C211.062 79.9798 211.024 80.7143 210.785 81.3468C210.636 81.1384 210.51 80.9359 210.398 80.7867C209.622 79.5933 208.016 78.584 209.835 81.1576C210.398 81.946 211.422 83.5251 212.595 84.462ZM214.478 93.6127C214.56 93.4487 214.642 93.2314 214.701 92.9713H222.71C222.249 93.725 220.585 96.5935 220.585 96.5935C220.585 96.5935 222.175 99.66 222.578 100.432H202.956L204.547 95.0122L204.271 94.9029C203.364 94.5696 202.423 94.2615 201.48 93.9452C202.092 93.4864 202.7 92.9905 202.738 92.9713H208.957C209.029 93.063 209.121 93.1738 209.254 93.2647C209.51 93.4487 209.937 93.3763 210.223 93.2647C210.257 93.4295 210.345 93.6127 210.471 93.762C210.839 94.2024 211.514 94.5556 212.167 94.1499C212.167 94.1499 212.343 94.0184 212.464 93.9452H212.475C212.707 94.1839 213.129 94.2851 213.536 94.2208C213.949 94.1691 214.293 93.9452 214.478 93.6127ZM201.103 104.311C194.598 102.05 186.963 100.745 180.021 100.745H179.977C173.016 100.745 165.395 102.05 158.875 104.33L156.274 95.4149C163.547 92.8073 172.142 91.2999 179.977 91.2999H180.021C187.85 91.2999 196.471 92.8073 203.732 95.4349L201.103 104.311ZM137.094 100.432C137.483 99.66 139.069 96.5935 139.069 96.5935C139.069 96.5935 137.41 93.725 136.968 92.9713H143.517C143.511 92.9905 143.502 93.0275 143.502 93.0489C143.502 93.1938 143.536 93.3378 143.614 93.4694C143.74 93.7102 143.982 93.8543 144.332 93.9075C144.647 93.9851 145.234 93.9999 145.466 93.9851H145.603C146.417 93.9659 147.305 93.9275 147.582 92.9713H157.206C157.254 92.9905 157.9 93.4694 158.545 93.9452C157.585 94.2408 156.644 94.5556 155.721 94.9029L155.445 94.9945L157.051 100.432H137.094ZM143.308 91.3539L142.688 91.3398C142.605 91.3199 142.571 91.2999 142.571 91.2807C142.503 91.1891 142.605 90.8026 142.644 90.5854C142.688 90.3829 142.726 90.1214 142.726 89.9381C142.745 89.7541 142.77 89.5169 142.818 89.296C142.929 88.7647 143.075 88.0842 143.075 87.0024C143.075 86.7268 143.065 86.412 143.042 86.0802C143.022 85.7839 143.022 85.5482 143.022 85.345C143.022 84.7421 143.094 84.5574 143.134 84.5204C143.168 84.4709 143.24 84.4709 143.372 84.4709L143.595 84.448L143.799 84.428C144.477 84.3697 146.093 84.2056 147.029 82.7374C147.689 81.6697 147.858 80.6411 147.985 78.0475C148.135 75.6032 149.997 73.6045 150.754 73.1604L151.215 72.9047C151.826 72.5722 152.563 72.0978 153.19 71.7262C153.375 71.6013 153.709 71.5097 153.893 71.0308C154.025 70.6836 154.169 70.3304 154.354 69.9107C154.596 69.3735 154.882 68.7506 155.111 67.9075C155.528 66.3454 155.295 64.8011 154.854 63.5494C154.926 63.5885 155.019 63.6077 155.101 63.6077C155.528 63.6417 155.834 63.4962 156.018 63.1636C156.203 63.3469 156.406 63.4393 156.798 63.5885C157.585 63.8833 158.565 64.1198 159.045 63.7053C159.065 63.7326 159.079 63.7718 159.108 63.805C159.395 64.1582 160.578 64.9644 162.493 66.2161C163.814 67.0998 165.181 67.9983 165.782 68.4949C166.113 68.7705 166.244 68.8961 166.244 69.2678C166.244 69.3594 166.235 69.4518 166.224 69.5663C166.175 69.8715 166.094 70.2572 166.011 70.6836C165.856 71.3781 165.782 72.1895 165.744 72.8656C165.671 73.9333 165.818 74.7261 165.818 75.1451L165.846 75.5123C165.856 75.6616 165.875 75.788 165.875 75.8973C165.875 76.1397 165.818 76.2852 165.652 76.3783C165.273 76.5808 164.395 76.8934 163.741 77.1106C163.299 77.2599 163.043 77.3522 162.901 77.4047C162.8 77.4638 162.586 77.4985 162.45 77.415C162.309 77.3323 162.276 77.0774 162.266 76.8742L162.237 76.3953C162.197 75.734 162.193 75.6963 162.698 75.5323C162.829 75.4687 162.882 75.4983 163.013 75.5323C163.198 75.5899 163.425 75.6616 163.799 75.5323C164.435 75.2951 164.6 74.9811 164.896 74.4646C165.133 74.005 165.007 73.4744 165.06 72.4658L165.099 71.7646C165.153 71.2673 165.419 70.5528 164.09 70.1279C161.83 69.4134 160.519 69.0277 160.058 68.9545C159.443 68.8429 158.73 68.568 158.608 68.4373C158.492 68.3109 158.278 68.3109 158.157 68.4373C158.027 68.568 158.027 68.789 158.157 68.9146C158.453 69.2301 159.395 69.5235 159.957 69.6158C160.244 69.6683 161.15 69.9291 163.9 70.7648C163.955 70.79 164.027 70.8084 164.085 70.8661C163.974 71.0833 163.871 71.305 163.741 71.5274C163.27 72.4459 162.106 73.9133 161.572 74.3729C160.684 75.1266 159.617 75.8064 158.404 75.8973C156.163 76.0828 154.446 77.2599 153.32 79.3709C152.889 80.1727 152.563 80.9692 152.307 81.6157C152.054 82.2793 151.826 82.829 151.604 83.1047C151.172 83.616 149.997 84.2248 149.425 83.9692C148.634 83.6359 148.207 83.6019 147.718 83.8953C147.432 84.0409 147.544 84.264 147.009 84.2056C146.825 84.1872 146.151 84.1517 146.122 84.3364C146.122 84.5204 146.592 84.7029 146.776 84.7029C147.819 84.7945 147.689 84.6645 148.043 84.4709C148.236 84.3697 148.373 84.278 148.964 84.5005C148.901 84.9586 148.474 85.2623 148.125 85.4167C147.625 85.6206 146.825 85.5283 146.307 85.4751C145.652 85.4027 144.7 85.5867 144.608 86.1179L144.555 86.3928C144.487 86.6492 144.404 87.0164 144.351 87.4421C144.278 88.0014 144.424 89.1113 144.773 89.4785C144.924 89.61 145.322 89.9381 145.714 90.2714L146.335 90.8026L146.436 90.8935C146.733 91.1344 147.029 91.3723 146.99 92.3662C146.971 93.2314 146.641 93.2846 145.588 93.3245H145.447C144.773 93.3378 144.37 93.1546 144.278 93.063C144.075 92.9373 144.404 92.4933 144.443 92.3484C144.468 92.2945 144.487 92.2176 144.496 92.1452C144.68 91.3723 145.2 91.3915 143.789 91.3915C143.628 91.3723 143.482 91.3723 143.308 91.3539ZM142.818 78.3091C142.124 76.9133 142.726 74.7601 144.443 72.5722C144.433 72.5722 144.904 71.939 144.904 71.939L145.107 71.7121C145.447 71.2865 146.02 70.3592 146.02 69.5663C146.02 69.4318 146.001 69.301 145.976 69.1813C145.865 68.8237 145.598 68.5488 145.2 68.3937C144.997 68.3449 144.913 68.2932 144.866 68.254C144.943 68.1624 145.161 68.008 145.253 67.9444L145.418 67.8336C145.68 67.6496 146.122 67.5387 146.481 67.6112L146.655 67.6644C146.85 67.722 147.121 67.7951 147.398 67.6215C147.684 67.4656 147.878 67.0998 148.043 66.3609C148.247 65.4232 148.077 64.0274 147.32 62.9169C146.747 62.0967 145.356 60.9757 144.176 61.1782C143.721 61.2506 143.139 61.5114 142.872 62.4824C142.809 62.7432 142.745 62.9464 142.745 63.2006C142.745 64.0814 143.187 65.0028 143.628 65.3508C143.657 65.3708 143.667 65.3708 143.685 65.3907C143.638 65.404 143.555 65.4232 143.555 65.4232C143.517 65.4232 143.425 65.404 143.372 65.404C142.964 65.3708 141.654 65.076 141.508 66.1053V66.1777C141.508 66.3794 141.47 66.7141 140.926 67.6496C140.66 68.1084 140.476 68.2932 140.397 68.3648C140.344 68.254 140.304 68.1084 140.291 68.008L140.243 67.8535C140.14 67.558 140.087 67.1139 140.087 66.7474C140.087 66.7141 140.097 66.6942 140.097 66.655C140.097 66.5826 140.106 66.3609 140.16 66.2501C140.203 66.1429 140.271 65.9937 140.271 65.8496C140.271 65.738 140.232 65.6264 140.106 65.5348C139.82 65.3124 139.558 65.5873 138.922 66.0129C138.389 66.3454 138.21 66.3454 137.908 66.3077C137.706 66.2892 137.41 66.1777 137.235 66.1245C137.104 66.0846 137.002 66.0617 136.929 66.0417C137.419 65.6264 138.516 64.4338 138.608 64.0082C138.646 63.9173 138.608 63.7326 138.573 63.6801C138.404 63.4045 138.118 63.0713 137.316 62.704C137.88 62.5311 138.72 62.2459 139.097 62.2068C140.261 62.0427 141.028 61.5639 141.838 61.105C142.561 60.6809 143.298 60.2605 144.404 60.0048C145.762 59.71 146.971 60.4445 148.431 62.5023C149.019 63.3277 149.148 64.343 149.148 65.2976C149.148 66.6018 148.809 67.7752 148.616 68.1624L148.533 68.3264C148.392 68.5865 148.236 68.8961 148.236 69.2102C148.236 69.5235 148.363 69.8183 148.76 70.0939C149.076 70.2964 149.221 70.4405 149.221 70.6451C149.221 70.79 149.148 70.9584 149.003 71.1949L148.513 71.9863C148.189 72.4784 147.878 72.9572 147.727 73.2712C147.699 73.3436 147.49 73.6961 147.471 73.6045C147.432 73.4744 147.398 73.3621 147.398 73.3621L147.285 72.8656C147.111 71.8178 146.941 71.6198 146.665 71.5614C146.51 71.5318 146.326 71.6013 146.214 71.8178L145.908 72.3254L145.622 72.8316L145.311 73.218L144.976 73.6784C144.099 74.8695 142.76 76.671 144.176 78.3801C145.025 79.4493 146.499 79.1145 147.267 78.8781C147.227 79.3709 147.194 79.767 147.154 80.1446C145.006 80.1254 143.401 79.5017 142.818 78.3091ZM141.305 69.1813L140.97 69.7075C140.476 70.5528 140.048 71.3781 139.752 71.967L139.625 72.2427C139.384 72.7592 139.331 72.7739 139.18 72.7399C139.18 72.6683 139.22 72.519 139.253 72.3882C139.301 72.2042 139.35 72.0055 139.35 71.7845V71.6929C139.311 71.1417 138.72 70.1855 138.054 69.1813L137.963 69.0454C137.778 68.7506 137.734 68.3264 137.734 67.9252C137.734 67.5919 137.759 67.2639 137.788 67.0222V67.003C138.147 67.0415 138.583 67.1139 139.311 66.621V66.6942C139.311 67.1523 139.423 67.722 139.538 68.09L139.578 68.22C139.66 68.5289 139.811 69.0646 140.271 69.1178C140.684 69.1769 141.062 68.8429 141.562 68.008C142.192 66.9491 142.236 66.491 142.236 66.1429V66.1053L142.265 66.0617H142.357C142.561 67.003 141.838 68.4129 141.305 69.1813ZM154.466 62.6508C154.228 62.1536 153.965 61.7302 153.747 61.4198L153.737 61.4013H153.729C153.689 61.343 153.656 61.3289 153.626 61.2706C152.307 59.6368 152.617 60.2804 152.453 61.5114C152.443 61.6038 152.427 61.6947 152.419 61.7871C152.419 61.9311 152.39 62.0967 152.36 62.2068C152.327 62.376 152.268 62.4491 152.249 62.4683C152.234 62.4824 152.142 62.4824 151.86 62.41C150.609 62.0235 150.274 61.105 150.11 60.6277L150.09 60.5893C150.056 60.4445 149.997 60.3144 149.945 60.222C149.313 58.589 149.498 59.2334 148.964 59.8216L148.974 59.8371C148.921 59.8748 148.872 59.928 148.833 59.9856L148.781 60.0381C148.707 60.1304 148.669 60.1496 148.659 60.1688C148.64 60.1688 148.634 60.1496 148.596 60.1149C148.392 59.9124 147.931 59.175 147.746 58.7346C147.718 58.623 147.689 58.479 147.689 58.329C147.689 57.9625 147.785 57.5036 147.839 57.1896L147.868 57.0255L147.882 56.9132C148.043 56.3812 148.125 56.0886 147.892 55.8617C147.689 55.6474 147.412 55.7213 146.917 55.8617L146.825 55.9053C146.694 55.9238 146.621 55.943 146.548 55.963C146.641 55.4745 146.694 54.9876 146.694 54.528C146.694 53.6827 146.471 52.9438 145.699 52.6157C145.568 52.5625 145.477 52.5041 145.403 52.4509C146.85 52.176 148.3 51.4379 149.435 50.4278L149.701 50.1329C150.06 49.7664 150.497 49.3068 150.896 49.2352C151.123 49.1768 151.409 49.2876 151.754 49.5108C151.846 49.5832 152.03 49.7465 152.157 49.8581C152.37 50.0421 152.584 50.2445 152.811 50.0221C152.851 50.0081 153.044 49.8056 152.821 49.53C152.409 49.0128 152.157 48.4135 152.239 48.2975C152.239 48.2975 152.37 48.1874 153.117 48.3174H153.083C153.679 48.463 155.333 49.216 154.427 48.463C154.611 48.4091 154.814 48.3507 155.028 48.2975L155.314 48.2399C155.46 48.2258 155.62 48.2066 155.776 48.2399C156.183 48.2975 156.478 48.3507 156.693 48.4091H157.022C157.013 48.4431 156.994 48.4822 156.979 48.5347C156.939 48.5738 156.92 48.6078 156.92 48.6655C156.867 49.0711 157.751 49.8581 157.77 49.878C157.934 50.0081 158.599 50.6502 159.282 51.3315C160.316 52.3297 161.46 53.4603 161.907 53.8275C162.513 54.3455 162.421 54.8228 162.328 54.9676C162.218 55.1509 162.014 55.3149 161.849 55.2824L161.655 55.1893C161.378 55.0585 161.019 54.8952 160.743 55.1317C160.631 55.2425 160.578 55.3925 160.578 55.5573C160.578 55.7598 160.65 55.977 160.733 56.1987C160.777 56.3302 160.796 56.4026 160.806 56.4565C160.694 56.6383 160.262 56.6479 159.986 56.4942C159.845 56.4218 159.433 56.0546 159.117 55.7937L158.545 55.3149C157.963 54.8753 157.022 54.6004 156.531 54.5095C156.44 54.4903 156.274 54.4371 156.133 54.378C156.027 54.3455 155.925 54.2967 155.834 54.2672C155.183 53.891 155.009 53.0413 154.975 52.8514C154.926 52.6689 154.814 52.5965 154.791 52.8381C154.76 53.0738 154.621 53.8275 155.271 54.8561C155.368 55.0585 155.572 55.3002 155.848 55.6297L156.144 55.9969C156.625 56.6479 157.362 57.6336 158.914 58.4974L159.864 58.991C161.62 59.8748 164.177 60.8309 165.191 63.6077C165.579 64.6356 165.632 65.8821 165.337 67.3355C164.637 66.8301 163.731 66.2353 162.839 65.6464C162.32 65.3124 161.757 64.9252 161.243 64.5787L161.583 64.4139C162.164 64.0474 162.475 63.6802 162.553 63.2745C162.678 62.6656 162.218 62.1247 161.796 61.4738C160.825 59.9124 158.507 59.56 157.022 59.3775L156.018 59.2127C154.437 58.9179 152.554 58.1841 151.419 57.1748C149.833 55.7405 150.056 53.0221 150.202 52.2093C150.239 52.0268 150.202 51.6219 150.056 52.0667C149.842 52.9438 149.095 55.9969 150.978 57.6684C152.214 58.773 154.31 59.5799 155.989 59.9124L156.939 60.0381C158.308 60.208 160.457 60.5893 161.257 61.8787C161.611 62.4299 161.951 62.8356 161.907 63.1437C161.849 63.3469 161.626 63.5885 161.223 63.8449L160.583 64.1383C160.097 63.7917 159.719 63.5117 159.617 63.3853C159.54 63.2745 159.433 63.1289 159.282 63.0181C158.195 62.1536 158.691 62.6848 158.599 63.2006C158.473 63.2944 157.963 63.3033 157.032 62.9604C156.478 62.7432 156.459 62.724 156.221 62.41C155.557 61.5307 155.684 61.8986 155.528 62.6124C155.46 62.8873 155.426 62.9605 155.169 62.9169C154.917 62.908 154.689 62.7971 154.466 62.6508ZM152.38 47.6177H152.316C152.03 47.628 151.826 47.7086 151.685 47.911C151.671 47.9458 151.671 47.965 151.641 47.9842C151.365 47.8202 150.939 47.5253 150.366 47.0465C150.163 46.8825 150.056 46.734 149.988 46.6224C150.239 46.5684 150.71 46.6083 151.593 46.9165L151.622 46.9372H151.641C151.826 46.9748 152.01 47.0081 152.186 47.028L152.38 47.6177ZM154.926 47.2844L154.908 47.3022L154.898 47.3428C154.854 47.4522 154.742 47.5638 154.596 47.6709L154.18 46.366C154.281 46.2559 154.412 46.1288 154.514 45.9987L154.519 45.9803H154.529C155.057 45.2074 155.426 44.9177 155.655 44.8054C155.655 44.8401 155.664 44.8593 155.664 44.8882C155.664 45.0086 155.649 45.1741 155.601 45.3566C155.242 46.7908 154.926 47.2844 154.926 47.2844ZM149.648 47.8933C149.067 47.396 148.76 46.8256 148.819 46.3475C148.843 46.0578 149.019 45.8155 149.313 45.6618C149.906 45.395 150.726 45.4298 151.856 45.8354C151.957 45.8687 152.122 45.9078 152.36 45.9078H152.511C152.511 45.9078 152.234 45.0433 152.176 44.8697C152.307 44.8401 152.797 44.696 152.932 44.6428C152.991 44.8054 153.268 45.6618 153.268 45.6618L153.394 45.579C153.524 45.449 153.656 45.299 153.747 45.1542C154.383 44.2564 155.028 43.7391 155.649 43.649C155.969 43.5943 156.255 43.6859 156.459 43.884C156.663 44.1256 156.783 44.4736 156.783 44.8882C156.783 45.1349 156.746 45.3766 156.682 45.633C156.406 46.6992 156.153 47.3221 156.018 47.5977C155.96 47.5785 155.907 47.5785 155.843 47.5638C155.721 47.5445 155.61 47.5445 155.499 47.5445C155.469 47.5445 155.445 47.5445 155.406 47.5638C155.479 47.4152 155.786 46.8625 156.124 45.4874C156.183 45.2746 156.221 45.0817 156.221 44.8882C156.221 44.6221 156.144 44.4005 156.032 44.2704C156.018 44.2564 155.94 44.164 155.741 44.198C155.261 44.2704 154.704 44.7677 154.077 45.6618C153.874 45.9078 153.709 46.063 153.534 46.1827C153.608 46.3852 153.965 47.4337 153.965 47.4337C153.965 47.4337 154.043 47.6561 154.106 47.8534H154.043C153.679 47.781 153.369 47.7285 153.092 47.6886C153.064 47.5977 153.054 47.5445 153.054 47.5445L152.695 46.3852H152.617C152.38 46.4044 152.122 46.366 151.788 46.3128V46.2943C150.754 45.9263 149.988 45.8532 149.518 46.0918C149.372 46.1643 149.299 46.2743 149.28 46.4044L149.26 46.448C149.26 46.7731 149.518 47.1921 149.945 47.5445C150.57 48.0559 151.021 48.3699 151.327 48.5546C151.307 48.5738 151.274 48.5923 151.264 48.5738C151.089 48.5347 150.92 48.5347 150.754 48.5738L150.59 48.6263C150.294 48.4091 149.978 48.1674 149.648 47.8933ZM170.231 89.7541C169.97 89.7741 169.658 89.8324 169.324 89.8842C168.626 89.9965 167.684 90.1406 167.349 89.865C167.296 89.8324 167.238 89.7541 167.228 89.5554C167.093 87.6061 168.301 86.2103 168.994 85.495C170.959 88.0302 173.506 89.865 176.397 90.711H176.694C175.398 90.7842 174.117 90.8935 172.798 91.0258C172.719 90.9519 172.646 90.8595 172.627 90.8595L172.575 90.8026C172.24 90.493 171.391 89.7009 170.231 89.7541ZM164.958 91.0967C165.133 91.0967 165.312 91.062 165.468 90.9519C165.681 90.8211 165.818 90.6002 165.865 90.2913C166.021 89.4061 165.264 87.7361 164.74 87.4214C165.303 85.2541 166.564 84.0409 167.462 83.2162L167.48 83.197C167.821 83.7992 168.199 84.3896 168.596 84.9394C167.849 85.6923 166.389 87.2765 166.555 89.5797C166.555 89.9233 166.686 90.1989 166.927 90.4007C167.48 90.8595 168.514 90.6911 169.436 90.5462C169.751 90.493 170.047 90.4361 170.265 90.4361C170.755 90.4007 171.411 90.8211 171.846 91.1344C169.877 91.3723 167.903 91.6657 165.947 92.0728C165.7 91.9228 165.395 91.7241 165.21 91.5024C165.118 91.3915 165.042 91.2622 164.958 91.0967ZM159.729 78.1392C160.141 78.0335 160.694 78.0475 161 78.584L161.325 79.153C161.591 79.6318 161.911 80.1527 161.941 80.3655C162.024 80.8776 160.622 82.3502 159.763 82.8098C159.559 82.9554 158.298 83.6544 158.148 83.8384C158.065 83.9692 157.88 84.264 157.88 84.6106C157.88 84.683 157.88 84.7753 157.91 84.8485C158.011 85.1817 158.278 85.4374 158.73 85.6406C159.927 86.1903 160.723 86.4652 161.349 86.5376C161.941 86.6359 162.572 86.9241 163.134 87.3881C163.522 87.7162 163.843 87.881 164.085 87.9534L164.435 88.0302C164.637 88.2327 165.21 89.3352 165.21 90.0149V90.1797C165.191 90.2521 165.153 90.3541 165.099 90.4007C164.987 90.4731 164.692 90.4154 164.435 90.3445L164.182 90.2913L163.993 90.2329L163.687 90.1989C163.086 90.1214 162.654 90.0497 162.605 89.7009C162.576 89.5369 162.562 89.3677 162.533 89.2435C162.237 88.0842 162.291 88.5807 161.776 88.7647C161.737 88.7839 161.694 88.7839 161.664 88.7928C161.398 88.8563 161.15 88.8187 160.335 88.3975C159.967 88.1943 159.7 87.9534 159.443 87.7361C159.156 87.4945 158.86 87.2293 158.473 87.0741L157.575 86.7268C157.032 86.5376 156.498 86.3403 156.061 86.1179L155.998 86.0802C155.572 85.8623 154.999 85.5674 154.917 85.1618C154.873 84.9394 154.965 84.683 155.203 84.3896C155.998 83.3411 156.144 83.3611 156.227 83.2687C156.348 83.2162 156.798 82.829 156.697 82.5054C156.604 82.2401 156.328 81.946 155.406 82.1093C154.437 82.2793 153.801 81.983 153.117 81.6896L153.024 81.6512C153.268 81.046 153.553 80.3855 153.912 79.6857C154.14 79.2653 154.393 78.8781 154.669 78.5463L154.854 78.3424C156.124 78.6564 158.658 78.3801 159.729 78.1392ZM164.324 74.1365C164.056 74.6146 163.993 74.7601 163.586 74.9086C163.421 74.9611 163.342 74.9434 163.217 74.8902C163.047 74.8362 162.829 74.7601 162.475 74.8902C161.519 75.2367 161.552 75.734 161.591 76.4493L161.611 76.9133C161.626 77.2222 161.694 77.4638 161.796 77.6471C161.83 77.718 161.941 77.8636 162.106 77.9943C162.469 78.2071 162.901 78.1599 163.178 78.0335C163.29 77.9751 163.605 77.8636 163.955 77.7387C164.415 77.5887 164.949 77.4047 165.376 77.2222C165.725 79.1337 166.336 80.9359 167.155 82.5719L167.001 82.7182C166.041 83.616 164.692 84.8766 164.085 87.2189C163.935 87.148 163.76 87.0357 163.567 86.8716C162.901 86.3403 162.164 85.9871 161.442 85.877C160.723 85.7839 159.763 85.3835 159.006 85.031C158.759 84.9246 158.599 84.7945 158.565 84.6645C158.526 84.5389 158.599 84.3697 158.71 84.2248C158.832 84.0608 159.413 83.7852 160.097 83.4187C160.787 83.0463 162.8 81.332 162.625 80.2746C162.572 79.9414 162.328 79.5017 161.922 78.802L161.611 78.25C161.213 77.5562 160.466 77.2599 159.569 77.4638C158.72 77.6471 156.697 77.8842 155.46 77.7579C156.294 77.0581 157.288 76.671 158.453 76.5808C159.821 76.4685 161.039 75.7148 162.014 74.8695C162.605 74.3729 163.824 72.8316 164.342 71.837C164.376 71.8037 164.395 71.7446 164.415 71.6929C164.415 71.7845 164.415 71.8562 164.404 71.939L164.386 72.1518C164.362 72.6298 164.527 73.7493 164.324 74.1365ZM146.879 90.3829L146.786 90.2913L146.151 89.7541C145.791 89.4652 145.385 89.1113 145.253 89.0012C145.161 88.8955 145.006 88.2874 145.006 87.7701C145.006 87.6785 145.016 87.6061 145.025 87.5337C145.069 87.148 145.152 86.7999 145.21 86.5376C145.21 86.5376 145.244 86.3743 145.264 86.2812C145.356 86.2103 145.733 86.0802 146.224 86.1364C147.009 86.2288 147.766 86.2812 148.373 86.0455C149.019 85.7839 149.482 85.2623 149.609 84.7029C150.55 84.7753 151.696 84.0409 152.122 83.5251C152.36 83.2495 152.554 82.8098 152.777 82.2793L152.851 82.2933C153.578 82.6266 154.354 82.9554 155.518 82.7714C155.63 82.7574 155.702 82.7574 155.776 82.7374C155.572 82.8638 155.295 83.1564 154.669 83.9692C154.374 84.3549 154.228 84.7029 154.228 85.0495C154.228 85.1234 154.233 85.215 154.262 85.311C154.421 86.0064 155.13 86.3928 155.664 86.6677L155.746 86.7076C156.221 86.9632 156.789 87.1664 157.347 87.3696L158.195 87.6785C158.496 87.8086 158.73 88.0014 158.996 88.2467C159.262 88.4898 159.588 88.7462 160.02 88.9864C160.834 89.4061 161.296 89.5694 161.815 89.4452H161.878C161.907 89.5553 161.922 89.7393 161.941 89.7933C162.052 90.677 162.995 90.7842 163.605 90.8787L163.871 90.9127L164.177 90.9711C164.303 91.3398 164.467 91.6657 164.692 91.9324C164.692 91.9324 164.924 92.1068 165.08 92.2376C163.124 92.6625 161.203 93.1546 159.331 93.7102L157.439 92.2945H147.674V92.2376C147.674 91.045 147.213 90.6578 146.879 90.3829ZM202.738 80.6411C202.747 80.6936 202.763 80.7335 202.772 80.7867C202.646 80.8968 202.535 80.9899 202.442 81.08C201.899 81.3217 201.084 80.7527 200.686 80.4778L200.633 80.4394C199.764 79.767 198.969 79.6318 200.245 80.8244L200.298 80.8451C200.633 81.1007 201.278 81.6157 201.943 81.734C201.463 82.699 201.962 83.5628 202.166 83.9108L202.229 84.0224C202.31 84.1872 202.432 84.2973 202.544 84.428C202.772 84.6505 202.884 84.7554 202.738 85.1234C202.516 85.6775 201.186 85.6495 200.671 85.6495H200.52C199.857 85.6495 198.416 86.0987 197.668 86.412C197.033 86.6677 196.48 87.4797 196.028 88.1558C195.907 88.3258 195.52 88.8563 195.417 88.9288C195.355 88.9672 195.287 88.9864 195.204 88.9864C195.093 88.9672 195.002 88.8563 194.986 88.7647L194.816 88.2135C194.691 87.6785 194.797 87.3696 194.128 87.8462H194.133C193.943 87.9201 193.842 87.881 193.793 87.8462C193.618 87.7554 193.443 87.5721 193.526 87.4214C193.526 87.4029 193.657 87.1273 193.657 87.1273C194.078 86.3743 193.793 86.412 193.137 86.4652C193.085 86.4852 193.025 86.4852 192.993 86.5051C192.901 86.5236 192.639 86.3544 192.527 86.0455C192.4 85.6923 192.564 85.365 193.025 85.1234C193.294 84.9793 193.599 84.867 193.914 84.7945C194.151 84.7229 194.487 84.683 194.671 84.6645C195.388 84.5921 196.111 84.6106 196.674 84.6305L197.236 84.6505C197.736 84.6505 198.639 84.5721 199.048 84.0409C199.173 83.8576 199.313 83.5812 199.192 83.1564C199.048 82.6266 198.62 82.1862 198.188 81.7236C197.902 81.4148 197.605 81.1007 197.349 80.7335C196.727 79.8497 196.698 78.5264 197.271 77.1889C197.455 76.7626 197.659 76.487 197.844 76.4153C198.012 76.3577 198.197 76.4153 198.454 76.5416L198.639 76.6177C200.336 77.1889 202.554 76.7833 203.519 76.5416C203.496 76.671 203.437 76.8017 203.373 76.9133C203.034 77.5562 202.505 79.7973 202.738 80.6411ZM189.64 90.4361C189.869 90.4361 190.165 90.493 190.48 90.5462C191.401 90.6911 192.435 90.8595 193.007 90.4007C193.23 90.1989 193.352 89.9233 193.361 89.5797C193.405 89.132 193.361 88.7071 193.284 88.3073C193.546 88.543 193.855 88.6155 194.211 88.5224C194.244 88.6155 194.263 88.7462 194.303 88.8371L194.322 88.9472C194.418 89.2768 194.715 89.5553 195.078 89.6485C195.181 89.6625 195.277 89.6625 195.369 89.6485C195.277 90.3098 195.078 91.0768 194.7 91.5024C194.612 91.614 194.219 91.8896 193.948 92.0529C192.011 91.6657 190.056 91.3539 188.098 91.1344C188.496 90.8211 189.112 90.4007 189.64 90.4361ZM191.299 84.9246C191.697 84.3549 192.066 83.7852 192.41 83.1564L192.455 83.2162C192.769 83.4904 193.109 83.8192 193.472 84.2248C193.191 84.2973 192.933 84.3896 192.696 84.5389C192.195 84.8145 191.939 85.1618 191.857 85.5091C191.653 85.2623 191.469 85.0702 191.299 84.9246ZM192.696 89.5554C192.686 89.7541 192.619 89.8324 192.564 89.865C192.24 90.1406 191.29 89.9965 190.591 89.8842C190.256 89.8324 189.946 89.7741 189.685 89.7541C188.525 89.7009 187.675 90.493 187.341 90.8026C187.269 90.8595 187.185 90.9519 187.117 91.0258C185.827 90.8787 184.537 90.7842 183.261 90.711H183.484C186.38 89.865 188.936 88.0014 190.906 85.4751C191.585 86.1711 192.823 87.5854 192.696 89.5554ZM208.719 92.2945H202.516L200.705 93.725C198.813 93.1546 196.868 92.6625 194.875 92.2376C195.002 92.1452 195.132 92.0344 195.224 91.9324C195.806 91.2467 196.033 90.0497 196.091 89.2236L196.111 89.2044L196.515 88.6155C196.911 88.0302 197.455 87.2293 197.936 87.0357C198.678 86.7076 200.021 86.3219 200.52 86.3219H200.671C201.418 86.3403 202.975 86.3403 203.364 85.3835C203.68 84.6106 203.271 84.1872 203.015 83.9492C202.941 83.8576 202.864 83.7852 202.85 83.7276L202.747 83.5628C202.485 83.1231 202.092 82.4249 202.855 81.6157C202.874 81.6157 202.903 81.5973 202.922 81.5788C202.956 81.5581 202.996 81.5056 203.015 81.4672C203.422 82.4958 204.232 84.0017 205.45 84.9246C207.27 86.3219 208.642 86.5376 209.021 86.5568C209.651 86.616 210.519 86.7608 210.766 86.8509C210.922 86.91 211.319 87.3881 211.358 87.881C211.431 88.7256 211.194 89.3145 210.654 89.6292C209.733 90.1598 208.709 91.3539 208.719 92.1452V92.2945ZM199.148 73.252H199.157C199.744 73.9133 201.074 74.2665 201.811 74.4298C202.476 74.5562 203.087 74.8155 203.548 75.0542C203.621 75.2751 203.64 75.5515 203.64 75.8064C202.951 76.0096 200.579 76.5601 198.861 75.9705L198.731 75.918C198.435 75.788 198.037 75.6239 197.596 75.788C197.218 75.9372 196.911 76.3045 196.645 76.9274C195.981 78.4732 196.033 80.0323 196.791 81.1192C197.077 81.5396 197.402 81.8721 197.697 82.1862C198.086 82.6074 198.425 82.9554 198.547 83.3411C198.587 83.5088 198.547 83.5812 198.518 83.6359C198.343 83.8384 197.844 83.9692 197.236 83.9692H196.694C196 83.9322 195.093 83.9108 194.2 84.0409C193.755 83.5088 193.304 83.0847 192.925 82.7182L192.73 82.5246C193.765 80.497 194.447 78.1599 194.724 75.6801C194.826 75.6616 194.928 75.6616 195.002 75.6032C195.049 75.6616 195.083 75.7148 195.083 75.7148C195.355 76.0281 195.859 76.3251 196.34 76.2852C196.951 76.2121 197.402 75.2751 197.494 74.4298C197.533 74.005 197.659 73.9717 197.945 73.8609L198.188 73.7493L198.557 73.566C199.1 73.3104 198.474 73.6045 199.148 73.252ZM169.63 61.5307C172.317 58.0201 175.969 56.0886 179.938 56.0886C183.892 56.0886 187.564 58.0201 190.256 61.5307C192.167 64.0082 193.453 67.1331 193.948 70.3503L193.599 70.6836C193.157 71.0648 192.667 71.5274 192.483 72.0978L192.464 72.1518C192.328 72.6099 192.225 72.9439 192.225 73.218C192.225 73.3621 192.25 73.5025 192.328 73.6584C192.545 74.0249 192.823 74.1365 193.085 74.1749C193.128 74.1749 193.177 74.3582 193.177 74.4838C193.177 74.5022 193.177 74.5215 193.166 74.5421C193.157 74.5761 193.157 74.6146 193.157 74.6486C193.157 74.9086 193.284 75.2951 193.934 75.5515C193.967 75.57 194.015 75.5899 194.059 75.5899C193.128 84.0224 187.155 90.5662 179.938 90.5662C173.107 90.5662 167.388 84.7029 166.011 76.9274C166.622 76.5416 166.539 75.8448 166.481 75.4207L166.462 75.1451C166.462 74.7453 166.336 73.9525 166.389 72.9047C166.428 72.2818 166.5 71.489 166.646 70.8276C166.742 70.388 166.816 69.9727 166.86 69.6683C166.943 68.9146 166.816 68.568 166.389 68.1624C167.054 65.738 168.145 63.4393 169.63 61.5307ZM172.811 53.0561C172.739 52.9438 172.667 52.8381 172.603 52.7797C172.627 52.6874 172.638 52.5965 172.638 52.5041C172.638 51.8236 172.075 51.2731 171.4 51.2731C171.318 51.2731 171.245 51.2923 171.153 51.2923C171.255 51.1083 171.318 50.8866 171.318 50.6687C171.318 49.878 170.672 49.2352 169.877 49.2352H169.751C169.935 48.9588 170.057 48.6263 170.057 48.279C170.057 47.4876 169.537 46.8344 168.829 46.6224C169.391 46.3475 169.774 45.7771 169.774 45.101C169.774 44.9325 169.742 44.7485 169.683 44.5837C169.955 44.7337 170.246 44.8054 170.571 44.8054C171.501 44.8054 172.258 44.1256 172.41 43.2411C172.667 43.6084 173.093 43.8699 173.588 43.8699C174.049 43.8699 174.466 43.6276 174.733 43.2803C174.826 43.8699 175.344 44.3088 175.94 44.3088C176.479 44.3088 176.921 43.9808 177.095 43.5034L177.106 43.5167L177.575 46.0918C176.562 45.4675 174.844 44.5837 173.093 44.8054C172.147 44.9325 171.42 45.395 171.042 46.0918C170.542 47.028 170.755 48.279 171.662 49.5108C172.831 51.1083 173.758 52.0268 174.326 52.4509L174.364 52.4856C173.841 52.6549 173.332 52.8381 172.811 53.0561ZM171.4 53.0561C171.1 53.0561 170.847 52.8189 170.847 52.5041C170.847 52.1916 171.1 51.944 171.4 51.944C171.706 51.944 171.962 52.1916 171.962 52.5041C171.962 52.8189 171.706 53.0561 171.4 53.0561ZM169.877 51.4231C169.456 51.4231 169.12 51.0699 169.12 50.6687C169.12 50.2445 169.456 49.8965 169.877 49.8965C170.295 49.8965 170.644 50.2445 170.644 50.6687C170.644 51.0699 170.295 51.4231 169.877 51.4231ZM168.33 49.3068C167.758 49.3068 167.277 48.8487 167.277 48.279C167.277 47.6886 167.758 47.2305 168.33 47.2305C168.912 47.2305 169.391 47.6886 169.391 48.279C169.391 48.8487 168.912 49.3068 168.33 49.3068ZM167.001 45.101C167.001 44.5305 167.471 44.0717 168.043 44.0717C168.626 44.0717 169.097 44.5305 169.097 45.101C169.097 45.6854 168.626 46.1495 168.043 46.1495C167.471 46.1495 167.001 45.6854 167.001 45.101ZM170.571 41.7736C171.225 41.7736 171.764 42.3049 171.764 42.9463C171.764 43.6084 171.225 44.1448 170.571 44.1448C169.916 44.1448 169.391 43.6084 169.391 42.9463C169.391 42.3049 169.916 41.7736 170.571 41.7736ZM173.588 41.6628C173.995 41.6628 174.345 42.0094 174.345 42.435C174.345 42.8561 173.995 43.1887 173.588 43.1887C173.166 43.1887 172.811 42.8561 172.811 42.435C172.811 42.0094 173.166 41.6628 173.588 41.6628ZM175.94 42.5177C176.247 42.5177 176.504 42.7638 176.504 43.0778C176.504 43.3911 176.247 43.6276 175.94 43.6276C175.64 43.6276 175.379 43.3911 175.379 43.0778C175.379 42.7638 175.64 42.5177 175.94 42.5177ZM178.886 41.8837C178.886 41.716 179.09 41.7005 179.23 41.7005H180.695C180.826 41.7005 181.03 41.716 181.03 41.8837C181.03 42.3618 181.408 43.0047 182.228 43.1502L180.651 51.6078H180.661C180.419 51.5871 180.201 51.5871 179.968 51.5871C179.735 51.5871 179.516 51.5871 179.293 51.6078L177.727 43.1502C178.517 42.9862 178.886 42.3618 178.886 41.8837ZM181.326 51.6396L182.209 46.9024C182.966 46.4044 184.905 45.1349 186.738 45.3766C187.462 45.4675 188.006 45.8155 188.281 46.3128C188.709 47.1005 188.496 48.1482 187.71 49.216C186.288 51.1526 185.211 52.0268 184.847 52.2292L184.833 52.2492C183.686 51.9359 182.513 51.732 181.326 51.6396ZM175.102 52.2292C174.743 52.0268 173.662 51.1526 172.234 49.216C171.449 48.1482 171.245 47.1005 171.662 46.3128C171.939 45.8155 172.482 45.4675 173.2 45.3766C175.039 45.1349 176.979 46.4044 177.741 46.9024L178.629 51.6396C177.43 51.732 176.266 51.9359 175.121 52.2492L175.102 52.2292ZM186.564 57.2996C184.537 56.0686 182.287 55.4272 179.938 55.4272C177.595 55.4272 175.368 56.0546 173.369 57.2472C173.496 56.7307 173.568 56.1987 173.565 55.6829C175.563 54.7452 177.706 54.2531 179.938 54.2531C182.19 54.2531 184.373 54.7452 186.39 55.7213C186.38 56.2386 186.438 56.7691 186.564 57.2996ZM186.458 55.0061C184.405 54.0684 182.209 53.5918 179.938 53.5918C177.697 53.5918 175.549 54.0514 173.515 54.9676C173.443 54.4903 173.322 54.0314 173.107 53.6649C175.296 52.7169 177.585 52.2684 179.968 52.2684C182.378 52.2684 184.701 52.7457 186.9 53.6975C186.676 54.0684 186.531 54.528 186.458 55.0061ZM182.839 43.5167L182.857 43.5034C183.033 43.9608 183.483 44.3088 184.018 44.3088C184.62 44.3088 185.134 43.8699 185.225 43.2803C185.499 43.6276 185.9 43.8699 186.371 43.8699C186.861 43.8699 187.296 43.6084 187.546 43.2411C187.69 44.1256 188.467 44.8054 189.393 44.8054C189.704 44.8054 190.008 44.7337 190.266 44.5837C190.222 44.7485 190.183 44.9325 190.183 45.101C190.183 45.7771 190.572 46.3475 191.125 46.6224C190.427 46.8344 189.907 47.4876 189.907 48.279C189.907 48.6263 190.019 48.9588 190.213 49.2352H190.071C189.301 49.2352 188.65 49.878 188.65 50.6687C188.65 50.8866 188.709 51.1083 188.801 51.2923C188.727 51.2923 188.641 51.2731 188.559 51.2731C187.885 51.2731 187.321 51.8236 187.321 52.5041C187.321 52.6157 187.341 52.7169 187.36 52.8189C187.307 52.8898 187.196 53.0029 187.117 53.0738C186.623 52.8514 186.103 52.6549 185.59 52.4856L185.614 52.4509C186.195 52.0268 187.117 51.1083 188.281 49.5108C189.189 48.279 189.407 47.028 188.902 46.0918C188.525 45.395 187.801 44.9325 186.84 44.8054C185.109 44.5837 183.373 45.4675 182.358 46.0918L182.839 43.5167ZM184.018 42.5177C184.324 42.5177 184.571 42.7638 184.571 43.0778C184.571 43.3911 184.324 43.6276 184.018 43.6276C183.708 43.6276 183.456 43.3911 183.456 43.0778C183.456 42.7638 183.708 42.5177 184.018 42.5177ZM186.371 41.6628C186.787 41.6628 187.137 42.0094 187.137 42.435C187.137 42.8561 186.787 43.1887 186.371 43.1887C185.958 43.1887 185.614 42.8561 185.614 42.435C185.614 42.0094 185.958 41.6628 186.371 41.6628ZM189.393 41.7736C190.048 41.7736 190.591 42.3049 190.591 42.9463C190.591 43.6084 190.048 44.1448 189.393 44.1448C188.733 44.1448 188.189 43.6084 188.189 42.9463C188.189 42.3049 188.733 41.7736 189.393 41.7736ZM191.921 44.0717C192.493 44.0717 192.953 44.5305 192.953 45.101C192.953 45.6854 192.493 46.1495 191.921 46.1495C191.338 46.1495 190.867 45.6854 190.867 45.101C190.867 44.5305 191.338 44.0717 191.921 44.0717ZM192.676 48.279C192.676 48.8487 192.218 49.3068 191.624 49.3068C191.051 49.3068 190.591 48.8487 190.591 48.279C190.591 47.6886 191.051 47.2305 191.624 47.2305C192.218 47.2305 192.676 47.6886 192.676 48.279ZM190.071 51.4231C189.669 51.4231 189.315 51.0699 189.315 50.6687C189.315 50.2445 189.669 49.8965 190.071 49.8965C190.508 49.8965 190.848 50.2445 190.848 50.6687C190.848 51.0699 190.508 51.4231 190.071 51.4231ZM188.559 53.0561C188.248 53.0561 187.995 52.8189 187.995 52.5041C187.995 52.1916 188.248 51.944 188.559 51.944C188.864 51.944 189.112 52.1916 189.112 52.5041C189.112 52.8189 188.864 53.0561 188.559 53.0561ZM197.033 68.8821C196.737 69.0454 196.378 69.1813 196.091 69.2826C195.723 69.3934 195.083 69.5427 194.549 69.8508C194.355 68.7313 194.059 67.6112 193.681 66.5301L196.645 66.7141C196.665 67.2979 196.766 67.9983 197.033 68.8821ZM192.473 62.3568C192.676 63.3469 193.472 64.323 194.507 64.343C195.083 64.343 195.593 64.0274 196.033 63.5701C196.082 63.9173 196.217 64.2099 196.441 64.4139C196.645 64.5986 196.892 64.6895 197.145 64.7442C196.96 65.0567 196.776 65.4624 196.684 66.0417L193.433 65.8496C192.953 64.6171 192.351 63.4393 191.663 62.3568C191.921 62.376 192.177 62.376 192.473 62.3568ZM197.145 59.2334L198.566 59.1403C200.327 58.9999 202.607 58.2765 203.519 55.5573L203.548 55.4745C203.732 54.9492 203.621 54.0314 203.621 53.9199L203.568 53.4994L203.15 53.6649C202.728 53.8275 201.35 54.1763 200.929 54.214C200.584 54.2339 199.56 54.2967 198.639 54.9876L198.59 55.0208L198.557 55.0696C198.547 55.0977 198.493 55.1509 198.454 55.1509C198.406 55.1509 198.305 55.0977 198.197 54.9292C197.882 54.4903 197.605 54.1763 197.455 54.0108C197.455 54.0108 197.421 53.9782 197.402 53.9383C197.402 53.8475 197.513 53.6827 197.945 53.5733L198.425 53.4795C198.988 53.3694 199.58 53.2386 199.609 52.3297V52.3209C199.609 52.0467 199.488 51.8095 199.25 51.6078C198.658 51.1475 197.441 51.1526 196.951 51.2923H196.902C196.859 51.3315 196.829 51.3315 196.811 51.3315C196.811 51.3115 196.757 51.2731 196.684 51.0374C196.635 50.8674 196.606 50.761 196.606 50.6687C196.606 50.5201 196.674 50.4869 196.694 50.4662C196.902 50.2837 196.98 50.0805 196.98 49.878C196.98 49.5632 196.829 49.2692 196.737 49.0852L196.684 48.9411C196.635 48.8487 196.572 48.6655 196.572 48.5546C196.572 48.5155 196.572 48.4822 196.592 48.463C196.626 48.3899 196.737 48.3322 196.883 48.2975C197.339 48.2066 197.77 48.2258 198.139 48.2598C198.444 48.279 198.731 48.279 198.978 48.2399C199.266 48.2066 199.56 48.0367 199.857 47.911C200.152 47.7618 200.447 47.5977 200.671 47.5785C201.011 47.5785 201.758 47.5785 202.36 47.5977L203.228 47.6177C203.805 47.6177 205.745 47.0081 206.4 46.3475C206.482 46.2559 206.585 46.1827 206.634 46.1827C206.648 46.1827 206.648 46.2027 206.648 46.2027C206.76 46.366 206.827 46.734 206.89 47.0864C206.982 47.5445 207.074 48.0773 207.313 48.463C207.555 48.8687 207.924 49.216 208.264 49.5632C208.497 49.7857 208.7 49.9778 208.864 50.1921C209.02 50.393 209.213 50.8534 209.398 51.2923C209.694 51.9728 209.989 52.6874 210.359 53.0413C210.806 53.4603 211.92 54.4903 213.037 54.2672C213.017 54.2864 213.017 54.2967 212.999 54.3248L212.668 54.6196C212.26 54.9492 211.859 55.3149 211.859 55.7213V55.7745C211.882 56.2186 212.023 56.4942 212.125 56.6775L212.148 56.7166C212.188 56.7691 212.226 56.8223 212.226 56.9132C212.226 57.0063 212.167 57.1556 211.965 57.358C211.543 57.7977 211.393 58.0925 211.393 58.3674C211.393 58.5129 211.431 58.6437 211.494 58.8078L211.514 58.8647C211.543 58.9762 211.606 59.1602 211.606 59.2652V59.2851C211.596 59.2851 211.596 59.3051 211.596 59.3051L211.48 59.3634C211.256 59.4883 211.194 59.5267 211.033 59.56H210.98C210.214 59.7292 209.825 60.1496 209.825 60.8309C209.825 60.8701 209.825 60.9033 209.835 60.9417L209.844 61.1782C209.864 61.3289 209.87 61.4738 209.87 61.5846C209.87 61.623 209.864 61.6371 209.864 61.6563C209.844 61.6755 209.806 61.6947 209.714 61.7146L209.53 61.7678C209.068 61.8602 208.395 62.0235 208.331 63.2745L208.312 63.7718C208.282 64.7442 208.239 65.1868 207.933 65.2407C207.371 65.2976 206.964 64.8203 206.91 64.6895C206.842 64.5595 206.74 64.1383 206.725 64.0814C206.298 62.7772 206.44 63.0912 205.828 64.2306C205.726 64.3939 205.654 64.5986 205.508 64.8543C205.027 65.7565 204.722 65.8681 204.509 66.0129L204.377 66.0846C204.325 66.1053 204.271 66.1245 204.222 66.1053C204.159 66.0617 204.048 65.9397 203.984 65.6264C203.864 65.1292 203.761 64.4671 203.714 63.8449C203.68 62.9464 204.64 61.9903 202.69 63.5494C202.69 63.5494 202.442 63.6986 202.302 63.7917C202.063 63.955 200.571 64.5986 200.152 64.7819C200.007 64.8351 199.508 64.8631 199.508 64.7442C199.508 64.7279 199.508 64.6696 199.525 64.5787C199.525 64.5595 199.525 64.5447 199.537 64.5247C199.764 63.7053 200.152 63.8966 198.804 64.0274L198.158 64.0474L197.955 64.0666C197.614 64.091 197.145 64.1383 196.892 63.9173C196.776 63.805 196.698 63.6218 196.698 63.3469C196.674 62.1151 197.586 61.4915 198.212 61.3526C199.036 61.1974 202.22 60.8501 203.621 60.7393C204.785 60.6277 206.871 60.1792 207.977 58.329C208.384 57.6521 208.875 54.8952 208.517 53.297C208.395 52.7797 207.869 51.9928 208.191 53.4425C208.517 54.8369 207.739 57.4112 207.4 57.9817C206.449 59.5799 204.581 59.9856 203.568 60.058C202.175 60.1792 198.954 60.5169 198.086 60.7009C197.339 60.8501 196.572 61.4013 196.217 62.2659C195.927 62.704 195.204 63.6801 194.52 63.6602C193.72 63.6417 193.094 62.6848 193.094 61.8787C193.025 59.4543 194.229 59.3775 197.145 59.2334ZM223.495 63.3668C223.495 63.1289 223.578 62.8548 223.688 62.6324C223.835 62.41 223.985 62.1151 223.985 61.821C223.985 61.7146 223.966 61.5846 223.897 61.4738C223.67 61.0674 223.116 61.0866 222.719 61.105H222.486C222.379 61.0866 222.098 60.9757 221.832 60.8701C221.371 60.6809 220.808 60.4637 220.439 60.406C220.125 60.372 219.736 60.4637 219.293 60.5893C218.833 60.7009 218.305 60.8501 217.892 60.7917C217.503 60.7578 216.986 60.5361 216.515 60.3336C215.225 59.8548 214.041 60.1149 213.221 60.4245C212.042 60.9033 211.145 61.6947 210.601 62.7572C209.51 64.8351 209.971 67.5387 210.859 69.1769C211.208 69.8382 212.503 72.0055 213.188 72.9239C213.202 72.9572 213.221 72.9764 213.26 72.9963H213.221C212.26 73.402 212.115 74.5421 212.115 75.1843C212.115 75.4015 212.135 75.57 212.135 75.6239C212.179 75.9912 212.309 76.2121 212.494 76.2852C212.628 76.3436 212.78 76.3251 212.891 76.232C212.901 76.232 213.489 75.8064 214.284 75.8973C214.938 75.9572 216.175 76.4153 216.175 77.7579C216.175 78.9948 215.142 80.4194 213.754 80.4194C212.556 80.4194 211.859 79.835 211.669 79.1877C211.572 77.9219 211.154 76.8357 210.951 76.5416C210.878 76.3953 210.757 76.3045 210.636 76.1737C210.257 75.8064 209.68 75.2567 209.53 72.8124C209.383 70.1124 208.282 67.5387 207.481 65.8681C207.647 65.9021 207.832 65.9213 208.016 65.9021C208.922 65.7912 208.957 64.7819 208.986 63.805L209.006 63.3033C209.041 62.5592 209.282 62.5023 209.68 62.4299L209.916 62.3568C210.436 62.1927 210.544 61.9504 210.544 61.5447C210.544 61.4398 210.529 61.289 210.519 61.1442L210.51 60.8841V60.8309C210.51 60.4445 210.738 60.3144 211.125 60.222L211.194 60.208C211.45 60.1496 211.572 60.078 211.8 59.9479L211.92 59.894C212.198 59.7292 212.28 59.5068 212.28 59.2652C212.28 59.0294 212.207 58.8078 212.148 58.6437L212.135 58.5994C212.095 58.5129 212.085 58.4405 212.085 58.3873C212.085 58.2573 212.167 58.1317 212.464 57.8169C212.799 57.4696 212.901 57.1556 212.901 56.8992C212.901 56.6383 212.78 56.4359 212.722 56.3435L212.707 56.3302C212.628 56.1987 212.556 56.0354 212.522 55.7405C212.556 55.5905 212.925 55.2824 213.109 55.1317L213.497 54.7652C213.683 54.562 213.754 54.2967 213.754 54.0839C213.754 53.891 213.72 53.7359 213.629 53.625C213.497 53.4795 213.284 53.4425 213.109 53.5327H213.129C212.391 53.8859 211.523 53.2053 210.83 52.5625C210.562 52.2824 210.276 51.6219 210.03 51.0374C209.806 50.5002 209.612 50.0421 209.398 49.7664C209.2 49.53 208.966 49.3068 208.735 49.0852C208.424 48.7756 208.088 48.463 207.895 48.1142C207.719 47.8394 207.628 47.3605 207.555 46.9564C207.481 46.5152 207.4 46.1111 207.22 45.8532C207.065 45.5931 206.851 45.5214 206.706 45.5022C206.298 45.4675 205.969 45.8155 205.911 45.8886C205.416 46.366 203.698 46.9564 203.228 46.9564L202.379 46.9372C201.729 46.9165 201.002 46.9024 200.642 46.9165C200.274 46.9372 199.905 47.1189 199.551 47.3022C199.313 47.4337 199.061 47.5638 198.876 47.5785C198.682 47.6177 198.454 47.5977 198.178 47.5785C197.78 47.5638 197.281 47.5253 196.757 47.6561C196.378 47.7086 196.126 47.8933 195.99 48.1298C195.777 48.5347 195.961 48.9788 196.033 49.1768C196.045 49.1768 196.136 49.3807 196.136 49.3807C196.286 49.694 196.35 49.878 196.257 49.9504C195.777 50.3561 195.981 51.0167 196.033 51.2199C196.111 51.4571 196.238 51.7903 196.515 51.9152C196.698 52.0083 196.902 52.0083 197.145 51.9359H197.107C197.548 51.8236 198.493 51.8627 198.833 52.1376C198.935 52.2093 198.935 52.2684 198.935 52.3209C198.915 52.6874 198.876 52.7066 198.299 52.8189L197.77 52.9305C197.116 53.0938 196.868 53.4226 196.776 53.6649C196.684 53.8859 196.698 54.1223 196.8 54.2672L196.951 54.4563C197.107 54.6196 197.349 54.9144 197.644 55.3149C197.945 55.7405 198.251 55.8322 198.474 55.813C198.731 55.813 198.935 55.6681 199.061 55.5181C199.735 55.0208 200.468 54.9144 200.963 54.8753C201.39 54.8561 202.35 54.6196 202.975 54.4371V54.6396C202.975 54.8753 202.956 55.1125 202.903 55.2617L202.884 55.3341C202.239 57.2472 200.778 58.2964 198.527 58.4597L197.107 58.5506C194.303 58.7014 192.42 58.8078 192.42 61.6755V61.6947C191.965 61.7146 191.552 61.6755 191.163 61.5846L191.125 61.5639L190.795 61.1265C189.796 59.8371 188.699 58.7546 187.5 57.89C186.734 56.2186 187.063 54.1763 187.893 53.5327C188.078 53.6649 188.311 53.7359 188.559 53.7359C189.242 53.7359 189.786 53.1861 189.786 52.5041C189.786 52.3297 189.751 52.176 189.685 52.0268C189.815 52.0667 189.946 52.0844 190.071 52.0844C190.877 52.0844 191.513 51.4379 191.513 50.6687C191.513 50.393 191.45 50.1514 191.328 49.9504C191.431 49.9696 191.533 49.9778 191.624 49.9778C192.585 49.9778 193.352 49.216 193.352 48.279C193.352 47.5977 192.973 47.028 192.42 46.7532C193.118 46.5308 193.638 45.8687 193.638 45.101C193.638 44.164 192.862 43.3911 191.921 43.3911C191.643 43.3911 191.377 43.4635 191.144 43.5744C191.217 43.3911 191.256 43.1702 191.256 42.9463C191.256 41.9384 190.416 41.1123 189.393 41.1123C188.69 41.1123 188.078 41.498 187.768 42.0685C187.598 41.4411 187.045 41 186.371 41C185.643 41 185.027 41.5704 184.94 42.2717C184.721 42.0094 184.386 41.8468 184.018 41.8468C183.503 41.8468 183.057 42.1601 182.873 42.599H182.562C181.849 42.599 181.713 42.0293 181.713 41.8837C181.713 41.4256 181.287 41.1123 180.695 41.1123H179.23C178.629 41.1123 178.206 41.4256 178.206 41.8837C178.206 42.0293 178.056 42.599 177.358 42.599H177.076C176.891 42.1601 176.45 41.8468 175.94 41.8468C175.572 41.8468 175.232 42.0094 175.01 42.2717C174.936 41.5704 174.326 41 173.588 41C172.933 41 172.361 41.4411 172.196 42.0685C171.871 41.498 171.265 41.1123 170.571 41.1123C169.546 41.1123 168.708 41.9384 168.708 42.9463C168.708 43.1702 168.743 43.3911 168.809 43.5744C168.596 43.4635 168.33 43.3911 168.043 43.3911C167.093 43.3911 166.326 44.164 166.326 45.101C166.326 45.8687 166.84 46.5308 167.544 46.7532C166.99 47.028 166.622 47.5977 166.622 48.279C166.622 49.216 167.388 49.9778 168.33 49.9778C168.432 49.9778 168.533 49.9696 168.635 49.9504C168.514 50.1514 168.442 50.393 168.442 50.6687C168.442 51.4379 169.086 52.0844 169.877 52.0844C170.007 52.0844 170.14 52.0667 170.265 52.0268C170.213 52.176 170.173 52.3297 170.173 52.5041C170.173 53.1861 170.727 53.7359 171.4 53.7359C171.672 53.7359 171.919 53.6435 172.133 53.4994C172.997 54.1615 173.146 56.2726 172.434 57.8701C171.206 58.7346 170.08 59.8216 169.086 61.1265C167.849 62.724 166.869 64.5986 166.171 66.5826C166.336 65.3508 166.224 64.2698 165.818 63.3469C164.57 60.392 161.922 59.2652 160.161 58.3873L159.249 57.9277C157.827 57.1164 157.143 56.1987 156.682 55.5905L156.367 55.1893C156.348 55.1893 156.328 55.1708 156.319 55.1509C156.348 55.1509 156.406 55.1708 156.43 55.1893C156.939 55.2617 157.716 55.5381 158.128 55.8514L158.676 56.3102C159.156 56.7166 159.467 56.9915 159.642 57.0824C160.132 57.358 160.956 57.2996 161.296 57.0063C161.442 56.8799 161.5 56.7166 161.5 56.5275C161.5 56.3102 161.407 56.0686 161.368 55.977C161.335 55.8854 161.315 55.8322 161.296 55.7745C161.335 55.7745 161.349 55.7937 161.368 55.7937L161.664 55.9238C162.184 56.0686 162.664 55.7213 162.91 55.3149C163.198 54.8369 163.138 54.0108 162.328 53.331C161.922 52.963 160.723 51.8095 159.763 50.8534C158.996 50.1145 158.399 49.53 158.21 49.3608C158.027 49.216 157.751 48.8871 157.624 48.7187C157.735 48.463 157.808 48.1482 157.624 47.911C157.439 47.6886 157.143 47.7285 156.979 47.7477H156.847C156.818 47.7285 156.789 47.7285 156.775 47.7285H156.682C156.876 47.2844 157.095 46.6608 157.308 45.7963C157.546 44.8261 157.42 43.9808 156.93 43.4443C156.59 43.0778 156.09 42.913 155.548 43.0047C154.669 43.1502 153.985 43.8116 153.524 44.362L153.36 43.8116L153.005 43.9416L151.356 44.4537L151.54 45.0433C150.837 44.8593 149.852 44.696 149.019 45.101C148.542 45.3374 148.228 45.7771 148.164 46.2743C148.077 46.9748 148.465 47.7477 149.221 48.3899C149.508 48.6263 149.76 48.7999 149.978 48.9788C149.925 48.9943 149.886 49.032 149.852 49.0711C149.629 49.2544 149.406 49.4916 149.212 49.694L148.964 49.9504C147.819 50.9783 146.326 51.6787 144.885 51.8627C144.7 51.8827 144.535 52.0268 144.516 52.2292C144.462 52.578 144.832 52.9829 145.428 53.2386C146.049 53.4994 146.175 54.2967 145.865 55.9053L145.856 55.977C145.826 56.1263 145.773 56.3634 145.967 56.5275C146.171 56.7307 146.471 56.6967 147 56.5474L147.102 56.5127C147.165 56.4942 147.238 56.475 147.305 56.4565C147.285 56.5474 147.267 56.6479 147.238 56.7499L147.213 56.9132L147.174 57.0639C147.102 57.4223 147.009 57.89 147.009 58.3149C147.009 58.5506 147.044 58.7915 147.121 58.9762C147.33 59.4883 147.839 60.3144 148.125 60.5893C148.3 60.777 148.503 60.8501 148.688 60.8501C148.964 60.8309 149.178 60.6277 149.304 60.4836L149.313 60.4637C149.353 60.5361 149.391 60.6469 149.454 60.8117L149.464 60.8309C149.667 61.4013 150.08 62.574 151.671 63.0528C151.957 63.1437 152.287 63.2213 152.584 63.0528C152.797 62.9169 152.932 62.704 153.015 62.376C153.064 62.2068 153.073 62.0235 153.098 61.8602C153.098 61.8063 153.098 61.7678 153.107 61.7146C153.136 61.7383 153.175 61.7871 153.199 61.821C153.781 62.6124 154.65 64.343 154.65 66.2353C154.65 66.7274 154.596 67.2166 154.456 67.722C154.243 68.5289 153.976 69.1178 153.747 69.6491C153.578 70.0355 153.452 70.4028 153.311 70.7471C152.821 71.2525 151.671 71.8954 150.896 72.3158L150.425 72.5722C149.692 72.9963 147.48 75.1451 147.33 78.0143C147.33 78.0475 147.32 78.1067 147.32 78.1599C146.01 78.5929 145.152 78.5264 144.68 77.9559C143.696 76.7441 144.443 75.5323 145.53 74.0641L145.865 73.6045L146.195 73.1404C146.195 73.1404 146.499 72.7739 146.519 72.7399C146.548 72.8124 146.548 72.8855 146.563 72.9764L146.694 73.566L146.825 74.0249C146.898 74.4298 147.165 74.5022 147.267 74.5022C147.421 74.5421 147.674 74.7971 148.349 73.5468C148.503 73.2919 148.76 72.8316 149.076 72.3535L149.586 71.5614C150.11 70.6836 149.978 70.0939 149.148 69.5235C148.819 69.301 148.843 69.1813 149.129 68.6205L149.212 68.4565C149.482 67.9444 150.57 64.5447 148.993 62.1151C147.892 60.4445 146.355 58.8854 144.259 59.3634C143.056 59.6368 142.265 60.078 141.508 60.5169C140.752 60.9521 140.038 61.3526 138.996 61.5114C138.34 61.6038 136.745 62.1247 136.672 62.1536C136.458 62.2252 136.172 62.3191 136.153 62.6324V62.6508C136.153 62.9804 136.512 63.1437 136.968 63.3469C137.502 63.6077 137.739 63.7917 137.851 63.9173C137.603 64.323 136.589 65.4232 136.377 65.5732C136.182 65.6989 136.061 65.8821 136.061 66.0846C136.061 66.1245 136.07 66.1429 136.08 66.1777C136.134 66.5102 136.488 66.7474 137.114 66.8301H137.123L137.114 66.9491C137.05 67.6496 136.948 68.7129 137.39 69.4134L137.502 69.5575C137.88 70.1279 138.646 71.3249 138.686 71.7446C138.686 71.8762 138.646 72.0594 138.598 72.2427C138.516 72.5375 138.442 72.8508 138.608 73.1168C138.666 73.218 138.782 73.3436 139.014 73.402C139.752 73.566 140.014 72.9963 140.243 72.519L140.364 72.2818C140.66 71.6929 141.053 70.8816 141.552 70.054L141.877 69.5663C142.449 68.7313 143.216 67.2639 143.042 66.0617H143.289C143.425 66.0846 143.575 66.1053 143.712 66.0617L143.851 66.0417C144.099 65.9937 144.443 65.9397 144.516 65.6072C144.589 65.2976 144.332 65.0375 144.055 64.8203C143.696 64.5447 143.318 63.4393 143.511 62.704C143.657 62.1735 143.905 61.8986 144.278 61.8403C145.035 61.7146 146.204 62.5023 146.767 63.3033C147.238 64.0082 147.451 64.8351 147.451 65.5348C147.451 65.7912 147.421 66.0129 147.378 66.2161C147.213 66.9875 147.063 67.0614 147.063 67.0614C147.029 67.0614 146.917 67.0222 146.859 67.003L146.603 66.9491C146.068 66.8301 145.418 66.9875 145.016 67.2979L144.875 67.3887C144.555 67.6112 144.119 67.9075 144.181 68.3449C144.23 68.7506 144.662 68.9338 144.976 69.0454C145.219 69.1378 145.292 69.2678 145.322 69.3735C145.466 69.89 144.967 70.8084 144.569 71.2865L144.385 71.5274L143.905 72.1518C142.003 74.5953 141.386 76.9473 142.207 78.5929C142.707 79.6133 143.944 80.8052 147.044 80.8244C146.917 81.4864 146.733 81.9261 146.456 82.3709C145.699 83.5813 144.413 83.7039 143.721 83.766L143.502 83.7852L143.333 83.7992C143.134 83.8192 142.838 83.8192 142.634 84.0608C142.367 84.3697 142.29 84.9394 142.377 86.1179C142.469 87.6785 142.29 88.5223 142.153 89.1504C142.106 89.4061 142.042 89.6625 142.032 89.865C142.023 90.0149 141.979 90.2329 141.93 90.4154C141.877 90.6578 141.818 90.9127 141.818 91.1699C141.818 91.3539 141.847 91.5319 141.959 91.7063C142.1 91.908 142.299 92.0144 142.605 92.0529L143.298 92.0928C143.445 92.0928 143.628 92.0928 143.76 92.1068C143.74 92.1253 143.74 92.1452 143.74 92.1452C143.721 92.1829 143.706 92.2376 143.685 92.2945H135.794C135.794 92.2945 138.127 96.3179 138.297 96.612C138.147 96.9208 135.988 101.113 135.988 101.113H157.235L158.443 105.174C165.026 102.784 172.86 101.428 179.977 101.428H180.021C187.127 101.428 194.986 102.784 201.554 105.174L202.757 101.113H223.679C223.679 101.113 221.521 96.9208 221.371 96.612C221.536 96.3179 223.875 92.2945 223.875 92.2945H214.827C214.919 91.6324 214.949 90.9327 214.919 90.6379C214.899 90.4007 214.807 89.9566 214.715 89.4992C214.623 89.0196 214.517 88.4514 214.517 88.3073C214.517 87.8462 214.531 86.432 214.56 86.1179C214.681 85.1817 213.663 84.428 213.188 84.0608L213.017 83.9492C212.576 83.6019 212.148 83.1431 211.77 82.6643C212.983 83.0847 215.205 83.4904 217.097 81.23C217.616 80.6034 217.965 79.767 218.188 79.2978L218.212 79.2069C218.406 78.7665 218.887 78.0335 219.037 77.9027C219.498 77.4985 221.4 75.0003 220.788 73.9865C220.386 73.3104 219.285 73.7123 218.916 73.8409C218.723 73.9133 218.611 73.7685 218.484 73.252C218.364 72.8124 218.115 71.6929 218.087 71.5274V71.5097C218.068 71.2865 218.018 70.8661 217.689 70.6969C217.476 70.6052 217.229 70.6244 216.961 70.79C216.821 70.8816 216.708 70.92 216.618 70.8816C216.515 70.8469 216.433 70.7368 216.379 70.6244C216.287 70.4028 216.127 69.8508 216.031 69.5427L215.952 69.2826L215.909 69.1178C215.859 68.8961 215.786 68.5865 215.492 68.4949C215.196 68.4373 214.938 68.6597 214.735 68.8821C214.58 69.0646 214.419 69.2478 214.293 69.4134C212.343 67.6644 212.567 66.0617 212.707 65.076C212.901 63.8833 213.386 63.0912 214.162 62.704C215.308 62.1536 216.708 62.6508 216.883 62.7432L217.044 62.8156C217.126 62.8688 217.262 62.9169 217.339 62.9804C217.32 62.9996 217.291 63.038 217.229 63.0713L217.208 63.0912L217.17 63.1289C216.695 63.6602 216.491 64.2099 216.491 64.7819C216.491 66.1429 217.649 67.4811 218.518 68.3937C218.518 69.6491 218.833 71.5318 219.682 72.3158C220.013 72.6099 220.439 72.7592 220.862 72.7119C221.603 72.6483 222.637 72.0202 222.821 71.9198C222.995 71.8562 223.519 71.3249 222.671 71.1232C221.832 70.9001 222.045 70.1478 222.093 69.7599C222.157 69.2678 222.379 68.6397 222.763 67.8336C222.874 67.5727 222.933 67.2979 222.933 67.003C222.933 66.491 222.763 65.9397 222.607 65.5348C222.749 65.5149 222.895 65.4949 223.05 65.4425C223.495 65.2688 223.782 65.0228 223.875 64.6895C223.893 64.6171 223.897 64.5447 223.897 64.4774C223.897 64.2698 223.816 64.0666 223.651 63.8641C223.539 63.7326 223.495 63.5494 223.495 63.3668Z" fill="white"/>
<path fill-rule="evenodd" clip-rule="evenodd" d="M201.112 48.5346C201.379 48.4629 202.22 48.4821 202.597 48.8102C202.747 48.941 202.955 49.0518 203.024 49.0851C203.096 49.1435 203.15 49.2876 202.863 49.3607C202.586 49.4375 202.422 49.4708 202.22 49.5632C202 49.6555 201.613 49.6408 201.399 49.4915C201.185 49.3607 200.807 49.0127 200.807 48.8486C200.807 48.6654 201.02 48.5346 201.112 48.5346Z" fill="white"/>
<path fill-rule="evenodd" clip-rule="evenodd" d="M155.814 51.0556C155.978 51.1287 156.182 51.3319 156.662 51.5285C157.141 51.7324 157.205 51.5152 157.346 51.0556C157.491 50.5923 157.205 50.5923 157.031 50.5923C156.846 50.5923 156.366 50.6122 156.026 50.6507C155.332 50.7223 155.663 50.9979 155.814 51.0556Z" fill="white"/>
<path fill-rule="evenodd" clip-rule="evenodd" d="M95.1093 122.402H97.7672C99.5113 122.402 100.634 122.116 101.135 121.545C101.635 120.973 101.885 119.679 101.885 117.658C101.885 115.831 101.618 114.634 101.086 114.073C100.553 113.51 99.5759 113.23 98.1531 113.23H95.1093V122.402ZM248.729 132.657C248.489 132.766 248.233 132.851 247.958 132.911C247.682 132.97 247.388 133 247.076 133C245.562 133 244.501 132.584 243.895 131.752C243.29 130.921 242.987 129.358 242.987 127.064C242.987 125.336 242.754 124.194 242.291 123.636C241.827 123.079 241.003 122.799 239.818 122.799H236.83V132.122H239.57V132.657H231.862C231.622 132.766 231.366 132.851 231.091 132.911C230.815 132.97 230.521 133 230.209 133C228.694 133 227.634 132.584 227.029 131.752C226.423 130.921 226.119 129.358 226.119 127.064C226.119 125.336 225.888 124.194 225.424 123.636C224.96 123.079 224.136 122.799 222.952 122.799H219.963V132.122H222.704V132.657H214.854V132.122H217.594V113.23H214.854V112.695H223.888C225.569 112.695 226.868 113.111 227.785 113.943C228.703 114.775 229.163 115.95 229.163 117.466C229.163 118.938 228.699 120.117 227.772 121.003C226.844 121.89 225.541 122.407 223.86 122.552C225.155 122.635 226.165 122.925 226.89 123.424C227.615 123.922 228.106 124.66 228.364 125.637C228.455 125.958 228.522 126.305 228.564 126.679C228.604 127.055 228.625 127.521 228.625 128.078V128.873C228.625 129.367 228.636 129.725 228.659 129.95C228.682 130.174 228.717 130.372 228.764 130.546C228.929 131.213 229.157 131.686 229.452 131.964C229.745 132.243 230.154 132.383 230.677 132.383C230.852 132.383 231.042 132.363 231.248 132.321C231.407 132.29 231.565 132.249 231.721 132.198V132.122H234.462V113.23H231.721V112.695H240.755C242.435 112.695 243.734 113.111 244.653 113.943C245.57 114.775 246.03 115.95 246.03 117.466C246.03 118.938 245.566 120.117 244.638 121.003C243.71 121.89 242.409 122.407 240.727 122.552C242.022 122.635 243.032 122.925 243.757 123.424C244.482 123.922 244.974 124.66 245.231 125.637C245.322 125.958 245.389 126.305 245.431 126.679C245.472 127.055 245.492 127.521 245.492 128.078V128.873C245.492 129.367 245.504 129.725 245.527 129.95C245.55 130.174 245.584 130.372 245.63 130.546C245.795 131.213 246.025 131.686 246.319 131.964C246.612 132.243 247.021 132.383 247.545 132.383C247.718 132.383 247.911 132.363 248.116 132.321C248.275 132.29 248.432 132.249 248.588 132.198V132.122H251.328V113.23H248.588V112.695H256.438V113.23H253.697V132.122H256.438V132.657H248.729ZM95.1093 132.122H97.8503V132.657H90V132.122H92.741V113.23H90V112.695H98.332C100.159 112.695 101.644 113.202 102.787 114.217C103.93 115.231 104.501 116.538 104.501 118.138C104.501 119.719 103.965 120.914 102.891 121.723C101.816 122.532 100.228 122.937 98.1256 122.937H95.1093V132.122ZM117.816 121.168V113.23H115.075V112.695H122.925V113.23H120.156V132.122H122.925V132.657H115.075V132.122H117.816V121.703H110.255V132.122H112.996V132.657H105.146V132.122H107.886V113.23H105.146V112.695H112.996V113.23H110.255V121.168H117.816ZM129.009 132.122H131.75V132.657H123.9V132.122H126.64V113.23H123.9V112.695H131.75V113.23H129.009V132.122ZM140.575 112.695V113.23H137.834V132.122H140.313C142.176 132.122 143.624 131.446 144.657 130.093C145.691 128.741 146.386 126.611 146.744 123.704H147.061V132.657H132.724V132.122H135.465V113.23H132.724V112.695H140.575ZM153.461 132.122H156.202V132.657H148.353V132.122H151.093V113.23H148.353V112.695H156.202V113.23H153.461V132.122ZM165.026 132.122V132.657H157.177V132.122H159.918V113.23H157.177V112.695H165.509C167.335 112.695 168.821 113.202 169.964 114.217C171.107 115.231 171.678 116.538 171.678 118.138C171.678 119.719 171.141 120.914 170.067 121.723C168.993 122.532 167.404 122.937 165.302 122.937H162.286V132.122H165.026ZM162.286 122.402H164.944C166.688 122.402 167.81 122.116 168.311 121.545C168.811 120.973 169.062 119.679 169.062 117.658C169.062 115.831 168.795 114.634 168.263 114.073C167.73 113.51 166.753 113.23 165.33 113.23H162.286V122.402ZM187.303 132.657L182.194 113.024V129.175C182.194 130.226 182.357 130.98 182.683 131.437C183.008 131.895 183.533 132.122 184.26 132.122H185.154V132.657H178.724V132.122H179.205C180.032 132.122 180.647 131.895 181.051 131.437C181.455 130.98 181.656 130.29 181.656 129.367V115.081C181.656 114.414 181.487 113.938 181.147 113.655C180.808 113.372 180.239 113.23 179.44 113.23H178.724V112.695H184.342L188.404 128.283L192.687 112.695H197.99V113.23H195.263V132.122H197.99V132.657H190.291V132.122H193.032L193.142 113.024L187.758 132.657H187.303ZM206.539 112.38C207.319 112.38 208.076 112.568 208.811 112.941C209.545 113.317 210.207 113.852 210.794 114.546C211.694 115.624 212.376 116.878 212.84 118.309C213.302 119.74 213.534 121.301 213.534 122.991C213.534 124.472 213.351 125.822 212.983 127.043C212.616 128.263 212.065 129.367 211.331 130.354C210.708 131.186 209.971 131.835 209.127 132.301C208.283 132.766 207.42 133 206.539 133C205.648 133 204.778 132.766 203.929 132.301C203.079 131.835 202.343 131.186 201.718 130.354C200.984 129.367 200.434 128.263 200.066 127.043C199.698 125.822 199.516 124.472 199.516 122.991C199.516 121.859 199.625 120.768 199.846 119.722C200.066 118.675 200.387 117.699 200.81 116.794C201.489 115.378 202.324 114.288 203.317 113.524C204.308 112.761 205.382 112.38 206.539 112.38ZM206.539 132.465C207.264 132.465 207.925 132.253 208.521 131.827C209.118 131.403 209.633 130.779 210.064 129.956C210.348 129.417 210.55 128.697 210.67 127.797C210.79 126.897 210.849 125.194 210.849 122.69C210.849 119.92 210.757 118.038 210.574 117.041C210.39 116.046 210.078 115.241 209.637 114.628C209.242 114.079 208.771 113.652 208.226 113.346C207.68 113.04 207.117 112.887 206.539 112.887C205.942 112.887 205.368 113.04 204.817 113.346C204.266 113.652 203.798 114.079 203.412 114.628C202.963 115.259 202.648 116.068 202.469 117.055C202.29 118.042 202.2 119.92 202.2 122.69V123.334C202.2 125.492 202.261 127 202.379 127.859C202.5 128.718 202.701 129.417 202.985 129.956C203.417 130.779 203.933 131.403 204.535 131.827C205.137 132.253 205.805 132.465 206.539 132.465ZM222.952 113.23H219.963V122.292H222.567C224.164 122.292 225.229 121.972 225.762 121.333C226.294 120.693 226.56 119.422 226.56 117.521C226.56 115.885 226.3 114.761 225.782 114.148C225.263 113.536 224.32 113.23 222.952 113.23ZM239.818 113.23H236.83V122.292H239.434C241.03 122.292 242.096 121.972 242.628 121.333C243.16 120.693 243.427 119.422 243.427 117.521C243.427 115.885 243.167 114.761 242.65 114.148C242.13 113.536 241.187 113.23 239.818 113.23ZM257.895 132.795V124.294H258.321C258.688 126.89 259.43 128.9 260.546 130.327C261.661 131.752 263.045 132.465 264.698 132.465C265.809 132.465 266.734 132.095 267.473 131.354C268.212 130.614 268.581 129.682 268.581 128.558C268.581 127.635 268.311 126.819 267.769 126.111C267.226 125.402 266.23 124.618 264.781 123.759C264.33 123.485 263.673 123.124 262.811 122.676C261.287 121.872 260.25 121.214 259.699 120.702C259.286 120.291 258.962 119.806 258.728 119.248C258.493 118.692 258.376 118.106 258.376 117.493C258.376 115.995 258.817 114.767 259.699 113.812C260.58 112.857 261.709 112.38 263.086 112.38C263.986 112.38 264.799 112.59 265.525 113.01C266.249 113.431 266.961 114.103 267.659 115.026L269.215 112.38H269.38V120.044H268.953C268.513 117.74 267.795 115.977 266.799 114.752C265.802 113.527 264.592 112.914 263.169 112.914C262.086 112.914 261.186 113.223 260.47 113.839C259.755 114.457 259.395 115.227 259.395 116.15C259.395 117.339 260.832 118.705 263.707 120.249C264.266 120.551 264.698 120.784 265.001 120.948C266.846 121.963 268.142 122.943 268.884 123.89C269.628 124.835 270 125.934 270 127.187C270 128.859 269.485 130.246 268.457 131.348C267.43 132.449 266.148 133 264.616 133C263.679 133 262.798 132.751 261.972 132.253C261.145 131.754 260.387 131.021 259.699 130.052L258.212 132.795H257.895Z" fill="white"/>
</svg>
