<svg width="360" height="174" viewBox="0 0 360 174" fill="none" xmlns="http://www.w3.org/2000/svg">
<path fill-rule="evenodd" clip-rule="evenodd" d="M106.977 121.318H178.71L248.926 52.8916H106.977V121.318ZM191.216 65.7549L177.243 65.7505V98.1237L165.037 65.752H152.934L142.511 92.8223C141.407 86.0004 134.16 83.6372 128.457 81.8705C124.687 80.6947 120.701 78.9599 120.738 77.0441C120.763 75.4744 122.882 74.0133 127.061 74.2348C129.87 74.3825 132.354 74.5997 137.28 76.921L142.146 68.6814C137.638 66.4456 131.414 65.0395 126.316 65.0323H126.282C120.336 65.0323 115.379 66.9148 112.309 70.005C110.17 72.167 109.015 74.9067 108.965 77.9462C108.888 82.1268 110.46 85.0882 113.766 87.4558C116.55 89.4454 120.118 90.7386 123.264 91.6928C127.141 92.86 130.308 93.878 130.268 96.0472C130.251 96.8436 129.925 97.6037 129.355 98.1715C128.384 99.1461 126.903 99.5125 124.851 99.5501C120.887 99.6283 117.954 99.0245 113.281 96.3325L108.965 104.685C113.63 107.271 119.153 108.786 124.78 108.786L125.507 108.78C130.411 108.695 134.367 107.326 137.534 104.849C137.709 104.713 137.877 104.563 138.044 104.42L136.646 108.071H149.334L151.466 101.757C153.696 102.49 156.231 102.905 158.926 102.905C161.543 102.905 164.019 102.514 166.208 101.815L168.262 108.071H188.957V94.9945H193.472C204.384 94.9945 210.844 89.5815 210.844 80.5035C210.844 70.3945 204.572 65.7563 191.216 65.7563V65.7549ZM158.926 93.4609C157.398 93.4692 155.882 93.2083 154.448 92.6906L158.88 79.0772H158.969L163.31 92.7297C161.902 93.219 160.419 93.4664 158.926 93.4609V93.4609ZM192.04 85.6341H188.959V74.6591H192.04C196.146 74.6591 199.412 75.987 199.412 80.0836C199.412 84.3062 196.146 85.6341 192.04 85.6341V85.6341ZM198.624 116.571V114.991H199.713C200.257 114.991 200.843 115.104 200.843 115.74C200.843 116.53 200.246 116.571 199.58 116.571H198.624ZM198.624 117.23H199.54L200.923 119.445H201.818L200.319 117.195C201.09 117.105 201.682 116.704 201.682 115.787C201.682 114.78 201.071 114.332 199.833 114.332H197.831V119.447H198.624V117.231V117.23ZM199.59 121.329C202.068 121.329 204.19 119.447 204.19 116.881C204.19 114.332 202.068 112.454 199.59 112.454C197.084 112.454 194.967 114.332 194.967 116.881C194.967 119.447 197.084 121.329 199.59 121.329ZM195.883 116.881C195.883 114.78 197.508 113.188 199.59 113.188C201.645 113.188 203.275 114.78 203.275 116.881C203.275 119.018 201.645 120.588 199.59 120.588C197.508 120.588 195.883 119.018 195.883 116.881Z" fill="white"/>
</svg>
