<svg width="360" height="174" viewBox="0 0 360 174" fill="none" xmlns="http://www.w3.org/2000/svg">
<path fill-rule="evenodd" clip-rule="evenodd" d="M205.512 63.4045C204.757 50.847 193.796 42.4327 181.735 43.885C173.234 44.2618 166.762 50.0885 166.188 50.6222L166.141 50.6465C166.108 50.3489 166.045 49.3689 165.88 48.405C165.374 45.4698 163.703 43.7588 160.591 43.8203C157.65 43.8785 156.04 45.5297 155.616 48.3387C155.45 49.4384 155.401 50.5672 155.399 51.6815C155.393 59.8095 155.388 67.9359 155.388 76.0639C155.388 84.1936 155.395 92.3216 155.409 100.451C155.411 101.895 155.528 103.372 155.852 104.774C156.405 107.164 158.157 108.309 160.546 108.371C163.077 108.435 164.966 107.324 165.591 104.787C165.934 103.393 166.019 101.91 166.027 100.466C166.043 97.6357 166.045 94.8024 166.043 91.9707C166.043 89.1406 166.037 86.3121 166.038 83.4836C166.041 77.8251 166.067 72.1665 166.201 66.5112C166.386 58.747 171.853 53.5251 179.786 52.8313C187.033 52.1974 193.342 56.7029 194.972 63.9431C195.482 66.2071 195.439 68.6151 195.449 70.9584C195.462 73.5621 195.465 76.1658 195.465 78.7695L195.46 86.5822C195.457 91.7976 195.46 97.0131 195.516 102.225C195.558 106.275 197.502 108.348 200.719 108.393C203.895 108.437 206.05 106.446 206.044 102.727C206.036 97.8088 206.07 92.886 206.073 87.9649C206.08 79.7673 206.005 71.573 205.512 63.4045ZM137.195 76.6801C133.736 74.4435 129.711 73.0657 125.943 71.3045C122.069 69.4949 118.13 67.8114 114.336 65.8546C112.267 64.784 111.071 63.0665 111.017 60.7685C111.012 60.4363 111.028 60.1041 111.066 59.7739C111.385 57.0312 112.872 55.2862 115.382 54.2577C122.365 51.3904 128.572 52.8927 134.398 57.3303C137.545 59.727 140.516 59.672 142.281 57.5616C142.931 56.7792 143.26 55.7817 143.202 54.7687C143.148 53.048 142.144 51.1494 140.312 49.5937C132.031 42.5589 116.873 41.7875 107.844 47.8422C103.673 50.64 100.308 55.9832 100.351 61.4267C100.367 65.667 102.444 69.9703 107.812 73.1869C111.847 75.6047 116.31 77.314 120.523 79.4487C124.231 81.3279 128.073 83.0502 131.476 85.3871C133.414 86.718 134.433 88.5406 134.525 90.4149C134.605 92.2779 133.774 94.1911 132.023 95.7258C130.247 97.2557 128.124 98.3355 125.837 98.8729C119.785 100.228 114.221 98.5899 109.102 95.2471C107.41 94.141 105.767 92.7825 103.892 92.1825C102.607 91.7718 100.499 91.9771 99.6005 92.8068C98.6959 93.6412 97.8889 95.4832 98.0126 96.6783C98.0288 96.8659 98.0614 97.039 98.1232 97.191C99.0148 99.337 100.572 101.533 102.451 102.896C108.014 106.923 114.544 108.225 120.519 108.411C126.992 108.411 132.33 107.247 137.086 104.059C142.26 100.587 144.883 95.4202 144.907 90.2839C144.946 85.1493 142.39 80.0406 137.193 76.6801H137.195ZM179.774 122.408C181.199 122.408 182.271 123.146 182.67 124.434C182.838 124.952 182.915 125.471 182.915 126.335C182.915 127.215 182.838 127.733 182.67 128.251C182.271 129.524 181.199 130.278 179.774 130.278C178.349 130.278 177.276 129.524 176.878 128.251C176.709 127.733 176.633 127.215 176.633 126.335C176.633 125.471 176.709 124.952 176.878 124.434C177.276 123.146 178.349 122.408 179.774 122.408ZM212.962 122.408C214.387 122.408 215.459 123.146 215.857 124.434C216.026 124.952 216.103 125.471 216.103 126.335C216.103 127.215 216.026 127.733 215.857 128.251C215.459 129.524 214.387 130.278 212.962 130.278C211.537 130.278 210.464 129.524 210.066 128.251C209.897 127.733 209.821 127.215 209.821 126.335C209.821 125.471 209.897 124.952 210.066 124.434C210.464 123.146 211.537 122.408 212.962 122.408ZM135.692 122.408C137.117 122.408 138.189 123.146 138.587 124.434C138.756 124.952 138.833 125.471 138.833 126.335C138.833 127.215 138.756 127.733 138.587 128.251C138.189 129.524 137.117 130.278 135.692 130.278C134.267 130.278 133.194 129.524 132.796 128.251C132.627 127.733 132.551 127.215 132.551 126.335C132.551 125.471 132.627 124.952 132.796 124.434C133.194 123.146 134.267 122.408 135.692 122.408ZM242.074 122.408C243.499 122.408 244.571 123.146 244.97 124.434C245.138 124.952 245.215 125.471 245.215 126.335C245.215 127.215 245.138 127.733 244.97 128.251C244.571 129.524 243.499 130.278 242.074 130.278C240.649 130.278 239.576 129.524 239.178 128.251C239.009 127.733 238.933 127.215 238.933 126.335C238.933 125.471 239.009 124.952 239.178 124.434C239.576 123.146 240.649 122.408 242.074 122.408ZM227.548 122.502C227.916 122.502 228.192 122.769 228.192 123.209V129.477C228.192 129.916 227.916 130.183 227.548 130.183C227.181 130.183 226.905 129.916 226.905 129.477V129.257H226.889C226.537 129.838 225.863 130.278 224.867 130.278C223.273 130.278 222.339 129.162 222.339 127.45V123.209C222.339 122.769 222.615 122.502 222.982 122.502C223.35 122.502 223.626 122.769 223.626 123.209V127.136C223.626 128.346 224.147 129.052 225.25 129.052C226.246 129.052 226.905 128.33 226.905 127.215V123.209C226.905 122.769 227.181 122.502 227.548 122.502ZM126.039 119.344C126.406 119.344 126.682 119.611 126.682 120.051V129.477C126.682 129.916 126.406 130.183 126.039 130.183C125.671 130.183 125.395 129.916 125.395 129.477V129.272H125.38C125.027 129.869 124.384 130.278 123.296 130.278C122.055 130.278 121.151 129.571 120.768 128.393C120.584 127.796 120.507 127.199 120.507 126.335C120.507 125.487 120.584 124.89 120.768 124.293C121.151 123.115 122.055 122.408 123.296 122.408C124.399 122.408 125.043 122.832 125.38 123.413H125.395V120.051C125.395 119.611 125.671 119.344 126.039 119.344ZM155.595 122.408C157.035 122.408 158.077 123.13 158.476 124.418C158.644 124.921 158.721 125.502 158.721 126.241C158.721 126.539 158.522 126.743 158.215 126.743H153.91C153.848 126.743 153.818 126.775 153.818 126.838C153.818 127.199 153.848 127.45 153.94 127.749C154.216 128.613 154.89 129.052 155.794 129.052C156.514 129.052 157.005 128.833 157.556 128.408C157.71 128.283 157.848 128.22 158.001 128.22C158.307 128.22 158.537 128.456 158.537 128.77C158.537 128.958 158.46 129.115 158.338 129.241C157.71 129.838 156.836 130.278 155.702 130.278C154.185 130.278 153.159 129.555 152.745 128.236C152.592 127.764 152.5 127.23 152.5 126.335C152.5 125.439 152.577 124.905 152.73 124.434C153.144 123.13 154.201 122.408 155.595 122.408ZM205.27 122.408C206.128 122.408 206.894 122.628 207.461 122.957C207.721 123.099 207.844 123.272 207.844 123.507C207.844 123.821 207.599 124.073 207.292 124.073C207.17 124.073 207.032 124.041 206.833 123.947C206.342 123.711 205.791 123.554 205.209 123.554C204.289 123.554 203.814 123.979 203.814 124.591C203.814 125.188 204.151 125.502 205.254 125.612L206.021 125.691C207.553 125.864 208.227 126.602 208.227 127.827C208.227 129.304 207.185 130.278 205.239 130.278C204.121 130.278 203.186 129.885 202.573 129.445C202.374 129.304 202.267 129.115 202.267 128.895C202.267 128.581 202.512 128.298 202.864 128.298C202.987 128.298 203.109 128.33 203.293 128.44C203.891 128.801 204.519 129.1 205.346 129.1C206.404 129.1 206.955 128.628 206.955 127.969C206.955 127.34 206.679 127.026 205.515 126.9L204.749 126.822C203.309 126.665 202.558 125.911 202.558 124.701C202.558 123.272 203.554 122.408 205.27 122.408ZM102.825 122.408C103.683 122.408 104.45 122.628 105.016 122.957C105.277 123.099 105.4 123.272 105.4 123.507C105.4 123.821 105.154 124.073 104.848 124.073C104.725 124.073 104.587 124.041 104.388 123.947C103.898 123.711 103.346 123.554 102.764 123.554C101.845 123.554 101.37 123.979 101.37 124.591C101.37 125.188 101.707 125.502 102.81 125.612L103.576 125.691C105.108 125.864 105.783 126.602 105.783 127.827C105.783 129.304 104.741 130.278 102.795 130.278C101.676 130.278 100.742 129.885 100.129 129.445C99.9295 129.304 99.8222 129.115 99.8222 128.895C99.8222 128.581 100.067 128.298 100.42 128.298C100.542 128.298 100.665 128.33 100.849 128.44C101.446 128.801 102.075 129.1 102.902 129.1C103.959 129.1 104.511 128.628 104.511 127.969C104.511 127.34 104.235 127.026 103.071 126.9L102.304 126.822C100.864 126.665 100.113 125.911 100.113 124.701C100.113 123.272 101.109 122.408 102.825 122.408ZM117.795 122.502C118.163 122.502 118.439 122.769 118.439 123.209V129.477C118.439 129.916 118.163 130.183 117.795 130.183C117.427 130.183 117.152 129.916 117.152 129.477V129.257H117.136C116.784 129.838 116.11 130.278 115.114 130.278C113.52 130.278 112.586 129.162 112.586 127.45V123.209C112.586 122.769 112.861 122.502 113.229 122.502C113.597 122.502 113.873 122.769 113.873 123.209V127.136C113.873 128.346 114.394 129.052 115.497 129.052C116.493 129.052 117.152 128.33 117.152 127.215V123.209C117.152 122.769 117.427 122.502 117.795 122.502ZM258.131 122.408C258.99 122.408 259.756 122.628 260.323 122.957C260.583 123.099 260.706 123.272 260.706 123.507C260.706 123.821 260.46 124.073 260.154 124.073C260.031 124.073 259.894 124.041 259.694 123.947C259.204 123.711 258.652 123.554 258.07 123.554C257.151 123.554 256.676 123.979 256.676 124.591C256.676 125.188 257.013 125.502 258.116 125.612L258.882 125.691C260.415 125.864 261.089 126.602 261.089 127.827C261.089 129.304 260.047 130.278 258.101 130.278C256.982 130.278 256.048 129.885 255.435 129.445C255.236 129.304 255.128 129.115 255.128 128.895C255.128 128.581 255.373 128.298 255.726 128.298C255.848 128.298 255.971 128.33 256.155 128.44C256.752 128.801 257.381 129.1 258.208 129.1C259.265 129.1 259.817 128.628 259.817 127.969C259.817 127.34 259.541 127.026 258.377 126.9L257.611 126.822C256.17 126.665 255.419 125.911 255.419 124.701C255.419 123.272 256.415 122.408 258.131 122.408ZM161.586 120.13C161.954 120.13 162.23 120.397 162.23 120.837V122.486C162.23 122.549 162.26 122.58 162.322 122.58H163.287C163.639 122.58 163.838 122.8 163.838 123.115C163.838 123.429 163.639 123.649 163.287 123.649H162.322C162.26 123.649 162.23 123.68 162.23 123.743V127.921C162.23 128.723 162.429 128.958 163.21 128.958C163.609 128.958 163.838 129.21 163.838 129.571C163.838 129.932 163.609 130.183 163.149 130.183H162.996C161.494 130.183 160.943 129.539 160.943 127.969V123.743C160.943 123.68 160.912 123.649 160.851 123.649H160.437C160.085 123.649 159.885 123.429 159.885 123.115C159.885 122.8 160.085 122.58 160.437 122.58H160.851C160.912 122.58 160.943 122.549 160.943 122.486V120.837C160.943 120.397 161.218 120.13 161.586 120.13ZM108.617 120.13C108.985 120.13 109.261 120.397 109.261 120.837V122.486C109.261 122.549 109.291 122.58 109.353 122.58H110.318C110.67 122.58 110.87 122.8 110.87 123.115C110.87 123.429 110.67 123.649 110.318 123.649H109.353C109.291 123.649 109.261 123.68 109.261 123.743V127.921C109.261 128.723 109.46 128.958 110.241 128.958C110.64 128.958 110.87 129.21 110.87 129.571C110.87 129.932 110.64 130.183 110.18 130.183H110.027C108.525 130.183 107.974 129.539 107.974 127.969V123.743C107.974 123.68 107.943 123.649 107.882 123.649H107.468C107.116 123.649 106.916 123.429 106.916 123.115C106.916 122.8 107.116 122.58 107.468 122.58H107.882C107.943 122.58 107.974 122.549 107.974 122.486V120.837C107.974 120.397 108.249 120.13 108.617 120.13ZM191.863 119.344C192.231 119.344 192.506 119.611 192.506 120.051V126.209L195.51 122.738C195.647 122.58 195.801 122.502 196 122.502C196.291 122.502 196.536 122.722 196.536 123.052C196.536 123.224 196.475 123.35 196.352 123.492L194.651 125.392L196.965 129.194C197.042 129.319 197.072 129.445 197.072 129.587C197.072 129.916 196.812 130.183 196.46 130.183C196.214 130.183 196.015 130.058 195.862 129.806L193.793 126.335L192.506 127.811V129.477C192.506 129.916 192.231 130.183 191.863 130.183C191.495 130.183 191.219 129.916 191.219 129.477V120.051C191.219 119.611 191.495 119.344 191.863 119.344ZM250.639 122.408C252.232 122.408 253.182 123.523 253.182 125.235V129.477C253.182 129.916 252.907 130.183 252.539 130.183C252.171 130.183 251.895 129.916 251.895 129.477V125.549C251.895 124.34 251.359 123.633 250.256 123.633C249.26 123.633 248.57 124.356 248.57 125.471V129.477C248.57 129.916 248.295 130.183 247.927 130.183C247.559 130.183 247.283 129.916 247.283 129.477V123.209C247.283 122.769 247.559 122.502 247.927 122.502C248.295 122.502 248.57 122.769 248.57 123.209V123.429H248.586C248.938 122.847 249.643 122.408 250.639 122.408ZM188.17 122.408C188.676 122.408 189.013 122.533 189.258 122.675C189.519 122.816 189.626 123.02 189.626 123.24C189.626 123.617 189.365 123.9 188.982 123.9C188.89 123.9 188.768 123.869 188.66 123.821C188.385 123.711 188.124 123.633 187.818 123.633C186.715 123.633 186.27 124.575 186.27 125.832V129.477C186.27 129.916 185.994 130.183 185.627 130.183C185.259 130.183 184.983 129.916 184.983 129.477V123.209C184.983 122.769 185.259 122.502 185.627 122.502C185.994 122.502 186.27 122.769 186.27 123.209V123.554H186.286C186.592 122.879 187.266 122.408 188.17 122.408ZM147.965 122.408C149.558 122.408 150.508 123.523 150.508 125.235V129.477C150.508 129.916 150.232 130.183 149.865 130.183C149.497 130.183 149.221 129.916 149.221 129.477V125.549C149.221 124.34 148.685 123.633 147.582 123.633C146.586 123.633 145.896 124.356 145.896 125.471V129.477C145.896 129.916 145.62 130.183 145.253 130.183C144.885 130.183 144.609 129.916 144.609 129.477V123.209C144.609 122.769 144.885 122.502 145.253 122.502C145.62 122.502 145.896 122.769 145.896 123.209V123.429H145.911C146.264 122.847 146.969 122.408 147.965 122.408ZM231.501 120.13C231.869 120.13 232.145 120.397 232.145 120.837V122.486C232.145 122.549 232.176 122.58 232.237 122.58H233.202C233.555 122.58 233.754 122.8 233.754 123.115C233.754 123.429 233.555 123.649 233.202 123.649H232.237C232.176 123.649 232.145 123.68 232.145 123.743V127.921C232.145 128.723 232.344 128.958 233.126 128.958C233.524 128.958 233.754 129.21 233.754 129.571C233.754 129.932 233.524 130.183 233.064 130.183H232.911C231.41 130.183 230.858 129.539 230.858 127.969V123.743C230.858 123.68 230.827 123.649 230.766 123.649H230.352C230 123.649 229.801 123.429 229.801 123.115C229.801 122.8 230 122.58 230.352 122.58H230.766C230.827 122.58 230.858 122.549 230.858 122.486V120.837C230.858 120.397 231.134 120.13 231.501 120.13ZM236.221 122.502C236.588 122.502 236.864 122.769 236.864 123.209V129.477C236.864 129.916 236.588 130.183 236.221 130.183C235.853 130.183 235.577 129.916 235.577 129.477V123.209C235.577 122.769 235.853 122.502 236.221 122.502ZM174.564 122.502C174.932 122.502 175.177 122.769 175.177 123.13C175.177 123.209 175.162 123.319 175.131 123.413L173.185 129.508C173.032 129.979 172.787 130.183 172.434 130.183C172.051 130.183 171.791 129.979 171.653 129.508L170.136 124.56H170.105L168.573 129.508C168.42 129.979 168.175 130.183 167.807 130.183C167.439 130.183 167.194 129.979 167.041 129.508L165.095 123.413C165.064 123.319 165.049 123.209 165.049 123.13C165.049 122.769 165.294 122.502 165.677 122.502C165.999 122.502 166.198 122.69 166.305 123.067L167.853 128.173H167.884L169.416 123.146C169.554 122.69 169.768 122.502 170.121 122.502C170.473 122.502 170.688 122.69 170.825 123.146L172.388 128.173H172.419L173.936 123.067C174.043 122.69 174.242 122.502 174.564 122.502ZM218.784 119.344C219.152 119.344 219.428 119.611 219.428 120.051V128.094C219.428 128.723 219.627 128.958 220.132 128.958C220.5 128.958 220.73 129.21 220.73 129.571C220.73 129.932 220.5 130.183 220.071 130.183H219.933C218.615 130.183 218.14 129.524 218.14 128.173V120.051C218.14 119.611 218.416 119.344 218.784 119.344ZM129.838 122.502C130.206 122.502 130.482 122.769 130.482 123.209V129.477C130.482 129.916 130.206 130.183 129.838 130.183C129.471 130.183 129.195 129.916 129.195 129.477V123.209C129.195 122.769 129.471 122.502 129.838 122.502ZM123.602 123.633C122.79 123.633 122.239 124.057 121.993 124.811C121.856 125.22 121.825 125.691 121.825 126.335C121.825 126.995 121.856 127.466 121.993 127.874C122.239 128.628 122.79 129.052 123.602 129.052C124.43 129.052 124.981 128.628 125.226 127.874C125.364 127.466 125.395 126.995 125.395 126.335C125.395 125.691 125.364 125.22 125.226 124.811C124.981 124.057 124.43 123.633 123.602 123.633ZM212.962 123.633C212.149 123.633 211.552 124.057 211.307 124.811C211.184 125.22 211.138 125.612 211.138 126.335C211.138 127.057 211.184 127.466 211.307 127.874C211.552 128.628 212.149 129.052 212.962 129.052C213.774 129.052 214.371 128.628 214.616 127.874C214.739 127.466 214.785 127.057 214.785 126.335C214.785 125.612 214.739 125.22 214.616 124.811C214.371 124.057 213.774 123.633 212.962 123.633ZM242.074 123.633C241.262 123.633 240.664 124.057 240.419 124.811C240.296 125.22 240.25 125.612 240.25 126.335C240.25 127.057 240.296 127.466 240.419 127.874C240.664 128.628 241.262 129.052 242.074 129.052C242.886 129.052 243.483 128.628 243.729 127.874C243.851 127.466 243.897 127.057 243.897 126.335C243.897 125.612 243.851 125.22 243.729 124.811C243.483 124.057 242.886 123.633 242.074 123.633ZM179.774 123.633C178.962 123.633 178.364 124.057 178.119 124.811C177.996 125.22 177.95 125.612 177.95 126.335C177.95 127.057 177.996 127.466 178.119 127.874C178.364 128.628 178.962 129.052 179.774 129.052C180.586 129.052 181.183 128.628 181.428 127.874C181.551 127.466 181.597 127.057 181.597 126.335C181.597 125.612 181.551 125.22 181.428 124.811C181.183 124.057 180.586 123.633 179.774 123.633ZM135.692 123.633C134.879 123.633 134.282 124.057 134.037 124.811C133.914 125.22 133.868 125.612 133.868 126.335C133.868 127.057 133.914 127.466 134.037 127.874C134.282 128.628 134.879 129.052 135.692 129.052C136.504 129.052 137.101 128.628 137.346 127.874C137.469 127.466 137.515 127.057 137.515 126.335C137.515 125.612 137.469 125.22 137.346 124.811C137.101 124.057 136.504 123.633 135.692 123.633ZM155.61 123.57C154.783 123.57 154.17 123.994 153.925 124.748C153.848 124.984 153.818 125.251 153.818 125.597C153.818 125.659 153.848 125.691 153.91 125.691H157.311C157.373 125.691 157.403 125.659 157.403 125.597C157.403 125.251 157.373 124.984 157.296 124.748C157.051 123.994 156.438 123.57 155.61 123.57ZM129.838 119.344C130.298 119.344 130.681 119.721 130.681 120.208C130.681 120.68 130.298 121.072 129.838 121.072C129.379 121.072 128.996 120.68 128.996 120.208C128.996 119.721 129.379 119.344 129.838 119.344ZM236.221 119.344C236.68 119.344 237.063 119.721 237.063 120.208C237.063 120.68 236.68 121.072 236.221 121.072C235.761 121.072 235.378 120.68 235.378 120.208C235.378 119.721 235.761 119.344 236.221 119.344ZM224.938 47.8422C233.966 41.7875 249.123 42.5589 257.404 49.5937C260.314 52.0647 261.143 55.401 259.373 57.5179C257.609 59.63 254.637 59.6817 251.492 57.2851C245.666 52.8491 239.459 51.3467 232.476 54.2124C229.965 55.2441 228.478 56.9875 228.16 59.7303C227.833 62.5555 229.058 64.6304 231.428 65.8546C235.222 67.8114 239.161 69.4949 243.035 71.3045C246.803 73.0657 250.828 74.4435 254.286 76.6801C264.667 83.3931 264.511 97.0826 254.177 104.014C249.423 107.201 244.083 108.366 237.611 108.366C231.635 108.18 225.104 106.878 219.545 102.851C217.664 101.488 216.108 99.2917 215.217 97.1457C214.753 96.0282 215.661 93.7609 216.694 92.8068C217.592 91.9771 219.701 91.7718 220.985 92.1825C222.86 92.7825 224.504 94.141 226.196 95.2471C231.314 98.5899 236.879 100.228 242.931 98.8729C245.218 98.3355 247.34 97.2557 249.117 95.7258C252.641 92.6353 252.449 88.0069 248.57 85.3418C245.166 83.0049 241.325 81.2826 237.617 79.4034C233.403 77.2687 228.94 75.5594 224.906 73.1417C212.664 65.8061 217.53 52.8119 224.938 47.8422Z" fill="white"/>
</svg>
