<svg width="360" height="174" viewBox="0 0 360 174" fill="none" xmlns="http://www.w3.org/2000/svg">
<path fill-rule="evenodd" clip-rule="evenodd" d="M97.9651 119.23H94.3851V129.49C94.3851 129.54 94.3751 129.58 94.3551 129.63C94.3351 129.67 94.3151 129.71 94.2751 129.74C94.2451 129.78 94.2051 129.8 94.1651 129.82C94.1151 129.84 94.0751 129.85 94.0251 129.85H92.2551C92.2051 129.85 92.1551 129.84 92.1151 129.82C92.0751 129.8 92.0351 129.78 92.0051 129.74C91.9651 129.71 91.9451 129.67 91.9251 129.63C91.9051 129.58 91.8951 129.54 91.8951 129.49V119.23H88.3151C88.1151 119.23 87.9551 119.11 87.9551 118.91V117.5C87.9551 117.3 88.1151 117.16 88.3151 117.16H97.9651C98.1651 117.16 98.3251 117.3 98.3251 117.5V118.91C98.3251 119.11 98.1651 119.23 97.9651 119.23ZM109.125 129.85C109.075 129.85 109.035 129.84 108.985 129.82C108.945 129.8 108.905 129.78 108.875 129.74C108.835 129.71 108.815 129.67 108.795 129.63C108.775 129.58 108.765 129.54 108.765 129.49V124.32H103.085V129.49C103.085 129.54 103.075 129.58 103.055 129.63C103.035 129.67 103.015 129.71 102.975 129.74C102.945 129.77 102.905 129.8 102.865 129.82C102.825 129.84 102.775 129.85 102.725 129.85H100.955C100.905 129.85 100.855 129.84 100.815 129.82C100.775 129.8 100.735 129.78 100.695 129.74C100.665 129.71 100.635 129.67 100.625 129.63C100.605 129.58 100.595 129.54 100.595 129.49V117.5C100.595 117.3 100.755 117.16 100.955 117.16H102.725C102.925 117.16 103.085 117.3 103.085 117.5V122.14H108.765V117.5C108.765 117.3 108.925 117.16 109.125 117.16H110.895C111.095 117.16 111.255 117.3 111.255 117.5V129.49C111.255 129.54 111.245 129.58 111.225 129.63C111.215 129.67 111.185 129.71 111.155 129.74C111.115 129.78 111.075 129.8 111.035 129.82C110.995 129.84 110.945 129.85 110.895 129.85H109.125ZM119.785 129.99C116.825 129.99 114.085 128.35 114.085 124.42V122.59C114.085 118.66 116.825 117.02 119.785 117.02C122.745 117.02 125.485 118.66 125.485 122.59V124.42C125.485 128.35 122.745 129.99 119.785 129.99ZM122.975 122.59C122.975 120.23 121.545 119.18 119.785 119.18C118.025 119.18 116.595 120.23 116.595 122.59V124.42C116.595 126.77 118.025 127.83 119.785 127.83C121.545 127.83 122.975 126.77 122.975 124.42V122.59ZM140.935 129.85H139.115C138.955 129.85 138.835 129.67 138.835 129.49V121.77C138.835 121.64 138.815 121.59 138.775 121.59C138.765 121.59 138.725 121.64 138.685 121.7L135.795 128.08C135.685 128.28 135.455 128.39 135.225 128.39H134.295C134.055 128.39 133.825 128.28 133.715 128.08L130.805 121.7C130.765 121.64 130.725 121.59 130.715 121.59C130.675 121.59 130.655 121.64 130.655 121.77V129.49C130.655 129.67 130.535 129.85 130.375 129.85H128.565C128.405 129.85 128.255 129.76 128.255 129.58V117.87C128.255 117.48 128.585 117.16 128.975 117.16H130.445C130.725 117.16 130.985 117.33 131.105 117.59L134.545 124.56C134.635 124.73 134.675 124.81 134.745 124.81C134.815 124.81 134.855 124.73 134.945 124.56L138.385 117.59C138.415 117.53 138.455 117.47 138.495 117.42C138.545 117.36 138.595 117.32 138.655 117.28C138.715 117.24 138.775 117.21 138.845 117.19C138.915 117.17 138.975 117.16 139.045 117.16H140.515C140.915 117.16 141.235 117.48 141.235 117.87V129.58C141.235 129.76 141.095 129.85 140.935 129.85ZM180.315 129.85H178.505C178.065 129.85 177.695 129.85 177.415 129.21L172.545 121.09C172.495 120.98 172.435 120.95 172.385 120.95C172.335 120.95 172.295 120.98 172.295 121.09V129.49C172.295 129.54 172.285 129.58 172.275 129.63C172.255 129.67 172.235 129.71 172.195 129.74C172.165 129.77 172.125 129.8 172.085 129.82C172.045 129.84 171.995 129.85 171.955 129.85H170.435C170.385 129.85 170.335 129.84 170.295 129.82C170.255 129.8 170.215 129.78 170.175 129.74C170.145 129.71 170.115 129.67 170.105 129.63C170.085 129.58 170.075 129.54 170.075 129.49V117.87C170.075 117.48 170.395 117.16 170.785 117.16H172.725C173.105 117.16 173.295 117.27 173.515 117.73L178.575 126.33C178.605 126.42 178.665 126.47 178.715 126.47C178.755 126.47 178.805 126.42 178.805 126.31V117.5C178.805 117.3 178.945 117.16 179.145 117.16H180.685C180.735 117.16 180.775 117.17 180.815 117.18C180.865 117.2 180.905 117.22 180.935 117.26C180.965 117.29 180.985 117.32 181.005 117.37C181.025 117.41 181.035 117.45 181.025 117.5L181.035 129.13C181.025 129.23 181.015 129.32 180.975 129.41C180.935 129.49 180.885 129.57 180.815 129.64C180.755 129.7 180.675 129.76 180.585 129.79C180.495 129.83 180.405 129.85 180.315 129.85ZM144.875 129.53C144.695 129.49 144.535 129.37 144.535 129.17V127.89C144.535 127.69 144.695 127.54 144.875 127.54H144.915C145.625 127.64 147.305 127.87 148.965 127.87C150.555 127.87 151.045 127.3 151.045 126.26C151.045 124.92 147.835 124.18 146.275 123.54C144.705 122.9 144.155 121.67 144.155 120.42C144.155 118.45 145.745 117.02 149.075 117.02C150.785 117.02 152.355 117.34 152.965 117.49C153.145 117.53 153.285 117.65 153.285 117.83V119.15C153.285 119.33 153.155 119.47 152.985 119.47H152.945C151.765 119.37 150.535 119.15 148.975 119.15C147.645 119.15 146.645 119.61 146.645 120.42C146.645 121.01 147.325 121.55 148.115 121.86C148.915 122.17 149.965 122.58 151.155 123.06C152.665 123.67 153.645 124.55 153.645 126.26C153.645 128.07 152.515 130 148.925 130C147.345 130 145.735 129.73 144.875 129.53ZM161.605 129.99C158.645 129.99 155.905 128.35 155.905 124.42V122.59C155.905 118.66 158.645 117.02 161.605 117.02C164.555 117.02 167.295 118.66 167.295 122.59V124.42C167.295 128.35 164.555 129.99 161.605 129.99ZM164.785 122.59C164.785 120.23 163.355 119.18 161.605 119.18C159.845 119.18 158.415 120.23 158.415 122.59V124.42C158.415 126.77 159.845 127.83 161.605 127.83C163.355 127.83 164.785 126.77 164.785 124.42V122.59ZM197.435 129.85C197.235 129.85 197.165 129.67 197.075 129.49L194.495 125.16H194.095C193.625 125.16 192.185 125.11 191.765 125.09V129.49C191.765 129.69 191.625 129.85 191.425 129.85H189.635C189.585 129.85 189.535 129.84 189.495 129.82C189.455 129.8 189.415 129.78 189.385 129.74C189.345 129.71 189.325 129.67 189.305 129.63C189.285 129.58 189.275 129.54 189.275 129.49V117.78C189.275 117.43 189.485 117.3 189.845 117.25C190.785 117.11 192.785 117.02 194.095 117.02C196.855 117.02 199.405 118 199.405 121.06V121.22C199.405 123.11 198.455 124.14 196.985 124.71L199.795 129.49C199.835 129.54 199.835 129.6 199.835 129.64C199.835 129.76 199.765 129.85 199.625 129.85H197.435ZM196.935 121.06C196.935 119.72 195.885 119.14 194.095 119.14C193.715 119.14 192.085 119.18 191.765 119.21V123.09C192.055 123.1 193.785 123.14 194.095 123.14C195.945 123.14 196.935 122.79 196.935 121.22V121.06ZM204.615 126.33C204.615 127.83 204.675 127.87 206.035 127.87H210.575C210.765 127.87 210.925 128.03 210.925 128.22V129.36C210.925 129.62 210.835 129.71 210.575 129.74C209.995 129.83 208.825 129.99 206.695 129.99C203.715 129.99 202.145 130.01 202.145 126.33V120.68C202.145 117 203.715 117.02 206.695 117.02C208.825 117.02 209.995 117.18 210.575 117.27C210.835 117.3 210.925 117.39 210.925 117.64V118.78C210.925 118.83 210.925 118.88 210.905 118.92C210.885 118.96 210.855 119 210.825 119.04C210.795 119.07 210.755 119.1 210.705 119.12C210.665 119.13 210.615 119.14 210.575 119.14H206.035C204.675 119.14 204.615 119.18 204.615 120.68V122.31H210.355C210.405 122.31 210.445 122.32 210.495 122.34C210.535 122.36 210.575 122.39 210.605 122.42C210.645 122.45 210.665 122.49 210.685 122.53C210.705 122.58 210.715 122.62 210.715 122.67V123.96C210.715 124.16 210.555 124.32 210.355 124.32H204.615V126.33ZM218.975 129.99C216.095 129.99 213.615 128.74 213.615 124.93V117.5C213.615 117.3 213.775 117.16 213.975 117.16H215.745C215.945 117.16 216.105 117.3 216.105 117.5V124.93C216.105 126.97 217.045 127.94 218.975 127.94C220.915 127.94 221.865 126.97 221.865 124.93V117.5C221.865 117.3 222.025 117.16 222.215 117.16H223.995C224.195 117.16 224.355 117.3 224.355 117.5V124.93C224.355 128.74 221.865 129.99 218.975 129.99ZM236.145 119.23H232.565V129.49C232.565 129.54 232.555 129.58 232.535 129.63C232.515 129.67 232.495 129.71 232.455 129.74C232.425 129.78 232.385 129.8 232.345 129.82C232.295 129.84 232.255 129.85 232.205 129.85H230.435C230.385 129.85 230.335 129.84 230.295 129.82C230.255 129.8 230.215 129.78 230.175 129.74C230.145 129.71 230.115 129.67 230.095 129.63C230.085 129.58 230.075 129.54 230.075 129.49V119.23H226.485C226.295 119.23 226.135 119.11 226.135 118.91V117.5C226.135 117.3 226.295 117.16 226.485 117.16H236.145C236.335 117.16 236.495 117.3 236.495 117.5V118.91C236.495 119.11 236.335 119.23 236.145 119.23ZM258.305 129.85C258.105 129.85 258.035 129.67 257.945 129.49L255.365 125.16H254.965C254.495 125.16 253.045 125.11 252.635 125.09V129.49C252.635 129.69 252.495 129.85 252.295 129.85H250.505C250.455 129.85 250.415 129.84 250.365 129.82C250.325 129.8 250.285 129.78 250.255 129.74C250.215 129.71 250.195 129.67 250.175 129.63C250.155 129.58 250.145 129.54 250.145 129.49V117.78C250.145 117.43 250.355 117.3 250.715 117.25C251.645 117.11 253.655 117.02 254.965 117.02C257.725 117.02 260.275 118 260.275 121.06V121.22C260.275 123.11 259.325 124.14 257.855 124.71L260.675 129.49C260.705 129.54 260.705 129.6 260.705 129.64C260.705 129.76 260.635 129.85 260.495 129.85H258.305ZM257.805 121.06C257.805 119.72 256.755 119.14 254.965 119.14C254.585 119.14 252.955 119.18 252.635 119.21V123.09C252.925 123.1 254.665 123.14 254.965 123.14C256.815 123.14 257.805 122.79 257.805 121.22V121.06ZM263.285 129.53C263.105 129.49 262.945 129.37 262.945 129.17V127.89C262.945 127.69 263.105 127.54 263.285 127.54H263.315C264.035 127.64 265.715 127.87 267.375 127.87C268.965 127.87 269.455 127.3 269.455 126.26C269.455 124.92 266.245 124.18 264.675 123.54C263.115 122.9 262.565 121.67 262.565 120.42C262.565 118.45 264.155 117.02 267.485 117.02C269.195 117.02 270.755 117.34 271.365 117.49C271.545 117.53 271.695 117.65 271.695 117.83V119.15C271.695 119.33 271.565 119.47 271.385 119.47H271.355C270.165 119.37 268.935 119.15 267.385 119.15C266.055 119.15 265.055 119.61 265.055 120.42C265.055 121.01 265.735 121.55 266.525 121.86C267.325 122.17 268.365 122.58 269.555 123.06C271.075 123.67 272.045 124.55 272.045 126.26C272.045 128.07 270.915 130 267.335 130C265.745 130 264.145 129.73 263.285 129.53ZM240.815 126.33C240.815 127.83 240.875 127.87 242.235 127.87H246.775C246.825 127.87 246.865 127.88 246.905 127.89C246.955 127.91 246.995 127.94 247.025 127.97C247.055 128.01 247.085 128.04 247.105 128.09C247.125 128.13 247.135 128.18 247.135 128.22V129.36C247.135 129.62 247.035 129.71 246.775 129.74C246.195 129.83 245.035 129.99 242.895 129.99C239.915 129.99 238.345 130.01 238.345 126.33V120.68C238.345 117 239.915 117.02 242.895 117.02C245.035 117.02 246.195 117.18 246.775 117.27C247.035 117.3 247.135 117.39 247.135 117.64V118.78C247.135 118.83 247.125 118.88 247.105 118.92C247.085 118.96 247.055 119 247.025 119.04C246.995 119.07 246.955 119.1 246.915 119.11C246.865 119.13 246.825 119.14 246.775 119.14H242.235C240.875 119.14 240.815 119.18 240.815 120.68V122.31H246.555C246.755 122.31 246.915 122.48 246.915 122.67V123.96C246.915 124.01 246.905 124.05 246.885 124.1C246.865 124.14 246.845 124.18 246.805 124.21C246.775 124.25 246.735 124.27 246.695 124.29C246.645 124.31 246.605 124.32 246.555 124.32H240.815V126.33ZM192.585 62.1303C191.835 62.9103 190.585 62.9503 189.785 62.2003C189.595 62.0203 189.445 61.8103 189.335 61.5803C189.235 61.3403 189.175 61.0803 189.165 60.8303C189.155 60.5703 189.205 60.3103 189.295 60.0703C189.385 59.8303 189.525 59.6003 189.705 59.4203C190.065 59.0403 190.565 58.8103 191.085 58.8003C191.605 58.7803 192.115 58.9803 192.495 59.3403C192.875 59.7003 193.105 60.1903 193.115 60.7103C193.135 61.2403 192.935 61.7503 192.585 62.1303ZM172.865 57.6403C172.955 57.7303 173.035 57.8403 173.085 57.9503C173.135 58.0703 173.165 58.1903 173.165 58.3203C173.175 58.4503 173.145 58.5803 173.105 58.7003C173.055 58.8103 172.995 58.9203 172.905 59.0203C172.815 59.1103 172.705 59.1803 172.595 59.2403C172.475 59.2903 172.345 59.3203 172.225 59.3203C172.095 59.3203 171.965 59.3003 171.845 59.2603C171.725 59.2103 171.615 59.1503 171.525 59.0603C171.135 58.6903 171.115 58.0803 171.485 57.6903C171.575 57.5903 171.675 57.5203 171.795 57.4703C171.915 57.4203 172.035 57.3903 172.165 57.3803C172.295 57.3803 172.425 57.4003 172.545 57.4403C172.665 57.4903 172.775 57.5603 172.865 57.6403ZM177.805 55.7703C177.925 55.8803 178.015 56.0103 178.075 56.1503C178.145 56.3003 178.185 56.4503 178.185 56.6103C178.195 56.7703 178.165 56.9203 178.105 57.0703C178.055 57.2203 177.965 57.3503 177.865 57.4703C177.405 57.9503 176.635 57.9703 176.155 57.5203C176.045 57.4103 175.945 57.2803 175.885 57.1403C175.815 57.0003 175.785 56.8403 175.775 56.6803C175.775 56.5303 175.805 56.3703 175.855 56.2203C175.915 56.0703 175.995 55.9403 176.105 55.8203C176.215 55.7103 176.345 55.6203 176.485 55.5503C176.635 55.4903 176.785 55.4503 176.945 55.4503C177.105 55.4403 177.265 55.4703 177.405 55.5303C177.555 55.5803 177.695 55.6603 177.805 55.7703ZM183.105 55.3903C183.255 55.5203 183.375 55.6903 183.455 55.8703C183.535 56.0503 183.585 56.2503 183.595 56.4503C183.595 56.6503 183.565 56.8503 183.495 57.0403C183.425 57.2203 183.315 57.4003 183.175 57.5403C183.035 57.6903 182.875 57.8003 182.695 57.8903C182.505 57.9703 182.315 58.0103 182.115 58.0203C181.905 58.0303 181.705 57.9903 181.525 57.9203C181.335 57.8503 181.165 57.7403 181.015 57.6103C180.875 57.4703 180.755 57.3003 180.675 57.1203C180.585 56.9403 180.545 56.7403 180.535 56.5403C180.525 56.3403 180.565 56.1403 180.635 55.9503C180.705 55.7703 180.815 55.6003 180.945 55.4503C181.085 55.3003 181.255 55.1903 181.435 55.1103C181.615 55.0203 181.815 54.9803 182.015 54.9703C182.215 54.9703 182.415 55.0003 182.605 55.0703C182.795 55.1403 182.965 55.2503 183.105 55.3903ZM188.125 56.6703C188.815 57.3103 188.845 58.4003 188.195 59.0903C188.045 59.2503 187.855 59.3803 187.645 59.4803C187.445 59.5703 187.215 59.6203 186.995 59.6303C186.765 59.6303 186.545 59.5903 186.335 59.5103C186.125 59.4303 185.925 59.3103 185.765 59.1603C185.595 59.0003 185.465 58.8203 185.375 58.6103C185.285 58.4103 185.235 58.1903 185.225 57.9603C185.215 57.7403 185.255 57.5103 185.335 57.3003C185.415 57.0903 185.535 56.9003 185.695 56.7403C185.855 56.5703 186.035 56.4403 186.245 56.3503C186.445 56.2503 186.675 56.2003 186.895 56.2003C187.125 56.1903 187.345 56.2303 187.555 56.3103C187.765 56.3903 187.965 56.5103 188.125 56.6703ZM168.675 60.9303C168.815 61.0603 168.895 61.2403 168.895 61.4303C168.905 61.6303 168.835 61.8103 168.695 61.9503C168.565 62.0903 168.385 62.1703 168.195 62.1803C167.995 62.1803 167.815 62.1103 167.675 61.9803C167.605 61.9103 167.545 61.8403 167.505 61.7503C167.465 61.6603 167.445 61.5703 167.445 61.4703C167.445 61.3803 167.455 61.2803 167.495 61.2003C167.525 61.1103 167.575 61.0303 167.645 60.9603C167.705 60.8903 167.785 60.8303 167.875 60.7903C167.965 60.7503 168.055 60.7303 168.155 60.7303C168.245 60.7303 168.345 60.7403 168.435 60.7803C168.525 60.8103 168.605 60.8603 168.675 60.9303ZM194.305 78.5803C194.415 78.5303 194.545 78.5003 194.675 78.5003C194.805 78.4903 194.925 78.5103 195.045 78.5603C195.165 78.6003 195.275 78.6703 195.375 78.7603C195.465 78.8503 195.535 78.9503 195.595 79.0703C195.645 79.1903 195.675 79.3103 195.675 79.4403C195.685 79.5703 195.655 79.6903 195.615 79.8103C195.565 79.9303 195.495 80.0403 195.415 80.1303C195.325 80.2303 195.215 80.3003 195.105 80.3603C194.985 80.4103 194.855 80.4403 194.725 80.4403C194.605 80.4503 194.475 80.4303 194.355 80.3803C194.235 80.3403 194.125 80.2703 194.025 80.1803C193.935 80.0903 193.865 79.9903 193.805 79.8703C193.755 79.7503 193.725 79.6303 193.725 79.5003C193.715 79.3703 193.745 79.2403 193.785 79.1303C193.835 79.0103 193.905 78.9003 193.985 78.8003C194.075 78.7103 194.185 78.6403 194.305 78.5803ZM195.235 73.7903C195.345 73.6703 195.475 73.5803 195.625 73.5103C195.765 73.4503 195.925 73.4103 196.085 73.4103C196.235 73.4003 196.395 73.4303 196.545 73.4803C196.695 73.5403 196.825 73.6203 196.945 73.7303C197.055 73.8403 197.155 73.9703 197.215 74.1103C197.285 74.2603 197.325 74.4103 197.325 74.5703C197.335 74.7303 197.305 74.8803 197.245 75.0303C197.195 75.1803 197.105 75.3103 196.995 75.4303C196.775 75.6603 196.475 75.8003 196.155 75.8103C195.845 75.8203 195.535 75.7003 195.295 75.4803C195.065 75.2703 194.925 74.9603 194.915 74.6503C194.905 74.3303 195.025 74.0203 195.235 73.7803V73.7903ZM195.345 68.1503C195.525 68.0703 195.725 68.0303 195.925 68.0203C196.125 68.0103 196.325 68.0503 196.515 68.1203C196.695 68.1903 196.875 68.2903 197.015 68.4303C197.165 68.5703 197.285 68.7303 197.365 68.9103C197.445 69.1003 197.495 69.2903 197.505 69.4903C197.505 69.6903 197.475 69.8903 197.405 70.0803C197.325 70.2703 197.225 70.4403 197.085 70.5903C196.505 71.2003 195.535 71.2303 194.925 70.6503C194.775 70.5203 194.655 70.3503 194.575 70.1703C194.495 69.9903 194.445 69.7903 194.435 69.5903C194.435 69.3903 194.465 69.1903 194.535 69.0003C194.605 68.8103 194.715 68.6403 194.855 68.5003C194.995 68.3503 195.155 68.2303 195.345 68.1503ZM193.005 63.6003C193.155 63.4303 193.345 63.3003 193.555 63.2103C193.755 63.1203 193.975 63.0703 194.205 63.0603C194.425 63.0503 194.655 63.0903 194.865 63.1703C195.075 63.2503 195.265 63.3703 195.435 63.5203C195.595 63.6803 195.735 63.8603 195.825 64.0703C195.915 64.2703 195.975 64.5003 195.975 64.7203C195.985 64.9503 195.945 65.1703 195.865 65.3803C195.785 65.5903 195.665 65.7903 195.505 65.9503C194.865 66.6403 193.775 66.6703 193.075 66.0203C192.915 65.8703 192.775 65.6803 192.685 65.4803C192.595 65.2703 192.545 65.0503 192.535 64.8303C192.525 64.6003 192.565 64.3803 192.645 64.1703C192.725 63.9603 192.845 63.7603 193.005 63.6003ZM191.305 83.1603C191.365 83.0903 191.445 83.0303 191.535 82.9903C191.625 82.9503 191.715 82.9303 191.815 82.9303C191.905 82.9303 192.005 82.9403 192.085 82.9803C192.175 83.0103 192.265 83.0603 192.335 83.1303C192.405 83.1903 192.455 83.2703 192.495 83.3603C192.535 83.4403 192.555 83.5403 192.565 83.6303C192.565 83.7303 192.545 83.8203 192.515 83.9103C192.475 84.0003 192.425 84.0803 192.365 84.1503C192.295 84.2203 192.215 84.2703 192.135 84.3103C192.045 84.3503 191.955 84.3703 191.855 84.3803C191.755 84.3803 191.665 84.3603 191.575 84.3303C191.485 84.3003 191.405 84.2503 191.335 84.1803C191.265 84.1203 191.215 84.0403 191.175 83.9503C191.135 83.8603 191.115 83.7703 191.105 83.6803C191.105 83.5803 191.115 83.4903 191.155 83.4003C191.185 83.3103 191.235 83.2303 191.305 83.1603ZM170.305 85.6903C170.125 85.8803 169.915 86.0303 169.675 86.1403C169.435 86.2403 169.185 86.3003 168.925 86.3103C168.665 86.3203 168.405 86.2703 168.165 86.1803C167.925 86.0903 167.695 85.9503 167.515 85.7703C167.325 85.6003 167.165 85.3803 167.065 85.1503C166.955 84.9103 166.895 84.6603 166.885 84.4003C166.875 84.1403 166.925 83.8803 167.015 83.6403C167.105 83.3903 167.245 83.1703 167.425 82.9803C167.605 82.8003 167.815 82.6403 168.055 82.5403C168.295 82.4303 168.545 82.3703 168.805 82.3703C169.065 82.3603 169.325 82.4003 169.565 82.4903C169.805 82.5903 170.035 82.7203 170.225 82.9003C170.415 83.0803 170.565 83.2903 170.665 83.5303C170.775 83.7703 170.835 84.0203 170.845 84.2803C170.845 84.5403 170.805 84.8003 170.715 85.0403C170.625 85.2803 170.485 85.5003 170.305 85.6903ZM166.025 66.3003C165.935 66.4003 165.825 66.4703 165.705 66.5203C165.595 66.5703 165.465 66.6003 165.335 66.6003C165.215 66.6103 165.085 66.5903 164.965 66.5403C164.845 66.5003 164.735 66.4303 164.645 66.3403C164.545 66.2503 164.475 66.1503 164.415 66.0303C164.365 65.9203 164.335 65.7903 164.335 65.6603C164.325 65.5403 164.355 65.4103 164.395 65.2903C164.445 65.1703 164.515 65.0603 164.595 64.9703C164.685 64.8803 164.795 64.8003 164.905 64.7503C165.025 64.7003 165.155 64.6703 165.285 64.6703C165.405 64.6603 165.535 64.6903 165.655 64.7303C165.775 64.7803 165.885 64.8503 165.975 64.9303C166.065 65.0203 166.145 65.1203 166.195 65.2403C166.245 65.3603 166.275 65.4803 166.285 65.6103C166.285 65.7403 166.265 65.8603 166.215 65.9803C166.175 66.1003 166.105 66.2103 166.025 66.3003ZM164.375 71.6003C164.235 71.6603 164.075 71.6903 163.925 71.7003C163.765 71.7003 163.605 71.6803 163.455 71.6203C163.315 71.5603 163.175 71.4803 163.065 71.3703C162.705 71.0403 162.595 70.5203 162.765 70.0703C162.945 69.6203 163.375 69.3103 163.855 69.3003C164.345 69.2803 164.785 69.5703 164.985 70.0103C165.185 70.4503 165.095 70.9703 164.765 71.3303C164.655 71.4403 164.525 71.5303 164.375 71.6003ZM162.985 76.6703C162.375 76.1003 162.345 75.1303 162.925 74.5203C163.065 74.3703 163.225 74.2503 163.405 74.1703C163.595 74.0903 163.795 74.0403 163.995 74.0403C164.195 74.0303 164.395 74.0603 164.585 74.1303C164.765 74.2103 164.945 74.3103 165.085 74.4503C165.235 74.5903 165.355 74.7503 165.435 74.9403C165.515 75.1203 165.565 75.3203 165.565 75.5203C165.575 75.7203 165.535 75.9203 165.465 76.1003C165.395 76.2903 165.285 76.4603 165.155 76.6103C164.575 77.2203 163.605 77.2503 162.985 76.6703ZM167.005 81.5103C166.355 82.1903 165.265 82.2303 164.565 81.5803C164.405 81.4303 164.265 81.2403 164.175 81.0403C164.085 80.8303 164.035 80.6103 164.025 80.3903C164.025 80.1603 164.065 79.9403 164.145 79.7203C164.225 79.5103 164.345 79.3203 164.505 79.1603C164.655 78.9903 164.845 78.8603 165.045 78.7703C165.255 78.6803 165.475 78.6303 165.695 78.6203C165.925 78.6103 166.145 78.6503 166.365 78.7303C166.575 78.8103 166.765 78.9303 166.925 79.0903C167.095 79.2403 167.225 79.4303 167.315 79.6303C167.405 79.8403 167.465 80.0603 167.465 80.2803C167.475 80.5103 167.435 80.7303 167.355 80.9403C167.275 81.1503 167.155 81.3503 167.005 81.5103ZM187.145 87.4603C187.045 87.3803 186.975 87.2703 186.925 87.1603C186.875 87.0403 186.845 86.9103 186.835 86.7903C186.835 86.6603 186.855 86.5303 186.905 86.4103C186.945 86.2903 187.015 86.1803 187.105 86.0903C187.195 86.0003 187.295 85.9203 187.415 85.8703C187.525 85.8203 187.655 85.7903 187.785 85.7903C187.915 85.7803 188.035 85.8003 188.155 85.8503C188.275 85.8903 188.385 85.9603 188.485 86.0503C188.575 86.1403 188.645 86.2403 188.705 86.3603C188.755 86.4703 188.785 86.6003 188.785 86.7303C188.795 86.8503 188.765 86.9803 188.725 87.1003C188.675 87.2203 188.605 87.3303 188.525 87.4203C188.435 87.5103 188.325 87.5903 188.215 87.6403C188.095 87.6903 187.965 87.7203 187.845 87.7303C187.715 87.7303 187.585 87.7103 187.465 87.6603C187.345 87.6203 187.235 87.5503 187.145 87.4603ZM182.195 89.3303C182.085 89.2303 181.995 89.1003 181.925 88.9503C181.865 88.8103 181.825 88.6503 181.825 88.5003C181.815 88.3403 181.845 88.1803 181.895 88.0403C181.955 87.8903 182.035 87.7503 182.145 87.6403C182.255 87.5203 182.385 87.4303 182.535 87.3703C182.675 87.3003 182.835 87.2703 182.985 87.2603C183.145 87.2603 183.305 87.2803 183.455 87.3403C183.605 87.3903 183.735 87.4803 183.855 87.5903C184.345 88.0403 184.355 88.8003 183.905 89.2803C183.795 89.3903 183.665 89.4903 183.515 89.5503C183.375 89.6203 183.215 89.6503 183.065 89.6603C182.905 89.6603 182.745 89.6403 182.595 89.5803C182.455 89.5203 182.315 89.4403 182.195 89.3303ZM176.895 89.7203C176.275 89.1403 176.255 88.1803 176.825 87.5603C176.965 87.4203 177.135 87.3003 177.315 87.2203C177.495 87.1403 177.695 87.0903 177.895 87.0903C178.095 87.0803 178.295 87.1203 178.485 87.1903C178.675 87.2603 178.845 87.3703 178.995 87.5003C179.615 88.0803 179.635 89.0403 179.055 89.6603C178.915 89.8003 178.755 89.9203 178.565 90.0003C178.385 90.0803 178.185 90.1303 177.985 90.1303C177.785 90.1403 177.585 90.1103 177.395 90.0303C177.215 89.9603 177.035 89.8503 176.895 89.7203ZM171.495 87.9003C171.405 87.7003 171.355 87.4703 171.345 87.2503C171.335 87.0203 171.375 86.8003 171.455 86.5903C171.535 86.3803 171.655 86.1903 171.815 86.0203C171.965 85.8603 172.155 85.7303 172.355 85.6303C172.565 85.5403 172.785 85.4903 173.005 85.4803C173.235 85.4803 173.465 85.5103 173.675 85.5903C173.885 85.6703 174.075 85.7903 174.245 85.9503C174.405 86.1003 174.545 86.2803 174.635 86.4903C174.725 86.7003 174.775 86.9203 174.785 87.1403C174.795 87.3703 174.755 87.5903 174.675 87.8003C174.595 88.0203 174.475 88.2103 174.315 88.3703C173.675 89.0603 172.575 89.0903 171.885 88.4403C171.725 88.2903 171.585 88.1103 171.495 87.9003ZM184.635 61.8703C184.505 62.0303 184.355 62.1603 184.175 62.2603C183.995 62.3503 183.805 62.4103 183.605 62.4303C183.405 62.4503 183.205 62.4303 183.005 62.3803C182.815 62.3203 182.635 62.2303 182.475 62.1003C182.315 61.9803 182.185 61.8203 182.085 61.6403C181.995 61.4603 181.925 61.2703 181.905 61.0703C181.885 60.8703 181.905 60.6603 181.965 60.4703C182.065 60.0703 182.335 59.7203 182.695 59.5103C183.065 59.3103 183.495 59.2603 183.895 59.3803C184.295 59.5003 184.635 59.7703 184.825 60.1403C185.015 60.5203 185.055 60.9503 184.915 61.3503C184.855 61.5403 184.765 61.7203 184.635 61.8703ZM170.155 64.9703C170.245 64.9903 170.335 65.0403 170.415 65.1003C170.495 65.1703 170.555 65.2403 170.605 65.3303C170.655 65.4203 170.685 65.5103 170.695 65.6103C170.705 65.7103 170.695 65.8103 170.665 65.9103C170.545 66.3103 170.125 66.5403 169.725 66.4203C169.625 66.3903 169.545 66.3503 169.465 66.2903C169.385 66.2203 169.315 66.1503 169.275 66.0603C169.225 65.9703 169.195 65.8803 169.185 65.7803C169.175 65.6803 169.175 65.5803 169.205 65.4903C169.235 65.3903 169.285 65.3003 169.345 65.2203C169.405 65.1503 169.485 65.0803 169.575 65.0303C169.665 64.9903 169.755 64.9503 169.855 64.9403C169.955 64.9303 170.055 64.9403 170.155 64.9703ZM173.145 62.2103C173.245 62.2903 173.325 62.3803 173.385 62.4903C173.445 62.6003 173.485 62.7203 173.495 62.8403C173.505 62.9603 173.495 63.0803 173.465 63.2003C173.425 63.3203 173.365 63.4303 173.295 63.5303C173.215 63.6203 173.115 63.7003 173.015 63.7603C172.905 63.8203 172.785 63.8603 172.665 63.8703C172.535 63.8803 172.415 63.8703 172.295 63.8403C172.065 63.7603 171.865 63.6003 171.755 63.3903C171.635 63.1703 171.605 62.9203 171.675 62.6803C171.745 62.4503 171.905 62.2503 172.125 62.1303C172.335 62.0103 172.585 61.9803 172.825 62.0403C172.945 62.0703 173.055 62.1303 173.145 62.2103ZM176.655 60.1903C176.775 60.2903 176.875 60.4103 176.955 60.5503C177.025 60.6903 177.075 60.8403 177.095 60.9903C177.115 61.1503 177.095 61.3003 177.055 61.4503C177.015 61.6003 176.935 61.7403 176.845 61.8603C176.745 61.9903 176.625 62.0903 176.485 62.1603C176.345 62.2403 176.195 62.2803 176.035 62.3003C175.885 62.3103 175.725 62.3003 175.575 62.2503C175.425 62.2103 175.285 62.1403 175.165 62.0403C175.045 61.9403 174.935 61.8203 174.865 61.6903C174.785 61.5503 174.745 61.4003 174.725 61.2403C174.705 61.0903 174.725 60.9303 174.765 60.7803C174.805 60.6303 174.885 60.4903 174.985 60.3703C175.085 60.2503 175.205 60.1503 175.345 60.0703C175.475 60.0003 175.625 59.9503 175.785 59.9403C175.935 59.9203 176.095 59.9303 176.245 59.9803C176.395 60.0203 176.535 60.1003 176.655 60.1903ZM180.035 59.1303C180.205 59.1803 180.365 59.2603 180.505 59.3703C180.635 59.4803 180.755 59.6203 180.835 59.7803C180.915 59.9303 180.975 60.1003 180.995 60.2703C181.005 60.4503 180.995 60.6303 180.945 60.8003C180.895 60.9603 180.805 61.1203 180.695 61.2603C180.585 61.3903 180.445 61.5003 180.295 61.5903C180.145 61.6703 179.975 61.7203 179.795 61.7403C179.625 61.7603 179.445 61.7503 179.275 61.7003C178.925 61.6103 178.615 61.3803 178.435 61.0603C178.255 60.7503 178.215 60.3703 178.315 60.0203C178.415 59.6703 178.665 59.3703 178.985 59.2103C179.315 59.0403 179.695 59.0103 180.035 59.1303ZM168.465 68.5903C168.605 68.6303 168.735 68.7303 168.805 68.8603C168.875 68.9903 168.895 69.1503 168.855 69.2903C168.805 69.4403 168.715 69.5603 168.585 69.6303C168.445 69.7003 168.295 69.7203 168.145 69.6803C168.005 69.6403 167.875 69.5403 167.805 69.4103C167.735 69.2803 167.715 69.1203 167.755 68.9803C167.795 68.8303 167.895 68.7103 168.035 68.6403C168.165 68.5603 168.315 68.5503 168.465 68.5903ZM191.605 71.7403C191.665 71.6603 191.745 71.5903 191.835 71.5503C191.915 71.5003 192.015 71.4703 192.115 71.4603C192.215 71.4503 192.315 71.4603 192.405 71.4803C192.615 71.5303 192.785 71.6603 192.895 71.8403C192.995 72.0203 193.025 72.2403 192.965 72.4403C192.905 72.6403 192.765 72.8103 192.575 72.9003C192.395 73.0003 192.175 73.0103 191.975 72.9403C191.885 72.9103 191.795 72.8603 191.715 72.8003C191.635 72.7403 191.575 72.6603 191.525 72.5703C191.475 72.4903 191.445 72.3903 191.435 72.2903C191.425 72.1903 191.435 72.0903 191.465 72.0003C191.495 71.9003 191.535 71.8103 191.605 71.7403ZM190.755 67.8903C190.835 67.7903 190.935 67.7103 191.035 67.6503C191.145 67.6003 191.265 67.5603 191.385 67.5503C191.515 67.5303 191.635 67.5503 191.755 67.5803C191.995 67.6503 192.195 67.8103 192.325 68.0303C192.445 68.2503 192.475 68.5103 192.405 68.7503C192.325 68.9903 192.165 69.1903 191.945 69.3103C191.725 69.4303 191.465 69.4503 191.225 69.3803C191.105 69.3403 190.995 69.2803 190.895 69.2103C190.795 69.1303 190.715 69.0303 190.665 68.9303C190.605 68.8203 190.565 68.7003 190.555 68.5803C190.535 68.4503 190.545 68.3303 190.585 68.2103C190.625 68.0903 190.675 67.9803 190.755 67.8903ZM188.735 64.3903C188.835 64.2703 188.955 64.1703 189.095 64.1003C189.225 64.0303 189.375 63.9803 189.535 63.9603C189.685 63.9503 189.845 63.9603 189.995 64.0003C190.145 64.0503 190.285 64.1203 190.405 64.2103C190.525 64.3103 190.625 64.4303 190.705 64.5703C190.775 64.7003 190.825 64.8503 190.845 65.0103C190.865 65.1603 190.845 65.3203 190.805 65.4703C190.755 65.6203 190.685 65.7603 190.585 65.8803C190.485 66.0103 190.365 66.1103 190.225 66.1803C190.095 66.2603 189.935 66.3003 189.785 66.3203C189.625 66.3403 189.475 66.3203 189.325 66.2803C189.165 66.2403 189.025 66.1603 188.905 66.0703C188.785 65.9703 188.685 65.8503 188.605 65.7103C188.535 65.5703 188.485 65.4203 188.475 65.2603C188.455 65.1103 188.475 64.9503 188.515 64.8003C188.565 64.6503 188.635 64.5103 188.735 64.3903ZM185.605 62.1603C185.655 61.9903 185.735 61.8303 185.845 61.6903C185.955 61.5503 186.095 61.4403 186.245 61.3603C186.405 61.2703 186.575 61.2203 186.745 61.2003C186.925 61.1803 187.105 61.2003 187.275 61.2503C187.435 61.2903 187.595 61.3803 187.735 61.4903C187.875 61.6003 187.985 61.7303 188.065 61.8903C188.155 62.0403 188.205 62.2103 188.225 62.3903C188.245 62.5603 188.225 62.7403 188.175 62.9103C188.125 63.0703 188.045 63.2303 187.935 63.3703C187.825 63.5003 187.685 63.6203 187.525 63.7003C187.375 63.7903 187.205 63.8403 187.035 63.8603C186.855 63.8803 186.675 63.8603 186.515 63.8103C186.345 63.7703 186.185 63.6803 186.045 63.5703C185.905 63.4603 185.795 63.3303 185.715 63.1703C185.625 63.0203 185.575 62.8503 185.555 62.6803C185.535 62.5003 185.555 62.3203 185.605 62.1603ZM191.255 75.6303C191.305 75.5703 191.365 75.5203 191.425 75.4803C191.495 75.4503 191.565 75.4303 191.635 75.4203C191.715 75.4103 191.785 75.4103 191.855 75.4303C191.925 75.4503 191.995 75.4903 192.055 75.5403C192.115 75.5803 192.165 75.6403 192.195 75.7103C192.235 75.7703 192.255 75.8403 192.265 75.9203C192.275 75.9903 192.265 76.0703 192.245 76.1403C192.225 76.2103 192.185 76.2803 192.145 76.3403C192.095 76.3903 192.035 76.4403 191.965 76.4803C191.905 76.5103 191.835 76.5403 191.755 76.5403C191.685 76.5503 191.605 76.5403 191.535 76.5203C191.465 76.5003 191.395 76.4703 191.345 76.4203C191.285 76.3703 191.235 76.3103 191.205 76.2503C191.165 76.1803 191.145 76.1103 191.135 76.0403C191.125 75.9703 191.135 75.8903 191.155 75.8203C191.175 75.7503 191.215 75.6803 191.255 75.6303ZM178.045 84.6403C177.815 85.4503 176.955 85.9203 176.135 85.6803C175.945 85.6303 175.755 85.5303 175.605 85.4103C175.445 85.2803 175.315 85.1203 175.215 84.9503C175.115 84.7703 175.055 84.5703 175.035 84.3703C175.015 84.1703 175.035 83.9703 175.085 83.7703C175.145 83.5803 175.245 83.4003 175.365 83.2403C175.495 83.0803 175.655 82.9503 175.825 82.8603C176.005 82.7603 176.205 82.7003 176.405 82.6803C176.605 82.6603 176.805 82.6803 177.005 82.7303C177.195 82.7903 177.375 82.8803 177.535 83.0103C177.695 83.1403 177.825 83.2903 177.925 83.4703C178.015 83.6503 178.085 83.8403 178.105 84.0503C178.125 84.2503 178.105 84.4503 178.045 84.6403ZM168.545 73.1103C168.425 73.5203 168.005 73.7403 167.605 73.6203C167.505 73.6003 167.415 73.5503 167.335 73.4903C167.265 73.4303 167.195 73.3503 167.145 73.2603C167.095 73.1803 167.065 73.0803 167.055 72.9803C167.045 72.8803 167.055 72.7803 167.085 72.6903C167.115 72.5903 167.165 72.5003 167.225 72.4303C167.285 72.3503 167.365 72.2803 167.455 72.2403C167.535 72.1903 167.635 72.1603 167.735 72.1503C167.835 72.1403 167.935 72.1403 168.035 72.1703C168.125 72.2003 168.215 72.2503 168.295 72.3103C168.375 72.3703 168.435 72.4503 168.485 72.5403C168.525 72.6203 168.555 72.7203 168.565 72.8203C168.585 72.9203 168.575 73.0203 168.545 73.1103ZM169.425 76.9003C169.395 77.0203 169.335 77.1303 169.255 77.2203C169.175 77.3203 169.085 77.4003 168.975 77.4603C168.865 77.5203 168.745 77.5603 168.625 77.5703C168.505 77.5803 168.375 77.5703 168.265 77.5403C168.145 77.5003 168.035 77.4403 167.935 77.3703C167.845 77.2903 167.765 77.1903 167.705 77.0903C167.645 76.9803 167.605 76.8603 167.595 76.7403C167.585 76.6203 167.595 76.4903 167.625 76.3703C167.665 76.2603 167.715 76.1403 167.795 76.0503C167.875 75.9503 167.965 75.8703 168.075 75.8103C168.185 75.7503 168.305 75.7203 168.425 75.7103C168.545 75.6903 168.675 75.7103 168.795 75.7503C168.905 75.7803 169.015 75.8303 169.115 75.9103C169.215 75.9903 169.295 76.0803 169.345 76.1903C169.405 76.3003 169.445 76.4103 169.455 76.5403C169.475 76.6603 169.465 76.7803 169.425 76.9003ZM171.495 80.3103C171.455 80.4603 171.375 80.6003 171.275 80.7203C171.175 80.8403 171.055 80.9403 170.915 81.0203C170.785 81.0903 170.635 81.1403 170.475 81.1603C170.315 81.1703 170.165 81.1603 170.015 81.1103C169.865 81.0703 169.725 81.0003 169.595 80.9003C169.475 80.8003 169.375 80.6803 169.305 80.5403C169.225 80.4103 169.175 80.2603 169.165 80.1003C169.145 79.9503 169.165 79.7903 169.205 79.6403C169.245 79.4903 169.325 79.3503 169.425 79.2303C169.515 79.1003 169.635 79.0003 169.775 78.9303C169.915 78.8503 170.065 78.8103 170.215 78.7903C170.375 78.7703 170.535 78.7903 170.685 78.8303C170.835 78.8703 170.975 78.9503 171.095 79.0503C171.215 79.1403 171.315 79.2603 171.395 79.4003C171.475 79.5403 171.515 79.6903 171.535 79.8503C171.555 80.0003 171.545 80.1603 171.495 80.3103ZM172.745 83.8703C172.575 83.8203 172.415 83.7303 172.285 83.6303C172.145 83.5203 172.025 83.3803 171.945 83.2303C171.865 83.0703 171.805 82.9003 171.785 82.7303C171.775 82.5503 171.785 82.3803 171.835 82.2103C171.885 82.0403 171.965 81.8803 172.075 81.7503C172.185 81.6103 172.325 81.4903 172.475 81.4103C172.635 81.3303 172.805 81.2703 172.975 81.2503C173.155 81.2303 173.325 81.2503 173.495 81.3003C173.665 81.3503 173.825 81.4303 173.965 81.5403C174.095 81.6503 174.215 81.7903 174.295 81.9403C174.385 82.0903 174.435 82.2603 174.455 82.4403C174.475 82.6103 174.455 82.7903 174.405 82.9603C174.195 83.6703 173.455 84.0703 172.745 83.8703ZM189.855 80.1403C189.755 80.1103 189.665 80.0603 189.595 80.0003C189.515 79.9403 189.445 79.8603 189.405 79.7703C189.355 79.6903 189.325 79.5903 189.315 79.4903C189.305 79.3903 189.315 79.2903 189.345 79.2003C189.375 79.1003 189.415 79.0103 189.485 78.9403C189.545 78.8603 189.625 78.7903 189.705 78.7503C189.795 78.7003 189.895 78.6703 189.995 78.6603C190.085 78.6503 190.195 78.6503 190.285 78.6803C190.385 78.7103 190.475 78.7603 190.545 78.8203C190.625 78.8803 190.685 78.9603 190.735 79.0503C190.785 79.1403 190.815 79.2303 190.825 79.3303C190.835 79.4303 190.825 79.5303 190.805 79.6303C190.775 79.7203 190.725 79.8103 190.665 79.8903C190.595 79.9703 190.525 80.0303 190.435 80.0803C190.345 80.1303 190.245 80.1603 190.145 80.1703C190.045 80.1803 189.945 80.1703 189.855 80.1403ZM187.185 83.0703C187.065 83.0403 186.955 82.9803 186.865 82.9003C186.765 82.8203 186.685 82.7303 186.625 82.6203C186.565 82.5103 186.535 82.4003 186.515 82.2703C186.505 82.1503 186.515 82.0303 186.545 81.9103C186.585 81.7903 186.645 81.6803 186.715 81.5903C186.795 81.4903 186.895 81.4103 187.005 81.3503C187.105 81.2903 187.225 81.2603 187.355 81.2403C187.475 81.2303 187.595 81.2403 187.715 81.2803C187.835 81.3103 187.945 81.3703 188.045 81.4403C188.135 81.5203 188.215 81.6203 188.275 81.7303C188.335 81.8403 188.365 81.9503 188.385 82.0803C188.395 82.2003 188.385 82.3203 188.345 82.4403C188.315 82.5603 188.255 82.6703 188.175 82.7603C188.095 82.8603 188.005 82.9403 187.895 82.9903C187.785 83.0503 187.665 83.0903 187.545 83.1003C187.425 83.1203 187.305 83.1003 187.185 83.0703ZM182.955 83.6603C182.995 83.5103 183.075 83.3703 183.175 83.2503C183.265 83.1303 183.395 83.0303 183.525 82.9503C183.665 82.8803 183.815 82.8303 183.975 82.8103C184.125 82.8003 184.285 82.8103 184.435 82.8603C184.735 82.9503 184.995 83.1503 185.145 83.4303C185.295 83.7103 185.325 84.0303 185.235 84.3303C185.155 84.6403 184.945 84.8903 184.665 85.0403C184.395 85.1903 184.065 85.2303 183.765 85.1403C183.135 84.9503 182.765 84.2903 182.955 83.6603ZM179.975 85.9803C179.635 85.8803 179.355 85.6403 179.185 85.3303C179.015 85.0203 178.975 84.6603 179.075 84.3203C179.175 83.9803 179.405 83.6903 179.715 83.5203C180.025 83.3603 180.395 83.3203 180.735 83.4203C181.075 83.5103 181.365 83.7503 181.535 84.0603C181.705 84.3703 181.745 84.7403 181.645 85.0803C181.545 85.4203 181.315 85.7103 180.995 85.8803C180.685 86.0503 180.315 86.0803 179.975 85.9803ZM176.355 65.8103C175.765 66.1203 175.045 65.9003 174.725 65.3203C174.655 65.1803 174.605 65.0303 174.595 64.8803C174.575 64.7203 174.585 64.5603 174.635 64.4103C174.675 64.2603 174.755 64.1203 174.855 64.0003C174.955 63.8803 175.075 63.7803 175.215 63.7103C175.345 63.6303 175.505 63.5803 175.655 63.5703C175.815 63.5503 175.975 63.5703 176.125 63.6103C176.275 63.6603 176.415 63.7303 176.535 63.8303C176.665 63.9303 176.765 64.0603 176.835 64.1903C177.145 64.7703 176.935 65.4903 176.355 65.8103ZM170.925 73.5203C171.005 73.4803 171.095 73.4503 171.185 73.4403C171.275 73.4403 171.375 73.4403 171.455 73.4703C171.545 73.5003 171.635 73.5403 171.705 73.6003C171.775 73.6603 171.835 73.7303 171.885 73.8103C171.925 73.8903 171.955 73.9803 171.965 74.0703C171.975 74.1603 171.965 74.2503 171.935 74.3403C171.915 74.4303 171.865 74.5103 171.805 74.5803C171.745 74.6503 171.675 74.7103 171.595 74.7503C171.515 74.8003 171.425 74.8303 171.335 74.8403C171.245 74.8503 171.145 74.8403 171.065 74.8203C170.975 74.7903 170.885 74.7503 170.815 74.6903C170.745 74.6303 170.685 74.5603 170.645 74.4803C170.595 74.4003 170.575 74.3103 170.565 74.2203C170.555 74.1203 170.555 74.0303 170.585 73.9403C170.615 73.8603 170.655 73.7703 170.715 73.7003C170.765 73.6303 170.845 73.5703 170.925 73.5203ZM171.105 70.5603C171.215 70.5503 171.325 70.5603 171.435 70.5903C171.535 70.6203 171.635 70.6703 171.715 70.7403C171.805 70.8003 171.875 70.8903 171.925 70.9803C171.975 71.0803 172.005 71.1803 172.015 71.2903C172.025 71.3903 172.015 71.5003 171.985 71.6103C171.955 71.7103 171.905 71.8003 171.835 71.8903C171.765 71.9703 171.685 72.0403 171.585 72.0903C171.495 72.1403 171.385 72.1803 171.285 72.1903C171.175 72.2003 171.065 72.1903 170.965 72.1503C170.855 72.1203 170.765 72.0703 170.675 72.0003C170.595 71.9403 170.525 71.8503 170.475 71.7603C170.425 71.6603 170.395 71.5603 170.385 71.4503C170.375 71.3503 170.385 71.2403 170.415 71.1403C170.445 71.0403 170.495 70.9403 170.555 70.8603C170.625 70.7803 170.705 70.7103 170.805 70.6603C170.895 70.6003 171.005 70.5703 171.105 70.5603ZM171.555 67.9003C171.655 67.8403 171.775 67.8003 171.895 67.7903C172.025 67.7803 172.145 67.7903 172.265 67.8203C172.385 67.8603 172.495 67.9203 172.585 67.9903C172.685 68.0703 172.765 68.1603 172.825 68.2703C172.875 68.3803 172.915 68.5003 172.925 68.6203C172.945 68.7403 172.935 68.8703 172.895 68.9903C172.855 69.1003 172.805 69.2103 172.725 69.3103C172.645 69.4003 172.545 69.4803 172.435 69.5403C171.985 69.7903 171.415 69.6103 171.165 69.1603C171.105 69.0503 171.075 68.9403 171.065 68.8103C171.045 68.6903 171.065 68.5703 171.095 68.4503C171.135 68.3303 171.195 68.2203 171.265 68.1303C171.345 68.0303 171.445 67.9503 171.555 67.9003ZM173.075 65.5103C173.195 65.4403 173.325 65.4003 173.465 65.3903C173.605 65.3703 173.745 65.3903 173.875 65.4303C174.005 65.4703 174.135 65.5303 174.245 65.6203C174.345 65.7103 174.435 65.8203 174.505 65.9403C174.775 66.4403 174.585 67.0903 174.065 67.3603C173.555 67.6403 172.925 67.4503 172.645 66.9403C172.365 66.4203 172.555 65.7903 173.075 65.5103ZM171.905 76.2403C171.975 76.2103 172.045 76.1803 172.125 76.1803C172.205 76.1703 172.285 76.1703 172.355 76.2003C172.425 76.2203 172.495 76.2503 172.555 76.3003C172.615 76.3503 172.665 76.4103 172.705 76.4803C172.745 76.5503 172.765 76.6203 172.775 76.7003C172.775 76.7703 172.775 76.8503 172.745 76.9303C172.725 77.0003 172.695 77.0703 172.645 77.1303C172.595 77.1903 172.535 77.2403 172.465 77.2803C172.175 77.4303 171.825 77.3203 171.665 77.0403C171.635 76.9703 171.605 76.9003 171.605 76.8203C171.595 76.7403 171.595 76.6603 171.625 76.5903C171.645 76.5203 171.685 76.4503 171.725 76.3903C171.775 76.3303 171.835 76.2803 171.905 76.2403ZM185.515 66.4703C185.475 66.3903 185.445 66.3003 185.435 66.2103C185.425 66.1203 185.435 66.0203 185.465 65.9403C185.495 65.8503 185.535 65.7603 185.595 65.6903C185.655 65.6203 185.725 65.5603 185.815 65.5203C185.895 65.4803 185.985 65.4503 186.075 65.4403C186.165 65.4303 186.255 65.4403 186.345 65.4603C186.435 65.4903 186.515 65.5303 186.585 65.5903C186.665 65.6503 186.715 65.7203 186.765 65.8003C186.805 65.8903 186.835 65.9803 186.845 66.0703C186.855 66.1603 186.845 66.2503 186.815 66.3403C186.795 66.4303 186.745 66.5103 186.685 66.5803C186.635 66.6603 186.555 66.7203 186.475 66.7603C186.395 66.8003 186.305 66.8303 186.215 66.8403C186.125 66.8503 186.025 66.8403 185.935 66.8103C185.855 66.7903 185.765 66.7403 185.695 66.6803C185.625 66.6303 185.565 66.5503 185.515 66.4703ZM183.125 64.9603C183.075 64.8603 183.045 64.7603 183.035 64.6503C183.025 64.5403 183.035 64.4303 183.065 64.3303C183.095 64.2303 183.145 64.1303 183.215 64.0503C183.285 63.9603 183.365 63.8903 183.465 63.8403C183.555 63.7903 183.665 63.7603 183.765 63.7503C183.875 63.7403 183.985 63.7503 184.085 63.7803C184.185 63.8103 184.285 63.8603 184.365 63.9303C184.455 64.0003 184.525 64.0803 184.575 64.1803C184.625 64.2703 184.655 64.3703 184.665 64.4803C184.685 64.5903 184.675 64.7003 184.635 64.8003C184.605 64.9003 184.555 65.0003 184.485 65.0803C184.415 65.1703 184.335 65.2303 184.235 65.2803C183.845 65.5003 183.345 65.3603 183.125 64.9603ZM180.365 64.2203C180.305 64.1103 180.265 63.9903 180.255 63.8703C180.245 63.7503 180.255 63.6303 180.285 63.5103C180.325 63.3903 180.385 63.2803 180.455 63.1903C180.535 63.0903 180.635 63.0103 180.745 62.9603C180.845 62.9003 180.965 62.8603 181.095 62.8403C181.215 62.8303 181.335 62.8403 181.455 62.8803C181.575 62.9103 181.685 62.9703 181.775 63.0503C181.875 63.1203 181.955 63.2203 182.015 63.3303C182.075 63.4403 182.105 63.5603 182.115 63.6803C182.135 63.8003 182.115 63.9203 182.085 64.0403C182.045 64.1603 181.985 64.2703 181.905 64.3603C181.835 64.4603 181.735 64.5403 181.625 64.5903C181.515 64.6503 181.405 64.6903 181.275 64.7003C181.155 64.7103 181.035 64.7003 180.915 64.6703C180.795 64.6303 180.685 64.5803 180.595 64.5003C180.495 64.4203 180.425 64.3303 180.365 64.2203ZM177.475 64.3303C177.415 64.2103 177.375 64.0803 177.355 63.9403C177.345 63.8003 177.355 63.6703 177.395 63.5303C177.435 63.4003 177.505 63.2803 177.585 63.1703C177.675 63.0603 177.785 62.9803 177.905 62.9103C178.025 62.8403 178.155 62.8003 178.295 62.7903C178.435 62.7703 178.575 62.7903 178.705 62.8303C178.845 62.8703 178.965 62.9303 179.075 63.0203C179.185 63.1103 179.275 63.2103 179.335 63.3303C179.615 63.8503 179.425 64.4903 178.915 64.7703C178.395 65.0403 177.755 64.8503 177.475 64.3303ZM187.315 68.6203C187.155 68.3403 187.265 67.9803 187.545 67.8203C187.605 67.7803 187.685 67.7603 187.765 67.7603C187.835 67.7503 187.915 67.7603 187.995 67.7803C188.065 67.8003 188.135 67.8403 188.195 67.8903C188.255 67.9403 188.305 68.0003 188.335 68.0703C188.375 68.1403 188.395 68.2103 188.405 68.2903C188.415 68.3603 188.405 68.4403 188.385 68.5103C188.365 68.5903 188.325 68.6503 188.275 68.7103C188.225 68.7703 188.165 68.8203 188.105 68.8503C187.825 69.0103 187.465 68.9003 187.315 68.6203ZM184.805 81.3903C184.665 81.4703 184.505 81.5103 184.355 81.5303C184.195 81.5403 184.035 81.5303 183.885 81.4803C183.735 81.4403 183.595 81.3603 183.475 81.2603C183.355 81.1703 183.255 81.0503 183.175 80.9103C183.095 80.7703 183.055 80.6203 183.035 80.4603C183.015 80.3103 183.035 80.1503 183.075 80.0003C183.115 79.8503 183.195 79.7103 183.295 79.5903C183.395 79.4703 183.515 79.3703 183.655 79.2903C183.795 79.2203 183.945 79.1703 184.105 79.1503C184.255 79.1403 184.415 79.1503 184.565 79.2003C184.725 79.2403 184.865 79.3203 184.985 79.4203C185.105 79.5203 185.205 79.6403 185.285 79.7803C185.595 80.3503 185.375 81.0703 184.805 81.3903ZM174.575 78.8803C174.575 78.9703 174.575 79.0703 174.545 79.1503C174.515 79.2403 174.475 79.3203 174.415 79.3903C174.355 79.4603 174.285 79.5203 174.205 79.5703C173.865 79.7603 173.435 79.6303 173.255 79.2903C173.205 79.2103 173.185 79.1203 173.175 79.0303C173.165 78.9303 173.175 78.8403 173.195 78.7503C173.225 78.6703 173.265 78.5803 173.325 78.5103C173.385 78.4403 173.455 78.3803 173.535 78.3403C173.615 78.3003 173.705 78.2703 173.795 78.2603C173.895 78.2503 173.985 78.2603 174.075 78.2903C174.155 78.3103 174.245 78.3603 174.315 78.4103C174.385 78.4703 174.445 78.5403 174.495 78.6203C174.535 78.7003 174.565 78.7903 174.575 78.8803ZM176.885 80.1403C176.935 80.2303 176.965 80.3403 176.975 80.4503C176.985 80.5503 176.975 80.6603 176.945 80.7703C176.915 80.8703 176.865 80.9703 176.795 81.0503C176.725 81.1303 176.645 81.2003 176.545 81.2603C176.455 81.3103 176.355 81.3403 176.245 81.3503C176.135 81.3603 176.025 81.3503 175.925 81.3203C175.825 81.2903 175.725 81.2303 175.645 81.1703C175.565 81.1003 175.495 81.0103 175.445 80.9203C175.385 80.8203 175.355 80.7203 175.345 80.6103C175.335 80.5103 175.345 80.4003 175.375 80.2903C175.405 80.1903 175.455 80.1003 175.525 80.0103C175.595 79.9303 175.675 79.8603 175.775 79.8103C175.865 79.7603 175.975 79.7303 176.075 79.7203C176.185 79.7103 176.295 79.7203 176.395 79.7503C176.495 79.7803 176.595 79.8303 176.675 79.8903C176.765 79.9603 176.835 80.0503 176.885 80.1403ZM179.655 80.8803C179.715 80.9803 179.755 81.1003 179.765 81.2303C179.775 81.3503 179.765 81.4703 179.725 81.5903C179.695 81.7103 179.635 81.8203 179.555 81.9203C179.475 82.0103 179.375 82.0903 179.265 82.1503C179.055 82.2603 178.805 82.2703 178.565 82.2003C178.335 82.1303 178.145 81.9703 178.025 81.7503C177.915 81.5403 177.885 81.2903 177.945 81.0603C178.015 80.8203 178.165 80.6203 178.375 80.5003C178.835 80.2603 179.415 80.4203 179.655 80.8803ZM182.535 80.7603C182.805 81.2703 182.625 81.9103 182.105 82.1803C181.595 82.4703 180.955 82.2703 180.685 81.7603C180.615 81.6403 180.575 81.5103 180.555 81.3703C180.545 81.2303 180.555 81.0903 180.595 80.9603C180.635 80.8303 180.695 80.7003 180.785 80.6003C180.865 80.4903 180.975 80.4003 181.095 80.3303C181.225 80.2703 181.355 80.2303 181.495 80.2103C181.635 80.2003 181.775 80.2103 181.905 80.2503C182.035 80.2903 182.165 80.3603 182.265 80.4403C182.375 80.5303 182.465 80.6403 182.535 80.7603ZM189.075 71.5803C188.745 71.7603 188.315 71.6303 188.135 71.2903C188.095 71.2103 188.065 71.1203 188.055 71.0303C188.045 70.9303 188.055 70.8403 188.075 70.7503C188.105 70.6603 188.145 70.5803 188.205 70.5103C188.265 70.4403 188.335 70.3803 188.425 70.3403C188.505 70.2903 188.595 70.2703 188.685 70.2603C188.775 70.2503 188.865 70.2603 188.955 70.2803C189.045 70.3103 189.125 70.3503 189.195 70.4103C189.275 70.4703 189.335 70.5403 189.375 70.6203C189.555 70.9503 189.425 71.3803 189.075 71.5803ZM189.215 74.4403C188.815 74.6503 188.305 74.5103 188.095 74.1203C187.885 73.7103 188.025 73.2203 188.425 73.0003C188.525 72.9503 188.625 72.9203 188.735 72.9103C188.835 72.9003 188.945 72.9103 189.055 72.9403C189.155 72.9703 189.245 73.0203 189.335 73.0903C189.415 73.1603 189.485 73.2403 189.535 73.3403C189.585 73.4303 189.625 73.5303 189.635 73.6403C189.645 73.7503 189.635 73.8503 189.605 73.9603C189.575 74.0603 189.525 74.1603 189.455 74.2403C189.385 74.3203 189.305 74.3903 189.215 74.4403ZM188.455 77.2003C188.015 77.4503 187.445 77.2803 187.195 76.8303C187.135 76.7203 187.095 76.6003 187.085 76.4803C187.075 76.3503 187.085 76.2303 187.115 76.1103C187.155 75.9903 187.215 75.8803 187.295 75.7903C187.375 75.6903 187.465 75.6103 187.575 75.5503C187.685 75.4903 187.805 75.4603 187.925 75.4503C188.045 75.4303 188.175 75.4403 188.295 75.4803C188.405 75.5203 188.515 75.5703 188.615 75.6503C188.715 75.7303 188.785 75.8203 188.845 75.9303C188.905 76.0403 188.945 76.1603 188.955 76.2803C188.965 76.4103 188.955 76.5303 188.915 76.6503C188.885 76.7703 188.825 76.8803 188.745 76.9703C188.665 77.0703 188.565 77.1503 188.455 77.2003ZM186.945 79.5803C186.425 79.8603 185.785 79.6703 185.515 79.1603C185.445 79.0403 185.405 78.9003 185.395 78.7703C185.375 78.6303 185.395 78.4903 185.435 78.3603C185.465 78.2203 185.535 78.1003 185.625 77.9903C185.715 77.8903 185.815 77.8003 185.945 77.7303C186.065 77.6703 186.195 77.6303 186.335 77.6103C186.475 77.6003 186.615 77.6103 186.745 77.6503C186.875 77.6903 186.995 77.7603 187.105 77.8403C187.215 77.9303 187.305 78.0403 187.375 78.1603C187.645 78.6703 187.455 79.3203 186.945 79.5803ZM206.255 75.3803C205.885 75.2303 205.545 75.0003 205.265 74.7203C204.975 74.4303 204.755 74.0903 204.595 73.7203C204.445 73.3503 204.365 72.9503 204.365 72.5503C204.365 72.1503 204.445 71.7503 204.595 71.3803C204.755 71.0103 204.975 70.6703 205.265 70.3903C205.545 70.1003 205.885 69.8803 206.255 69.7303C206.635 69.5703 207.035 69.5003 207.435 69.5003C207.835 69.5003 208.235 69.5703 208.605 69.7303C208.975 69.8803 209.315 70.1003 209.605 70.3903C209.885 70.6703 210.115 71.0103 210.265 71.3803C210.425 71.7503 210.505 72.1503 210.505 72.5603C210.505 72.9603 210.425 73.3603 210.265 73.7303C210.115 74.1003 209.885 74.4403 209.595 74.7203C209.315 75.0003 208.975 75.2303 208.605 75.3803C208.225 75.5403 207.835 75.6103 207.425 75.6103C207.025 75.6103 206.625 75.5303 206.255 75.3803ZM195.375 49.2303C195.325 49.4503 195.245 49.6603 195.115 49.8403C194.985 50.0203 194.825 50.1803 194.645 50.3003C194.455 50.4203 194.245 50.5003 194.025 50.5403C193.805 50.5803 193.585 50.5803 193.365 50.5303C193.155 50.4903 192.945 50.4003 192.765 50.2703C192.575 50.1503 192.425 49.9903 192.295 49.8003C192.175 49.6103 192.095 49.4103 192.055 49.1903C192.015 48.9703 192.015 48.7503 192.065 48.5303C192.105 48.3103 192.195 48.1003 192.325 47.9203C192.455 47.7403 192.615 47.5803 192.795 47.4603C192.985 47.3403 193.195 47.2603 193.415 47.2203C193.635 47.1803 193.855 47.1903 194.075 47.2303C194.285 47.2803 194.495 47.3703 194.675 47.4903C194.865 47.6203 195.015 47.7803 195.145 47.9603C195.265 48.1503 195.345 48.3603 195.385 48.5703C195.425 48.7903 195.425 49.0203 195.375 49.2303ZM201.425 53.5503C201.385 53.8103 201.285 54.0703 201.145 54.3003C201.005 54.5303 200.825 54.7303 200.605 54.8803C200.385 55.0403 200.135 55.1603 199.875 55.2203C199.615 55.2803 199.345 55.2903 199.075 55.2503C198.545 55.1603 198.065 54.8703 197.745 54.4303C197.425 53.9903 197.295 53.4403 197.385 52.9103C197.465 52.3703 197.765 51.8903 198.195 51.5703C198.635 51.2603 199.185 51.1303 199.725 51.2103C199.985 51.2503 200.245 51.3403 200.475 51.4803C200.705 51.6203 200.895 51.8103 201.055 52.0303C201.215 52.2403 201.335 52.4903 201.395 52.7503C201.455 53.0103 201.465 53.2803 201.425 53.5503ZM206.295 59.1603C206.225 59.8203 205.885 60.4403 205.355 60.8603C204.835 61.2803 204.165 61.4803 203.495 61.4103C202.825 61.3403 202.205 61.0103 201.775 60.4803C201.355 59.9603 201.145 59.2903 201.205 58.6203C201.245 58.2903 201.345 57.9703 201.505 57.6703C201.665 57.3803 201.885 57.1203 202.145 56.9003C202.405 56.6903 202.705 56.5403 203.035 56.4403C203.355 56.3503 203.695 56.3203 204.025 56.3503C204.355 56.3903 204.685 56.4803 204.975 56.6403C205.275 56.8003 205.535 57.0203 205.745 57.2803C205.955 57.5403 206.115 57.8403 206.205 58.1603C206.305 58.4803 206.335 58.8203 206.295 59.1603ZM209.325 65.6203C209.305 65.9903 209.205 66.3603 209.045 66.6903C208.885 67.0203 208.665 67.3203 208.385 67.5703C208.115 67.8203 207.795 68.0103 207.445 68.1303C207.095 68.2503 206.725 68.3103 206.355 68.2903C205.605 68.2503 204.915 67.9103 204.415 67.3603C203.915 66.8003 203.655 66.0703 203.695 65.3303C203.735 64.5903 204.075 63.8903 204.625 63.3903C205.185 62.8903 205.905 62.6303 206.655 62.6703C207.025 62.6903 207.385 62.7803 207.715 62.9403C208.055 63.1003 208.355 63.3203 208.605 63.5903C208.845 63.8703 209.045 64.1903 209.165 64.5403C209.285 64.8903 209.345 65.2603 209.325 65.6303V65.6203ZM181.145 45.7003C181.075 45.8503 180.985 45.9803 180.875 46.0903C180.755 46.2103 180.625 46.3003 180.475 46.3603C180.325 46.4203 180.165 46.4503 180.005 46.4503C179.665 46.4703 179.345 46.3403 179.105 46.1103C178.865 45.8803 178.725 45.5603 178.725 45.2303C178.725 44.8903 178.865 44.5703 179.105 44.3403C179.345 44.1103 179.665 43.9903 180.005 44.0003C180.685 44.0003 181.235 44.5503 181.235 45.2303C181.235 45.3903 181.205 45.5503 181.145 45.7003ZM193.365 94.5803C193.585 94.5303 193.805 94.5303 194.025 94.5703C194.245 94.6103 194.455 94.6903 194.635 94.8103C194.825 94.9303 194.985 95.0903 195.115 95.2703C195.245 95.4503 195.325 95.6603 195.375 95.8703C195.425 96.0903 195.425 96.3203 195.385 96.5303C195.345 96.7503 195.265 96.9603 195.145 97.1503C195.015 97.3303 194.865 97.4903 194.675 97.6203C194.495 97.7503 194.285 97.8303 194.075 97.8803C193.855 97.9303 193.635 97.9303 193.415 97.8903C193.195 97.8503 192.985 97.7703 192.795 97.6503C192.615 97.5303 192.445 97.3703 192.325 97.1903C192.195 97.0003 192.105 96.8003 192.065 96.5803C192.015 96.3603 192.015 96.1403 192.055 95.9203C192.095 95.7003 192.175 95.4903 192.295 95.3103C192.425 95.1203 192.575 94.9603 192.765 94.8303C192.945 94.7103 193.155 94.6203 193.365 94.5803ZM199.075 89.8603C199.345 89.8203 199.615 89.8303 199.875 89.8903C200.135 89.9503 200.385 90.0703 200.605 90.2203C200.825 90.3803 201.005 90.5803 201.145 90.8103C201.285 91.0403 201.385 91.2903 201.425 91.5603C201.465 91.8203 201.455 92.1003 201.395 92.3603C201.335 92.6203 201.215 92.8703 201.055 93.0803C200.895 93.3003 200.695 93.4803 200.465 93.6203C200.235 93.7603 199.985 93.8603 199.715 93.9003C199.455 93.9403 199.185 93.9303 198.915 93.8703C198.655 93.8103 198.415 93.6903 198.195 93.5403C197.975 93.3803 197.785 93.1803 197.645 92.9503C197.505 92.7203 197.415 92.4603 197.375 92.2003C197.325 91.9303 197.345 91.6603 197.405 91.4003C197.465 91.1403 197.585 90.8903 197.735 90.6803C197.895 90.4603 198.095 90.2703 198.325 90.1303C198.555 89.9903 198.815 89.9003 199.075 89.8603ZM203.485 83.6803C203.825 83.6503 204.155 83.6803 204.475 83.7703C204.805 83.8703 205.105 84.0203 205.365 84.2403C205.625 84.4503 205.845 84.7103 206.005 85.0003C206.165 85.3003 206.265 85.6203 206.295 85.9503C206.335 86.2903 206.305 86.6203 206.205 86.9503C206.115 87.2703 205.955 87.5703 205.745 87.8303C205.535 88.0903 205.275 88.3003 204.975 88.4603C204.675 88.6203 204.355 88.7203 204.025 88.7503C203.685 88.7903 203.355 88.7603 203.025 88.6603C202.705 88.5703 202.405 88.4103 202.145 88.2003C201.885 87.9903 201.665 87.7303 201.505 87.4403C201.345 87.1403 201.245 86.8203 201.205 86.4903C201.175 86.1503 201.205 85.8103 201.305 85.4903C201.395 85.1703 201.555 84.8703 201.765 84.6103C201.985 84.3503 202.245 84.1403 202.535 83.9803C202.835 83.8203 203.155 83.7203 203.485 83.6803ZM206.355 76.8203C206.725 76.8003 207.095 76.8503 207.445 76.9803C207.785 77.1003 208.115 77.2903 208.385 77.5403C208.665 77.7803 208.885 78.0803 209.045 78.4203C209.205 78.7503 209.305 79.1103 209.325 79.4803C209.345 79.8503 209.285 80.2203 209.165 80.5703C209.035 80.9203 208.845 81.2403 208.605 81.5103C208.355 81.7803 208.055 82.0103 207.725 82.1703C207.385 82.3203 207.025 82.4103 206.655 82.4303C205.915 82.4703 205.185 82.2203 204.625 81.7203C204.075 81.2203 203.735 80.5203 203.695 79.7803C203.655 79.0303 203.915 78.3003 204.415 77.7503C204.915 77.2003 205.605 76.8603 206.355 76.8203ZM180.005 98.6603C180.165 98.6603 180.325 98.6903 180.475 98.7503C180.625 98.8103 180.755 98.9003 180.875 99.0103C180.985 99.1303 181.075 99.2603 181.145 99.4103C181.205 99.5603 181.235 99.7203 181.235 99.8803C181.235 100.04 181.205 100.2 181.145 100.35C181.075 100.5 180.985 100.64 180.875 100.75C180.755 100.87 180.625 100.96 180.475 101.02C180.325 101.08 180.165 101.11 180.005 101.11C179.835 101.11 179.675 101.08 179.525 101.02C179.385 100.96 179.245 100.87 179.135 100.75C179.015 100.64 178.925 100.5 178.865 100.35C178.805 100.2 178.765 100.04 178.765 99.8803C178.765 99.7203 178.805 99.5603 178.865 99.4103C178.925 99.2603 179.015 99.1303 179.135 99.0103C179.245 98.9003 179.385 98.8103 179.535 98.7503C179.675 98.6903 179.835 98.6603 180.005 98.6603ZM152.575 75.6103C152.175 75.6103 151.775 75.5303 151.405 75.3803C151.025 75.2303 150.695 75.0003 150.405 74.7203C150.115 74.4403 149.895 74.1003 149.735 73.7303C149.585 73.3603 149.505 72.9603 149.505 72.5503C149.505 72.1503 149.585 71.7503 149.735 71.3803C149.895 71.0103 150.115 70.6703 150.405 70.3903C150.685 70.1003 151.025 69.8803 151.395 69.7303C151.775 69.5703 152.175 69.5003 152.575 69.5003C152.975 69.5003 153.375 69.5703 153.745 69.7303C154.115 69.8803 154.455 70.1103 154.735 70.3903C155.025 70.6703 155.245 71.0103 155.405 71.3803C155.555 71.7503 155.635 72.1503 155.635 72.5503C155.635 72.9503 155.555 73.3503 155.405 73.7203C155.245 74.0903 155.025 74.4303 154.735 74.7203C154.455 75.0003 154.115 75.2303 153.745 75.3803C153.375 75.5303 152.975 75.6103 152.575 75.6103ZM166.635 50.5303C166.195 50.6203 165.735 50.5403 165.365 50.3003C164.985 50.0503 164.725 49.6703 164.635 49.2303C164.535 48.8003 164.625 48.3403 164.865 47.9603C165.105 47.5903 165.495 47.3203 165.935 47.2303C166.365 47.1503 166.805 47.2503 167.165 47.4903C167.535 47.7403 167.785 48.1103 167.875 48.5403C167.975 48.9703 167.895 49.4203 167.655 49.7903C167.425 50.1603 167.055 50.4303 166.635 50.5303ZM160.925 55.2503C160.665 55.2903 160.385 55.2803 160.125 55.2203C159.865 55.1603 159.615 55.0403 159.405 54.8803C159.185 54.7303 158.995 54.5303 158.855 54.3003C158.715 54.0703 158.625 53.8103 158.585 53.5503C158.535 53.2803 158.545 53.0103 158.605 52.7503C158.675 52.4903 158.785 52.2403 158.945 52.0203C159.105 51.8103 159.305 51.6203 159.535 51.4803C159.765 51.3403 160.015 51.2503 160.285 51.2103C160.805 51.1403 161.335 51.2903 161.765 51.6003C162.185 51.9203 162.465 52.3903 162.555 52.9203C162.635 53.4403 162.515 53.9803 162.215 54.4103C161.905 54.8503 161.445 55.1503 160.925 55.2503ZM156.515 61.4203C156.175 61.4603 155.845 61.4303 155.515 61.3303C155.195 61.2403 154.895 61.0803 154.635 60.8703C154.375 60.6603 154.155 60.4003 153.995 60.1103C153.835 59.8103 153.735 59.4903 153.705 59.1603C153.665 58.8203 153.695 58.4803 153.795 58.1603C153.885 57.8403 154.045 57.5403 154.255 57.2803C154.465 57.0203 154.725 56.8003 155.025 56.6403C155.315 56.4803 155.645 56.3803 155.975 56.3503C156.315 56.3203 156.645 56.3503 156.975 56.4403C157.295 56.5403 157.595 56.6903 157.855 56.9003C158.115 57.1203 158.335 57.3803 158.495 57.6703C158.655 57.9703 158.755 58.2903 158.795 58.6203C158.825 58.9603 158.795 59.2903 158.695 59.6103C158.605 59.9403 158.445 60.2403 158.235 60.5003C158.025 60.7603 157.755 60.9703 157.465 61.1303C157.165 61.2903 156.845 61.3903 156.515 61.4303V61.4203ZM153.645 68.2903C153.275 68.3103 152.905 68.2503 152.565 68.1303C152.215 68.0103 151.885 67.8203 151.615 67.5703C151.335 67.3203 151.115 67.0203 150.955 66.6903C150.795 66.3603 150.695 65.9903 150.675 65.6203C150.665 65.2503 150.715 64.8903 150.835 64.5403C150.965 64.1903 151.155 63.8703 151.405 63.6003C151.645 63.3203 151.945 63.1003 152.285 62.9403C152.615 62.7803 152.975 62.6903 153.345 62.6703C153.715 62.6503 154.085 62.7003 154.435 62.8203C154.785 62.9503 155.105 63.1403 155.385 63.3803C155.665 63.6303 155.885 63.9303 156.045 64.2603C156.205 64.6003 156.295 64.9603 156.315 65.3303C156.335 65.7003 156.285 66.0703 156.155 66.4203C156.035 66.7703 155.845 67.0903 155.595 67.3603C155.345 67.6403 155.045 67.8603 154.715 68.0203C154.375 68.1803 154.015 68.2703 153.645 68.2903ZM164.625 95.8703C164.675 95.6603 164.765 95.4503 164.885 95.2703C165.015 95.0903 165.175 94.9303 165.365 94.8103C165.545 94.6903 165.755 94.6103 165.975 94.5703C166.195 94.5303 166.415 94.5303 166.635 94.5803C167.065 94.6703 167.445 94.9403 167.685 95.3103C167.925 95.6903 168.005 96.1403 167.915 96.5803C167.825 97.0103 167.565 97.3903 167.195 97.6403C166.815 97.8803 166.365 97.9703 165.925 97.8803C165.715 97.8303 165.505 97.7503 165.325 97.6203C165.135 97.4903 164.985 97.3303 164.865 97.1503C164.745 96.9603 164.655 96.7503 164.615 96.5303C164.575 96.3203 164.585 96.0903 164.625 95.8703ZM158.585 91.5603C158.625 91.2903 158.715 91.0403 158.855 90.8103C158.995 90.5803 159.185 90.3803 159.405 90.2203C159.615 90.0703 159.865 89.9503 160.125 89.8903C160.385 89.8303 160.665 89.8203 160.925 89.8603C161.195 89.9003 161.445 89.9903 161.675 90.1303C161.905 90.2703 162.105 90.4603 162.265 90.6803C162.425 90.8903 162.535 91.1403 162.605 91.4003C162.665 91.6603 162.675 91.9303 162.635 92.2003C162.595 92.4603 162.495 92.7203 162.355 92.9503C162.215 93.1803 162.035 93.3803 161.815 93.5403C161.595 93.6903 161.345 93.8103 161.085 93.8703C160.825 93.9303 160.545 93.9403 160.285 93.9003C160.015 93.8603 159.765 93.7603 159.535 93.6203C159.305 93.4803 159.105 93.3003 158.945 93.0803C158.785 92.8703 158.675 92.6203 158.615 92.3603C158.545 92.1003 158.535 91.8303 158.585 91.5603ZM153.705 85.9503C153.735 85.6203 153.835 85.3003 153.995 85.0003C154.155 84.7103 154.375 84.4503 154.635 84.2403C154.895 84.0203 155.195 83.8703 155.525 83.7703C155.845 83.6803 156.175 83.6503 156.515 83.6803C156.845 83.7203 157.165 83.8203 157.465 83.9803C157.755 84.1403 158.015 84.3503 158.235 84.6103C158.445 84.8703 158.605 85.1703 158.695 85.4903C158.795 85.8103 158.825 86.1503 158.795 86.4803C158.755 86.8203 158.655 87.1403 158.495 87.4403C158.335 87.7303 158.115 87.9903 157.855 88.2003C157.595 88.4103 157.295 88.5703 156.975 88.6703C156.645 88.7603 156.315 88.7903 155.975 88.7503C155.645 88.7203 155.325 88.6203 155.025 88.4603C154.735 88.3003 154.465 88.0903 154.255 87.8303C154.045 87.5703 153.885 87.2703 153.795 86.9403C153.695 86.6203 153.665 86.2903 153.705 85.9503ZM150.675 79.4803C150.695 79.1103 150.795 78.7503 150.955 78.4203C151.115 78.0803 151.335 77.7803 151.615 77.5403C151.885 77.2903 152.215 77.1003 152.555 76.9803C152.905 76.8503 153.275 76.8003 153.645 76.8203C154.015 76.8403 154.375 76.9303 154.715 77.0903C155.045 77.2503 155.345 77.4703 155.595 77.7503C155.845 78.0203 156.035 78.3403 156.155 78.6903C156.285 79.0403 156.335 79.4103 156.315 79.7803C156.295 80.1403 156.205 80.5103 156.045 80.8403C155.885 81.1803 155.665 81.4703 155.385 81.7203C155.105 81.9703 154.785 82.1603 154.435 82.2803C154.085 82.4003 153.715 82.4503 153.345 82.4303C152.975 82.4103 152.615 82.3203 152.285 82.1703C151.945 82.0103 151.645 81.7803 151.405 81.5103C151.155 81.2403 150.965 80.9203 150.835 80.5703C150.715 80.2203 150.665 79.8503 150.675 79.4803ZM186.755 97.6803C186.925 97.6303 187.095 97.6203 187.275 97.6403C187.445 97.6703 187.615 97.7203 187.765 97.8103C187.915 97.9003 188.045 98.0103 188.155 98.1503C188.255 98.2903 188.335 98.4403 188.385 98.6103C188.575 99.3203 188.155 100.04 187.445 100.23C186.735 100.41 186.015 100 185.825 99.3003C185.775 99.1303 185.765 98.9503 185.785 98.7803C185.805 98.6103 185.865 98.4403 185.955 98.2903C186.045 98.1403 186.155 98.0103 186.295 97.9103C186.435 97.8003 186.585 97.7203 186.755 97.6803ZM173.245 97.6803C173.415 97.7203 173.565 97.8003 173.705 97.9003C173.845 98.0103 173.965 98.1403 174.045 98.2903C174.135 98.4403 174.195 98.6103 174.215 98.7803C174.235 98.9503 174.225 99.1303 174.185 99.2903C174.135 99.4603 174.055 99.6203 173.955 99.7603C173.845 99.8903 173.715 100.01 173.565 100.1C173.415 100.18 173.245 100.24 173.075 100.26C172.905 100.28 172.725 100.27 172.555 100.22C172.225 100.13 171.935 99.9103 171.765 99.6103C171.585 99.3103 171.535 98.9503 171.625 98.6103C171.715 98.2703 171.945 97.9903 172.245 97.8103C172.545 97.6403 172.905 97.5903 173.245 97.6803ZM188.385 46.5003C188.335 46.6703 188.255 46.8203 188.155 46.9603C188.045 47.1003 187.915 47.2103 187.765 47.3003C187.615 47.3903 187.445 47.4403 187.275 47.4603C187.105 47.4903 186.925 47.4803 186.755 47.4303C186.425 47.3403 186.135 47.1203 185.955 46.8203C185.785 46.5103 185.735 46.1503 185.825 45.8203C185.915 45.4803 186.135 45.1903 186.445 45.0203C186.745 44.8403 187.105 44.8003 187.445 44.8903C187.605 44.9303 187.765 45.0103 187.905 45.1103C188.045 45.2103 188.165 45.3503 188.245 45.5003C188.335 45.6503 188.395 45.8103 188.415 45.9803C188.435 46.1603 188.425 46.3303 188.385 46.5003ZM174.185 45.8103C174.265 46.1503 174.205 46.5003 174.025 46.8003C173.855 47.0903 173.565 47.3103 173.235 47.4003C172.895 47.4903 172.545 47.4403 172.245 47.2703C171.945 47.1003 171.725 46.8303 171.625 46.5003C171.575 46.3303 171.565 46.1503 171.585 45.9803C171.615 45.8103 171.665 45.6403 171.755 45.4903C171.845 45.3503 171.955 45.2103 172.095 45.1103C172.235 45.0003 172.395 44.9303 172.555 44.8803C172.725 44.8403 172.905 44.8303 173.075 44.8503C173.245 44.8703 173.415 44.9303 173.565 45.0103C173.715 45.1003 173.845 45.2103 173.955 45.3503C174.055 45.4903 174.135 45.6503 174.185 45.8103ZM199.705 66.4903C199.385 66.5003 199.075 66.4403 198.785 66.3203C198.485 66.2103 198.225 66.0403 197.995 65.8203C197.775 65.6003 197.595 65.3403 197.465 65.0503C197.345 64.7603 197.275 64.4503 197.265 64.1403C197.265 63.8203 197.325 63.5103 197.435 63.2203C197.555 62.9303 197.725 62.6603 197.945 62.4403C198.165 62.2103 198.435 62.0303 198.725 61.9103C199.005 61.7903 199.315 61.7203 199.635 61.7203C199.945 61.7103 200.255 61.7703 200.555 61.8803C200.845 62.0003 201.115 62.1703 201.335 62.3903C201.565 62.6103 201.745 62.8703 201.865 63.1603C201.995 63.4503 202.055 63.7603 202.065 64.0703C202.065 64.3903 202.015 64.7003 201.895 64.9903C201.775 65.2803 201.605 65.5503 201.385 65.7703C201.165 66.0003 200.905 66.1803 200.615 66.3003C200.325 66.4203 200.015 66.4903 199.705 66.4903ZM183.785 51.1003C183.825 51.2703 183.815 51.4403 183.785 51.6103C183.755 51.7803 183.685 51.9503 183.585 52.0903C183.495 52.2303 183.365 52.3603 183.225 52.4503C183.085 52.5503 182.915 52.6103 182.745 52.6503C182.035 52.7903 181.335 52.3303 181.195 51.6203C181.155 51.4503 181.155 51.2703 181.195 51.1003C181.225 50.9303 181.295 50.7703 181.385 50.6203C181.485 50.4803 181.605 50.3603 181.755 50.2603C181.895 50.1603 182.065 50.1003 182.235 50.0703C182.405 50.0303 182.575 50.0303 182.745 50.0603C182.915 50.1003 183.075 50.1603 183.225 50.2603C183.365 50.3603 183.495 50.4803 183.585 50.6203C183.685 50.7703 183.755 50.9303 183.785 51.1003ZM189.465 52.3303C189.515 52.5303 189.525 52.7403 189.495 52.9503C189.465 53.1603 189.395 53.3603 189.285 53.5403C189.185 53.7203 189.035 53.8803 188.875 54.0003C188.705 54.1303 188.515 54.2203 188.305 54.2703C188.105 54.3203 187.895 54.3303 187.685 54.3103C187.475 54.2803 187.275 54.2103 187.095 54.1003C186.915 53.9903 186.755 53.8503 186.625 53.6803C186.505 53.5203 186.415 53.3203 186.355 53.1203C186.305 52.9203 186.295 52.7003 186.325 52.5003C186.355 52.2903 186.425 52.0903 186.535 51.9103C186.645 51.7303 186.785 51.5703 186.955 51.4403C187.115 51.3203 187.315 51.2303 187.515 51.1803C187.715 51.1303 187.935 51.1103 188.135 51.1403C188.345 51.1703 188.545 51.2403 188.725 51.3503C188.915 51.4603 189.065 51.6003 189.195 51.7703C189.325 51.9403 189.415 52.1303 189.465 52.3303ZM194.695 54.8503C194.775 55.1003 194.805 55.3603 194.775 55.6203C194.755 55.8803 194.685 56.1303 194.555 56.3703C194.435 56.6003 194.275 56.8003 194.075 56.9703C193.865 57.1403 193.635 57.2603 193.385 57.3403C193.135 57.4203 192.875 57.4503 192.615 57.4203C192.355 57.4003 192.095 57.3203 191.865 57.2003C191.635 57.0803 191.425 56.9203 191.255 56.7203C191.085 56.5203 190.965 56.2803 190.885 56.0303C190.805 55.7803 190.775 55.5203 190.805 55.2603C190.825 55.0003 190.895 54.7503 191.025 54.5103C191.145 54.2803 191.315 54.0803 191.515 53.9103C191.715 53.7403 191.945 53.6203 192.195 53.5403C192.445 53.4603 192.705 53.4303 192.975 53.4603C193.235 53.4803 193.485 53.5503 193.715 53.6803C193.955 53.8003 194.155 53.9603 194.325 54.1603C194.495 54.3603 194.615 54.6003 194.695 54.8503ZM199.005 59.4003C198.995 59.6903 198.925 59.9803 198.805 60.2403C198.685 60.5003 198.515 60.7303 198.305 60.9303C198.085 61.1303 197.845 61.2803 197.575 61.3803C197.295 61.4803 197.015 61.5203 196.725 61.5103C196.435 61.5003 196.145 61.4303 195.885 61.3103C195.625 61.1903 195.385 61.0203 195.195 60.8103C194.995 60.6003 194.845 60.3503 194.745 60.0803C194.635 59.8103 194.595 59.5203 194.605 59.2303C194.615 58.9403 194.685 58.6603 194.805 58.4003C194.925 58.1303 195.095 57.9003 195.315 57.7003C195.525 57.5103 195.775 57.3603 196.045 57.2603C196.315 57.1603 196.605 57.1103 196.895 57.1203C197.185 57.1303 197.465 57.2003 197.725 57.3203C197.995 57.4403 198.225 57.6103 198.425 57.8203C198.615 58.0403 198.775 58.2903 198.875 58.5603C198.975 58.8303 199.015 59.1103 199.005 59.4003ZM172.405 52.5903C172.455 52.7003 172.485 52.8203 172.485 52.9503C172.485 53.0803 172.465 53.2003 172.415 53.3203C172.365 53.4303 172.295 53.5403 172.215 53.6303C172.125 53.7203 172.015 53.7903 171.905 53.8403C171.785 53.8903 171.665 53.9203 171.535 53.9203C171.405 53.9203 171.285 53.9003 171.165 53.8503C171.045 53.8103 170.945 53.7403 170.855 53.6503C170.765 53.5603 170.685 53.4603 170.635 53.3403C170.585 53.2303 170.555 53.1003 170.555 52.9803C170.555 52.8503 170.575 52.7303 170.625 52.6103C170.675 52.4903 170.735 52.3803 170.825 52.2903C170.915 52.2003 171.025 52.1303 171.135 52.0803C171.255 52.0303 171.375 52.0103 171.505 52.0003C171.635 52.0003 171.755 52.0203 171.875 52.0703C171.995 52.1203 172.105 52.1903 172.195 52.2703C172.285 52.3603 172.355 52.4703 172.405 52.5903ZM196.415 84.2303C196.565 84.1303 196.725 84.0503 196.885 84.0203C197.055 83.9803 197.235 83.9703 197.405 84.0003C197.575 84.0303 197.735 84.0903 197.885 84.1903C198.035 84.2803 198.165 84.4003 198.265 84.5403C198.365 84.6803 198.435 84.8403 198.475 85.0103C198.515 85.1803 198.515 85.3503 198.485 85.5203C198.465 85.6903 198.395 85.8603 198.305 86.0003C198.215 86.1503 198.095 86.2803 197.955 86.3803C197.805 86.4803 197.645 86.5503 197.475 86.5903C197.305 86.6303 197.135 86.6303 196.965 86.6003C196.795 86.5703 196.625 86.5103 196.475 86.4203C196.335 86.3203 196.205 86.2003 196.105 86.0603C196.005 85.9203 195.935 85.7603 195.895 85.5903C195.855 85.4203 195.855 85.2503 195.875 85.0803C195.905 84.9103 195.975 84.7403 196.065 84.6003C196.155 84.4503 196.275 84.3203 196.415 84.2303ZM199.055 79.0803C199.225 78.9703 199.425 78.9003 199.635 78.8603C199.845 78.8303 200.055 78.8303 200.255 78.8803C200.465 78.9203 200.655 79.0103 200.825 79.1303C201.005 79.2503 201.145 79.4003 201.265 79.5803C201.375 79.7603 201.455 79.9603 201.485 80.1603C201.525 80.3703 201.515 80.5803 201.475 80.7903C201.425 80.9903 201.335 81.1803 201.215 81.3603C201.095 81.5303 200.945 81.6703 200.765 81.7803C200.585 81.9003 200.385 81.9703 200.185 82.0103C199.975 82.0403 199.765 82.0403 199.555 81.9903C199.355 81.9503 199.155 81.8603 198.985 81.7403C198.815 81.6203 198.665 81.4703 198.555 81.2903C198.435 81.1103 198.365 80.9103 198.325 80.7103C198.295 80.5003 198.295 80.2903 198.345 80.0803C198.385 79.8803 198.475 79.6903 198.595 79.5103C198.715 79.3403 198.875 79.2003 199.045 79.0903L199.055 79.0803ZM200.295 73.3003C200.525 73.1703 200.775 73.0903 201.035 73.0603C201.295 73.0303 201.555 73.0503 201.815 73.1203C202.065 73.1903 202.305 73.3103 202.505 73.4703C202.715 73.6303 202.885 73.8303 203.015 74.0603C203.145 74.2903 203.225 74.5403 203.255 74.8003C203.285 75.0603 203.265 75.3203 203.195 75.5703C203.125 75.8203 203.005 76.0603 202.845 76.2603C202.685 76.4703 202.475 76.6403 202.255 76.7703C202.025 76.9003 201.775 76.9803 201.515 77.0103C201.255 77.0403 200.985 77.0203 200.735 76.9503C200.485 76.8803 200.245 76.7603 200.035 76.6003C199.835 76.4403 199.655 76.2403 199.535 76.0103C199.405 75.7803 199.315 75.5303 199.285 75.2703C199.255 75.0103 199.275 74.7503 199.345 74.5003C199.425 74.2403 199.545 74.0103 199.705 73.8003C199.865 73.6003 200.065 73.4303 200.295 73.3003ZM201.045 67.2703C201.335 67.2503 201.625 67.2903 201.895 67.3803C202.175 67.4803 202.425 67.6203 202.645 67.8103C202.865 68.0003 203.045 68.2303 203.175 68.4903C203.305 68.7503 203.375 69.0303 203.395 69.3203C203.415 69.6003 203.385 69.8903 203.285 70.1703C203.195 70.4403 203.045 70.6903 202.855 70.9103C202.665 71.1203 202.435 71.3003 202.175 71.4303C201.655 71.6903 201.055 71.7303 200.505 71.5403C199.945 71.3603 199.495 70.9603 199.235 70.4403C198.975 69.9203 198.935 69.3203 199.115 68.7603C199.305 68.2103 199.695 67.7603 200.215 67.5003C200.475 67.3703 200.755 67.2903 201.045 67.2703ZM188.105 91.2703C188.335 91.1703 188.605 91.1603 188.835 91.2603C189.075 91.3503 189.265 91.5403 189.365 91.7703C189.465 92.0003 189.465 92.2703 189.375 92.5003C189.285 92.7403 189.095 92.9303 188.865 93.0303C188.745 93.0803 188.625 93.1103 188.495 93.1103C188.375 93.1103 188.245 93.0903 188.125 93.0403C188.015 92.9903 187.905 92.9203 187.815 92.8403C187.725 92.7503 187.645 92.6403 187.605 92.5303C187.555 92.4103 187.525 92.2903 187.525 92.1603C187.515 92.0403 187.545 91.9103 187.585 91.7903C187.635 91.6803 187.705 91.5703 187.795 91.4803C187.885 91.3903 187.985 91.3203 188.105 91.2703ZM161.285 83.2003C160.995 83.3203 160.685 83.3903 160.375 83.3903C160.055 83.4003 159.745 83.3403 159.455 83.2303C159.165 83.1103 158.895 82.9403 158.665 82.7203C158.445 82.5003 158.255 82.2403 158.135 81.9503C158.005 81.6603 157.945 81.3503 157.935 81.0403C157.935 80.7303 157.995 80.4103 158.105 80.1203C158.225 79.8303 158.395 79.5603 158.615 79.3403C158.835 79.1103 159.095 78.9403 159.385 78.8103C159.675 78.6903 159.985 78.6203 160.305 78.6203C160.615 78.6103 160.925 78.6703 161.215 78.7803C161.505 78.9003 161.775 79.0703 162.005 79.2903C162.225 79.5103 162.405 79.7703 162.535 80.0603C162.655 80.3503 162.725 80.6603 162.725 80.9703C162.735 81.2803 162.675 81.5903 162.565 81.8903C162.445 82.1803 162.275 82.4403 162.055 82.6703C161.835 82.8903 161.575 83.0703 161.285 83.2003ZM163.585 60.8803C162.985 61.3103 162.165 61.1603 161.735 60.5703C161.635 60.4303 161.565 60.2703 161.525 60.1003C161.485 59.9303 161.485 59.7603 161.515 59.5903C161.545 59.4203 161.605 59.2503 161.695 59.1103C161.795 58.9603 161.915 58.8303 162.055 58.7303C162.195 58.6303 162.355 58.5603 162.525 58.5203C162.695 58.4803 162.875 58.4803 163.045 58.5103C163.215 58.5403 163.375 58.6003 163.525 58.6903C163.675 58.7803 163.795 58.9103 163.895 59.0503C163.995 59.1903 164.075 59.3503 164.105 59.5203C164.145 59.6803 164.155 59.8603 164.125 60.0303C164.095 60.2003 164.035 60.3603 163.935 60.5103C163.845 60.6603 163.725 60.7803 163.585 60.8803ZM160.955 66.0303C160.775 66.1403 160.575 66.2103 160.375 66.2503C160.165 66.2803 159.955 66.2803 159.745 66.2303C159.545 66.1903 159.345 66.1003 159.175 65.9803C159.005 65.8603 158.855 65.7103 158.745 65.5303C158.635 65.3503 158.555 65.1503 158.515 64.9503C158.485 64.7403 158.485 64.5303 158.535 64.3203C158.575 64.1203 158.665 63.9303 158.785 63.7503C158.905 63.5803 159.065 63.4403 159.245 63.3303C159.415 63.2103 159.615 63.1403 159.825 63.1003C160.035 63.0603 160.245 63.0703 160.445 63.1103C160.655 63.1603 160.845 63.2503 161.015 63.3703C161.195 63.4903 161.335 63.6403 161.455 63.8203C161.925 64.5603 161.705 65.5503 160.955 66.0303ZM159.705 71.8103C159.475 71.9403 159.225 72.0203 158.965 72.0503C158.705 72.0803 158.445 72.0603 158.195 71.9903C157.935 71.9203 157.705 71.8003 157.495 71.6403C157.285 71.4803 157.115 71.2803 156.985 71.0503C156.855 70.8203 156.775 70.5703 156.745 70.3103C156.715 70.0503 156.735 69.7903 156.805 69.5403C156.875 69.2903 156.995 69.0503 157.155 68.8503C157.315 68.6403 157.525 68.4703 157.755 68.3403C157.975 68.2103 158.225 68.1303 158.485 68.1003C158.745 68.0703 159.015 68.0903 159.265 68.1603C159.515 68.2303 159.755 68.3503 159.965 68.5103C160.165 68.6703 160.345 68.8703 160.465 69.1003C160.595 69.3303 160.685 69.5803 160.715 69.8403C160.745 70.1003 160.725 70.3603 160.655 70.6103C160.585 70.8703 160.465 71.1003 160.295 71.3103C160.135 71.5103 159.935 71.6803 159.705 71.8103ZM159.785 77.6103C159.525 77.7403 159.245 77.8203 158.955 77.8403C158.665 77.8603 158.375 77.8203 158.105 77.7303C157.825 77.6303 157.575 77.4903 157.355 77.3003C157.135 77.1103 156.955 76.8803 156.825 76.6203C156.695 76.3603 156.625 76.0803 156.605 75.7903C156.585 75.5103 156.625 75.2203 156.715 74.9403C156.805 74.6703 156.955 74.4203 157.145 74.2003C157.335 73.9903 157.565 73.8103 157.825 73.6803C158.085 73.5503 158.365 73.4703 158.655 73.4503C158.945 73.4303 159.235 73.4703 159.505 73.5603C159.785 73.6603 160.035 73.8003 160.255 73.9903C160.475 74.1803 160.655 74.4103 160.775 74.6703C160.905 74.9303 160.985 75.2103 161.005 75.5003C161.025 75.7903 160.985 76.0803 160.895 76.3503C160.795 76.6203 160.655 76.8803 160.465 77.0903C160.275 77.3103 160.045 77.4903 159.785 77.6103ZM176.215 94.0103C176.185 93.8403 176.185 93.6703 176.215 93.5003C176.255 93.3303 176.315 93.1703 176.415 93.0203C176.515 92.8803 176.635 92.7503 176.775 92.6603C176.925 92.5603 177.085 92.4903 177.255 92.4603C177.425 92.4303 177.595 92.4303 177.765 92.4603C177.935 92.4903 178.105 92.5603 178.245 92.6603C178.385 92.7503 178.515 92.8803 178.605 93.0203C178.705 93.1603 178.775 93.3203 178.815 93.4903C178.845 93.6603 178.845 93.8403 178.815 94.0103C178.775 94.1803 178.715 94.3403 178.615 94.4903C178.515 94.6303 178.395 94.7503 178.255 94.8503C178.105 94.9503 177.945 95.0103 177.775 95.0503C177.055 95.1903 176.365 94.7303 176.215 94.0103ZM170.545 92.7803C170.495 92.5803 170.475 92.3703 170.505 92.1603C170.535 91.9503 170.615 91.7503 170.715 91.5703C170.825 91.3903 170.965 91.2303 171.135 91.1103C171.305 90.9803 171.495 90.8903 171.695 90.8403C171.895 90.7903 172.115 90.7803 172.315 90.8103C172.525 90.8403 172.725 90.9103 172.905 91.0103C173.095 91.1203 173.245 91.2603 173.375 91.4303C173.505 91.6003 173.595 91.7903 173.645 91.9903C173.695 92.2003 173.715 92.4103 173.685 92.6103C173.655 92.8203 173.575 93.0203 173.475 93.2003C173.365 93.3803 173.225 93.5403 173.055 93.6603C172.885 93.7903 172.695 93.8803 172.495 93.9303C172.285 93.9803 172.075 94.0003 171.865 93.9703C171.655 93.9403 171.455 93.8703 171.275 93.7603C171.095 93.6503 170.935 93.5103 170.815 93.3403C170.685 93.1803 170.595 92.9803 170.545 92.7803ZM165.225 89.4903C165.245 89.2303 165.315 88.9803 165.445 88.7403C165.565 88.5103 165.725 88.3103 165.925 88.1403C166.135 87.9703 166.365 87.8503 166.615 87.7703C166.865 87.6903 167.125 87.6603 167.385 87.6903C167.655 87.7103 167.905 87.7803 168.135 87.9103C168.365 88.0303 168.575 88.1903 168.745 88.3903C168.915 88.6003 169.045 88.8303 169.125 89.0803C169.195 89.3303 169.225 89.5903 169.205 89.8503C169.175 90.1103 169.105 90.3603 168.985 90.6003C168.855 90.8303 168.695 91.0303 168.485 91.2003C168.285 91.3603 168.055 91.4903 167.805 91.5703C167.555 91.6503 167.295 91.6703 167.035 91.6503C166.775 91.6303 166.515 91.5603 166.285 91.4303C166.055 91.3103 165.845 91.1503 165.675 90.9503C165.505 90.7503 165.385 90.5103 165.305 90.2603C165.225 90.0103 165.195 89.7503 165.225 89.4903ZM161.125 86.5503C161.025 86.2803 160.985 85.9903 160.995 85.7003C161.005 85.4203 161.075 85.1303 161.195 84.8703C161.315 84.6103 161.485 84.3803 161.705 84.1803C161.915 83.9903 162.165 83.8303 162.435 83.7303C162.705 83.6303 162.995 83.5903 163.275 83.6003C163.565 83.6103 163.855 83.6803 164.115 83.8003C164.375 83.9203 164.615 84.0903 164.815 84.3003C165.005 84.5103 165.165 84.7603 165.265 85.0303C165.365 85.3003 165.405 85.5903 165.395 85.8803C165.385 86.1603 165.315 86.4503 165.195 86.7103C165.075 86.9703 164.905 87.2103 164.695 87.4003C164.475 87.6003 164.225 87.7503 163.955 87.8503C163.685 87.9503 163.395 88.0003 163.105 87.9803C162.825 87.9703 162.535 87.9103 162.275 87.7903C162.015 87.6703 161.775 87.4903 161.575 87.2803C161.385 87.0703 161.225 86.8203 161.125 86.5503ZM192.995 88.3003C193.135 88.2703 193.265 88.2603 193.405 88.2703C193.535 88.2903 193.665 88.3303 193.785 88.3903C193.905 88.4603 194.015 88.5503 194.095 88.6503C194.445 89.1003 194.375 89.7503 193.925 90.1003C193.815 90.1803 193.695 90.2503 193.565 90.2803C193.435 90.3203 193.295 90.3303 193.165 90.3203C193.025 90.3003 192.895 90.2603 192.775 90.1903C192.665 90.1303 192.555 90.0403 192.475 89.9303C192.385 89.8303 192.325 89.7103 192.285 89.5803C192.255 89.4503 192.245 89.3103 192.255 89.1803C192.275 89.0403 192.315 88.9103 192.385 88.7903C192.445 88.6803 192.535 88.5703 192.645 88.4903C192.745 88.4003 192.865 88.3403 192.995 88.3003ZM182.955 92.6503C183.085 92.6303 183.225 92.6403 183.355 92.6703C183.485 92.7003 183.615 92.7603 183.725 92.8403C183.835 92.9203 183.925 93.0203 183.995 93.1403C184.065 93.2603 184.105 93.3803 184.125 93.5203C184.215 94.0803 183.825 94.6003 183.255 94.6803C182.985 94.7203 182.715 94.6403 182.505 94.4803C182.295 94.3203 182.155 94.0803 182.115 93.8103C182.075 93.5503 182.145 93.2803 182.295 93.0603C182.455 92.8403 182.685 92.7003 182.955 92.6503ZM177.925 51.2903C178.005 51.8603 177.615 52.3803 177.045 52.4603C176.485 52.5403 175.965 52.1603 175.875 51.5903C175.855 51.4603 175.865 51.3203 175.895 51.1903C175.935 51.0603 175.985 50.9403 176.075 50.8303C176.155 50.7203 176.255 50.6303 176.365 50.5603C176.485 50.4903 176.615 50.4403 176.745 50.4203C176.885 50.4003 177.015 50.4103 177.155 50.4403C177.285 50.4803 177.405 50.5303 177.515 50.6203C177.625 50.7003 177.715 50.8003 177.785 50.9103C177.855 51.0303 177.905 51.1603 177.925 51.2903ZM167.365 56.6203C167.255 56.7103 167.135 56.7703 167.005 56.8103C166.875 56.8403 166.735 56.8503 166.595 56.8403C166.465 56.8203 166.335 56.7803 166.215 56.7103C166.095 56.6503 165.995 56.5603 165.905 56.4503C165.555 56.0103 165.635 55.3603 166.075 55.0103C166.185 54.9203 166.305 54.8603 166.435 54.8203C166.565 54.7903 166.705 54.7803 166.835 54.7903C166.975 54.8103 167.105 54.8503 167.225 54.9203C167.345 54.9803 167.445 55.0703 167.535 55.1803C167.885 55.6203 167.805 56.2703 167.365 56.6203Z" fill="white"/>
</svg>
