<svg width="360" height="174" viewBox="0 0 360 174" fill="none" xmlns="http://www.w3.org/2000/svg">
<path fill-rule="evenodd" clip-rule="evenodd" d="M142.792 131.556C145.735 131.556 147.716 129.09 147.716 125.428C147.716 121.758 145.735 119.292 142.792 119.292C139.834 119.292 137.854 121.758 137.854 125.428C137.854 129.09 139.834 131.556 142.792 131.556ZM142.792 117.848C147.821 117.848 149.616 121.932 149.616 125.428C149.616 128.915 147.821 133 142.792 133C137.749 133 135.953 128.915 135.953 125.428C135.953 121.932 137.749 117.848 142.792 117.848ZM153.444 120.507C154.263 118.712 155.873 117.793 158.263 117.793H158.461L158.368 119.486V119.54L157.827 119.513C154.302 119.513 153.563 122.696 153.55 125.364L153.563 125.456V132.604H151.834V118.133H153.444V120.507ZM185.496 121.96C185.496 124.297 192.229 122.816 192.229 128.124C192.229 131.556 189.14 132.926 185.998 132.926C184.519 132.926 183.015 132.669 181.602 132.301L181.827 129.154C183.041 129.752 184.321 130.129 185.642 130.129C186.631 130.129 188.189 129.752 188.189 128.326C188.189 125.438 181.457 127.416 181.457 122.098C181.457 118.933 184.256 117.526 187.292 117.526C189.114 117.526 190.302 117.82 191.516 118.069L191.252 120.957C190.064 120.562 189.206 120.332 187.78 120.332C186.737 120.332 185.496 120.7 185.496 121.96ZM209.619 132.604V117.894H212.819V132.604H209.619ZM231.858 121.96C231.858 124.297 238.591 122.816 238.591 128.124C238.591 131.556 235.502 132.926 232.347 132.926C230.868 132.926 229.376 132.669 227.951 132.301L228.188 129.154C229.403 129.752 230.67 130.129 232.003 130.129C232.98 130.129 234.538 129.752 234.538 128.326C234.538 125.438 227.805 127.416 227.805 122.098C227.805 118.933 230.617 117.526 233.654 117.526C235.475 117.526 236.65 117.82 237.864 118.069L237.614 120.957C236.426 120.562 235.554 120.332 234.142 120.332C233.099 120.332 231.858 120.7 231.858 121.96ZM207.212 117.894L201.72 124.481L207.899 132.604H202.988L198.011 125.456H197.958V132.604H194.091V111.178L197.958 109.973V123.772H198.011L202.644 117.894H207.212ZM170.196 131.501C173.246 131.501 174.606 128.428 174.606 125.373C174.606 122.319 173.246 119.237 170.196 119.237C166.21 119.237 165.787 123.524 165.787 125.373C165.787 127.213 166.21 131.501 170.196 131.501ZM174.606 111.297L176.255 110.782L176.335 110.764V132.604H174.606V130.359C173.616 132.116 172.111 132.945 169.906 132.945C166.196 132.945 163.886 130.037 163.886 125.373C163.886 121.951 164.929 117.857 169.906 117.793C172.916 117.756 174.249 119.624 174.606 120.24V111.297ZM160.256 111.297L161.906 110.782L161.972 110.764V132.604H160.256V111.297ZM215.661 132.604V111.178L219.528 109.973V132.604H215.661ZM221.759 132.604V111.178L225.627 109.973V132.604H221.759ZM211.304 110.203C212.492 110.203 213.456 111.187 213.456 112.402C213.456 113.616 212.492 114.591 211.304 114.591C210.116 114.591 209.139 113.616 209.139 112.402C209.139 111.187 210.116 110.203 211.304 110.203ZM130.144 130.737C130.171 130.654 134.224 118.133 134.224 118.133H135.94L131.121 132.604H128.996C128.996 132.604 124.997 120.083 124.983 120.001H124.851C124.825 120.083 120.825 132.604 120.825 132.604H118.713L118.699 132.567C118.646 132.439 114.106 118.483 114.027 118.207L114 118.133H115.888C115.888 118.133 119.729 130.654 119.755 130.737H119.888C119.914 130.654 123.993 118.133 123.993 118.133H126.119C126.119 118.133 129.999 130.654 130.013 130.737H130.144ZM228.134 103.384C228.085 103.471 228.056 103.524 228.056 103.524C228.08 103.49 228.106 103.442 228.134 103.384ZM195.915 95.6492C196.983 96.7102 198.456 97.9947 200.415 99.3704C199.34 98.5505 198.317 97.6969 197.354 96.814C194.725 94.4042 193.23 92.407 192.678 91.6108C193.065 92.2851 194.028 93.7755 195.915 95.6492ZM213.654 105.713C213.944 106.146 214.169 106.229 214.169 106.229C213.746 106.082 213.034 105.769 213.033 105.769C213.654 106.486 214.05 106.716 214.05 106.716C212.021 105.828 210.113 104.878 208.452 103.994C205.994 102.869 203.9 101.713 202.128 100.591C202.759 101.03 203.404 101.459 204.064 101.874C207.119 103.794 210.485 105.451 214.067 106.798C214.073 106.8 214.076 106.806 214.074 106.812C214.072 106.816 214.068 106.819 214.063 106.819C214.062 106.819 214.061 106.819 214.06 106.819C210.476 105.471 207.109 103.814 204.052 101.892C203.253 101.39 202.478 100.869 201.723 100.332C199.07 98.6134 197.169 96.9876 195.866 95.6934C193.278 93.1223 192.419 91.2655 192.41 91.2469C192.403 91.2302 192.41 91.2105 192.427 91.2028C192.442 91.1954 192.462 91.2022 192.47 91.2191C192.471 91.2223 192.501 91.286 192.563 91.4018C192.969 92.012 194.488 94.1576 197.369 96.7982C198.467 97.8053 199.645 98.773 200.887 99.6972C202.669 100.913 204.829 102.19 207.428 103.441C204.395 101.778 202.407 100.469 202.407 100.469C196.928 97.2039 192.757 91.1962 192.757 91.1962C194.829 91.215 195.266 90.6348 195.265 90.6348C196.11 89.7335 197.707 89.6969 197.707 89.6969C201.733 96.0536 207.001 99.2092 207.001 99.2092C207.766 99.7245 210.777 101.555 210.776 101.555C211.304 101.776 211.318 101.923 211.317 101.923C211.146 101.841 210.486 101.454 210.486 101.454C210.195 101.307 207.581 99.8073 207.581 99.8073C207.872 100.359 214.578 104.131 214.578 104.131C215.766 104.895 216.994 105.29 216.994 105.29C213.403 104.251 209.773 102.402 209.773 102.402C207.635 101.399 205.522 99.899 205.522 99.8992C209.258 103.285 214.169 105.621 214.169 105.621C214.961 106.054 215.859 106.532 215.859 106.532C215.489 106.468 213.654 105.713 213.654 105.713ZM245.194 90.7837C244.72 87.7987 243.494 85.0098 241.542 82.456C240.665 81.4335 239.658 80.4414 238.528 79.4826C238.528 79.6113 238.529 79.74 238.529 79.8678C239.552 80.7195 240.056 81.2514 240.056 81.2514C243.297 84.5232 244.645 88.111 245.194 90.7837ZM238.527 79.2088C238.528 79.2856 238.527 79.3614 238.528 79.438C239.49 80.2525 240.363 81.0913 241.143 81.9525C240.545 81.2157 239.888 80.498 239.167 79.8028C238.959 79.6029 238.745 79.4053 238.527 79.2088ZM238.09 79.5098C238.197 79.5961 238.299 79.6791 238.398 79.7603C238.398 79.631 238.398 79.5025 238.398 79.3724C238.296 79.2875 238.194 79.2027 238.091 79.1186C238.091 79.249 238.091 79.3794 238.09 79.5098ZM238.394 79.0909C238.293 79.0003 238.192 78.9094 238.088 78.8196C238.089 78.9045 238.09 78.9896 238.09 79.0746C238.194 79.159 238.296 79.2435 238.397 79.3285C238.397 79.2497 238.395 79.17 238.394 79.0909ZM238.087 78.6805C238.087 78.6976 238.087 78.7151 238.087 78.7324C238.191 78.8216 238.292 78.9116 238.394 79.0017C238.373 77.1254 238.275 75.1647 238.067 73.1642C238.104 73.8939 238.128 74.6344 238.137 75.3874C238.15 76.5073 238.13 77.6083 238.087 78.6805ZM234.953 88.9655C234.953 88.924 234.953 88.883 234.953 88.8426C234.841 88.7449 234.728 88.6492 234.614 88.5551C234.606 88.6011 234.598 88.6466 234.59 88.6925C234.714 88.7836 234.835 88.8748 234.953 88.9655ZM231.719 86.8945C231.726 86.7876 231.733 86.6818 231.74 86.5756C229.577 85.3187 227.739 84.6732 227.739 84.6732C227.264 84.4456 226.729 84.2199 226.149 83.9967C226.187 84.1607 226.224 84.3268 226.261 84.492C228.417 85.2757 230.217 86.0838 231.719 86.8945ZM225.868 84.3509C225.951 84.3806 226.034 84.4103 226.116 84.4402C226.079 84.2737 226.041 84.1062 226.003 83.9408C225.922 83.9102 225.841 83.8796 225.758 83.8491C225.796 84.0201 225.832 84.1878 225.868 84.3509ZM222.541 71.3191C225.945 72.4645 228.832 73.7657 231.223 75.042C231.2 74.8941 231.177 74.7494 231.154 74.6088C229.968 73.9843 228.719 73.3826 227.407 72.8064C225.659 72.0385 223.951 71.3828 222.372 70.8297C222.429 70.9908 222.484 71.1565 222.541 71.3191ZM225.313 84.1568C225.413 84.1913 225.511 84.2257 225.61 84.2605C225.573 84.0902 225.536 83.9213 225.498 83.7537C225.403 83.7193 225.306 83.6852 225.209 83.651C225.245 83.8198 225.279 83.9884 225.313 84.1568ZM222.098 83.1451C222.302 83.2042 222.505 83.2635 222.705 83.3231C222.659 83.1517 222.613 82.9792 222.565 82.8057C222.375 82.7499 222.183 82.6945 221.989 82.6392C222.026 82.8082 222.062 82.9768 222.098 83.1451ZM221.757 70.6172C221.818 70.7859 221.878 70.9536 221.938 71.1199C222.047 71.1554 222.155 71.1915 222.263 71.2274C222.211 71.0641 222.158 70.9008 222.104 70.7359C221.988 70.6955 221.873 70.6564 221.757 70.6172ZM221.655 70.334C221.685 70.4155 221.714 70.4961 221.743 70.5771C221.858 70.6164 221.974 70.6563 222.091 70.6967C222.064 70.613 222.036 70.529 222.008 70.445C221.89 70.4076 221.772 70.3702 221.655 70.334ZM221.235 68.1023C221.506 68.8705 221.762 69.6287 222.008 70.3751C222.032 70.3826 222.056 70.3901 222.08 70.3978C221.801 69.6136 221.52 68.8469 221.235 68.1023ZM222.2 70.7342C222.169 70.6478 222.139 70.5625 222.108 70.4766C222.084 70.4687 222.059 70.461 222.034 70.4531C222.062 70.5373 222.09 70.6221 222.118 70.7057C222.145 70.7153 222.173 70.7248 222.2 70.7342ZM222.386 71.268C222.329 71.103 222.272 70.9378 222.214 70.7745C222.186 70.7649 222.158 70.7547 222.13 70.7451C222.184 70.9096 222.236 71.0727 222.289 71.2358C222.321 71.2467 222.354 71.2573 222.386 71.268ZM228.626 72.961C226.421 71.9626 224.239 71.1607 222.264 70.5264C222.295 70.6145 222.327 70.7004 222.358 70.7891C223.944 71.3441 225.662 72.0037 227.42 72.7757C228.724 73.3487 229.968 73.9469 231.148 74.5676C231.124 74.4258 231.101 74.2867 231.078 74.1527C230.29 73.7422 229.474 73.3446 228.626 72.961ZM208.969 80.3125C212.253 80.8381 215.184 81.4143 217.798 82.027C217.748 81.8554 217.699 81.684 217.648 81.5147C214.386 80.7378 210.992 80.0571 208.138 79.5269C208.421 79.7859 208.697 80.0482 208.969 80.3125ZM211.717 83.9087C210.884 82.7473 209.989 81.6389 209.038 80.5855C208.895 80.5624 208.751 80.5393 208.607 80.5166C209.959 81.824 210.991 83.0023 211.717 83.9087ZM208.351 79.8137C208.497 79.9672 208.637 80.1264 208.781 80.2824C208.804 80.286 208.826 80.2895 208.849 80.2933C208.683 80.1332 208.52 79.9719 208.351 79.8137ZM207.395 79.3899C207.704 79.6654 207.997 79.9368 208.28 80.2039C208.437 80.2283 208.594 80.2525 208.749 80.2771C208.526 80.0353 208.303 79.7925 208.073 79.5566C208.054 79.539 208.034 79.5217 208.015 79.504C207.805 79.4651 207.598 79.4269 207.395 79.3899ZM204.987 76.9044C205.038 76.8837 205.088 76.863 205.138 76.8425C204.406 76.2331 203.649 75.6501 202.868 75.0948C199.604 72.7727 196.525 71.3691 194.517 70.6004C193.082 70.0511 191.979 69.7401 191.387 69.5907C192.855 70.0962 197.579 71.8637 202.664 75.2528C203.465 75.7871 204.24 76.3381 204.987 76.9044ZM212.123 50.263C214.283 53.3118 216.847 57.56 219.359 63.2114C217.606 58.9086 215.706 55.1107 213.692 51.8911C210.764 47.2109 207.585 43.7462 204.232 41.5718C205.589 42.6398 208.617 45.3131 212.123 50.263ZM232.974 56.1107C235.424 60.2265 236.869 64.818 237.669 69.3622C237.264 66.1593 236.555 63.227 235.548 60.5994C233.904 56.3061 231.457 52.8217 228.257 50.2053C229.574 51.4122 231.312 53.3191 232.974 56.1107ZM244.897 87.8396C245.993 90.6287 246.274 93.617 245.732 96.7218C245.13 100.166 243.5 103.835 240.888 107.627C240.884 107.632 240.879 107.634 240.874 107.634C240.871 107.634 240.868 107.633 240.865 107.631C240.857 107.626 240.856 107.616 240.861 107.608C243.471 103.82 245.099 100.155 245.699 96.7158C246.241 93.6174 245.96 90.6353 244.866 87.8518C244.253 86.2926 243.377 84.7818 242.252 83.3282C243.833 85.6448 244.845 88.1424 245.263 90.7952C245.266 90.8132 245.253 90.8304 245.236 90.8334C245.234 90.8337 245.232 90.8339 245.23 90.8339C245.215 90.8339 245.202 90.8227 245.199 90.8074C245.691 93.2167 245.535 94.8761 245.535 94.8761C245.494 99.9265 242.234 104.444 242.234 104.444C239.607 108.63 236.703 109.982 236.703 109.982C242.921 104.564 244.28 99.7613 244.28 99.7613C246.828 92.6679 243.766 87.7923 243.765 87.7923C248.835 100.663 236.676 108.584 236.676 108.584C233.072 111.132 230.67 111.951 230.67 111.951C243.422 103.938 242.802 94.8024 242.802 94.8026C242.791 91.271 241.46 89.4586 241.025 88.9599C242.539 91.2308 247.118 100.641 229.033 112.245L231.372 107.446C229.944 108.247 229.165 108.492 229.165 108.492C230.422 107.726 231.278 107.026 231.836 106.494L232.114 105.923C231.5 106.319 231.198 106.376 231.198 106.376C231.568 106.138 231.921 105.887 232.257 105.63L238.224 93.3866C238.101 93.0162 237.951 92.6568 237.775 92.3094C237.696 92.1821 237.61 92.0525 237.517 91.9203C237.394 91.7444 237.26 91.5702 237.12 91.397C236.27 94.5685 234.849 98.6075 232.496 102.757C232.484 102.778 232.462 102.79 232.439 102.79C232.428 102.79 232.417 102.787 232.406 102.781C232.375 102.763 232.364 102.722 232.382 102.69C234.751 98.5127 236.172 94.4491 237.018 91.2742C236.9 91.1335 236.778 90.9935 236.651 90.8544C233.327 104.454 228.189 107.692 228.188 107.692C231.871 103.386 233.654 97.0381 233.654 97.0381C234.639 93.8526 234.906 91.1083 234.947 89.2897C234.815 89.186 234.677 89.0832 234.539 88.9804C232.406 100.715 227.093 106.238 227.093 106.238C229.007 102.898 229.218 101.628 229.218 101.628C228.819 102.177 228.322 103.048 228.134 103.384C228.511 102.592 229.165 99.7794 229.165 99.7794C228.558 101.711 226.855 104.425 226.855 104.425C229.986 98.5761 231.292 92.5116 231.697 87.1883C230.495 86.5365 229.146 85.9111 227.653 85.3142C227.225 85.1428 226.784 84.9743 226.333 84.8083C226.365 84.9525 226.398 85.0936 226.43 85.2387C226.445 85.3022 227.928 91.7567 227.078 99.1981C227.074 99.2321 227.046 99.2571 227.013 99.2571C227.011 99.2571 227.008 99.2569 227.006 99.2568C226.97 99.2524 226.944 99.2194 226.948 99.1827C227.795 91.7644 226.318 85.3328 226.303 85.2687C226.265 85.0962 226.226 84.9269 226.187 84.7557C226.103 84.7251 226.019 84.6946 225.934 84.6642C226.199 85.9184 226.367 86.8357 226.367 86.8357C227.607 93.7166 226.815 98.8044 226.815 98.8046C226.076 105.916 225.218 107.59 225.218 107.59C225.733 106.155 226.129 102.227 226.129 102.227C227.621 94.1312 225.97 86.0906 225.97 86.0906C225.881 85.5779 225.782 85.0705 225.677 84.5717C225.577 84.5362 225.474 84.5012 225.373 84.4659C226.442 90.0754 226.327 95.4282 226.327 95.4282C225.865 103.781 224.743 105.879 224.743 105.879C225.522 93.8639 223.185 85.2994 223.185 85.2994C223.069 84.7643 222.934 84.2039 222.785 83.6287C222.578 83.5663 222.369 83.5041 222.158 83.4424C223.166 88.4669 223.119 92.9991 223.119 92.9991C223.251 101.914 222.485 105.079 222.485 105.079C222.367 100.552 221.918 98.749 221.918 98.7492C221.892 100.037 221.667 101.362 221.667 101.362C221.785 100.267 221.403 96.7071 221.403 96.7071C221.403 97.9764 221.152 104.941 221.152 104.941C221.319 96.7729 219.731 88.7646 217.883 82.3198C215.245 81.6951 212.379 81.1296 209.29 80.6258C210.169 81.4994 210.993 82.3992 211.757 83.3241C214.818 87.0325 216.929 91.1455 218.029 95.5485C218.033 95.5664 218.023 95.5846 218.005 95.5891C218.003 95.5899 218 95.5902 217.997 95.5902C217.983 95.5902 217.969 95.5801 217.965 95.5651C216.868 91.172 214.762 87.0682 211.707 83.3678C210.926 82.4209 210.079 81.5008 209.175 80.6075C209.138 80.6015 209.1 80.5957 209.063 80.5895C210.095 81.734 211.064 82.9399 211.957 84.2109C212.712 85.178 213.073 85.7681 213.073 85.7681C218.222 92.5674 219.978 105.079 219.977 105.079C216.017 90.1104 212.598 88.7124 212.598 88.7124C217.35 97.0198 218.446 106.192 218.446 106.192C218.182 104.591 217.403 102.668 217.403 102.668C217.535 103.174 217.548 103.938 217.548 103.938C217.231 102.862 216.783 101.84 216.783 101.841C216.928 102.981 216.836 103.975 216.836 103.975C214.01 92.0151 207.185 86.072 207.185 86.0722C199.978 78.5837 186.552 75.4552 186.552 75.4552C188.664 74.8482 188.717 72.668 188.717 72.668C188.348 70.9109 190.236 69.8527 190.236 69.8527C196.292 71.709 201.02 74.4173 204.564 77.0752C204.682 77.028 204.799 76.9809 204.916 76.9337C204.179 76.3772 203.418 75.8352 202.63 75.3098C196.534 71.2467 190.955 69.5155 190.899 69.4986C190.882 69.4932 190.872 69.4747 190.877 69.4571C190.882 69.4394 190.901 69.4296 190.918 69.4347C190.924 69.4366 191.004 69.4616 191.145 69.5082C191.632 69.623 192.855 69.9402 194.524 70.5794C196.533 71.3486 199.613 72.7528 202.88 75.076C203.664 75.6341 204.424 76.2209 205.16 76.8335C207.655 75.8072 209.77 74.7334 210.895 73.6797C212.059 72.5878 212.956 70.9222 213.429 69.9233C212.939 68.8153 212.638 68.206 212.638 68.206C203.82 53.8544 196.295 51.6097 196.295 51.6097C196.863 48.6288 197.008 46.2735 198.948 45.5377C204.07 43.6152 203.146 41.6739 203.146 41.6739C210.499 47.7365 215.568 56.909 215.568 56.909C217.972 60.9226 220.059 65.9469 221.627 70.256C221.745 70.2926 221.863 70.3293 221.983 70.367C221.665 69.4018 221.327 68.4161 220.968 67.416C217.938 59.6531 214.672 54.0891 212.017 50.341C207.291 43.6682 203.44 41.1477 203.402 41.1231C203.371 41.1035 203.362 41.0622 203.381 41.0312C203.401 40.9998 203.442 40.9907 203.472 41.0103C203.48 41.0159 203.681 41.1471 204.038 41.4205C207.469 43.587 210.72 47.1005 213.71 51.8792C215.828 55.2631 217.818 59.2855 219.645 63.8613C220.523 65.8793 221.394 68.0743 222.236 70.448C224.226 71.0853 226.427 71.8923 228.652 72.8996C229.484 73.2764 230.288 73.6669 231.063 74.0698C230.743 72.2373 230.446 71.1772 230.446 71.1772C227.093 59.0339 219.647 55.0319 219.647 55.0319C221.363 52.7414 222.974 51.9775 222.974 51.9777C225.93 50.5427 225.878 48.9969 225.878 48.9971C228.175 50.4686 230.261 53.1923 230.261 53.1923C237.115 61.8485 237.961 73.9961 238.062 77.3293C238.075 76.6894 238.079 76.0414 238.071 75.3866C238.057 74.1903 238.005 73.0247 237.92 71.8879C237.244 66.5661 235.755 61.0442 232.867 56.1885C231.16 53.3191 229.385 51.4148 228.197 50.3228C226.909 49.1392 226.014 48.6278 226.005 48.6228C225.973 48.6049 225.962 48.5643 225.979 48.532C225.997 48.4997 226.037 48.4884 226.068 48.5063C226.081 48.5136 226.568 48.7951 227.34 49.4158C231.021 52.1083 233.801 55.853 235.61 60.5759C236.751 63.5546 237.508 66.9253 237.877 70.6352C238.316 73.55 238.501 76.4248 238.527 79.1201C238.76 79.3296 238.989 79.5403 239.211 79.7539C240.26 80.7643 241.18 81.8199 241.969 82.9176C243.246 84.493 244.227 86.1372 244.897 87.8396Z" fill="white"/>
</svg>
