<svg width="834" height="236" viewBox="0 0 834 236" fill="none" xmlns="http://www.w3.org/2000/svg">
<path d="M258.018 22.6V20.6H256.679L256.169 21.8375L258.018 22.6ZM248.752 45.068L246.903 44.3055L246.898 44.3166L248.752 45.068ZM244.734 55.728V57.728H246.207L246.644 56.3208L244.734 55.728ZM244.406 55.728L242.496 56.3208L242.932 57.728H244.406V55.728ZM240.47 45.068L242.323 44.3166L242.32 44.3081L242.316 44.2997L240.47 45.068ZM231.122 22.6L232.968 21.8317L232.456 20.6H231.122V22.6ZM220.954 22.6V20.6H218.954V22.6H220.954ZM220.954 80H218.954V82H220.954V80ZM230.794 80V82H232.794V80H230.794ZM230.794 62.042H232.794V62.0054L232.792 61.9689L230.794 62.042ZM229.974 42.28L229.231 40.423L227.904 40.9538L227.976 42.3811L229.974 42.28ZM230.384 42.116L232.264 41.4351L231.56 39.4912L229.641 40.259L230.384 42.116ZM235.714 57.204L233.826 57.8634L233.834 57.8882L233.844 57.9129L235.714 57.204ZM239.568 67.372L237.698 68.0809L238.187 69.372H239.568V67.372ZM249.572 67.372V69.372H250.952L251.442 68.0808L249.572 67.372ZM253.426 57.204L255.296 57.9129L255.305 57.8882L255.314 57.8634L253.426 57.204ZM258.756 42.116L259.498 40.259L257.549 39.4794L256.865 41.464L258.756 42.116ZM259.166 42.28L261.163 42.3811L261.235 40.9538L259.908 40.423L259.166 42.28ZM258.346 62.042L256.347 61.9689L256.346 62.0054V62.042H258.346ZM258.346 80H256.346V82H258.346V80ZM268.268 80V82H270.268V80H268.268ZM268.268 22.6H270.268V20.6H268.268V22.6ZM256.169 21.8375L246.903 44.3055L250.601 45.8305L259.867 23.3625L256.169 21.8375ZM246.898 44.3166C245.674 47.3364 243.591 52.6629 242.824 55.1352L246.644 56.3208C247.353 54.0371 249.369 48.8676 250.605 45.8194L246.898 44.3166ZM244.734 53.728H244.406V57.728H244.734V53.728ZM246.316 55.1352C245.553 52.6767 243.56 47.3677 242.323 44.3166L238.616 45.8194C239.839 48.8363 241.783 54.0233 242.496 56.3208L246.316 55.1352ZM242.316 44.2997L232.968 21.8317L229.275 23.3683L238.623 45.8363L242.316 44.2997ZM231.122 20.6H220.954V24.6H231.122V20.6ZM218.954 22.6V80H222.954V22.6H218.954ZM220.954 82H230.794V78H220.954V82ZM232.794 80V62.042H228.794V80H232.794ZM232.792 61.9689C232.546 55.2456 232.3 48.6726 231.971 42.1789L227.976 42.3811C228.303 48.8434 228.549 55.3904 228.795 62.1151L232.792 61.9689ZM230.716 44.137L231.126 43.9729L229.641 40.259L229.231 40.423L230.716 44.137ZM228.503 42.7969C230.221 47.5402 232.021 52.6949 233.826 57.8634L237.602 56.5446C235.799 51.3811 233.991 46.2038 232.264 41.4351L228.503 42.7969ZM233.844 57.9129L237.698 68.0809L241.438 66.6631L237.584 56.4951L233.844 57.9129ZM239.568 69.372H249.572V65.372H239.568V69.372ZM251.442 68.0808L255.296 57.9129L251.556 56.4951L247.702 66.6631L251.442 68.0808ZM255.314 57.8634C257.096 52.7594 259.014 47.5034 260.646 42.768L256.865 41.464C255.218 46.2406 253.363 51.3166 251.538 56.5446L255.314 57.8634ZM258.013 43.9729L258.423 44.137L259.908 40.423L259.498 40.259L258.013 43.9729ZM257.168 42.1789C256.839 48.6726 256.593 55.2456 256.347 61.9689L260.344 62.1151C260.59 55.3904 260.836 48.8434 261.163 42.3811L257.168 42.1789ZM256.346 62.042V80H260.346V62.042H256.346ZM258.346 82H268.268V78H258.346V82ZM270.268 80V22.6H266.268V80H270.268ZM268.268 20.6H258.018V24.6H268.268V20.6ZM300.412 82.984C306.515 82.984 311.599 81.003 315.143 77.1772C318.669 73.3713 320.452 67.9762 320.452 61.55H316.452C316.452 67.2598 314.874 71.5817 312.209 74.4588C309.562 77.316 305.626 78.984 300.412 78.984V82.984ZM320.452 61.55V41.05H316.452V61.55H320.452ZM320.452 41.05C320.452 34.6238 318.669 29.2287 315.143 25.4228C311.599 21.597 306.515 19.616 300.412 19.616V23.616C305.626 23.616 309.562 25.284 312.209 28.1412C314.874 31.0183 316.452 35.3402 316.452 41.05H320.452ZM300.412 19.616C294.273 19.616 289.168 21.5944 285.612 25.4204C282.074 29.2271 280.29 34.6238 280.29 41.05H284.29C284.29 35.3402 285.869 31.0199 288.542 28.1436C291.197 25.2866 295.154 23.616 300.412 23.616V19.616ZM280.29 41.05V61.55H284.29V41.05H280.29ZM280.29 61.55C280.29 67.9762 282.074 73.3729 285.612 77.1796C289.168 81.0056 294.273 82.984 300.412 82.984V78.984C295.154 78.984 291.197 77.3134 288.542 74.4564C285.869 71.5801 284.29 67.2598 284.29 61.55H280.29ZM300.412 69.226C298.361 69.226 297.066 68.5577 296.223 67.4876C295.317 66.3371 294.704 64.4296 294.704 61.55H290.704C290.704 64.9024 291.404 67.8329 293.081 69.9624C294.821 72.1723 297.379 73.226 300.412 73.226V69.226ZM294.704 61.55V41.05H290.704V61.55H294.704ZM294.704 41.05C294.704 38.1704 295.317 36.2629 296.223 35.1124C297.066 34.0423 298.361 33.374 300.412 33.374V29.374C297.379 29.374 294.821 30.4277 293.081 32.6376C291.404 34.7671 290.704 37.6976 290.704 41.05H294.704ZM300.412 33.374C302.461 33.374 303.729 34.0401 304.551 35.1001C305.441 36.2485 306.038 38.1581 306.038 41.05H310.038C310.038 37.7099 309.365 34.7815 307.713 32.6499C305.992 30.4299 303.447 29.374 300.412 29.374V33.374ZM306.038 41.05V61.55H310.038V41.05H306.038ZM306.038 61.55C306.038 64.4419 305.441 66.3515 304.551 67.4999C303.729 68.5599 302.461 69.226 300.412 69.226V73.226C303.447 73.226 305.992 72.1701 307.713 69.9501C309.365 67.8185 310.038 64.8901 310.038 61.55H306.038ZM357.501 80L355.721 80.9119L356.278 82H357.501V80ZM368.571 80V82H371.895L370.338 79.0633L368.571 80ZM357.009 58.188L356.145 56.3842L354.266 57.284L355.242 59.1247L357.009 58.188ZM332.573 22.6V20.6H330.573V22.6H332.573ZM332.573 80H330.573V82H332.573V80ZM342.659 80V82H344.659V80H342.659ZM342.659 59.992V57.992H340.659V59.992H342.659ZM347.251 59.992L349.031 59.0801L348.474 57.992H347.251V59.992ZM342.659 32.194V30.194H340.659V32.194H342.659ZM342.659 50.398H340.659V52.398H342.659V50.398ZM357.501 82H368.571V78H357.501V82ZM370.338 79.0633L358.776 57.2513L355.242 59.1247L366.804 80.9367L370.338 79.0633ZM357.873 59.9918C364.585 56.7777 368.029 50.0224 368.029 41.132H364.029C364.029 48.9696 361.077 54.0223 356.145 56.3842L357.873 59.9918ZM368.029 41.132C368.029 34.9114 366.307 29.7267 362.832 26.0877C359.346 22.4356 354.343 20.6 348.317 20.6V24.6C353.525 24.6 357.378 26.1674 359.939 28.8498C362.512 31.5452 364.029 35.6266 364.029 41.132H368.029ZM348.317 20.6H332.573V24.6H348.317V20.6ZM330.573 22.6V80H334.573V22.6H330.573ZM332.573 82H342.659V78H332.573V82ZM344.659 80V59.992H340.659V80H344.659ZM342.659 61.992H347.251V57.992H342.659V61.992ZM345.471 60.9039L355.721 80.9119L359.281 79.0881L349.031 59.0801L345.471 60.9039ZM342.659 34.194H348.235V30.194H342.659V34.194ZM348.235 34.194C350.2 34.194 351.443 34.8063 352.242 35.7683C353.093 36.7926 353.697 38.5193 353.697 41.214H357.697C357.697 38.0047 356.989 35.2214 355.318 33.2117C353.596 31.1397 351.108 30.194 348.235 30.194V34.194ZM353.697 41.214C353.697 43.9548 353.091 45.7301 352.23 46.7876C351.424 47.7771 350.182 48.398 348.235 48.398V52.398C351.126 52.398 353.615 51.4199 355.331 49.3139C356.991 47.2759 357.697 44.4592 357.697 41.214H353.697ZM348.235 48.398H342.659V52.398H348.235V48.398ZM344.659 50.398V32.194H340.659V50.398H344.659ZM389.86 70.488H387.86V72.488H389.86V70.488ZM389.86 55.482V53.482H387.86V55.482H389.86ZM407.08 55.482V57.482H409.08V55.482H407.08ZM407.08 46.298H409.08V44.298H407.08V46.298ZM389.86 46.298H387.86V48.298H389.86V46.298ZM389.86 32.112V30.112H387.86V32.112H389.86ZM408.638 32.112V34.112H410.638V32.112H408.638ZM408.638 22.6H410.638V20.6H408.638V22.6ZM379.774 22.6V20.6H377.774V22.6H379.774ZM379.774 80H377.774V82H379.774V80ZM409.458 80V82H411.458V80H409.458ZM409.458 70.488H411.458V68.488H409.458V70.488ZM391.86 70.488V55.482H387.86V70.488H391.86ZM389.86 57.482H407.08V53.482H389.86V57.482ZM409.08 55.482V46.298H405.08V55.482H409.08ZM407.08 44.298H389.86V48.298H407.08V44.298ZM391.86 46.298V32.112H387.86V46.298H391.86ZM389.86 34.112H408.638V30.112H389.86V34.112ZM410.638 32.112V22.6H406.638V32.112H410.638ZM408.638 20.6H379.774V24.6H408.638V20.6ZM377.774 22.6V80H381.774V22.6H377.774ZM379.774 82H409.458V78H379.774V82ZM411.458 80V70.488H407.458V80H411.458ZM409.458 68.488H389.86V72.488H409.458V68.488ZM474.064 22.6H476.064V20.6H474.064V22.6ZM440.608 22.6V20.6H438.608V22.6H440.608ZM440.608 32.194H438.608V34.194H440.608V32.194ZM452.17 32.194H454.17V30.194H452.17V32.194ZM452.17 80H450.17V82H452.17V80ZM462.502 80V82H464.502V80H462.502ZM462.502 32.194V30.194H460.502V32.194H462.502ZM474.064 32.194V34.194H476.064V32.194H474.064ZM474.064 20.6H440.608V24.6H474.064V20.6ZM438.608 22.6V32.194H442.608V22.6H438.608ZM440.608 34.194H452.17V30.194H440.608V34.194ZM450.17 32.194V80H454.17V32.194H450.17ZM452.17 82H462.502V78H452.17V82ZM464.502 80V32.194H460.502V80H464.502ZM462.502 34.194H474.064V30.194H462.502V34.194ZM476.064 32.194V22.6H472.064V32.194H476.064ZM509.047 22.6V20.6H507.047V22.6H509.047ZM509.047 46.216V48.216H511.047V46.216H509.047ZM495.189 46.216H493.189V48.216H495.189V46.216ZM495.189 22.6H497.189V20.6H495.189V22.6ZM485.103 22.6V20.6H483.103V22.6H485.103ZM485.103 80H483.103V82H485.103V80ZM495.189 80V82H497.189V80H495.189ZM495.189 55.81V53.81H493.189V55.81H495.189ZM509.047 55.81H511.047V53.81H509.047V55.81ZM509.047 80H507.047V82H509.047V80ZM519.215 80V82H521.215V80H519.215ZM519.215 22.6H521.215V20.6H519.215V22.6ZM507.047 22.6V46.216H511.047V22.6H507.047ZM509.047 44.216H495.189V48.216H509.047V44.216ZM497.189 46.216V22.6H493.189V46.216H497.189ZM495.189 20.6H485.103V24.6H495.189V20.6ZM483.103 22.6V80H487.103V22.6H483.103ZM485.103 82H495.189V78H485.103V82ZM497.189 80V55.81H493.189V80H497.189ZM495.189 57.81H509.047V53.81H495.189V57.81ZM507.047 55.81V80H511.047V55.81H507.047ZM509.047 82H519.215V78H509.047V82ZM521.215 80V22.6H517.215V80H521.215ZM519.215 20.6H509.047V24.6H519.215V20.6ZM558.48 80L556.527 80.4306L556.873 82H558.48V80ZM568.976 80V82H571.527L570.919 79.5228L568.976 80ZM554.872 22.6L556.815 22.1228L556.44 20.6H554.872V22.6ZM544.048 22.6V20.6H542.48L542.106 22.1228L544.048 22.6ZM529.944 80L528.002 79.5228L527.393 82H529.944V80ZM540.44 80V82H542.047L542.393 80.4306L540.44 80ZM542.736 69.586V67.586H541.129L540.783 69.1554L542.736 69.586ZM556.184 69.586L558.138 69.1554L557.792 67.586H556.184V69.586ZM544.786 59.992L542.831 59.5709L542.31 61.992H544.786V59.992ZM547.082 49.332L549.038 49.7531L549.04 49.7399L547.082 49.332ZM549.296 35.228V33.228H547.536L547.312 34.9747L549.296 35.228ZM549.542 35.228L551.521 34.9334L551.267 33.228H549.542V35.228ZM551.838 49.332L549.88 49.7399L549.883 49.7531L551.838 49.332ZM554.134 59.992V61.992H556.611L556.09 59.5709L554.134 59.992ZM558.48 82H568.976V78H558.48V82ZM570.919 79.5228L556.815 22.1228L552.93 23.0772L567.034 80.4772L570.919 79.5228ZM554.872 20.6H544.048V24.6H554.872V20.6ZM542.106 22.1228L528.002 79.5228L531.887 80.4772L545.991 23.0772L542.106 22.1228ZM529.944 82H540.44V78H529.944V82ZM542.393 80.4306L544.69 70.0166L540.783 69.1554L538.487 79.5694L542.393 80.4306ZM542.736 71.586H556.184V67.586H542.736V71.586ZM554.231 70.0166L556.527 80.4306L560.434 79.5694L558.138 69.1554L554.231 70.0166ZM546.742 60.4131L549.038 49.7531L545.127 48.9109L542.831 59.5709L546.742 60.4131ZM549.04 49.7399C549.878 45.7214 550.788 39.3408 551.28 35.4813L547.312 34.9747C546.821 38.8232 545.927 45.0706 545.124 48.9241L549.04 49.7399ZM549.296 37.228H549.542V33.228H549.296V37.228ZM547.564 35.5226C548.132 39.3378 549.045 45.7313 549.88 49.7399L553.796 48.9241C552.992 45.0607 552.1 38.8262 551.521 34.9334L547.564 35.5226ZM549.883 49.7531L552.179 60.4131L556.09 59.5709L553.794 48.9109L549.883 49.7531ZM554.134 57.992H544.786V61.992H554.134V57.992ZM605.085 22.6V20.6H603.085V22.6H605.085ZM606.479 61.058L607.893 62.4722L608.586 61.7792L608.463 60.8068L606.479 61.058ZM606.233 61.304L604.373 62.0393L605.493 64.8723L607.647 62.7182L606.233 61.304ZM601.641 49.578L603.498 48.8352L603.484 48.8007L603.469 48.7668L601.641 49.578ZM589.669 22.6L591.497 21.7887L590.97 20.6H589.669V22.6ZM579.665 22.6V20.6H577.665V22.6H579.665ZM579.665 80H577.665V82H579.665V80ZM589.587 80V82H591.587V80H589.587ZM588.357 41.296L586.943 39.8818L586.261 40.5639L586.37 41.5224L588.357 41.296ZM588.603 41.05L590.482 40.3636L589.406 37.419L587.189 39.6358L588.603 41.05ZM593.933 55.072L592.065 55.7854L592.084 55.8351L592.105 55.8837L593.933 55.072ZM605.003 80L603.175 80.8117L603.703 82H605.003V80ZM615.007 80V82H617.007V80H615.007ZM615.007 22.6H617.007V20.6H615.007V22.6ZM603.085 22.6V40.066H607.085V22.6H603.085ZM603.085 40.066C603.085 45.4032 603.665 54.7532 604.495 61.3092L608.463 60.8068C607.653 54.4068 607.085 45.2248 607.085 40.066H603.085ZM605.065 59.6438L604.819 59.8898L607.647 62.7182L607.893 62.4722L605.065 59.6438ZM608.093 60.5687C606.72 57.0948 604.968 52.5109 603.498 48.8352L599.784 50.3208C601.266 54.0251 602.959 58.4612 604.373 62.0393L608.093 60.5687ZM603.469 48.7668L591.497 21.7887L587.841 23.4112L599.813 50.3892L603.469 48.7668ZM589.669 20.6H579.665V24.6H589.669V20.6ZM577.665 22.6V80H581.665V22.6H577.665ZM579.665 82H589.587V78H579.665V82ZM591.587 80V63.518H587.587V80H591.587ZM591.587 63.518C591.587 57.4644 591.092 47.6303 590.344 41.0696L586.37 41.5224C587.099 47.9177 587.587 57.5996 587.587 63.518H591.587ZM589.771 42.7102L590.017 42.4642L587.189 39.6358L586.943 39.8818L589.771 42.7102ZM586.725 41.7364C588.289 46.0183 590.352 51.2986 592.065 55.7854L595.802 54.3586C594.071 49.8254 592.033 44.6097 590.482 40.3636L586.725 41.7364ZM592.105 55.8837L603.175 80.8117L606.831 79.1883L595.761 54.2603L592.105 55.8837ZM605.003 82H615.007V78H605.003V82ZM617.007 80V22.6H613.007V80H617.007ZM615.007 20.6H605.085V24.6H615.007V20.6Z" fill="white" fill-opacity="0.3"/>
<g filter="url(#filter0_d_2358_49283)">
<path d="M170.183 131L152.663 141.8V159.32L164.183 152.72V215H180.383V131H170.183ZM224.232 216.2C239.472 216.2 248.472 206.84 248.472 190.88V155.36C248.472 139.28 239.472 129.8 224.232 129.8C209.112 129.8 200.112 139.28 200.112 155.36V190.88C200.112 206.84 209.112 216.2 224.232 216.2ZM224.232 201.08C218.592 201.08 215.712 197.6 215.712 190.88V155.36C215.712 148.52 218.592 144.92 224.232 144.92C229.872 144.92 232.872 148.52 232.872 155.36V190.88C232.872 197.6 229.872 201.08 224.232 201.08ZM289.908 216.2C305.148 216.2 314.148 206.84 314.148 190.88V155.36C314.148 139.28 305.148 129.8 289.908 129.8C274.788 129.8 265.788 139.28 265.788 155.36V190.88C265.788 206.84 274.788 216.2 289.908 216.2ZM289.908 201.08C284.268 201.08 281.388 197.6 281.388 190.88V155.36C281.388 148.52 284.268 144.92 289.908 144.92C295.548 144.92 298.548 148.52 298.548 155.36V190.88C298.548 197.6 295.548 201.08 289.908 201.08ZM355.585 216.2C370.825 216.2 379.825 206.84 379.825 190.88V155.36C379.825 139.28 370.825 129.8 355.585 129.8C340.465 129.8 331.465 139.28 331.465 155.36V190.88C331.465 206.84 340.465 216.2 355.585 216.2ZM355.585 201.08C349.945 201.08 347.065 197.6 347.065 190.88V155.36C347.065 148.52 349.945 144.92 355.585 144.92C361.225 144.92 364.225 148.52 364.225 155.36V190.88C364.225 197.6 361.225 201.08 355.585 201.08ZM464.605 215H482.245L462.085 131H443.845L423.685 215H441.325L444.085 201.08H461.845L464.605 215ZM447.445 184.88L449.365 175.28C450.565 169.28 451.885 159.08 452.725 152.24H453.205C454.045 159.08 455.485 169.28 456.565 175.28L458.485 184.88H447.445ZM521.622 131H497.262V215H514.302V188H521.622C539.022 188 549.342 177.44 549.342 159.56C549.342 141.56 539.022 131 521.622 131ZM521.382 171.8H514.302V147.2H521.382C528.222 147.2 531.822 151.4 531.822 159.56C531.822 167.6 528.222 171.8 521.382 171.8ZM590.345 131H565.985V215H583.025V188H590.345C607.745 188 618.065 177.44 618.065 159.56C618.065 141.56 607.745 131 590.345 131ZM590.105 171.8H583.025V147.2H590.105C596.945 147.2 600.545 151.4 600.545 159.56C600.545 167.6 596.945 171.8 590.105 171.8ZM656.995 216.68C673.675 216.68 683.395 206.6 683.395 192.8C683.395 166.04 650.035 165.2 650.035 152C650.035 148.16 652.675 145.76 657.115 145.76C662.035 145.76 664.555 148.52 664.555 154.04H682.075C682.075 138.56 672.715 129.32 657.235 129.32C641.755 129.32 632.755 138.68 632.755 151.52C632.755 177.08 665.635 178.76 665.635 192.68C665.635 196.88 662.875 200.12 657.235 200.12C651.835 200.12 648.475 197.24 648.475 190.52H630.955C630.955 207.44 641.035 216.68 656.995 216.68Z" fill="white"/>
</g>
<defs>
<filter id="filter0_d_2358_49283" x="136.663" y="113.32" width="562.732" height="119.359" filterUnits="userSpaceOnUse" color-interpolation-filters="sRGB">
<feFlood flood-opacity="0" result="BackgroundImageFix"/>
<feColorMatrix in="SourceAlpha" type="matrix" values="0 0 0 0 0 0 0 0 0 0 0 0 0 0 0 0 0 0 127 0" result="hardAlpha"/>
<feOffset/>
<feGaussianBlur stdDeviation="8"/>
<feComposite in2="hardAlpha" operator="out"/>
<feColorMatrix type="matrix" values="0 0 0 0 1 0 0 0 0 1 0 0 0 0 1 0 0 0 0.35 0"/>
<feBlend mode="normal" in2="BackgroundImageFix" result="effect1_dropShadow_2358_49283"/>
<feBlend mode="normal" in="SourceGraphic" in2="effect1_dropShadow_2358_49283" result="shape"/>
</filter>
</defs>
</svg>
