<svg width="1920" height="885" viewBox="0 0 1920 885" fill="none" xmlns="http://www.w3.org/2000/svg">
<g filter="url(#filter0_i_2358_49217)">
<path fill-rule="evenodd" clip-rule="evenodd" d="M-36 40C-36 21.1438 -36 11.7157 -30.1422 5.85786C-24.2843 0 -14.8562 0 4 0H97C115.856 0 125.284 0 131.142 5.85786C137 11.7157 137 21.1438 137 40V133C137 151.856 137 161.284 131.142 167.142C125.284 173 115.856 173 97 173H4C-6.66083 173 -14.3079 173 -20 171.941C-20.0016 190.172 -20.0983 199.383 -25.8578 205.142C-31.7157 211 -41.1438 211 -60 211H-110C-128.856 211 -138.284 211 -144.142 205.142C-150 199.284 -150 189.856 -150 171V121C-150 102.144 -150 92.7157 -144.142 86.8579C-138.284 81 -128.856 81 -110 81H-60C-49.3392 81 -41.6921 81 -36 82.0586V40ZM1549.86 70.8579C1544 76.7157 1544 86.1438 1544 105V164C1544 182.856 1544 192.284 1549.86 198.142C1555.72 204 1565.14 204 1584 204H1643C1661.86 204 1671.28 204 1677.14 198.142C1683 192.284 1683 182.856 1683 164V105C1683 86.1438 1683 76.7157 1677.14 70.8579C1671.28 65 1661.86 65 1643 65H1584C1565.14 65 1555.72 65 1549.86 70.8579ZM1322.86 94.8579C1317 100.716 1317 110.144 1317 129V171.195C1317 190.051 1317 199.479 1322.86 205.337C1328.72 211.195 1338.14 211.195 1357 211.195H1399.2C1418.05 211.195 1427.48 211.195 1433.34 205.337C1439.2 199.479 1439.2 190.051 1439.2 171.195V129C1439.2 110.144 1439.2 100.716 1433.34 94.8579C1427.48 89 1418.05 89 1399.2 89H1357C1338.14 89 1328.72 89 1322.86 94.8579ZM-714.142 117.858C-720 123.716 -720 133.144 -720 152V194.195C-720 213.051 -720 222.479 -714.142 228.337C-708.284 234.195 -698.856 234.195 -680 234.195H-637.805C-618.949 234.195 -609.521 234.195 -603.663 228.337C-597.805 222.479 -597.805 213.051 -597.805 194.195V152C-597.805 133.144 -597.805 123.716 -603.663 117.858C-609.521 112 -618.949 112 -637.805 112H-680C-698.856 112 -708.284 112 -714.142 117.858ZM915.126 117.858C909.269 123.716 909.269 133.144 909.269 152V194.195C909.269 213.051 909.269 222.479 915.126 228.337C920.984 234.195 930.412 234.195 949.269 234.195H991.464C1010.32 234.195 1019.75 234.195 1025.61 228.337C1031.46 222.479 1031.46 213.051 1031.46 194.195V152C1031.46 133.144 1031.46 123.716 1025.61 117.858C1019.75 112 1010.32 112 991.464 112H949.269C930.412 112 920.984 112 915.126 117.858ZM-312.683 152C-312.683 133.144 -312.683 123.716 -306.825 117.858C-300.967 112 -291.539 112 -272.683 112H-230.488C-211.631 112 -202.203 112 -196.345 117.858C-190.487 123.716 -190.487 133.144 -190.487 152V194.195C-190.487 213.051 -190.487 222.479 -196.345 228.337C-202.203 234.195 -211.631 234.195 -230.487 234.195H-272.683C-291.539 234.195 -300.967 234.195 -306.825 228.337C-312.683 222.479 -312.683 213.051 -312.683 194.195V152ZM-516.342 152C-516.342 133.144 -516.342 123.716 -510.484 117.858C-504.626 112 -495.198 112 -476.342 112H-434.147C-415.29 112 -405.862 112 -400.005 117.858C-394.147 123.716 -394.147 133.144 -394.147 152V194.195C-394.147 213.051 -394.147 222.479 -400.005 228.337C-405.862 234.195 -415.29 234.195 -434.147 234.195H-476.342C-495.198 234.195 -504.626 234.195 -510.484 228.337C-516.342 222.479 -516.342 213.051 -516.342 194.195V152ZM1118.78 117.858C1112.93 123.716 1112.93 133.144 1112.93 152V194.195C1112.93 213.051 1112.93 222.479 1118.78 228.337C1124.64 234.195 1134.07 234.195 1152.93 234.195H1195.12C1213.98 234.195 1223.41 234.195 1229.26 228.337C1235.12 222.479 1235.12 213.051 1235.12 194.195V152C1235.12 133.144 1235.12 123.716 1229.26 117.858C1223.41 112 1213.98 112 1195.12 112H1152.93C1134.07 112 1124.64 112 1118.78 117.858ZM1798.86 26.8579C1793 32.7157 1793 42.1438 1793 61V164C1793 182.856 1793 192.284 1798.86 198.142C1804.72 204 1814.14 204 1833 204H1936C1951.96 204 1961.17 204 1967.17 200.447C1973.05 206 1982.48 206 2001 206H2060C2078.86 206 2088.28 206 2094.14 200.142C2100 194.284 2100 184.856 2100 166V107C2100 88.1438 2100 78.7157 2094.14 72.8579C2088.28 67 2078.86 67 2060 67H2001C1989.7 67 1981.79 67 1976 68.2601V61C1976 42.1438 1976 32.7157 1970.14 26.8579C1964.28 21 1954.86 21 1936 21H1833C1814.14 21 1804.72 21 1798.86 26.8579ZM501.951 152C501.951 133.144 501.951 123.716 507.809 117.858C513.667 112 523.095 112 541.951 112H584.146C603.002 112 612.431 112 618.288 117.858C624.146 123.716 624.146 133.144 624.146 152V194.195C624.146 213.051 624.146 222.479 618.288 228.337C612.431 234.195 603.002 234.195 584.146 234.195H541.951C523.095 234.195 513.667 234.195 507.809 228.337C501.951 222.479 501.951 213.051 501.951 194.195V152ZM2137.08 117.858C2131.22 123.716 2131.22 133.144 2131.22 152V194.195C2131.22 213.051 2131.22 222.479 2137.08 228.337C2142.94 234.195 2152.36 234.195 2171.22 234.195H2213.41C2232.27 234.195 2241.7 234.195 2247.56 228.337C2253.41 222.479 2253.41 213.051 2253.41 194.195V152C2253.41 133.144 2253.41 123.716 2247.56 117.858C2241.7 112 2232.27 112 2213.41 112H2171.22C2152.36 112 2142.94 112 2137.08 117.858ZM242 94C242 75.1438 242 65.7157 247.858 59.8579C253.716 54 263.144 54 282 54H352C370.856 54 380.284 54 386.142 59.8579C392 65.7157 392 75.1438 392 94V164C392 182.856 392 192.284 386.142 198.142C380.284 204 370.856 204 352 204H282C263.144 204 253.716 204 247.858 198.142C242 192.284 242 182.856 242 164V94ZM705.609 152C705.609 133.144 705.609 123.716 711.467 117.858C717.325 112 726.753 112 745.609 112H787.804C806.661 112 816.089 112 821.947 117.858C827.804 123.716 827.804 133.144 827.804 152V194.195C827.804 213.051 827.804 222.479 821.947 228.337C816.089 234.195 806.661 234.195 787.804 234.195H745.609C726.753 234.195 717.325 234.195 711.467 228.337C705.609 222.479 705.609 213.051 705.609 194.195V152ZM2340.74 117.858C2334.88 123.716 2334.88 133.144 2334.88 152V194.195C2334.88 213.051 2334.88 222.479 2340.74 228.337C2346.59 234.195 2356.02 234.195 2374.88 234.195H2417.07C2435.93 234.195 2445.36 234.195 2451.22 228.337C2457.07 222.479 2457.07 213.051 2457.07 194.195V152C2457.07 133.144 2457.07 123.716 2451.22 117.858C2445.36 112 2435.93 112 2417.07 112H2374.88C2356.02 112 2346.59 112 2340.74 117.858ZM-618.171 327.146C-618.171 308.29 -618.171 298.862 -612.313 293.004C-606.455 287.146 -597.027 287.146 -578.171 287.146H-535.976C-517.12 287.146 -507.691 287.146 -501.834 293.004C-495.976 298.862 -495.976 308.29 -495.976 327.146V369.342C-495.976 388.198 -495.976 397.626 -501.834 403.484C-507.691 409.342 -517.12 409.342 -535.976 409.342H-578.171C-597.027 409.342 -606.455 409.342 -612.313 403.484C-618.171 397.626 -618.171 388.198 -618.171 369.342V327.146ZM1016.96 293.004C1011.1 298.862 1011.1 308.29 1011.1 327.146V369.342C1011.1 388.198 1011.1 397.626 1016.96 403.484C1022.81 409.342 1032.24 409.342 1051.1 409.342H1093.29C1112.15 409.342 1121.58 409.342 1127.43 403.484C1133.29 397.626 1133.29 388.198 1133.29 369.342V327.146C1133.29 308.29 1133.29 298.862 1127.43 293.004C1121.58 287.146 1112.15 287.146 1093.29 287.146H1051.1C1032.24 287.146 1022.81 287.146 1016.96 293.004ZM-210.854 327.146C-210.854 308.29 -210.854 298.862 -204.996 293.004C-199.138 287.146 -189.71 287.146 -170.854 287.146H-128.658C-109.802 287.146 -100.374 287.146 -94.5162 293.004C-88.6584 298.862 -88.6584 308.29 -88.6584 327.146V369.342C-88.6584 388.198 -88.6584 397.626 -94.5162 403.484C-100.374 409.342 -109.802 409.342 -128.658 409.342H-170.854C-189.71 409.342 -199.138 409.342 -204.996 403.484C-210.854 397.626 -210.854 388.198 -210.854 369.342V327.146ZM1424.27 293.004C1418.41 298.862 1418.41 308.29 1418.41 327.146V369.342C1418.41 388.198 1418.41 397.626 1424.27 403.484C1430.13 409.342 1439.56 409.342 1458.41 409.342H1500.61C1519.47 409.342 1528.89 409.342 1534.75 403.484C1540.61 397.626 1540.61 388.198 1540.61 369.342V327.146C1540.61 308.29 1540.61 298.862 1534.75 293.004C1528.89 287.146 1519.47 287.146 1500.61 287.146H1458.41C1439.56 287.146 1430.13 287.146 1424.27 293.004ZM-414.512 327.146C-414.512 308.29 -414.512 298.862 -408.654 293.004C-402.796 287.146 -393.368 287.146 -374.512 287.146H-332.317C-313.46 287.146 -304.032 287.146 -298.174 293.004C-292.317 298.862 -292.317 308.29 -292.317 327.146V369.342C-292.317 388.198 -292.317 397.626 -298.174 403.484C-304.032 409.342 -313.46 409.342 -332.317 409.342H-374.512C-393.368 409.342 -402.796 409.342 -408.654 403.484C-414.512 397.626 -414.512 388.198 -414.512 369.342V327.146ZM1220.61 293.004C1214.76 298.862 1214.76 308.29 1214.76 327.146V369.342C1214.76 388.198 1214.76 397.626 1220.61 403.484C1226.47 409.342 1235.9 409.342 1254.76 409.342H1296.95C1315.81 409.342 1325.24 409.342 1331.09 403.484C1336.95 397.626 1336.95 388.198 1336.95 369.342V327.146C1336.95 308.29 1336.95 298.862 1331.09 293.004C1325.24 287.146 1315.81 287.146 1296.95 287.146H1254.76C1235.9 287.146 1226.47 287.146 1220.61 293.004ZM-42 308C-42 289.144 -42 279.716 -36.1422 273.858C-30.2843 268 -20.8562 268 -2 268H49C67.8562 268 77.2843 268 83.1422 273.858C89 279.716 89 289.144 89 308V358C89 376.856 89 386.284 83.1422 392.142C77.2843 398 67.8562 398 49 398H-2C-20.8562 398 -30.2843 398 -36.1422 392.142C-42 386.284 -42 376.856 -42 358V308ZM1619.86 271.858C1614 277.716 1614 287.144 1614 306V364C1614 382.856 1614 392.284 1619.86 398.142C1625.72 404 1635.14 404 1654 404H1713C1731.86 404 1741.28 404 1747.14 398.142C1753 392.284 1753 382.856 1753 364V306C1753 287.144 1753 277.716 1747.14 271.858C1741.28 266 1731.86 266 1713 266H1654C1635.14 266 1625.72 266 1619.86 271.858ZM175 308C175 289.144 175 279.716 180.858 273.858C186.716 268 196.144 268 215 268H265C283.856 268 293.284 268 299.142 273.858C305 279.716 305 289.144 305 308V358C305 376.856 305 386.284 299.142 392.142C293.284 398 283.856 398 265 398H215C196.144 398 186.716 398 180.858 392.142C175 386.284 175 376.856 175 358V308ZM1851.86 271.858C1846 277.716 1846 287.144 1846 306V390C1846 408.856 1846 418.284 1851.86 424.142C1857.72 430 1867.14 430 1886 430H1970C1988.86 430 1998.28 430 2004.14 424.142C2010 418.284 2010 408.856 2010 390V306C2010 287.144 2010 277.716 2004.14 271.858C1998.28 266 1988.86 266 1970 266H1886C1867.14 266 1857.72 266 1851.86 271.858ZM603.78 327.146C603.78 308.29 603.78 298.862 609.638 293.004C615.496 287.146 624.924 287.146 643.78 287.146H685.975C704.832 287.146 714.26 287.146 720.118 293.004C725.975 298.862 725.975 308.29 725.975 327.146V369.342C725.975 388.198 725.975 397.626 720.118 403.484C714.26 409.342 704.832 409.342 685.975 409.342H643.78C624.924 409.342 615.496 409.342 609.638 403.484C603.78 397.626 603.78 388.198 603.78 369.342V327.146ZM2238.91 293.004C2233.05 298.862 2233.05 308.29 2233.05 327.146V369.342C2233.05 388.198 2233.05 397.626 2238.91 403.484C2244.76 409.342 2254.19 409.342 2273.05 409.342H2315.24C2334.1 409.342 2343.53 409.342 2349.39 403.484C2355.24 397.626 2355.24 388.198 2355.24 369.342V327.146C2355.24 308.29 2355.24 298.862 2349.39 293.004C2343.53 287.146 2334.1 287.146 2315.24 287.146H2273.05C2254.19 287.146 2244.76 287.146 2238.91 293.004ZM392 308C392 289.144 392 279.716 397.858 273.858C403.716 268 413.144 268 432 268H482C500.856 268 510.284 268 516.142 273.858C522 279.716 522 289.144 522 308V358C522 376.856 522 386.284 516.142 392.142C510.284 398 500.856 398 482 398H432C413.144 398 403.716 398 397.858 392.142C392 386.284 392 376.856 392 358V308ZM2035.25 293.004C2029.39 298.862 2029.39 308.29 2029.39 327.146V369.342C2029.39 388.198 2029.39 397.626 2035.25 403.484C2041.11 409.342 2050.53 409.342 2069.39 409.342H2111.59C2130.44 409.342 2139.87 409.342 2145.73 403.484C2151.59 397.626 2151.59 388.198 2151.59 369.342V327.146C2151.59 308.29 2151.59 298.862 2145.73 293.004C2139.87 287.146 2130.44 287.146 2111.59 287.146H2069.39C2050.53 287.146 2041.11 287.146 2035.25 293.004ZM807.439 327.146C807.439 308.29 807.439 298.862 813.297 293.004C819.155 287.146 828.583 287.146 847.439 287.146H889.635C908.491 287.146 917.919 287.146 923.777 293.004C929.635 298.862 929.635 308.29 929.635 327.146V369.342C929.635 388.198 929.635 397.626 923.777 403.484C917.919 409.342 908.491 409.342 889.635 409.342H847.439C828.583 409.342 819.155 409.342 813.297 403.484C807.439 397.626 807.439 388.198 807.439 369.342V327.146ZM2442.56 293.004C2436.71 298.862 2436.71 308.29 2436.71 327.146V369.342C2436.71 388.198 2436.71 397.626 2442.56 403.484C2448.42 409.342 2457.85 409.342 2476.71 409.342H2518.9C2537.76 409.342 2547.19 409.342 2553.04 403.484C2558.9 397.626 2558.9 388.198 2558.9 369.342V327.146C2558.9 308.29 2558.9 298.862 2553.04 293.004C2547.19 287.146 2537.76 287.146 2518.9 287.146H2476.71C2457.85 287.146 2448.42 287.146 2442.56 293.004ZM-720 522.659C-720 503.803 -720 494.375 -714.142 488.517C-708.284 482.659 -698.856 482.659 -680 482.659H-637.805C-618.949 482.659 -609.521 482.659 -603.663 488.517C-597.805 494.375 -597.805 503.803 -597.805 522.659V564.854C-597.805 583.71 -597.805 593.139 -603.663 598.996C-609.521 604.854 -618.949 604.854 -637.805 604.854H-680C-698.856 604.854 -708.284 604.854 -714.142 598.996C-720 593.139 -720 583.711 -720 564.854V522.659ZM915.126 488.517C909.269 494.375 909.269 503.803 909.269 522.659V564.854C909.269 583.711 909.269 593.139 915.126 598.996C920.984 604.854 930.412 604.854 949.269 604.854H991.464C1010.32 604.854 1019.75 604.854 1025.61 598.996C1031.46 593.139 1031.46 583.71 1031.46 564.854V522.659C1031.46 503.803 1031.46 494.375 1025.61 488.517C1019.75 482.659 1010.32 482.659 991.464 482.659H949.269C930.412 482.659 920.984 482.659 915.126 488.517ZM-312.683 522.659C-312.683 503.803 -312.683 494.375 -306.825 488.517C-300.967 482.659 -291.539 482.659 -272.683 482.659H-230.488C-211.631 482.659 -202.203 482.659 -196.345 488.517C-190.487 494.375 -190.487 503.803 -190.487 522.659V564.854C-190.487 583.71 -190.487 593.139 -196.345 598.996C-202.203 604.854 -211.631 604.854 -230.487 604.854H-272.683C-291.539 604.854 -300.967 604.854 -306.825 598.996C-312.683 593.139 -312.683 583.711 -312.683 564.854V522.659ZM1322.44 488.517C1316.59 494.375 1316.59 503.803 1316.59 522.659V564.854C1316.59 583.711 1316.59 593.139 1322.44 598.996C1328.3 604.854 1337.73 604.854 1356.59 604.854H1398.78C1417.64 604.854 1427.07 604.854 1432.92 598.996C1438.78 593.139 1438.78 583.71 1438.78 564.854V522.659C1438.78 503.803 1438.78 494.375 1432.92 488.517C1427.07 482.659 1417.64 482.659 1398.78 482.659H1356.59C1337.73 482.659 1328.3 482.659 1322.44 488.517ZM-516.342 522.659C-516.342 503.803 -516.342 494.375 -510.484 488.517C-504.626 482.659 -495.198 482.659 -476.342 482.659H-434.147C-415.29 482.659 -405.862 482.659 -400.005 488.517C-394.147 494.375 -394.147 503.803 -394.147 522.659V564.854C-394.147 583.71 -394.147 593.139 -400.005 598.996C-405.862 604.854 -415.29 604.854 -434.147 604.854H-476.342C-495.198 604.854 -504.626 604.854 -510.484 598.996C-516.342 593.139 -516.342 583.711 -516.342 564.854V522.659ZM1118.78 488.517C1112.93 494.375 1112.93 503.803 1112.93 522.659V564.854C1112.93 583.711 1112.93 593.139 1118.78 598.996C1124.64 604.854 1134.07 604.854 1152.93 604.854H1195.12C1213.98 604.854 1223.41 604.854 1229.26 598.996C1235.12 593.139 1235.12 583.71 1235.12 564.854V522.659C1235.12 503.803 1235.12 494.375 1229.26 488.517C1223.41 482.659 1213.98 482.659 1195.12 482.659H1152.93C1134.07 482.659 1124.64 482.659 1118.78 488.517ZM-150 516C-150 497.144 -150 487.716 -144.142 481.858C-138.284 476 -128.856 476 -110 476H-60C-41.1438 476 -31.7157 476 -25.8578 481.858C-20 487.716 -20 497.144 -20 516V566C-20 584.856 -20 594.284 -25.8578 600.142C-31.7157 606 -41.1438 606 -60 606H-110C-128.856 606 -138.284 606 -144.142 600.142C-150 594.284 -150 584.856 -150 566V516ZM1504.86 493.858C1499 499.716 1499 509.144 1499 528V586C1499 604.856 1499 614.284 1504.86 620.142C1510.72 626 1520.14 626 1539 626H1598C1616.86 626 1626.28 626 1632.14 620.142C1638 614.284 1638 604.856 1638 586V528C1638 509.144 1638 499.716 1632.14 493.858C1626.28 488 1616.86 488 1598 488H1539C1520.14 488 1510.72 488 1504.86 493.858ZM67 516C67 497.144 67 487.716 72.8578 481.858C78.7157 476 88.1438 476 107 476H157C175.856 476 185.284 476 191.142 481.858C197 487.716 197 497.144 197 516V566C197 584.856 197 594.284 191.142 600.142C185.284 606 175.856 606 157 606H107C88.1438 606 78.7157 606 72.8578 600.142C67 594.284 67 584.856 67 566V516ZM1735.86 493.858C1730 499.716 1730 509.144 1730 528V586C1730 604.856 1730 614.284 1735.86 620.142C1741.72 626 1751.14 626 1770 626H1829C1847.86 626 1857.28 626 1863.14 620.142C1869 614.284 1869 604.856 1869 586V528C1869 509.144 1869 499.716 1863.14 493.858C1857.28 488 1847.86 488 1829 488H1770C1751.14 488 1741.72 488 1735.86 493.858ZM501.951 522.659C501.951 503.803 501.951 494.375 507.809 488.517C513.667 482.659 523.095 482.659 541.951 482.659H584.146C603.002 482.659 612.431 482.659 618.288 488.517C624.146 494.375 624.146 503.803 624.146 522.659V564.854C624.146 583.71 624.146 593.139 618.288 598.996C612.431 604.854 603.002 604.854 584.146 604.854H541.951C523.095 604.854 513.667 604.854 507.809 598.996C501.951 593.139 501.951 583.711 501.951 564.854V522.659ZM2137.08 488.517C2131.22 494.375 2131.22 503.803 2131.22 522.659V564.854C2131.22 583.711 2131.22 593.139 2137.08 598.996C2142.94 604.854 2152.36 604.854 2171.22 604.854H2213.41C2232.27 604.854 2241.7 604.854 2247.56 598.996C2253.41 593.139 2253.41 583.71 2253.41 564.854V522.659C2253.41 503.803 2253.41 494.375 2247.56 488.517C2241.7 482.659 2232.27 482.659 2213.41 482.659H2171.22C2152.36 482.659 2142.94 482.659 2137.08 488.517ZM284 516C284 497.144 284 487.716 289.858 481.858C295.716 476 305.144 476 324 476H374C392.856 476 402.284 476 408.142 481.858C414 487.716 414 497.144 414 516V566C414 584.856 414 594.284 408.142 600.142C402.284 606 392.856 606 374 606H324C305.144 606 295.716 606 289.858 600.142C284 594.284 284 584.856 284 566V516ZM1966.86 493.858C1961 499.716 1961 509.144 1961 528V586C1961 604.856 1961 614.284 1966.86 620.142C1972.72 626 1982.14 626 2001 626H2060C2078.86 626 2088.28 626 2094.14 620.142C2100 614.284 2100 604.856 2100 586V528C2100 509.144 2100 499.716 2094.14 493.858C2088.28 488 2078.86 488 2060 488H2001C1982.14 488 1972.72 488 1966.86 493.858ZM705.609 522.659C705.609 503.803 705.609 494.375 711.467 488.517C717.325 482.659 726.753 482.659 745.609 482.659H787.804C806.661 482.659 816.089 482.659 821.947 488.517C827.804 494.375 827.804 503.803 827.804 522.659V564.854C827.804 583.71 827.804 593.139 821.947 598.996C816.089 604.854 806.661 604.854 787.804 604.854H745.609C726.753 604.854 717.325 604.854 711.467 598.996C705.609 593.139 705.609 583.711 705.609 564.854V522.659ZM2340.74 488.517C2334.88 494.375 2334.88 503.803 2334.88 522.659V564.854C2334.88 583.711 2334.88 593.139 2340.74 598.996C2346.59 604.854 2356.02 604.854 2374.88 604.854H2417.07C2435.93 604.854 2445.36 604.854 2451.22 598.996C2457.07 593.139 2457.07 583.71 2457.07 564.854V522.659C2457.07 503.803 2457.07 494.375 2451.22 488.517C2445.36 482.659 2435.93 482.659 2417.07 482.659H2374.88C2356.02 482.659 2346.59 482.659 2340.74 488.517ZM-618.171 697.805C-618.171 678.948 -618.171 669.52 -612.313 663.663C-606.455 657.805 -597.027 657.805 -578.171 657.805H-535.976C-517.12 657.805 -507.691 657.805 -501.834 663.663C-495.976 669.52 -495.976 678.948 -495.976 697.805V740C-495.976 758.856 -495.976 768.284 -501.834 774.142C-507.691 780 -517.12 780 -535.976 780H-578.171C-597.027 780 -606.455 780 -612.313 774.142C-618.171 768.284 -618.171 758.856 -618.171 740V697.805ZM1016.96 663.663C1011.1 669.52 1011.1 678.948 1011.1 697.805V740C1011.1 758.856 1011.1 768.284 1016.96 774.142C1022.81 780 1032.24 780 1051.1 780H1093.29C1112.15 780 1121.58 780 1127.43 774.142C1133.29 768.284 1133.29 758.856 1133.29 740V697.805C1133.29 678.948 1133.29 669.52 1127.43 663.663C1121.58 657.805 1112.15 657.805 1093.29 657.805H1051.1C1032.24 657.805 1022.81 657.805 1016.96 663.663ZM-210.854 697.805C-210.854 678.948 -210.854 669.52 -204.996 663.663C-199.138 657.805 -189.71 657.805 -170.854 657.805H-128.658C-109.802 657.805 -100.374 657.805 -94.5162 663.663C-88.6584 669.52 -88.6584 678.948 -88.6584 697.805V740C-88.6584 758.856 -88.6584 768.284 -94.5162 774.142C-100.374 780 -109.802 780 -128.658 780H-170.854C-189.71 780 -199.138 780 -204.996 774.142C-210.854 768.284 -210.854 758.856 -210.854 740V697.805ZM1434.86 691.858C1429 697.716 1429 707.144 1429 726V768.195C1429 787.051 1429 796.479 1434.86 802.337C1440.72 808.195 1450.14 808.195 1469 808.195H1511.2C1530.05 808.195 1539.48 808.195 1545.34 802.337C1551.2 796.479 1551.2 787.051 1551.2 768.195V726C1551.2 707.144 1551.2 697.716 1545.34 691.858C1539.48 686 1530.05 686 1511.2 686H1469C1450.14 686 1440.72 686 1434.86 691.858ZM-414.512 697.805C-414.512 678.948 -414.512 669.52 -408.654 663.663C-402.796 657.805 -393.368 657.805 -374.512 657.805H-332.317C-313.46 657.805 -304.032 657.805 -298.174 663.663C-292.317 669.52 -292.317 678.948 -292.317 697.805V740C-292.317 758.856 -292.317 768.284 -298.174 774.142C-304.032 780 -313.46 780 -332.317 780H-374.512C-393.368 780 -402.796 780 -408.654 774.142C-414.512 768.284 -414.512 758.856 -414.512 740V697.805ZM1220.61 663.663C1214.76 669.52 1214.76 678.948 1214.76 697.805V740C1214.76 758.856 1214.76 768.284 1220.61 774.142C1226.47 780 1235.9 780 1254.76 780H1296.95C1315.81 780 1325.24 780 1331.09 774.142C1336.95 768.284 1336.95 758.856 1336.95 740V697.805C1336.95 678.948 1336.95 669.52 1331.09 663.663C1325.24 657.805 1315.81 657.805 1296.95 657.805H1254.76C1235.9 657.805 1226.47 657.805 1220.61 663.663ZM-85 698C-85 679.144 -85 669.716 -79.1422 663.858C-73.2843 658 -63.8562 658 -45 658H61C79.8562 658 89.2843 658 95.1422 663.858C101 669.716 101 679.144 101 698V803C101 821.856 101 831.284 95.1422 837.142C89.2843 843 79.8562 843 61 843H-45C-63.8562 843 -73.2843 843 -79.1422 837.142C-85 831.284 -85 821.856 -85 803V698ZM1619.86 691.858C1614 697.716 1614 707.144 1614 726V785C1614 803.856 1614 813.284 1619.86 819.142C1625.72 825 1635.14 825 1654 825H1713C1731.86 825 1741.28 825 1747.14 819.142C1753 813.284 1753 803.856 1753 785V726C1753 707.144 1753 697.716 1747.14 691.858C1741.28 686 1731.86 686 1713 686H1654C1635.14 686 1625.72 686 1619.86 691.858ZM160 703C160 684.144 160 674.716 165.858 668.858C171.716 663 181.144 663 200 663H265C283.856 663 293.284 663 299.142 668.858C305 674.716 305 684.144 305 703V768C305 786.856 305 796.284 299.142 802.142C293.284 808 283.856 808 265 808H200C181.144 808 171.716 808 165.858 802.142C160 796.284 160 786.856 160 768V703ZM1836.86 736.858C1831 742.716 1831 752.144 1831 771V845C1831 863.856 1831 873.284 1836.86 879.142C1842.72 885 1852.14 885 1871 885H1944C1962.86 885 1972.28 885 1978.14 879.142C1984 873.284 1984 863.856 1984 845V771C1984 752.144 1984 742.716 1978.14 736.858C1972.28 731 1962.86 731 1944 731H1871C1852.14 731 1842.72 731 1836.86 736.858ZM603.78 697.805C603.78 678.948 603.78 669.52 609.638 663.663C615.496 657.805 624.924 657.805 643.78 657.805H685.975C704.832 657.805 714.26 657.805 720.118 663.663C725.975 669.52 725.975 678.948 725.975 697.805V740C725.975 758.856 725.975 768.284 720.118 774.142C714.26 780 704.832 780 685.975 780H643.78C624.924 780 615.496 780 609.638 774.142C603.78 768.284 603.78 758.856 603.78 740V697.805ZM2238.91 663.663C2233.05 669.52 2233.05 678.948 2233.05 697.805V740C2233.05 758.856 2233.05 768.284 2238.91 774.142C2244.76 780 2254.19 780 2273.05 780H2315.24C2334.1 780 2343.53 780 2349.39 774.142C2355.24 768.284 2355.24 758.856 2355.24 740V697.805C2355.24 678.948 2355.24 669.52 2349.39 663.663C2343.53 657.805 2334.1 657.805 2315.24 657.805H2273.05C2254.19 657.805 2244.76 657.805 2238.91 663.663ZM392 703C392 684.144 392 674.716 397.858 668.858C403.716 663 413.144 663 432 663H482C500.856 663 510.284 663 516.142 668.858C522 674.716 522 684.144 522 703V753C522 771.856 522 781.284 516.142 787.142C510.284 793 500.856 793 482 793H432C413.144 793 403.716 793 397.858 787.142C392 781.284 392 771.856 392 753V703ZM2035.25 663.663C2029.39 669.52 2029.39 678.948 2029.39 697.805V740C2029.39 758.856 2029.39 768.284 2035.25 774.142C2041.11 780 2050.53 780 2069.39 780H2111.59C2130.44 780 2139.87 780 2145.73 774.142C2151.59 768.284 2151.59 758.856 2151.59 740V697.805C2151.59 678.948 2151.59 669.52 2145.73 663.663C2139.87 657.805 2130.44 657.805 2111.59 657.805H2069.39C2050.53 657.805 2041.11 657.805 2035.25 663.663ZM807.439 697.805C807.439 678.948 807.439 669.52 813.297 663.663C819.155 657.805 828.583 657.805 847.439 657.805H889.635C908.491 657.805 917.919 657.805 923.777 663.663C929.635 669.52 929.635 678.948 929.635 697.805V740C929.635 758.856 929.635 768.284 923.777 774.142C917.919 780 908.491 780 889.635 780H847.439C828.583 780 819.155 780 813.297 774.142C807.439 768.284 807.439 758.856 807.439 740V697.805ZM2442.56 663.663C2436.71 669.52 2436.71 678.948 2436.71 697.805V740C2436.71 758.856 2436.71 768.284 2442.56 774.142C2448.42 780 2457.85 780 2476.71 780H2518.9C2537.76 780 2547.19 780 2553.04 774.142C2558.9 768.284 2558.9 758.856 2558.9 740V697.805C2558.9 678.948 2558.9 669.52 2553.04 663.663C2547.19 657.805 2537.76 657.805 2518.9 657.805H2476.71C2457.85 657.805 2448.42 657.805 2442.56 663.663Z" fill="url(#paint0_linear_2358_49217)"/>
</g>
<defs>
<filter id="filter0_i_2358_49217" x="-720" y="0" width="3278.9" height="889" filterUnits="userSpaceOnUse" color-interpolation-filters="sRGB">
<feFlood flood-opacity="0" result="BackgroundImageFix"/>
<feBlend mode="normal" in="SourceGraphic" in2="BackgroundImageFix" result="shape"/>
<feColorMatrix in="SourceAlpha" type="matrix" values="0 0 0 0 0 0 0 0 0 0 0 0 0 0 0 0 0 0 127 0" result="hardAlpha"/>
<feOffset dy="4"/>
<feGaussianBlur stdDeviation="2"/>
<feComposite in2="hardAlpha" operator="arithmetic" k2="-1" k3="1"/>
<feColorMatrix type="matrix" values="0 0 0 0 1 0 0 0 0 1 0 0 0 0 1 0 0 0 0.25 0"/>
<feBlend mode="normal" in2="shape" result="effect1_innerShadow_2358_49217"/>
</filter>
<linearGradient id="paint0_linear_2358_49217" x1="919" y1="0" x2="919" y2="885" gradientUnits="userSpaceOnUse">
<stop stop-color="#2F2F2F"/>
<stop offset="0.455696" stop-color="#2F2F2F" stop-opacity="0"/>
<stop offset="1" stop-color="#2F2F2F"/>
</linearGradient>
</defs>
</svg>
