<svg width="44" height="44" viewBox="0 0 44 44" fill="none" xmlns="http://www.w3.org/2000/svg">
<path d="M22.0005 40.7086C22.2735 40.5706 22.5605 40.4387 22.8605 40.3087C23.4905 40.0386 24.1455 39.8036 24.9255 39.5536C25.0756 39.5056 26.2406 39.1436 26.4796 39.0616C30.3156 37.7346 33.2537 36.0506 35.2227 33.9486C37.7498 31.2516 39.1398 27.9906 39.3958 24.1515C38.7588 23.2935 38.4398 22.3555 38.4398 21.3385C38.4398 20.1085 38.9058 18.9955 39.8358 17.9995C40.7658 18.9955 41.2318 20.1095 41.2318 21.3385C41.2318 22.4015 40.8838 23.3775 40.1878 24.2665C39.9078 28.2556 38.4478 31.6656 35.8077 34.4816C33.7397 36.6896 30.6926 38.4366 26.7436 39.8026C26.4896 39.8906 25.3106 40.2556 25.1726 40.3006C24.4145 40.5436 23.7825 40.7706 23.1775 41.0307C23.0649 41.0786 22.9529 41.128 22.8415 41.1787C23.8635 41.8117 24.6265 42.5457 25.0975 43.4237C25.1465 43.5159 25.1564 43.624 25.125 43.7236C25.0936 43.8232 25.0236 43.9061 24.9305 43.9537C24.7365 44.0553 24.4968 43.9828 24.3915 43.7907C23.9365 42.9417 23.1255 42.2237 22.0005 41.6007C20.8755 42.2237 20.0645 42.9417 19.6095 43.7907C19.5042 43.9834 19.2638 44.0559 19.0695 43.9537C18.9766 43.9059 18.9068 43.823 18.8756 43.7234C18.8444 43.6238 18.8544 43.5158 18.9035 43.4237C19.3745 42.5457 20.1375 41.8117 21.1595 41.1787C21.0495 41.1287 20.9375 41.0787 20.8235 41.0297C20.1704 40.7548 19.5047 40.5112 18.8285 40.2996C18.6904 40.2556 17.5114 39.8906 17.2584 39.8026C13.3084 38.4366 10.2613 36.6896 8.19228 34.4826C5.55224 31.6656 4.09222 28.2556 3.81321 24.2665C3.1172 23.3765 2.76919 22.4015 2.76919 21.3385C2.76919 20.1085 3.2352 18.9955 4.16522 17.9995C5.09523 18.9955 5.56124 20.1095 5.56124 21.3385C5.56124 22.3555 5.24223 23.2935 4.60522 24.1515C4.86123 27.9916 6.25125 31.2516 8.77829 33.9486C10.7473 36.0506 13.6854 37.7346 17.5214 39.0616C17.7614 39.1446 18.9255 39.5056 19.0755 39.5536C19.8555 39.8036 20.5095 40.0396 21.1415 40.3096C21.4415 40.4376 21.7275 40.5706 22.0005 40.7086ZM3.68921 27.4286C2.48419 27.5376 1.54418 27.2596 0.869164 26.5946C0.195154 25.9306 -0.0868509 25.0046 0.0231509 23.8175C1.22817 23.7075 2.16818 23.9865 2.8432 24.6505C3.51821 25.3156 3.80021 26.2406 3.68921 27.4286ZM5.59224 27.0666C5.15223 25.9566 5.16523 24.9896 5.62724 24.1675C6.09025 23.3455 6.91626 22.8235 8.10528 22.6015C8.54329 23.7115 8.53129 24.6786 8.06928 25.5006C7.60627 26.3226 6.78026 26.8446 5.59224 27.0666ZM5.38224 31.8506C4.23922 32.2436 3.2592 32.1986 2.44119 31.7136C1.62318 31.2296 1.12217 30.3986 0.938165 29.2206C2.08018 28.8276 3.0612 28.8736 3.87821 29.3576C4.69723 29.8416 5.19823 30.6726 5.38124 31.8506H5.38224ZM7.13926 31.0466C6.44025 30.0736 6.21525 29.1326 6.46225 28.2246C6.70926 27.3166 7.38227 26.6136 8.48029 26.1146C9.1793 27.0876 9.4053 28.0286 9.1583 28.9366C8.91129 29.8446 8.23828 30.5476 7.13826 31.0466H7.13926ZM8.61329 35.8646C7.65027 36.5866 6.70326 36.8416 5.77324 36.6296C4.84323 36.4186 4.10622 35.7806 3.56221 34.7166C4.52522 33.9946 5.47224 33.7396 6.40225 33.9506C7.33227 34.1626 8.06828 34.8006 8.61229 35.8646H8.61329ZM10.0323 34.5646C9.06229 33.8526 8.55229 33.0266 8.50229 32.0876C8.45228 31.1486 8.87229 30.2756 9.76131 29.4666C10.7313 30.1796 11.2413 31.0056 11.2913 31.9436C11.3403 32.8826 10.9213 33.7566 10.0323 34.5656V34.5646ZM12.8144 38.6996C12.0903 39.6546 11.2523 40.1566 10.2993 40.2056C9.3463 40.2556 8.45928 39.8416 7.63727 38.9666C8.36128 38.0116 9.2003 37.5096 10.1533 37.4606C11.1063 37.4106 11.9933 37.8236 12.8134 38.6996H12.8144ZM13.8144 37.0646C12.6834 36.6426 11.9623 35.9876 11.6513 35.0986C11.3413 34.2096 11.4993 33.2556 12.1273 32.2376C13.2584 32.6596 13.9804 33.3146 14.2904 34.2036C14.6004 35.0926 14.4424 36.0466 13.8144 37.0646ZM17.0674 40.4716C16.5044 41.5267 15.7564 42.1517 14.8224 42.3477C13.8894 42.5427 12.9474 42.2717 11.9973 41.5337C12.5604 40.4786 13.3094 39.8536 14.2424 39.6586C15.1754 39.4626 16.1174 39.7336 17.0674 40.4716ZM17.7974 38.7036C16.6114 38.4606 15.7954 37.9246 15.3474 37.0946C14.8994 36.2646 14.9044 35.2986 15.3624 34.1946C16.5474 34.4376 17.3644 34.9746 17.8124 35.8046C18.2604 36.6346 18.2544 37.6006 17.7964 38.7036H17.7974ZM40.3108 27.4286C40.2008 26.2416 40.4818 25.3156 41.1568 24.6505C41.8318 23.9865 42.7718 23.7085 43.9769 23.8175C44.0869 25.0046 43.8048 25.9306 43.1308 26.5946C42.4558 27.2596 41.5158 27.5376 40.3108 27.4286ZM38.4078 27.0666C37.2197 26.8446 36.3937 26.3226 35.9307 25.5006C35.4687 24.6786 35.4567 23.7115 35.8947 22.6005C37.0847 22.8235 37.9098 23.3455 38.3728 24.1675C38.8348 24.9896 38.8468 25.9566 38.4078 27.0676V27.0666ZM38.6178 31.8506C38.8028 30.6726 39.3028 29.8406 40.1208 29.3576C40.9388 28.8736 41.9198 28.8276 43.0608 29.2206C42.8778 30.3986 42.3768 31.2306 41.5588 31.7136C40.7408 32.1986 39.7608 32.2436 38.6188 31.8506H38.6178ZM36.8607 31.0466C35.7617 30.5476 35.0887 29.8446 34.8417 28.9366C34.5947 28.0286 34.8217 27.0876 35.5197 26.1146C36.6187 26.6136 37.2907 27.3166 37.5378 28.2246C37.7848 29.1326 37.5597 30.0736 36.8607 31.0466ZM35.3867 35.8646C35.9317 34.8006 36.6687 34.1626 37.5987 33.9506C38.5288 33.7396 39.4748 33.9946 40.4388 34.7166C39.8938 35.7806 39.1558 36.4186 38.2268 36.6296C37.2967 36.8416 36.3497 36.5866 35.3867 35.8646ZM33.9677 34.5646C33.0787 33.7566 32.6597 32.8826 32.7097 31.9446C32.7597 31.0046 33.2697 30.1796 34.2397 29.4666C35.1277 30.2756 35.5467 31.1486 35.4967 32.0876C35.4467 33.0266 34.9367 33.8526 33.9677 34.5656V34.5646ZM31.1866 38.6996C32.0077 37.8236 32.8947 37.4106 33.8477 37.4596C34.8007 37.5096 35.6397 38.0116 36.3637 38.9666C35.5427 39.8416 34.6547 40.2547 33.7017 40.2066C32.7487 40.1567 31.9107 39.6546 31.1866 38.6996ZM30.1866 37.0646C29.5586 36.0466 29.3996 35.0926 29.7106 34.2036C30.0206 33.3146 30.7426 32.6596 31.8737 32.2376C32.5017 33.2556 32.6607 34.2096 32.3497 35.0986C32.0397 35.9876 31.3176 36.6426 30.1866 37.0646ZM26.9336 40.4716C27.8836 39.7336 28.8256 39.4626 29.7586 39.6586C30.6916 39.8536 31.4407 40.4786 32.0037 41.5337C31.0536 42.2717 30.1116 42.5437 29.1786 42.3477C28.2446 42.1527 27.4966 41.5277 26.9336 40.4716ZM26.2036 38.7036C25.7466 37.6006 25.7406 36.6336 26.1886 35.8036C26.6366 34.9736 27.4536 34.4376 28.6386 34.1956C29.0966 35.2986 29.1016 36.2656 28.6536 37.0956C28.2056 37.9256 27.3896 38.4606 26.2036 38.7036ZM22.2865 19.8635L15.7764 23.5895C15.2384 23.8981 14.5523 23.7172 14.2364 23.1835C14.0964 22.9444 14.0515 22.6613 14.1104 22.3905L15.6844 15.1255L10.0893 10.1625C9.8669 9.96636 9.73245 9.68923 9.7161 9.39317C9.69974 9.0971 9.80285 8.80686 10.0023 8.58745C10.1893 8.38145 10.4473 8.25145 10.7253 8.22245L18.2054 7.45645L21.2555 0.662404C21.4394 0.258919 21.8421 0 22.2855 0C22.729 0 23.1316 0.258919 23.3155 0.662404L26.3656 7.45645L33.8457 8.22245C34.4657 8.28645 34.9157 8.83445 34.8517 9.44646C34.8227 9.72291 34.691 9.97842 34.4827 10.1625L28.8886 15.1255L30.4626 22.3905C30.5244 22.681 30.4677 22.9842 30.3051 23.2327C30.1426 23.4813 29.8875 23.6547 29.5966 23.7145C29.3233 23.7726 29.0382 23.7281 28.7956 23.5895L22.2855 19.8645L22.2865 19.8635ZM27.6496 14.7265L33.7297 9.33146L25.6016 8.49945L22.2865 1.11441L18.9705 8.49945L10.8403 9.33146L16.9224 14.7265L15.2114 22.6245L22.2855 18.5765L29.3596 22.6245L27.6486 14.7265H27.6496ZM22.2865 16.2835L17.7574 18.7635L18.8535 13.9255L14.9594 10.6205L20.1645 10.1105L22.2865 5.58643L24.4075 10.1095L29.6136 10.6195L25.7196 13.9255L26.8146 18.7635L22.2865 16.2835Z" fill="white" fill-opacity="0.6"/>
</svg>
