<svg width="44" height="44" viewBox="0 0 44 44" fill="none" xmlns="http://www.w3.org/2000/svg">
<path d="M39.8349 17.9999C40.7649 18.9959 41.2309 20.1098 41.2309 21.3388C41.2309 22.4018 40.8829 23.3778 40.1869 24.2668C39.9069 28.2558 38.4469 31.6658 35.8069 34.4817C33.7389 36.6897 30.6919 38.4367 26.743 39.8027C26.489 39.8907 25.31 40.2557 25.172 40.3007C24.414 40.5437 23.782 40.7707 23.177 41.0307C23.0644 41.0787 22.9524 41.128 22.841 41.1787C23.863 41.8117 24.626 42.5457 25.097 43.4237C25.1459 43.516 25.1558 43.624 25.1244 43.7236C25.093 43.8233 25.023 43.9061 24.93 43.9537C24.7359 44.0553 24.4962 43.9828 24.391 43.7907C23.936 42.9417 23.125 42.2237 22 41.6007C20.875 42.2237 20.064 42.9417 19.609 43.7907C19.5037 43.9834 19.2633 44.0559 19.069 43.9537C18.9762 43.9059 18.9064 43.823 18.8752 43.7234C18.844 43.6238 18.854 43.5158 18.903 43.4237C19.374 42.5457 20.137 41.8117 21.159 41.1787C21.049 41.1287 20.937 41.0787 20.823 41.0297C20.17 40.7548 19.5042 40.5112 18.828 40.2997C18.69 40.2557 17.511 39.8907 17.258 39.8027C13.3081 38.4367 10.2611 36.6897 8.19209 34.4827C5.55211 31.6658 4.09212 28.2558 3.81312 24.2668C3.11713 23.3768 2.76913 22.4018 2.76913 21.3388C2.76913 20.1088 3.23513 18.9959 4.16512 17.9999C5.09512 18.9959 5.56111 20.1098 5.56111 21.3388C5.56111 22.3558 5.24211 23.2938 4.60512 24.1518C4.86112 27.9918 6.25111 31.2518 8.77809 33.9487C10.7471 36.0507 13.6851 37.7347 17.521 39.0617C17.761 39.1447 18.925 39.5057 19.075 39.5537C19.855 39.8037 20.509 40.0397 21.141 40.3097C21.441 40.4377 21.727 40.5707 22 40.7087C22.273 40.5707 22.56 40.4387 22.86 40.3087C23.49 40.0387 24.145 39.8037 24.925 39.5537C25.075 39.5057 26.24 39.1437 26.479 39.0617C30.3149 37.7347 33.2529 36.0507 35.2219 33.9487C37.7489 31.2518 39.1389 27.9908 39.3949 24.1518C38.7579 23.2938 38.4389 22.3558 38.4389 21.3388C38.4389 20.1088 38.9049 18.9959 39.8349 17.9999ZM17.067 40.4717C16.504 41.5267 15.756 42.1517 14.822 42.3477C13.8891 42.5427 12.9471 42.2717 11.9971 41.5337C12.5601 40.4787 13.3091 39.8537 14.2421 39.6587C15.175 39.4627 16.117 39.7337 17.067 40.4717ZM29.7579 39.6587C30.6909 39.8537 31.4399 40.4787 32.0029 41.5337C31.0529 42.2717 30.1109 42.5437 29.178 42.3477C28.244 42.1527 27.496 41.5277 26.933 40.4717C27.883 39.7337 28.825 39.4627 29.7579 39.6587ZM12.8141 38.6987C12.0901 39.6547 11.2521 40.1567 10.2991 40.2057C9.34609 40.2557 8.45909 39.8417 7.6371 38.9667C8.36109 38.0117 9.20009 37.5097 10.1531 37.4607C11.1061 37.4107 11.9931 37.8237 12.8131 38.6997L12.8141 38.6987ZM33.8469 37.4607C34.7999 37.5097 35.6389 38.0117 36.3629 38.9667C35.5419 39.8417 34.6539 40.2547 33.7009 40.2067C32.7479 40.1567 31.9099 39.6547 31.1859 38.6997C32.0069 37.8237 32.8939 37.4107 33.8469 37.4597V37.4607ZM15.362 34.1957C16.547 34.4377 17.364 34.9737 17.812 35.8037C18.26 36.6337 18.254 37.6007 17.796 38.7037C16.611 38.4607 15.796 37.9247 15.347 37.0947C14.899 36.2647 14.904 35.2987 15.362 34.1947V34.1957ZM28.638 34.1957C29.096 35.2987 29.101 36.2657 28.653 37.0957C28.205 37.9257 27.389 38.4607 26.203 38.7037C25.746 37.6007 25.74 36.6337 26.188 35.8037C26.636 34.9737 27.453 34.4377 28.638 34.1957ZM12.1271 32.2378C13.2581 32.6598 13.9801 33.3147 14.2901 34.2037C14.6001 35.0927 14.4421 36.0467 13.8141 37.0647C12.6831 36.6427 11.9621 35.9877 11.6511 35.0987C11.3411 34.2097 11.4991 33.2557 12.1271 32.2378ZM31.8729 32.2378C32.5009 33.2557 32.6599 34.2097 32.3489 35.0987C32.0389 35.9877 31.3169 36.6427 30.1859 37.0647C29.558 36.0467 29.399 35.0927 29.7099 34.2037C30.0199 33.3147 30.7419 32.6598 31.8729 32.2378ZM6.40111 33.9497C7.3311 34.1617 8.0681 34.7997 8.61309 35.8637C7.6501 36.5857 6.7031 36.8407 5.77311 36.6287C4.84312 36.4177 4.10612 35.7797 3.56213 34.7157C4.52512 33.9937 5.47211 33.7387 6.40211 33.9497H6.40111ZM40.4379 34.7157C39.8939 35.7797 39.1559 36.4177 38.2269 36.6287C37.2969 36.8407 36.3499 36.5857 35.3869 35.8637C35.9319 34.7997 36.6689 34.1617 37.5989 33.9497C38.5289 33.7387 39.4749 33.9937 40.4389 34.7157H40.4379ZM9.76108 29.4658C10.7311 30.1788 11.2411 31.0048 11.2911 31.9428C11.3401 32.8818 10.9211 33.7557 10.0321 34.5647C9.06209 33.8517 8.55209 33.0248 8.50209 32.0868C8.45209 31.1478 8.87209 30.2748 9.76108 29.4658ZM34.2389 29.4658C35.1279 30.2748 35.5469 31.1478 35.4969 32.0868C35.4469 33.0258 34.9369 33.8517 33.9679 34.5647C33.0789 33.7547 32.6599 32.8818 32.7099 31.9428C32.7599 31.0048 33.2699 30.1788 34.2399 29.4658H34.2389ZM3.87912 29.3558C4.69712 29.8408 5.19712 30.6718 5.38111 31.8498C4.23912 32.2428 3.25913 32.1978 2.44113 31.7128C1.62314 31.2288 1.12214 30.3978 0.938144 29.2198C2.08014 28.8268 3.06113 28.8728 3.87812 29.3568L3.87912 29.3558ZM43.0619 29.2198C42.8779 30.3978 42.3769 31.2298 41.5589 31.7128C40.7409 32.1978 39.7609 32.2428 38.6189 31.8498C38.8029 30.6718 39.3029 29.8398 40.1209 29.3568C40.9389 28.8728 41.9199 28.8268 43.0609 29.2198H43.0619ZM8.48009 26.1148C9.17909 27.0878 9.40509 28.0288 9.15809 28.9368C8.91109 29.8448 8.23809 30.5478 7.1381 31.0468C6.44011 30.0738 6.21511 29.1328 6.46211 28.2248C6.7091 27.3168 7.3821 26.6138 8.48009 26.1148ZM35.5199 26.1148C36.6189 26.6138 37.2909 27.3168 37.5379 28.2248C37.7849 29.1328 37.5599 30.0738 36.8609 31.0468C35.7619 30.5478 35.0889 29.8448 34.8419 28.9368C34.5949 28.0288 34.8219 27.0878 35.5199 26.1148ZM27.078 6.32095C28.905 6.32095 30.8399 7.32395 32.2189 9.05893C27.7 11.5579 28.434 18.0679 32.9999 19.8089C32.3719 21.2128 32.0699 21.8408 31.2609 23.0828C30.1319 24.8168 28.541 26.9768 26.569 26.9948C24.816 27.0118 24.366 25.8448 21.987 25.8578C19.609 25.8708 19.113 27.0158 17.359 27C15.388 26.9808 13.8791 25.0308 12.7491 23.2968C9.59208 18.4469 9.26109 12.7569 11.2091 9.73093C12.5941 7.58094 14.777 6.32295 16.829 6.32295C18.92 6.32295 20.234 7.47894 21.963 7.47894C23.64 7.47894 24.661 6.32095 27.078 6.32095ZM2.84313 24.6498C3.51813 25.3148 3.80012 26.2398 3.68913 27.4278C2.48413 27.5368 1.54414 27.2588 0.869145 26.5938C0.195149 25.9298 -0.0868489 25.0038 0.0231504 23.8168C1.22814 23.7068 2.16814 23.9858 2.84313 24.6498ZM43.9769 23.8168C44.0868 25.0038 43.8049 25.9298 43.1309 26.5938C42.4559 27.2588 41.5159 27.5368 40.3109 27.4278C40.2009 26.2408 40.4819 25.3148 41.1569 24.6498C41.8319 23.9858 42.7719 23.7078 43.9769 23.8168ZM8.10509 22.6008C8.54309 23.7108 8.53109 24.6778 8.0691 25.4998C7.6061 26.3218 6.7801 26.8438 5.59211 27.0658C5.15212 25.9558 5.16512 24.9888 5.62711 24.1668C6.09011 23.3448 6.9161 22.8228 8.10509 22.6008ZM35.8949 22.6008C37.0849 22.8228 37.9099 23.3448 38.3729 24.1668C38.8349 24.9888 38.8469 25.9558 38.4079 27.0668C37.2199 26.8438 36.3939 26.3218 35.9309 25.4998C35.4689 24.6778 35.4569 23.7108 35.8949 22.5998V22.6008ZM26.547 0C26.789 1.64099 26.122 3.24598 25.244 4.38297C24.304 5.60096 22.684 6.54495 21.118 6.49595C20.833 4.92596 21.566 3.30998 22.456 2.21998C23.435 1.01999 25.113 0.0999993 26.547 0Z" fill="white" fill-opacity="0.6"/>
</svg>
