<svg width="624" height="224" viewBox="0 0 624 224" fill="none" xmlns="http://www.w3.org/2000/svg">
<path d="M59.0605 220.415C90.2058 220.415 108.432 202.42 109.585 169.66H81.2083C80.0548 185.809 73.1336 192.961 59.0605 192.961C47.0638 192.961 39.912 185.348 39.912 169.199V104.601C39.912 87.9901 47.0638 80.3769 58.8298 80.3769C72.6722 80.3769 79.5934 87.5287 80.5162 104.14H108.893C107.509 71.1486 89.9751 52.9229 59.0605 52.9229C28.8381 52.9229 10.6123 71.1486 10.6123 104.601V169.199C10.6123 202.42 29.0688 220.415 59.0605 220.415Z" fill="white"/>
<path d="M313.043 220.877C344.188 220.877 361.952 200.805 361.952 175.428C361.952 124.672 296.201 123.75 296.201 95.6034C296.201 86.3752 302.43 80.3769 313.043 80.3769C323.886 80.3769 330.345 86.6059 330.576 99.5254H359.645C359.414 70.6872 341.881 52.9229 313.043 52.9229C284.435 52.9229 267.363 70.9179 267.363 94.9113C267.363 143.59 332.422 145.897 332.422 175.197C332.422 185.579 326.193 193.192 313.273 193.192C301.046 193.192 293.433 186.502 293.202 171.967H264.133C264.364 203.112 283.281 220.877 313.043 220.877Z" fill="white"/>
<path d="M427.684 190.885V148.666H476.132V122.827H427.684V82.9146H480.515V56.1527H399.307V217.647H482.822V190.885H427.684Z" fill="white"/>
<path d="M563.764 220.877C594.909 220.877 612.674 200.805 612.674 175.428C612.674 124.672 546.922 123.75 546.922 95.6034C546.922 86.3752 553.151 80.3769 563.764 80.3769C574.607 80.3769 581.067 86.6059 581.298 99.5254H610.367C610.136 70.6872 592.602 52.9229 563.764 52.9229C535.156 52.9229 518.084 70.9179 518.084 94.9113C518.084 143.59 583.143 145.897 583.143 175.197C583.143 185.579 576.914 193.192 563.995 193.192C551.767 193.192 544.154 186.502 543.923 171.967H514.854C515.085 203.112 534.003 220.877 563.764 220.877Z" fill="white"/>
<path d="M210.517 217.647H240.048L200.366 56.1527H169.913L130.232 217.647H159.762L166.222 188.347L171.989 161.355L178.449 131.363C180.756 120.289 183.294 102.525 184.678 91.6815H185.37C186.985 102.525 189.523 120.289 191.83 131.363L198.29 161.355L204.057 188.347L210.517 217.647Z" fill="white"/>
<path d="M343.469 0H276.412V31.5588H343.469V0Z" fill="#FF0044"/>
<path d="M120.794 161.059H192.617L199.147 190.441H127.323L120.794 161.059Z" fill="#FF0044"/>
</svg>
