<svg width="151" height="28" viewBox="0 0 151 28" fill="none" xmlns="http://www.w3.org/2000/svg">
<rect width="126" height="28" fill="white"/>
<path d="M11.612 13.588C11.22 13.588 10.786 13.714 10.506 13.938V12.706C10.506 12.132 10.8 11.88 11.276 11.88C11.752 11.88 11.976 12.202 12.032 12.72H13.936C13.894 11.068 12.858 10.032 11.276 10.032C9.666 10.032 8.588 11.096 8.588 12.734V17.466C8.588 19.09 9.68 20.168 11.29 20.168C12.9 20.168 13.992 19.09 13.992 17.466V16.08C13.992 14.652 13.04 13.588 11.612 13.588ZM12.074 17.452C12.074 17.998 11.78 18.32 11.29 18.32C10.8 18.32 10.506 17.998 10.506 17.452V16.22C10.506 15.66 10.8 15.324 11.304 15.324C11.794 15.324 12.074 15.66 12.074 16.22V17.452ZM20.8679 20.168C22.8559 20.168 23.9899 19.062 24.0319 17.004H22.0439C21.9879 17.872 21.6379 18.236 20.8679 18.236C20.2519 18.236 19.9159 17.844 19.9159 17.004V13.196C19.9159 12.328 20.2659 11.936 20.8679 11.936C21.6239 11.936 21.9599 12.3 22.0159 13.196H24.0039C23.9339 11.124 22.8419 10.004 20.8819 10.004C18.9639 10.004 17.8439 11.124 17.8439 13.196V17.004C17.8439 19.062 18.9639 20.168 20.8679 20.168ZM28.0765 20.168C30.0645 20.168 31.2545 18.922 31.2545 16.822V13.378C31.2545 11.278 30.0645 10.032 28.0765 10.032C26.0885 10.032 24.8985 11.278 24.8985 13.378V16.822C24.8985 18.922 26.0885 20.168 28.0765 20.168ZM28.0765 18.236C27.3345 18.236 26.9565 17.746 26.9565 16.822V13.378C26.9565 12.454 27.3345 11.964 28.0765 11.964C28.8185 11.964 29.1965 12.454 29.1965 13.378V16.822C29.1965 17.746 28.8185 18.236 28.0765 18.236ZM35.6658 20.168C37.6258 20.168 38.7878 18.922 38.7878 16.85V10.2H36.7158V16.85C36.7158 17.746 36.3658 18.236 35.6658 18.236C34.9658 18.236 34.6158 17.746 34.6158 16.85V10.2H32.5438V16.85C32.5438 18.922 33.7058 20.168 35.6658 20.168ZM44.6383 10.2V12.468C44.6383 13.378 44.7503 15.058 44.9183 16.29L44.8763 16.332C44.6383 15.716 44.4143 15.072 44.1763 14.456L42.3143 10.2H40.3543V20H42.3143V18.012C42.3143 16.92 42.2163 15.086 42.0623 13.854L42.1043 13.812L42.9863 16.206L44.6383 20H46.5983V10.2H44.6383ZM53.5607 10.2H47.6807V12.09H49.5987V20H51.6427V12.09H53.5607V10.2ZM58.7607 20H60.9307L59.0827 16.29C59.9507 15.772 60.4407 14.792 60.4407 13.462C60.4407 11.404 59.2927 10.2 57.3467 10.2H54.5047V20H56.4927V16.71H57.1927L58.7607 20ZM56.4927 12.09H57.3187C58.0187 12.09 58.3967 12.566 58.3967 13.462C58.3967 14.344 58.0187 14.82 57.3187 14.82H56.4927V12.09ZM61.8739 10.2V20H63.8619V10.2H61.8739ZM67.5806 18.11V15.94H70.3666V14.12H67.5806V12.09H70.6466V10.2H65.5926V20H70.7866V18.11H67.5806ZM74.5774 20.196C76.5234 20.196 77.6574 19.02 77.6574 17.41C77.6574 14.288 73.7654 14.19 73.7654 12.65C73.7654 12.202 74.0734 11.922 74.5914 11.922C75.1654 11.922 75.4594 12.244 75.4594 12.888H77.5034C77.5034 11.082 76.4114 10.004 74.6054 10.004C72.7994 10.004 71.7494 11.096 71.7494 12.594C71.7494 15.576 75.5854 15.772 75.5854 17.396C75.5854 17.886 75.2634 18.264 74.6054 18.264C73.9754 18.264 73.5834 17.928 73.5834 17.144H71.5394C71.5394 19.118 72.7154 20.196 74.5774 20.196ZM84.5414 20.168C86.5294 20.168 87.7194 18.922 87.7194 16.822V13.378C87.7194 11.278 86.5294 10.032 84.5414 10.032C82.5534 10.032 81.3634 11.278 81.3634 13.378V16.822C81.3634 18.922 82.5534 20.168 84.5414 20.168ZM84.5414 18.236C83.7994 18.236 83.4214 17.746 83.4214 16.822V13.378C83.4214 12.454 83.7994 11.964 84.5414 11.964C85.2834 11.964 85.6614 12.454 85.6614 13.378V16.822C85.6614 17.746 85.2834 18.236 84.5414 18.236ZM94.0206 12.09V10.2H89.1766V20H91.1646V15.94H93.7406V14.12H91.1646V12.09H94.0206ZM100.05 12.09V10.2H95.2059V20H97.1939V15.94H99.7699V14.12H97.1939V12.09H100.05ZM101.235 10.2V20H103.223V10.2H101.235ZM107.698 20.168C109.686 20.168 110.82 19.062 110.862 17.004H108.874C108.818 17.872 108.468 18.236 107.698 18.236C107.082 18.236 106.746 17.844 106.746 17.004V13.196C106.746 12.328 107.096 11.936 107.698 11.936C108.454 11.936 108.79 12.3 108.846 13.196H110.834C110.764 11.124 109.672 10.004 107.712 10.004C105.794 10.004 104.674 11.124 104.674 13.196V17.004C104.674 19.062 105.794 20.168 107.698 20.168ZM113.997 18.11V15.94H116.783V14.12H113.997V12.09H117.063V10.2H112.009V20H117.203V18.11H113.997Z" fill="black"/>
<rect x="127" width="3" height="28" fill="white"/>
<rect x="131" width="6" height="28" fill="white"/>
<rect x="138" width="2" height="28" fill="white"/>
<rect x="142" width="1" height="28" fill="white"/>
<rect x="144" width="3" height="28" fill="white"/>
<rect x="150" width="0.5" height="28" fill="white"/>
</svg>
