<svg width="554" height="80" viewBox="0 0 554 80" fill="none" xmlns="http://www.w3.org/2000/svg">
<path d="M0 76.7238H19.5344C34.0003 76.7238 42.5532 67.6837 42.5532 52.3688V26.3122C42.5532 11.1036 34.0003 2.27624 19.3232 2.27624H0V76.7238ZM12.9877 64.2804V14.7196H19.5344C25.9754 14.7196 29.4599 18.6547 29.4599 26.3122V52.2624C29.4599 60.1326 25.9754 64.2804 19.5344 64.2804H12.9877Z" fill="white"/>
<path d="M129.612 76.7238H143.445L161.29 2.27624H147.774L140.066 40.1381C138.904 46.0939 137.637 54.3895 136.687 60.4517H136.264C135.42 54.3895 134.153 46.0939 132.991 40.1381L125.283 2.27624H111.767L129.612 76.7238Z" fill="white"/>
<path d="M189.114 64.3867V44.924H211.289V33.0124H189.114V14.6133H213.295V2.27624H176.127V76.7238H214.351V64.3867H189.114Z" fill="white"/>
<path d="M245.589 64.2804V2.27624H232.601V76.7238H268.714V64.2804H245.589Z" fill="white"/>
<path d="M304.938 78C319.51 78 328.168 68.5345 328.168 52.7942V26.2058C328.168 10.4655 319.51 1 304.938 1C290.261 1 281.602 10.4655 281.602 26.2058V52.7942C281.602 68.5345 290.261 78 304.938 78ZM304.938 65.3439C298.391 65.3439 295.012 60.8771 295.012 52.7942V26.2058C295.012 18.1229 298.391 13.6561 304.938 13.6561C311.485 13.6561 314.758 18.1229 314.758 26.2058V52.7942C314.758 60.8771 311.485 65.3439 304.938 65.3439Z" fill="white"/>
<path d="M407.697 2.27624V76.7238H420.685V2.27624H407.697Z" fill="white"/>
<path d="M474.632 2.27624V24.9296C474.632 31.7362 475.371 43.7541 476.427 52.1561L476.11 52.4751C474.315 47.9019 472.098 42.0525 470.197 37.2666L454.781 2.27624H441.899V76.7238H454.675V55.3467C454.675 47.5829 454.042 34.9268 453.091 26.5249L453.408 26.2058C455.414 31.7362 458.054 38.5428 460.272 44.3923L474.526 76.7238H487.408V2.27624H474.632Z" fill="white"/>
<path d="M529.273 78C543.211 78 551.447 69.5981 551.764 54.4959V35.6713H528.85V47.2638H539.093V54.4959C539.093 62.047 535.714 65.3439 529.484 65.3439C523.465 65.3439 520.086 62.047 520.086 54.2831V24.7168C520.086 16.953 523.36 13.6561 529.273 13.6561C535.186 13.6561 538.037 16.8467 538.354 24.3978H551.341C550.813 9.29558 543 1 529.273 1C515.124 1 506.676 9.29558 506.676 24.7168V54.2831C506.676 69.5981 515.229 78 529.273 78Z" fill="white"/>
<path fill-rule="evenodd" clip-rule="evenodd" d="M80.9008 64.1679V76.4159H105.993V64.1679H80.9008ZM80.7576 44.8457V64.0975H67.7705V2.50586H104.937V14.7538H80.7576V33.0201H102.931V44.8457H80.7576Z" fill="#FF0044"/>
<path d="M353 3H373.885C389.065 3 398 11.9686 398 27.2986C398 42.6286 389.065 51.4929 373.885 51.4929H366.242V76H353V39.3957H369.388H373.777C380.883 39.3957 384.435 35.3286 384.435 27.2986C384.435 19.2686 380.883 15.2014 373.777 15.2014H353V3Z" fill="#FF0044"/>
</svg>
