<svg width="1233" height="133" viewBox="0 0 1233 133" fill="none" xmlns="http://www.w3.org/2000/svg">
<path d="M0.740234 3V22.44H42.6802L10.6402 129H32.7802L66.6202 18.3V3H0.740234Z" fill="white"/>
<path d="M140.949 129H174.249C198.909 129 213.489 113.7 213.489 87.78V43.68C213.489 17.94 198.909 3 173.889 3H140.949V129ZM163.089 107.94V24.06H174.249C185.229 24.06 191.169 30.72 191.169 43.68V87.6C191.169 100.92 185.229 107.94 174.249 107.94H163.089Z" fill="white"/>
<path d="M266.526 108.12V75.18H304.326V55.02H266.526V23.88H307.746V3H244.386V129H309.546V108.12H266.526Z" fill="white"/>
<path d="M358.298 129H381.878L412.298 3H389.258L376.118 67.08C374.138 77.16 371.978 91.2 370.358 101.46H369.638C368.198 91.2 366.038 77.16 364.058 67.08L350.918 3H327.878L358.298 129Z" fill="white"/>
<path d="M457.93 108.12V75.18H495.73V55.02H457.93V23.88H499.15V3H435.79V129H500.95V108.12H457.93Z" fill="white"/>
<path d="M552.402 107.94V3H530.262V129H591.822V107.94H552.402Z" fill="white"/>
<path d="M757.29 3H722.37V129H744.51V86.7H757.29C782.67 86.7 797.61 71.4 797.61 44.94C797.61 18.48 782.67 3 757.29 3ZM757.11 65.82H744.51V24.06H757.11C768.99 24.06 774.93 31.08 774.93 44.94C774.93 58.8 768.99 65.82 757.11 65.82Z" fill="white"/>
<path d="M904.706 3L884.366 52.32C881.666 58.98 877.166 70.5 875.546 75.72H874.826C873.206 70.5 868.886 58.98 866.186 52.32L845.666 3H823.346V129H844.946V89.58C844.406 74.82 843.866 60.42 843.146 46.2L844.046 45.84C847.826 56.28 851.786 67.62 855.746 78.96L864.206 101.28H886.166L894.626 78.96C898.586 67.62 902.726 56.28 906.326 45.84L907.226 46.2C906.506 60.42 905.966 74.82 905.426 89.58V129H927.206V3H904.706Z" fill="white"/>
<path d="M983.727 108.12V75.18H1021.53V55.02H983.727V23.88H1024.95V3H961.587V129H1026.75V108.12H983.727Z" fill="white"/>
<path d="M1111.86 3V41.34C1111.86 52.86 1113.12 73.2 1114.92 87.42L1114.38 87.96C1111.32 80.22 1107.54 70.32 1104.3 62.22L1078.02 3H1056.06V129H1077.84V92.82C1077.84 79.68 1076.76 58.26 1075.14 44.04L1075.68 43.5C1079.1 52.86 1083.6 64.38 1087.38 74.28L1111.68 129H1133.64V3H1111.86Z" fill="white"/>
<path d="M1232.72 3H1159.28V24.06H1184.66V129H1207.34V24.06H1232.72V3Z" fill="white"/>
<path d="M651.773 131.16C676.613 131.16 691.373 115.14 691.373 88.4998V43.4998C691.373 16.8598 676.613 0.839844 651.773 0.839844C626.753 0.839844 611.993 16.8598 611.993 43.4998V88.4998C611.993 115.14 626.753 131.16 651.773 131.16ZM651.773 109.74C640.613 109.74 634.853 102.18 634.853 88.4998V43.4998C634.853 29.8198 640.613 22.2598 651.773 22.2598C662.933 22.2598 668.513 29.8198 668.513 43.4998V88.4998C668.513 102.18 662.933 109.74 651.773 109.74Z" fill="#FF0044"/>
<path d="M0.740234 3V22.44H42.6802L10.6402 129H32.7802L66.6202 18.3V3H0.740234Z" fill="#FF0044"/>
</svg>
