<svg width="368" height="80" viewBox="0 0 368 80" fill="none" xmlns="http://www.w3.org/2000/svg">
<path d="M76.7308 77C90.8979 77 99.5673 68.0337 99.5673 52.5274V2H86.0345V52.5274C86.0345 60.4388 82.6513 64.4472 76.7308 64.4472C70.8102 64.4472 67.427 60.4388 67.427 52.5274V2H54V52.5274C54 68.0337 62.6694 77 76.7308 77Z" fill="white"/>
<path d="M157.408 2H114.272V14.3418H129.179V75.8397H142.5V14.3418H157.408V2Z" fill="white"/>
<path d="M194.985 77C209.152 77 217.822 68.0337 217.822 52.5274V2H204.289V52.5274C204.289 60.4388 200.906 64.4472 194.985 64.4472C189.065 64.4472 185.682 60.4388 185.682 52.5274V2H172.255V52.5274C172.255 68.0337 180.924 77 194.985 77Z" fill="white"/>
<path d="M269.953 75.8397H284.226L269.319 47.7806C276.825 44.1941 280.948 36.5992 280.948 25.8397C280.948 10.7553 272.596 2 258.112 2H237.813V75.8397H250.817V50.1013H256.737L269.953 75.8397ZM250.817 14.3418H258.006C264.244 14.3418 267.627 18.3502 267.627 25.9451C267.627 33.6456 264.244 37.7595 258.006 37.7595H250.817V14.3418Z" fill="white"/>
<path d="M312.732 63.6034V44.2996H334.934V32.4852H312.732V14.2363H336.943V2H299.728V75.8397H338V63.6034H312.732Z" fill="white"/>
<path d="M359.949 77C364.139 77 367 73.9343 367 69.4453C367 64.9562 364.139 62 359.949 62C355.759 62 353 64.9562 353 69.4453C353 73.9343 355.759 77 359.949 77Z" fill="#FF0044"/>
<path fill-rule="evenodd" clip-rule="evenodd" d="M38.6499 1.62598V13.8739H15.949V32.3514H36.6438V44.2826H15.949V50.6591H2.96191V1.62598H38.6499ZM2.96191 63.8573V75.536H15.949V63.8573H2.96191Z" fill="#FF0044"/>
</svg>
