<svg width="44" height="44" viewBox="0 0 44 44" fill="none" xmlns="http://www.w3.org/2000/svg">
<path d="M22.0005 40.7087C22.2735 40.5707 22.5605 40.4387 22.8605 40.3087C23.4905 40.0387 24.1455 39.8037 24.9255 39.5537C25.0756 39.5057 26.2406 39.1437 26.4796 39.0617C30.3156 37.7347 33.2537 36.0507 35.2227 33.9487C37.7498 31.2518 39.1398 27.9908 39.3958 24.1518C38.7588 23.2938 38.4398 22.3558 38.4398 21.3388C38.4398 20.1088 38.9058 18.9959 39.8358 17.9999C40.7658 18.9959 41.2318 20.1098 41.2318 21.3388C41.2318 22.4018 40.8838 23.3778 40.1878 24.2668C39.9078 28.2558 38.4478 31.6658 35.8077 34.4817C33.7397 36.6897 30.6926 38.4367 26.7436 39.8027C26.4896 39.8907 25.3106 40.2557 25.1726 40.3007C24.4145 40.5437 23.7825 40.7707 23.1775 41.0307C23.0649 41.0786 22.9529 41.128 22.8415 41.1787C23.8635 41.8117 24.6265 42.5457 25.0976 43.4237C25.1465 43.5159 25.1564 43.624 25.125 43.7236C25.0936 43.8232 25.0236 43.9061 24.9305 43.9537C24.7365 44.0553 24.4968 43.9828 24.3915 43.7907C23.9365 42.9417 23.1255 42.2237 22.0005 41.6007C20.8755 42.2237 20.0645 42.9417 19.6095 43.7907C19.5042 43.9834 19.2638 44.0559 19.0695 43.9537C18.9766 43.9059 18.9068 43.823 18.8756 43.7234C18.8444 43.6238 18.8544 43.5158 18.9035 43.4237C19.3745 42.5457 20.1375 41.8117 21.1595 41.1787C21.0495 41.1287 20.9375 41.0787 20.8235 41.0297C20.1704 40.7548 19.5047 40.5112 18.8285 40.2997C18.6904 40.2557 17.5114 39.8907 17.2584 39.8027C13.3084 38.4367 10.2613 36.6897 8.19228 34.4827C5.55224 31.6658 4.09222 28.2558 3.81321 24.2668C3.1172 23.3768 2.76919 22.4018 2.76919 21.3388C2.76919 20.1088 3.2352 18.9959 4.16522 17.9999C5.09523 18.9959 5.56124 20.1098 5.56124 21.3388C5.56124 22.3558 5.24223 23.2938 4.60522 24.1518C4.86123 27.9918 6.25125 31.2518 8.77829 33.9487C10.7473 36.0507 13.6854 37.7347 17.5214 39.0617C17.7614 39.1447 18.9255 39.5057 19.0755 39.5537C19.8555 39.8037 20.5095 40.0397 21.1415 40.3097C21.4415 40.4377 21.7275 40.5707 22.0005 40.7087ZM3.68921 27.4288C2.48419 27.5378 1.54418 27.2598 0.869164 26.5948C0.195154 25.9308 -0.0868509 25.0048 0.0231509 23.8178C1.22817 23.7078 2.16818 23.9868 2.8432 24.6508C3.51821 25.3158 3.80021 26.2408 3.68921 27.4288ZM5.59224 27.0668C5.15223 25.9568 5.16523 24.9898 5.62724 24.1678C6.09025 23.3458 6.91626 22.8238 8.10528 22.6018C8.54329 23.7118 8.53129 24.6788 8.06928 25.5008C7.60627 26.3228 6.78026 26.8448 5.59224 27.0668ZM5.38224 31.8508C4.23922 32.2438 3.2592 32.1988 2.44119 31.7138C1.62318 31.2298 1.12217 30.3988 0.938165 29.2208C2.08018 28.8278 3.0612 28.8738 3.87821 29.3578C4.69723 29.8418 5.19823 30.6728 5.38124 31.8508H5.38224ZM7.13926 31.0468C6.44025 30.0738 6.21525 29.1328 6.46225 28.2248C6.70926 27.3168 7.38227 26.6138 8.48029 26.1148C9.1793 27.0878 9.4053 28.0288 9.1583 28.9368C8.91129 29.8448 8.23828 30.5478 7.13826 31.0468H7.13926ZM8.61329 35.8647C7.65027 36.5867 6.70326 36.8417 5.77324 36.6297C4.84323 36.4187 4.10622 35.7807 3.56221 34.7167C4.52522 33.9947 5.47224 33.7397 6.40225 33.9507C7.33227 34.1627 8.06828 34.8007 8.61229 35.8647H8.61329ZM10.0323 34.5647C9.0623 33.8527 8.55229 33.0267 8.50229 32.0878C8.45228 31.1488 8.87229 30.2758 9.76131 29.4668C10.7313 30.1798 11.2413 31.0058 11.2913 31.9438C11.3403 32.8827 10.9213 33.7567 10.0323 34.5657V34.5647ZM12.8144 38.6997C12.0903 39.6547 11.2523 40.1567 10.2993 40.2057C9.3463 40.2557 8.45929 39.8417 7.63727 38.9667C8.36128 38.0117 9.2003 37.5097 10.1533 37.4607C11.1063 37.4107 11.9933 37.8237 12.8134 38.6997H12.8144ZM13.8144 37.0647C12.6834 36.6427 11.9623 35.9877 11.6513 35.0987C11.3413 34.2097 11.4993 33.2557 12.1273 32.2378C13.2584 32.6597 13.9804 33.3147 14.2904 34.2037C14.6004 35.0927 14.4424 36.0467 13.8144 37.0647ZM17.0674 40.4717C16.5044 41.5267 15.7564 42.1517 14.8224 42.3477C13.8894 42.5427 12.9474 42.2717 11.9973 41.5337C12.5604 40.4787 13.3094 39.8537 14.2424 39.6587C15.1754 39.4627 16.1174 39.7337 17.0674 40.4717ZM17.7974 38.7037C16.6114 38.4607 15.7954 37.9247 15.3474 37.0947C14.8994 36.2647 14.9044 35.2987 15.3624 34.1947C16.5474 34.4377 17.3644 34.9747 17.8124 35.8047C18.2604 36.6347 18.2544 37.6007 17.7964 38.7037H17.7974ZM40.3108 27.4288C40.2008 26.2418 40.4818 25.3158 41.1568 24.6508C41.8318 23.9868 42.7718 23.7088 43.9769 23.8178C44.0869 25.0048 43.8049 25.9308 43.1308 26.5948C42.4558 27.2598 41.5158 27.5378 40.3108 27.4288ZM38.4078 27.0668C37.2197 26.8448 36.3937 26.3228 35.9307 25.5008C35.4687 24.6788 35.4567 23.7118 35.8947 22.6008C37.0847 22.8238 37.9098 23.3458 38.3728 24.1678C38.8348 24.9898 38.8468 25.9568 38.4078 27.0678V27.0668ZM38.6178 31.8508C38.8028 30.6728 39.3028 29.8408 40.1208 29.3578C40.9388 28.8738 41.9198 28.8278 43.0608 29.2208C42.8778 30.3988 42.3768 31.2308 41.5588 31.7138C40.7408 32.1988 39.7608 32.2438 38.6188 31.8508H38.6178ZM36.8607 31.0468C35.7617 30.5478 35.0887 29.8448 34.8417 28.9368C34.5947 28.0288 34.8217 27.0878 35.5197 26.1148C36.6187 26.6138 37.2907 27.3168 37.5378 28.2248C37.7848 29.1328 37.5597 30.0738 36.8607 31.0468ZM35.3867 35.8647C35.9317 34.8007 36.6687 34.1627 37.5988 33.9507C38.5288 33.7397 39.4748 33.9947 40.4388 34.7167C39.8938 35.7807 39.1558 36.4187 38.2268 36.6297C37.2967 36.8417 36.3497 36.5867 35.3867 35.8647ZM33.9677 34.5647C33.0787 33.7567 32.6597 32.8827 32.7097 31.9448C32.7597 31.0048 33.2697 30.1798 34.2397 29.4668C35.1277 30.2758 35.5467 31.1488 35.4967 32.0878C35.4467 33.0267 34.9367 33.8527 33.9677 34.5657V34.5647ZM31.1866 38.6997C32.0077 37.8237 32.8947 37.4107 33.8477 37.4597C34.8007 37.5097 35.6397 38.0117 36.3637 38.9667C35.5427 39.8417 34.6547 40.2547 33.7017 40.2067C32.7487 40.1567 31.9107 39.6547 31.1866 38.6997ZM30.1866 37.0647C29.5586 36.0467 29.3996 35.0927 29.7106 34.2037C30.0206 33.3147 30.7426 32.6597 31.8737 32.2378C32.5017 33.2557 32.6607 34.2097 32.3497 35.0987C32.0397 35.9877 31.3176 36.6427 30.1866 37.0647ZM26.9336 40.4717C27.8836 39.7337 28.8256 39.4627 29.7586 39.6587C30.6916 39.8537 31.4407 40.4787 32.0037 41.5337C31.0536 42.2717 30.1116 42.5437 29.1786 42.3477C28.2446 42.1527 27.4966 41.5277 26.9336 40.4717ZM26.2036 38.7037C25.7466 37.6007 25.7406 36.6337 26.1886 35.8037C26.6366 34.9737 27.4536 34.4377 28.6386 34.1957C29.0966 35.2987 29.1016 36.2657 28.6536 37.0957C28.2056 37.9257 27.3896 38.4607 26.2036 38.7037ZM22.0005 8.92993L18.2924 10.9999L19.1895 6.96095L16.0004 4.20097L20.2635 3.77597L22.0005 0L23.7375 3.77597L28.0006 4.20197L24.8115 6.95995L25.7086 10.9999L22.0005 8.92993ZM8.50029 13.4939L5.71924 14.9999L6.39225 12.0629L4.00021 10.0559L7.19727 9.74592L8.50029 6.99995L9.80331 9.74592L13.0004 10.0559L10.6083 12.0629L11.2813 14.9999L8.50029 13.4939ZM35.5007 13.4939L32.7197 14.9999L33.3927 12.0629L31.0006 10.0559L34.1977 9.74592L35.5007 6.99995L36.8037 9.74592L40.0008 10.0559L37.6087 12.0629L38.2818 14.9999L35.5007 13.4939ZM28.0006 17.2019L25.4576 19.7828C24.5997 19.0463 23.5062 18.6419 22.3755 18.6429C19.7325 18.6429 17.5894 20.8168 17.5894 23.4998C17.5894 26.1828 19.7325 28.3568 22.3755 28.3568C23.5062 28.3578 24.5997 27.9533 25.4576 27.2168L28.0006 29.7968C26.4701 31.2135 24.4611 32.0003 22.3755 31.9998C17.7504 31.9998 14.0004 28.1938 14.0004 23.4998C14.0004 18.8059 17.7504 14.9999 22.3755 14.9999C24.5405 14.9999 26.5136 15.8339 28.0006 17.2019ZM22.3755 26.5358C20.7235 26.5358 19.3855 25.1758 19.3855 23.4998C19.3855 21.8228 20.7235 20.4638 22.3755 20.4638C24.0275 20.4638 25.3666 21.8238 25.3666 23.4998C25.3666 25.1768 24.0275 26.5358 22.3765 26.5358H22.3755Z" fill="white" fill-opacity="0.6"/>
</svg>
