<svg width="1281" height="176" viewBox="0 0 1281 176" fill="none" xmlns="http://www.w3.org/2000/svg">
<path fill-rule="evenodd" clip-rule="evenodd" d="M1171.75 44.9996C1172.09 73.0468 1193.36 86.1472 1211.96 97.6055C1226.51 106.567 1239.43 114.523 1239.43 127.839C1239.43 138.639 1232.95 146.559 1219.51 146.559C1206.79 146.559 1198.87 139.599 1198.63 124.479H1168.39C1168.63 156.879 1188.31 175.359 1219.27 175.359C1251.67 175.359 1270.15 154.479 1270.15 128.079C1270.15 97.8158 1247.68 84.5831 1228.49 73.287C1214.21 64.875 1201.75 57.5368 1201.75 45.0393C1201.75 45.0261 1201.75 45.0129 1201.75 44.9996H1171.75ZM1222 29.3353C1231.63 30.331 1237.29 36.8025 1237.51 49.1193H1267.75C1267.52 20.0409 1250.37 1.78557 1222 0.691406V29.3353Z" fill="#FF0044"/>
<path d="M636.868 128.08C636.868 154.48 618.388 175.36 585.988 175.36C555.028 175.36 535.348 156.88 535.108 124.48H565.348C565.588 139.6 573.508 146.56 586.228 146.56C599.668 146.56 606.148 138.64 606.148 127.84C606.148 114.524 593.23 106.567 578.682 97.6058C559.93 86.0554 538.468 72.8361 538.468 44.3197C538.468 19.3597 556.228 0.639648 585.988 0.639648C615.988 0.639648 634.228 19.1197 634.468 49.1197H604.228C603.988 35.6797 597.268 29.1997 585.988 29.1997C574.948 29.1997 568.468 35.4397 568.468 45.0396C568.468 57.5372 580.929 64.8753 595.214 73.2873C614.397 84.5835 636.868 97.8162 636.868 128.08Z" fill="white"/>
<path d="M160.177 3.99965V55.1197C160.177 70.4797 161.857 97.5997 164.257 116.56L163.537 117.28C161.79 112.86 159.866 107.911 157.899 102.849C155.272 96.0927 152.567 89.134 150.097 82.9596L115.057 3.99965H85.7773V172H114.817V123.76C114.817 106.24 113.377 77.6797 111.217 58.7197L111.937 57.9997C115.22 66.9841 119.249 77.4611 123.129 87.5502L123.13 87.5521C124.639 91.4769 126.126 95.343 127.537 99.0396L159.937 172H189.217V3.99965H160.177Z" fill="white"/>
<path fill-rule="evenodd" clip-rule="evenodd" d="M289.412 172H245.012V3.99965H288.932C322.292 3.99965 341.732 23.9197 341.732 58.2397V117.04C341.732 151.6 322.292 172 289.412 172ZM274.532 32.0797V143.92H289.412C304.052 143.92 311.972 134.56 311.972 116.8V58.2397C311.972 40.9597 304.052 32.0797 289.412 32.0797H274.532Z" fill="white"/>
<path d="M768.791 3.99965H670.871V32.0797H704.711V172H734.951V32.0797H768.791V3.99965Z" fill="white"/>
<path d="M958.449 172V3.99965H987.969V172H958.449Z" fill="white"/>
<path d="M1072.91 144.16V100.24H1123.31V73.3597H1072.91V31.8396H1127.87V3.99965H1043.39V172H1130.27V144.16H1072.91Z" fill="white"/>
<path d="M0.839844 28.5004V172H30.3598V4L0.839844 28.5004Z" fill="#FF0044"/>
<path d="M916.059 172H883.659L853.659 113.44H840.219V172H810.699V85.36H856.539C870.699 85.36 878.379 76 878.379 58.48C878.379 41.2 870.699 32.08 856.539 32.08H810.699V4H856.779C889.659 4 908.619 23.92 908.619 58.24C908.619 82.72 899.259 100 882.219 108.16L916.059 172Z" fill="#FF0044"/>
<path fill-rule="evenodd" clip-rule="evenodd" d="M420 4H389.647V118.96C389.647 154.24 409.327 174.64 441.247 174.64C473.407 174.64 493.087 154.24 493.087 118.96V4H462.367V118.96C462.367 121.245 462.244 123.388 462 125.386V146H443.378C442.685 146.053 441.974 146.08 441.247 146.08C440.52 146.08 439.81 146.053 439.117 146H420V4Z" fill="#FF0044"/>
</svg>
