<svg width="44" height="44" viewBox="0 0 44 44" fill="none" xmlns="http://www.w3.org/2000/svg">
<path d="M22.0008 40.4337C22.2738 40.2957 22.5608 40.1637 22.8609 40.0337C23.4909 39.7637 24.1459 39.5287 24.9259 39.2787C25.0759 39.2307 26.2409 38.8687 26.4799 38.7867C30.316 37.4597 33.254 35.7757 35.223 33.6737C37.7501 30.9767 39.1401 27.7157 39.3961 23.8766C38.7591 23.0186 38.4401 22.0806 38.4401 21.0636C38.4401 19.8336 38.9061 18.7206 39.8361 17.7246C40.7661 18.7206 41.2321 19.8346 41.2321 21.0636C41.2321 22.1266 40.8841 23.1026 40.1881 23.9916C39.9081 27.9807 38.4481 31.3907 35.8081 34.2067C33.74 36.4147 30.693 38.1617 26.7439 39.5277C26.4899 39.6157 25.3109 39.9807 25.1729 40.0257C24.4149 40.2687 23.7829 40.4957 23.1779 40.7557C23.0653 40.8037 22.9532 40.8531 22.8419 40.9038C23.8639 41.5368 24.6269 42.2708 25.0979 43.1488C25.1468 43.241 25.1567 43.3491 25.1253 43.4487C25.0939 43.5483 25.0239 43.6312 24.9309 43.6788C24.7368 43.7804 24.4971 43.7079 24.3919 43.5158C23.9369 42.6668 23.1259 41.9488 22.0008 41.3258C20.8758 41.9488 20.0648 42.6668 19.6098 43.5158C19.5045 43.7085 19.2641 43.781 19.0698 43.6788C18.977 43.631 18.9071 43.5481 18.8759 43.4485C18.8447 43.3489 18.8548 43.2409 18.9038 43.1488C19.3748 42.2708 20.1378 41.5368 21.1598 40.9038C21.0498 40.8538 20.9378 40.8038 20.8238 40.7547C20.1708 40.4799 19.505 40.2363 18.8288 40.0247C18.6908 39.9807 17.5118 39.6157 17.2588 39.5277C13.3087 38.1617 10.2617 36.4147 8.19262 34.2077C5.55258 31.3907 4.09255 27.9807 3.81355 23.9916C3.11754 23.1016 2.76953 22.1266 2.76953 21.0636C2.76953 19.8336 3.23554 18.7206 4.16555 17.7246C5.09557 18.7206 5.56158 19.8346 5.56158 21.0636C5.56158 22.0806 5.24257 23.0186 4.60556 23.8766C4.86156 27.7167 6.25159 30.9767 8.77863 33.6737C10.7477 35.7757 13.6857 37.4597 17.5218 38.7867C17.7618 38.8697 18.9258 39.2307 19.0758 39.2787C19.8558 39.5287 20.5098 39.7647 21.1418 40.0347C21.4418 40.1627 21.7278 40.2957 22.0008 40.4337Z" fill="white" fill-opacity="0.6"/>
<path d="M3.6897 27.1529C2.48468 27.2619 1.54466 26.9839 0.869653 26.3189C0.195642 25.6549 -0.0863626 24.7289 0.0236392 23.5419C1.22866 23.4319 2.16867 23.7109 2.84368 24.3749C3.51869 25.0399 3.8007 25.9649 3.6897 27.1529Z" fill="white" fill-opacity="0.6"/>
<path d="M5.59297 26.7912C5.15296 25.6812 5.16596 24.7142 5.62797 23.8922C6.09098 23.0702 6.91699 22.5482 8.10601 22.3262C8.54401 23.4362 8.53201 24.4032 8.07001 25.2252C7.607 26.0472 6.78099 26.5692 5.59297 26.7912Z" fill="white" fill-opacity="0.6"/>
<path d="M5.38255 31.5756C4.23953 31.9686 3.25951 31.9236 2.4415 31.4386C1.62349 30.9546 1.12248 30.1236 0.938477 28.9456C2.08049 28.5526 3.06151 28.5986 3.87852 29.0826C4.69754 29.5666 5.19854 30.3976 5.38155 31.5756H5.38255Z" fill="white" fill-opacity="0.6"/>
<path d="M7.13964 30.7709C6.44063 29.7979 6.21563 28.8569 6.46263 27.9489C6.70963 27.0409 7.38265 26.3379 8.48066 25.8389C9.17967 26.8119 9.40568 27.7529 9.15867 28.6609C8.91167 29.5689 8.23866 30.2719 7.13864 30.7709H7.13964Z" fill="white" fill-opacity="0.6"/>
<path d="M8.61358 35.5892C7.65057 36.3112 6.70355 36.5662 5.77354 36.3542C4.84352 36.1432 4.10651 35.5052 3.5625 34.4412C4.52552 33.7192 5.47253 33.4642 6.40255 33.6752C7.33256 33.8872 8.06857 34.5252 8.61258 35.5892H8.61358Z" fill="white" fill-opacity="0.6"/>
<path d="M10.033 34.2894C9.06302 33.5774 8.55301 32.7514 8.50301 31.8124C8.45301 30.8734 8.87302 30.0004 9.76203 29.1914C10.732 29.9044 11.2421 30.7304 11.2921 31.6684C11.3411 32.6074 10.9221 33.4814 10.033 34.2904V34.2894Z" fill="white" fill-opacity="0.6"/>
<path d="M12.8148 38.4247C12.0908 39.3797 11.2528 39.8817 10.2997 39.9307C9.34672 39.9807 8.45971 39.5667 7.6377 38.6917C8.36171 37.7367 9.20072 37.2347 10.1537 37.1857C11.1068 37.1357 11.9938 37.5487 12.8138 38.4247H12.8148Z" fill="white" fill-opacity="0.6"/>
<path d="M13.815 36.7889C12.684 36.3669 11.963 35.7119 11.652 34.8229C11.342 33.9339 11.5 32.9799 12.128 31.9619C13.259 32.3839 13.981 33.0389 14.291 33.9279C14.601 34.8169 14.443 35.7709 13.815 36.7889Z" fill="white" fill-opacity="0.6"/>
<path d="M17.0681 40.196C16.5051 41.251 15.7571 41.876 14.8231 42.072C13.8901 42.267 12.9481 41.996 11.998 41.258C12.5611 40.203 13.3101 39.578 14.2431 39.383C15.1761 39.187 16.1181 39.458 17.0681 40.196Z" fill="white" fill-opacity="0.6"/>
<path d="M17.798 38.428C16.6119 38.185 15.7959 37.649 15.3479 36.819C14.8999 35.989 14.9049 35.023 15.3629 33.9189C16.5479 34.1619 17.365 34.699 17.813 35.529C18.261 36.359 18.255 37.325 17.797 38.428H17.798Z" fill="white" fill-opacity="0.6"/>
<path d="M40.3113 27.1536C40.2013 25.9666 40.4823 25.0406 41.1573 24.3756C41.8323 23.7116 42.7723 23.4336 43.9773 23.5426C44.0873 24.7296 43.8053 25.6556 43.1313 26.3196C42.4563 26.9846 41.5163 27.2626 40.3113 27.1536Z" fill="white" fill-opacity="0.6"/>
<path d="M38.4085 26.7912C37.2204 26.5692 36.3944 26.0472 35.9314 25.2252C35.4694 24.4032 35.4574 23.4362 35.8954 22.3252C37.0854 22.5482 37.9105 23.0702 38.3735 23.8922C38.8355 24.7142 38.8475 25.6812 38.4085 26.7922V26.7912Z" fill="white" fill-opacity="0.6"/>
<path d="M38.6182 31.5756C38.8032 30.3976 39.3032 29.5656 40.1212 29.0826C40.9392 28.5986 41.9202 28.5526 43.0612 28.9456C42.8782 30.1236 42.3772 30.9556 41.5592 31.4386C40.7412 31.9236 39.7612 31.9686 38.6192 31.5756H38.6182Z" fill="white" fill-opacity="0.6"/>
<path d="M36.8612 30.7709C35.7622 30.2719 35.0892 29.5689 34.8422 28.6609C34.5952 27.7529 34.8222 26.8119 35.5202 25.8389C36.6192 26.3379 37.2912 27.0409 37.5382 27.9489C37.7852 28.8569 37.5602 29.7979 36.8612 30.7709Z" fill="white" fill-opacity="0.6"/>
<path d="M35.3872 35.5892C35.9322 34.5252 36.6692 33.8872 37.5992 33.6752C38.5293 33.4642 39.4753 33.7192 40.4393 34.4412C39.8943 35.5052 39.1563 36.1432 38.2273 36.3542C37.2972 36.5662 36.3502 36.3112 35.3872 35.5892Z" fill="white" fill-opacity="0.6"/>
<path d="M33.9681 34.2894C33.0791 33.4814 32.6601 32.6074 32.7101 31.6694C32.7601 30.7294 33.2701 29.9044 34.2401 29.1914C35.1281 30.0004 35.5471 30.8734 35.4971 31.8124C35.4471 32.7514 34.9371 33.5774 33.9681 34.2904V34.2894Z" fill="white" fill-opacity="0.6"/>
<path d="M31.187 38.4246C32.008 37.5486 32.895 37.1356 33.8481 37.1846C34.8011 37.2346 35.6401 37.7366 36.3641 38.6916C35.5431 39.5666 34.6551 39.9796 33.7021 39.9316C32.749 39.8816 31.911 39.3796 31.187 38.4246Z" fill="white" fill-opacity="0.6"/>
<path d="M30.187 36.7889C29.559 35.7709 29.4 34.8169 29.711 33.9279C30.021 33.0389 30.743 32.3839 31.8741 31.9619C32.5021 32.9799 32.6611 33.9339 32.3501 34.8229C32.0401 35.7119 31.318 36.3669 30.187 36.7889Z" fill="white" fill-opacity="0.6"/>
<path d="M26.9341 40.196C27.8841 39.458 28.8261 39.187 29.7591 39.383C30.6921 39.578 31.4412 40.203 32.0042 41.258C31.0541 41.996 30.1121 42.268 29.1791 42.072C28.2451 41.877 27.4971 41.252 26.9341 40.196Z" fill="white" fill-opacity="0.6"/>
<path d="M26.2039 38.4279C25.7469 37.3249 25.7409 36.3579 26.1889 35.5279C26.6369 34.6979 27.4539 34.1619 28.6389 33.9199C29.0969 35.0229 29.1019 35.9899 28.6539 36.8199C28.2059 37.6499 27.3899 38.1849 26.2039 38.4279Z" fill="white" fill-opacity="0.6"/>
<path d="M22.2754 0C27.5911 0 31.9004 4.38261 31.9004 9.78883C31.9004 16.8866 24.7916 25.85 22.2754 25.85C19.7592 25.85 12.6504 16.8866 12.6504 9.78883C12.6504 4.38261 16.9597 0 22.2754 0ZM22.2754 3.57871C18.903 3.57871 16.1692 6.35908 16.1692 9.78883C16.1692 13.2186 18.903 15.999 22.2754 15.999C25.6477 15.999 28.3816 13.2186 28.3816 9.78883C28.3816 6.35908 25.6477 3.57871 22.2754 3.57871ZM22.2754 6.7364C23.933 6.7364 25.2767 8.10302 25.2767 9.78883C25.2767 11.4746 23.933 12.8413 22.2754 12.8413C20.6178 12.8413 19.274 11.4746 19.274 9.78883C19.274 8.10302 20.6178 6.7364 22.2754 6.7364Z" fill="white" fill-opacity="0.6"/>
</svg>
