<svg width="368" height="132" viewBox="0 0 368 132" fill="none" xmlns="http://www.w3.org/2000/svg">
<path d="M32.0199 107.94V3H9.87988V129H71.4399V107.94H32.0199Z" fill="white"/>
<path d="M146.871 129H169.911L138.951 3H115.191L84.2311 129H107.271L112.311 106.14H141.831L146.871 129ZM116.811 85.08L121.851 61.68C123.651 53.04 125.631 39.18 126.711 30.72H127.251C128.511 39.18 130.491 53.04 132.291 61.68L137.331 85.08H116.811Z" fill="white"/>
<path d="M252.054 64.38C259.254 58.8 263.574 48.9 263.574 38.1C263.574 16.86 250.074 3 230.274 3H193.374V129H231.354C253.134 129 268.074 114.6 268.074 92.1C268.074 79.86 262.134 69.42 252.054 64.38ZM226.854 23.88C236.574 23.88 241.074 28.92 241.074 39C241.074 49.26 236.574 54.84 227.574 54.84H215.514V23.88H226.854ZM227.934 108.12H215.514V75.54H227.754C238.914 75.54 245.394 81.12 245.394 92.1C245.394 102.72 239.454 108.12 227.934 108.12Z" fill="white"/>
<path fill-rule="evenodd" clip-rule="evenodd" d="M328 131.505C327.57 131.515 327.136 131.52 326.7 131.52C303.48 131.52 288.72 117.66 288.54 93.3605H311.22C311.4 104.7 317.34 109.92 326.88 109.92C327.26 109.92 327.634 109.912 328 109.895V131.505ZM364.812 94C363.824 72.7531 347.563 63.1775 333.619 54.9662C322.906 48.6572 313.56 43.1536 313.56 33.7805C313.56 26.5805 318.42 21.9005 326.7 21.9005C335.16 21.9005 340.2 26.7605 340.38 36.8405H363.06C362.88 14.3405 349.2 0.480469 326.7 0.480469C304.38 0.480469 291.06 14.5205 291.06 33.2405C291.06 54.6278 307.156 64.5423 321.22 73.2051C331.429 79.4932 340.567 85.1218 341.701 94H364.812Z" fill="#FF0044"/>
</svg>
