<svg width="148" height="28" viewBox="0 0 148 28" fill="none" xmlns="http://www.w3.org/2000/svg">
<rect width="123.5" height="28" fill="white"/>
<path d="M11.612 12.588C11.22 12.588 10.786 12.714 10.506 12.938V11.706C10.506 11.132 10.8 10.88 11.276 10.88C11.752 10.88 11.976 11.202 12.032 11.72H13.936C13.894 10.068 12.858 9.032 11.276 9.032C9.666 9.032 8.588 10.096 8.588 11.734V16.466C8.588 18.09 9.68 19.168 11.29 19.168C12.9 19.168 13.992 18.09 13.992 16.466V15.08C13.992 13.652 13.04 12.588 11.612 12.588ZM12.074 16.452C12.074 16.998 11.78 17.32 11.29 17.32C10.8 17.32 10.506 16.998 10.506 16.452V15.22C10.506 14.66 10.8 14.324 11.304 14.324C11.794 14.324 12.074 14.66 12.074 15.22V16.452ZM20.8679 19.168C22.8559 19.168 23.9899 18.062 24.0319 16.004H22.0439C21.9879 16.872 21.6379 17.236 20.8679 17.236C20.2519 17.236 19.9159 16.844 19.9159 16.004V12.196C19.9159 11.328 20.2659 10.936 20.8679 10.936C21.6239 10.936 21.9599 11.3 22.0159 12.196H24.0039C23.9339 10.124 22.8419 9.004 20.8819 9.004C18.9639 9.004 17.8439 10.124 17.8439 12.196V16.004C17.8439 18.062 18.9639 19.168 20.8679 19.168ZM28.0765 19.168C30.0645 19.168 31.2545 17.922 31.2545 15.822V12.378C31.2545 10.278 30.0645 9.032 28.0765 9.032C26.0885 9.032 24.8985 10.278 24.8985 12.378V15.822C24.8985 17.922 26.0885 19.168 28.0765 19.168ZM28.0765 17.236C27.3345 17.236 26.9565 16.746 26.9565 15.822V12.378C26.9565 11.454 27.3345 10.964 28.0765 10.964C28.8185 10.964 29.1965 11.454 29.1965 12.378V15.822C29.1965 16.746 28.8185 17.236 28.0765 17.236ZM35.6658 19.168C37.6258 19.168 38.7878 17.922 38.7878 15.85V9.2H36.7158V15.85C36.7158 16.746 36.3658 17.236 35.6658 17.236C34.9658 17.236 34.6158 16.746 34.6158 15.85V9.2H32.5438V15.85C32.5438 17.922 33.7058 19.168 35.6658 19.168ZM44.6383 9.2V11.468C44.6383 12.378 44.7503 14.058 44.9183 15.29L44.8763 15.332C44.6383 14.716 44.4143 14.072 44.1763 13.456L42.3143 9.2H40.3543V19H42.3143V17.012C42.3143 15.92 42.2163 14.086 42.0623 12.854L42.1043 12.812L42.9863 15.206L44.6383 19H46.5983V9.2H44.6383ZM53.5607 9.2H47.6807V11.09H49.5987V19H51.6427V11.09H53.5607V9.2ZM58.7607 19H60.9307L59.0827 15.29C59.9507 14.772 60.4407 13.792 60.4407 12.462C60.4407 10.404 59.2927 9.2 57.3467 9.2H54.5047V19H56.4927V15.71H57.1927L58.7607 19ZM56.4927 11.09H57.3187C58.0187 11.09 58.3967 11.566 58.3967 12.462C58.3967 13.344 58.0187 13.82 57.3187 13.82H56.4927V11.09ZM61.8739 9.2V19H63.8619V9.2H61.8739ZM67.5806 17.11V14.94H70.3666V13.12H67.5806V11.09H70.6466V9.2H65.5926V19H70.7866V17.11H67.5806ZM74.5774 19.196C76.5234 19.196 77.6574 18.02 77.6574 16.41C77.6574 13.288 73.7654 13.19 73.7654 11.65C73.7654 11.202 74.0734 10.922 74.5914 10.922C75.1654 10.922 75.4594 11.244 75.4594 11.888H77.5034C77.5034 10.082 76.4114 9.004 74.6054 9.004C72.7994 9.004 71.7494 10.096 71.7494 11.594C71.7494 14.576 75.5854 14.772 75.5854 16.396C75.5854 16.886 75.2634 17.264 74.6054 17.264C73.9754 17.264 73.5834 16.928 73.5834 16.144H71.5394C71.5394 18.118 72.7154 19.196 74.5774 19.196ZM84.5414 19.168C86.5294 19.168 87.7194 17.922 87.7194 15.822V12.378C87.7194 10.278 86.5294 9.032 84.5414 9.032C82.5534 9.032 81.3634 10.278 81.3634 12.378V15.822C81.3634 17.922 82.5534 19.168 84.5414 19.168ZM84.5414 17.236C83.7994 17.236 83.4214 16.746 83.4214 15.822V12.378C83.4214 11.454 83.7994 10.964 84.5414 10.964C85.2834 10.964 85.6614 11.454 85.6614 12.378V15.822C85.6614 16.746 85.2834 17.236 84.5414 17.236ZM94.0206 11.09V9.2H89.1766V19H91.1646V14.94H93.7406V13.12H91.1646V11.09H94.0206ZM100.05 11.09V9.2H95.2059V19H97.1939V14.94H99.7699V13.12H97.1939V11.09H100.05ZM101.235 9.2V19H103.223V9.2H101.235ZM107.698 19.168C109.686 19.168 110.82 18.062 110.862 16.004H108.874C108.818 16.872 108.468 17.236 107.698 17.236C107.082 17.236 106.746 16.844 106.746 16.004V12.196C106.746 11.328 107.096 10.936 107.698 10.936C108.454 10.936 108.79 11.3 108.846 12.196H110.834C110.764 10.124 109.672 9.004 107.712 9.004C105.794 9.004 104.674 10.124 104.674 12.196V16.004C104.674 18.062 105.794 19.168 107.698 19.168ZM113.997 17.11V14.94H116.783V13.12H113.997V11.09H117.063V9.2H112.009V19H117.203V17.11H113.997Z" fill="black"/>
<path d="M124.5 0H127.5V28H124.5V0Z" fill="white"/>
<path d="M128.5 0H134.5V28H128.5V0Z" fill="white"/>
<path d="M135.5 0H137.5V28H135.5V0Z" fill="white"/>
<path d="M139.5 0H140.5V28H139.5V0Z" fill="white"/>
<path d="M141.5 0H144.5V28H141.5V0Z" fill="white"/>
<path d="M147.5 0H148V28H147.5V0Z" fill="white"/>
</svg>
