<svg width="116" height="29" viewBox="0 0 116 29" fill="none" xmlns="http://www.w3.org/2000/svg">
<rect width="89" height="28" transform="translate(0 0.5)" fill="white"/>
<path d="M12.9561 13.172C12.5081 13.172 12.0121 13.316 11.6921 13.572V12.164C11.6921 11.508 12.0281 11.22 12.5721 11.22C13.1161 11.22 13.3721 11.588 13.4361 12.18H15.6121C15.5641 10.292 14.3801 9.108 12.5721 9.108C10.7321 9.108 9.50013 10.324 9.50013 12.196V17.604C9.50013 19.46 10.7481 20.692 12.5881 20.692C14.4281 20.692 15.6761 19.46 15.6761 17.604V16.02C15.6761 14.388 14.5881 13.172 12.9561 13.172ZM13.4841 17.588C13.4841 18.212 13.1481 18.58 12.5881 18.58C12.0281 18.58 11.6921 18.212 11.6921 17.588V16.18C11.6921 15.54 12.0281 15.156 12.6041 15.156C13.1641 15.156 13.4841 15.54 13.4841 16.18V17.588ZM20.0911 20.66C22.1231 20.66 23.3231 19.412 23.3231 17.284V12.548C23.3231 10.404 22.1231 9.14 20.0911 9.14C18.0751 9.14 16.8751 10.404 16.8751 12.548V17.284C16.8751 19.412 18.0751 20.66 20.0911 20.66ZM20.0911 18.644C19.3391 18.644 18.9551 18.18 18.9551 17.284V12.548C18.9551 11.636 19.3391 11.156 20.0911 11.156C20.8431 11.156 21.2431 11.636 21.2431 12.548V17.284C21.2431 18.18 20.8431 18.644 20.0911 18.644ZM27.888 20.66C29.92 20.66 31.12 19.412 31.12 17.284V12.548C31.12 10.404 29.92 9.14 27.888 9.14C25.872 9.14 24.672 10.404 24.672 12.548V17.284C24.672 19.412 25.872 20.66 27.888 20.66ZM27.888 18.644C27.136 18.644 26.752 18.18 26.752 17.284V12.548C26.752 11.636 27.136 11.156 27.888 11.156C28.64 11.156 29.04 11.636 29.04 12.548V17.284C29.04 18.18 28.64 18.644 27.888 18.644ZM38.8369 14.532H36.6449V12.26H34.6289V14.532H32.4369V16.532H34.6289V18.804H36.6449V16.532H38.8369V14.532ZM46.8155 20.692C49.0875 20.692 50.3835 19.428 50.4315 17.076H48.1595C48.0955 18.068 47.6955 18.484 46.8155 18.484C46.1115 18.484 45.7275 18.036 45.7275 17.076V12.724C45.7275 11.732 46.1275 11.284 46.8155 11.284C47.6795 11.284 48.0635 11.7 48.1275 12.724H50.3995C50.3195 10.356 49.0715 9.076 46.8315 9.076C44.6395 9.076 43.3595 10.356 43.3595 12.724V17.076C43.3595 19.428 44.6395 20.692 46.8155 20.692ZM55.9571 20.5H58.3091L55.6211 9.3H53.1891L50.5011 20.5H52.8531L53.2211 18.644H55.5891L55.9571 20.5ZM53.6691 16.484L53.9251 15.204C54.0851 14.404 54.2611 13.044 54.3731 12.132H54.4371C54.5491 13.044 54.7411 14.404 54.8851 15.204L55.1411 16.484H53.6691ZM62.1354 20.724C64.3594 20.724 65.6554 19.38 65.6554 17.54C65.6554 13.972 61.2074 13.86 61.2074 12.1C61.2074 11.588 61.5594 11.268 62.1514 11.268C62.8074 11.268 63.1434 11.636 63.1434 12.372H65.4794C65.4794 10.308 64.2314 9.076 62.1674 9.076C60.1034 9.076 58.9034 10.324 58.9034 12.036C58.9034 15.444 63.2874 15.668 63.2874 17.524C63.2874 18.084 62.9194 18.516 62.1674 18.516C61.4474 18.516 60.9994 18.132 60.9994 17.236H58.6634C58.6634 19.492 60.0074 20.724 62.1354 20.724ZM69.1234 18.34V15.86H72.3074V13.78H69.1234V11.46H72.6274V9.3H66.8514V20.5H72.7874V18.34H69.1234ZM77.1198 20.724C79.3438 20.724 80.6398 19.38 80.6398 17.54C80.6398 13.972 76.1918 13.86 76.1918 12.1C76.1918 11.588 76.5438 11.268 77.1358 11.268C77.7918 11.268 78.1278 11.636 78.1278 12.372H80.4638C80.4638 10.308 79.2158 9.076 77.1518 9.076C75.0878 9.076 73.8878 10.324 73.8878 12.036C73.8878 15.444 78.2718 15.668 78.2718 17.524C78.2718 18.084 77.9038 18.516 77.1518 18.516C76.4318 18.516 75.9838 18.132 75.9838 17.236H73.6478C73.6478 19.492 74.9918 20.724 77.1198 20.724Z" fill="black"/>
<path d="M90 0.5H93.0638V28.5H90V0.5Z" fill="white"/>
<path d="M94.0851 0.5H100.213V28.5H94.0851V0.5Z" fill="white"/>
<path d="M101.234 0.5H103.277V28.5H101.234V0.5Z" fill="white"/>
<path d="M105.319 0.5H106.34V28.5H105.319V0.5Z" fill="white"/>
<path d="M107.362 0.5H110.426V28.5H107.362V0.5Z" fill="white"/>
<path d="M113.489 0.5H114V28.5H113.489V0.5Z" fill="white"/>
</svg>
