<svg width="1360" height="180" viewBox="0 0 1360 180" fill="none" xmlns="http://www.w3.org/2000/svg">
<path d="M853.067 8.81374H852.643L852.574 9.23179L839.87 85.6862L839.869 85.6906C839.588 87.4836 839.274 89.4646 838.939 91.5821C837.098 103.217 834.605 118.973 833.222 130.309H833.184C831.8 118.971 829.307 103.213 827.465 91.5777C827.131 89.4619 826.817 87.4824 826.536 85.6906L826.535 85.6837L813.831 11.5391L813.76 11.1235H813.338H779.153H778.732L778.66 11.5391L765.957 85.6837L765.955 85.6906C765.674 87.4831 765.361 89.4635 765.026 91.5803C763.185 103.215 760.691 118.972 759.308 130.309H759.27C757.887 118.972 755.393 103.215 753.552 91.5803C753.217 89.4635 752.904 87.4831 752.623 85.6906L752.622 85.6862L739.918 9.23179L739.849 8.81374H739.425H705.471H704.845L704.983 9.42383L741.478 171.11L741.566 171.5H741.966H776.613H777.017L777.102 171.104L788.65 117.06C788.65 117.059 788.65 117.058 788.65 117.058C792.532 99.7019 795.285 77.8491 796.246 64.6067C797.206 77.8491 799.96 99.7019 803.842 117.058C803.842 117.058 803.842 117.059 803.842 117.06L815.39 171.104L815.475 171.5H815.879H850.526H850.926L851.014 171.11L887.509 9.42383L887.646 8.81374H887.021H853.067ZM1006.2 139.317H953.81V104.516H999.276H999.776V104.016V73.9882V73.4882H999.276H953.81V40.9961H1003.9H1004.4V40.4961V9.31374V8.81374H1003.9H920.511H920.011V9.31374V171V171.5H920.511H1006.2H1006.7V171V139.817V139.317H1006.2ZM1111.26 171V171.5H1111.76H1156.57C1172.84 171.5 1185.81 166.381 1194.7 156.876C1203.58 147.376 1208.34 133.554 1208.34 116.257V62.9011C1208.34 45.9465 1203.52 32.412 1194.55 23.114C1185.57 13.8137 1172.49 8.81374 1156.1 8.81374H1111.76H1111.26V9.31374V171ZM1145.05 139.317V40.9961H1156.57C1162.34 40.9961 1166.69 42.8587 1169.6 46.4692C1172.53 50.0985 1174.08 55.5687 1174.08 62.9011V116.257C1174.08 123.94 1172.53 129.704 1169.59 133.537C1166.67 137.347 1162.33 139.317 1156.57 139.317H1145.05ZM1298.05 174.272C1314.55 174.272 1327.8 169.096 1336.93 159.507C1346.04 149.92 1350.98 135.983 1350.98 118.567V61.7462C1350.98 44.3302 1346.04 30.393 1336.93 20.8069C1327.8 11.2175 1314.55 6.04199 1298.05 6.04199C1281.54 6.04199 1268.29 11.2175 1259.17 20.8069C1250.05 30.393 1245.12 44.3302 1245.12 61.7462V118.567C1245.12 135.983 1250.05 149.92 1259.17 159.507C1268.29 169.096 1281.54 174.272 1298.05 174.272ZM1298.05 141.396C1292.05 141.396 1287.59 139.421 1284.61 135.639C1281.62 131.837 1280.07 126.134 1280.07 118.567V61.7462C1280.07 54.18 1281.62 48.4769 1284.61 44.6741C1287.59 40.8926 1292.05 38.9172 1298.05 38.9172C1304.05 38.9172 1308.51 40.8926 1311.49 44.6741C1314.48 48.4769 1316.03 54.18 1316.03 61.7462V118.567C1316.03 126.134 1314.48 131.837 1311.49 135.639C1308.51 139.421 1304.05 141.396 1298.05 141.396Z" stroke="#FF0044" stroke-opacity="0.73"/>
<path d="M209.072 9.31445L196.368 85.7688C194.521 97.5488 191.287 117.413 189.67 130.81H188.746C187.129 117.413 183.895 97.5488 182.048 85.7688L169.344 11.6243H135.159L122.455 85.7688C120.607 97.5488 117.373 117.413 115.756 130.81H114.832C113.216 117.413 109.982 97.5488 108.134 85.7688L95.4301 9.31445H61.4761L97.9709 171H132.618L144.167 116.951C148.094 99.3967 150.865 77.2226 151.789 64.0567H152.713C153.637 77.2226 156.409 99.3967 160.336 116.951L171.885 171H206.532L243.026 9.31445H209.072Z" fill="white" fill-opacity="0.18"/>
<path d="M342.808 9.31445V73.9889H309.547V9.31445H276.517V171H309.547V105.171H342.808V171H375.838V9.31445H342.808Z" fill="white" fill-opacity="0.18"/>
<path d="M488.028 171H521.982L483.177 9.31445H448.068L409.263 171H443.217L448.53 144.207H482.715L488.028 171ZM454.997 113.024L458.693 94.5461C461.003 82.9971 463.544 63.3638 465.161 50.1979H466.084C467.701 63.3638 470.473 82.9971 472.552 94.5461L476.248 113.024H454.997Z" fill="white" fill-opacity="0.18"/>
<path d="M632.414 9.31445H535.402V40.4968H567.046V171H600.769V40.4968H632.414V9.31445Z" fill="white" fill-opacity="0.18"/>
<rect x="6.5" y="134" width="45" height="37" fill="#FF0044"/>
</svg>
