<svg width="592" height="78" viewBox="0 0 592 78" fill="none" xmlns="http://www.w3.org/2000/svg">
<path d="M67.1445 1.25967L60.4933 38.5249C59.5432 43.8785 57.9596 53.221 57.3262 58.5746H56.9039C56.1649 53.221 54.5813 44.0884 53.6311 38.3149L47.0856 2.30938H33.4667L26.9211 38.3149C25.971 44.0884 24.3874 53.221 23.6484 58.5746H23.2261C22.5926 53.221 21.009 43.8785 20.0589 38.5249L13.4078 1.25967H0L16.575 74.7403H30.405L36.5283 46.5028C38.2174 39.0497 39.5899 28.6575 40.1178 22.674H40.54C40.9623 28.6575 42.3348 39.0497 44.024 46.5028L50.1472 74.7403H63.9773L80.5522 1.25967H67.1445Z" fill="white"/>
<path d="M116.704 76C131.273 76 139.93 66.6575 139.93 51.1215V24.8785C139.93 9.34254 131.273 0 116.704 0C102.03 0 93.3727 9.34254 93.3727 24.8785V51.1215C93.3727 66.6575 102.03 76 116.704 76ZM116.704 63.5083C110.159 63.5083 106.781 59.0994 106.781 51.1215V24.8785C106.781 16.9006 110.159 12.4917 116.704 12.4917C123.25 12.4917 126.523 16.9006 126.523 24.8785V51.1215C126.523 59.0994 123.25 63.5083 116.704 63.5083Z" fill="white"/>
<path d="M233.978 62.4586V1.25967H220.992V74.7403H257.098V62.4586H233.978Z" fill="white"/>
<path d="M272.096 74.7403H291.627C306.091 74.7403 314.642 65.8177 314.642 50.7016V24.9834C314.642 9.97237 306.091 1.25967 291.416 1.25967H272.096V74.7403ZM285.082 62.4586V13.5414H291.627C298.067 13.5414 301.551 17.4254 301.551 24.9834V50.5967C301.551 58.3646 298.067 62.4586 291.627 62.4586H285.082Z" fill="white"/>
<path d="M394.524 1.25967L387.873 38.5249C386.923 43.8785 385.339 53.221 384.706 58.5746H384.283C383.544 53.221 381.961 44.0884 381.011 38.3149L374.465 2.30938H360.846L354.301 38.3149C353.35 44.0884 351.767 53.221 351.028 58.5746H350.606C349.972 53.221 348.389 43.8785 347.438 38.5249L340.787 1.25967H327.379L343.954 74.7403H357.785L363.908 46.5028C365.597 39.0497 366.969 28.6575 367.497 22.674H367.92C368.342 28.6575 369.714 39.0497 371.403 46.5028L377.527 74.7403H391.357L407.932 1.25967H394.524Z" fill="white"/>
<path d="M457.059 74.7403H476.59C491.054 74.7403 499.605 65.8177 499.605 50.7016V24.9834C499.605 9.97237 491.054 1.25967 476.379 1.25967H457.059V74.7403ZM470.045 62.4586V13.5414H476.59C483.03 13.5414 486.514 17.4254 486.514 24.9834V50.5967C486.514 58.3646 483.03 62.4586 476.59 62.4586H470.045Z" fill="white"/>
<path d="M531.768 62.5635V43.3536H553.938V31.5967H531.768V13.4365H555.944V1.25967H518.783V74.7403H557V62.5635H531.768Z" fill="white"/>
<path d="M423 1V75H436V1H423Z" fill="#FF0044"/>
<path d="M205 75H190.854L177.756 49.2057H171.888V75H159V36.8371H171.888H179.014C185.196 36.8371 188.549 32.7143 188.549 24.9971C188.549 17.3857 185.196 13.3686 179.014 13.3686H173.393H159V1H179.118C193.474 1 201.752 9.77428 201.752 24.8914C201.752 35.6743 197.665 43.2857 190.226 46.88L205 75Z" fill="#FF0044"/>
<path d="M579.949 76C584.139 76 587 72.9343 587 68.4453C587 63.9562 584.139 61 579.949 61C575.759 61 573 63.9562 573 68.4453C573 72.9343 575.759 76 579.949 76Z" fill="white"/>
</svg>
