<svg width="212" height="38" viewBox="0 0 212 38" fill="none" xmlns="http://www.w3.org/2000/svg">
<path d="M24.3646 36.9538C21.0732 34.0232 19.0001 29.7537 19.0001 25C19.0001 16.1634 26.1635 9 35.0001 9C40.7183 9 45.7359 11.9997 48.5651 16.5113C45.6614 13.1946 41.3961 11.1 36.6415 11.1C27.8925 11.1 20.8 18.1925 20.8 26.9415C20.8 30.7393 22.1364 34.2249 24.3646 36.9538ZM38.6619 35.8189C36.5502 35.2338 35.0001 33.2979 35.0001 31C35.0001 28.2386 37.2386 26 40.0001 26C41.7423 26 43.2763 26.891 44.1714 28.2423C43.3477 27.5305 42.2742 27.1 41.1001 27.1C38.5043 27.1 36.4001 29.2043 36.4001 31.8C36.4001 33.503 37.3058 34.9945 38.6619 35.8189ZM57.4301 23.273C57.2131 23.702 56.8401 23.923 56.3101 23.936L54.3781 23.916C53.7931 23.902 53.6361 23.622 53.9081 23.072L60.3761 10.789C60.6961 10.199 61.4491 9.905 62.6331 9.905C63.8181 9.905 64.5531 10.185 64.8381 10.749L69.8021 20.247L74.7761 10.789C75.0761 10.199 75.8171 9.905 77.0021 9.905C78.1861 9.905 78.9281 10.185 79.2281 10.749L85.6131 23.072C85.9121 23.634 85.7351 23.922 85.0791 23.936H83.2191C82.7041 23.922 82.3381 23.702 82.1231 23.273L77.6291 14.227C77.2111 13.155 76.7961 13.155 76.3851 14.227L72.0601 22.86C71.4471 23.577 70.8441 23.935 70.2521 23.935H69.1021C68.5591 23.935 68.0291 23.59 67.5151 22.901L63.2301 14.226C62.8181 13.241 62.4111 13.241 62.0071 14.226L57.4301 23.272V23.273ZM92.2481 18.308V20.087C92.2481 20.77 92.6081 21.112 93.3241 21.112H105.196C106.22 21.112 106.731 21.577 106.731 22.51C106.731 23.447 106.181 23.916 105.081 23.916H90.5661C89.2631 23.916 88.6121 23.373 88.6121 22.288V11.553C88.6121 10.454 89.2321 9.904 90.4721 9.904H105.196C106.22 9.891 106.731 10.35 106.731 11.282C106.731 12.233 106.227 12.695 105.217 12.668H93.3241C92.6071 12.708 92.2481 13.038 92.2481 13.654V15.534H98.1831C99.4311 15.56 100.054 16.025 100.054 16.931C100.054 17.875 99.4101 18.335 98.1211 18.308H92.2481ZM118.258 18.308C116.976 18.335 116.335 17.875 116.335 16.931C116.335 16.025 116.948 15.561 118.175 15.533H122.009C123.054 15.533 123.705 15.319 123.963 14.89C124.019 14.796 124.065 14.687 124.099 14.563C124.134 14.44 124.152 14.293 124.152 14.126C124.152 13.77 124.076 13.511 123.926 13.347C123.776 13.183 123.466 13.044 122.993 12.93C122.647 12.8547 122.296 12.8045 121.943 12.78C121.464 12.7428 120.985 12.7191 120.505 12.709H114.485C113.643 12.709 113.222 13.05 113.222 13.734V22.51C113.27 23.46 112.671 23.93 111.424 23.916C110.198 23.916 109.584 23.447 109.584 22.51V11.674C109.584 10.507 110.264 9.918 111.622 9.904H120.442C123.569 9.918 125.726 10.558 126.911 11.824C127.481 12.481 127.767 13.248 127.767 14.126C127.656 15.774 126.778 16.756 125.134 17.071C126.764 17.359 127.621 18.247 127.705 19.734V22.51C127.705 23.447 127.092 23.916 125.865 23.916C124.653 23.916 124.061 23.447 124.089 22.51V19.715C124.13 19.5795 124.134 19.4353 124.099 19.298C124.069 19.1834 124.023 19.0734 123.963 18.971C123.705 18.528 123.053 18.308 122.009 18.308H118.258ZM148.72 22.51C148.72 23.447 148.208 23.923 147.183 23.936H139.702C136.978 23.936 134.772 23.296 133.087 22.016C131.429 20.743 130.599 19.048 130.599 16.931C130.599 14.841 131.429 13.158 133.087 11.885C134.801 10.591 136.985 9.931 139.639 9.905H147.183C148.208 9.891 148.72 10.35 148.72 11.282C148.72 12.232 148.214 12.695 147.205 12.668L146.598 12.708H139.638C138.058 12.736 136.758 13.141 135.741 13.925C134.737 14.736 134.236 15.737 134.236 16.931C134.236 18.713 135.173 19.956 137.047 20.66C137.87 20.9896 138.753 21.1436 139.639 21.112H147.183C148.208 21.112 148.72 21.578 148.72 22.51ZM169.713 11.693V16.931C169.755 19.034 168.936 20.73 167.257 22.016C165.599 23.296 163.404 23.936 160.675 23.936C157.95 23.936 155.745 23.296 154.059 22.016C152.401 20.744 151.572 19.048 151.572 16.931V11.321C151.572 10.417 152.185 9.951 153.412 9.925C154.658 9.911 155.258 10.377 155.208 11.322V16.931C155.208 18.713 156.145 19.956 158.019 20.659C158.96 20.975 159.845 21.132 160.675 21.132C162.792 21.132 164.355 20.502 165.366 19.242C165.61 18.921 165.792 18.565 165.914 18.177C166.039 17.7673 166.087 17.3381 166.056 16.911V11.321C166.014 10.377 166.613 9.911 167.853 9.925C169.079 9.951 169.693 10.417 169.693 11.322L169.713 11.693ZM181.26 18.308C179.978 18.335 179.337 17.875 179.337 16.931C179.337 16.025 179.95 15.561 181.177 15.533H185.011C186.056 15.533 186.708 15.319 186.965 14.89C187.021 14.796 187.067 14.687 187.101 14.563C187.136 14.44 187.154 14.293 187.154 14.126C187.154 13.77 187.079 13.511 186.929 13.347C186.779 13.183 186.468 13.044 185.994 12.93C185.648 12.8547 185.297 12.8045 184.944 12.78C184.466 12.7428 183.987 12.7191 183.507 12.709H177.487C176.644 12.709 176.224 13.05 176.224 13.734V22.51C176.272 23.46 175.673 23.93 174.426 23.916C173.2 23.916 172.586 23.447 172.586 22.51V11.674C172.586 10.507 173.266 9.918 174.624 9.904H183.444C186.572 9.918 188.728 10.558 189.913 11.824C190.483 12.481 190.77 13.248 190.77 14.126C190.658 15.774 189.78 16.756 188.136 17.071C189.766 17.359 190.623 18.247 190.707 19.734V22.51C190.707 23.447 190.093 23.916 188.867 23.916C187.655 23.916 187.064 23.447 187.092 22.51V19.715C187.133 19.5794 187.136 19.4352 187.101 19.298C187.071 19.1834 187.025 19.0734 186.965 18.971C186.708 18.528 186.056 18.308 185.011 18.308H181.261H181.26ZM203.048 22.54C203.062 23.457 202.434 23.916 201.168 23.916C199.906 23.916 199.318 23.446 199.401 22.509V17.091L199.212 16.911C199.144 16.843 199.037 16.738 198.894 16.594C198.695 16.3937 198.495 16.1944 198.294 15.996C197.436 15.1477 196.589 14.2879 195.754 13.417C195.021 12.6595 194.29 11.9008 193.559 11.141C192.974 10.464 193.145 10.059 194.071 9.924H195.231C196.227 9.897 197.025 10.199 197.624 10.829L200.686 14.026C201.104 14.354 201.526 14.354 201.951 14.026L205.128 10.769C205.552 10.193 206.253 9.904 207.228 9.904H208.827C210.032 9.931 210.335 10.219 209.736 10.769L203.048 17.091V22.539V22.54Z" fill="#FF0044"/>
<path d="M7.31266 4.16951C6.17506 5.71203 30.3147 24.4926 35.8908 28.1507C35.8016 28.2791 35.7183 28.4119 35.6412 28.5487C31.9891 26.7901 27.5707 23.8487 21.25 19.4801C8.76104 10.8481 -0.241963 2.33207 1.14004 0.462073C2.49242 -1.36786 13.2916 3.84253 25.458 12.1556C25.4276 12.1782 25.3973 12.2009 25.3671 12.2237C21.7592 10.2393 8.19674 2.97365 7.31266 4.16951ZM61.439 32.8491C61.439 33.3201 61.261 33.6951 60.904 33.9741C60.547 34.2521 60.037 34.3921 59.374 34.3921H54.517V27.6521H59.347C60.742 27.6521 61.439 28.1541 61.439 29.1591V32.8491ZM60.068 32.5261V29.4291C60.068 28.8901 59.685 28.6211 58.919 28.6211H55.909V33.4151H58.919C59.685 33.4151 60.068 33.1191 60.068 32.5261ZM74.944 31.5161H70.402V32.6541C70.402 33.1571 70.807 33.4081 71.619 33.4081H75.217V34.3921H71.241C70.555 34.3921 70.021 34.2771 69.639 34.0481C69.219 33.7921 69.009 33.4311 69.009 32.9641V29.1731C69.009 28.7071 69.195 28.3401 69.569 28.0731C69.942 27.8051 70.457 27.6721 71.116 27.6721H75.217V28.6551H71.605C70.803 28.6551 70.402 28.9021 70.402 29.3951V30.5471H74.944V31.5161ZM90.543 27.6581L87.372 33.8731C87.162 34.2811 86.832 34.4861 86.384 34.4861C85.927 34.4861 85.594 34.2811 85.384 33.8731L82.212 27.6581H83.689L86.371 33.1121L89.079 27.6581H90.543ZM103.165 31.5161H98.622V32.6541C98.622 33.1571 99.028 33.4081 99.84 33.4081H103.438V34.3921H99.463C98.776 34.3921 98.242 34.2771 97.859 34.0481C97.439 33.7921 97.229 33.4311 97.229 32.9641V29.1731C97.229 28.7071 97.415 28.3401 97.789 28.0731C98.163 27.8051 98.679 27.6721 99.336 27.6721H103.438V28.6551H99.826C99.024 28.6551 98.622 28.9021 98.622 29.3951V30.5471H103.165V31.5161ZM117.538 34.3921H113.835C113.022 34.3921 112.4 34.2721 111.965 34.0311C111.532 33.7911 111.315 33.3721 111.315 32.7751V27.6521H112.708V32.5391C112.708 32.8851 112.822 33.1251 113.05 33.2591C113.223 33.3641 113.592 33.4151 114.157 33.4151H117.537L117.538 34.3921ZM131.134 32.8631C131.134 33.8821 130.371 34.3911 128.844 34.3911H126.737C126 34.3911 125.449 34.2791 125.086 34.0551C124.647 33.7851 124.428 33.3931 124.428 32.8751V29.2001C124.428 28.6881 124.651 28.2911 125.099 28.0081C125.454 27.7751 126 27.6581 126.737 27.6581H128.858C130.375 27.6581 131.134 28.1721 131.134 29.2001V32.8631ZM129.762 32.6201V29.4821C129.762 29.1681 129.666 28.9501 129.475 28.8261C129.283 28.7021 128.969 28.6421 128.529 28.6421H127.066C126.618 28.6421 126.299 28.7021 126.108 28.8261C125.916 28.9501 125.821 29.1681 125.821 29.4821V32.5931C125.821 32.8721 125.926 33.0851 126.136 33.2331C126.308 33.3501 126.618 33.4081 127.066 33.4081H128.529C128.959 33.4081 129.271 33.3501 129.468 33.2331C129.664 33.1171 129.762 32.9131 129.762 32.6201ZM145.584 30.4121C145.584 30.8601 145.399 31.2141 145.031 31.4721C144.662 31.7311 144.158 31.8601 143.519 31.8601H140.109V34.3921H138.717V27.6381H143.449C144.059 27.6381 144.558 27.7481 144.939 27.9681C145.35 28.2101 145.56 28.5421 145.57 28.9641C145.579 29.4181 145.584 29.9001 145.584 30.4121ZM144.19 30.0951V29.2941C144.19 28.8411 143.82 28.6141 143.078 28.6141H140.11V30.8571H143.042C143.808 30.8571 144.19 30.6021 144.19 30.0951ZM162.666 34.4251H161.336V29.1251L158.879 33.8451C158.641 34.3081 158.307 34.5401 157.878 34.5401C157.621 34.5401 157.411 34.4721 157.248 34.3381C157.12 34.2053 157.014 34.0531 156.933 33.8871L154.42 29.1251V34.4251H153.09V28.5601C153.09 28.3041 153.195 28.0921 153.405 27.9241C153.615 27.7551 153.907 27.6721 154.28 27.6721C154.845 27.6721 155.232 27.8811 155.442 28.2971L157.864 33.0711L160.328 28.2911C160.548 27.8681 160.93 27.6581 161.476 27.6581C161.858 27.6581 162.152 27.7441 162.357 27.9171C162.557 28.0783 162.671 28.3232 162.666 28.5801V34.4251ZM176.17 31.5161H171.627V32.6541C171.627 33.1571 172.034 33.4081 172.845 33.4081H176.443V34.3921H172.467C171.781 34.3921 171.247 34.2771 170.864 34.0481C170.444 33.7921 170.234 33.4311 170.234 32.9641V29.1731C170.234 28.7071 170.421 28.3401 170.794 28.0731C171.168 27.8051 171.684 27.6721 172.341 27.6721H176.443V28.6551H172.831C172.029 28.6551 171.627 28.9021 171.627 29.3951V30.5471H176.17V31.5161ZM191.215 33.5831C191.22 33.8267 191.115 34.0595 190.928 34.2161C190.718 34.4051 190.435 34.4991 190.08 34.4991C189.749 34.4991 189.493 34.4281 189.31 34.2841C189.23 34.2211 189.09 34.0381 188.89 33.7381L185.65 28.9911V34.4051H184.32V28.6401C184.32 27.9851 184.697 27.6571 185.454 27.6571C185.799 27.6571 186.06 27.7271 186.237 27.8671C186.335 27.9411 186.48 28.1241 186.671 28.4111L189.884 33.1511V27.7201H191.214V33.5841L191.215 33.5831ZM204.251 28.6211H201.871V34.3911H200.478V28.6211H198.112V27.6381H204.252L204.251 28.6211Z" fill="white"/>
</svg>
