<svg width="864" height="423" viewBox="0 0 864 423" fill="none" xmlns="http://www.w3.org/2000/svg">
<path d="M163.07 76.92L147.043 167.232C144.754 180.206 140.938 202.848 139.411 215.822H138.394C136.613 202.848 132.797 180.715 130.507 166.723L114.734 79.464H81.9168L66.144 166.723C63.8544 180.715 60.0384 202.848 58.2576 215.822H57.24C55.7136 202.848 51.8976 180.206 49.608 167.232L33.5808 76.92H1.27197L41.2128 255H74.5392L89.2944 186.566C93.3648 168.504 96.672 143.318 97.944 128.818H98.9616C99.9792 143.318 103.286 168.504 107.357 186.566L122.112 255H155.438L195.379 76.92H163.07Z" fill="white"/>
<path d="M518.547 255H551.11L507.353 76.92H473.772L430.016 255H462.579L469.702 222.691H511.423L518.547 255ZM476.062 192.926L483.185 159.854C485.729 147.643 488.528 128.054 490.054 116.098H490.817C492.598 128.054 495.396 147.643 497.94 159.854L505.064 192.926H476.062Z" fill="white"/>
<path d="M666.697 255H701.041L665.171 187.33C683.233 178.68 693.155 160.363 693.155 134.414C693.155 98.0352 673.057 76.92 638.204 76.92H589.359V255H620.651V192.926H634.897L666.697 255ZM620.651 106.685H637.95C652.959 106.685 661.1 116.352 661.1 134.669C661.1 153.24 652.959 163.162 637.95 163.162H620.651V106.685Z" fill="white"/>
<path d="M772.178 225.49V178.934H825.602V150.442H772.178V106.43H830.435V76.92H740.886V255H832.979V225.49H772.178Z" fill="white"/>
<path d="M265.196 106.43H318.62V76.92H233.905V106.43H265.196Z" fill="#FF0044"/>
<path d="M265.196 178.934H318.62V150.442H265.196H233.905V178.934H265.196Z" fill="#FF0044"/>
<path d="M233.905 255H318.62V225.49H265.196H233.905V255Z" fill="#FF0044"/>
<path d="M527.544 17.4005H453.6V46.2004H527.544V17.4005Z" fill="#FF0044"/>
<path d="M12.036 345.204L1.836 316.44H5.3448L13.5048 340.226L21.3384 316.358H23.9904L31.824 340.226L39.984 316.44H43.3704L33.1704 345.204H30.4368L22.6032 322.03L14.7288 345.204H12.036ZM63.5253 342.266C61.4037 344.415 58.7789 345.49 55.6509 345.49C52.5229 345.49 49.9117 344.415 47.8173 342.266C45.7501 340.118 44.7165 337.52 44.7165 334.474C44.7165 331.454 45.7637 328.87 47.8581 326.722C49.9797 324.546 52.6045 323.458 55.7325 323.458C58.8605 323.458 61.4717 324.532 63.5661 326.681C65.6605 328.83 66.7077 331.427 66.7077 334.474C66.7077 337.493 65.6469 340.09 63.5253 342.266ZM55.7325 342.674C57.9901 342.674 59.8397 341.886 61.2813 340.308C62.7501 338.73 63.4845 336.786 63.4845 334.474C63.4845 332.189 62.7229 330.244 61.1997 328.639C59.7037 327.034 57.8541 326.232 55.6509 326.232C53.3933 326.232 51.5437 327.034 50.1021 328.639C48.6605 330.217 47.9397 332.162 47.9397 334.474C47.9397 336.758 48.6877 338.703 50.1837 340.308C51.6797 341.886 53.5293 342.674 55.7325 342.674ZM72.3986 345V323.906H75.5402V329.414C76.3562 327.592 77.5122 326.137 79.0082 325.049C80.5042 323.961 82.2178 323.458 84.149 323.539V326.926H83.9042C81.4834 326.926 79.4842 327.769 77.9066 329.455C76.329 331.142 75.5402 333.522 75.5402 336.595V345H72.3986ZM89.2194 345V315.216H92.361V345H89.2194ZM108.505 345.449C105.813 345.449 103.46 344.456 101.447 342.47C99.4342 340.458 98.4278 337.778 98.4278 334.433C98.4278 331.142 99.4342 328.49 101.447 326.477C103.46 324.464 105.813 323.458 108.505 323.458C111.824 323.458 114.517 324.954 116.584 327.946V315.216H119.725V345H116.584V340.757C114.462 343.885 111.769 345.449 108.505 345.449ZM109.077 342.634C111.117 342.634 112.898 341.858 114.421 340.308C115.945 338.758 116.706 336.786 116.706 334.392C116.706 332.053 115.945 330.122 114.421 328.598C112.898 327.048 111.117 326.273 109.077 326.273C106.955 326.273 105.187 327.021 103.773 328.517C102.358 329.986 101.651 331.971 101.651 334.474C101.651 336.894 102.372 338.866 103.813 340.39C105.255 341.886 107.009 342.634 109.077 342.634ZM132.335 345.163L124.95 323.906H128.296L133.845 340.838L139.516 323.825H142.127L147.839 340.838L153.388 323.906H156.652L149.226 345.163H146.493L140.822 328.517L135.11 345.163H132.335ZM161.969 319.296V315.828H165.56V319.296H161.969ZM162.173 345V323.906H165.315V345H162.173ZM181.459 345.449C178.766 345.449 176.414 344.456 174.401 342.47C172.388 340.458 171.382 337.778 171.382 334.433C171.382 331.142 172.388 328.49 174.401 326.477C176.414 324.464 178.766 323.458 181.459 323.458C184.778 323.458 187.47 324.954 189.538 327.946V315.216H192.679V345H189.538V340.757C187.416 343.885 184.723 345.449 181.459 345.449ZM182.03 342.634C184.07 342.634 185.852 341.858 187.375 340.308C188.898 338.758 189.66 336.786 189.66 334.392C189.66 332.053 188.898 330.122 187.375 328.598C185.852 327.048 184.07 326.273 182.03 326.273C179.909 326.273 178.141 327.021 176.726 328.517C175.312 329.986 174.605 331.971 174.605 334.474C174.605 336.894 175.326 338.866 176.767 340.39C178.209 341.886 179.963 342.634 182.03 342.634ZM201.576 335.738C201.794 337.887 202.596 339.601 203.983 340.879C205.398 342.13 207.071 342.756 209.002 342.756C211.531 342.756 213.748 341.763 215.652 339.778L217.611 341.532C215.244 344.17 212.347 345.49 208.92 345.49C205.955 345.49 203.453 344.47 201.413 342.43C199.4 340.362 198.394 337.71 198.394 334.474C198.394 331.4 199.359 328.802 201.291 326.681C203.222 324.532 205.629 323.458 208.512 323.458C211.531 323.458 213.925 324.518 215.693 326.64C217.461 328.762 218.345 331.427 218.345 334.637C218.345 335.045 218.331 335.412 218.304 335.738H201.576ZM201.576 333.209H215.163C214.972 331.169 214.292 329.482 213.123 328.15C211.98 326.79 210.416 326.11 208.431 326.11C206.635 326.11 205.099 326.776 203.82 328.109C202.542 329.442 201.794 331.142 201.576 333.209ZM245.583 345.49C242.537 345.49 239.966 344.415 237.872 342.266C235.805 340.09 234.771 337.493 234.771 334.474C234.771 331.454 235.805 328.87 237.872 326.722C239.966 324.546 242.537 323.458 245.583 323.458C248.847 323.458 251.662 324.709 254.029 327.211L252.03 329.333C250.071 327.266 247.909 326.232 245.542 326.232C243.421 326.232 241.626 327.034 240.157 328.639C238.715 330.217 237.994 332.162 237.994 334.474C237.994 336.758 238.729 338.703 240.198 340.308C241.694 341.886 243.543 342.674 245.746 342.674C248.004 342.674 250.126 341.614 252.111 339.492L254.192 341.41C251.744 344.13 248.874 345.49 245.583 345.49ZM276.291 342.266C274.169 344.415 271.545 345.49 268.417 345.49C265.289 345.49 262.677 344.415 260.583 342.266C258.516 340.118 257.482 337.52 257.482 334.474C257.482 331.454 258.529 328.87 260.624 326.722C262.745 324.546 265.37 323.458 268.498 323.458C271.626 323.458 274.237 324.532 276.332 326.681C278.426 328.83 279.473 331.427 279.473 334.474C279.473 337.493 278.413 340.09 276.291 342.266ZM268.498 342.674C270.756 342.674 272.605 341.886 274.047 340.308C275.516 338.73 276.25 336.786 276.25 334.474C276.25 332.189 275.489 330.244 273.965 328.639C272.469 327.034 270.62 326.232 268.417 326.232C266.159 326.232 264.309 327.034 262.868 328.639C261.426 330.217 260.705 332.162 260.705 334.474C260.705 336.758 261.453 338.703 262.949 340.308C264.445 341.886 266.295 342.674 268.498 342.674ZM285.164 345V323.906H288.306V327.456C290.074 324.79 292.345 323.458 295.119 323.458C298.275 323.458 300.532 324.858 301.892 327.66C303.715 324.858 306.19 323.458 309.318 323.458C311.739 323.458 313.643 324.219 315.03 325.742C316.444 327.266 317.151 329.333 317.151 331.944V345H314.01V332.678C314.01 330.638 313.52 329.074 312.541 327.986C311.589 326.871 310.256 326.314 308.543 326.314C306.883 326.314 305.496 326.898 304.381 328.068C303.266 329.238 302.708 330.829 302.708 332.842V345H299.607V332.597C299.607 330.638 299.118 329.102 298.139 327.986C297.187 326.871 295.867 326.314 294.181 326.314C292.495 326.314 291.094 326.939 289.979 328.19C288.863 329.442 288.306 331.033 288.306 332.964V345H285.164ZM323.972 351.528V323.906H327.114V328.15C329.235 325.022 331.928 323.458 335.192 323.458C337.885 323.458 340.238 324.464 342.251 326.477C344.263 328.462 345.27 331.128 345.27 334.474C345.27 337.765 344.263 340.417 342.251 342.43C340.238 344.442 337.885 345.449 335.192 345.449C331.874 345.449 329.181 343.953 327.114 340.961V351.528H323.972ZM334.621 342.634C336.743 342.634 338.511 341.899 339.925 340.43C341.339 338.934 342.047 336.935 342.047 334.433C342.047 332.012 341.326 330.054 339.884 328.558C338.443 327.034 336.688 326.273 334.621 326.273C332.581 326.273 330.799 327.048 329.276 328.598C327.753 330.149 326.991 332.107 326.991 334.474C326.991 336.84 327.753 338.798 329.276 340.349C330.799 341.872 332.581 342.634 334.621 342.634ZM357.349 345.449C355.2 345.449 353.351 344.864 351.8 343.694C350.25 342.525 349.475 340.893 349.475 338.798C349.475 336.595 350.291 334.895 351.923 333.698C353.555 332.502 355.744 331.903 358.491 331.903C360.667 331.903 362.816 332.202 364.938 332.801V332.148C364.938 330.298 364.394 328.884 363.306 327.905C362.218 326.926 360.681 326.436 358.695 326.436C356.628 326.436 354.493 326.939 352.29 327.946L351.351 325.375C353.963 324.178 356.519 323.58 359.022 323.58C362.014 323.58 364.285 324.355 365.835 325.906C367.304 327.374 368.039 329.442 368.039 332.107V345H364.938V341.858C363.061 344.252 360.531 345.449 357.349 345.449ZM357.961 342.919C359.919 342.919 361.579 342.389 362.939 341.328C364.299 340.267 364.979 338.907 364.979 337.248V335.29C362.911 334.691 360.858 334.392 358.818 334.392C356.887 334.392 355.377 334.786 354.289 335.575C353.201 336.337 352.657 337.384 352.657 338.717C352.657 339.995 353.16 341.015 354.167 341.777C355.2 342.538 356.465 342.919 357.961 342.919ZM374.693 345V323.906H377.835V327.578C379.494 324.831 381.901 323.458 385.056 323.458C387.559 323.458 389.531 324.233 390.972 325.783C392.414 327.306 393.135 329.346 393.135 331.903V345H389.993V332.678C389.993 330.693 389.476 329.142 388.443 328.027C387.436 326.885 386.008 326.314 384.159 326.314C382.336 326.314 380.827 326.926 379.63 328.15C378.433 329.374 377.835 330.965 377.835 332.923V345H374.693ZM402.501 351.65C400.978 351.65 399.482 351.297 398.013 350.59L399.074 348.101C400.08 348.618 401.182 348.876 402.379 348.876C403.331 348.876 404.133 348.577 404.786 347.978C405.439 347.407 406.078 346.387 406.703 344.918L397.115 323.906H400.583L408.254 341.491L415.027 323.906H418.372L409.519 345.694C408.621 347.842 407.628 349.366 406.54 350.263C405.452 351.188 404.106 351.65 402.501 351.65ZM444.428 345.449C441.735 345.449 439.382 344.456 437.37 342.47C435.357 340.458 434.35 337.778 434.35 334.433C434.35 331.142 435.357 328.49 437.37 326.477C439.382 324.464 441.735 323.458 444.428 323.458C447.746 323.458 450.439 324.954 452.506 327.946V315.216H455.648V345H452.506V340.757C450.385 343.885 447.692 345.449 444.428 345.449ZM444.999 342.634C447.039 342.634 448.821 341.858 450.344 340.308C451.867 338.758 452.629 336.786 452.629 334.392C452.629 332.053 451.867 330.122 450.344 328.598C448.821 327.048 447.039 326.273 444.999 326.273C442.878 326.273 441.11 327.021 439.695 328.517C438.281 329.986 437.574 331.971 437.574 334.474C437.574 336.894 438.294 338.866 439.736 340.39C441.178 341.886 442.932 342.634 444.999 342.634ZM464.545 335.738C464.763 337.887 465.565 339.601 466.952 340.879C468.367 342.13 470.039 342.756 471.971 342.756C474.5 342.756 476.717 341.763 478.621 339.778L480.579 341.532C478.213 344.17 475.316 345.49 471.889 345.49C468.924 345.49 466.422 344.47 464.382 342.43C462.369 340.362 461.363 337.71 461.363 334.474C461.363 331.4 462.328 328.802 464.259 326.681C466.191 324.532 468.598 323.458 471.481 323.458C474.5 323.458 476.894 324.518 478.662 326.64C480.43 328.762 481.314 331.427 481.314 334.637C481.314 335.045 481.3 335.412 481.273 335.738H464.545ZM464.545 333.209H478.131C477.941 331.169 477.261 329.482 476.091 328.15C474.949 326.79 473.385 326.11 471.399 326.11C469.604 326.11 468.067 326.776 466.789 328.109C465.511 329.442 464.763 331.142 464.545 333.209ZM492.836 345.163L483.697 323.906H487.165L494.264 341.41L501.404 323.906H504.79L495.61 345.163H492.836ZM510.365 335.738C510.583 337.887 511.385 339.601 512.773 340.879C514.187 342.13 515.86 342.756 517.791 342.756C520.321 342.756 522.537 341.763 524.441 339.778L526.4 341.532C524.033 344.17 521.137 345.49 517.709 345.49C514.745 345.49 512.242 344.47 510.202 342.43C508.189 340.362 507.183 337.71 507.183 334.474C507.183 331.4 508.149 328.802 510.08 326.681C512.011 324.532 514.418 323.458 517.301 323.458C520.321 323.458 522.714 324.518 524.482 326.64C526.25 328.762 527.134 331.427 527.134 334.637C527.134 335.045 527.121 335.412 527.093 335.738H510.365ZM510.365 333.209H523.952C523.761 331.169 523.081 329.482 521.912 328.15C520.769 326.79 519.205 326.11 517.22 326.11C515.425 326.11 513.888 326.776 512.609 328.109C511.331 329.442 510.583 331.142 510.365 333.209ZM532.919 345V315.216H536.061V345H532.919ZM560.855 342.266C558.733 344.415 556.109 345.49 552.981 345.49C549.853 345.49 547.241 344.415 545.147 342.266C543.08 340.118 542.046 337.52 542.046 334.474C542.046 331.454 543.093 328.87 545.188 326.722C547.309 324.546 549.934 323.458 553.062 323.458C556.19 323.458 558.801 324.532 560.896 326.681C562.99 328.83 564.037 331.427 564.037 334.474C564.037 337.493 562.977 340.09 560.855 342.266ZM553.062 342.674C555.32 342.674 557.169 341.886 558.611 340.308C560.08 338.73 560.814 336.786 560.814 334.474C560.814 332.189 560.053 330.244 558.529 328.639C557.033 327.034 555.184 326.232 552.981 326.232C550.723 326.232 548.873 327.034 547.432 328.639C545.99 330.217 545.269 332.162 545.269 334.474C545.269 336.758 546.017 338.703 547.513 340.308C549.009 341.886 550.859 342.674 553.062 342.674ZM569.728 351.528V323.906H572.87V328.15C574.992 325.022 577.684 323.458 580.948 323.458C583.641 323.458 585.994 324.464 588.007 326.477C590.02 328.462 591.026 331.128 591.026 334.474C591.026 337.765 590.02 340.417 588.007 342.43C585.994 344.442 583.641 345.449 580.948 345.449C577.63 345.449 574.937 343.953 572.87 340.961V351.528H569.728ZM580.377 342.634C582.499 342.634 584.267 341.899 585.681 340.43C587.096 338.934 587.803 336.935 587.803 334.433C587.803 332.012 587.082 330.054 585.64 328.558C584.199 327.034 582.444 326.273 580.377 326.273C578.337 326.273 576.556 327.048 575.032 328.598C573.509 330.149 572.748 332.107 572.748 334.474C572.748 336.84 573.509 338.798 575.032 340.349C576.556 341.872 578.337 342.634 580.377 342.634ZM596.904 319.296V315.828H600.494V319.296H596.904ZM597.108 345V323.906H600.249V345H597.108ZM607.54 345V323.906H610.682V327.578C612.341 324.831 614.748 323.458 617.903 323.458C620.406 323.458 622.378 324.233 623.819 325.783C625.261 327.306 625.982 329.346 625.982 331.903V345H622.84V332.678C622.84 330.693 622.323 329.142 621.29 328.027C620.283 326.885 618.855 326.314 617.006 326.314C615.183 326.314 613.674 326.926 612.477 328.15C611.28 329.374 610.682 330.965 610.682 332.923V345H607.54ZM642.025 351.61C638.462 351.61 635.266 350.63 632.437 348.672L633.865 346.224C636.34 348.019 639.046 348.917 641.984 348.917C644.35 348.917 646.214 348.264 647.574 346.958C648.961 345.68 649.654 343.83 649.654 341.41V338.921C647.424 341.886 644.663 343.368 641.372 343.368C638.706 343.368 636.381 342.457 634.395 340.634C632.437 338.785 631.458 336.378 631.458 333.413C631.458 330.448 632.45 328.054 634.436 326.232C636.422 324.382 638.734 323.458 641.372 323.458C644.745 323.458 647.492 324.872 649.614 327.701V323.906H652.755V341.328C652.755 344.51 651.858 346.999 650.062 348.794C648.186 350.671 645.506 351.61 642.025 351.61ZM641.984 340.594C644.051 340.594 645.86 339.914 647.41 338.554C648.961 337.194 649.736 335.466 649.736 333.372C649.736 331.278 648.961 329.564 647.41 328.231C645.887 326.898 644.078 326.232 641.984 326.232C639.917 326.232 638.176 326.898 636.762 328.231C635.374 329.537 634.681 331.264 634.681 333.413C634.681 335.48 635.388 337.194 636.802 338.554C638.244 339.914 639.971 340.594 641.984 340.594ZM10.4856 405.408C8.9624 405.408 7.412 405.136 5.8344 404.592C4.284 404.021 2.924 403.259 1.7544 402.307L3.3456 400.063C5.7392 401.858 8.1736 402.756 10.6488 402.756C11.9272 402.756 12.9744 402.443 13.7904 401.818C14.6064 401.192 15.0144 400.362 15.0144 399.329C15.0144 398.377 14.5656 397.642 13.668 397.126C12.7976 396.609 11.492 396.106 9.7512 395.616C8.6904 395.317 7.8472 395.045 7.2216 394.8C6.596 394.555 5.8888 394.215 5.1 393.78C4.3112 393.318 3.7264 392.746 3.3456 392.066C2.9648 391.359 2.7744 390.53 2.7744 389.578C2.7744 387.782 3.4408 386.327 4.7736 385.212C6.1336 384.097 7.8608 383.539 9.9552 383.539C12.6752 383.539 15.2048 384.314 17.544 385.865L16.116 388.231C14.0216 386.871 11.9408 386.191 9.8736 386.191C8.6496 386.191 7.6568 386.49 6.8952 387.089C6.1608 387.66 5.7936 388.408 5.7936 389.333C5.7936 389.714 5.9024 390.067 6.12 390.394C6.3376 390.72 6.5824 390.992 6.8544 391.21C7.1264 391.427 7.548 391.658 8.1192 391.903C8.7176 392.148 9.1936 392.325 9.5472 392.434C9.9008 392.542 10.4584 392.719 11.22 392.964C12.2264 393.263 13.056 393.549 13.7088 393.821C14.3616 394.093 15.0552 394.46 15.7896 394.922C16.524 395.385 17.068 395.97 17.4216 396.677C17.8024 397.357 17.9928 398.159 17.9928 399.084C17.9928 401.042 17.2856 402.593 15.8712 403.735C14.4568 404.85 12.6616 405.408 10.4856 405.408ZM41.3323 402.266C39.2107 404.415 36.5859 405.49 33.4579 405.49C30.3299 405.49 27.7187 404.415 25.6243 402.266C23.5571 400.118 22.5235 397.52 22.5235 394.474C22.5235 391.454 23.5707 388.87 25.6651 386.722C27.7867 384.546 30.4115 383.458 33.5395 383.458C36.6675 383.458 39.2787 384.532 41.3731 386.681C43.4675 388.83 44.5147 391.427 44.5147 394.474C44.5147 397.493 43.4539 400.09 41.3323 402.266ZM33.5395 402.674C35.7971 402.674 37.6467 401.886 39.0883 400.308C40.5571 398.73 41.2915 396.786 41.2915 394.474C41.2915 392.189 40.5299 390.244 39.0067 388.639C37.5107 387.034 35.6611 386.232 33.4579 386.232C31.2003 386.232 29.3507 387.034 27.9091 388.639C26.4675 390.217 25.7467 392.162 25.7467 394.474C25.7467 396.758 26.4947 398.703 27.9907 400.308C29.4867 401.886 31.3363 402.674 33.5395 402.674ZM51.3889 405V386.681H48.4921V383.947H51.3889V382.111C51.3889 379.718 52.0009 377.909 53.2249 376.685C54.3129 375.597 55.8225 375.053 57.7537 375.053C59.0865 375.053 60.2425 375.23 61.2217 375.583V378.317C59.9705 377.963 58.9505 377.786 58.1617 377.786C55.7137 377.786 54.4897 379.282 54.4897 382.274V383.988H61.1809V386.681H54.5305V405H51.3889ZM72.2453 405.367C70.4229 405.367 68.9677 404.891 67.8797 403.939C66.8189 402.96 66.2885 401.45 66.2885 399.41V386.681H63.3509V383.906H66.2885V377.542H69.4301V383.906H76.1213V386.681H69.4301V399.002C69.4301 401.342 70.6133 402.511 72.9797 402.511C74.0133 402.511 75.0333 402.266 76.0397 401.777V404.47C74.8973 405.068 73.6325 405.367 72.2453 405.367ZM87.2718 405.163L79.887 383.906H83.2326L88.7814 400.838L94.4526 383.825H97.0638L102.776 400.838L108.325 383.906H111.589L104.163 405.163H101.429L95.7582 388.517L90.0462 405.163H87.2718ZM122.311 405.449C120.162 405.449 118.312 404.864 116.762 403.694C115.212 402.525 114.436 400.893 114.436 398.798C114.436 396.595 115.252 394.895 116.884 393.698C118.516 392.502 120.706 391.903 123.453 391.903C125.629 391.903 127.778 392.202 129.9 392.801V392.148C129.9 390.298 129.356 388.884 128.268 387.905C127.18 386.926 125.643 386.436 123.657 386.436C121.59 386.436 119.455 386.939 117.252 387.946L116.313 385.375C118.924 384.178 121.481 383.58 123.984 383.58C126.976 383.58 129.247 384.355 130.797 385.906C132.266 387.374 133 389.442 133 392.107V405H129.9V401.858C128.023 404.252 125.493 405.449 122.311 405.449ZM122.923 402.919C124.881 402.919 126.54 402.389 127.9 401.328C129.26 400.267 129.94 398.907 129.94 397.248V395.29C127.873 394.691 125.82 394.392 123.78 394.392C121.848 394.392 120.339 394.786 119.251 395.575C118.163 396.337 117.619 397.384 117.619 398.717C117.619 399.995 118.122 401.015 119.128 401.777C120.162 402.538 121.427 402.919 122.923 402.919ZM139.655 405V383.906H142.797V389.414C143.613 387.592 144.769 386.137 146.265 385.049C147.761 383.961 149.474 383.458 151.405 383.539V386.926H151.161C148.74 386.926 146.741 387.769 145.163 389.455C143.585 391.142 142.797 393.522 142.797 396.595V405H139.655ZM157.15 395.738C157.368 397.887 158.17 399.601 159.558 400.879C160.972 402.13 162.645 402.756 164.576 402.756C167.106 402.756 169.322 401.763 171.226 399.778L173.185 401.532C170.818 404.17 167.922 405.49 164.494 405.49C161.53 405.49 159.027 404.47 156.987 402.43C154.974 400.362 153.968 397.71 153.968 394.474C153.968 391.4 154.934 388.802 156.865 386.681C158.796 384.532 161.203 383.458 164.086 383.458C167.106 383.458 169.499 384.518 171.267 386.64C173.035 388.762 173.919 391.427 173.919 394.637C173.919 395.045 173.906 395.412 173.878 395.738H157.15ZM157.15 393.209H170.737C170.546 391.169 169.866 389.482 168.697 388.15C167.554 386.79 165.99 386.11 164.005 386.11C162.21 386.11 160.673 386.776 159.394 388.109C158.116 389.442 157.368 391.142 157.15 393.209ZM192.834 405V386.681H189.937V383.947H192.834V382.111C192.834 379.718 193.446 377.909 194.67 376.685C195.758 375.597 197.268 375.053 199.199 375.053C200.532 375.053 201.688 375.23 202.667 375.583V378.317C201.416 377.963 200.396 377.786 199.607 377.786C197.159 377.786 195.935 379.282 195.935 382.274V383.988H202.626V386.681H195.976V405H192.834ZM223.737 402.266C221.615 404.415 218.991 405.49 215.863 405.49C212.735 405.49 210.123 404.415 208.029 402.266C205.962 400.118 204.928 397.52 204.928 394.474C204.928 391.454 205.975 388.87 208.07 386.722C210.191 384.546 212.816 383.458 215.944 383.458C219.072 383.458 221.683 384.532 223.778 386.681C225.872 388.83 226.919 391.427 226.919 394.474C226.919 397.493 225.859 400.09 223.737 402.266ZM215.944 402.674C218.202 402.674 220.051 401.886 221.493 400.308C222.962 398.73 223.696 396.786 223.696 394.474C223.696 392.189 222.935 390.244 221.411 388.639C219.915 387.034 218.066 386.232 215.863 386.232C213.605 386.232 211.755 387.034 210.314 388.639C208.872 390.217 208.151 392.162 208.151 394.474C208.151 396.758 208.899 398.703 210.395 400.308C211.891 401.886 213.741 402.674 215.944 402.674ZM232.61 405V383.906H235.752V389.414C236.568 387.592 237.724 386.137 239.22 385.049C240.716 383.961 242.43 383.458 244.361 383.539V386.926H244.116C241.695 386.926 239.696 387.769 238.118 389.455C236.541 391.142 235.752 393.522 235.752 396.595V405H232.61ZM264.642 411.65C263.118 411.65 261.622 411.297 260.154 410.59L261.214 408.101C262.221 408.618 263.322 408.876 264.519 408.876C265.471 408.876 266.274 408.577 266.926 407.978C267.579 407.407 268.218 406.387 268.844 404.918L259.256 383.906H262.724L270.394 401.491L277.167 383.906H280.513L271.659 405.694C270.762 407.842 269.769 409.366 268.681 410.263C267.593 411.188 266.246 411.65 264.642 411.65ZM301.751 402.266C299.629 404.415 297.005 405.49 293.877 405.49C290.749 405.49 288.137 404.415 286.043 402.266C283.976 400.118 282.942 397.52 282.942 394.474C282.942 391.454 283.989 388.87 286.084 386.722C288.205 384.546 290.83 383.458 293.958 383.458C297.086 383.458 299.697 384.532 301.792 386.681C303.886 388.83 304.933 391.427 304.933 394.474C304.933 397.493 303.873 400.09 301.751 402.266ZM293.958 402.674C296.216 402.674 298.065 401.886 299.507 400.308C300.976 398.73 301.71 396.786 301.71 394.474C301.71 392.189 300.949 390.244 299.425 388.639C297.929 387.034 296.08 386.232 293.877 386.232C291.619 386.232 289.769 387.034 288.328 388.639C286.886 390.217 286.165 392.162 286.165 394.474C286.165 396.758 286.913 398.703 288.409 400.308C289.905 401.886 291.755 402.674 293.958 402.674ZM318.376 405.449C315.874 405.449 313.902 404.687 312.46 403.164C311.019 401.614 310.298 399.56 310.298 397.003V383.906H313.44V396.228C313.44 398.214 313.943 399.778 314.949 400.92C315.983 402.035 317.424 402.593 319.274 402.593C321.096 402.593 322.606 401.981 323.803 400.757C325 399.533 325.598 397.942 325.598 395.983V383.906H328.699V405H325.598V401.328C323.884 404.075 321.477 405.449 318.376 405.449ZM335.766 405V383.906H338.907V389.414C339.723 387.592 340.879 386.137 342.375 385.049C343.871 383.961 345.585 383.458 347.516 383.539V386.926H347.271C344.851 386.926 342.851 387.769 341.274 389.455C339.696 391.142 338.907 393.522 338.907 396.595V405H335.766ZM373.387 405.449C370.694 405.449 368.341 404.456 366.328 402.47C364.315 400.458 363.309 397.778 363.309 394.433C363.309 391.142 364.315 388.49 366.328 386.477C368.341 384.464 370.694 383.458 373.387 383.458C376.705 383.458 379.398 384.954 381.465 387.946V375.216H384.607V405H381.465V400.757C379.343 403.885 376.651 405.449 373.387 405.449ZM373.958 402.634C375.998 402.634 377.779 401.858 379.303 400.308C380.826 398.758 381.587 396.786 381.587 394.392C381.587 392.053 380.826 390.122 379.303 388.598C377.779 387.048 375.998 386.273 373.958 386.273C371.836 386.273 370.068 387.021 368.654 388.517C367.239 389.986 366.532 391.971 366.532 394.474C366.532 396.894 367.253 398.866 368.695 400.39C370.136 401.886 371.891 402.634 373.958 402.634ZM393.504 395.738C393.721 397.887 394.524 399.601 395.911 400.879C397.325 402.13 398.998 402.756 400.929 402.756C403.459 402.756 405.676 401.763 407.58 399.778L409.538 401.532C407.172 404.17 404.275 405.49 400.848 405.49C397.883 405.49 395.38 404.47 393.34 402.43C391.328 400.362 390.321 397.71 390.321 394.474C390.321 391.4 391.287 388.802 393.218 386.681C395.149 384.532 397.556 383.458 400.44 383.458C403.459 383.458 405.852 384.518 407.62 386.64C409.388 388.762 410.272 391.427 410.272 394.637C410.272 395.045 410.259 395.412 410.232 395.738H393.504ZM393.504 393.209H407.09C406.9 391.169 406.22 389.482 405.05 388.15C403.908 386.79 402.344 386.11 400.358 386.11C398.563 386.11 397.026 386.776 395.748 388.109C394.469 389.442 393.721 391.142 393.504 393.209ZM421.795 405.163L412.655 383.906H416.123L423.223 401.41L430.363 383.906H433.749L424.569 405.163H421.795ZM438.764 379.296V375.828H442.354V379.296H438.764ZM438.968 405V383.906H442.109V405H438.968ZM458.907 405.49C455.86 405.49 453.29 404.415 451.195 402.266C449.128 400.09 448.095 397.493 448.095 394.474C448.095 391.454 449.128 388.87 451.195 386.722C453.29 384.546 455.86 383.458 458.907 383.458C462.171 383.458 464.986 384.709 467.352 387.211L465.353 389.333C463.395 387.266 461.232 386.232 458.866 386.232C456.744 386.232 454.949 387.034 453.48 388.639C452.039 390.217 451.318 392.162 451.318 394.474C451.318 396.758 452.052 398.703 453.521 400.308C455.017 401.886 456.867 402.674 459.07 402.674C461.327 402.674 463.449 401.614 465.435 399.492L467.515 401.41C465.067 404.13 462.198 405.49 458.907 405.49ZM473.988 395.738C474.206 397.887 475.008 399.601 476.395 400.879C477.81 402.13 479.482 402.756 481.414 402.756C483.943 402.756 486.16 401.763 488.064 399.778L490.022 401.532C487.656 404.17 484.759 405.49 481.332 405.49C478.367 405.49 475.865 404.47 473.825 402.43C471.812 400.362 470.806 397.71 470.806 394.474C470.806 391.4 471.771 388.802 473.702 386.681C475.634 384.532 478.041 383.458 480.924 383.458C483.943 383.458 486.337 384.518 488.105 386.64C489.873 388.762 490.757 391.427 490.757 394.637C490.757 395.045 490.743 395.412 490.716 395.738H473.988ZM473.988 393.209H487.574C487.384 391.169 486.704 389.482 485.534 388.15C484.392 386.79 482.828 386.11 480.842 386.11C479.047 386.11 477.51 386.776 476.232 388.109C474.954 389.442 474.206 391.142 473.988 393.209ZM503.233 405.408C501.71 405.408 500.16 405.136 498.582 404.592C497.032 404.021 495.672 403.259 494.502 402.307L496.093 400.063C498.487 401.858 500.921 402.756 503.396 402.756C504.675 402.756 505.722 402.443 506.538 401.818C507.354 401.192 507.762 400.362 507.762 399.329C507.762 398.377 507.313 397.642 506.416 397.126C505.545 396.609 504.24 396.106 502.499 395.616C501.438 395.317 500.595 395.045 499.969 394.8C499.344 394.555 498.636 394.215 497.848 393.78C497.059 393.318 496.474 392.746 496.093 392.066C495.712 391.359 495.522 390.53 495.522 389.578C495.522 387.782 496.188 386.327 497.521 385.212C498.881 384.097 500.608 383.539 502.703 383.539C505.423 383.539 507.952 384.314 510.292 385.865L508.864 388.231C506.769 386.871 504.688 386.191 502.621 386.191C501.397 386.191 500.404 386.49 499.643 387.089C498.908 387.66 498.541 388.408 498.541 389.333C498.541 389.714 498.65 390.067 498.868 390.394C499.085 390.72 499.33 390.992 499.602 391.21C499.874 391.427 500.296 391.658 500.867 391.903C501.465 392.148 501.941 392.325 502.295 392.434C502.648 392.542 503.206 392.719 503.968 392.964C504.974 393.263 505.804 393.549 506.456 393.821C507.109 394.093 507.803 394.46 508.537 394.922C509.272 395.385 509.816 395.97 510.169 396.677C510.55 397.357 510.74 398.159 510.74 399.084C510.74 401.042 510.033 402.593 508.619 403.735C507.204 404.85 505.409 405.408 503.233 405.408Z" fill="white"/>
</svg>
