<svg width="25" height="24" viewBox="0 0 25 24" fill="none" xmlns="http://www.w3.org/2000/svg">
<path opacity="0.4" d="M20.1626 18.9534H14.4683C13.9128 18.9534 13.4609 19.4124 13.4609 19.9767C13.4609 20.5422 13.9128 21.0001 14.4683 21.0001H20.1626C20.7182 21.0001 21.17 20.5422 21.17 19.9767C21.17 19.4124 20.7182 18.9534 20.1626 18.9534" fill="white"/>
<path d="M10.4791 6.90458L15.8749 11.2647C16.0051 11.3689 16.0273 11.5603 15.9257 11.6936L9.52879 20.0289C9.12666 20.5438 8.53406 20.8352 7.89913 20.8459L4.407 20.8889C4.22076 20.8911 4.05779 20.7621 4.01546 20.5772L3.2218 17.1265C3.08423 16.4923 3.2218 15.8365 3.62392 15.3313L10.0526 6.95618C10.1563 6.82181 10.3478 6.79816 10.4791 6.90458" fill="white"/>
<path opacity="0.4" d="M18.2903 8.66544L17.2501 9.96401C17.1453 10.0962 16.957 10.1177 16.8268 10.0124C15.5622 8.98901 12.3241 6.36285 11.4257 5.63509C11.2945 5.52759 11.2765 5.33625 11.3823 5.20295L12.3855 3.95706C13.2955 2.78534 14.8829 2.67784 16.1633 3.69906L17.6342 4.87078C18.2374 5.34377 18.6396 5.96726 18.7771 6.62299C18.9359 7.3443 18.7665 8.0527 18.2903 8.66544" fill="white"/>
</svg>
