<svg width="25" height="24" viewBox="0 0 25 24" fill="none" xmlns="http://www.w3.org/2000/svg">
<path opacity="0.4" d="M16.225 2H7.844C4.804 2 3.034 3.78 3.034 6.83V17.16C3.034 20.26 4.804 22 7.844 22H16.225C19.314 22 21.034 20.26 21.034 17.16V6.83C21.034 3.78 19.314 2 16.225 2" fill="white"/>
<path fill-rule="evenodd" clip-rule="evenodd" d="M8.11396 6.65039V6.66039C7.68296 6.66039 7.33396 7.01039 7.33396 7.44039C7.33396 7.87039 7.68296 8.22039 8.11396 8.22039H11.103C11.534 8.22039 11.884 7.87039 11.884 7.42939C11.884 7.00039 11.534 6.65039 11.103 6.65039H8.11396ZM15.9538 12.7407H8.1138C7.6828 12.7407 7.3338 12.3907 7.3338 11.9607C7.3338 11.5307 7.6828 11.1797 8.1138 11.1797H15.9538C16.3838 11.1797 16.7338 11.5307 16.7338 11.9607C16.7338 12.3907 16.3838 12.7407 15.9538 12.7407ZM15.954 17.3104H8.11396C7.81396 17.3504 7.52396 17.2004 7.36396 16.9504C7.20396 16.6904 7.20396 16.3604 7.36396 16.1104C7.52396 15.8504 7.81396 15.7104 8.11396 15.7404H15.954C16.353 15.7804 16.654 16.1204 16.654 16.5304C16.654 16.9294 16.353 17.2704 15.954 17.3104Z" fill="white"/>
</svg>
