<svg width="25" height="24" viewBox="0 0 25 24" fill="none" xmlns="http://www.w3.org/2000/svg">
<path opacity="0.4" fill-rule="evenodd" clip-rule="evenodd" d="M9.29028 3.74722C9.29028 3.33438 8.94928 3 8.52928 3H8.52828L6.89928 3.00098C4.70828 3.00294 2.92528 4.75331 2.92528 6.90279V8.76201C2.92528 9.17386 3.26628 9.50923 3.68628 9.50923C4.10628 9.50923 4.44828 9.17386 4.44828 8.76201V6.90279C4.44828 5.57604 5.54828 4.4964 6.90028 4.49444L8.52928 4.49345C8.95028 4.49345 9.29028 4.15907 9.29028 3.74722ZM17.2949 3H15.7019C15.2819 3 14.9409 3.33438 14.9409 3.74722C14.9409 4.15907 15.2819 4.49247 15.7019 4.49247H17.2949C18.6519 4.49247 19.7559 5.57506 19.7559 6.90573V8.76201C19.7559 9.17386 20.0969 9.50923 20.5169 9.50923C20.9379 9.50923 21.2779 9.17386 21.2779 8.76201V6.90573C21.2779 4.75135 19.4919 3 17.2949 3ZM9.33987 6.74219H14.8639C15.4689 6.74219 16.0499 6.98047 16.4729 7.40507C16.8989 7.8336 17.1349 8.40921 17.1339 9.00836V10.2537C17.1289 10.3998 17.0099 10.5185 16.8609 10.5224H7.34087C7.19287 10.5175 7.07387 10.3988 7.07087 10.2537V9.00836C7.05987 7.7679 8.07587 6.75494 9.33987 6.74219Z" fill="white"/>
<path d="M22.341 12.0413H1.86404C1.44404 12.0413 1.10204 12.3756 1.10204 12.7885C1.10204 13.2003 1.44404 13.5337 1.86404 13.5337H2.92504V17.0972C2.92504 19.2467 4.70904 20.9971 6.90004 20.999L8.52904 21V21C8.95004 21 9.29004 20.6656 9.29104 20.2528C9.29104 19.841 8.95004 19.5066 8.53004 19.5066L6.90204 19.5056C5.54904 19.5036 4.44804 18.424 4.44804 17.0972V13.5337H7.07104V14.5251C7.06104 15.7656 8.07604 16.7795 9.34004 16.7913H14.864C16.129 16.7795 17.144 15.7656 17.134 14.5251V13.5337H19.757V17.0933C19.757 18.425 18.653 19.5066 17.296 19.5066H15.703C15.282 19.5066 14.941 19.841 14.941 20.2528C14.941 20.6656 15.282 21 15.703 21H17.296C19.492 21 21.279 19.2487 21.279 17.0933V13.5337H22.341C22.761 13.5337 23.102 13.2003 23.102 12.7885C23.102 12.3756 22.761 12.0413 22.341 12.0413" fill="white"/>
</svg>
