<svg width="25" height="24" viewBox="0 0 25 24" fill="none" xmlns="http://www.w3.org/2000/svg">
<path d="M21.2031 9.58786H20V8.41162C20 7.90945 19.5972 7.5 19.101 7.5C18.6058 7.5 18.202 7.90945 18.202 8.41162V9.58786H17.001C16.5048 9.58786 16.102 9.99731 16.102 10.4995C16.102 11.0016 16.5048 11.4111 17.001 11.4111H18.202V12.5884C18.202 13.0906 18.6058 13.5 19.101 13.5C19.5972 13.5 20 13.0906 20 12.5884V11.4111H21.2031C21.6983 11.4111 22.102 11.0016 22.102 10.4995C22.102 9.99731 21.6983 9.58786 21.2031 9.58786" fill="white"/>
<path d="M9.60204 15.0156C5.55626 15.0156 2.10204 15.6625 2.10204 18.2467C2.10204 20.83 5.53524 21.5001 9.60204 21.5001C13.6468 21.5001 17.102 20.8533 17.102 18.269C17.102 15.6848 13.6688 15.0156 9.60204 15.0156" fill="white"/>
<path opacity="0.4" d="M9.60178 12.5542C12.3563 12.5542 14.5644 10.3177 14.5644 7.52761C14.5644 4.73754 12.3563 2.5 9.60178 2.5C6.84721 2.5 4.63914 4.73754 4.63914 7.52761C4.63914 10.3177 6.84721 12.5542 9.60178 12.5542" fill="white"/>
</svg>
