<svg width="572" height="252" viewBox="0 0 572 252" fill="none" xmlns="http://www.w3.org/2000/svg">
<path d="M54.272 214.544C82.892 214.544 99.64 198.008 100.7 167.904H74.624C73.564 182.744 67.204 189.316 54.272 189.316C43.248 189.316 36.676 182.32 36.676 167.48V108.12C36.676 92.8561 43.248 85.8601 54.06 85.8601C66.78 85.8601 73.14 92.4321 73.988 107.696H100.064C98.792 77.3801 82.68 60.6321 54.272 60.6321C26.5 60.6321 9.75201 77.3801 9.75201 108.12V167.48C9.75201 198.008 26.712 214.544 54.272 214.544Z" fill="white"/>
<path d="M287.661 214.968C316.281 214.968 332.605 196.524 332.605 173.204C332.605 126.564 272.185 125.716 272.185 99.8521C272.185 91.3721 277.909 85.8601 287.661 85.8601C297.625 85.8601 303.561 91.5841 303.773 103.456H330.485C330.273 76.9561 314.161 60.6321 287.661 60.6321C261.373 60.6321 245.685 77.1681 245.685 99.2161C245.685 143.948 305.469 146.068 305.469 172.992C305.469 182.532 299.745 189.528 287.873 189.528C276.637 189.528 269.641 183.38 269.429 170.024H242.717C242.929 198.644 260.313 214.968 287.661 214.968Z" fill="white"/>
<path d="M393.007 187.408V148.612H437.527V124.868H393.007V88.1921H441.555V63.6001H366.931V212H443.675V187.408H393.007Z" fill="white"/>
<path d="M518.053 214.968C546.673 214.968 562.997 196.524 562.997 173.204C562.997 126.564 502.577 125.716 502.577 99.8521C502.577 91.3721 508.301 85.8601 518.053 85.8601C528.017 85.8601 533.953 91.5841 534.165 103.456H560.878C560.666 76.9561 544.553 60.6321 518.053 60.6321C491.765 60.6321 476.077 77.1681 476.077 99.2161C476.077 143.948 535.862 146.068 535.862 172.992C535.862 182.532 530.137 189.528 518.265 189.528C507.029 189.528 500.033 183.38 499.821 170.024H473.109C473.321 198.644 490.705 214.968 518.053 214.968Z" fill="white"/>
<path d="M193.448 212H220.584L184.12 63.6001H156.136L119.672 212H146.808L152.744 185.076L158.044 160.272L163.98 132.712C166.1 122.536 168.432 106.212 169.704 96.2481H170.34C171.824 106.212 174.156 122.536 176.276 132.712L182.212 160.272L187.512 185.076L193.448 212Z" fill="white"/>
<path d="M316 17H254V42H316V17Z" fill="#FF0044"/>
<path d="M112 160H169L175 187H118L112 160Z" fill="#FF0044"/>
</svg>
