<svg width="938" height="252" viewBox="0 0 938 252" fill="none" xmlns="http://www.w3.org/2000/svg">
<path d="M761.783 63.5999V108.756C761.783 122.324 763.267 146.28 765.387 163.028L764.751 163.664C761.147 154.548 756.695 142.888 752.879 133.348L721.927 63.5999H696.063V192H721.715V169.388C721.715 153.912 720.443 128.684 718.535 111.936L719.171 111.3C723.199 122.324 728.499 135.892 732.951 147.552L761.571 212H787.435V63.5999H761.783Z" fill="#FF0044"/>
<path d="M390.824 64.0001L366.868 122.088C363.688 129.932 358.388 143.5 356.48 149.648H355.632C353.724 143.5 348.636 129.932 345.456 122.088L321.288 64.0001H295V212.4H320.44V165.972C319.804 148.588 319.168 131.628 318.32 114.88L319.38 114.456C323.832 126.752 328.496 140.108 333.16 153.464L343.124 179.752H368.988L378.952 153.464C383.616 140.108 388.492 126.752 392.732 114.456L393.792 114.88C392.944 131.628 392.308 148.588 391.672 165.972V212.4H417.324V64.0001H390.824Z" fill="white"/>
<path d="M633.942 212.002H661.078L624.614 63.6016H596.63L560.166 212.002H587.302L593.238 185.078H628.006L633.942 212.002ZM598.538 160.274L604.474 132.714C606.594 122.538 608.926 106.214 610.198 96.2496H610.834C612.318 106.214 614.65 122.538 616.77 132.714L622.706 160.274H598.538Z" fill="white"/>
<path d="M853.316 212.001H879.392V165.784L914.796 63.6005H887.66L873.668 108.121C871.76 114.057 868.58 124.868 866.672 132.076H866.036C864.128 124.868 860.948 114.056 859.04 108.544L844.836 63.6005H817.7L853.316 165.784V212.001Z" fill="white"/>
<path d="M76.6868 213.545C105.307 213.545 122.055 197.009 123.115 166.905H97.0388C95.9788 181.745 89.6188 188.317 76.6868 188.317C65.6628 188.317 59.0908 181.321 59.0908 166.481V107.121C59.0908 91.8571 65.6628 84.8611 76.4748 84.8611C89.1948 84.8611 95.5548 91.4331 96.4028 106.697H122.479C121.207 76.3811 105.095 59.6331 76.6868 59.6331C48.9148 59.6331 32.1668 76.3811 32.1668 107.121V166.481C32.1668 197.009 49.1268 213.545 76.6868 213.545Z" fill="white"/>
<path fill-rule="evenodd" clip-rule="evenodd" d="M205.636 61.0559C176.168 61.0559 158.784 79.9239 158.784 111.3V137.8V164.3C158.784 195.676 176.168 214.544 205.636 214.544L205.727 214.544C234.928 214.505 252.276 195.643 252.276 164.3V137.8V111.3C252.276 79.9657 234.938 61.1062 205.753 61.056L205.636 61.0559ZM185.708 164.3C185.708 180.412 192.492 189.316 205.636 189.316L205.727 189.316C218.81 189.275 225.352 180.375 225.352 164.3V137.8V111.3C225.352 95.2464 218.828 86.3487 205.779 86.2843C205.731 86.284 205.684 86.2839 205.636 86.2839C192.492 86.2839 185.708 95.1879 185.708 111.3V137.8V164.3Z" fill="white"/>
<path d="M460.081 212H486.157V162.18H500.997H501.209C531.101 162.18 548.697 144.16 548.697 112.996C548.697 81.8319 531.101 63.5999 501.209 63.5999H500.997H478.157V88.4039H500.997C514.989 88.4039 524.985 96.6719 524.985 112.996C524.985 129.32 514.989 137.588 500.997 137.588H486.157H460.081V212Z" fill="#FF0044"/>
</svg>
