<svg width="1208" height="252" viewBox="0 0 1208 252" fill="none" xmlns="http://www.w3.org/2000/svg">
<path d="M339.721 212.368H368.341L338.449 155.976C353.501 148.768 361.769 133.504 361.769 111.88C361.769 81.564 345.021 63.968 315.977 63.968H275.273V212.368H301.349V160.64H313.221L339.721 212.368ZM301.349 88.772H315.765C328.273 88.772 335.057 96.828 335.057 112.092C335.057 127.568 328.273 135.836 315.765 135.836H301.349V88.772Z" fill="white"/>
<path d="M502.676 214.912C531.296 214.912 548.044 198.376 549.104 168.272H523.028C521.968 183.112 515.608 189.684 502.676 189.684C491.652 189.684 485.08 182.688 485.08 167.848V108.488C485.08 93.224 491.652 86.228 502.464 86.228C515.184 86.228 521.544 92.8 522.392 108.064H548.468C547.196 77.748 531.084 61 502.676 61C474.904 61 458.156 77.748 458.156 108.488V167.848C458.156 198.376 475.116 214.912 502.676 214.912Z" fill="white"/>
<path d="M611.018 187.564V63.968H584.942V212.368H657.446V187.564H611.018Z" fill="white"/>
<path d="M689.684 63.968V212.368H715.76V63.968H689.684Z" fill="white"/>
<path d="M941.699 63.968V109.124C941.699 122.692 943.183 146.648 945.303 163.396L944.667 164.032C941.063 154.916 936.611 143.256 932.795 133.716L901.843 63.968H875.979V212.368H901.631V169.756C901.631 154.28 900.359 129.052 898.451 112.304L899.087 111.668C903.115 122.692 908.415 136.26 912.867 147.92L941.487 212.368H967.351V63.968H941.699Z" fill="white"/>
<path d="M1088.29 63.968H1001.8V88.772H1031.69V212.368H1058.4V88.772H1088.29V63.968Z" fill="white"/>
<path d="M786.548 88.56H831.068V63.968H760.472V88.56H786.548Z" fill="#FF0044"/>
<path d="M786.548 148.98H831.068V125.236H786.548H760.472V148.98H786.548Z" fill="#FF0044"/>
<path d="M760.472 212.368H831.068V187.776H786.548H760.472V212.368Z" fill="#FF0044"/>
<path d="M1158.55 189.896C1147.32 189.896 1140.32 183.748 1140.11 170.392H1113.4C1113.61 199.012 1130.99 215.336 1158.34 215.336L1158.55 189.896Z" fill="white"/>
<path d="M1203.29 173.572C1203.29 126.932 1142.87 126.084 1142.87 100.22C1142.87 91.74 1148.59 86.228 1158.34 86.228C1168.31 86.228 1174.24 91.952 1174.45 103.824H1201.17C1200.95 77.324 1184.84 61 1158.34 61C1132.05 61 1116.37 77.536 1116.37 99.584C1116.37 144.316 1176.15 146.436 1176.15 173.36L1203.29 173.572Z" fill="white"/>
<path d="M233.067 165.516V63.968H205.931V181H168.619V63.968H141.695V165.516C141.695 196.68 159.079 214.7 187.275 214.7C187.517 214.7 187.759 214.699 188 214.696C215.978 214.392 233.067 196.414 233.067 165.516Z" fill="#FF0044"/>
<path fill-rule="evenodd" clip-rule="evenodd" d="M49.6362 214.544C78.8922 214.544 96.2762 195.676 96.2762 164.3V137.8V111.3C96.2762 79.9237 78.8922 61.0557 49.6362 61.0557C20.1682 61.0557 2.78418 79.9237 2.78418 111.3V137.8V164.3C2.78418 195.676 20.1682 214.544 49.6362 214.544ZM29.7082 164.3C29.7082 180.412 36.4922 189.316 49.6362 189.316C62.7802 189.316 69.3522 180.412 69.3522 164.3V137.8V111.3C69.3522 95.1877 62.7802 86.2837 49.6362 86.2837C36.4922 86.2837 29.7082 95.1877 29.7082 111.3V137.8V164.3Z" fill="white"/>
</svg>
