<svg width="1016" height="252" viewBox="0 0 1016 252" fill="none" xmlns="http://www.w3.org/2000/svg">
<path d="M332.352 212H360.972L331.08 155.608C346.132 148.4 354.4 133.136 354.4 111.512C354.4 81.1958 337.652 63.5998 308.608 63.5998H267.904V88.4038V212H293.98V160.272H305.852L332.352 212ZM293.98 88.4038H308.396C320.904 88.4038 327.688 96.4598 327.688 111.724C327.688 127.2 320.904 135.468 308.396 135.468H293.98V88.4038Z" fill="white"/>
<path d="M470.072 63.5998H383.576V88.4038H413.468V212H440.18V88.4038H470.072V63.5998Z" fill="white"/>
<path d="M502.851 63.5998V212H528.927V63.5998H502.851Z" fill="#FF0044"/>
<path d="M613.919 214.544C642.539 214.544 659.287 198.008 660.347 167.904H634.271C633.211 182.744 626.851 189.316 613.919 189.316C602.895 189.316 596.323 182.32 596.323 167.48V108.12C596.323 92.8558 602.895 85.8598 613.707 85.8598C626.427 85.8598 632.787 92.4318 633.635 107.696H659.711C658.439 77.3798 642.327 60.6318 613.919 60.6318C586.147 60.6318 569.399 77.3798 569.399 108.12V167.48C569.399 198.008 586.359 214.544 613.919 214.544Z" fill="white"/>
<path d="M838.182 187.196V63.5998H812.106V212H884.61V187.196H838.182Z" fill="white"/>
<path d="M948.944 214.968C977.564 214.968 993.888 196.524 993.888 173.204C993.888 126.564 933.468 125.716 933.468 99.8518L906.968 99.2158C906.968 143.948 966.752 146.068 966.752 172.992C966.752 182.532 961.028 189.528 949.156 189.528C937.92 189.528 930.924 183.38 930.712 170.024H904C904.212 198.644 921.596 214.968 948.944 214.968Z" fill="#FF0044"/>
<path d="M948.944 85.8598C958.908 85.8598 964.844 91.5838 965.056 103.456H991.768C991.556 76.9558 975.444 60.6318 948.944 60.6318V85.8598Z" fill="#FF0044"/>
<path d="M181.332 187.41V148.614H225.852V124.87H181.332V88.1936H229.88V63.6016H155.256V212.002H232V187.41H181.332Z" fill="white"/>
<path d="M750.176 212H777.312L740.848 63.5998H712.864L676.4 212H703.536L709.472 185.076H744.24L750.176 212ZM714.772 160.272L720.708 132.712C722.828 122.536 725.16 106.212 726.432 96.2478H727.068C728.552 106.212 730.884 122.536 733.004 132.712L738.94 160.272H714.772Z" fill="white"/>
<path d="M28.5 64H1L37 212.5H64.5L28.5 64Z" fill="#FF0044"/>
<path d="M102 64H129.5L91.5 212.5H64L102 64Z" fill="#FF0044"/>
</svg>
