<svg width="720" height="252" viewBox="0 0 720 252" fill="none" xmlns="http://www.w3.org/2000/svg">
<path d="M135.892 63.6001L122.536 138.86C120.628 149.672 117.448 168.54 116.176 179.352H115.328C113.844 168.54 110.664 150.096 108.756 138.436L95.612 65.7201H68.264L55.12 138.436C53.212 150.096 50.032 168.54 48.548 179.352H47.7C46.428 168.54 43.248 149.672 41.34 138.86L27.984 63.6001H1.06L34.344 212H62.116L74.412 154.972C77.804 139.92 80.56 118.932 81.62 106.848H82.468C83.316 118.932 86.072 139.92 89.464 154.972L101.76 212H129.532L162.816 63.6001H135.892Z" fill="white"/>
<path d="M432.122 212H459.258L422.794 63.6001H394.81L358.346 212H385.482L391.418 185.076H426.186L432.122 212ZM396.718 160.272L402.654 132.712C404.774 122.536 407.106 106.212 408.378 96.2481H409.014C410.498 106.212 412.83 122.536 414.95 132.712L420.886 160.272H396.718Z" fill="white"/>
<path d="M555.581 212H584.201L554.309 155.608C569.361 148.4 577.629 133.136 577.629 111.512C577.629 81.1961 560.881 63.6001 531.837 63.6001H491.133V212H517.209V160.272H529.081L555.581 212ZM517.209 88.4041H531.625C544.133 88.4041 550.917 96.4601 550.917 111.724C550.917 127.2 544.133 135.468 531.625 135.468H517.209V88.4041Z" fill="white"/>
<path d="M643.481 187.408V148.612H688.001V124.868H643.481V88.1921H692.029V63.6001H617.405V212H694.149V187.408H643.481Z" fill="white"/>
<path d="M220.997 88.1921H265.517V63.6001H194.921V88.1921H220.997Z" fill="#FF0044"/>
<path d="M220.997 148.612H265.517V124.868H220.997H194.921V148.612H220.997Z" fill="#FF0044"/>
<path d="M194.921 212H265.517V187.408H220.997H194.921V212Z" fill="#FF0044"/>
<path d="M439.62 14.0005H378V38.0004H439.62V14.0005Z" fill="#FF0044"/>
</svg>
