<svg width="1212" height="252" viewBox="0 0 1212 252" fill="none" xmlns="http://www.w3.org/2000/svg">
<path d="M256.825 63.5998V124.656H220.997V63.5998H194.921V212H220.997V149.46H256.825V212H283.113V63.5998H256.825Z" fill="white"/>
<path d="M515.495 63.5998H428.999V88.4038H458.891V212H485.603V88.4038H515.495V63.5998Z" fill="white"/>
<path d="M732.68 63.5998L719.324 138.86C717.416 149.672 714.236 168.54 712.964 179.352H712.116C710.632 168.54 707.452 150.096 705.544 138.436L692.4 65.7198H665.052L651.908 138.436C650 150.096 646.82 168.54 645.336 179.352H644.488C643.216 168.54 640.036 149.672 638.128 138.86L624.772 63.5998H597.848L631.132 212H658.904L671.2 154.972C674.592 139.92 677.348 118.932 678.408 106.848H679.256C680.104 118.932 682.86 139.92 686.252 154.972L698.548 212H726.32L759.604 63.5998H732.68Z" fill="white"/>
<path d="M968.067 212H1007.29C1036.33 212 1053.5 193.98 1053.5 163.452V111.512C1053.5 81.1958 1036.33 63.5998 1006.86 63.5998H968.067V212ZM994.143 187.196V88.4038H1007.29C1020.22 88.4038 1027.21 96.2478 1027.21 111.512V163.24C1027.21 178.928 1020.22 187.196 1007.29 187.196H994.143Z" fill="white"/>
<path d="M115.328 179.352C113.844 168.54 110.664 150.096 108.756 138.436L95.612 65.7198H68.264L55.12 138.436C53.212 150.096 50.032 168.54 48.548 179.352H47.7C46.428 168.54 43.248 149.672 41.34 138.86L27.984 63.5998H1.06L34.344 212H62.116L74.412 154.972C77.804 139.92 80.56 118.932 81.62 106.848H82.468C83.316 118.932 86.072 139.92 89.464 154.972L99.76 212H121.5L115.328 179.352Z" fill="#FF0044"/>
<path d="M135.892 63.5998L122.536 138.86C121.76 143.259 120.773 148.991 119.79 154.972H142.323L162.816 63.5998H135.892Z" fill="#FF0044"/>
<path d="M387.276 212.501H414.412L377.948 64.1007H349.964L313.5 212.501H340.636L346.572 185.577H381.34L387.276 212.501ZM351.872 160.773L357.808 133.213C359.928 123.037 362.26 106.713 363.532 96.7487H364.168C365.652 106.713 367.984 123.037 370.104 133.213L376.04 160.773H351.872Z" fill="white"/>
<path d="M815.256 212H865V187.408H841.332H815.256V212Z" fill="#FF0044"/>
<path d="M813.332 148.612H864V124.868H813.332V106.53V88.1916H864V63.5996H787.256V88.1916V106.53V124.868V148.612V166.5H813.332V148.612Z" fill="#FF0044"/>
<path d="M1170.38 167.301C1170.38 198.677 1153 217.545 1123.74 217.545V192.317C1136.89 192.317 1143.46 183.413 1143.46 167.301V159.5H1170.38V167.301Z" fill="#FF0044"/>
<path d="M1123.74 64.0566C1153 64.0566 1170.38 82.9246 1170.38 114.301V119.5H1143.46V114.301C1143.46 98.1886 1136.89 89.2846 1123.74 89.2846C1110.6 89.2846 1103.82 98.1886 1103.82 114.301V167.301H1076.89V114.301C1076.89 82.9246 1094.28 64.0566 1123.74 64.0566Z" fill="#FF0044"/>
</svg>
