<svg width="1152" height="252" viewBox="0 0 1152 252" fill="none" xmlns="http://www.w3.org/2000/svg">
<path d="M135.892 63.6001L122.536 138.86C120.628 149.672 117.448 168.54 116.176 179.352H115.328C113.844 168.54 110.664 150.096 108.756 138.436L95.612 65.7201H68.264L55.12 138.436C53.212 150.096 50.032 168.54 48.548 179.352H47.7C46.428 168.54 43.248 149.672 41.34 138.86L27.984 63.6001H1.06L34.344 212H62.116L74.412 154.972C77.804 139.92 80.56 118.932 81.62 106.848H82.468C83.316 118.932 86.072 139.92 89.464 154.972L101.76 212H129.532L162.816 63.6001H135.892Z" fill="white"/>
<path d="M401.368 212H429.988L400.096 155.608C415.148 148.4 423.416 133.136 423.416 111.512C423.416 81.1961 406.668 63.6001 377.624 63.6001H336.92V88.4041V212H362.996V160.272H374.868L401.368 212ZM362.996 88.4041H377.412C389.92 88.4041 396.704 96.4601 396.704 111.724C396.704 127.2 389.92 135.468 377.412 135.468H362.996V88.4041Z" fill="white"/>
<path d="M489.268 187.196V63.6001H463.192V212H535.696V187.196H489.268Z" fill="white"/>
<path d="M567.934 212H607.154C636.198 212 653.37 193.98 653.37 163.452V111.512C653.37 81.1961 636.198 63.6001 606.73 63.6001H567.934V88.4041V187.196V212ZM594.01 187.196V88.4041H607.154C620.086 88.4041 627.082 96.2481 627.082 111.512V163.24C627.082 178.928 620.086 187.196 607.154 187.196H594.01Z" fill="white"/>
<path d="M815.899 63.6001L802.543 138.86C800.635 149.672 797.455 168.54 796.183 179.352H795.335C793.851 168.54 790.671 150.096 788.763 138.436L775.619 65.7201H748.271L735.127 138.436C733.219 150.096 730.039 168.54 728.555 179.352H727.707C726.435 168.54 723.255 149.672 721.347 138.86L707.991 63.6001H681.067L714.351 212H742.123L754.419 154.972C757.811 139.92 760.567 118.932 761.627 106.848H762.475C763.323 118.932 766.079 139.92 769.471 154.972L781.767 212H809.539L842.823 63.6001H815.899Z" fill="white"/>
<path d="M945.716 212H984.936C1013.98 212 1031.15 193.98 1031.15 163.452V111.512C1031.15 81.1961 1013.98 63.6001 984.512 63.6001H945.716V212ZM971.792 187.196V88.4041H984.936C997.868 88.4041 1004.86 96.2481 1004.86 111.512V163.24C1004.86 178.928 997.868 187.196 984.936 187.196H971.792Z" fill="white"/>
<path d="M1087.33 187.41V148.614H1131.85V124.87H1087.33V88.194H1135.88V63.602H1061.26V212.002H1138V187.41H1087.33Z" fill="white"/>
<path d="M874.928 88.0005V212H894.485L901.004 204.5V63.6001H893L874.928 88.0005Z" fill="#FF0044"/>
<circle cx="243" cy="139" r="65" stroke="#FF0044" stroke-width="22"/>
</svg>
