<svg width="138" height="48" viewBox="0 0 138 48" fill="none" xmlns="http://www.w3.org/2000/svg">
<path d="M18 11C19.6569 11 21 12.3431 21 14V25.06L23.6728 29.0763C24.2929 30.0082 24.0056 31.2444 23.0312 31.8374C22.4199 32.2095 21.6515 32.252 21.0001 31.9515L21 34C21 35.6569 19.6569 37 18 37H8C6.34315 37 5 35.6569 5 34V31.482L4.91501 31.5179C3.85344 31.953 2.62405 31.4827 2.16909 30.4674C1.89071 29.8462 1.95922 29.1325 2.35123 28.5702L5 24.77V14C5 12.3431 6.34315 11 8 11H18ZM13 34C12.4477 34 12 34.4477 12 35C12 35.5523 12.4477 36 13 36C13.5523 36 14 35.5523 14 35C14 34.4477 13.5523 34 13 34ZM48.6437 19.1889C49.5577 19.1889 50.3995 19.3454 51.1692 19.6585C51.9389 19.9715 52.6083 20.402 53.1776 20.9498C53.7468 21.4977 54.1918 22.1551 54.5125 22.9221C54.8332 23.6891 54.9936 24.5187 54.9936 25.4109C54.9936 26.3188 54.8372 27.1523 54.5245 27.9114C54.2119 28.6706 53.7789 29.3241 53.2257 29.8719C52.6725 30.4198 52.0231 30.8463 51.2774 31.1515C50.5318 31.4568 49.718 31.6094 48.8361 31.6094C47.9221 31.6094 47.1123 31.4372 46.4068 31.0928C45.7013 30.7485 45.1481 30.3259 44.7472 29.825V36H42.0052V25.9509C42.0052 24.8552 42.1655 23.8887 42.4862 23.0512C42.8069 22.2138 43.2559 21.5094 43.8332 20.9381C44.4104 20.3668 45.108 19.9324 45.9257 19.635C46.7435 19.3376 47.6495 19.1889 48.6437 19.1889ZM62.6831 19.1889C63.5971 19.1889 64.439 19.3454 65.2086 19.6585C65.9783 19.9715 66.6478 20.402 67.217 20.9498C67.7863 21.4977 68.2313 22.1551 68.552 22.9221C68.8727 23.6891 69.033 24.5187 69.033 25.4109C69.033 26.3188 68.8767 27.1523 68.564 27.9114C68.2513 28.6706 67.8184 29.3241 67.2651 29.8719C66.7119 30.4198 66.0625 30.8463 65.3169 31.1515C64.5713 31.4568 63.7575 31.6094 62.8755 31.6094C61.9615 31.6094 61.1518 31.4372 60.4462 31.0928C59.7407 30.7485 59.1875 30.3259 58.7866 29.825V36H56.0446V25.9509C56.0446 24.8552 56.205 23.8887 56.5257 23.0512C56.8464 22.2138 57.2953 21.5094 57.8726 20.9381C58.4499 20.3668 59.1474 19.9324 59.9652 19.635C60.783 19.3376 61.6889 19.1889 62.6831 19.1889ZM13.0876 28.1681L7 30.663V32C7 32.5523 7.44772 33 8 33H18C18.5523 33 19 32.5523 19 32V30.995L13.0876 28.1681ZM34.0991 19.1889C35.0452 19.1889 35.9071 19.2789 36.6848 19.4589C37.4625 19.6389 38.132 19.9246 38.6932 20.3159C39.2544 20.7072 39.6914 21.2238 40.0041 21.8655C40.3167 22.5073 40.4731 23.2821 40.4731 24.19V31.2572L40.1634 31.3071L39.3506 31.402L38.5008 31.4803C38.0357 31.5194 37.5146 31.5546 36.9373 31.5859C36.3601 31.6172 35.7588 31.6329 35.1334 31.6329C33.8827 31.6329 32.8604 31.5272 32.0667 31.3159C31.273 31.1046 30.6476 30.8228 30.1906 30.4707C29.7336 30.1185 29.4209 29.7115 29.2526 29.2497C29.0842 28.788 29 28.3145 29 27.8292C29 27.1875 29.1002 26.624 29.3007 26.1387C29.5011 25.6535 29.8298 25.2465 30.2868 24.9178C30.7438 24.5891 31.3411 24.3426 32.0787 24.1782C32.8163 24.0139 33.7143 23.9317 34.7726 23.9317C35.1788 23.9317 35.5708 23.9404 35.9485 23.9578L37.22 24.0462C37.4244 24.0638 37.5948 24.0804 37.7311 24.0961C37.7311 23.5482 37.6389 23.0943 37.4545 22.7343C37.2701 22.3742 37.0175 22.0925 36.6968 21.889C36.3761 21.6855 35.9913 21.5446 35.5423 21.4664C35.0933 21.3881 34.5962 21.349 34.051 21.349C33.137 21.349 32.4034 21.4507 31.8502 21.6542C31.297 21.8577 30.9322 22.0299 30.7558 22.1708C30.6596 22.0925 30.5273 21.9438 30.359 21.7247C30.1906 21.5055 30.1064 21.2394 30.1064 20.9264C30.1064 20.7072 30.1665 20.492 30.2868 20.2807C30.4071 20.0694 30.6195 19.8815 30.9242 19.7172C31.2289 19.5528 31.6378 19.4237 32.1509 19.3298C32.664 19.2359 33.3134 19.1889 34.0991 19.1889ZM90.0026 19.5176C90.3073 19.5176 90.5799 19.5528 90.8204 19.6233L91.1946 19.7381C91.2391 19.7528 91.2747 19.7654 91.3015 19.7759V26.5379C91.3015 27.3362 91.1612 28.0523 90.8806 28.6862C90.5999 29.3202 90.1991 29.8563 89.6779 30.2946C89.1568 30.7328 88.5354 31.0655 87.8139 31.2924C87.0923 31.5194 86.2985 31.6329 85.4326 31.6329C84.5667 31.6329 83.773 31.5194 83.0514 31.2924C82.3299 31.0655 81.7125 30.7328 81.1994 30.2946C80.6863 29.8563 80.2854 29.3202 79.9968 28.6862C79.7081 28.0523 79.5638 27.3362 79.5638 26.5379V20.762C79.5638 20.3237 79.6921 20.0068 79.9487 19.8111C80.2052 19.6154 80.566 19.5176 81.031 19.5176C81.3197 19.5176 81.5842 19.5528 81.8248 19.6233L82.1989 19.7381C82.2435 19.7528 82.2791 19.7654 82.3058 19.7759V25.9509C82.3058 27.0153 82.5624 27.8253 83.0755 28.381C83.5886 28.9367 84.3743 29.2145 85.4326 29.2145C86.491 29.2145 87.2767 28.9367 87.7898 28.381C88.3029 27.8253 88.5595 27.0153 88.5595 25.9509V20.762C88.5595 20.3237 88.6878 20.0068 88.9443 19.8111C89.2009 19.6154 89.5536 19.5176 90.0026 19.5176ZM94.6375 16.1836C94.9262 16.1836 95.1947 16.2188 95.4433 16.2892L95.8604 16.4147C95.891 16.425 95.9163 16.434 95.9364 16.4418V19.5176H99.424C99.9531 19.5176 100.326 19.6233 100.542 19.8346C100.759 20.0459 100.867 20.355 100.867 20.762C100.867 21.0281 100.827 21.2746 100.747 21.5016L100.608 21.8668C100.588 21.9129 100.57 21.9516 100.554 21.9829H95.9364V27.2188C95.9364 27.6258 95.9925 27.9584 96.1047 28.2166C96.217 28.4749 96.3733 28.6823 96.5738 28.8388C96.7742 28.9954 97.0067 29.1049 97.2713 29.1676C97.5359 29.2302 97.8125 29.2615 98.1011 29.2615C98.5661 29.2615 98.999 29.191 99.3999 29.0502C99.8008 28.9093 100.089 28.7762 100.266 28.651L101.372 30.4354L101.046 30.6546C100.98 30.6963 100.909 30.7407 100.831 30.7876C100.599 30.9285 100.314 31.0615 99.9772 31.1868C99.6404 31.312 99.2636 31.4176 98.8467 31.5037C98.4298 31.5898 97.9728 31.6329 97.4757 31.6329C96.0646 31.6329 94.9983 31.2768 94.2767 30.5646C93.5552 29.8524 93.1944 28.9171 93.1944 27.7588V17.428C93.1944 16.9897 93.3226 16.6727 93.5792 16.4771C93.8358 16.2814 94.1885 16.1836 94.6375 16.1836ZM112.237 19.5176C112.541 19.5176 112.814 19.5528 113.055 19.6233L113.429 19.7381C113.473 19.7528 113.509 19.7654 113.536 19.7759V26.5379C113.536 27.3362 113.395 28.0523 113.115 28.6862C112.834 29.3202 112.433 29.8563 111.912 30.2946C111.391 30.7328 110.77 31.0655 110.048 31.2924C109.326 31.5194 108.533 31.6329 107.667 31.6329C106.801 31.6329 106.007 31.5194 105.286 31.2924C104.564 31.0655 103.947 30.7328 103.434 30.2946C102.92 29.8563 102.52 29.3202 102.231 28.6862C101.942 28.0523 101.798 27.3362 101.798 26.5379V20.762C101.798 20.3237 101.926 20.0068 102.183 19.8111C102.439 19.6154 102.8 19.5176 103.265 19.5176C103.554 19.5176 103.818 19.5528 104.059 19.6233L104.433 19.7381C104.478 19.7528 104.513 19.7654 104.54 19.7759V25.9509C104.54 27.0153 104.796 27.8253 105.31 28.381C105.823 28.9367 106.608 29.2145 107.667 29.2145C108.725 29.2145 109.511 28.9367 110.024 28.381C110.537 27.8253 110.794 27.0153 110.794 25.9509V20.762C110.794 20.3237 110.922 20.0068 111.178 19.8111C111.435 19.6154 111.788 19.5176 112.237 19.5176ZM128.626 19.1889C129.572 19.1889 130.434 19.2789 131.212 19.4589C131.989 19.6389 132.659 19.9246 133.22 20.3159C133.781 20.7072 134.218 21.2238 134.531 21.8655C134.844 22.5073 135 23.2821 135 24.19V31.2572L134.69 31.3071L133.878 31.402L133.028 31.4803C132.563 31.5194 132.042 31.5546 131.464 31.5859C130.887 31.6172 130.286 31.6329 129.66 31.6329C128.41 31.6329 127.387 31.5272 126.594 31.3159C125.8 31.1046 125.175 30.8228 124.718 30.4707C124.261 30.1185 123.948 29.7115 123.779 29.2497C123.611 28.788 123.527 28.3145 123.527 27.8292C123.527 27.1875 123.627 26.624 123.828 26.1387C124.028 25.6535 124.357 25.2465 124.814 24.9178C125.271 24.5891 125.868 24.3426 126.606 24.1782C127.343 24.0139 128.241 23.9317 129.3 23.9317C129.706 23.9317 130.098 23.9404 130.475 23.9578L131.747 24.0462C131.951 24.0638 132.122 24.0804 132.258 24.0961C132.258 23.5482 132.166 23.0943 131.981 22.7343C131.797 22.3742 131.544 22.0925 131.224 21.889C130.903 21.6855 130.518 21.5446 130.069 21.4664C129.62 21.3881 129.123 21.349 128.578 21.349C127.664 21.349 126.93 21.4507 126.377 21.6542C125.824 21.8577 125.459 22.0299 125.283 22.1708C125.187 22.0925 125.054 21.9438 124.886 21.7247C124.718 21.5055 124.633 21.2394 124.633 20.9264C124.633 20.7072 124.693 20.492 124.814 20.2807C124.934 20.0694 125.146 19.8815 125.451 19.7172C125.756 19.5528 126.165 19.4237 126.678 19.3298C127.191 19.2359 127.84 19.1889 128.626 19.1889ZM75.3756 14C76.6905 14 77.6205 14.1526 78.1657 14.4578C78.7109 14.7631 78.9835 15.1505 78.9835 15.6201C78.9835 15.8862 78.9073 16.121 78.755 16.3244C78.6027 16.5279 78.4383 16.6845 78.2619 16.794C78.0054 16.5905 77.6566 16.4262 77.2156 16.301C76.7747 16.1757 76.3057 16.1131 75.8086 16.1131C74.8625 16.1131 74.189 16.3479 73.7882 16.8175C73.3873 17.2871 73.1868 17.9523 73.1868 18.8132V19.5176H76.7947C77.3239 19.5176 77.6967 19.6233 77.9132 19.8346C78.1296 20.0459 78.2379 20.355 78.2379 20.762C78.2379 21.0281 78.1978 21.2746 78.1176 21.5016L77.9786 21.8668C77.959 21.9129 77.9412 21.9516 77.9252 21.9829H73.1868V31.3042H70.4448V18.7898C70.4448 17.9445 70.5651 17.2167 70.8056 16.6062C71.0462 15.9957 71.3869 15.4988 71.8279 15.1153C72.2688 14.7318 72.79 14.45 73.3913 14.27C73.9926 14.09 74.654 14 75.3756 14ZM120.48 19.1889C121.49 19.1889 122.312 19.3259 122.945 19.5998C123.578 19.8737 123.895 20.2924 123.895 20.8559C123.895 21.122 123.819 21.3803 123.666 21.6307C123.514 21.8812 123.39 22.0377 123.294 22.1003C123.021 21.9751 122.684 21.8577 122.283 21.7481C121.883 21.6386 121.426 21.5838 120.912 21.5838C119.036 21.5838 118.098 22.5542 118.098 24.4952V31.3042H115.356V23.7204C115.356 22.2803 115.809 21.1651 116.715 20.3746C117.621 19.5841 118.876 19.1889 120.48 19.1889ZM34.8688 25.81C33.7784 25.81 32.9847 25.9705 32.4876 26.2914C31.9905 26.6122 31.742 27.117 31.742 27.8058C31.742 28.0875 31.7941 28.3458 31.8983 28.5806C32.0026 28.8154 32.183 29.0149 32.4395 29.1793C32.6961 29.3437 33.0448 29.4689 33.4858 29.555C33.9268 29.6411 34.476 29.6841 35.1334 29.6841L35.9454 29.6709C36.1917 29.6622 36.4136 29.649 36.6112 29.6315L37.3395 29.5418C37.53 29.5146 37.6685 29.4916 37.7551 29.4728V26.0448L37.1576 25.948L36.8532 25.9039C36.4122 25.8413 35.7508 25.81 34.8688 25.81ZM129.396 25.81C128.305 25.81 127.512 25.9705 127.015 26.2914C126.517 26.6122 126.269 27.117 126.269 27.8058C126.269 28.0875 126.321 28.3458 126.425 28.5806C126.529 28.8154 126.71 29.0149 126.966 29.1793C127.223 29.3437 127.572 29.4689 128.013 29.555C128.454 29.6411 129.003 29.6841 129.66 29.6841C130.306 29.6841 130.835 29.6631 131.247 29.6212L131.416 29.6019L131.659 29.5705L132.282 29.4728V26.0448C132.145 26.018 131.904 25.9797 131.56 25.9298L131.38 25.9039L131.089 25.8701C130.666 25.8301 130.101 25.81 129.396 25.81ZM48.4513 21.6073C47.9061 21.6073 47.405 21.7012 46.948 21.889C46.491 22.0768 46.0981 22.3351 45.7694 22.6638C45.4407 22.9925 45.1841 23.3878 44.9997 23.8495C44.8153 24.3113 44.7231 24.8239 44.7231 25.3874C44.7231 25.9353 44.8153 26.444 44.9997 26.9136C45.1841 27.3831 45.4367 27.7901 45.7574 28.1345C46.0781 28.4788 46.4669 28.7488 46.9239 28.9445C47.3809 29.1402 47.89 29.238 48.4513 29.238C48.9965 29.238 49.4976 29.1402 49.9546 28.9445C50.4116 28.7488 50.8044 28.4788 51.1331 28.1345C51.4618 27.7901 51.7144 27.3831 51.8908 26.9136C52.0672 26.444 52.1554 25.9353 52.1554 25.3874C52.1554 24.8552 52.0672 24.3582 51.8908 23.8965C51.7144 23.4347 51.4618 23.0356 51.1331 22.699C50.8044 22.3625 50.4116 22.0964 49.9546 21.9007C49.4976 21.7051 48.9965 21.6073 48.4513 21.6073ZM62.4907 21.6073C61.9455 21.6073 61.4444 21.7012 60.9874 21.889C60.5304 22.0768 60.1376 22.3351 59.8088 22.6638C59.4801 22.9925 59.2236 23.3878 59.0392 23.8495C58.8548 24.3113 58.7626 24.8239 58.7626 25.3874C58.7626 25.9353 58.8548 26.444 59.0392 26.9136C59.2236 27.3831 59.4761 27.7901 59.7968 28.1345C60.1175 28.4788 60.5064 28.7488 60.9634 28.9445C61.4204 29.1402 61.9295 29.238 62.4907 29.238C63.0359 29.238 63.537 29.1402 63.994 28.9445C64.451 28.7488 64.8438 28.4788 65.1726 28.1345C65.5013 27.7901 65.7538 27.3831 65.9302 26.9136C66.1066 26.444 66.1948 25.9353 66.1948 25.3874C66.1948 24.8552 66.1066 24.3582 65.9302 23.8965C65.7538 23.4347 65.5013 23.0356 65.1726 22.699C64.8438 22.3625 64.451 22.0964 63.994 21.9007C63.537 21.7051 63.0359 21.6073 62.4907 21.6073ZM18 13H8C7.44772 13 7 13.4477 7 14V21.901L12.1972 14.4454C12.5176 13.9859 13.1668 13.8617 13.6473 14.1681C13.7683 14.2453 13.8713 14.3458 13.9494 14.4632L19 22.054V14C19 13.4477 18.5523 13 18 13Z" fill="white"/>
</svg>
