<svg width="138" height="48" viewBox="0 0 138 48" fill="none" xmlns="http://www.w3.org/2000/svg">
<path d="M15.4631 29.6795C15.9801 29.9391 16.4971 30.1663 16.9817 30.3935C17.2402 30.5233 17.4987 30.6531 17.7572 30.7505C17.1433 34.8722 16.0124 37.8904 14.6553 38.7667C14.4061 38.9058 14.1806 38.9972 13.9788 39L13.8799 38.9939C12.1768 38.9939 10.7111 35.6854 9.96631 30.7823L9.87521 30.1533L9.91765 30.4335C10.462 33.9976 11.4329 36.395 12.5282 36.522L12.6197 36.5273C12.7813 36.5273 12.9105 36.4949 13.0398 36.43C13.2013 36.3651 13.3306 36.2352 13.4598 36.1054C14.3322 35.1642 15.0431 32.8275 15.4631 29.6795ZM53.2365 26.6612C54.432 26.6612 55.3044 26.8235 55.886 27.1805C56.4676 27.5375 56.7584 28.0892 56.7584 28.8357C56.7584 29.3225 56.6292 29.7444 56.3707 30.1014C56.1122 30.4584 55.7891 30.6856 55.369 30.7829V30.8478C55.9183 30.9776 56.3061 31.2373 56.5322 31.5618C56.7584 31.8864 56.8877 32.3407 56.8877 32.86C56.8877 33.6389 56.5969 34.288 55.9829 34.7423C55.4013 35.1967 54.5936 35.4239 53.5596 35.4239H50.1669L50.1992 26.6612H53.2365ZM64.4485 26.6612C65.8378 26.6612 66.9364 27.0182 67.6796 27.7322C68.455 28.4462 68.8105 29.4847 68.8105 30.8478C68.8105 32.3083 68.4227 33.4442 67.615 34.2231C66.8072 35.002 65.6763 35.4239 64.2546 35.4239H61.4435V26.6612H64.4485ZM77.276 26.6612L78.4715 31.1075C78.73 32.0811 78.8592 32.7951 78.8915 33.1521C78.9239 32.86 78.9885 32.5354 79.0531 32.1135L79.2135 31.3995C79.2362 31.3022 79.2577 31.2156 79.2793 31.1399L80.4425 26.6612H83.092L80.2486 35.4239H77.4699L74.6265 26.6612H77.276ZM49.5853 26.6612V28.5436H46.742V29.9066H49.3592V31.8214H46.742V33.4766H49.5853V35.3914H44.4156V26.6612H49.5853ZM33.7206 26.6288L34.6576 31.0101L34.7947 31.63C34.9396 32.3187 35.0345 32.8852 35.1099 33.3144L35.1878 32.7849C35.2367 32.4604 35.2998 32.0851 35.4007 31.6592C35.53 30.9452 35.6592 30.3935 35.7885 29.9391L36.5639 26.6288H38.7288L39.4719 29.9391C39.5797 30.3718 39.6874 30.8722 39.7951 31.4401L40.0253 32.6896C40.0697 32.9492 40.102 33.1683 40.1182 33.3468L40.1971 32.8425C40.2715 32.3993 40.3816 31.8065 40.5382 31.0425L41.5075 26.6288H43.7693L41.6691 35.3914H38.8903L38.0503 31.5618C38.0179 31.3995 37.9533 31.075 37.8564 30.6206C37.7595 30.1338 37.6948 29.7444 37.6625 29.4198L37.6395 29.5834L37.501 30.3935C37.4363 30.7829 37.3717 31.1399 37.2748 31.4645L36.4024 35.3914H33.6236L31.4588 26.6288H33.7206ZM74.5295 26.6612V28.5436H71.7185V29.9066H74.3357V31.8214H71.7185V33.4766H74.5295V35.3914H69.3598V26.6612H74.5295ZM53.3657 31.7241H52.558V33.574H53.3981C54.1412 33.574 54.4966 33.2494 54.4966 32.6328C54.4966 32.3407 54.3997 32.1135 54.2058 31.9513C54.012 31.789 53.7212 31.7241 53.3657 31.7241ZM64.4485 28.5436H63.7699V33.4442H64.2869C64.9978 33.4442 65.5147 33.2494 65.8702 32.8275C66.2256 32.4056 66.3871 31.789 66.3871 30.9127C66.3871 30.1014 66.2256 29.5172 65.9025 29.1277C65.5794 28.7383 65.0947 28.5436 64.4485 28.5436ZM5.34973 23.2535L5.11622 23.4504C2.58223 25.6084 1.19775 27.5012 1.73088 28.4462C2.40941 29.6146 5.96364 28.9006 10.3903 26.8884C10.4549 26.9317 10.5339 26.9749 10.6081 27.0182L12.1674 27.9594C12.2966 27.9918 12.3936 28.0568 12.4905 28.1217C12.652 28.219 12.7813 28.2839 12.8782 28.4137L12.2363 28.7288C6.27519 31.6019 1.20944 32.569 0.179945 30.7829C-0.641477 29.3232 1.40997 26.4982 5.0959 23.4609L5.34973 23.2535ZM13.8799 8C14.1384 8 14.4292 8.09736 14.6876 8.25963C15.9723 9.10935 17.0746 11.8816 17.7 15.6887L17.7572 16.0487L17.839 16.616C18.0228 17.9569 18.1571 19.4158 18.2419 20.9493C18.2419 21.2522 18.2562 21.5695 18.2658 21.8916L18.2742 22.3773V23.5132C18.2742 23.9242 18.2742 24.3209 18.2646 24.7224L18.2419 25.3306C18.2419 25.5578 18.2096 25.8174 18.2096 26.0446C18.1773 26.1744 18.1773 26.3367 18.1773 26.4665C18.6942 26.7261 19.2435 26.9533 19.7928 27.148L20.4303 27.4041C22.9439 28.3851 25.0113 28.8418 26.1785 28.6375L26.3197 28.6085C26.4651 28.5841 26.5923 28.5415 26.7013 28.4807L26.8043 28.4137C26.9336 28.3488 27.0305 28.2515 27.0951 28.1217C27.709 27.1156 25.9966 24.9411 22.9916 22.5395L23.5031 22.9446C27.3507 26.0445 29.4821 28.9966 28.6461 30.4584C28.4845 30.718 28.2906 30.9127 27.9998 31.0425C26.6212 31.7349 23.5716 31.2676 19.8821 29.8478L19.5343 29.7119C19.0173 29.5172 18.5004 29.29 17.9834 29.0628C17.7249 28.933 17.4664 28.8357 17.2079 28.7058C16.9063 28.576 16.6048 28.4318 16.3032 28.2827L14.6876 27.4726C14.1384 27.1805 13.5891 26.8884 13.0398 26.5639C12.749 26.4016 12.4582 26.2069 12.1674 26.0446L10.9716 25.2771C10.3799 24.897 9.80221 24.5192 9.25938 24.1298C4.76813 20.9817 1.7955 17.7363 1.69857 15.789C1.69857 15.4645 1.76319 15.1724 1.89244 14.9452C2.64987 13.5821 5.78089 13.8291 9.84026 15.2627L10.1318 15.3671L10.1346 15.3495L10.0995 15.3347C10.1676 14.9848 10.2402 14.6496 10.3169 14.3305L10.4153 13.9391L10.4265 13.889C11.2118 10.4007 12.4154 8.12228 13.7697 8.00477L13.8799 8ZM53.2365 28.4462H52.558V30.004H53.2688C53.5919 30.004 53.8827 29.9391 54.0443 29.8093C54.2381 29.6795 54.3351 29.4523 54.3351 29.1927C54.3351 28.7058 53.9797 28.4462 53.2365 28.4462ZM86 23.9534V24.5658H30.3602V23.9534H86ZM19.2112 15.4645C23.1855 14.069 26.1904 13.8742 26.9659 15.2049C27.9675 16.8925 24.9303 20.5923 19.8574 24.1947C19.8574 23.9675 19.8574 23.7403 19.8251 23.5132C19.8251 22.7342 19.8251 21.9553 19.7928 21.2089L20.2738 20.8309C23.1708 18.5094 24.7696 16.3849 24.1871 15.3996C23.7186 14.5839 21.9518 14.6477 19.4704 15.4151L19.2112 15.4969V15.4645ZM75.2727 13.29C76.1451 13.29 76.9529 13.4523 77.696 13.7769L77.3729 14.6856C76.6621 14.3935 75.9512 14.2312 75.2404 14.2312C74.6911 14.2312 74.2711 14.361 73.9803 14.5882C73.6895 14.8154 73.5279 15.1399 73.5279 15.5618C73.5279 15.8539 73.5925 16.1136 73.6895 16.3083C73.7702 16.4706 73.9183 16.6328 74.1337 16.7763L74.271 16.86C74.4972 17.002 74.8471 17.1688 75.299 17.3388L75.4989 17.4117C76.4359 17.7363 77.0498 18.0933 77.4052 18.4827C77.696 18.8397 77.8899 19.3265 77.8899 19.9107C77.8899 20.6896 77.5991 21.3063 77.0498 21.7282C76.5005 22.1501 75.7251 22.3773 74.7557 22.3773C73.7218 22.3773 72.914 22.2474 72.3647 21.9553V20.9817C72.7201 21.144 73.1078 21.2414 73.5279 21.3387C73.9479 21.4361 74.368 21.4685 74.788 21.4685C75.4666 21.4685 75.9835 21.3387 76.339 21.0791C76.6944 20.8194 76.8559 20.4624 76.8559 20.0081C76.8559 19.716 76.7913 19.4564 76.6621 19.2616C76.5328 19.0669 76.339 18.8722 76.0482 18.7099C75.7574 18.5476 75.3373 18.3529 74.7234 18.1582C73.9156 17.8661 73.334 17.5091 72.9786 17.1197C72.6232 16.7302 72.4616 16.1785 72.4616 15.5294C72.4616 14.8479 72.7201 14.2961 73.2371 13.9067C73.7541 13.5172 74.4326 13.29 75.2727 13.29ZM36.6609 13.4199V14.361H32.7835V17.574H36.4024V18.4827H32.7835V22.2799H31.7496V13.4199H36.6609ZM41.3137 13.4523L46.0957 20.8519H46.128L46.0634 19.8134L46.0447 19.4057C46.0379 19.217 46.0345 19.0512 46.0328 18.9082L46.0311 13.4848H47.0004V22.2799H45.8372L41.0229 14.8803H40.9906C41.0552 15.7566 41.0875 16.5355 41.0875 17.2819V22.2799H40.1505V13.4523H41.3137ZM71.7831 13.4199V14.361H67.9058V17.1846H71.5569V18.0933H67.9058V21.3387H71.7831V22.2799H66.8718V13.4199H71.7831ZM84.5783 13.4199V14.361H81.7996V22.2799H80.7979V14.361H77.9868V13.4199H84.5783ZM51.0393 13.4523C52.3964 13.4523 53.4627 13.8418 54.2381 14.5882C55.0136 15.3347 55.369 16.4057 55.369 17.7687C55.369 19.2292 54.9813 20.3326 54.1735 21.1115C53.3981 21.8904 52.2672 22.2799 50.7808 22.2799H48.3575V13.4523H51.0393ZM38.5672 13.4199V22.2474H37.5333V13.4199H38.5672ZM62.4452 13.4199C63.6084 13.4199 64.4485 13.5821 64.9654 13.9391C65.4824 14.2961 65.7409 14.8479 65.7409 15.5943C65.7409 16.1136 65.6117 16.5355 65.3209 16.8925C65.0301 17.217 64.61 17.4442 64.0607 17.5416V17.6065C65.3855 17.8337 66.064 18.5476 66.064 19.716C66.064 20.4949 65.8055 21.1115 65.2562 21.5659C64.7393 22.0203 63.9961 22.215 63.0268 22.215H59.9572V13.4199H62.4452ZM12.6197 10.4341C11.7796 10.4341 11.0249 11.6981 10.4594 13.7737L10.4153 13.9391L10.3638 14.1745C10.302 14.4626 10.243 14.7584 10.1869 15.0616L10.1346 15.3495L10.553 15.521L11.091 15.7306L10.4392 15.4893L10.0995 15.3671H10.0672C7.3155 14.4249 5.25982 14.2425 4.66152 15.0259L4.60657 15.1075C4.50964 15.2373 4.47733 15.3671 4.47733 15.5294C4.47733 15.6917 4.47733 15.8539 4.54195 16.0487C4.92968 17.3468 6.83604 19.359 9.64711 21.4361C10.4226 19.7485 12.1028 18.6126 14.0414 18.6126C14.5907 18.6126 15.1077 18.7099 15.5924 18.8722C15.2369 14.9452 14.4292 11.9594 13.4598 10.856C13.2983 10.6937 13.169 10.5963 13.0398 10.5314C12.8782 10.4665 12.749 10.4341 12.6197 10.4341ZM62.7683 18.0933H60.9912V21.4036H62.8329C63.5438 21.4036 64.093 21.2738 64.4485 20.9817C64.8039 20.7221 64.9978 20.2677 64.9978 19.6835C64.9978 19.1318 64.8039 18.7424 64.4485 18.4827C64.093 18.2231 63.5114 18.0933 62.7683 18.0933ZM50.8778 14.3286H49.3915V21.3712H50.6516C51.8794 21.3712 52.7841 21.0791 53.3981 20.4624C53.9797 19.8783 54.3028 18.9696 54.3028 17.8012C54.3028 16.6328 54.012 15.789 53.4304 15.2049C52.8488 14.6207 52.0087 14.3286 50.8778 14.3286ZM62.5098 14.3286H60.9912V17.217H62.6714C63.3822 17.217 63.8992 17.1197 64.2223 16.86C64.5454 16.6328 64.707 16.2434 64.707 15.7241C64.707 15.2373 64.5454 14.8803 64.19 14.6531C63.8345 14.426 63.2853 14.3286 62.5098 14.3286Z" fill="white"/>
<path d="M129.516 30.3051C129.866 30.3051 130.184 30.3716 130.466 30.5052C130.749 30.639 130.989 30.8306 131.185 31.0792C131.379 31.3263 131.527 31.6264 131.629 31.9788C131.729 32.3285 131.779 32.721 131.779 33.1563C131.779 33.5916 131.729 33.9842 131.629 34.3339C131.527 34.6863 131.379 34.9864 131.185 35.2335C130.989 35.4823 130.749 35.6728 130.466 35.804C130.183 35.9348 129.866 36 129.516 36C129.16 36 128.841 35.9349 128.558 35.804C128.275 35.6728 128.035 35.4823 127.839 35.2335C127.644 34.9864 127.497 34.6863 127.395 34.3339C127.295 33.9842 127.244 33.5916 127.244 33.1563C127.244 32.721 127.295 32.3285 127.395 31.9788C127.497 31.6264 127.644 31.3263 127.839 31.0792C128.034 30.8306 128.274 30.639 128.557 30.5052C128.84 30.3716 129.16 30.3051 129.516 30.3051ZM120.297 30.3051C120.647 30.3051 120.965 30.3716 121.247 30.5052C121.53 30.639 121.77 30.8306 121.966 31.0792C122.16 31.3263 122.308 31.6264 122.409 31.9788C122.51 32.3285 122.56 32.721 122.56 33.1563C122.56 33.5916 122.51 33.9842 122.409 34.3339C122.308 34.6863 122.16 34.9864 121.966 35.2335C121.77 35.4823 121.53 35.6728 121.247 35.804C120.964 35.9348 120.647 36 120.297 36C119.941 36 119.622 35.9349 119.339 35.804C119.056 35.6728 118.816 35.4823 118.62 35.2335C118.425 34.9864 118.278 34.6863 118.176 34.3339C118.075 33.9842 118.025 33.5916 118.025 33.1563C118.025 32.721 118.075 32.3285 118.176 31.9788C118.278 31.6264 118.425 31.3263 118.62 31.0792C118.815 30.8306 119.055 30.639 119.338 30.5052C119.621 30.3716 119.941 30.3051 120.297 30.3051ZM96.6967 30.3051C97.0475 30.3051 97.3648 30.3716 97.6475 30.5052C97.9305 30.639 98.1704 30.8306 98.366 31.0792C98.5604 31.3263 98.7082 31.6264 98.8096 31.9788C98.9102 32.3285 98.9604 32.721 98.9604 33.1563C98.9604 33.5916 98.9102 33.9842 98.8096 34.3339C98.7082 34.6863 98.5604 34.9864 98.366 35.2335C98.1702 35.4823 97.9301 35.6728 97.6467 35.804C97.3642 35.9348 97.0472 36 96.6967 36C96.3412 36 96.0217 35.9349 95.7391 35.804C95.4557 35.6728 95.2156 35.4823 95.0198 35.2335C94.8254 34.9864 94.6777 34.6863 94.5762 34.3339C94.4756 33.9842 94.4254 33.5916 94.4254 33.1563C94.4254 32.721 94.4756 32.3285 94.5762 31.9788C94.6777 31.6264 94.8254 31.3263 95.0198 31.0792C95.2155 30.8306 95.4553 30.639 95.7383 30.5052C96.0211 30.3716 96.3409 30.3051 96.6967 30.3051ZM111.258 30.0544C111.392 30.0544 111.507 30.0832 111.603 30.1425C111.673 30.1856 111.724 30.2231 111.77 30.3107L111.803 30.3867L110.022 35.8646L109.92 35.9392H109.101L108.999 35.7968L110.73 30.4792L110.776 30.3663C110.811 30.291 110.852 30.2285 110.899 30.179C110.979 30.0937 111.101 30.0544 111.258 30.0544ZM104.879 30.3051C105.182 30.3051 105.462 30.3528 105.72 30.4485C105.978 30.5444 106.202 30.6796 106.39 30.854C106.579 31.029 106.726 31.2378 106.829 31.4797C106.933 31.7216 106.985 31.987 106.985 32.275C106.985 32.6514 106.905 33.0012 106.744 33.323C106.64 33.5312 106.522 33.7353 106.39 33.9353L106.182 34.2323L104.856 35.9316H103.85L103.764 35.7577L104.959 34.1549L104.882 34.1706L104.819 34.1782L104.691 34.1842C104.382 34.1842 104.106 34.1349 103.862 34.0358C103.618 33.9367 103.413 33.8019 103.247 33.6313C103.081 33.4612 102.956 33.2637 102.87 33.0396C102.785 32.8169 102.743 32.582 102.743 32.3358C102.743 32.0428 102.796 31.7711 102.902 31.5218C103.008 31.2727 103.157 31.0566 103.348 30.8741C103.538 30.6918 103.765 30.5512 104.026 30.4525C104.286 30.3541 104.571 30.3051 104.879 30.3051ZM124.654 30.3051C124.981 30.3051 125.271 30.3486 125.523 30.4363C125.776 30.5243 125.99 30.6452 126.164 30.7993C126.339 30.9544 126.471 31.1387 126.56 31.3514C126.649 31.5625 126.693 31.7897 126.693 32.0319C126.693 32.2183 126.672 32.3923 126.629 32.5537C126.587 32.7131 126.532 32.8598 126.463 32.9937C126.395 33.1259 126.317 33.249 126.231 33.363C126.147 33.474 126.061 33.5787 125.974 33.677C125.886 33.7768 125.765 33.8948 125.612 34.0316C125.461 34.1668 125.304 34.3008 125.143 34.4334L124.83 34.6848L124.617 34.8484H126.623L126.73 34.957V35.7623L126.623 35.8708H122.926L122.819 35.7623L122.867 34.9042L123.203 34.674L123.708 34.3107C123.891 34.177 124.071 34.0408 124.251 33.902C124.429 33.7646 124.577 33.6412 124.695 33.5314C124.98 33.2734 125.197 33.0328 125.347 32.8103C125.49 32.598 125.561 32.3622 125.561 32.1003C125.561 31.9922 125.543 31.8906 125.505 31.7945C125.468 31.7001 125.412 31.6155 125.335 31.5399C125.258 31.465 125.159 31.4046 125.035 31.359C124.91 31.3129 124.758 31.2895 124.579 31.2895C124.402 31.2895 124.251 31.3151 124.127 31.3653C123.999 31.4172 123.893 31.4777 123.809 31.5464C123.725 31.6157 123.659 31.686 123.613 31.7572C123.58 31.8082 123.554 31.8513 123.535 31.886L123.513 31.9316L123.391 31.9935C123.338 31.9815 123.282 31.961 123.222 31.9324C123.161 31.903 123.103 31.865 123.049 31.8186C122.992 31.7707 122.945 31.7151 122.906 31.6522C122.863 31.5816 122.841 31.5023 122.841 31.4165C122.841 31.3266 122.858 31.2405 122.891 31.159C122.921 31.0827 122.96 31.0129 123.004 30.9507C123.035 30.9079 123.087 30.8516 123.165 30.7786C123.246 30.7027 123.354 30.6301 123.49 30.56C123.625 30.4904 123.788 30.4307 123.977 30.3808C124.17 30.3301 124.395 30.3051 124.654 30.3051ZM101.302 30.4418C101.436 30.4418 101.555 30.4634 101.659 30.5072C101.734 30.5386 101.786 30.5624 101.838 30.6186L101.891 30.6871V35.7623L101.783 35.8708H100.912L100.804 35.7623V31.7877L99.78 32.5377L99.6677 32.5461L99.5523 32.4839C99.4992 32.454 99.4482 32.4158 99.3993 32.3693C99.3486 32.321 99.3067 32.2664 99.2737 32.2058C99.2373 32.1389 99.2191 32.0652 99.2191 31.9863C99.2191 31.8527 99.2532 31.7365 99.3225 31.641C99.37 31.5755 99.4375 31.5091 99.5247 31.4412L99.6185 31.3728L100.64 30.66C100.72 30.6082 100.796 30.5645 100.868 30.5288C100.987 30.4703 101.132 30.4418 101.302 30.4418ZM115.435 30.3051C115.762 30.3051 116.052 30.3486 116.304 30.4363C116.557 30.5243 116.771 30.6452 116.945 30.7993C117.12 30.9544 117.252 31.1387 117.341 31.3514C117.43 31.5625 117.474 31.7897 117.474 32.0319C117.474 32.2183 117.452 32.3923 117.41 32.5537C117.368 32.7131 117.312 32.8598 117.244 32.9937C117.176 33.1259 117.098 33.249 117.012 33.363C116.928 33.474 116.842 33.5787 116.755 33.677C116.667 33.7768 116.546 33.8948 116.393 34.0316C116.242 34.1668 116.085 34.3008 115.924 34.4334L115.611 34.6848L115.398 34.8484H117.404L117.511 34.957V35.7623L117.404 35.8708H113.707L113.6 35.7623L113.648 34.9042L113.984 34.674L114.489 34.3107C114.672 34.177 114.852 34.0408 115.032 33.902C115.21 33.7646 115.358 33.6412 115.476 33.5314C115.761 33.2734 115.978 33.0328 116.128 32.8103C116.271 32.598 116.342 32.3622 116.342 32.1003C116.342 31.9922 116.324 31.8906 116.286 31.7945C116.249 31.7001 116.193 31.6155 116.116 31.5399C116.039 31.465 115.94 31.4046 115.816 31.359C115.691 31.3129 115.539 31.2895 115.36 31.2895C115.183 31.2895 115.032 31.3151 114.908 31.3653C114.78 31.4172 114.674 31.4777 114.59 31.5464C114.506 31.6157 114.44 31.686 114.394 31.7572C114.361 31.8082 114.335 31.8513 114.316 31.886L114.294 31.9316L114.172 31.9935C114.119 31.9815 114.062 31.961 114.003 31.9324C113.942 31.903 113.884 31.865 113.83 31.8186C113.773 31.7707 113.726 31.7151 113.687 31.6522C113.644 31.5816 113.622 31.5023 113.622 31.4165C113.622 31.3266 113.639 31.2405 113.672 31.159C113.702 31.0827 113.74 31.0129 113.785 30.9507C113.815 30.9079 113.868 30.8516 113.946 30.7786C114.027 30.7027 114.135 30.6301 114.271 30.56C114.406 30.4904 114.568 30.4307 114.758 30.3808C114.951 30.3301 115.176 30.3051 115.435 30.3051ZM91.8354 30.3051C92.1623 30.3051 92.452 30.3486 92.7043 30.4363C92.9575 30.5243 93.1713 30.6452 93.345 30.7993C93.5199 30.9544 93.6523 31.1387 93.7413 31.3514C93.8296 31.5625 93.8737 31.7897 93.8737 32.0319C93.8737 32.2183 93.8526 32.3923 93.81 32.5537C93.768 32.7131 93.7126 32.8598 93.6437 32.9937C93.5758 33.1259 93.4985 33.249 93.412 33.363C93.3278 33.474 93.2421 33.5787 93.1552 33.677C93.0668 33.7768 92.9463 33.8948 92.7931 34.0316C92.6417 34.1668 92.4853 34.3008 92.3239 34.4334L92.0115 34.6848L91.7979 34.8484H93.804L93.9113 34.957V35.7623L93.804 35.8708H90.1073L90 35.7623L90.0485 34.9042L90.3843 34.674L90.8895 34.3107C91.0717 34.177 91.2525 34.0408 91.4322 33.902C91.6101 33.7646 91.758 33.6412 91.8765 33.5314C92.161 33.2734 92.3782 33.0328 92.5281 32.8103C92.6712 32.598 92.7424 32.3622 92.7424 32.1003C92.7424 31.9922 92.7236 31.8906 92.6861 31.7945C92.6492 31.7001 92.5927 31.6155 92.5158 31.5399C92.4395 31.465 92.3399 31.4046 92.2158 31.359C92.0906 31.3129 91.9388 31.2895 91.7603 31.2895C91.5829 31.2895 91.4322 31.3151 91.308 31.3653C91.1798 31.4172 91.0739 31.4777 90.9902 31.5464C90.9057 31.6157 90.8405 31.686 90.7944 31.7572C90.7613 31.8082 90.7353 31.8513 90.7165 31.886L90.6938 31.9316L90.5724 31.9935C90.5189 31.9815 90.4626 31.961 90.4031 31.9324C90.3421 31.903 90.2843 31.865 90.2298 31.8186C90.1735 31.7707 90.126 31.7151 90.0874 31.6522C90.0442 31.5816 90.0225 31.5023 90.0225 31.4165C90.0225 31.3266 90.039 31.2405 90.0718 31.159C90.1026 31.0827 90.1406 31.0129 90.1853 30.9507C90.2156 30.9079 90.2685 30.8516 90.346 30.7786C90.4267 30.7027 90.535 30.6301 90.6709 30.56C90.8061 30.4904 90.9686 30.4307 91.1585 30.3808C91.3508 30.3301 91.5764 30.3051 91.8354 30.3051ZM96.6967 31.3275C96.5052 31.3275 96.3403 31.3706 96.1999 31.4563C96.0571 31.5433 95.9391 31.6638 95.8453 31.8188C95.7491 31.9778 95.6757 32.1705 95.6256 32.3975C95.5747 32.6274 95.5492 32.8804 95.5492 33.1563C95.5492 33.4323 95.5747 33.6853 95.6256 33.9152C95.6757 34.1424 95.7493 34.3366 95.8456 34.4982C95.9393 34.6553 96.0568 34.7752 96.1988 34.8596C96.3394 34.9431 96.5048 34.9852 96.6967 34.9852C96.8884 34.9852 97.0522 34.9432 97.1901 34.86C97.3299 34.7756 97.4464 34.6556 97.5402 34.4982C97.6366 34.3366 97.7101 34.1424 97.7603 33.9152C97.8111 33.6853 97.8366 33.4323 97.8366 33.1563C97.8366 32.8804 97.8111 32.6274 97.7603 32.3975C97.7101 32.1705 97.6367 31.9778 97.5405 31.8188C97.4465 31.6635 97.3296 31.5429 97.1891 31.4559C97.0514 31.3705 96.8879 31.3275 96.6967 31.3275ZM129.516 31.3275C129.324 31.3275 129.159 31.3706 129.019 31.4563C128.876 31.5433 128.758 31.6638 128.664 31.8188C128.568 31.9778 128.495 32.1705 128.444 32.3975C128.394 32.6274 128.368 32.8804 128.368 33.1563C128.368 33.4323 128.394 33.6853 128.444 33.9152C128.495 34.1424 128.568 34.3366 128.665 34.4982C128.758 34.6553 128.876 34.7752 129.018 34.8596C129.158 34.9431 129.324 34.9852 129.516 34.9852C129.707 34.9852 129.871 34.9432 130.009 34.86C130.149 34.7756 130.265 34.6556 130.359 34.4982C130.456 34.3366 130.529 34.1424 130.579 33.9152C130.63 33.6853 130.656 33.4323 130.656 33.1563C130.656 32.8804 130.63 32.6274 130.579 32.3975C130.529 32.1705 130.456 31.9778 130.359 31.8188C130.265 31.6635 130.149 31.5429 130.008 31.4559C129.87 31.3705 129.707 31.3275 129.516 31.3275ZM120.297 31.3275C120.105 31.3275 119.94 31.3706 119.8 31.4563C119.657 31.5433 119.539 31.6638 119.445 31.8188C119.349 31.9778 119.276 32.1705 119.225 32.3975C119.175 32.6274 119.149 32.8804 119.149 33.1563C119.149 33.4323 119.175 33.6853 119.225 33.9152C119.276 34.1424 119.349 34.3366 119.446 34.4982C119.539 34.6553 119.657 34.7752 119.799 34.8596C119.939 34.9431 120.105 34.9852 120.297 34.9852C120.488 34.9852 120.652 34.9432 120.79 34.86C120.93 34.7756 121.046 34.6556 121.14 34.4982C121.236 34.3366 121.31 34.1424 121.36 33.9152C121.411 33.6853 121.436 33.4323 121.436 33.1563C121.436 32.8804 121.411 32.6274 121.36 32.3975C121.31 32.1705 121.237 31.9778 121.14 31.8188C121.046 31.6635 120.929 31.5429 120.789 31.4559C120.651 31.3705 120.488 31.3275 120.297 31.3275ZM104.879 31.2743C104.716 31.2743 104.57 31.2999 104.44 31.3506C104.311 31.401 104.203 31.4713 104.113 31.5616C104.023 31.6526 103.954 31.7594 103.904 31.8829C103.854 32.0062 103.829 32.1443 103.829 32.2978C103.829 32.4613 103.855 32.6054 103.907 32.7308C103.959 32.856 104.03 32.9608 104.122 33.0463C104.214 33.1328 104.323 33.2001 104.451 33.2485C104.578 33.2969 104.721 33.3213 104.879 33.3213C105.036 33.3213 105.18 33.2958 105.31 33.245C105.439 33.1945 105.55 33.1239 105.642 33.0331C105.734 32.9418 105.806 32.8348 105.858 32.7111C105.91 32.5883 105.936 32.4508 105.936 32.2978C105.936 32.1499 105.91 32.0134 105.858 31.8876C105.806 31.7617 105.734 31.6536 105.642 31.5626C105.55 31.4717 105.439 31.4011 105.31 31.3506C105.18 31.2998 105.036 31.2743 104.879 31.2743ZM116.961 23.0505C117.26 23.0505 117.537 23.1038 117.791 23.2108C118.044 23.3174 118.264 23.4644 118.452 23.6516C118.641 23.8393 118.788 24.0644 118.893 24.326C118.999 24.5875 119.051 24.8699 119.051 25.1724C119.051 25.4797 119 25.7631 118.897 26.022C118.794 26.2808 118.651 26.5044 118.468 26.6921C118.285 26.8797 118.071 27.0258 117.825 27.1301C117.578 27.2346 117.31 27.2867 117.021 27.2867C116.719 27.2867 116.45 27.2273 116.214 27.1081C116.136 27.0686 116.063 27.026 115.996 26.9803L115.899 26.9092L115.851 26.8656V28.5989L115.743 28.7074H114.887L114.779 28.5989L114.78 25.344L114.786 25.1329C114.802 24.8523 114.853 24.5982 114.937 24.3708C115.042 24.0859 115.19 23.8449 115.381 23.6488C115.573 23.4525 115.804 23.3034 116.074 23.2017C116.342 23.1008 116.638 23.0505 116.961 23.0505ZM97.9139 23.0505C98.1854 23.0505 98.4274 23.0864 98.6394 23.1588C98.8515 23.2312 99.032 23.3285 99.1802 23.4511C99.3302 23.5752 99.4443 23.7211 99.5213 23.8881C99.5981 24.0545 99.6366 24.2323 99.6366 24.4202C99.6366 24.6126 99.6009 24.7888 99.5292 24.9477C99.4548 25.1128 99.325 25.2526 99.1426 25.3671C98.9653 25.4785 98.7308 25.5638 98.4389 25.6244C98.1504 25.6843 97.7878 25.714 97.3503 25.714L96.9232 25.7062C96.9623 25.8335 97.0281 25.9444 97.1213 26.04L97.2236 26.1306C97.4106 26.2741 97.685 26.3478 98.0491 26.3478C98.1731 26.3478 98.2869 26.3382 98.3905 26.3192C98.4957 26.2999 98.5894 26.2759 98.6717 26.2473L98.8227 26.1895L99.0229 26.0934L99.166 26.14L99.4815 26.7478L99.4415 26.8915L99.2489 27.0006C99.1574 27.0495 99.045 27.095 98.9115 27.1373C98.7791 27.1793 98.627 27.2158 98.455 27.247C98.2806 27.2786 98.0903 27.2943 97.8838 27.2943C97.5915 27.2943 97.3177 27.2493 97.0631 27.159C96.8066 27.0681 96.5811 26.9326 96.3874 26.7529C96.1933 26.5727 96.0405 26.3524 95.9295 26.093C95.8182 25.8331 95.7628 25.5361 95.7628 25.2028C95.7628 24.885 95.8168 24.5936 95.925 24.3293C96.0332 24.0651 96.1842 23.8375 96.3776 23.6472C96.5708 23.4573 96.7983 23.3102 97.0593 23.2062C97.3201 23.1023 97.6052 23.0505 97.9139 23.0505ZM106.209 23.0505C106.48 23.0505 106.722 23.0864 106.934 23.1588C107.146 23.2312 107.327 23.3285 107.475 23.4511C107.625 23.5752 107.739 23.7211 107.816 23.8881C107.893 24.0545 107.931 24.2323 107.931 24.4202C107.931 24.6126 107.896 24.7888 107.824 24.9477C107.75 25.1128 107.62 25.2526 107.437 25.3671C107.26 25.4785 107.026 25.5638 106.734 25.6244C106.445 25.6843 106.083 25.714 105.645 25.714L105.218 25.7062C105.257 25.8335 105.323 25.9444 105.416 26.04L105.519 26.1306C105.705 26.2741 105.98 26.3478 106.344 26.3478C106.468 26.3478 106.582 26.3382 106.685 26.3192C106.791 26.2999 106.884 26.2759 106.967 26.2473L107.118 26.1895L107.318 26.0934L107.461 26.14L107.776 26.7478L107.736 26.8915L107.544 27.0006C107.452 27.0495 107.34 27.095 107.206 27.1373C107.074 27.1793 106.922 27.2158 106.75 27.247C106.576 27.2786 106.385 27.2943 106.179 27.2943C105.886 27.2943 105.613 27.2493 105.358 27.159C105.101 27.0681 104.876 26.9326 104.682 26.7529C104.488 26.5727 104.335 26.3524 104.224 26.093C104.113 25.8331 104.058 25.5361 104.058 25.2028C104.058 24.885 104.112 24.5936 104.22 24.3293C104.328 24.0651 104.479 23.8375 104.673 23.6472C104.866 23.4573 105.093 23.3102 105.354 23.2062C105.615 23.1023 105.9 23.0505 106.209 23.0505ZM128.539 23.0505C128.81 23.0505 129.052 23.0864 129.264 23.1588C129.477 23.2312 129.657 23.3285 129.805 23.4511C129.955 23.5752 130.069 23.7211 130.146 23.8881C130.223 24.0545 130.262 24.2323 130.262 24.4202C130.262 24.6126 130.226 24.7888 130.154 24.9477C130.08 25.1128 129.95 25.2526 129.768 25.3671C129.59 25.4785 129.356 25.5638 129.064 25.6244C128.775 25.6843 128.413 25.714 127.975 25.714L127.548 25.7062C127.587 25.8335 127.653 25.9444 127.746 26.04L127.849 26.1306C128.036 26.2741 128.31 26.3478 128.674 26.3478C128.798 26.3478 128.912 26.3382 129.016 26.3192C129.121 26.2999 129.214 26.2759 129.297 26.2473L129.448 26.1895L129.648 26.0934L129.791 26.14L130.107 26.7478L130.066 26.8915L129.874 27.0006C129.782 27.0495 129.67 27.095 129.536 27.1373C129.404 27.1793 129.252 27.2158 129.08 27.247C128.906 27.2786 128.715 27.2943 128.509 27.2943C128.216 27.2943 127.943 27.2493 127.688 27.159C127.432 27.0681 127.206 26.9326 127.012 26.7529C126.818 26.5727 126.666 26.3524 126.554 26.093C126.443 25.8331 126.388 25.5361 126.388 25.2028C126.388 24.885 126.442 24.5936 126.55 24.3293C126.658 24.0651 126.809 23.8375 127.003 23.6472C127.196 23.4573 127.423 23.3102 127.684 23.2062C127.945 23.1023 128.23 23.0505 128.539 23.0505ZM112.189 23.0505C112.493 23.0505 112.778 23.1036 113.044 23.2101C113.31 23.3165 113.541 23.4646 113.736 23.6543C113.932 23.8442 114.086 24.0689 114.196 24.3277C114.308 24.5873 114.363 24.8691 114.363 25.1724C114.363 25.4706 114.308 25.75 114.196 26.0095C114.086 26.2682 113.932 26.493 113.736 26.6828C113.541 26.8723 113.31 27.0216 113.045 27.1306C112.779 27.2397 112.494 27.2943 112.189 27.2943C111.885 27.2943 111.6 27.2397 111.334 27.1306C111.069 27.0216 110.838 26.8723 110.643 26.6828C110.447 26.493 110.293 26.2682 110.183 26.0095C110.071 25.75 110.016 25.4706 110.016 25.1724C110.016 24.8691 110.071 24.5873 110.183 24.3277C110.293 24.0689 110.447 23.8442 110.643 23.6543C110.838 23.4646 111.069 23.3165 111.335 23.2101C111.601 23.1036 111.886 23.0505 112.189 23.0505ZM135.804 22.078C135.904 22.078 135.998 22.0908 136.086 22.1165L136.212 22.1556L136.25 22.1693L136.317 22.2701V23.1569L137.304 23.157L137.403 23.1614C137.542 23.1745 137.651 23.2162 137.725 23.2912C137.815 23.3819 137.858 23.5096 137.858 23.6681C137.858 23.7659 137.843 23.8576 137.814 23.9428L137.768 24.0693L137.749 24.1117L137.653 24.1717H136.317L136.317 25.7522L136.323 25.87C136.33 25.9369 136.343 25.9929 136.362 26.0379C136.39 26.1054 136.428 26.1578 136.476 26.1969C136.526 26.2375 136.585 26.2659 136.652 26.2825C136.727 26.3007 136.805 26.3098 136.886 26.3098C137.019 26.3098 137.142 26.2891 137.256 26.2479C137.343 26.2161 137.411 26.1861 137.459 26.1591L137.499 26.1331L137.654 26.1646L138 26.7421L137.971 26.8865L137.924 26.9206C137.888 26.9453 137.846 26.9732 137.796 27.0044C137.717 27.054 137.622 27.1 137.511 27.1428C137.4 27.1854 137.277 27.2212 137.141 27.2501C137.004 27.2796 136.853 27.2943 136.691 27.2943C136.224 27.2943 135.863 27.1695 135.615 26.9164C135.404 26.7007 135.284 26.4272 135.254 26.1001L135.246 25.9321L135.247 22.5809L135.255 22.4725C135.274 22.3552 135.325 22.2612 135.408 22.196C135.509 22.1163 135.642 22.078 135.804 22.078ZM92.2036 21.6829C92.6902 21.6829 93.1284 21.7466 93.5178 21.8744C93.9092 22.0028 94.2425 22.1871 94.5167 22.4274C94.792 22.6687 95.0033 22.9633 95.1499 23.3101C95.2961 23.6558 95.3689 24.0413 95.3689 24.4658C95.3689 24.8948 95.2988 25.2824 95.158 25.6278C95.0164 25.975 94.8076 26.2712 94.5321 26.5152C94.2575 26.7585 93.9188 26.9442 93.517 27.0727C93.1177 27.2003 92.6598 27.2639 92.1435 27.2639L91.528 27.2575C91.2887 27.2519 91.0951 27.2425 90.9469 27.2293L90.5146 27.1858L90.4283 27.0794L90.4284 22.3558L90.4336 22.2561C90.4447 22.1514 90.4736 22.0622 90.5214 21.9896C90.5872 21.8898 90.6972 21.8193 90.8472 21.7747C90.9843 21.7339 91.1626 21.7087 91.3833 21.6982L91.8332 21.6854C91.9473 21.6837 92.0707 21.6829 92.2036 21.6829ZM108.959 21.3714C109.059 21.3714 109.152 21.3843 109.237 21.4102L109.36 21.4492L109.397 21.4628L109.464 21.5635V27.0794L109.357 27.1879H108.5L108.393 27.0794L108.393 21.8741L108.402 21.7685C108.421 21.6542 108.472 21.5612 108.553 21.4945C108.654 21.4113 108.791 21.3714 108.959 21.3714ZM132.626 23.0505C132.903 23.0505 133.159 23.0889 133.395 23.1659C133.634 23.2436 133.84 23.3567 134.014 23.5054C134.189 23.6551 134.325 23.8377 134.422 24.0523C134.494 24.2134 134.54 24.3898 134.558 24.5811L134.567 24.7773V27.0794L134.459 27.1879H133.603L133.496 27.0794L133.496 25.0022L133.489 24.8418C133.468 24.6003 133.397 24.416 133.276 24.2852C133.133 24.1294 132.919 24.0501 132.626 24.0501C132.329 24.0501 132.113 24.1294 131.973 24.2846C131.854 24.4159 131.783 24.6018 131.763 24.8449L131.757 24.9976V27.0794L131.649 27.1879H130.793L130.686 27.0794L130.686 24.7722L130.695 24.5818C130.713 24.3898 130.76 24.2128 130.835 24.0513C130.934 23.8372 131.071 23.6549 131.246 23.5054C131.419 23.3568 131.625 23.2437 131.86 23.166C132.094 23.0889 132.35 23.0505 132.626 23.0505ZM103.376 23.1569C103.533 23.1569 103.664 23.1846 103.769 23.2422L103.886 23.3085C103.899 23.3168 103.91 23.3241 103.919 23.3306L103.94 23.3482L103.968 23.4548L103.905 23.6493C103.892 23.6865 103.877 23.7262 103.862 23.7683L103.81 23.9019C103.761 24.0263 103.706 24.1602 103.644 24.3037L103.545 24.526C103.442 24.7546 103.332 24.9933 103.214 25.2421L102.864 25.9693L102.462 26.7732L102.276 27.1308L102.182 27.1879H101.34L101.245 27.1306L101.016 26.6985C100.868 26.416 100.729 26.1453 100.598 25.8865L100.325 25.335C100.283 25.2483 100.243 25.1642 100.204 25.0827L99.9392 24.5027C99.8931 24.3964 99.8522 24.2981 99.8165 24.2078L99.7669 24.0785C99.6869 23.8627 99.6473 23.7242 99.6473 23.6453C99.6473 23.5111 99.693 23.3941 99.7826 23.3002C99.8754 23.2031 100.011 23.1569 100.183 23.1569C100.298 23.1569 100.394 23.1681 100.473 23.1917C100.563 23.2188 100.606 23.2355 100.659 23.3037C100.759 23.5759 100.866 23.8519 100.981 24.1318C101.096 24.4118 101.209 24.6766 101.321 24.9261L101.636 25.6077L101.784 25.918L101.887 25.705L101.993 25.4698L102.156 25.1003L102.712 23.7705C102.734 23.7168 102.752 23.6718 102.766 23.6354C102.821 23.4965 102.888 23.3846 102.968 23.3002C103.061 23.2028 103.199 23.1569 103.376 23.1569ZM124.143 23.0505C124.384 23.0505 124.61 23.0823 124.82 23.1462C125.034 23.2111 125.22 23.309 125.376 23.4401C125.534 23.572 125.659 23.7367 125.751 23.9332C125.82 24.0814 125.863 24.247 125.88 24.4296L125.889 24.6178V27.0794L125.781 27.1879H124.925L124.818 27.0794L124.818 24.9177L124.813 24.778C124.796 24.5277 124.729 24.3514 124.618 24.2443C124.484 24.1154 124.3 24.0501 124.061 24.0501C123.832 24.0501 123.645 24.1233 123.493 24.2707C123.365 24.3939 123.29 24.59 123.271 24.8626L123.267 25.0052V27.0794L123.159 27.1879H122.303L122.195 27.0794L122.195 25.009L122.19 24.8588C122.171 24.5877 122.096 24.3933 121.969 24.2707C121.817 24.1233 121.629 24.0501 121.401 24.0501C121.167 24.0501 120.983 24.1166 120.843 24.2487C120.73 24.3557 120.662 24.5279 120.643 24.7689L120.637 24.9217V27.0794L120.529 27.1879H119.673L119.566 27.0794L119.566 24.6204L119.574 24.4385C119.591 24.2554 119.634 24.0893 119.704 23.9408C119.796 23.744 119.922 23.579 120.082 23.4471C120.241 23.3166 120.427 23.2177 120.64 23.1504C120.851 23.0837 121.08 23.0505 121.326 23.0505C121.652 23.0505 121.945 23.112 122.206 23.2355C122.416 23.3356 122.594 23.4746 122.736 23.6517L122.745 23.6648L122.756 23.6518C122.826 23.5634 122.905 23.4844 122.992 23.4151L123.129 23.3183L123.278 23.2359C123.534 23.1121 123.822 23.0505 124.143 23.0505ZM112.189 24.0273C112.029 24.0273 111.884 24.0561 111.755 24.1132C111.626 24.1706 111.515 24.2493 111.423 24.3499C111.33 24.4507 111.257 24.5715 111.204 24.713C111.151 24.855 111.125 25.008 111.125 25.1724C111.125 25.3365 111.151 25.4865 111.204 25.623C111.257 25.7601 111.33 25.8804 111.424 25.9844C111.516 26.0871 111.626 26.1668 111.755 26.224C111.884 26.2811 112.029 26.3098 112.189 26.3098C112.345 26.3098 112.489 26.2811 112.62 26.2237C112.752 26.1665 112.863 26.0868 112.955 25.9844C113.049 25.8804 113.122 25.7601 113.175 25.623C113.228 25.4865 113.254 25.3365 113.254 25.1724C113.254 25.008 113.228 24.855 113.175 24.713C113.122 24.5715 113.049 24.4507 112.956 24.3499C112.864 24.2496 112.752 24.1709 112.62 24.1134C112.489 24.0561 112.345 24.0273 112.189 24.0273ZM116.9 24.0501C116.744 24.0501 116.602 24.0778 116.473 24.1328C116.343 24.188 116.232 24.2634 116.14 24.3593C116.047 24.455 115.975 24.5705 115.922 24.7066C115.87 24.843 115.843 24.9955 115.843 25.1648C115.843 25.3291 115.87 25.4805 115.922 25.6198C115.975 25.7594 116.047 25.8794 116.138 25.9807C116.228 26.0807 116.337 26.1592 116.466 26.2164C116.595 26.2735 116.74 26.3023 116.9 26.3023C117.056 26.3023 117.198 26.2736 117.327 26.2164C117.456 26.159 117.567 26.0802 117.66 25.9797C117.752 25.879 117.824 25.7598 117.874 25.6213C117.925 25.4816 117.95 25.3296 117.95 25.1648C117.95 25.0053 117.925 24.8573 117.874 24.7203C117.824 24.5844 117.753 24.4679 117.661 24.3698C117.568 24.2714 117.457 24.1936 117.327 24.1359C117.198 24.0788 117.056 24.0501 116.9 24.0501ZM92.2186 22.6977L91.9031 22.7024C91.8573 22.7039 91.8148 22.7059 91.7758 22.7082L91.537 22.7292V26.1991L91.6804 26.2154C91.8066 26.2277 91.9863 26.2339 92.2186 26.2339C92.8754 26.2339 93.371 26.0785 93.7098 25.7715C94.0463 25.4667 94.2151 25.0342 94.2151 24.4658C94.2151 24.2046 94.1758 23.9651 94.0975 23.7469C94.0205 23.532 93.9031 23.3487 93.7448 23.1957C93.5862 23.0423 93.3815 22.921 93.13 22.8322C92.8767 22.7429 92.5729 22.6977 92.2186 22.6977ZM106.194 23.9362C106.023 23.9362 105.876 23.966 105.751 24.0248C105.623 24.0845 105.518 24.1629 105.433 24.2604C105.346 24.3592 105.279 24.4731 105.231 24.6027C105.199 24.69 105.176 24.778 105.163 24.8671L105.161 24.8924L105.375 24.8967H105.69C105.959 24.8967 106.175 24.8795 106.337 24.8457C106.497 24.8125 106.62 24.7704 106.703 24.7214C106.78 24.6765 106.826 24.6296 106.846 24.5826C106.871 24.5252 106.883 24.4662 106.883 24.405C106.883 24.2494 106.825 24.1402 106.704 24.0641C106.57 23.9793 106.4 23.9362 106.194 23.9362ZM128.524 23.9362C128.353 23.9362 128.206 23.966 128.081 24.0248C127.954 24.0845 127.848 24.1629 127.763 24.2604C127.676 24.3592 127.609 24.4731 127.561 24.6027C127.529 24.69 127.506 24.778 127.493 24.8671L127.491 24.8924L127.705 24.8967H128.02C128.289 24.8967 128.505 24.8795 128.667 24.8457C128.827 24.8125 128.95 24.7704 129.034 24.7214C129.11 24.6765 129.157 24.6296 129.177 24.5826C129.201 24.5252 129.213 24.4662 129.213 24.405C129.213 24.2494 129.155 24.1402 129.034 24.0641C128.9 23.9793 128.73 23.9362 128.524 23.9362ZM97.8988 23.9362C97.7284 23.9362 97.581 23.966 97.4557 24.0248C97.3286 24.0845 97.2229 24.1629 97.1377 24.2604C97.0513 24.3592 96.9842 24.4731 96.9362 24.6027C96.9038 24.69 96.8812 24.778 96.8684 24.8671L96.8663 24.8924L97.0799 24.8967H97.3954C97.6642 24.8967 97.8803 24.8795 98.0425 24.8457C98.2024 24.8125 98.3247 24.7704 98.4086 24.7214C98.4852 24.6765 98.5316 24.6296 98.5515 24.5826C98.5759 24.5252 98.5879 24.4662 98.5879 24.405C98.5879 24.2494 98.5301 24.1402 98.4093 24.0641C98.2747 23.9793 98.1052 23.9362 97.8988 23.9362ZM112.693 14.3676C112.997 14.3676 113.282 14.4207 113.548 14.5271C113.813 14.6335 114.044 14.7817 114.24 14.9714C114.436 15.1613 114.589 15.386 114.7 15.6448C114.811 15.9043 114.866 16.1862 114.866 16.4895C114.866 16.7877 114.811 17.067 114.7 17.3265C114.589 17.5853 114.436 17.81 114.24 17.9999C114.045 18.1894 113.814 18.3387 113.548 18.4476C113.282 18.5568 112.997 18.6113 112.693 18.6113C112.389 18.6113 112.103 18.5568 111.837 18.4476C111.572 18.3387 111.341 18.1894 111.146 17.9999C110.95 17.81 110.797 17.5853 110.686 17.3265C110.575 17.067 110.519 16.7877 110.519 16.4895C110.519 16.1862 110.575 15.9043 110.686 15.6448C110.797 15.386 110.95 15.1613 111.146 14.9714C111.341 14.7817 111.572 14.6335 111.838 14.5271C112.104 14.4207 112.389 14.3676 112.693 14.3676ZM104.353 13.3951C104.453 13.3951 104.547 13.4078 104.635 13.4336L104.761 13.4727L104.799 13.4864L104.866 13.5872V14.4739L105.853 14.474L105.951 14.4785C106.091 14.4916 106.199 14.5333 106.273 14.6083C106.363 14.699 106.406 14.8267 106.406 14.9851C106.406 15.083 106.392 15.1747 106.363 15.2598L106.316 15.3863L106.297 15.4287L106.201 15.4887H104.866L104.866 17.0693L104.871 17.1871C104.878 17.254 104.891 17.3099 104.91 17.355C104.938 17.4224 104.977 17.4749 105.025 17.5139C105.075 17.5545 105.133 17.583 105.201 17.5996C105.275 17.6178 105.353 17.6269 105.435 17.6269C105.568 17.6269 105.691 17.6062 105.804 17.565C105.892 17.5331 105.96 17.5032 106.007 17.4761L106.048 17.4501L106.203 17.4817L106.549 18.0591L106.519 18.2036L106.472 18.2376C106.437 18.2624 106.394 18.2903 106.344 18.3215C106.265 18.371 106.17 18.417 106.059 18.4599C105.949 18.5025 105.825 18.5382 105.69 18.5672C105.552 18.5967 105.402 18.6113 105.24 18.6113C104.772 18.6113 104.412 18.4866 104.164 18.2334C103.953 18.0177 103.832 17.7443 103.802 17.4172L103.795 17.2492L103.795 13.898L103.804 13.7895C103.823 13.6723 103.874 13.5782 103.956 13.5131C104.057 13.4334 104.19 13.3951 104.353 13.3951ZM101.31 14.3676C101.843 14.3676 102.261 14.4276 102.563 14.5501C102.888 14.6813 103.063 14.8661 103.063 15.1067C103.063 15.1836 103.048 15.2534 103.018 15.3148C102.992 15.3667 102.963 15.4135 102.931 15.4549C102.898 15.4975 102.862 15.5333 102.824 15.562L102.772 15.5983L102.726 15.6199L102.617 15.5937L102.557 15.549C102.542 15.5386 102.524 15.5268 102.504 15.5138C102.443 15.4753 102.358 15.4353 102.249 15.3946C102.14 15.3537 102.007 15.3171 101.852 15.2852C101.699 15.2539 101.521 15.238 101.317 15.238C100.788 15.238 100.553 15.3628 100.553 15.5929C100.553 15.687 100.589 15.7519 100.667 15.8005C100.739 15.8448 100.837 15.8799 100.963 15.9047L101.098 15.9259L101.868 16.0252L102.072 16.0586C102.407 16.1245 102.678 16.2349 102.885 16.3912C103.143 16.5875 103.273 16.8771 103.273 17.2492C103.273 17.663 103.108 17.999 102.783 18.2475C102.464 18.4915 102.013 18.6113 101.43 18.6113C101.154 18.6113 100.902 18.5906 100.675 18.5488C100.45 18.5075 100.254 18.4595 100.086 18.4048C99.9185 18.35 99.7822 18.2962 99.6766 18.2428L99.5427 18.1708C99.5248 18.1602 99.5091 18.1504 99.4954 18.1411L99.4605 18.1151L99.4355 17.9788L99.7586 17.3938L99.9091 17.3546L99.9492 17.38C99.9815 17.3984 100.026 17.4206 100.084 17.4463C100.17 17.4851 100.278 17.5256 100.407 17.5675C100.535 17.609 100.682 17.6446 100.848 17.6742C101.012 17.7034 101.191 17.7181 101.385 17.7181C101.633 17.7181 101.832 17.6861 101.983 17.6236C102.109 17.5715 102.164 17.4927 102.164 17.3708C102.164 17.2637 102.128 17.1898 102.053 17.1372C101.983 17.0885 101.859 17.0482 101.681 17.0194L101.538 16.9999L100.95 16.9314L100.752 16.9051C100.621 16.8835 100.497 16.8542 100.38 16.8172C100.201 16.7604 100.046 16.6828 99.9157 16.5839C99.7824 16.4828 99.6777 16.3573 99.6027 16.2082C99.5269 16.0578 99.4895 15.8802 99.4895 15.6765C99.4895 15.4995 99.5239 15.3315 99.5925 15.1733C99.6622 15.0127 99.7717 14.8711 99.9198 14.749C100.067 14.6277 100.257 14.5339 100.488 14.4668C100.716 14.4004 100.99 14.3676 101.31 14.3676ZM97.5006 14.3676C97.7722 14.3676 98.0141 14.4035 98.2262 14.4758C98.4383 14.5482 98.6188 14.6455 98.767 14.7682C98.917 14.8923 99.031 15.0382 99.1081 15.2052C99.1849 15.3716 99.2234 15.5493 99.2234 15.7373C99.2234 15.9297 99.1877 16.1059 99.116 16.2648C99.0416 16.4298 98.9117 16.5697 98.7294 16.6842C98.5521 16.7956 98.3176 16.8808 98.0256 16.9415C97.7372 17.0014 97.3746 17.0311 96.9371 17.0311L96.5099 17.0233C96.5491 17.1506 96.6149 17.2614 96.7081 17.3571L96.8104 17.4477C96.9973 17.5911 97.2717 17.6649 97.6359 17.6649C97.7599 17.6649 97.8737 17.6553 97.9773 17.6363C98.0824 17.6169 98.1762 17.5929 98.2585 17.5644L98.4095 17.5066L98.6097 17.4104L98.7527 17.4571L99.0683 18.0649L99.0282 18.2085L98.8356 18.3176C98.7442 18.3666 98.6318 18.412 98.4982 18.4544C98.3659 18.4964 98.2138 18.5329 98.0417 18.5641C97.8674 18.5956 97.677 18.6113 97.4706 18.6113C97.1782 18.6113 96.9045 18.5663 96.6499 18.4761C96.3933 18.3851 96.1678 18.2497 95.9742 18.0699C95.7801 17.8898 95.6273 17.6695 95.5162 17.4101C95.4049 17.1502 95.3496 16.8532 95.3496 16.5198C95.3496 16.2021 95.4036 15.9107 95.5118 15.6464C95.62 15.3822 95.771 15.1546 95.9644 14.9643C96.1575 14.7744 96.385 14.6272 96.6461 14.5233C96.9069 14.4194 97.192 14.3676 97.5006 14.3676ZM92.3839 13C92.8485 13 93.2333 13.0415 93.539 13.1253C93.8476 13.21 94.0922 13.3236 94.2725 13.4679C94.4551 13.6139 94.5835 13.7842 94.6558 13.9782C94.7255 14.1652 94.7603 14.3618 94.7603 14.5673C94.7603 14.7409 94.7373 14.8959 94.6905 15.0321C94.6449 15.1652 94.588 15.2817 94.5195 15.3813C94.4738 15.448 94.4235 15.5081 94.3688 15.5615L94.2833 15.6367L94.2194 15.683L94.3245 15.7405C94.387 15.7798 94.4458 15.8238 94.5009 15.8727L94.5807 15.9495L94.6897 16.0781C94.8624 16.3083 94.9482 16.596 94.9482 16.9377C94.9482 17.1625 94.9136 17.3747 94.8444 17.5739C94.7722 17.7818 94.6381 17.9621 94.4445 18.1138C94.2534 18.2634 93.992 18.3782 93.6604 18.4601C93.3329 18.5409 92.9153 18.581 92.4065 18.581L91.9398 18.5759L91.1468 18.5467L90.8514 18.5296L90.5624 18.5059L90.5356 18.505L90.4283 18.3964L90.4284 13.6726L90.4337 13.5743C90.4493 13.4343 90.4986 13.3227 90.5837 13.2446C90.6785 13.1578 90.7891 13.1019 90.9128 13.0781L91.0685 13.0539C91.1301 13.0464 91.2013 13.0393 91.2823 13.0327L91.4112 13.023C91.637 13.0076 91.961 13 92.3839 13ZM119.492 13.0762L119.603 13.0833C119.883 13.1204 120.036 13.3017 120.036 13.5948C120.036 13.703 120.02 13.8026 119.988 13.8932C119.963 13.9647 119.94 14.0176 119.874 14.076L119.816 14.1212H118.03V18.3964L117.922 18.505H117.028L116.921 18.3964V14.1212L115.519 14.121L115.408 14.1139C115.127 14.0768 114.975 13.8955 114.975 13.6024C114.975 13.4932 114.992 13.3925 115.027 13.3011C115.051 13.2379 115.071 13.1907 115.126 13.1352L115.195 13.076L119.492 13.0762ZM109.372 13.076C109.478 13.076 109.576 13.0902 109.667 13.1189L109.833 13.1749L109.9 13.2757V18.3964L109.793 18.505H108.899L108.791 18.3964L108.792 13.5936L108.801 13.4843C108.821 13.3663 108.874 13.2705 108.96 13.2021C109.065 13.1171 109.204 13.076 109.372 13.076ZM112.693 15.3444C112.532 15.3444 112.388 15.3731 112.259 15.4302C112.129 15.4876 112.019 15.5664 111.926 15.6669C111.833 15.7678 111.76 15.8886 111.708 16.0301C111.655 16.1721 111.628 16.325 111.628 16.4895C111.628 16.6536 111.655 16.8036 111.707 16.9401C111.76 17.0772 111.833 17.1975 111.927 17.3015C112.019 17.4041 112.13 17.4838 112.259 17.5411C112.388 17.5982 112.532 17.6269 112.693 17.6269C112.849 17.6269 112.992 17.5982 113.124 17.5408C113.255 17.4835 113.367 17.4039 113.459 17.3015C113.553 17.1975 113.626 17.0772 113.679 16.9401C113.731 16.8036 113.758 16.6536 113.758 16.4895C113.758 16.325 113.731 16.1721 113.678 16.0301C113.625 15.8886 113.553 15.7678 113.46 15.6669C113.367 15.5666 113.256 15.4879 113.124 15.4305C112.992 15.3731 112.849 15.3444 112.693 15.3444ZM92.9249 16.2409H91.5145V17.5433L91.7506 17.5665L91.9967 17.5808C92.1382 17.5862 92.3074 17.5889 92.5041 17.5889C92.7637 17.5889 92.9804 17.5729 93.1538 17.5413C93.3222 17.5105 93.4567 17.464 93.5572 17.4031C93.6528 17.345 93.7183 17.2767 93.7563 17.1979C93.7963 17.1148 93.8169 17.0132 93.8169 16.8921C93.8169 16.798 93.8026 16.7117 93.7744 16.6327C93.7482 16.5592 93.7037 16.4948 93.6396 16.4383C93.5739 16.3805 93.4843 16.333 93.3699 16.2967C93.2827 16.269 93.1773 16.2515 93.0541 16.2444L92.9249 16.2409ZM97.4856 15.2532C97.3152 15.2532 97.1678 15.283 97.0424 15.3419C96.9153 15.4016 96.8097 15.48 96.7245 15.5774C96.6381 15.6763 96.571 15.7902 96.5229 15.9198C96.4906 16.007 96.468 16.0951 96.4552 16.1842L96.453 16.2094L96.6666 16.2138H96.9822C97.251 16.2138 97.467 16.1966 97.6292 16.1628C97.7892 16.1295 97.9115 16.0875 97.9953 16.0384C98.072 15.9936 98.1184 15.9467 98.1383 15.8997C98.1626 15.8422 98.1747 15.7833 98.1747 15.7221C98.1747 15.5665 98.1169 15.4572 97.9961 15.3812C97.8615 15.2964 97.692 15.2532 97.4856 15.2532ZM92.4666 13.9844C92.2507 13.9844 92.0644 13.9887 91.908 13.9971L91.5784 14.0233L91.5145 14.03V15.2413H92.8047C92.9148 15.2413 93.0125 15.2334 93.0977 15.218L93.216 15.1892C93.3235 15.1553 93.4087 15.1111 93.4723 15.0575C93.5332 15.0062 93.576 14.9458 93.6019 14.8752C93.63 14.7988 93.644 14.7167 93.644 14.628C93.644 14.5372 93.626 14.4526 93.59 14.3733C93.5563 14.2991 93.4987 14.2347 93.4149 14.1796C93.3264 14.1215 93.2052 14.0741 93.0514 14.0387C92.8947 14.0027 92.6996 13.9844 92.4666 13.9844Z" fill="white"/>
</svg>
