<svg width="138" height="48" viewBox="0 0 138 48" fill="none" xmlns="http://www.w3.org/2000/svg">
<path fill-rule="evenodd" clip-rule="evenodd" d="M88.533 29.8869C88.846 29.8869 89.1344 29.9438 89.3979 30.0576C89.6615 30.1715 89.8908 30.328 90.0858 30.5272C90.2807 30.7264 90.4331 30.9655 90.5429 31.2444C90.6528 31.5233 90.7077 31.825 90.7077 32.1494C90.7077 32.4795 90.6542 32.7826 90.5471 33.0587C90.44 33.3348 90.2917 33.5724 90.1022 33.7716C89.9128 33.9708 89.6904 34.1259 89.435 34.2369C89.1797 34.3479 88.901 34.4034 88.5989 34.4034C88.2859 34.4034 88.0086 34.3408 87.767 34.2156C87.5253 34.0904 87.3359 33.9367 87.1986 33.7545V36H86.2595V32.3458C86.2595 31.9473 86.3144 31.5959 86.4243 31.2914C86.5341 30.9868 86.6879 30.7307 86.8856 30.5229C87.0833 30.3152 87.3221 30.1572 87.6022 30.0491C87.8823 29.9409 88.1926 29.8869 88.533 29.8869ZM121.021 29.8869C121.334 29.8869 121.623 29.9438 121.886 30.0576C122.15 30.1715 122.379 30.328 122.574 30.5272C122.769 30.7264 122.921 30.9655 123.031 31.2444C123.141 31.5233 123.196 31.825 123.196 32.1494C123.196 32.4795 123.142 32.7826 123.035 33.0587C122.928 33.3348 122.78 33.5724 122.59 33.7716C122.401 33.9708 122.179 34.1259 121.923 34.2369C121.668 34.3479 121.389 34.4034 121.087 34.4034C120.774 34.4034 120.497 34.3408 120.255 34.2156C120.013 34.0904 119.824 33.9367 119.687 33.7545V36H118.748V32.3458C118.748 31.9473 118.803 31.5959 118.912 31.2914C119.022 30.9868 119.176 30.7307 119.374 30.5229C119.571 30.3152 119.81 30.1572 120.09 30.0491C120.37 29.9409 120.681 29.8869 121.021 29.8869ZM83.5906 29.8869C83.9036 29.8869 84.1919 29.9438 84.4555 30.0576C84.7191 30.1715 84.9484 30.328 85.1434 30.5272C85.3383 30.7264 85.4907 30.9655 85.6005 31.2444C85.7104 31.5233 85.7653 31.825 85.7653 32.1494C85.7653 32.4795 85.7117 32.7826 85.6046 33.0587C85.4976 33.3348 85.3493 33.5724 85.1598 33.7716C84.9704 33.9708 84.748 34.1259 84.4926 34.2369C84.2372 34.3479 83.9585 34.4034 83.6565 34.4034C83.3435 34.4034 83.0662 34.3408 82.8245 34.2156C82.5829 34.0904 82.3934 33.9367 82.2562 33.7545V36H81.3171V32.3458C81.3171 31.9473 81.372 31.5959 81.4818 31.2914C81.5917 30.9868 81.7454 30.7307 81.9431 30.5229C82.1408 30.3152 82.3797 30.1572 82.6598 30.0491C82.9399 29.9409 83.2501 29.8869 83.5906 29.8869ZM44.1336 29.8869C44.4467 29.8869 44.735 29.9438 44.9986 30.0576C45.2622 30.1715 45.4914 30.328 45.6864 30.5272C45.8813 30.7264 46.0337 30.9655 46.1436 31.2444C46.2534 31.5233 46.3083 31.825 46.3083 32.1494C46.3083 32.4795 46.2548 32.7826 46.1477 33.0587C46.0406 33.3348 45.8923 33.5724 45.7029 33.7716C45.5134 33.9708 45.291 34.1259 45.0356 34.2369C44.7803 34.3479 44.5016 34.4034 44.1995 34.4034C43.8865 34.4034 43.6092 34.3408 43.3676 34.2156C43.1259 34.0904 42.9365 33.9367 42.7992 33.7545V36H41.8601V32.3458C41.8601 31.9473 41.915 31.5959 42.0249 31.2914C42.1347 30.9868 42.2885 30.7307 42.4862 30.5229C42.6839 30.3152 42.9227 30.1572 43.2028 30.0491C43.4829 29.9409 43.7932 29.8869 44.1336 29.8869ZM26 12V18H12C10.4023 18 9.09634 19.2489 9.00509 20.8237L9 21V35H3V20C3 15.5817 6.58172 12 11 12H26ZM26 20V27C26 31.4183 22.4183 35 18 35H11V28H19V26H11V21C11 20.4872 11.386 20.0645 11.8834 20.0067L12 20H26ZM115.996 29.8869C116.315 29.8869 116.613 29.9438 116.89 30.0576C117.167 30.1715 117.408 30.3294 117.611 30.5315C117.814 30.7335 117.973 30.9726 118.089 31.2487C118.204 31.5247 118.262 31.825 118.262 32.1494C118.262 32.4682 118.204 32.7656 118.089 33.0416C117.973 33.3177 117.814 33.5567 117.611 33.7588C117.408 33.9609 117.167 34.1202 116.89 34.2369C116.613 34.3536 116.315 34.412 115.996 34.412C115.678 34.412 115.38 34.3536 115.103 34.2369C114.825 34.1202 114.585 33.9609 114.382 33.7588C114.179 33.5567 114.019 33.3177 113.904 33.0416C113.789 32.7656 113.731 32.4682 113.731 32.1494C113.731 31.825 113.789 31.5247 113.904 31.2487C114.019 30.9726 114.179 30.7335 114.382 30.5315C114.585 30.3294 114.825 30.1715 115.103 30.0576C115.38 29.9438 115.678 29.8869 115.996 29.8869ZM132.965 29.8869C133.536 29.8869 133.98 29.9523 134.296 30.0832C134.611 30.2142 134.769 30.3849 134.769 30.5955C134.769 30.6638 134.757 30.7236 134.732 30.7748C134.708 30.826 134.68 30.8716 134.65 30.9114C134.62 30.9513 134.588 30.984 134.555 31.0096L134.5 31.0476L134.481 31.0566C134.459 31.0338 134.411 30.9982 134.337 30.9498C134.263 30.9015 134.163 30.8531 134.036 30.8047C133.91 30.7563 133.759 30.7136 133.583 30.6766C133.407 30.6396 133.204 30.6211 132.974 30.6211C132.337 30.6211 132.018 30.7947 132.018 31.1419C132.018 31.2899 132.078 31.4023 132.199 31.4792C132.32 31.556 132.493 31.6087 132.718 31.6371L133.558 31.7481C134.014 31.8107 134.368 31.9402 134.621 32.1366C134.874 32.333 135 32.6218 135 33.0032C135 33.4301 134.837 33.7716 134.51 34.0277C134.183 34.2839 133.712 34.412 133.097 34.412C132.801 34.412 132.532 34.3892 132.29 34.3437C132.048 34.2981 131.838 34.2455 131.66 34.1857C131.481 34.1259 131.337 34.0676 131.227 34.0107L131.091 33.936C131.056 33.9146 131.03 33.8968 131.013 33.8826L131.367 33.2252L131.436 33.2682L131.573 33.3362C131.672 33.3817 131.794 33.4287 131.94 33.4771C132.085 33.5254 132.251 33.5667 132.438 33.6009C132.625 33.635 132.828 33.6521 133.048 33.6521C133.333 33.6521 133.567 33.6137 133.748 33.5368C133.929 33.46 134.02 33.3276 134.02 33.1398C134.02 32.9804 133.962 32.8595 133.847 32.7769C133.751 32.7082 133.592 32.6562 133.37 32.621L132.586 32.5251C132.367 32.5023 132.165 32.461 131.981 32.4013C131.797 32.3415 131.639 32.2604 131.507 32.158C131.376 32.0555 131.273 31.9289 131.198 31.778C131.124 31.6272 131.087 31.4465 131.087 31.2359C131.087 31.0537 131.122 30.8815 131.19 30.7193C131.259 30.5571 131.367 30.4134 131.516 30.2882C131.664 30.1629 131.857 30.0647 132.096 29.9936C132.335 29.9224 132.625 29.8869 132.965 29.8869ZM125.857 29.8869C126.142 29.8869 126.395 29.9253 126.614 30.0021C126.834 30.079 127.019 30.1814 127.17 30.3095C127.321 30.4376 127.435 30.587 127.512 30.7577C127.589 30.9285 127.628 31.1106 127.628 31.3042C127.628 31.5034 127.592 31.6841 127.52 31.8463C127.449 32.0085 127.323 32.148 127.142 32.2647C126.96 32.3814 126.716 32.4724 126.408 32.5379C126.101 32.6033 125.711 32.6361 125.239 32.6361L124.93 32.6318L124.621 32.619C124.665 32.9093 124.801 33.1441 125.029 33.3234C125.257 33.5027 125.582 33.5923 126.005 33.5923C126.148 33.5923 126.279 33.5809 126.4 33.5582C126.521 33.5354 126.629 33.5069 126.726 33.4728L126.899 33.4045L127.125 33.2935L127.471 33.9765L127.265 34.0961C127.172 34.1473 127.055 34.1957 126.915 34.2412C126.775 34.2867 126.613 34.3266 126.429 34.3607C126.245 34.3949 126.043 34.412 125.824 34.412C125.516 34.412 125.229 34.3636 124.963 34.2668C124.696 34.17 124.463 34.0263 124.263 33.8356C124.062 33.645 123.904 33.4116 123.789 33.1355C123.674 32.8595 123.616 32.5422 123.616 32.1836C123.616 31.842 123.672 31.5304 123.785 31.2487C123.897 30.9669 124.054 30.725 124.254 30.5229C124.455 30.3209 124.691 30.1644 124.963 30.0534C125.235 29.9424 125.533 29.8869 125.857 29.8869ZM61.2921 28C61.3909 28 61.4815 28.0128 61.5639 28.0384L61.7286 28.0939V30.5443C61.8659 30.3621 62.0554 30.207 62.297 30.079C62.5387 29.9509 62.816 29.8869 63.129 29.8869C63.431 29.8869 63.7097 29.9424 63.9651 30.0534C64.2204 30.1644 64.4429 30.3209 64.6323 30.5229C64.8218 30.725 64.97 30.9641 65.0771 31.2401C65.1842 31.5162 65.2378 31.8193 65.2378 32.1494C65.2378 32.4739 65.1828 32.7755 65.073 33.0544C64.9632 33.3333 64.8094 33.5724 64.6117 33.7716C64.414 33.9708 64.1793 34.1274 63.9074 34.2412C63.6356 34.355 63.3377 34.412 63.0137 34.412C62.6897 34.412 62.3918 34.3607 62.1199 34.2583C61.8481 34.1558 61.6133 34.0021 61.4156 33.7972C61.2179 33.5923 61.0642 33.3362 60.9543 33.0288C60.8445 32.7215 60.7896 32.36 60.7896 31.9445V28.4525C60.7896 28.2988 60.8335 28.185 60.9214 28.111C61.0093 28.037 61.1328 28 61.2921 28ZM39.1088 29.8869C39.4274 29.8869 39.7253 29.9438 40.0026 30.0576C40.2799 30.1715 40.5202 30.3294 40.7234 30.5315C40.9266 30.7335 41.0858 30.9726 41.2011 31.2487C41.3165 31.5247 41.3741 31.825 41.3741 32.1494C41.3741 32.4682 41.3165 32.7656 41.2011 33.0416C41.0858 33.3177 40.9266 33.5567 40.7234 33.7588C40.5202 33.9609 40.2799 34.1202 40.0026 34.2369C39.7253 34.3536 39.4274 34.412 39.1088 34.412C38.7903 34.412 38.4924 34.3536 38.2151 34.2369C37.9378 34.1202 37.6975 33.9609 37.4943 33.7588C37.2911 33.5567 37.1319 33.3177 37.0166 33.0416C36.9012 32.7656 36.8436 32.4682 36.8436 32.1494C36.8436 31.825 36.9012 31.5247 37.0166 31.2487C37.1319 30.9726 37.2911 30.7335 37.4943 30.5315C37.6975 30.3294 37.9378 30.1715 38.2151 30.0576C38.4924 29.9438 38.7903 29.8869 39.1088 29.8869ZM109.851 29.8869C110.137 29.8869 110.389 29.9253 110.609 30.0021C110.829 30.079 111.014 30.1814 111.165 30.3095C111.316 30.4376 111.43 30.587 111.507 30.7577C111.584 30.9285 111.622 31.1106 111.622 31.3042C111.622 31.5034 111.587 31.6841 111.515 31.8463C111.444 32.0085 111.318 32.148 111.136 32.2647C110.955 32.3814 110.711 32.4724 110.403 32.5379C110.096 32.6033 109.706 32.6361 109.234 32.6361L108.925 32.6318L108.616 32.619C108.66 32.9093 108.796 33.1441 109.023 33.3234C109.251 33.5027 109.577 33.5923 110 33.5923C110.142 33.5923 110.274 33.5809 110.395 33.5582C110.516 33.5354 110.624 33.5069 110.72 33.4728L110.894 33.4045L110.967 33.3703L111.12 33.2935L111.466 33.9765L111.26 34.0961C111.167 34.1473 111.05 34.1957 110.91 34.2412C110.77 34.2867 110.608 34.3266 110.424 34.3607C110.24 34.3949 110.038 34.412 109.818 34.412C109.511 34.412 109.224 34.3636 108.958 34.2668C108.691 34.17 108.458 34.0263 108.257 33.8356C108.057 33.645 107.899 33.4116 107.784 33.1355C107.668 32.8595 107.611 32.5422 107.611 32.1836C107.611 31.842 107.667 31.5304 107.78 31.2487C107.892 30.9669 108.049 30.725 108.249 30.5229C108.45 30.3209 108.686 30.1644 108.958 30.0534C109.229 29.9424 109.527 29.8869 109.851 29.8869ZM58.0383 29.8869C58.3568 29.8869 58.6547 29.9438 58.9321 30.0576C59.2094 30.1715 59.4496 30.3294 59.6528 30.5315C59.856 30.7335 60.0153 30.9726 60.1306 31.2487C60.2459 31.5247 60.3036 31.825 60.3036 32.1494C60.3036 32.4682 60.2459 32.7656 60.1306 33.0416C60.0153 33.3177 59.856 33.5567 59.6528 33.7588C59.4496 33.9609 59.2094 34.1202 58.9321 34.2369C58.6547 34.3536 58.3568 34.412 58.0383 34.412C57.7198 34.412 57.4219 34.3536 57.1446 34.2369C56.8672 34.1202 56.627 33.9609 56.4238 33.7588C56.2206 33.5567 56.0613 33.3177 55.946 33.0416C55.8307 32.7656 55.773 32.4682 55.773 32.1494C55.773 31.825 55.8307 31.5247 55.946 31.2487C56.0613 30.9726 56.2206 30.7335 56.4238 30.5315C56.627 30.3294 56.8672 30.1715 57.1446 30.0576C57.4219 29.9438 57.7198 29.8869 58.0383 29.8869ZM71.457 29.8869C71.7425 29.8869 71.9951 29.9253 72.2148 30.0021C72.4345 30.079 72.6198 30.1814 72.7708 30.3095C72.9219 30.4376 73.0358 30.587 73.1127 30.7577C73.1896 30.9285 73.228 31.1106 73.228 31.3042C73.228 31.5034 73.1923 31.6841 73.1209 31.8463C73.0495 32.0085 72.9232 32.148 72.742 32.2647C72.5608 32.3814 72.3164 32.4724 72.0089 32.5379C71.7013 32.6033 71.3114 32.6361 70.8392 32.6361L70.5303 32.6318L70.2214 32.619C70.2653 32.9093 70.4012 33.1441 70.6291 33.3234C70.857 33.5027 71.1824 33.5923 71.6052 33.5923C71.748 33.5923 71.8798 33.5809 72.0006 33.5582C72.1215 33.5354 72.2299 33.5069 72.326 33.4728L72.4999 33.4045L72.5731 33.3703L72.7255 33.2935L73.0715 33.9765L72.8656 34.0961C72.7722 34.1473 72.6555 34.1957 72.5155 34.2412C72.3754 34.2867 72.2134 34.3266 72.0295 34.3607C71.8455 34.3949 71.6437 34.412 71.424 34.412C71.1165 34.412 70.8296 34.3636 70.5632 34.2668C70.2969 34.17 70.0635 34.0263 69.863 33.8356C69.6626 33.645 69.5047 33.4116 69.3894 33.1355C69.2741 32.8595 69.2164 32.5422 69.2164 32.1836C69.2164 31.842 69.2727 31.5304 69.3853 31.2487C69.4979 30.9669 69.6544 30.725 69.8548 30.5229C70.0553 30.3209 70.2914 30.1644 70.5632 30.0534C70.8351 29.9424 71.133 29.8869 71.457 29.8869ZM101.169 29.8869C101.455 29.8869 101.707 29.9253 101.927 30.0021C102.147 30.079 102.332 30.1814 102.483 30.3095C102.634 30.4376 102.748 30.587 102.825 30.7577C102.902 30.9285 102.94 31.1106 102.94 31.3042C102.94 31.5034 102.904 31.6841 102.833 31.8463C102.762 32.0085 102.635 32.148 102.454 32.2647C102.273 32.3814 102.029 32.4724 101.721 32.5379C101.414 32.6033 101.024 32.6361 100.551 32.6361L100.242 32.6318L99.9335 32.619C99.9775 32.9093 100.113 33.1441 100.341 33.3234C100.569 33.5027 100.895 33.5923 101.317 33.5923C101.46 33.5923 101.592 33.5809 101.713 33.5582C101.834 33.5354 101.942 33.5069 102.038 33.4728L102.212 33.4045L102.285 33.3703L102.438 33.2935L102.784 33.9765L102.578 34.0961C102.484 34.1473 102.368 34.1957 102.228 34.2412C102.088 34.2867 101.926 34.3266 101.742 34.3607C101.558 34.3949 101.356 34.412 101.136 34.412C100.829 34.412 100.542 34.3636 100.275 34.2668C100.009 34.17 99.7757 34.0263 99.5752 33.8356C99.3748 33.645 99.2169 33.4116 99.1016 33.1355C98.9862 32.8595 98.9286 32.5422 98.9286 32.1836C98.9286 31.842 98.9849 31.5304 99.0975 31.2487C99.21 30.9669 99.3665 30.725 99.567 30.5229C99.7674 30.3209 100.004 30.1644 100.275 30.0534C100.547 29.9424 100.845 29.8869 101.169 29.8869ZM95.1147 28.3501C95.6364 28.3501 96.1045 28.4198 96.5192 28.5592C96.9338 28.6987 97.2852 28.8979 97.5735 29.1569C97.8618 29.4159 98.0829 29.7318 98.2366 30.1046C98.3904 30.4774 98.4673 30.8943 98.4673 31.3554C98.4673 31.8221 98.3932 32.2419 98.2449 32.6147C98.0966 32.9876 97.8783 33.3049 97.59 33.5667C97.3017 33.8285 96.9448 34.0292 96.5192 34.1686C96.0936 34.3081 95.6034 34.3778 95.0488 34.3778L94.5828 34.3747L94.1921 34.3653L93.8767 34.3496L93.286 34.2924V28.9904C93.286 28.8424 93.3134 28.7257 93.3684 28.6403C93.4233 28.555 93.5208 28.4909 93.6608 28.4482C93.8008 28.4055 93.9875 28.3785 94.2209 28.3671L94.532 28.3562L94.905 28.3507L95.1147 28.3501ZM36.8271 28.4354C37.1511 28.4354 37.3131 28.5891 37.3131 28.8965C37.3131 29.0046 37.298 29.1028 37.2678 29.191C37.2376 29.2793 37.2115 29.3376 37.1895 29.3661H35.1137V34.2924H34.1335V29.3661H32.486C32.162 29.3661 32 29.2124 32 28.905C32 28.7969 32.0165 28.6987 32.0494 28.6105L32.1043 28.4739C32.1117 28.4577 32.1181 28.4449 32.1236 28.4354H36.8271ZM66.3745 30.0064C66.4734 30.0064 66.564 30.0192 66.6464 30.0448L66.8111 30.1003V34.2924H65.872V30.4589C65.872 30.2995 65.916 30.1843 66.0038 30.1131C66.0917 30.042 66.2153 30.0064 66.3745 30.0064ZM78.1375 28.2817C78.2089 28.2817 78.2789 28.2903 78.3475 28.3074C78.4162 28.3244 78.4766 28.3444 78.5287 28.3671L78.6008 28.4002L78.7223 28.4696L78.8403 28.6977L78.9833 28.9996L79.0642 29.1782C79.2042 29.4913 79.3552 29.8428 79.5172 30.2327L80.0156 31.4536L80.3396 32.2713L80.6941 33.1932L81.1029 34.2924H80.0156L79.9085 34.0021L79.6851 33.3778L79.4555 32.7641H76.6959L76.5792 33.0691L76.2398 33.9947L76.1358 34.2924H75.1473L75.3656 33.698L75.6086 33.0587L75.7816 32.6138L76.144 31.7012C76.3307 31.2373 76.5243 30.7663 76.7248 30.2882L77.1238 29.3471L77.322 28.8879C77.4208 28.6603 77.5334 28.5023 77.6597 28.4141C77.786 28.3259 77.9453 28.2817 78.1375 28.2817ZM106.952 30.0064C107.106 30.0064 107.23 30.0334 107.327 30.0875L107.487 30.1857L107.42 30.3981L107.318 30.6766C107.239 30.8844 107.143 31.1163 107.03 31.3725L106.668 32.175L106.285 32.9904L105.926 33.7289L105.642 34.2924H104.719L104.349 33.572L104.011 32.8965C103.891 32.6515 103.78 32.4215 103.678 32.2063L103.459 31.7311L103.292 31.3486C103.217 31.171 103.154 31.0139 103.105 30.8773L103.036 30.6762C103 30.5598 102.981 30.4788 102.981 30.4333C102.981 30.3138 103.02 30.2127 103.097 30.1302C103.174 30.0477 103.292 30.0064 103.451 30.0064C103.566 30.0064 103.661 30.0178 103.735 30.0406L103.823 30.0704C103.844 30.079 103.857 30.0861 103.863 30.0918C103.973 30.3991 104.091 30.7108 104.217 31.0267C104.301 31.2373 104.385 31.4403 104.468 31.6357L104.713 32.1964L104.938 32.6916L105.205 33.2593L105.368 32.9242L105.543 32.5336C105.664 32.2547 105.781 31.9787 105.893 31.7054L106.333 30.6198C106.357 30.5592 106.376 30.5084 106.392 30.4674C106.447 30.3251 106.512 30.2127 106.589 30.1302C106.666 30.0477 106.787 30.0064 106.952 30.0064ZM54.175 28.4354C54.3342 28.4354 54.4688 28.4568 54.5786 28.4995C54.6884 28.5422 54.7571 28.5777 54.7845 28.6062L54.985 32.2334L55.0494 33.3746L55.0976 34.2924H54.1338L53.957 30.9584L53.8949 29.9296L53.2823 31.2092L52.647 32.5559L52.371 33.1483H51.5637L51.3476 32.6675L50.6494 31.1868L50.2241 30.3095L50.0398 29.9466L49.9008 32.5603L49.8174 34.2924H48.8454L48.8889 33.3623L49.0531 30.3138L49.1337 28.9989C49.1447 28.794 49.2106 28.6489 49.3314 28.5635C49.4522 28.4781 49.5895 28.4354 49.7433 28.4354C49.9135 28.4354 50.0536 28.461 50.1634 28.5123C50.2732 28.5635 50.3501 28.6119 50.394 28.6574L51.366 30.6862L51.9921 31.9616L52.7623 30.3693L53.4419 28.9392C53.5187 28.7741 53.6148 28.6489 53.7302 28.5635C53.8455 28.4781 53.9938 28.4354 54.175 28.4354ZM68.1538 28C68.2526 28 68.3432 28.0128 68.4256 28.0384L68.5904 28.0939V34.2924H67.6513V28.4525C67.6513 28.2988 67.6952 28.185 67.7831 28.111C67.871 28.037 67.9945 28 68.1538 28ZM112.66 28C112.759 28 112.85 28.0128 112.932 28.0384L113.097 28.0939V34.2924H112.158V28.4525C112.158 28.2988 112.202 28.185 112.29 28.111C112.377 28.037 112.501 28 112.66 28ZM129.876 29.8869C130.222 29.8869 130.504 29.9367 130.721 30.0363C130.938 30.1359 131.046 30.2882 131.046 30.4931C131.046 30.5898 131.02 30.6837 130.968 30.7748C130.916 30.8659 130.873 30.9228 130.84 30.9456C130.747 30.9 130.631 30.8573 130.494 30.8175C130.357 30.7777 130.2 30.7577 130.025 30.7577C129.382 30.7577 129.061 31.1106 129.061 31.8164V34.2924H128.122V31.5347C128.122 31.011 128.277 30.6055 128.587 30.318C128.897 30.0306 129.327 29.8869 129.876 29.8869ZM115.996 30.7407C115.804 30.7407 115.63 30.7762 115.473 30.8474C115.317 30.9185 115.182 31.0167 115.07 31.1419C114.957 31.2672 114.869 31.4166 114.806 31.5902C114.743 31.7638 114.711 31.9502 114.711 32.1494C114.711 32.3486 114.743 32.5322 114.806 32.7001C114.869 32.868 114.957 33.016 115.07 33.1441C115.182 33.2721 115.317 33.3718 115.473 33.4429C115.63 33.5141 115.804 33.5496 115.996 33.5496C116.183 33.5496 116.356 33.5141 116.515 33.4429C116.675 33.3718 116.811 33.2721 116.923 33.1441C117.036 33.016 117.124 32.868 117.187 32.7001C117.25 32.5322 117.281 32.3486 117.281 32.1494C117.281 31.9502 117.25 31.7638 117.187 31.5902C117.124 31.4166 117.036 31.2672 116.923 31.1419C116.811 31.0167 116.675 30.9185 116.515 30.8474C116.356 30.7762 116.183 30.7407 115.996 30.7407ZM39.1088 30.7407C38.9166 30.7407 38.7423 30.7762 38.5858 30.8474C38.4293 30.9185 38.2947 31.0167 38.1821 31.1419C38.0696 31.2672 37.9817 31.4166 37.9185 31.5902C37.8554 31.7638 37.8238 31.9502 37.8238 32.1494C37.8238 32.3486 37.8554 32.5322 37.9185 32.7001C37.9817 32.868 38.0696 33.016 38.1821 33.1441C38.2947 33.2721 38.4293 33.3718 38.5858 33.4429C38.7423 33.5141 38.9166 33.5496 39.1088 33.5496C39.2956 33.5496 39.4685 33.5141 39.6278 33.4429C39.7871 33.3718 39.923 33.2721 40.0355 33.1441C40.1481 33.016 40.236 32.868 40.2991 32.7001C40.3623 32.5322 40.3939 32.3486 40.3939 32.1494C40.3939 31.9502 40.3623 31.7638 40.2991 31.5902C40.236 31.4166 40.1481 31.2672 40.0355 31.1419C39.923 31.0167 39.7871 30.9185 39.6278 30.8474C39.4685 30.7762 39.2956 30.7407 39.1088 30.7407ZM58.0383 30.7407C57.8461 30.7407 57.6717 30.7762 57.5152 30.8474C57.3587 30.9185 57.2242 31.0167 57.1116 31.1419C56.999 31.2672 56.9112 31.4166 56.848 31.5902C56.7849 31.7638 56.7533 31.9502 56.7533 32.1494C56.7533 32.3486 56.7849 32.5322 56.848 32.7001C56.9112 32.868 56.999 33.016 57.1116 33.1441C57.2242 33.2721 57.3587 33.3718 57.5152 33.4429C57.6717 33.5141 57.8461 33.5496 58.0383 33.5496C58.225 33.5496 58.398 33.5141 58.5573 33.4429C58.7165 33.3718 58.8524 33.2721 58.965 33.1441C59.0776 33.016 59.1655 32.868 59.2286 32.7001C59.2918 32.5322 59.3233 32.3486 59.3233 32.1494C59.3233 31.9502 59.2918 31.7638 59.2286 31.5902C59.1655 31.4166 59.0776 31.2672 58.965 31.1419C58.8524 31.0167 58.7165 30.9185 58.5573 30.8474C58.398 30.7762 58.225 30.7407 58.0383 30.7407ZM83.5247 30.7663C83.338 30.7663 83.1664 30.8004 83.0099 30.8687C82.8534 30.937 82.7188 31.0309 82.6062 31.1505C82.4937 31.27 82.4058 31.4137 82.3427 31.5816C82.2795 31.7496 82.2479 31.936 82.2479 32.1409C82.2479 32.3401 82.2795 32.5251 82.3427 32.6958C82.4058 32.8666 82.4923 33.0146 82.6021 33.1398C82.712 33.265 82.8451 33.3632 83.0016 33.4344C83.1581 33.5055 83.3325 33.5411 83.5247 33.5411C83.7114 33.5411 83.883 33.5055 84.0396 33.4344C84.1961 33.3632 84.3306 33.265 84.4432 33.1398C84.5558 33.0146 84.6422 32.8666 84.7027 32.6958C84.7631 32.5251 84.7933 32.3401 84.7933 32.1409C84.7933 31.9473 84.7631 31.7666 84.7027 31.5987C84.6422 31.4308 84.5558 31.2857 84.4432 31.1633C84.3306 31.0409 84.1961 30.9441 84.0396 30.873C83.883 30.8018 83.7114 30.7663 83.5247 30.7663ZM88.4671 30.7663C88.2804 30.7663 88.1088 30.8004 87.9523 30.8687C87.7958 30.937 87.6612 31.0309 87.5487 31.1505C87.4361 31.27 87.3482 31.4137 87.2851 31.5816C87.2219 31.7496 87.1903 31.936 87.1903 32.1409C87.1903 32.3401 87.2219 32.5251 87.2851 32.6958C87.3482 32.8666 87.4347 33.0146 87.5445 33.1398C87.6544 33.265 87.7876 33.3632 87.9441 33.4344C88.1006 33.5055 88.2749 33.5411 88.4671 33.5411C88.6538 33.5411 88.8255 33.5055 88.982 33.4344C89.1385 33.3632 89.273 33.265 89.3856 33.1398C89.4982 33.0146 89.5847 32.8666 89.6451 32.6958C89.7055 32.5251 89.7357 32.3401 89.7357 32.1409C89.7357 31.9473 89.7055 31.7666 89.6451 31.5987C89.5847 31.4308 89.4982 31.2857 89.3856 31.1633C89.273 31.0409 89.1385 30.9441 88.982 30.873C88.8255 30.8018 88.6538 30.7663 88.4671 30.7663ZM44.0677 30.7663C43.881 30.7663 43.7094 30.8004 43.5529 30.8687C43.3964 30.937 43.2619 31.0309 43.1493 31.1505C43.0367 31.27 42.9488 31.4137 42.8857 31.5816C42.8225 31.7496 42.7909 31.936 42.7909 32.1409C42.7909 32.3401 42.8225 32.5251 42.8857 32.6958C42.9488 32.8666 43.0353 33.0146 43.1452 33.1398C43.255 33.265 43.3882 33.3632 43.5447 33.4344C43.7012 33.5055 43.8755 33.5411 44.0677 33.5411C44.2545 33.5411 44.4261 33.5055 44.5826 33.4344C44.7391 33.3632 44.8736 33.265 44.9862 33.1398C45.0988 33.0146 45.1853 32.8666 45.2457 32.6958C45.3061 32.5251 45.3363 32.3401 45.3363 32.1409C45.3363 31.9473 45.3061 31.7666 45.2457 31.5987C45.1853 31.4308 45.0988 31.2857 44.9862 31.1633C44.8736 31.0409 44.7391 30.9441 44.5826 30.873C44.4261 30.8018 44.2545 30.7663 44.0677 30.7663ZM120.955 30.7663C120.769 30.7663 120.597 30.8004 120.44 30.8687C120.284 30.937 120.149 31.0309 120.037 31.1505C119.924 31.27 119.836 31.4137 119.773 31.5816C119.71 31.7496 119.679 31.936 119.679 32.1409C119.679 32.3401 119.71 32.5251 119.773 32.6958C119.836 32.8666 119.923 33.0146 120.033 33.1398C120.143 33.265 120.276 33.3632 120.432 33.4344C120.589 33.5055 120.763 33.5411 120.955 33.5411C121.142 33.5411 121.314 33.5055 121.47 33.4344C121.627 33.3632 121.761 33.265 121.874 33.1398C121.986 33.0146 122.073 32.8666 122.133 32.6958C122.194 32.5251 122.224 32.3401 122.224 32.1409C122.224 31.9473 122.194 31.7666 122.133 31.5987C122.073 31.4308 121.986 31.2857 121.874 31.1633C121.761 31.0409 121.627 30.9441 121.47 30.873C121.314 30.8018 121.142 30.7663 120.955 30.7663ZM62.9972 30.7577C62.805 30.7577 62.6306 30.7933 62.4741 30.8645C62.3176 30.9356 62.1844 31.0338 62.0746 31.159C61.9648 31.2842 61.8783 31.4322 61.8151 31.603C61.752 31.7737 61.7204 31.9559 61.7204 32.1494C61.7204 32.3543 61.752 32.5422 61.8151 32.7129C61.8783 32.8837 61.9662 33.0288 62.0787 33.1483C62.1913 33.2679 62.3259 33.3618 62.4824 33.4301C62.6389 33.4984 62.8105 33.5326 62.9972 33.5326C63.1839 33.5326 63.3555 33.497 63.512 33.4258C63.6685 33.3547 63.8031 33.2579 63.9157 33.1355C64.0282 33.0132 64.1147 32.868 64.1751 32.7001C64.2355 32.5322 64.2658 32.3486 64.2658 32.1494C64.2658 31.9502 64.2355 31.7652 64.1751 31.5944C64.1147 31.4237 64.0282 31.2771 63.9157 31.1547C63.8031 31.0324 63.6685 30.9356 63.512 30.8645C63.3555 30.7933 63.1839 30.7577 62.9972 30.7577ZM95.1312 29.2465L94.8432 29.2499L94.6119 29.2602L94.3223 29.2889C94.2937 29.2925 94.275 29.2955 94.2662 29.2978V33.4045C94.2909 33.413 94.3465 33.4224 94.433 33.4325L94.5298 33.4429C94.6726 33.4571 94.8731 33.4642 95.1312 33.4642C95.878 33.4642 96.4491 33.2807 96.8445 32.9136C97.2399 32.5464 97.4376 32.027 97.4376 31.3554C97.4376 31.048 97.3923 30.7649 97.3017 30.5059C97.2111 30.2469 97.0724 30.0249 96.8857 29.8399C96.699 29.6549 96.4601 29.5098 96.1691 29.4045C95.878 29.2992 95.532 29.2465 95.1312 29.2465ZM101.153 30.6382C100.949 30.6382 100.771 30.6752 100.617 30.7492C100.463 30.8232 100.334 30.9214 100.23 31.0438C100.126 31.1661 100.045 31.307 99.9871 31.4664C99.9294 31.6258 99.8979 31.788 99.8924 31.953L100.078 31.9594L100.601 31.9616C100.903 31.9616 101.147 31.9417 101.334 31.9018C101.521 31.862 101.666 31.8107 101.77 31.7481C101.875 31.6855 101.943 31.6144 101.976 31.5347C102.009 31.455 102.026 31.3725 102.026 31.2871C102.026 31.0708 101.942 30.9086 101.775 30.8004C101.607 30.6923 101.4 30.6382 101.153 30.6382ZM109.835 30.6382C109.632 30.6382 109.453 30.6752 109.299 30.7492C109.146 30.8232 109.017 30.9214 108.912 31.0438C108.808 31.1661 108.727 31.307 108.669 31.4664C108.612 31.6258 108.58 31.788 108.575 31.953L108.76 31.9594L109.283 31.9616C109.585 31.9616 109.829 31.9417 110.016 31.9018C110.203 31.862 110.348 31.8107 110.453 31.7481C110.557 31.6855 110.626 31.6144 110.659 31.5347C110.692 31.455 110.708 31.3725 110.708 31.2871C110.708 31.0708 110.624 30.9086 110.457 30.8004C110.289 30.6923 110.082 30.6382 109.835 30.6382ZM71.4405 30.6382C71.2373 30.6382 71.0588 30.6752 70.9051 30.7492C70.7513 30.8232 70.6223 30.9214 70.5179 31.0438C70.4136 31.1661 70.3326 31.307 70.2749 31.4664C70.2172 31.6258 70.1857 31.788 70.1802 31.953L70.3655 31.9594L70.8886 31.9616C71.1906 31.9616 71.435 31.9417 71.6217 31.9018C71.8084 31.862 71.954 31.8107 72.0583 31.7481C72.1626 31.6855 72.2313 31.6144 72.2642 31.5347C72.2972 31.455 72.3137 31.3725 72.3137 31.2871C72.3137 31.0708 72.2299 30.9086 72.0624 30.8004C71.8949 30.6923 71.6876 30.6382 71.4405 30.6382ZM125.84 30.6382C125.637 30.6382 125.458 30.6752 125.305 30.7492C125.151 30.8232 125.022 30.9214 124.917 31.0438C124.813 31.1661 124.732 31.307 124.674 31.4664C124.617 31.6258 124.585 31.788 124.58 31.953L124.765 31.9594L125.288 31.9616C125.59 31.9616 125.835 31.9417 126.021 31.9018C126.208 31.862 126.354 31.8107 126.458 31.7481C126.562 31.6855 126.631 31.6144 126.664 31.5347C126.697 31.455 126.713 31.3725 126.713 31.2871C126.713 31.0708 126.629 30.9086 126.462 30.8004C126.294 30.6923 126.087 30.6382 125.84 30.6382ZM78.0963 29.3148L77.9425 29.662L77.7235 30.1686L77.4455 30.8378L77.3055 31.1846C77.2121 31.418 77.1243 31.6457 77.0419 31.8677H79.126L78.9576 31.418L78.5699 30.429L78.3851 29.9737L78.0963 29.3148ZM66.3416 28.0854C66.5008 28.0854 66.6354 28.1423 66.7452 28.2561C66.855 28.37 66.91 28.5094 66.91 28.6745C66.91 28.8396 66.855 28.979 66.7452 29.0928C66.6354 29.2067 66.5008 29.2636 66.3416 29.2636C66.1823 29.2636 66.0478 29.2067 65.9379 29.0928C65.8281 28.979 65.7732 28.8396 65.7732 28.6745C65.7732 28.5094 65.8281 28.37 65.9379 28.2561C66.0478 28.1423 66.1823 28.0854 66.3416 28.0854ZM37.922 13.144C38.3047 13.144 38.65 13.1673 38.958 13.214C39.266 13.2607 39.5367 13.319 39.77 13.389C40.0033 13.459 40.2017 13.5313 40.365 13.606L40.5838 13.7145C40.6479 13.7495 40.7033 13.7833 40.75 13.816C40.918 13.928 41.0417 14.047 41.121 14.173C41.2003 14.299 41.24 14.4273 41.24 14.558C41.24 14.6793 41.2143 14.7937 41.163 14.901C41.1117 15.0083 41.051 15.1063 40.981 15.195C40.911 15.2837 40.8387 15.3607 40.764 15.426L40.6271 15.538C40.6064 15.5536 40.5867 15.5676 40.568 15.58C40.4653 15.4773 40.3323 15.37 40.169 15.258C40.0057 15.146 39.8097 15.0457 39.581 14.957C39.3523 14.8683 39.098 14.7937 38.818 14.733C38.538 14.6723 38.23 14.642 37.894 14.642C37.3713 14.642 36.8953 14.7237 36.466 14.887C36.0367 15.0503 35.6633 15.286 35.346 15.594C35.0287 15.902 34.7837 16.2777 34.611 16.721C34.4383 17.1643 34.352 17.6613 34.352 18.212C34.352 18.828 34.4453 19.36 34.632 19.808C34.8187 20.256 35.0847 20.6223 35.43 20.907C35.7753 21.1917 36.1837 21.404 36.655 21.544C37.1263 21.684 37.6513 21.754 38.23 21.754C38.489 21.754 38.7217 21.7488 38.9282 21.7383L39.126 21.726L39.434 21.698C39.5133 21.6887 39.5693 21.6793 39.602 21.67V19.136H37.964C37.4133 19.136 37.138 18.8933 37.138 18.408C37.138 18.2213 37.1637 18.058 37.215 17.918C37.2663 17.778 37.3107 17.6847 37.348 17.638H40.246C40.9087 17.638 41.24 17.9553 41.24 18.59V23.014L41.1213 23.0375L40.9443 23.0633L40.127 23.154C39.8517 23.182 39.546 23.2053 39.21 23.224C38.874 23.2427 38.524 23.252 38.16 23.252C37.348 23.252 36.6013 23.1447 35.92 22.93C35.2387 22.7153 34.653 22.398 34.163 21.978C33.673 21.558 33.2903 21.033 33.015 20.403C32.7397 19.773 32.602 19.0427 32.602 18.212C32.602 17.428 32.7373 16.7233 33.008 16.098C33.2787 15.4727 33.652 14.9407 34.128 14.502C34.604 14.0633 35.1663 13.7273 35.815 13.494C36.4637 13.2607 37.166 13.144 37.922 13.144ZM102.434 15.776C103.405 15.776 104.158 15.8833 104.695 16.098C105.232 16.3127 105.5 16.5927 105.5 16.938C105.5 17.05 105.479 17.148 105.437 17.232C105.395 17.316 105.348 17.3907 105.297 17.456C105.246 17.5213 105.192 17.575 105.136 17.617C105.08 17.659 105.038 17.6847 105.01 17.694C104.973 17.6567 104.891 17.5983 104.765 17.519C104.639 17.4397 104.469 17.3603 104.254 17.281C104.039 17.2017 103.783 17.1317 103.484 17.071C103.185 17.0103 102.84 16.98 102.448 16.98C101.365 16.98 100.824 17.2647 100.824 17.834C100.824 18.0767 100.927 18.261 101.132 18.387C101.337 18.513 101.631 18.5993 102.014 18.646L103.442 18.828C104.217 18.9307 104.819 19.143 105.248 19.465C105.677 19.787 105.892 20.2607 105.892 20.886C105.892 21.586 105.614 22.146 105.059 22.566C104.504 22.986 103.703 23.196 102.658 23.196C102.154 23.196 101.697 23.1587 101.286 23.084C100.875 23.0093 100.518 22.923 100.215 22.825C99.9723 22.7466 99.767 22.6697 99.599 22.5943L99.48 22.538L99.2874 22.4372C99.2067 22.3924 99.1496 22.356 99.116 22.328L99.718 21.25C99.7507 21.2733 99.7962 21.3002 99.8545 21.3305L100.068 21.432C100.236 21.5067 100.444 21.5837 100.691 21.663C100.938 21.7423 101.221 21.81 101.538 21.866C101.855 21.922 102.201 21.95 102.574 21.95C103.059 21.95 103.456 21.887 103.764 21.761C104.072 21.635 104.226 21.418 104.226 21.11C104.226 20.8487 104.128 20.6503 103.932 20.515C103.76 20.3966 103.471 20.3085 103.064 20.2509L101.79 20.102C101.417 20.0647 101.074 19.997 100.761 19.899C100.448 19.801 100.18 19.668 99.956 19.5C99.732 19.332 99.557 19.1243 99.431 18.877C99.305 18.6297 99.242 18.3333 99.242 17.988C99.242 17.6893 99.3003 17.407 99.417 17.141C99.5337 16.875 99.718 16.6393 99.97 16.434C100.222 16.2287 100.551 16.0677 100.957 15.951C101.363 15.8343 101.855 15.776 102.434 15.776ZM66.944 12.682C67.112 12.682 67.266 12.703 67.406 12.745L67.6423 12.8198C67.6598 12.8259 67.6743 12.8313 67.686 12.836V19.15C67.686 19.8313 67.5903 20.424 67.399 20.928C67.2077 21.432 66.944 21.852 66.608 22.188C66.272 22.524 65.8753 22.776 65.418 22.944C64.9607 23.112 64.4613 23.196 63.92 23.196C63.3693 23.196 62.863 23.1027 62.401 22.916C61.939 22.7293 61.54 22.4727 61.204 22.146C60.868 21.8193 60.6043 21.4273 60.413 20.97C60.2217 20.5127 60.126 20.018 60.126 19.486C60.126 18.9447 60.217 18.4477 60.399 17.995C60.581 17.5423 60.833 17.1503 61.155 16.819C61.477 16.4877 61.855 16.231 62.289 16.049C62.723 15.867 63.1967 15.776 63.71 15.776C64.2513 15.776 64.7273 15.881 65.138 16.091C65.5487 16.301 65.8707 16.5553 66.104 16.854V13.424C66.104 13.172 66.1763 12.9853 66.321 12.864C66.4657 12.7427 66.6733 12.682 66.944 12.682ZM55.212 15.776C55.7533 15.776 56.2597 15.8693 56.731 16.056C57.2023 16.2427 57.6107 16.5017 57.956 16.833C58.3013 17.1643 58.572 17.5563 58.768 18.009C58.964 18.4617 59.062 18.954 59.062 19.486C59.062 20.0087 58.964 20.4963 58.768 20.949C58.572 21.4017 58.3013 21.7937 57.956 22.125C57.6107 22.4563 57.2023 22.7177 56.731 22.909C56.2597 23.1003 55.7533 23.196 55.212 23.196C54.6707 23.196 54.1643 23.1003 53.693 22.909C53.2217 22.7177 52.8133 22.4563 52.468 22.125C52.1227 21.7937 51.852 21.4017 51.656 20.949C51.46 20.4963 51.362 20.0087 51.362 19.486C51.362 18.954 51.46 18.4617 51.656 18.009C51.852 17.5563 52.1227 17.1643 52.468 16.833C52.8133 16.5017 53.2217 16.2427 53.693 16.056C54.1643 15.8693 54.6707 15.776 55.212 15.776ZM46.448 15.776C46.9893 15.776 47.4957 15.8693 47.967 16.056C48.4383 16.2427 48.8467 16.5017 49.192 16.833C49.5373 17.1643 49.808 17.5563 50.004 18.009C50.2 18.4617 50.298 18.954 50.298 19.486C50.298 20.0087 50.2 20.4963 50.004 20.949C49.808 21.4017 49.5373 21.7937 49.192 22.125C48.8467 22.4563 48.4383 22.7177 47.967 22.909C47.4957 23.1003 46.9893 23.196 46.448 23.196C45.9067 23.196 45.4003 23.1003 44.929 22.909C44.4577 22.7177 44.0493 22.4563 43.704 22.125C43.3587 21.7937 43.088 21.4017 42.892 20.949C42.696 20.4963 42.598 20.0087 42.598 19.486C42.598 18.954 42.696 18.4617 42.892 18.009C43.088 17.5563 43.3587 17.1643 43.704 16.833C44.0493 16.5017 44.4577 16.2427 44.929 16.056C45.4003 15.8693 45.9067 15.776 46.448 15.776ZM94.86 15.776C95.2893 15.776 95.6907 15.832 96.064 15.944C96.4373 16.056 96.7593 16.224 97.03 16.448C97.3007 16.672 97.5153 16.952 97.674 17.288C97.8327 17.624 97.912 18.016 97.912 18.464V23H96.316V19.01C96.316 18.366 96.1713 17.9063 95.882 17.631C95.5927 17.3557 95.2007 17.218 94.706 17.218C94.23 17.218 93.831 17.372 93.509 17.68C93.187 17.988 93.026 18.4873 93.026 19.178V23H91.43V19.178C91.43 18.4873 91.269 17.988 90.947 17.68C90.625 17.372 90.226 17.218 89.75 17.218C89.2647 17.218 88.8727 17.358 88.574 17.638C88.2753 17.918 88.126 18.38 88.126 19.024V23H86.53V18.478C86.53 18.03 86.6093 17.638 86.768 17.302C86.9267 16.966 87.1437 16.686 87.419 16.462C87.6943 16.238 88.0187 16.0677 88.392 15.951C88.7653 15.8343 89.1713 15.776 89.61 15.776C90.1887 15.776 90.7067 15.8833 91.164 16.098C91.6213 16.3127 91.9853 16.63 92.256 17.05C92.5267 16.63 92.886 16.3127 93.334 16.098C93.782 15.8833 94.2907 15.776 94.86 15.776ZM83.688 15.776C84.276 15.776 84.7543 15.8577 85.123 16.021C85.4917 16.1843 85.676 16.434 85.676 16.77C85.676 16.9287 85.6317 17.0827 85.543 17.232L85.4444 17.3843C85.3991 17.447 85.3596 17.4896 85.326 17.512C85.1673 17.4373 84.9713 17.3673 84.738 17.302C84.5047 17.2367 84.2387 17.204 83.94 17.204C82.848 17.204 82.302 17.7827 82.302 18.94V23H80.706V18.478C80.706 17.6193 80.9697 16.9543 81.497 16.483C82.0243 16.0117 82.7547 15.776 83.688 15.776ZM78.256 15.972C78.424 15.972 78.578 15.993 78.718 16.035L78.9542 16.1098C78.9717 16.1159 78.9863 16.1213 78.998 16.126V23H77.402V16.714C77.402 16.4527 77.4767 16.2637 77.626 16.147C77.7753 16.0303 77.9853 15.972 78.256 15.972ZM75.358 13.396C75.918 13.396 76.198 13.648 76.198 14.152C76.198 14.3293 76.17 14.4903 76.114 14.635L76.0405 14.8153L75.988 14.922H71.06V17.47H74.952C75.512 17.47 75.792 17.722 75.792 18.226C75.792 18.4033 75.764 18.5643 75.708 18.709L75.6345 18.8892L75.582 18.996H71.06V23H69.366V14.348C69.366 13.7133 69.7067 13.396 70.388 13.396H75.358ZM55.212 17.176C54.8853 17.176 54.589 17.2343 54.323 17.351C54.057 17.4677 53.8283 17.6287 53.637 17.834C53.4457 18.0393 53.2963 18.2843 53.189 18.569C53.0817 18.8537 53.028 19.1593 53.028 19.486C53.028 19.8127 53.0817 20.1137 53.189 20.389C53.2963 20.6643 53.4457 20.907 53.637 21.117C53.8283 21.327 54.057 21.4903 54.323 21.607C54.589 21.7237 54.8853 21.782 55.212 21.782C55.5293 21.782 55.8233 21.7237 56.094 21.607C56.3647 21.4903 56.5957 21.327 56.787 21.117C56.9783 20.907 57.1277 20.6643 57.235 20.389C57.3423 20.1137 57.396 19.8127 57.396 19.486C57.396 19.1593 57.3423 18.8537 57.235 18.569C57.1277 18.2843 56.9783 18.0393 56.787 17.834C56.5957 17.6287 56.3647 17.4677 56.094 17.351C55.8233 17.2343 55.5293 17.176 55.212 17.176ZM46.448 17.176C46.1213 17.176 45.825 17.2343 45.559 17.351C45.293 17.4677 45.0643 17.6287 44.873 17.834C44.6817 18.0393 44.5323 18.2843 44.425 18.569C44.3177 18.8537 44.264 19.1593 44.264 19.486C44.264 19.8127 44.3177 20.1137 44.425 20.389C44.5323 20.6643 44.6817 20.907 44.873 21.117C45.0643 21.327 45.293 21.4903 45.559 21.607C45.825 21.7237 46.1213 21.782 46.448 21.782C46.7653 21.782 47.0593 21.7237 47.33 21.607C47.6007 21.4903 47.8317 21.327 48.023 21.117C48.2143 20.907 48.3637 20.6643 48.471 20.389C48.5783 20.1137 48.632 19.8127 48.632 19.486C48.632 19.1593 48.5783 18.8537 48.471 18.569C48.3637 18.2843 48.2143 18.0393 48.023 17.834C47.8317 17.6287 47.6007 17.4677 47.33 17.351C47.0593 17.2343 46.7653 17.176 46.448 17.176ZM63.948 17.204C63.6213 17.204 63.3273 17.2623 63.066 17.379C62.8047 17.4957 62.5783 17.6543 62.387 17.855C62.1957 18.0557 62.0487 18.296 61.946 18.576C61.8433 18.856 61.792 19.1593 61.792 19.486C61.792 19.8127 61.8433 20.1137 61.946 20.389C62.0487 20.6643 62.1957 20.9023 62.387 21.103C62.5783 21.3037 62.8047 21.4623 63.066 21.579C63.3273 21.6957 63.6213 21.754 63.948 21.754C64.2653 21.754 64.557 21.698 64.823 21.586C65.089 21.474 65.3153 21.32 65.502 21.124C65.6887 20.928 65.8357 20.69 65.943 20.41C66.0503 20.13 66.104 19.822 66.104 19.486C66.104 19.1687 66.0503 18.87 65.943 18.59C65.8357 18.31 65.6887 18.0673 65.502 17.862C65.3153 17.6567 65.089 17.4957 64.823 17.379C64.557 17.2623 64.2653 17.204 63.948 17.204ZM78.2 12.822C78.4707 12.822 78.6993 12.9153 78.886 13.102C79.0727 13.2887 79.166 13.5173 79.166 13.788C79.166 14.0587 79.0727 14.2873 78.886 14.474C78.6993 14.6607 78.4707 14.754 78.2 14.754C77.9293 14.754 77.7007 14.6607 77.514 14.474C77.3273 14.2873 77.234 14.0587 77.234 13.788C77.234 13.5173 77.3273 13.2887 77.514 13.102C77.7007 12.9153 77.9293 12.822 78.2 12.822Z" fill="white"/>
</svg>
