<svg width="138" height="48" viewBox="0 0 138 48" fill="none" xmlns="http://www.w3.org/2000/svg">
<path d="M125.876 26H11.1238C12.108 33.8926 18.8408 40 27 40H110C118.159 40 124.892 33.8926 125.876 26ZM27 6H110C119.941 6 128 14.0589 128 24C128 33.9411 119.941 42 110 42H27C17.0589 42 9 33.9411 9 24C9 14.0589 17.0589 6 27 6ZM44.585 13.4849V12.1797H38.2148V13.4849H40.5781V20H42.1895V13.4849H44.585ZM45.1597 17.0405V17.1533C45.1597 17.5794 45.2205 17.9724 45.3423 18.3323C45.464 18.6921 45.6422 19.0037 45.8767 19.2668C46.1112 19.53 46.3995 19.7359 46.7415 19.8845C47.0834 20.0331 47.4746 20.1074 47.915 20.1074C48.3555 20.1074 48.7458 20.0331 49.0859 19.8845C49.4261 19.7359 49.7135 19.53 49.948 19.2668C50.1825 19.0037 50.3607 18.6921 50.4824 18.3323C50.6042 17.9724 50.665 17.5794 50.665 17.1533V17.0405C50.665 16.618 50.6042 16.2259 50.4824 15.8643C50.3607 15.5026 50.1825 15.1902 49.948 14.927C49.7135 14.6638 49.4243 14.457 49.0806 14.3066C48.7368 14.1562 48.3447 14.0811 47.9043 14.0811C47.4674 14.0811 47.078 14.1562 46.7361 14.3066C46.3941 14.457 46.1068 14.6638 45.874 14.927C45.6413 15.1902 45.464 15.5026 45.3423 15.8643C45.2205 16.2259 45.1597 16.618 45.1597 17.0405ZM46.7119 17.1533V17.0405C46.7119 16.8114 46.7334 16.5938 46.7764 16.3879C46.8193 16.182 46.8883 16.0012 46.9832 15.8455C47.078 15.6897 47.2016 15.5662 47.3538 15.4749C47.5059 15.3835 47.6895 15.3379 47.9043 15.3379C48.1227 15.3379 48.3089 15.3835 48.4629 15.4749C48.6169 15.5662 48.7422 15.6897 48.8389 15.8455C48.9355 16.0012 49.0054 16.182 49.0483 16.3879C49.0913 16.5938 49.1128 16.8114 49.1128 17.0405V17.1533C49.1128 17.3896 49.0913 17.6117 49.0483 17.8193C49.0054 18.027 48.9355 18.2069 48.8389 18.3591C48.7422 18.5113 48.6178 18.6322 48.4656 18.7217C48.3134 18.8112 48.1299 18.856 47.915 18.856C47.693 18.856 47.5059 18.8112 47.3538 18.7217C47.2016 18.6322 47.078 18.5113 46.9832 18.3591C46.8883 18.2069 46.8193 18.027 46.7764 17.8193C46.7334 17.6117 46.7119 17.3896 46.7119 17.1533ZM56.8525 17.1479V17.0352C56.8525 16.5947 56.8033 16.1928 56.7048 15.8293C56.6064 15.4659 56.4622 15.1544 56.2725 14.8948C56.0827 14.6352 55.8464 14.4347 55.5635 14.2932C55.2806 14.1518 54.9548 14.0811 54.5859 14.0811C54.2601 14.0811 53.9781 14.1401 53.74 14.2583C53.5019 14.3765 53.2933 14.543 53.1143 14.7578L53.0605 14.1885H51.6211V22.2344H53.1733V19.4951C53.3452 19.6885 53.5484 19.8389 53.783 19.9463C54.0175 20.0537 54.2887 20.1074 54.5967 20.1074C54.9619 20.1074 55.2851 20.0322 55.5662 19.8818C55.8473 19.7314 56.0827 19.5247 56.2725 19.2615C56.4622 18.9983 56.6064 18.6859 56.7048 18.3242C56.8033 17.9626 56.8525 17.5705 56.8525 17.1479ZM55.3003 17.0352V17.1479C55.3003 17.3807 55.2806 17.6009 55.2412 17.8086C55.2018 18.0163 55.1383 18.198 55.0505 18.3538C54.9628 18.5095 54.8482 18.6322 54.7068 18.7217C54.5653 18.8112 54.3926 18.856 54.1885 18.856C53.9271 18.856 53.7149 18.8049 53.552 18.7029C53.3891 18.6008 53.2629 18.4603 53.1733 18.2812V15.9019C53.2629 15.7192 53.3891 15.5805 53.552 15.4856C53.7149 15.3907 53.9235 15.3433 54.1777 15.3433C54.3818 15.3433 54.5546 15.3862 54.696 15.4722C54.8375 15.5581 54.953 15.6772 55.0425 15.8293C55.132 15.9815 55.1973 16.1606 55.2385 16.3665C55.2797 16.5723 55.3003 16.7952 55.3003 17.0352ZM60.6553 20H63.0454C63.5754 20 64.0605 19.9105 64.501 19.7314C64.9414 19.5524 65.3201 19.2991 65.637 18.9714C65.9539 18.6438 66.1991 18.2517 66.3728 17.7952C66.5465 17.3386 66.6333 16.8311 66.6333 16.2725V15.918C66.6333 15.3594 66.5456 14.8509 66.3701 14.3926C66.1947 13.9342 65.9503 13.5413 65.637 13.2136C65.3236 12.886 64.9477 12.6318 64.509 12.4509C64.0704 12.2701 63.5879 12.1797 63.0615 12.1797H60.6553V20ZM62.2666 13.4849H63.0615C63.6953 13.4849 64.1769 13.6899 64.5063 14.0999C64.8358 14.5098 65.0005 15.1123 65.0005 15.9072V16.2725C65.0005 17.0531 64.834 17.6537 64.501 18.0745C64.168 18.4952 63.6828 18.7056 63.0454 18.7056H62.2666V13.4849ZM70.377 20.1074C70.6598 20.1074 70.9203 20.0779 71.1584 20.0188C71.3966 19.9597 71.6105 19.8809 71.8003 19.7825C71.9901 19.684 72.1548 19.5721 72.2944 19.4468C72.4341 19.3215 72.5505 19.1925 72.6436 19.0601L71.8809 18.2061C71.709 18.4281 71.5031 18.5919 71.2632 18.6975C71.0233 18.8031 70.7619 18.856 70.479 18.856C70.2785 18.856 70.0977 18.8255 69.9365 18.7646C69.7754 18.7038 69.6348 18.6187 69.5149 18.5095C69.3949 18.4003 69.2965 18.2687 69.2195 18.1147C69.1425 17.9608 69.0915 17.7889 69.0664 17.5991H72.7671V16.9385C72.7671 16.5088 72.7125 16.1185 72.6033 15.7676C72.4941 15.4167 72.3311 15.1168 72.1145 14.8679C71.8979 14.6191 71.6302 14.4257 71.3115 14.2878C70.9928 14.15 70.624 14.0811 70.2051 14.0811C69.7897 14.0811 69.4146 14.1554 69.0798 14.304C68.745 14.4526 68.4604 14.6593 68.2258 14.9243C67.9913 15.1893 67.8105 15.5053 67.6833 15.8723C67.5562 16.2393 67.4927 16.6431 67.4927 17.0835V17.293C67.4927 17.6833 67.558 18.0494 67.6887 18.3914C67.8194 18.7333 68.0092 19.0314 68.2581 19.2856C68.5069 19.5399 68.8095 19.7404 69.1658 19.8872C69.5221 20.034 69.9258 20.1074 70.377 20.1074ZM70.1997 15.3379C70.3787 15.3379 70.5336 15.3647 70.6643 15.4185C70.795 15.4722 70.9024 15.5474 70.9866 15.644C71.0707 15.7407 71.1334 15.8553 71.1746 15.9878C71.2157 16.1203 71.2381 16.2635 71.2417 16.4175V16.541H69.0825C69.1076 16.362 69.1488 16.1991 69.2061 16.0522C69.2633 15.9054 69.3376 15.7792 69.429 15.6736C69.5203 15.568 69.6295 15.4856 69.7566 15.4265C69.8837 15.3674 70.0314 15.3379 70.1997 15.3379ZM75.8232 18.104L74.7437 14.1885H73.1216L75.082 20H76.5645L78.5249 14.1885H76.9028L75.8232 18.104ZM81.8818 20.1074C82.1647 20.1074 82.4252 20.0779 82.6633 20.0188C82.9015 19.9597 83.1154 19.8809 83.3052 19.7825C83.495 19.684 83.6597 19.5721 83.7993 19.4468C83.939 19.3215 84.0553 19.1925 84.1484 19.0601L83.3857 18.2061C83.2139 18.4281 83.008 18.5919 82.7681 18.6975C82.5282 18.8031 82.2668 18.856 81.9839 18.856C81.7834 18.856 81.6025 18.8255 81.4414 18.7646C81.2803 18.7038 81.1397 18.6187 81.0198 18.5095C80.8998 18.4003 80.8014 18.2687 80.7244 18.1147C80.6474 17.9608 80.5964 17.7889 80.5713 17.5991H84.272V16.9385C84.272 16.5088 84.2174 16.1185 84.1082 15.7676C83.9989 15.4167 83.836 15.1168 83.6194 14.8679C83.4027 14.6191 83.1351 14.4257 82.8164 14.2878C82.4977 14.15 82.1289 14.0811 81.71 14.0811C81.2946 14.0811 80.9195 14.1554 80.5847 14.304C80.2499 14.4526 79.9652 14.6593 79.7307 14.9243C79.4962 15.1893 79.3153 15.5053 79.1882 15.8723C79.0611 16.2393 78.9976 16.6431 78.9976 17.0835V17.293C78.9976 17.6833 79.0629 18.0494 79.1936 18.3914C79.3243 18.7333 79.5141 19.0314 79.7629 19.2856C80.0118 19.5399 80.3144 19.7404 80.6707 19.8872C81.0269 20.034 81.4307 20.1074 81.8818 20.1074ZM81.7046 15.3379C81.8836 15.3379 82.0385 15.3647 82.1692 15.4185C82.2999 15.4722 82.4073 15.5474 82.4915 15.644C82.5756 15.7407 82.6383 15.8553 82.6794 15.9878C82.7206 16.1203 82.743 16.2635 82.7466 16.4175V16.541H80.5874C80.6125 16.362 80.6536 16.1991 80.7109 16.0522C80.7682 15.9054 80.8425 15.7792 80.9338 15.6736C81.0251 15.568 81.1344 15.4856 81.2615 15.4265C81.3886 15.3674 81.5363 15.3379 81.7046 15.3379ZM86.791 20V11.75H85.2334V20H86.791ZM87.8276 17.0405V17.1533C87.8276 17.5794 87.8885 17.9724 88.0103 18.3323C88.132 18.6921 88.3101 19.0037 88.5447 19.2668C88.7792 19.53 89.0675 19.7359 89.4094 19.8845C89.7514 20.0331 90.1426 20.1074 90.583 20.1074C91.0234 20.1074 91.4137 20.0331 91.7539 19.8845C92.0941 19.7359 92.3814 19.53 92.616 19.2668C92.8505 19.0037 93.0286 18.6921 93.1504 18.3323C93.2721 17.9724 93.333 17.5794 93.333 17.1533V17.0405C93.333 16.618 93.2721 16.2259 93.1504 15.8643C93.0286 15.5026 92.8505 15.1902 92.616 14.927C92.3814 14.6638 92.0923 14.457 91.7485 14.3066C91.4048 14.1562 91.0127 14.0811 90.5723 14.0811C90.1354 14.0811 89.746 14.1562 89.4041 14.3066C89.0621 14.457 88.7747 14.6638 88.542 14.927C88.3092 15.1902 88.132 15.5026 88.0103 15.8643C87.8885 16.2259 87.8276 16.618 87.8276 17.0405ZM89.3799 17.1533V17.0405C89.3799 16.8114 89.4014 16.5938 89.4443 16.3879C89.4873 16.182 89.5562 16.0012 89.6511 15.8455C89.746 15.6897 89.8695 15.5662 90.0217 15.4749C90.1739 15.3835 90.3574 15.3379 90.5723 15.3379C90.7907 15.3379 90.9769 15.3835 91.1309 15.4749C91.2848 15.5662 91.4102 15.6897 91.5068 15.8455C91.6035 16.0012 91.6733 16.182 91.7163 16.3879C91.7593 16.5938 91.7808 16.8114 91.7808 17.0405V17.1533C91.7808 17.3896 91.7593 17.6117 91.7163 17.8193C91.6733 18.027 91.6035 18.2069 91.5068 18.3591C91.4102 18.5113 91.2857 18.6322 91.1335 18.7217C90.9814 18.8112 90.7979 18.856 90.583 18.856C90.361 18.856 90.1739 18.8112 90.0217 18.7217C89.8695 18.6322 89.746 18.5113 89.6511 18.3591C89.5562 18.2069 89.4873 18.027 89.4443 17.8193C89.4014 17.6117 89.3799 17.3896 89.3799 17.1533ZM99.5205 17.1479V17.0352C99.5205 16.5947 99.4713 16.1928 99.3728 15.8293C99.2743 15.4659 99.1302 15.1544 98.9404 14.8948C98.7506 14.6352 98.5143 14.4347 98.2314 14.2932C97.9486 14.1518 97.6227 14.0811 97.2539 14.0811C96.9281 14.0811 96.6461 14.1401 96.408 14.2583C96.1698 14.3765 95.9613 14.543 95.7822 14.7578L95.7285 14.1885H94.2891V22.2344H95.8413V19.4951C96.0132 19.6885 96.2164 19.8389 96.4509 19.9463C96.6855 20.0537 96.9567 20.1074 97.2646 20.1074C97.6299 20.1074 97.953 20.0322 98.2341 19.8818C98.5152 19.7314 98.7506 19.5247 98.9404 19.2615C99.1302 18.9983 99.2743 18.6859 99.3728 18.3242C99.4713 17.9626 99.5205 17.5705 99.5205 17.1479ZM97.9683 17.0352V17.1479C97.9683 17.3807 97.9486 17.6009 97.9092 17.8086C97.8698 18.0163 97.8062 18.198 97.7185 18.3538C97.6308 18.5095 97.5162 18.6322 97.3748 18.7217C97.2333 18.8112 97.0605 18.856 96.8564 18.856C96.595 18.856 96.3829 18.8049 96.22 18.7029C96.057 18.6008 95.9308 18.4603 95.8413 18.2812V15.9019C95.9308 15.7192 96.057 15.5805 96.22 15.4856C96.3829 15.3907 96.5915 15.3433 96.8457 15.3433C97.0498 15.3433 97.2226 15.3862 97.364 15.4722C97.5055 15.5581 97.6209 15.6772 97.7104 15.8293C97.8 15.9815 97.8653 16.1606 97.9065 16.3665C97.9477 16.5723 97.9683 16.7952 97.9683 17.0352ZM103.157 20.1074C103.44 20.1074 103.7 20.0779 103.938 20.0188C104.176 19.9597 104.39 19.8809 104.58 19.7825C104.77 19.684 104.935 19.5721 105.074 19.4468C105.214 19.3215 105.33 19.1925 105.423 19.0601L104.661 18.2061C104.489 18.4281 104.283 18.5919 104.043 18.6975C103.803 18.8031 103.542 18.856 103.259 18.856C103.058 18.856 102.877 18.8255 102.716 18.7646C102.555 18.7038 102.415 18.6187 102.295 18.5095C102.175 18.4003 102.076 18.2687 101.999 18.1147C101.922 17.9608 101.871 17.7889 101.846 17.5991H105.547V16.9385C105.547 16.5088 105.492 16.1185 105.383 15.7676C105.274 15.4167 105.111 15.1168 104.894 14.8679C104.678 14.6191 104.41 14.4257 104.091 14.2878C103.773 14.15 103.404 14.0811 102.985 14.0811C102.569 14.0811 102.194 14.1554 101.86 14.304C101.525 14.4526 101.24 14.6593 101.006 14.9243C100.771 15.1893 100.59 15.5053 100.463 15.8723C100.336 16.2393 100.272 16.6431 100.272 17.0835V17.293C100.272 17.6833 100.338 18.0494 100.469 18.3914C100.599 18.7333 100.789 19.0314 101.038 19.2856C101.287 19.5399 101.589 19.7404 101.946 19.8872C102.302 20.034 102.706 20.1074 103.157 20.1074ZM102.979 15.3379C103.159 15.3379 103.313 15.3647 103.444 15.4185C103.575 15.4722 103.682 15.5474 103.766 15.644C103.851 15.7407 103.913 15.8553 103.954 15.9878C103.996 16.1203 104.018 16.2635 104.021 16.4175V16.541H101.862C101.887 16.362 101.929 16.1991 101.986 16.0522C102.043 15.9054 102.117 15.7792 102.209 15.6736C102.3 15.568 102.409 15.4856 102.536 15.4265C102.663 15.3674 102.811 15.3379 102.979 15.3379ZM109.693 15.644L109.715 14.1509C109.658 14.133 109.583 14.1169 109.492 14.1025C109.401 14.0882 109.314 14.0811 109.231 14.0811C108.945 14.0811 108.694 14.1518 108.479 14.2932C108.265 14.4347 108.084 14.6307 107.937 14.8813L107.894 14.1885H106.428V20H107.98V16.1973C108.069 16.0039 108.208 15.8562 108.396 15.7542C108.584 15.6521 108.83 15.6011 109.135 15.6011C109.217 15.6011 109.311 15.6055 109.417 15.6145C109.522 15.6235 109.615 15.6333 109.693 15.644ZM113.587 18.394C113.587 18.5767 113.511 18.7244 113.359 18.8372C113.207 18.95 112.982 19.0063 112.685 19.0063C112.545 19.0063 112.412 18.9902 112.285 18.958C112.158 18.9258 112.046 18.8757 111.949 18.8076C111.853 18.7396 111.775 18.651 111.716 18.5417C111.656 18.4325 111.623 18.3027 111.616 18.1523H110.145C110.145 18.3887 110.198 18.6232 110.306 18.856C110.413 19.0887 110.573 19.2982 110.786 19.4844C110.999 19.6706 111.262 19.821 111.573 19.9355C111.885 20.0501 112.245 20.1074 112.653 20.1074C113.025 20.1074 113.362 20.0627 113.663 19.9731C113.963 19.8836 114.22 19.7601 114.433 19.6025C114.646 19.445 114.81 19.2579 114.925 19.0413C115.039 18.8246 115.097 18.5874 115.097 18.3296C115.097 18.0431 115.041 17.7987 114.93 17.5964C114.819 17.3941 114.666 17.2222 114.471 17.0808C114.276 16.9394 114.044 16.8239 113.775 16.7344C113.507 16.6449 113.215 16.5697 112.9 16.5088C112.699 16.4694 112.53 16.4264 112.392 16.3799C112.254 16.3333 112.143 16.2823 112.059 16.2268C111.975 16.1713 111.914 16.1104 111.877 16.0442C111.839 15.9779 111.82 15.9019 111.82 15.8159C111.82 15.6333 111.892 15.4829 112.035 15.3647C112.178 15.2466 112.381 15.1875 112.642 15.1875C112.946 15.1875 113.17 15.26 113.313 15.405C113.457 15.55 113.528 15.7336 113.528 15.9556H115.081C115.081 15.6834 115.024 15.4328 114.911 15.2036C114.799 14.9744 114.637 14.7766 114.428 14.6101C114.219 14.4436 113.963 14.3138 113.663 14.2207C113.362 14.1276 113.023 14.0811 112.647 14.0811C112.286 14.0811 111.961 14.1294 111.673 14.2261C111.384 14.3228 111.141 14.4543 110.942 14.6208C110.743 14.7874 110.591 14.9798 110.486 15.1982C110.38 15.4167 110.327 15.6476 110.327 15.8911C110.327 16.1418 110.379 16.362 110.483 16.5518C110.587 16.7415 110.731 16.908 110.915 17.0513C111.1 17.1945 111.318 17.3145 111.571 17.4111C111.823 17.5078 112.098 17.5884 112.395 17.6528C112.639 17.703 112.837 17.7549 112.991 17.8086C113.145 17.8623 113.267 17.9187 113.356 17.9778C113.446 18.0369 113.507 18.1004 113.539 18.1685C113.571 18.2365 113.587 18.3117 113.587 18.394ZM27.5326 8.1118C24.7497 8.17732 22.3764 10.1461 21.7978 12.8689L21.3231 15.1027L20.4946 16.4741C20.4795 16.4992 20.4656 16.5249 20.4531 16.5514C20.249 16.9827 20.4332 17.4978 20.8646 17.7019L21.5606 18.0312V20.586C21.5606 21.3813 22.2053 22.026 23.0006 22.026H24.4462C24.8438 22.026 25.1662 22.3483 25.1662 22.746V23.424C25.1662 23.7421 25.4241 24 25.7422 24H32.7074C32.7606 24 32.8133 23.9902 32.8629 23.971C33.0855 23.8851 33.1962 23.635 33.1104 23.4125C33.0317 23.2088 32.9779 23.0239 32.949 22.8576C32.8943 22.5431 32.8669 22.1884 32.8669 21.7935C32.8669 20.8071 33.4187 18.9309 34.5224 16.1648C34.8634 14.9091 35.0218 14.0105 34.9976 13.469C34.8602 10.3977 32.2927 7.99973 29.2192 8.07208L27.5326 8.1118ZM25.995 13.495L24.49 15L25.995 16.505C26.2683 16.7784 26.2683 17.2216 25.995 17.495C25.7216 17.7683 25.2784 17.7683 25.005 17.495L23.005 15.495C22.7317 15.2216 22.7317 14.7784 23.005 14.505L25.005 12.505C25.2784 12.2317 25.7216 12.2317 25.995 12.505C26.2683 12.7784 26.2683 13.2216 25.995 13.495ZM30.005 13.495C29.7317 13.2216 29.7317 12.7784 30.005 12.505C30.2784 12.2317 30.7216 12.2317 30.995 12.505L32.995 14.505C33.2683 14.7784 33.2683 15.2216 32.995 15.495L30.995 17.495C30.7216 17.7683 30.2784 17.7683 30.005 17.495C29.7317 17.2216 29.7317 16.7784 30.005 16.505L31.5101 15L30.005 13.495ZM28.0374 11.8932C28.126 11.5169 28.5028 11.2836 28.8791 11.3722C29.2555 11.4607 29.4888 11.8376 29.4002 12.2139L27.9814 18.2439C27.8928 18.6202 27.516 18.8535 27.1397 18.7649C26.7633 18.6764 26.5301 18.2995 26.6186 17.9232L28.0374 11.8932ZM25.7891 30.2617H24.0469V35H22.875V30.2617H21.1562V29.3125H25.7891V30.2617ZM26.207 32.8477C26.207 32.5404 26.2513 32.2552 26.3398 31.9922C26.4284 31.7292 26.5573 31.502 26.7266 31.3105C26.8958 31.1191 27.1048 30.9688 27.3535 30.8594C27.6022 30.75 27.8854 30.6953 28.2031 30.6953C28.5234 30.6953 28.8086 30.75 29.0586 30.8594C29.3086 30.9688 29.5189 31.1191 29.6895 31.3105C29.86 31.502 29.9896 31.7292 30.0781 31.9922C30.1667 32.2552 30.2109 32.5404 30.2109 32.8477V32.9297C30.2109 33.2396 30.1667 33.5254 30.0781 33.7871C29.9896 34.0488 29.86 34.2754 29.6895 34.4668C29.5189 34.6582 29.3099 34.8079 29.0625 34.916C28.8151 35.0241 28.5313 35.0781 28.2109 35.0781C27.8906 35.0781 27.6061 35.0241 27.3574 34.916C27.1087 34.8079 26.8991 34.6582 26.7285 34.4668C26.5579 34.2754 26.4284 34.0488 26.3398 33.7871C26.2513 33.5254 26.207 33.2396 26.207 32.9297V32.8477ZM27.3359 32.9297C27.3359 33.1016 27.3516 33.263 27.3828 33.4141C27.4141 33.5651 27.4642 33.696 27.5332 33.8066C27.6022 33.9173 27.6921 34.0052 27.8027 34.0703C27.9134 34.1354 28.0495 34.168 28.2109 34.168C28.3672 34.168 28.5007 34.1354 28.6113 34.0703C28.722 34.0052 28.8125 33.9173 28.8828 33.8066C28.9531 33.696 29.0039 33.5651 29.0352 33.4141C29.0664 33.263 29.082 33.1016 29.082 32.9297V32.8477C29.082 32.681 29.0664 32.5228 29.0352 32.373C29.0039 32.2233 28.9531 32.0918 28.8828 31.9785C28.8125 31.8652 28.7214 31.7754 28.6094 31.709C28.4974 31.6426 28.362 31.6094 28.2031 31.6094C28.0469 31.6094 27.9134 31.6426 27.8027 31.709C27.6921 31.7754 27.6022 31.8652 27.5332 31.9785C27.4642 32.0918 27.4141 32.2233 27.3828 32.373C27.3516 32.5228 27.3359 32.681 27.3359 32.8477V32.9297ZM34.7109 32.9258C34.7109 33.2331 34.6751 33.5182 34.6035 33.7812C34.5319 34.0443 34.4271 34.2715 34.2891 34.4629C34.151 34.6543 33.9798 34.8047 33.7754 34.9141C33.571 35.0234 33.3359 35.0781 33.0703 35.0781C32.8464 35.0781 32.6491 35.0391 32.4785 34.9609C32.3079 34.8828 32.1602 34.7734 32.0352 34.6328V36.625H30.9062V30.7734H31.9531L31.9922 31.1875C32.1224 31.0312 32.2741 30.9102 32.4473 30.8242C32.6204 30.7383 32.8255 30.6953 33.0625 30.6953C33.3307 30.6953 33.5677 30.7467 33.7734 30.8496C33.9792 30.9525 34.151 31.0983 34.2891 31.2871C34.4271 31.4759 34.5319 31.7025 34.6035 31.9668C34.6751 32.2311 34.7109 32.5234 34.7109 32.8438V32.9258ZM33.582 32.8438C33.582 32.6693 33.5671 32.5072 33.5371 32.3574C33.5072 32.2077 33.4596 32.0775 33.3945 31.9668C33.3294 31.8561 33.2454 31.7695 33.1426 31.707C33.0397 31.6445 32.9141 31.6133 32.7656 31.6133C32.5807 31.6133 32.429 31.6478 32.3105 31.7168C32.1921 31.7858 32.1003 31.8867 32.0352 32.0195V33.75C32.1003 33.8802 32.1921 33.9824 32.3105 34.0566C32.429 34.1309 32.5833 34.168 32.7734 34.168C32.9219 34.168 33.0475 34.1354 33.1504 34.0703C33.2533 34.0052 33.3366 33.916 33.4004 33.8027C33.4642 33.6895 33.5104 33.5573 33.5391 33.4062C33.5677 33.2552 33.582 33.0951 33.582 32.9258V32.8438ZM39.0078 29.3125L40.4688 33.4375L41.9219 29.3125H43.4609V35H42.2852V33.4453L42.4023 30.7617L40.8672 35H40.0625L38.5312 30.7656L38.6484 33.4453V35H37.4766V29.3125H39.0078ZM44.2344 32.8477C44.2344 32.5404 44.2786 32.2552 44.3672 31.9922C44.4557 31.7292 44.5846 31.502 44.7539 31.3105C44.9232 31.1191 45.1322 30.9688 45.3809 30.8594C45.6296 30.75 45.9128 30.6953 46.2305 30.6953C46.5508 30.6953 46.8359 30.75 47.0859 30.8594C47.3359 30.9688 47.5462 31.1191 47.7168 31.3105C47.8874 31.502 48.0169 31.7292 48.1055 31.9922C48.194 32.2552 48.2383 32.5404 48.2383 32.8477V32.9297C48.2383 33.2396 48.194 33.5254 48.1055 33.7871C48.0169 34.0488 47.8874 34.2754 47.7168 34.4668C47.5462 34.6582 47.3372 34.8079 47.0898 34.916C46.8424 35.0241 46.5586 35.0781 46.2383 35.0781C45.918 35.0781 45.6335 35.0241 45.3848 34.916C45.1361 34.8079 44.9264 34.6582 44.7559 34.4668C44.5853 34.2754 44.4557 34.0488 44.3672 33.7871C44.2786 33.5254 44.2344 33.2396 44.2344 32.9297V32.8477ZM45.3633 32.9297C45.3633 33.1016 45.3789 33.263 45.4102 33.4141C45.4414 33.5651 45.4915 33.696 45.5605 33.8066C45.6296 33.9173 45.7194 34.0052 45.8301 34.0703C45.9408 34.1354 46.0768 34.168 46.2383 34.168C46.3945 34.168 46.528 34.1354 46.6387 34.0703C46.7493 34.0052 46.8398 33.9173 46.9102 33.8066C46.9805 33.696 47.0312 33.5651 47.0625 33.4141C47.0938 33.263 47.1094 33.1016 47.1094 32.9297V32.8477C47.1094 32.681 47.0938 32.5228 47.0625 32.373C47.0312 32.2233 46.9805 32.0918 46.9102 31.9785C46.8398 31.8652 46.7487 31.7754 46.6367 31.709C46.5247 31.6426 46.3893 31.6094 46.2305 31.6094C46.0742 31.6094 45.9408 31.6426 45.8301 31.709C45.7194 31.7754 45.6296 31.8652 45.5605 31.9785C45.4915 32.0918 45.4414 32.2233 45.4102 32.373C45.3789 32.5228 45.3633 32.681 45.3633 32.8477V32.9297ZM52.7422 32.9258C52.7422 33.2435 52.7083 33.5339 52.6406 33.7969C52.5729 34.0599 52.4707 34.2865 52.334 34.4766C52.1973 34.6667 52.026 34.8145 51.8203 34.9199C51.6146 35.0254 51.3737 35.0781 51.0977 35.0781C50.8529 35.0781 50.6413 35.0319 50.4629 34.9395C50.2845 34.847 50.1302 34.7174 50 34.5508L49.9492 35H48.9336V29H50.0625V31.1523C50.1875 31.0065 50.334 30.8939 50.502 30.8145C50.6699 30.735 50.8659 30.6953 51.0898 30.6953C51.3659 30.6953 51.6074 30.7487 51.8145 30.8555C52.0215 30.9622 52.194 31.1107 52.332 31.3008C52.4701 31.4909 52.5729 31.7174 52.6406 31.9805C52.7083 32.2435 52.7422 32.5312 52.7422 32.8438V32.9258ZM51.6133 32.8438C51.6133 32.6771 51.6016 32.5189 51.5781 32.3691C51.5547 32.2194 51.5124 32.0885 51.4512 31.9766C51.39 31.8646 51.3073 31.776 51.2031 31.7109C51.099 31.6458 50.9661 31.6133 50.8047 31.6133C50.6146 31.6133 50.4596 31.6517 50.3398 31.7285C50.2201 31.8053 50.1276 31.9141 50.0625 32.0547V33.7227C50.1276 33.8633 50.2201 33.9727 50.3398 34.0508C50.4596 34.1289 50.6172 34.168 50.8125 34.168C50.9714 34.168 51.1022 34.1367 51.2051 34.0742C51.3079 34.0117 51.39 33.9258 51.4512 33.8164C51.5124 33.707 51.5547 33.5762 51.5781 33.4238C51.6016 33.2715 51.6133 33.1055 51.6133 32.9258V32.8438ZM54.6289 35H53.4961V30.7734H54.6289V35ZM53.4297 29.6797C53.4297 29.5104 53.4863 29.3711 53.5996 29.2617C53.7129 29.1523 53.8672 29.0977 54.0625 29.0977C54.1589 29.0977 54.2461 29.112 54.3242 29.1406C54.4023 29.1693 54.4688 29.2096 54.5234 29.2617C54.5781 29.3138 54.6204 29.3757 54.6504 29.4473C54.6803 29.5189 54.6953 29.5964 54.6953 29.6797C54.6953 29.7656 54.6803 29.8444 54.6504 29.916C54.6204 29.9876 54.5781 30.0495 54.5234 30.1016C54.4688 30.1536 54.4023 30.194 54.3242 30.2227C54.2461 30.2513 54.1589 30.2656 54.0625 30.2656C53.9661 30.2656 53.8789 30.2513 53.8008 30.2227C53.7227 30.194 53.6562 30.1536 53.6016 30.1016C53.5469 30.0495 53.5046 29.9876 53.4746 29.916C53.4447 29.8444 53.4297 29.7656 53.4297 29.6797ZM56.75 35H55.6172V29H56.75V35ZM59.625 35.0781C59.2969 35.0781 59.0033 35.0247 58.7441 34.918C58.485 34.8112 58.265 34.6654 58.084 34.4805C57.903 34.2956 57.765 34.0788 57.6699 33.8301C57.5749 33.5814 57.5273 33.3151 57.5273 33.0312V32.8789C57.5273 32.5586 57.5736 32.265 57.666 31.998C57.7585 31.7311 57.89 31.5013 58.0605 31.3086C58.2311 31.1159 58.4381 30.9655 58.6816 30.8574C58.9251 30.7493 59.1979 30.6953 59.5 30.6953C59.8047 30.6953 60.0729 30.7454 60.3047 30.8457C60.5365 30.946 60.7311 31.0866 60.8887 31.2676C61.0462 31.4486 61.1647 31.6667 61.2441 31.9219C61.3236 32.1771 61.3633 32.4609 61.3633 32.7734V33.2539H58.6719C58.6901 33.3919 58.7272 33.5169 58.7832 33.6289C58.8392 33.7409 58.9108 33.8366 58.998 33.916C59.0853 33.9954 59.1875 34.0573 59.3047 34.1016C59.4219 34.1458 59.5534 34.168 59.6992 34.168C59.9049 34.168 60.0951 34.1296 60.2695 34.0527C60.444 33.9759 60.5938 33.8568 60.7188 33.6953L61.2734 34.3164C61.2057 34.4128 61.1211 34.5065 61.0195 34.5977C60.918 34.6888 60.7982 34.7702 60.6602 34.8418C60.5221 34.9134 60.3665 34.9707 60.1934 35.0137C60.0202 35.0566 59.8307 35.0781 59.625 35.0781ZM59.4961 31.6094C59.3737 31.6094 59.2663 31.6309 59.1738 31.6738C59.0814 31.7168 59.002 31.7767 58.9355 31.8535C58.8691 31.9303 58.8151 32.0221 58.7734 32.1289C58.7318 32.2357 58.7018 32.3542 58.6836 32.4844H60.2539V32.3945C60.2513 32.2826 60.235 32.1784 60.2051 32.082C60.1751 31.9857 60.1296 31.9023 60.0684 31.832C60.0072 31.7617 59.929 31.707 59.834 31.668C59.7389 31.6289 59.6263 31.6094 59.4961 31.6094ZM67.2812 33.8281H65.2266L64.8359 35H63.5898L65.707 29.3125H66.793L68.9219 35H67.6758L67.2812 33.8281ZM65.543 32.8789H66.9648L66.25 30.75L65.543 32.8789ZM73.1836 32.9258C73.1836 33.2331 73.1478 33.5182 73.0762 33.7812C73.0046 34.0443 72.8997 34.2715 72.7617 34.4629C72.6237 34.6543 72.4525 34.8047 72.248 34.9141C72.0436 35.0234 71.8086 35.0781 71.543 35.0781C71.319 35.0781 71.1217 35.0391 70.9512 34.9609C70.7806 34.8828 70.6328 34.7734 70.5078 34.6328V36.625H69.3789V30.7734H70.4258L70.4648 31.1875C70.5951 31.0312 70.7467 30.9102 70.9199 30.8242C71.0931 30.7383 71.2982 30.6953 71.5352 30.6953C71.8034 30.6953 72.0404 30.7467 72.2461 30.8496C72.4518 30.9525 72.6237 31.0983 72.7617 31.2871C72.8997 31.4759 73.0046 31.7025 73.0762 31.9668C73.1478 32.2311 73.1836 32.5234 73.1836 32.8438V32.9258ZM72.0547 32.8438C72.0547 32.6693 72.0397 32.5072 72.0098 32.3574C71.9798 32.2077 71.9323 32.0775 71.8672 31.9668C71.8021 31.8561 71.7181 31.7695 71.6152 31.707C71.5124 31.6445 71.3867 31.6133 71.2383 31.6133C71.0534 31.6133 70.9017 31.6478 70.7832 31.7168C70.6647 31.7858 70.5729 31.8867 70.5078 32.0195V33.75C70.5729 33.8802 70.6647 33.9824 70.7832 34.0566C70.9017 34.1309 71.056 34.168 71.2461 34.168C71.3945 34.168 71.5202 34.1354 71.623 34.0703C71.7259 34.0052 71.8092 33.916 71.873 33.8027C71.9368 33.6895 71.9831 33.5573 72.0117 33.4062C72.0404 33.2552 72.0547 33.0951 72.0547 32.9258V32.8438ZM77.6875 32.9258C77.6875 33.2331 77.6517 33.5182 77.5801 33.7812C77.5085 34.0443 77.4036 34.2715 77.2656 34.4629C77.1276 34.6543 76.9564 34.8047 76.752 34.9141C76.5475 35.0234 76.3125 35.0781 76.0469 35.0781C75.8229 35.0781 75.6256 35.0391 75.4551 34.9609C75.2845 34.8828 75.1367 34.7734 75.0117 34.6328V36.625H73.8828V30.7734H74.9297L74.9688 31.1875C75.099 31.0312 75.2506 30.9102 75.4238 30.8242C75.597 30.7383 75.8021 30.6953 76.0391 30.6953C76.3073 30.6953 76.5443 30.7467 76.75 30.8496C76.9557 30.9525 77.1276 31.0983 77.2656 31.2871C77.4036 31.4759 77.5085 31.7025 77.5801 31.9668C77.6517 32.2311 77.6875 32.5234 77.6875 32.8438V32.9258ZM76.5586 32.8438C76.5586 32.6693 76.5436 32.5072 76.5137 32.3574C76.4837 32.2077 76.4362 32.0775 76.3711 31.9668C76.306 31.8561 76.222 31.7695 76.1191 31.707C76.0163 31.6445 75.8906 31.6133 75.7422 31.6133C75.5573 31.6133 75.4056 31.6478 75.2871 31.7168C75.1686 31.7858 75.0768 31.8867 75.0117 32.0195V33.75C75.0768 33.8802 75.1686 33.9824 75.2871 34.0566C75.4056 34.1309 75.5599 34.168 75.75 34.168C75.8984 34.168 76.0241 34.1354 76.127 34.0703C76.2298 34.0052 76.3131 33.916 76.377 33.8027C76.4408 33.6895 76.487 33.5573 76.5156 33.4062C76.5443 33.2552 76.5586 33.0951 76.5586 32.9258V32.8438ZM80.4531 35V29.3125H82.2031C82.5859 29.3125 82.9368 29.3783 83.2559 29.5098C83.5749 29.6413 83.8483 29.8262 84.0762 30.0645C84.304 30.3027 84.4818 30.5885 84.6094 30.9219C84.737 31.2552 84.8008 31.625 84.8008 32.0312V32.2891C84.8008 32.6953 84.7376 33.0645 84.6113 33.3965C84.485 33.7285 84.3066 34.0137 84.0762 34.252C83.8457 34.4902 83.5703 34.6745 83.25 34.8047C82.9297 34.9349 82.5768 35 82.1914 35H80.4531ZM81.625 30.2617V34.0586H82.1914C82.655 34.0586 83.0078 33.9056 83.25 33.5996C83.4922 33.2936 83.6133 32.8568 83.6133 32.2891V32.0234C83.6133 31.4453 83.4935 31.0072 83.2539 30.709C83.0143 30.4108 82.6641 30.2617 82.2031 30.2617H81.625ZM87.5234 35.0781C87.1953 35.0781 86.9017 35.0247 86.6426 34.918C86.3835 34.8112 86.1634 34.6654 85.9824 34.4805C85.8014 34.2956 85.6634 34.0788 85.5684 33.8301C85.4733 33.5814 85.4258 33.3151 85.4258 33.0312V32.8789C85.4258 32.5586 85.472 32.265 85.5645 31.998C85.6569 31.7311 85.7884 31.5013 85.959 31.3086C86.1296 31.1159 86.3366 30.9655 86.5801 30.8574C86.8236 30.7493 87.0964 30.6953 87.3984 30.6953C87.7031 30.6953 87.9714 30.7454 88.2031 30.8457C88.4349 30.946 88.6296 31.0866 88.7871 31.2676C88.9447 31.4486 89.0631 31.6667 89.1426 31.9219C89.222 32.1771 89.2617 32.4609 89.2617 32.7734V33.2539H86.5703C86.5885 33.3919 86.6256 33.5169 86.6816 33.6289C86.7376 33.7409 86.8092 33.8366 86.8965 33.916C86.9837 33.9954 87.0859 34.0573 87.2031 34.1016C87.3203 34.1458 87.4518 34.168 87.5977 34.168C87.8034 34.168 87.9935 34.1296 88.168 34.0527C88.3424 33.9759 88.4922 33.8568 88.6172 33.6953L89.1719 34.3164C89.1042 34.4128 89.0195 34.5065 88.918 34.5977C88.8164 34.6888 88.6966 34.7702 88.5586 34.8418C88.4206 34.9134 88.265 34.9707 88.0918 35.0137C87.9186 35.0566 87.7292 35.0781 87.5234 35.0781ZM87.3945 31.6094C87.2721 31.6094 87.1647 31.6309 87.0723 31.6738C86.9798 31.7168 86.9004 31.7767 86.834 31.8535C86.7676 31.9303 86.7135 32.0221 86.6719 32.1289C86.6302 32.2357 86.6003 32.3542 86.582 32.4844H88.1523V32.3945C88.1497 32.2826 88.1335 32.1784 88.1035 32.082C88.0736 31.9857 88.028 31.9023 87.9668 31.832C87.9056 31.7617 87.8275 31.707 87.7324 31.668C87.6374 31.6289 87.5247 31.6094 87.3945 31.6094ZM91.4844 33.6211L92.2695 30.7734H93.4492L92.0234 35H90.9453L89.5195 30.7734H90.6992L91.4844 33.6211ZM95.8906 35.0781C95.5625 35.0781 95.2689 35.0247 95.0098 34.918C94.7506 34.8112 94.5306 34.6654 94.3496 34.4805C94.1686 34.2956 94.0306 34.0788 93.9355 33.8301C93.8405 33.5814 93.793 33.3151 93.793 33.0312V32.8789C93.793 32.5586 93.8392 32.265 93.9316 31.998C94.0241 31.7311 94.1556 31.5013 94.3262 31.3086C94.4967 31.1159 94.7038 30.9655 94.9473 30.8574C95.1908 30.7493 95.4635 30.6953 95.7656 30.6953C96.0703 30.6953 96.3385 30.7454 96.5703 30.8457C96.8021 30.946 96.9967 31.0866 97.1543 31.2676C97.3119 31.4486 97.4303 31.6667 97.5098 31.9219C97.5892 32.1771 97.6289 32.4609 97.6289 32.7734V33.2539H94.9375C94.9557 33.3919 94.9928 33.5169 95.0488 33.6289C95.1048 33.7409 95.1764 33.8366 95.2637 33.916C95.3509 33.9954 95.4531 34.0573 95.5703 34.1016C95.6875 34.1458 95.819 34.168 95.9648 34.168C96.1706 34.168 96.3607 34.1296 96.5352 34.0527C96.7096 33.9759 96.8594 33.8568 96.9844 33.6953L97.5391 34.3164C97.4714 34.4128 97.3867 34.5065 97.2852 34.5977C97.1836 34.6888 97.0638 34.7702 96.9258 34.8418C96.7878 34.9134 96.6322 34.9707 96.459 35.0137C96.2858 35.0566 96.0964 35.0781 95.8906 35.0781ZM95.7617 31.6094C95.6393 31.6094 95.5319 31.6309 95.4395 31.6738C95.347 31.7168 95.2676 31.7767 95.2012 31.8535C95.1348 31.9303 95.0807 32.0221 95.0391 32.1289C94.9974 32.2357 94.9674 32.3542 94.9492 32.4844H96.5195V32.3945C96.5169 32.2826 96.5006 32.1784 96.4707 32.082C96.4408 31.9857 96.3952 31.9023 96.334 31.832C96.2728 31.7617 96.1947 31.707 96.0996 31.668C96.0046 31.6289 95.8919 31.6094 95.7617 31.6094ZM99.4609 35H98.3281V29H99.4609V35ZM100.215 32.8477C100.215 32.5404 100.259 32.2552 100.348 31.9922C100.436 31.7292 100.565 31.502 100.734 31.3105C100.904 31.1191 101.113 30.9688 101.361 30.8594C101.61 30.75 101.893 30.6953 102.211 30.6953C102.531 30.6953 102.816 30.75 103.066 30.8594C103.316 30.9688 103.527 31.1191 103.697 31.3105C103.868 31.502 103.997 31.7292 104.086 31.9922C104.174 32.2552 104.219 32.5404 104.219 32.8477V32.9297C104.219 33.2396 104.174 33.5254 104.086 33.7871C103.997 34.0488 103.868 34.2754 103.697 34.4668C103.527 34.6582 103.318 34.8079 103.07 34.916C102.823 35.0241 102.539 35.0781 102.219 35.0781C101.898 35.0781 101.614 35.0241 101.365 34.916C101.117 34.8079 100.907 34.6582 100.736 34.4668C100.566 34.2754 100.436 34.0488 100.348 33.7871C100.259 33.5254 100.215 33.2396 100.215 32.9297V32.8477ZM101.344 32.9297C101.344 33.1016 101.359 33.263 101.391 33.4141C101.422 33.5651 101.472 33.696 101.541 33.8066C101.61 33.9173 101.7 34.0052 101.811 34.0703C101.921 34.1354 102.057 34.168 102.219 34.168C102.375 34.168 102.508 34.1354 102.619 34.0703C102.73 34.0052 102.82 33.9173 102.891 33.8066C102.961 33.696 103.012 33.5651 103.043 33.4141C103.074 33.263 103.09 33.1016 103.09 32.9297V32.8477C103.09 32.681 103.074 32.5228 103.043 32.373C103.012 32.2233 102.961 32.0918 102.891 31.9785C102.82 31.8652 102.729 31.7754 102.617 31.709C102.505 31.6426 102.37 31.6094 102.211 31.6094C102.055 31.6094 101.921 31.6426 101.811 31.709C101.7 31.7754 101.61 31.8652 101.541 31.9785C101.472 32.0918 101.422 32.2233 101.391 32.373C101.359 32.5228 101.344 32.681 101.344 32.8477V32.9297ZM108.719 32.9258C108.719 33.2331 108.683 33.5182 108.611 33.7812C108.54 34.0443 108.435 34.2715 108.297 34.4629C108.159 34.6543 107.988 34.8047 107.783 34.9141C107.579 35.0234 107.344 35.0781 107.078 35.0781C106.854 35.0781 106.657 35.0391 106.486 34.9609C106.316 34.8828 106.168 34.7734 106.043 34.6328V36.625H104.914V30.7734H105.961L106 31.1875C106.13 31.0312 106.282 30.9102 106.455 30.8242C106.628 30.7383 106.833 30.6953 107.07 30.6953C107.339 30.6953 107.576 30.7467 107.781 30.8496C107.987 30.9525 108.159 31.0983 108.297 31.2871C108.435 31.4759 108.54 31.7025 108.611 31.9668C108.683 32.2311 108.719 32.5234 108.719 32.8438V32.9258ZM107.59 32.8438C107.59 32.6693 107.575 32.5072 107.545 32.3574C107.515 32.2077 107.467 32.0775 107.402 31.9668C107.337 31.8561 107.253 31.7695 107.15 31.707C107.048 31.6445 106.922 31.6133 106.773 31.6133C106.589 31.6133 106.437 31.6478 106.318 31.7168C106.2 31.7858 106.108 31.8867 106.043 32.0195V33.75C106.108 33.8802 106.2 33.9824 106.318 34.0566C106.437 34.1309 106.591 34.168 106.781 34.168C106.93 34.168 107.055 34.1354 107.158 34.0703C107.261 34.0052 107.344 33.916 107.408 33.8027C107.472 33.6895 107.518 33.5573 107.547 33.4062C107.576 33.2552 107.59 33.0951 107.59 32.9258V32.8438ZM111.363 35.0781C111.035 35.0781 110.742 35.0247 110.482 34.918C110.223 34.8112 110.003 34.6654 109.822 34.4805C109.641 34.2956 109.503 34.0788 109.408 33.8301C109.313 33.5814 109.266 33.3151 109.266 33.0312V32.8789C109.266 32.5586 109.312 32.265 109.404 31.998C109.497 31.7311 109.628 31.5013 109.799 31.3086C109.969 31.1159 110.176 30.9655 110.42 30.8574C110.663 30.7493 110.936 30.6953 111.238 30.6953C111.543 30.6953 111.811 30.7454 112.043 30.8457C112.275 30.946 112.469 31.0866 112.627 31.2676C112.785 31.4486 112.903 31.6667 112.982 31.9219C113.062 32.1771 113.102 32.4609 113.102 32.7734V33.2539H110.41C110.428 33.3919 110.465 33.5169 110.521 33.6289C110.577 33.7409 110.649 33.8366 110.736 33.916C110.824 33.9954 110.926 34.0573 111.043 34.1016C111.16 34.1458 111.292 34.168 111.438 34.168C111.643 34.168 111.833 34.1296 112.008 34.0527C112.182 33.9759 112.332 33.8568 112.457 33.6953L113.012 34.3164C112.944 34.4128 112.859 34.5065 112.758 34.5977C112.656 34.6888 112.536 34.7702 112.398 34.8418C112.26 34.9134 112.105 34.9707 111.932 35.0137C111.758 35.0566 111.569 35.0781 111.363 35.0781ZM111.234 31.6094C111.112 31.6094 111.005 31.6309 110.912 31.6738C110.82 31.7168 110.74 31.7767 110.674 31.8535C110.607 31.9303 110.553 32.0221 110.512 32.1289C110.47 32.2357 110.44 32.3542 110.422 32.4844H111.992V32.3945C111.99 32.2826 111.973 32.1784 111.943 32.082C111.913 31.9857 111.868 31.9023 111.807 31.832C111.745 31.7617 111.667 31.707 111.572 31.668C111.477 31.6289 111.365 31.6094 111.234 31.6094ZM116.117 31.832C116.06 31.8242 115.993 31.8171 115.916 31.8105C115.839 31.804 115.771 31.8008 115.711 31.8008C115.49 31.8008 115.311 31.8379 115.174 31.9121C115.037 31.9863 114.936 32.0938 114.871 32.2344V35H113.742V30.7734H114.809L114.84 31.2773C114.947 31.0951 115.078 30.9525 115.234 30.8496C115.391 30.7467 115.573 30.6953 115.781 30.6953C115.841 30.6953 115.904 30.7005 115.971 30.7109C116.037 30.7214 116.091 30.7331 116.133 30.7461L116.117 31.832Z" fill="white"/>
</svg>
