<svg width="138" height="48" viewBox="0 0 138 48" fill="none" xmlns="http://www.w3.org/2000/svg">
<path fill-rule="evenodd" clip-rule="evenodd" d="M28 7C29.6569 7 31 8.34315 31 10V37C31 37.3506 30.9398 37.6872 30.8293 38C30.4175 39.1652 29.3062 40 28 40H12C10.3431 40 9 38.6569 9 37V10C9 8.34315 10.3431 7 12 7H28ZM28 8H12C10.8954 8 10 8.89543 10 10V37C10 38.1046 10.8954 39 12 39H28C28.7403 39 29.3866 38.5978 29.7324 38C29.9026 37.7058 30 37.3643 30 37V10C30 8.89543 29.1046 8 28 8ZM28 9C28.5523 9 29 9.44772 29 10V29.8568C24.1872 29.6127 21.0913 27.2624 19.7122 22.8058C19.6386 22.5678 19.5457 22.1925 19.4336 21.6797L22.6377 22.0801L15.8025 13.3613L13.9128 24.2261L16.8176 22.561C17.2747 29.551 19.7433 34.6973 24.2237 38H12C11.4477 38 11 37.5523 11 37V10C11 9.44772 11.4477 9 12 9H28ZM112.945 30.5137C113.566 30.5137 114.059 30.6741 114.424 30.9949C114.789 31.3157 114.971 31.7515 114.971 32.3022C114.971 32.6128 114.894 32.8882 114.738 33.1284C114.583 33.3687 114.369 33.5605 114.097 33.7041C114.407 33.8535 114.653 34.0593 114.835 34.3215C115.017 34.5837 115.107 34.8921 115.107 35.2466C115.107 35.8149 114.914 36.2639 114.527 36.5935C114.141 36.9231 113.615 37.0879 112.95 37.0879C112.285 37.0879 111.757 36.9224 111.368 36.5913C110.978 36.2603 110.783 35.812 110.783 35.2466C110.783 34.8921 110.874 34.583 111.056 34.3193C111.237 34.0557 111.482 33.8506 111.79 33.7041C111.517 33.5605 111.304 33.3687 111.15 33.1284C110.996 32.8882 110.919 32.6128 110.919 32.3022C110.919 31.7573 111.101 31.323 111.464 30.9993C111.828 30.6755 112.321 30.5137 112.945 30.5137ZM101.614 30.5137C102.311 30.5137 102.844 30.7429 103.213 31.2014C103.583 31.6599 103.771 32.3184 103.78 33.1768V34.3545C103.78 35.2393 103.597 35.916 103.231 36.3848C102.865 36.8535 102.329 37.0879 101.623 37.0879C100.925 37.0879 100.392 36.8579 100.023 36.3979C99.6538 35.938 99.4648 35.2788 99.4561 34.4204V33.2427C99.4561 32.3491 99.6414 31.6709 100.012 31.208C100.383 30.7451 100.916 30.5137 101.614 30.5137ZM80.9863 30.5137C81.4434 30.5137 81.8506 30.5964 82.208 30.762C82.5654 30.9275 82.843 31.1611 83.0408 31.4629C83.2385 31.7647 83.3374 32.1074 83.3374 32.4912H82.019C82.019 32.1982 81.9268 31.9705 81.7422 31.8079C81.5576 31.6453 81.2983 31.564 80.9644 31.564C80.6421 31.564 80.3916 31.6321 80.2129 31.7683C80.0342 31.9045 79.9448 32.084 79.9448 32.3066C79.9448 32.5147 80.0496 32.689 80.259 32.8296C80.4336 32.9468 80.6768 33.0579 80.9887 33.1628L81.1841 33.2251C81.9341 33.4507 82.4805 33.7305 82.8232 34.0645C83.166 34.3984 83.3374 34.8145 83.3374 35.3125C83.3374 35.8662 83.1279 36.3005 82.709 36.6155C82.29 36.9304 81.7261 37.0879 81.0171 37.0879C80.5249 37.0879 80.0767 36.9978 79.6724 36.8176C79.2681 36.6375 78.9597 36.3906 78.7473 36.0771C78.5349 35.7637 78.4287 35.4004 78.4287 34.9873H79.7515C79.7515 35.6934 80.1733 36.0464 81.0171 36.0464C81.3306 36.0464 81.5752 35.9827 81.751 35.8552C81.9268 35.7278 82.0146 35.5498 82.0146 35.3213C82.0146 35.0723 81.9268 34.8811 81.751 34.7478C81.6003 34.6335 81.3463 34.5139 80.989 34.3889L80.8018 34.3259C80.3447 34.178 79.9829 34.0322 79.7163 33.8887C78.9897 33.4961 78.6265 32.9673 78.6265 32.3022C78.6265 31.9565 78.7239 31.6482 78.9187 31.3772C79.1135 31.1062 79.3933 30.8945 79.7581 30.7422C80.1228 30.5898 80.5322 30.5137 80.9863 30.5137ZM68.2705 30.5137C68.8037 30.5137 69.2776 30.6418 69.6921 30.8982C70.1067 31.1545 70.4275 31.5222 70.6545 32.0012C70.8816 32.4802 70.9951 33.0332 70.9951 33.6602V33.9458C70.9951 34.5757 70.8838 35.1279 70.6611 35.6025C70.4385 36.0772 70.1199 36.4434 69.7053 36.7012C69.2908 36.959 68.8154 37.0879 68.2793 37.0879C67.749 37.0879 67.2759 36.9605 66.8599 36.7056C66.4438 36.4507 66.1216 36.0867 65.8931 35.6135C65.6646 35.1404 65.5488 34.5962 65.5459 33.981V33.6646C65.5459 33.0347 65.6594 32.4802 65.8865 32.0012C66.1135 31.5222 66.4343 31.1545 66.8489 30.8982C67.2634 30.6418 67.7373 30.5137 68.2705 30.5137ZM38.0366 30.5137C38.7749 30.5137 39.3696 30.7114 39.8208 31.1069C40.272 31.5024 40.5327 32.0576 40.603 32.7725H39.2847C39.2524 32.3594 39.1375 32.0598 38.9397 31.8738C38.7419 31.6877 38.4409 31.5947 38.0366 31.5947C37.5972 31.5947 37.2683 31.7522 37.05 32.0671C36.8318 32.3821 36.7197 32.8706 36.7139 33.5327V34.0161C36.7139 34.7075 36.8186 35.2129 37.0281 35.5322C37.2376 35.8516 37.5679 36.0112 38.019 36.0112C38.4263 36.0112 38.7302 35.9182 38.9309 35.7322C39.1316 35.5461 39.2466 35.2583 39.2759 34.8687H40.5942C40.5444 35.5571 40.2903 36.0991 39.8318 36.4946C39.3733 36.8901 38.769 37.0879 38.019 37.0879C37.1987 37.0879 36.5535 36.8118 36.0833 36.2595C35.613 35.7073 35.3779 34.9492 35.3779 33.9854V33.5942C35.3779 32.979 35.4863 32.437 35.7031 31.9683C35.9199 31.4995 36.2297 31.1399 36.6326 30.8894C37.0354 30.6389 37.5034 30.5137 38.0366 30.5137ZM108.222 30.5928V37H106.952V32.1045L105.436 32.5747V31.542L108.086 30.5928H108.222ZM95.9062 30.5137C96.5654 30.5137 97.0774 30.6719 97.4421 30.9883C97.8069 31.3047 97.9893 31.7515 97.9893 32.3286C97.9893 32.645 97.9072 32.9673 97.7432 33.2954C97.5791 33.6235 97.2979 34.0059 96.8994 34.4424L95.4448 35.9761H98.1958V37H93.8101V36.1299L95.8799 33.9238C96.1641 33.6133 96.3743 33.3423 96.5105 33.1108C96.6467 32.8794 96.7148 32.6597 96.7148 32.4517C96.7148 32.1675 96.6431 31.9441 96.4995 31.7815C96.356 31.6189 96.1509 31.5376 95.8843 31.5376C95.5972 31.5376 95.3708 31.6365 95.2053 31.8342C95.0398 32.032 94.957 32.292 94.957 32.6143H93.6826C93.6826 32.2246 93.7756 31.8687 93.9617 31.5464C94.1477 31.2241 94.4106 30.9714 94.7505 30.7883C95.0903 30.6052 95.4756 30.5137 95.9062 30.5137ZM74.8306 30.6016C75.5864 30.6016 76.1694 30.77 76.5796 31.1069C76.9897 31.4438 77.1948 31.9199 77.1948 32.5352C77.1948 32.9717 77.1003 33.3357 76.9114 33.6272C76.7224 33.9187 76.436 34.1509 76.0522 34.3237L77.4365 36.9385V37H76.0215L74.8218 34.6577H73.7715V37H72.4531V30.6016H74.8306ZM64.6108 30.6016V31.6694H62.6509V37H61.3325V31.6694H59.3989V30.6016H64.6108ZM56.8291 30.6016L59.2241 37H57.8223L57.3784 35.6816H55.0669L54.6274 37H53.2256L55.6074 30.6016H56.8291ZM52.4839 30.6016V31.6694H49.522V33.1943H52.0532V34.2271H49.522V35.9409H52.4927V37H48.2036V30.6016H52.4839ZM44.3374 30.6016C45.0933 30.6016 45.6763 30.77 46.0864 31.1069C46.4966 31.4438 46.7017 31.9199 46.7017 32.5352C46.7017 32.9717 46.6072 33.3357 46.4182 33.6272C46.2292 33.9187 45.9429 34.1509 45.5591 34.3237L46.9434 36.9385V37H45.5283L44.3286 34.6577H43.2783V37H41.96V30.6016H44.3374ZM112.941 34.2358C112.671 34.2358 112.456 34.3186 112.295 34.4841C112.134 34.6497 112.053 34.873 112.053 35.1543C112.053 35.4268 112.132 35.6465 112.291 35.8135C112.449 35.9805 112.668 36.064 112.95 36.064C113.225 36.064 113.441 35.9834 113.598 35.8223C113.755 35.6611 113.833 35.4385 113.833 35.1543C113.833 34.876 113.752 34.6533 113.591 34.4863C113.43 34.3193 113.213 34.2358 112.941 34.2358ZM101.614 31.542C101.315 31.542 101.094 31.657 100.952 31.887C100.81 32.1169 100.735 32.4766 100.726 32.9658V34.5215C100.726 35.043 100.797 35.4304 100.939 35.6838C101.081 35.9373 101.309 36.064 101.623 36.064C101.933 36.064 102.157 35.9424 102.295 35.6992C102.433 35.4561 102.504 35.084 102.51 34.583V33.0625C102.51 32.5322 102.438 32.1462 102.293 31.9045C102.148 31.6628 101.921 31.542 101.614 31.542ZM68.2705 31.6035C67.8281 31.6035 67.4868 31.7756 67.2466 32.1199C67.0063 32.4641 66.8848 32.9687 66.8818 33.6338V33.9458C66.8818 34.5991 67.002 35.106 67.2422 35.4663C67.4824 35.8267 67.8281 36.0068 68.2793 36.0068C68.7217 36.0068 69.0615 35.8333 69.2988 35.4861C69.5361 35.1389 69.6562 34.6328 69.6592 33.9678V33.6558C69.6592 32.9849 69.5391 32.4751 69.2988 32.1265C69.0586 31.7778 68.7158 31.6035 68.2705 31.6035ZM88.5298 32.623C88.8462 32.623 89.0989 32.7139 89.2878 32.8955C89.4768 33.0771 89.5742 33.3159 89.5801 33.6118V33.8008C89.5801 34.1025 89.4841 34.345 89.2922 34.5281C89.1003 34.7112 88.8491 34.8027 88.5386 34.8027C88.231 34.8027 87.9797 34.7119 87.7849 34.5303C87.5901 34.3486 87.4927 34.1011 87.4927 33.7876V33.6338C87.4927 33.3291 87.5894 33.0845 87.7827 32.8999C87.9761 32.7153 88.2251 32.623 88.5298 32.623ZM56.218 32.219L55.4229 34.6138H57.0225L56.218 32.219ZM74.8306 31.6694H73.7715V33.5898H74.835C75.166 33.5898 75.4224 33.5056 75.604 33.3372C75.7856 33.1687 75.8765 32.9365 75.8765 32.6406C75.8765 32.3389 75.7908 32.1016 75.6194 31.9287C75.448 31.7559 75.1851 31.6694 74.8306 31.6694ZM44.3374 31.6694H43.2783V33.5898H44.3418C44.6729 33.5898 44.9292 33.5056 45.1108 33.3372C45.2925 33.1687 45.3833 32.9365 45.3833 32.6406C45.3833 32.3389 45.2976 32.1016 45.1262 31.9287C44.9548 31.7559 44.6919 31.6694 44.3374 31.6694ZM112.945 31.5376C112.708 31.5376 112.523 31.6108 112.392 31.7573C112.26 31.9038 112.194 32.106 112.194 32.3638C112.194 32.6187 112.26 32.8237 112.392 32.979C112.523 33.1343 112.709 33.2119 112.95 33.2119C113.19 33.2119 113.375 33.1343 113.506 32.979C113.636 32.8237 113.701 32.6187 113.701 32.3638C113.701 32.1147 113.635 31.9148 113.503 31.7639C113.372 31.613 113.186 31.5376 112.945 31.5376ZM44.0474 19.5137C44.5806 19.5137 45.0544 19.6418 45.469 19.8982C45.8835 20.1545 46.2043 20.5222 46.4314 21.0012C46.6584 21.4802 46.772 22.0332 46.772 22.6602V22.9458C46.772 23.5757 46.6606 24.1279 46.438 24.6025C46.2153 25.0772 45.8967 25.4434 45.4822 25.7012C45.0676 25.959 44.5923 26.0879 44.0562 26.0879C43.5259 26.0879 43.0527 25.9605 42.6367 25.7056C42.2207 25.4507 41.8984 25.0867 41.6699 24.6135C41.4414 24.1404 41.3257 23.5962 41.3228 22.981V22.6646C41.3228 22.0347 41.4363 21.4802 41.6633 21.0012C41.8904 20.5222 42.2112 20.1545 42.6257 19.8982C43.0403 19.6418 43.5142 19.5137 44.0474 19.5137ZM74.2725 19.6016L76.6675 26H75.2656L74.8218 24.6816H72.5103L72.0708 26H70.6689L73.0508 19.6016H74.2725ZM80.1426 19.6016C80.8984 19.6016 81.4814 19.77 81.8916 20.1069C82.3018 20.4438 82.5068 20.9199 82.5068 21.5352C82.5068 21.9717 82.4124 22.3357 82.2234 22.6272C82.0344 22.9187 81.748 23.1509 81.3643 23.3237L82.7485 25.9385V26H81.3335L80.1338 23.6577H79.0835V26H77.7651V19.6016H80.1426ZM87.0718 19.6016L89.4668 26H88.0649L87.6211 24.6816H85.3096L84.8701 26H83.4683L85.8501 19.6016H87.0718ZM113.548 19.6016L115.943 26H114.542L114.098 24.6816H111.786L111.347 26H109.945L112.327 19.6016H113.548ZM106.462 19.6016V20.6694H103.5V22.1943H106.031V23.2271H103.5V24.9409H106.471V26H102.182V19.6016H106.462ZM98.1265 19.6016V24.9409H100.926V26H96.8081V19.6016H98.1265ZM92.8057 19.6016C93.582 19.6016 94.1709 19.7502 94.5723 20.0476C94.9736 20.345 95.1743 20.7808 95.1743 21.355C95.1743 21.6685 95.0938 21.9446 94.9326 22.1833C94.7715 22.4221 94.5474 22.5972 94.2603 22.7085C94.5884 22.7905 94.8469 22.9561 95.0359 23.2051C95.2249 23.4541 95.3193 23.7588 95.3193 24.1191C95.3193 24.7344 95.123 25.2002 94.7305 25.5166C94.3379 25.833 93.7783 25.9941 93.0518 26H90.5645V19.6016H92.8057ZM119.537 19.6016C120.018 19.6016 120.44 19.6895 120.805 19.8652C121.17 20.041 121.45 20.2908 121.646 20.6145C121.843 20.9382 121.941 21.3066 121.941 21.7197C121.941 22.3467 121.726 22.8411 121.297 23.2029C120.868 23.5647 120.274 23.7456 119.515 23.7456H118.359V26H117.041V19.6016H119.537ZM40.3877 19.6016V20.6694H38.4277V26H37.1094V20.6694H35.1758V19.6016H40.3877ZM69.9272 19.6016V20.6694H66.9653V22.1943H69.4966V23.2271H66.9653V24.9409H69.936V26H65.647V19.6016H69.9272ZM58.1729 19.6016L59.0386 24.1455L60.0933 19.6016H61.2095L62.2598 24.1543L63.1211 19.6016H64.4351L63.0156 26H61.6885L60.647 21.7197L59.6055 26H58.2783L56.8589 19.6016H58.1729ZM50.7261 19.6016C51.2065 19.6016 51.6292 19.6895 51.9939 19.8652C52.3586 20.041 52.6392 20.2908 52.8354 20.6145C53.0317 20.9382 53.1299 21.3066 53.1299 21.7197C53.1299 22.3467 52.9153 22.8411 52.4861 23.2029C52.0569 23.5647 51.4629 23.7456 50.7041 23.7456H49.5483V26H48.23V19.6016H50.7261ZM125.842 19.6016C126.323 19.6016 126.745 19.6895 127.11 19.8652C127.475 20.041 127.755 20.2908 127.952 20.6145C128.148 20.9382 128.246 21.3066 128.246 21.7197C128.246 22.3467 128.031 22.8411 127.602 23.2029C127.173 23.5647 126.579 23.7456 125.82 23.7456H124.665V26H123.346V19.6016H125.842ZM44.0474 20.6035C43.605 20.6035 43.2637 20.7756 43.0234 21.1199C42.7832 21.4641 42.6616 21.9687 42.6587 22.6338V22.9458C42.6587 23.5991 42.7788 24.106 43.019 24.4663C43.2593 24.8267 43.605 25.0068 44.0562 25.0068C44.4985 25.0068 44.8384 24.8333 45.0757 24.4861C45.313 24.1389 45.4331 23.6328 45.436 22.9678V22.6558C45.436 21.9849 45.3159 21.4751 45.0757 21.1265C44.8354 20.7778 44.4927 20.6035 44.0474 20.6035ZM93.0913 23.2139H91.8828V24.9409H93.0122C93.3228 24.9409 93.5652 24.8669 93.7395 24.719C93.9138 24.571 94.001 24.3667 94.001 24.106C94.001 23.52 93.6978 23.2227 93.0913 23.2139ZM112.938 21.2188L112.142 23.6138H113.742L112.938 21.2188ZM86.4609 21.2188L85.6655 23.6138H87.2651L86.4609 21.2188ZM73.6616 21.2188L72.8662 23.6138H74.4658L73.6616 21.2188ZM119.568 20.6694H118.359V22.6777H119.537C119.886 22.6777 120.152 22.5957 120.335 22.4316C120.518 22.2676 120.609 22.0332 120.609 21.7285C120.609 21.415 120.517 21.1616 120.333 20.9683C120.148 20.7749 119.893 20.6753 119.568 20.6694ZM50.7568 20.6694H49.5483V22.6777H50.7261C51.0747 22.6777 51.3406 22.5957 51.5237 22.4316C51.7068 22.2676 51.7983 22.0332 51.7983 21.7285C51.7983 21.415 51.7061 21.1616 51.5215 20.9683C51.3369 20.7749 51.082 20.6753 50.7568 20.6694ZM125.873 20.6694H124.665V22.6777H125.842C126.191 22.6777 126.457 22.5957 126.64 22.4316C126.823 22.2676 126.915 22.0332 126.915 21.7285C126.915 21.415 126.822 21.1616 126.638 20.9683C126.453 20.7749 126.198 20.6753 125.873 20.6694ZM80.1426 20.6694H79.0835V22.5898H80.147C80.478 22.5898 80.7344 22.5056 80.916 22.3372C81.0977 22.1687 81.1885 21.9365 81.1885 21.6406C81.1885 21.3389 81.1028 21.1016 80.9314 20.9287C80.76 20.7559 80.4971 20.6694 80.1426 20.6694ZM92.8057 20.6694H91.8828V22.2822H92.8584C93.5234 22.2705 93.856 22.0054 93.856 21.4868C93.856 21.1968 93.7717 20.988 93.6033 20.8606C93.4348 20.7332 93.1689 20.6694 92.8057 20.6694ZM20 11C19.4477 11 19 11.4477 19 12C19 12.5523 19.4477 13 20 13C20.5523 13 21 12.5523 21 12C21 11.4477 20.5523 11 20 11Z" fill="white"/>
</svg>
