<svg width="138" height="48" viewBox="0 0 138 48" fill="none" xmlns="http://www.w3.org/2000/svg">
<path d="M27.6666 37.6895H25.6075C25.2025 37.6895 25 37.4995 25 37.1193C25 36.9856 25.0206 36.8641 25.0618 36.755C25.103 36.6459 25.1338 36.5737 25.1544 36.5385H31.0334C31.4383 36.5385 31.6408 36.7286 31.6408 37.1088C31.6408 37.2425 31.622 37.364 31.5842 37.4731C31.5464 37.5822 31.5138 37.6543 31.4864 37.6895H28.8918V43.7825H27.6666V37.6895ZM34.9149 38.3337C35.313 38.3337 35.6854 38.4041 36.032 38.5449C36.3786 38.6857 36.6789 38.881 36.9329 39.1309C37.1869 39.3809 37.3859 39.6765 37.5301 40.018C37.6742 40.3594 37.7463 40.7307 37.7463 41.132C37.7463 41.5262 37.6742 41.8941 37.5301 42.2355C37.3859 42.5769 37.1869 42.8726 36.9329 43.1225C36.6789 43.3724 36.3786 43.5695 36.032 43.7138C35.6854 43.8581 35.313 43.9303 34.9149 43.9303C34.5168 43.9303 34.1444 43.8581 33.7978 43.7138C33.4512 43.5695 33.1509 43.3724 32.8969 43.1225C32.643 42.8726 32.4439 42.5769 32.2998 42.2355C32.1556 41.8941 32.0836 41.5262 32.0836 41.132C32.0836 40.7307 32.1556 40.3594 32.2998 40.018C32.4439 39.6765 32.643 39.3809 32.8969 39.1309C33.1509 38.881 33.4512 38.6857 33.7978 38.5449C34.1444 38.4041 34.5168 38.3337 34.9149 38.3337ZM34.9149 42.8638C35.1483 42.8638 35.3645 42.8198 35.5636 42.7318C35.7626 42.6438 35.9325 42.5206 36.0732 42.3622C36.2139 42.2038 36.3237 42.0208 36.4027 41.8131C36.4816 41.6054 36.5211 41.3784 36.5211 41.132C36.5211 40.8856 36.4816 40.6551 36.4027 40.4403C36.3237 40.2256 36.2139 40.0408 36.0732 39.886C35.9325 39.7311 35.7626 39.6096 35.5636 39.5216C35.3645 39.4337 35.1483 39.3897 34.9149 39.3897C34.6747 39.3897 34.4567 39.4337 34.2611 39.5216C34.0655 39.6096 33.8973 39.7311 33.7566 39.886C33.6159 40.0408 33.5061 40.2256 33.4272 40.4403C33.3482 40.6551 33.3088 40.8856 33.3088 41.132C33.3088 41.3784 33.3482 41.6054 33.4272 41.8131C33.5061 42.0208 33.6159 42.2038 33.7566 42.3622C33.8973 42.5206 34.0655 42.6438 34.2611 42.7318C34.4567 42.8198 34.6747 42.8638 34.9149 42.8638ZM38.6111 41.3749C38.6111 40.8821 38.6798 40.4474 38.817 40.0708C38.9543 39.6941 39.1465 39.3773 39.3936 39.1204C39.6407 38.8634 39.9393 38.6681 40.2893 38.5343C40.6394 38.4006 41.0272 38.3337 41.4528 38.3337C41.844 38.3337 42.2044 38.4041 42.5338 38.5449C42.8633 38.6857 43.1499 38.8793 43.3936 39.1257C43.6372 39.3721 43.8277 39.6677 43.965 40.0127C44.1022 40.3576 44.1709 40.7307 44.1709 41.132C44.1709 41.5403 44.104 41.9152 43.9701 42.2566C43.8363 42.598 43.6509 42.8919 43.4141 43.1383C43.1773 43.3847 42.8994 43.5766 42.5802 43.7138C42.261 43.8511 41.9127 43.9197 41.5351 43.9197C41.1439 43.9197 40.7973 43.8423 40.4953 43.6874C40.1933 43.5326 39.9565 43.3425 39.7849 43.1172V45.8944H38.6111V41.3749ZM41.3704 42.8532C41.6038 42.8532 41.8183 42.8092 42.0139 42.7212C42.2095 42.6332 42.3777 42.5118 42.5184 42.3569C42.6591 42.202 42.7672 42.019 42.8427 41.8078C42.9182 41.5966 42.956 41.3678 42.956 41.1214C42.956 40.8821 42.9182 40.6586 42.8427 40.4509C42.7672 40.2432 42.6591 40.0637 42.5184 39.9124C42.3777 39.761 42.2095 39.6413 42.0139 39.5533C41.8183 39.4653 41.6038 39.4213 41.3704 39.4213C41.137 39.4213 40.9225 39.4636 40.7269 39.548C40.5313 39.6325 40.3631 39.7487 40.2224 39.8965C40.0817 40.0444 39.9719 40.2221 39.893 40.4298C39.814 40.6375 39.7746 40.868 39.7746 41.1214C39.7746 41.3678 39.814 41.5966 39.893 41.8078C39.9719 42.019 40.08 42.202 40.2173 42.3569C40.3546 42.5118 40.521 42.6332 40.7166 42.7212C40.9122 42.8092 41.1302 42.8532 41.3704 42.8532ZM47.9083 37.1193C47.9083 36.9222 47.9666 36.7761 48.0833 36.6811C48.2 36.5861 48.3579 36.5385 48.5569 36.5385C48.6873 36.5385 48.8075 36.5561 48.9173 36.5913L49.0742 36.6433C49.1 36.6523 49.1198 36.6596 49.1335 36.6653V42.6315H52.7679V43.7825H47.9083V37.1193ZM56.042 38.3337C56.4401 38.3337 56.8125 38.4041 57.1591 38.5449C57.5057 38.6857 57.806 38.881 58.06 39.1309C58.314 39.3809 58.513 39.6765 58.6572 40.018C58.8013 40.3594 58.8734 40.7307 58.8734 41.132C58.8734 41.5262 58.8013 41.8941 58.6572 42.2355C58.513 42.5769 58.314 42.8726 58.06 43.1225C57.806 43.3724 57.5057 43.5695 57.1591 43.7138C56.8125 43.8581 56.4401 43.9303 56.042 43.9303C55.6439 43.9303 55.2715 43.8581 54.9249 43.7138C54.5783 43.5695 54.278 43.3724 54.024 43.1225C53.7701 42.8726 53.571 42.5769 53.4269 42.2355C53.2827 41.8941 53.2107 41.5262 53.2107 41.132C53.2107 40.7307 53.2827 40.3594 53.4269 40.018C53.571 39.6765 53.7701 39.3809 54.024 39.1309C54.278 38.881 54.5783 38.6857 54.9249 38.5449C55.2715 38.4041 55.6439 38.3337 56.042 38.3337ZM56.042 42.8638C56.2754 42.8638 56.4916 42.8198 56.6907 42.7318C56.8897 42.6438 57.0596 42.5206 57.2003 42.3622C57.341 42.2038 57.4508 42.0208 57.5298 41.8131C57.6087 41.6054 57.6482 41.3784 57.6482 41.132C57.6482 40.8856 57.6087 40.6551 57.5298 40.4403C57.4508 40.2256 57.341 40.0408 57.2003 39.886C57.0596 39.7311 56.8897 39.6096 56.6907 39.5216C56.4916 39.4337 56.2754 39.3897 56.042 39.3897C55.8018 39.3897 55.5838 39.4337 55.3882 39.5216C55.1926 39.6096 55.0244 39.7311 54.8837 39.886C54.743 40.0408 54.6332 40.2256 54.5543 40.4403C54.4753 40.6551 54.4359 40.8856 54.4359 41.132C54.4359 41.3784 54.4753 41.6054 54.5543 41.8131C54.6332 42.0208 54.743 42.2038 54.8837 42.3622C55.0244 42.5206 55.1926 42.6438 55.3882 42.7318C55.5838 42.8198 55.8018 42.8638 56.042 42.8638ZM64.3508 43.4023C64.2684 43.4586 64.1672 43.5167 64.047 43.5766C63.9269 43.6364 63.7896 43.6927 63.6352 43.7455C63.4808 43.7983 63.3057 43.8423 63.1101 43.8775C62.9145 43.9127 62.6931 43.9303 62.446 43.9303C62.0617 43.9303 61.7013 43.8705 61.365 43.7508C61.0286 43.6311 60.7335 43.4534 60.4795 43.2175C60.2256 42.9817 60.0248 42.6913 59.8772 42.3464C59.7296 42.0014 59.6559 41.6037 59.6559 41.1531C59.6559 40.7026 59.7279 40.3013 59.8721 39.9493C60.0162 39.5973 60.2153 39.3017 60.4692 39.0623C60.7232 38.8229 61.0235 38.6417 61.3701 38.5185C61.7167 38.3953 62.0891 38.3337 62.4872 38.3337C62.8236 38.3337 63.1101 38.3618 63.3469 38.4182C63.5837 38.4745 63.7759 38.5449 63.9235 38.6294C64.0711 38.7138 64.1775 38.8089 64.2427 38.9145C64.3079 39.0201 64.3405 39.1257 64.3405 39.2313C64.3405 39.3721 64.2941 39.5023 64.2015 39.622C64.1088 39.7416 64.0213 39.8332 63.9389 39.8965C63.8154 39.7768 63.6369 39.6624 63.4035 39.5533C63.1702 39.4442 62.8819 39.3897 62.5387 39.3897C62.3053 39.3897 62.0874 39.4248 61.8849 39.4952C61.6824 39.5656 61.5074 39.673 61.3598 39.8173C61.2122 39.9616 61.0956 40.1411 61.0098 40.3559C60.924 40.5706 60.8811 40.8258 60.8811 41.1214C60.8811 41.4312 60.9257 41.6952 61.0149 41.9134C61.1041 42.1316 61.2277 42.3112 61.3856 42.452C61.5434 42.5928 61.7253 42.6966 61.9312 42.7635C62.1372 42.8303 62.3602 42.8638 62.6005 42.8638C62.9437 42.8638 63.2199 42.8163 63.4293 42.7212L63.6616 42.6116C63.7484 42.5685 63.8134 42.5329 63.8566 42.5048L64.3508 43.4023ZM69.6737 43.7614C69.6188 43.7726 69.5386 43.785 69.4332 43.7985L69.3494 43.8089C69.2387 43.8221 69.1136 43.8353 68.9739 43.8485L68.8295 43.8617C68.6304 43.8793 68.4073 43.8951 68.1602 43.9092C67.9131 43.9233 67.6557 43.9303 67.388 43.9303C66.8527 43.9303 66.4151 43.8828 66.0753 43.7878C65.7356 43.6927 65.4679 43.566 65.2722 43.4076C65.0766 43.2492 64.9428 43.0662 64.8707 42.8585C64.7986 42.6508 64.7626 42.4379 64.7626 42.2196C64.7626 41.931 64.8055 41.6776 64.8913 41.4593C64.9771 41.2411 65.1178 41.0581 65.3134 40.9102C65.5091 40.7624 65.7647 40.6515 66.0805 40.5776C66.3962 40.5037 66.7806 40.4667 67.2336 40.4667C67.4944 40.4667 67.7415 40.4755 67.9749 40.4931L68.4368 40.5335C68.4595 40.5359 68.4806 40.5383 68.5 40.5407C68.5 40.2943 68.4605 40.0901 68.3816 39.9282C68.3027 39.7663 68.1946 39.6396 68.0573 39.548C67.92 39.4565 67.7553 39.3932 67.5631 39.358C67.3709 39.3228 67.1581 39.3052 66.9247 39.3052C66.5335 39.3052 66.2195 39.3509 65.9827 39.4425C65.7459 39.534 65.5897 39.6114 65.5142 39.6748C65.473 39.6396 65.4164 39.5727 65.3443 39.4741C65.2722 39.3756 65.2362 39.2559 65.2362 39.1151C65.2362 39.0165 65.262 38.9197 65.3134 38.8247C65.3649 38.7297 65.4559 38.6452 65.5863 38.5713C65.7167 38.4974 65.8917 38.4393 66.1114 38.397C66.331 38.3548 66.609 38.3337 66.9453 38.3337C67.3503 38.3337 67.7192 38.3742 68.0521 38.4551C68.385 38.5361 68.6716 38.6646 68.9118 38.8405C69.1521 39.0165 69.3391 39.2489 69.473 39.5375C69.6068 39.8261 69.6737 40.1746 69.6737 40.5829V43.7614ZM68.5103 42.9588V41.4171L68.3623 41.3907C68.2979 41.3801 68.2186 41.3678 68.1242 41.3537L67.9649 41.3353C67.788 41.3194 67.5579 41.3115 67.2748 41.3115C66.808 41.3115 66.4683 41.3837 66.2555 41.528C66.0427 41.6723 65.9363 41.8993 65.9363 42.2091C65.9363 42.3358 65.9586 42.452 66.0033 42.5575C66.0479 42.6631 66.1251 42.7529 66.2349 42.8268C66.3447 42.9007 66.494 42.9571 66.6828 42.9958C66.8715 43.0345 67.1066 43.0539 67.388 43.0539C67.7038 43.0539 67.9543 43.0415 68.1396 43.0169L68.3713 42.9839C68.4331 42.9742 68.4794 42.9659 68.5103 42.9588ZM70.9298 36.5597C70.9298 36.3696 70.9847 36.2288 71.0946 36.1373C71.2044 36.0458 71.3588 36 71.5579 36C71.6814 36 71.7947 36.0158 71.8976 36.0475L72.0788 36.1067C72.0884 36.1102 72.0967 36.1133 72.1035 36.1162V43.7825H70.9298V36.5597ZM76.6337 43.7825H75.3982L75.614 43.1987C75.7269 42.898 75.8471 42.584 75.9748 42.2566C76.1876 41.711 76.4106 41.1514 76.644 40.5776C76.8774 40.0039 77.1193 39.4213 77.3699 38.83C77.6204 38.2386 77.8692 37.6614 78.1163 37.0982C78.2399 36.8166 78.3806 36.6213 78.5385 36.5121C78.6963 36.403 78.8954 36.3485 79.1356 36.3485C79.2248 36.3485 79.3124 36.359 79.3982 36.3801C79.484 36.4013 79.5595 36.4259 79.6247 36.4541C79.6899 36.4822 79.7448 36.5086 79.7894 36.5333L79.8579 36.5739C79.862 36.5767 79.8649 36.579 79.8666 36.5808L79.9551 36.7464C80.0497 36.9299 80.1626 37.1668 80.2939 37.4572C80.4689 37.8444 80.6577 38.2791 80.8602 38.7614L81.1678 39.5005C81.2716 39.7522 81.3767 40.0092 81.4831 40.2714L81.731 40.8872C81.8112 41.088 81.8889 41.2843 81.9641 41.476L82.4091 42.6262L82.7289 43.4723C82.7769 43.6016 82.8147 43.705 82.8421 43.7825H81.4831L81.437 43.6642L81.1691 42.9219L80.9683 42.378L80.783 41.8923H77.3338L77.1601 42.3426C77.1046 42.4879 77.0516 42.6284 77.0011 42.7641L76.7637 43.4142C76.7148 43.5506 76.6715 43.6734 76.6337 43.7825ZM77.7663 40.7835H80.3711L80.2167 40.373C80.1618 40.2296 80.1034 40.0795 80.0417 39.9229L79.6762 39.0042C79.5861 38.7798 79.4998 38.5703 79.4175 38.3756L79.2374 37.9594C79.1764 37.8217 79.1253 37.7107 79.0841 37.6262L78.7856 38.2967L78.5613 38.8153C78.5232 38.9049 78.4847 38.996 78.4458 39.0887C78.3291 39.3668 78.2124 39.6501 78.0957 39.9388C77.9791 40.2274 77.8692 40.509 77.7663 40.7835ZM83.8202 45.5882L84.1394 44.6906L84.188 44.7134C84.2201 44.7278 84.264 44.7466 84.3196 44.7698C84.4123 44.8085 84.5289 44.8472 84.6696 44.886C84.8104 44.9247 84.9751 44.9581 85.1638 44.9863C85.3526 45.0144 85.5568 45.0285 85.7765 45.0285C86.0098 45.0285 86.2398 45.0021 86.4663 44.9493C86.6928 44.8965 86.8953 44.8015 87.0737 44.6642C87.2522 44.5269 87.398 44.3351 87.5113 44.0887C87.6246 43.8423 87.6812 43.5255 87.6812 43.1383V43.0116C87.5233 43.2017 87.2951 43.3812 86.9965 43.5502C86.6979 43.7191 86.3393 43.8036 85.9206 43.8036C85.5362 43.8036 85.1827 43.7385 84.8601 43.6082C84.5375 43.478 84.2595 43.295 84.0262 43.0591C83.7928 42.8233 83.6109 42.54 83.4805 42.2091C83.3501 41.8782 83.2849 41.5121 83.2849 41.1109C83.2849 40.7096 83.3552 40.34 83.4959 40.0021C83.6366 39.6642 83.8305 39.3721 84.0776 39.1257C84.3247 38.8793 84.6216 38.6857 84.9682 38.5449C85.3149 38.4041 85.6941 38.3337 86.1059 38.3337C86.4972 38.3337 86.8592 38.3935 87.1921 38.5132C87.525 38.6329 87.815 38.8159 88.0621 39.0623C88.3092 39.3087 88.5014 39.622 88.6387 40.0021C88.776 40.3823 88.8446 40.8293 88.8446 41.3432V42.8638C88.8446 43.4199 88.7708 43.8969 88.6233 44.2946C88.4757 44.6924 88.2715 45.018 88.0107 45.2714C87.7498 45.5248 87.4392 45.7096 87.0789 45.8258C86.7185 45.9419 86.3256 46 85.9 46C85.6186 46 85.3629 45.9842 85.133 45.9525C84.903 45.9208 84.6988 45.8821 84.5204 45.8363C84.3419 45.7906 84.1943 45.7448 84.0776 45.6991L83.9524 45.6484C83.8973 45.6251 83.8532 45.6051 83.8202 45.5882ZM86.0956 42.7899C86.329 42.7899 86.5418 42.7476 86.734 42.6631C86.9262 42.5787 87.0909 42.4625 87.2282 42.3147C87.3654 42.1668 87.4735 41.9908 87.5525 41.7867C87.6314 41.5825 87.6709 41.3573 87.6709 41.1109C87.6709 40.8715 87.6314 40.648 87.5525 40.4403C87.4735 40.2327 87.3654 40.0532 87.2282 39.9018C87.0909 39.7504 86.9262 39.6325 86.734 39.548C86.5418 39.4636 86.329 39.4213 86.0956 39.4213C85.8554 39.4213 85.6375 39.4653 85.4418 39.5533C85.2462 39.6413 85.0798 39.7628 84.9425 39.9176C84.8052 40.0725 84.6988 40.252 84.6233 40.4562C84.5478 40.6603 84.5101 40.8786 84.5101 41.1109C84.5101 41.6177 84.6542 42.0243 84.9425 42.3305C85.2308 42.6367 85.6151 42.7899 86.0956 42.7899ZM94.0955 42.547L94.5279 43.3918L94.4472 43.4408C94.3994 43.4686 94.3405 43.5016 94.2705 43.5396C94.1538 43.603 94.008 43.6628 93.833 43.7191C93.6579 43.7754 93.4554 43.8247 93.2255 43.8669C92.9956 43.9092 92.7433 43.9303 92.4688 43.9303C92.0844 43.9303 91.7257 43.8705 91.3928 43.7508C91.0599 43.6311 90.7682 43.4534 90.5177 43.2175C90.2672 42.9817 90.0698 42.6931 89.9257 42.3516C89.7815 42.0102 89.7095 41.6177 89.7095 41.1742C89.7095 40.7518 89.7798 40.3664 89.9205 40.018C90.0612 39.6695 90.2569 39.3703 90.5074 39.1204C90.7579 38.8705 91.0531 38.6769 91.3928 38.5396C91.7326 38.4023 92.105 38.3337 92.5099 38.3337C92.8669 38.3337 93.1826 38.3812 93.4572 38.4762C93.7317 38.5713 93.9634 38.698 94.1521 38.8564C94.3409 39.0148 94.4833 39.1996 94.5794 39.4108C94.6755 39.622 94.7235 39.8472 94.7235 40.0866C94.7235 40.333 94.6789 40.5565 94.5897 40.7571C94.5005 40.9578 94.3426 41.1302 94.1161 41.2746C93.8896 41.4189 93.5841 41.5315 93.1998 41.6125C92.8154 41.6934 92.3281 41.7339 91.7378 41.7339L91.4746 41.7315L91.3517 41.7286C91.2315 41.7251 91.1028 41.7198 90.9656 41.7128C91.0205 42.0718 91.1904 42.3622 91.4752 42.584C91.7601 42.8057 92.1667 42.9166 92.6953 42.9166C92.8737 42.9166 93.0385 42.9025 93.1895 42.8743C93.3405 42.8462 93.476 42.811 93.5962 42.7687C93.7163 42.7265 93.8192 42.6843 93.905 42.642L94.0955 42.547ZM90.9141 40.8891L91.2207 40.8985C91.2702 40.8993 91.3191 40.8997 91.3671 40.8997H91.7995C92.177 40.8997 92.4825 40.875 92.7159 40.8258C92.9492 40.7765 93.1311 40.7131 93.2615 40.6357C93.392 40.5583 93.4778 40.4703 93.5189 40.3717C93.5601 40.2731 93.5807 40.1711 93.5807 40.0655C93.5807 39.798 93.476 39.5973 93.2667 39.4636C93.0573 39.3298 92.7982 39.2629 92.4893 39.2629C92.2354 39.2629 92.0123 39.3087 91.8201 39.4002C91.6279 39.4917 91.4666 39.6132 91.3362 39.7645C91.2058 39.9159 91.1046 40.0901 91.0325 40.2872C90.9604 40.4843 90.921 40.685 90.9141 40.8891ZM95.5987 40.5829C95.5987 40.2309 95.6622 39.9159 95.7892 39.6378C95.9162 39.3597 96.0912 39.1239 96.3143 38.9303C96.5373 38.7367 96.8016 38.5889 97.107 38.4868C97.4125 38.3847 97.7471 38.3337 98.1109 38.3337C98.4747 38.3337 98.811 38.3847 99.1199 38.4868C99.4288 38.5889 99.6947 38.7367 99.9178 38.9303C100.141 39.1239 100.314 39.3597 100.438 39.6378C100.561 39.9159 100.623 40.2309 100.623 40.5829V43.7825H99.4493V40.8891C99.4493 40.4104 99.3361 40.0461 99.1096 39.7962C98.8831 39.5463 98.5502 39.4213 98.1109 39.4213C97.6647 39.4213 97.3301 39.5463 97.107 39.7962C96.884 40.0461 96.7724 40.4104 96.7724 40.8891V43.7825H95.5987V40.5829ZM106.306 43.4023C106.224 43.4586 106.123 43.5167 106.003 43.5766C105.883 43.6364 105.745 43.6927 105.591 43.7455C105.436 43.7983 105.261 43.8423 105.066 43.8775C104.87 43.9127 104.649 43.9303 104.402 43.9303C104.017 43.9303 103.657 43.8705 103.321 43.7508C102.984 43.6311 102.689 43.4534 102.435 43.2175C102.181 42.9817 101.98 42.6913 101.833 42.3464C101.685 42.0014 101.611 41.6037 101.611 41.1531C101.611 40.7026 101.684 40.3013 101.828 39.9493C101.972 39.5973 102.171 39.3017 102.425 39.0623C102.679 38.8229 102.979 38.6417 103.326 38.5185C103.672 38.3953 104.045 38.3337 104.443 38.3337C104.779 38.3337 105.066 38.3618 105.303 38.4182C105.539 38.4745 105.732 38.5449 105.879 38.6294C106.027 38.7138 106.133 38.8089 106.198 38.9145C106.263 39.0201 106.296 39.1257 106.296 39.2313C106.296 39.3721 106.25 39.5023 106.157 39.622C106.064 39.7416 105.977 39.8332 105.895 39.8965C105.771 39.7768 105.593 39.6624 105.359 39.5533C105.126 39.4442 104.838 39.3897 104.494 39.3897C104.261 39.3897 104.043 39.4248 103.841 39.4952C103.638 39.5656 103.463 39.673 103.315 39.8173C103.168 39.9616 103.051 40.1411 102.965 40.3559C102.88 40.5706 102.837 40.8258 102.837 41.1214C102.837 41.4312 102.881 41.6952 102.971 41.9134C103.06 42.1316 103.183 42.3112 103.341 42.452C103.499 42.5928 103.681 42.6966 103.887 42.7635C104.093 42.8303 104.316 42.8638 104.556 42.8638C104.899 42.8638 105.176 42.8163 105.385 42.7212L105.617 42.6116C105.704 42.5685 105.769 42.5329 105.812 42.5048L106.306 43.4023ZM106.976 39.0412C106.976 38.8511 107.031 38.7103 107.14 38.6188C107.25 38.5273 107.401 38.4815 107.593 38.4815C107.717 38.4815 107.832 38.4974 107.938 38.529L108.124 38.5882C108.134 38.5917 108.142 38.5949 108.149 38.5977V41.4171C108.149 41.8325 108.257 42.1633 108.474 42.4097C108.69 42.6561 109.024 42.7793 109.478 42.7793C109.896 42.7793 110.226 42.6543 110.466 42.4044C110.706 42.1545 110.826 41.7867 110.826 41.3009V39.0412C110.826 38.8511 110.881 38.7103 110.991 38.6188C111.101 38.5273 111.252 38.4815 111.444 38.4815C111.568 38.4815 111.683 38.4974 111.789 38.529L111.975 38.5882C111.985 38.5917 111.993 38.5949 112 38.5977V43.2228C112 43.7226 111.935 44.1468 111.804 44.4952C111.674 44.8437 111.489 45.1306 111.248 45.3559C111.008 45.5811 110.72 45.7448 110.384 45.8469C110.047 45.949 109.673 46 109.261 46C108.98 46 108.722 45.9842 108.489 45.9525C108.256 45.9208 108.048 45.8838 107.866 45.8416C107.684 45.7994 107.535 45.7589 107.418 45.7202L107.295 45.6779C107.241 45.6589 107.2 45.6431 107.171 45.6304C107.226 45.4826 107.278 45.333 107.326 45.1816L107.47 44.7328L107.562 44.7698C107.6 44.7839 107.645 44.7997 107.696 44.8173C107.799 44.8525 107.923 44.886 108.067 44.9176C108.211 44.9493 108.374 44.9757 108.556 44.9968C108.738 45.018 108.932 45.0285 109.138 45.0285C109.405 45.0285 109.646 44.9986 109.858 44.9388C110.071 44.8789 110.251 44.7751 110.399 44.6272C110.547 44.4794 110.66 44.2841 110.739 44.0412C110.818 43.7983 110.857 43.4938 110.857 43.1278C110.72 43.3319 110.505 43.4956 110.214 43.6188C109.922 43.742 109.601 43.8036 109.251 43.8036C108.922 43.8036 108.616 43.7561 108.335 43.661C108.053 43.566 107.813 43.4287 107.614 43.2492C107.415 43.0697 107.259 42.8462 107.146 42.5787C107.032 42.3112 106.976 42.0049 106.976 41.66V39.0412Z" fill="white"/>
<path d="M111.497 15.9575C111.831 15.9575 112.142 15.9997 112.43 16.0842L112.788 16.1933L112.912 16.2346C112.948 16.2469 112.977 16.2578 113 16.2671V28.5967C113 29.9291 112.824 31.0597 112.471 31.9887C112.119 32.9176 111.618 33.6823 110.969 34.2829C110.319 34.8834 109.54 35.3197 108.631 35.5918C107.722 35.8639 106.711 36 105.598 36C104.837 36 104.141 35.9578 103.511 35.8733C102.88 35.7889 102.319 35.6904 101.827 35.5778L101.475 35.4942C101.195 35.4253 100.95 35.3582 100.739 35.293L100.397 35.181L100.134 35.088C100.059 35.0603 99.9973 35.0359 99.9486 35.0148C100.097 34.6207 100.236 34.2219 100.366 33.8184C100.496 33.4149 100.626 33.0161 100.756 32.6221C100.885 32.6784 101.09 32.7534 101.368 32.8472C101.646 32.9411 101.98 33.0302 102.37 33.1147C102.759 33.1991 103.2 33.2695 103.691 33.3258C104.183 33.3821 104.707 33.4102 105.264 33.4102C105.987 33.4102 106.637 33.3305 107.212 33.171C107.787 33.0115 108.274 32.7347 108.673 32.3406C109.072 31.9465 109.378 31.4257 109.591 30.7783C109.804 30.1308 109.911 29.3192 109.911 28.3433C109.54 28.8875 108.96 29.3239 108.172 29.6523C107.383 29.9807 106.516 30.1449 105.57 30.1449C104.679 30.1449 103.854 30.0182 103.093 29.7649C102.333 29.5115 101.683 29.1456 101.145 28.667C100.607 28.1885 100.185 27.5927 99.879 26.8795C99.5729 26.1664 99.4199 25.3501 99.4199 24.4305V17.4494C99.4199 16.9427 99.5683 16.5674 99.8651 16.3234C100.162 16.0795 100.57 15.9575 101.09 15.9575C101.424 15.9575 101.734 15.9997 102.022 16.0842L102.38 16.1933L102.504 16.2346C102.54 16.2469 102.569 16.2578 102.592 16.2671V23.7831C102.592 24.8903 102.884 25.7723 103.469 26.4291C104.053 27.086 104.958 27.4144 106.182 27.4144C107.314 27.4144 108.204 27.0813 108.854 26.4151C109.503 25.7489 109.828 24.7683 109.828 23.4734V17.4494C109.828 16.9427 109.976 16.5674 110.273 16.3234C110.57 16.0795 110.978 15.9575 111.497 15.9575ZM53.0026 15.5634C54.06 15.5634 55.034 15.7511 55.9245 16.1264C56.815 16.5017 57.5896 17.0178 58.2482 17.6746C58.9068 18.3315 59.4216 19.1196 59.7926 20.0392C60.1637 20.9587 60.3492 21.9534 60.3492 23.023C60.3492 24.1115 60.1683 25.1108 59.8065 26.021C59.4448 26.9311 58.9439 27.7146 58.3038 28.3715C57.6638 29.0283 56.9124 29.5397 56.0497 29.9056C55.1871 30.2716 54.2456 30.4545 53.2252 30.4545C52.1677 30.4545 51.2308 30.2481 50.4145 29.8352C49.5982 29.4224 48.9582 28.9157 48.4944 28.3152V35.7185H45.322V23.6705C45.322 22.3568 45.5075 21.198 45.8786 20.194C46.2496 19.19 46.7691 18.3455 47.4369 17.6605C48.1048 16.9756 48.9118 16.4548 49.858 16.0982C50.8041 15.7417 51.8523 15.5634 53.0026 15.5634ZM41.7785 10.778C42.1496 10.778 42.4835 10.8249 42.7804 10.9187L42.9839 10.9856C43.1682 11.0489 43.2952 11.1017 43.3648 11.1439V21.4185C43.3648 24.3836 42.6412 26.6543 41.1942 28.2307C39.7471 29.8071 37.5765 30.5953 34.6824 30.5953C31.7882 30.5953 29.6177 29.8071 28.1706 28.2307C26.7235 26.6543 26 24.3836 26 21.4185V12.3262C26 11.8007 26.1531 11.4113 26.4592 11.158C26.7653 10.9046 27.1873 10.778 27.7253 10.778C28.0964 10.778 28.4303 10.8249 28.7272 10.9187L28.9306 10.9856C29.115 11.0489 29.242 11.1017 29.3115 11.1439V21.137C29.3115 22.2067 29.4043 23.1403 29.5898 23.9379C29.7754 24.7355 30.0768 25.4017 30.4942 25.9365C30.9117 26.4714 31.4636 26.8748 32.15 27.147C32.8364 27.4191 33.6806 27.5551 34.6824 27.5551C35.6842 27.5551 36.5283 27.4191 37.2147 27.147C37.9012 26.8748 38.4531 26.4714 38.8705 25.9365C39.2879 25.4017 39.5894 24.7355 39.7749 23.9379C39.9604 23.1403 40.0532 22.2067 40.0532 21.137V12.3262C40.0532 11.8007 40.2063 11.4113 40.5124 11.158C40.8185 10.9046 41.2405 10.778 41.7785 10.778ZM72.7327 10.2713C74.0685 10.2713 75.163 10.3839 76.0164 10.6091C76.8698 10.8343 77.5423 11.1111 78.034 11.4395C78.5256 11.7679 78.8688 12.1057 79.0636 12.4529C79.2584 12.8001 79.3558 13.0862 79.3558 13.3114C79.3558 13.5554 79.3048 13.79 79.2027 14.0152C79.1007 14.2404 78.9801 14.4421 78.841 14.6204C78.7018 14.7987 78.5581 14.9535 78.4096 15.0849C78.2612 15.2162 78.1314 15.3101 78.02 15.3664C77.8345 15.1599 77.5794 14.9347 77.2548 14.6908C76.9301 14.4468 76.5452 14.2216 76.0999 14.0152C75.6547 13.8087 75.1538 13.6352 74.5972 13.4944C74.0406 13.3537 73.4377 13.2833 72.7884 13.2833C71.8422 13.2833 70.961 13.4475 70.1447 13.7759C69.3284 14.1043 68.6234 14.5829 68.0297 15.2115C67.4361 15.8402 66.9676 16.6002 66.6244 17.4917C66.2812 18.3831 66.1096 19.3917 66.1096 20.5177C66.1096 21.6625 66.2905 22.6712 66.6523 23.5438C67.014 24.4165 67.5103 25.1483 68.1411 25.7395C68.7718 26.3306 69.5139 26.7763 70.3673 27.0766C71.2207 27.3768 72.139 27.527 73.1223 27.527C74.2911 27.527 75.2975 27.3768 76.1416 27.0766C76.9858 26.7763 77.6026 26.4948 77.9922 26.2321L79.4671 28.7937H79.4949C79.2909 28.9438 79.0079 29.1221 78.6462 29.3286C78.2844 29.535 77.8299 29.732 77.2826 29.9197C76.7353 30.1074 76.0906 30.2669 75.3485 30.3982C74.6065 30.5296 73.7623 30.5953 72.8162 30.5953C71.4433 30.5953 70.1447 30.3748 68.9202 29.9338C67.6958 29.4928 66.6152 28.85 65.6783 28.0055C64.7414 27.161 63.9993 26.1101 63.452 24.8528C62.9047 23.5954 62.6311 22.1504 62.6311 20.5177C62.6311 18.9038 62.8955 17.4588 63.4242 16.1827C63.9529 14.9066 64.6765 13.8322 65.5948 12.9596C66.5131 12.0869 67.5845 11.4207 68.8089 10.9609C70.0334 10.5012 71.3413 10.2713 72.7327 10.2713ZM89.9861 11.9603C90.3201 11.9603 90.6308 12.0025 90.9184 12.0869L91.2767 12.196L91.401 12.2374C91.4364 12.2497 91.4657 12.2605 91.4889 12.2699V15.9575H95.5239C96.1362 15.9575 96.5675 16.0842 96.8179 16.3375C97.0684 16.5909 97.1936 16.9615 97.1936 17.4494C97.1936 17.7685 97.1472 18.064 97.0545 18.3361L96.9795 18.5498C96.9208 18.7117 96.8716 18.8328 96.8319 18.9132H91.4889V25.1906C91.4889 25.6785 91.5538 26.0773 91.6837 26.3869C91.8135 26.6966 91.9944 26.9452 92.2263 27.1329C92.4582 27.3205 92.7272 27.4519 93.0333 27.527C93.3394 27.602 93.6595 27.6396 93.9934 27.6396C94.5314 27.6396 95.0323 27.5551 95.4961 27.3862C95.9599 27.2173 96.2938 27.0578 96.4979 26.9077L97.778 29.0471C97.6296 29.1597 97.4209 29.3004 97.1519 29.4693C96.8829 29.6382 96.5536 29.7977 96.164 29.9478C95.7744 30.098 95.3384 30.2246 94.8561 30.3279C94.3737 30.4311 93.845 30.4827 93.2699 30.4827C91.6373 30.4827 90.4036 30.0557 89.5687 29.2019C88.7339 28.348 88.3165 27.2267 88.3165 25.838V13.4522C88.3165 12.9267 88.4649 12.5467 88.7617 12.3121C89.0585 12.0775 89.4667 11.9603 89.9861 11.9603ZM83.363 15.9575C83.697 15.9575 84.0031 15.9997 84.2814 16.0842L84.6292 16.1933L84.751 16.2346C84.7858 16.2469 84.8147 16.2578 84.8379 16.2671V30.0886H81.6655V17.4494C81.6655 16.924 81.8139 16.5439 82.1108 16.3094C82.4076 16.0748 82.825 15.9575 83.363 15.9575ZM52.7799 18.4628C52.1492 18.4628 51.5694 18.5754 51.0407 18.8006C50.5119 19.0258 50.0574 19.3354 49.6771 19.7295C49.2968 20.1236 48.9999 20.5975 48.7866 21.1511C48.5732 21.7047 48.4666 22.3193 48.4666 22.9949C48.4666 23.6517 48.5732 24.2616 48.7866 24.8246C48.9999 25.3876 49.2921 25.8755 49.6632 26.2884C50.0342 26.7013 50.4841 27.025 51.0128 27.2596C51.5416 27.4941 52.1306 27.6114 52.7799 27.6114C53.4107 27.6114 53.9905 27.4941 54.5192 27.2596C55.0479 27.025 55.5025 26.7013 55.8828 26.2884C56.2631 25.8755 56.5553 25.3876 56.7594 24.8246C56.9634 24.2616 57.0655 23.6517 57.0655 22.9949C57.0655 22.3568 56.9634 21.761 56.7594 21.2074C56.5553 20.6538 56.2631 20.1752 55.8828 19.7718C55.5025 19.3683 55.0479 19.0493 54.5192 18.8147C53.9905 18.5801 53.4107 18.4628 52.7799 18.4628ZM86.6751 3.37414C88.4863 5.20632 88.4863 8.17687 86.6751 10.0091L83.3955 13.3265L80.1159 10.0091C78.3047 8.17687 78.3047 5.20632 80.1159 3.37414C81.9272 1.54195 84.8638 1.54195 86.6751 3.37414ZM82.1657 5.44755C81.4864 6.13462 81.4864 7.24858 82.1657 7.93564C82.8449 8.62271 83.9461 8.62271 84.6254 7.93564C85.3046 7.24858 85.3046 6.13462 84.6254 5.44755C83.9461 4.76048 82.8449 4.76048 82.1657 5.44755Z" fill="white"/>
</svg>
