<svg width="360" height="174" viewBox="0 0 360 174" fill="none" xmlns="http://www.w3.org/2000/svg">
<path d="M87.0273 86.3688L179.374 55.0909L272.973 86.5826L179.374 118.909L87.0273 86.3688ZM223.393 78.6768V80.2145C223.434 80.2145 223.68 80.2145 223.717 80.2168C224.974 80.2387 225.14 80.6099 225.14 81.0642L221.158 91.4663L216.652 79.3242L213.284 79.3369H209.753L205.582 90.9911L202.193 81.0192H202.24C202.24 80.2387 202.744 80.1751 203.516 80.1751V78.686H193.577V80.1751C195.142 80.1751 195.042 80.5324 195.316 81.0192C195.322 81.0272 195.299 81.0388 195.297 81.0515L201.352 96.6598C201.415 96.8101 201.413 96.9662 201.413 97.1431C201.413 98.0044 200.659 98.1582 199.773 98.179V99.6381L210.641 99.6797V98.2241H210.628C209.49 98.2241 209.06 98.016 209.06 97.1917C209.06 97.068 209.08 96.9512 209.18 96.8425L213.284 87.9157C213.284 87.9157 216.792 96.8656 216.792 97.1743C216.792 97.9547 216.523 98.2264 215.554 98.2264V99.6832L225.626 99.6023V98.1871C224.095 98.1871 224.083 97.8588 224.097 97.194C224.097 97.194 231.377 80.966 231.395 80.944C231.609 80.6411 231.995 80.3601 232.567 80.2526C232.755 80.2145 233.585 80.2179 233.585 80.2179V78.6363L223.393 78.6768ZM193.069 88.7736C193.069 82.4447 187.72 77.3159 179.572 77.3159C171.371 77.3159 166.076 82.4644 166.076 88.7736C166.076 95.7869 171.422 100.227 179.572 100.227C187.72 100.227 193.069 95.7869 193.069 88.7736ZM179.59 82.6586C184.194 82.6586 187.186 85.5271 187.186 89.0742C187.186 92.6213 184.194 95.4921 179.59 95.4921C174.985 95.4921 171.99 92.6213 171.99 89.0742C171.99 85.5271 174.985 82.6586 179.59 82.6586ZM162.001 86.6913C162.001 79.7612 156.365 73.7411 151.511 73.7411H132.383V74.9863C132.388 74.9863 132.395 74.9851 132.402 74.9851C133.821 74.9851 134.948 75.347 135.086 75.799H135.11V75.8372C135.114 75.8557 135.141 75.8707 135.141 75.8869C135.141 75.9019 135.114 75.9158 135.11 75.9343V96.9593H135.037C135.037 97.4472 133.852 97.8403 132.383 97.8541V99.2288H151.511C155.627 99.2288 162.001 94.1845 162.001 86.6913ZM140.965 93.6353V79.1207H150.977C152.936 79.1207 156.565 81.7383 156.575 86.5826C156.585 91.2385 153.458 93.6353 150.977 93.6353H140.965Z" fill="white"/>
</svg>
