<svg width="360" height="174" viewBox="0 0 360 174" fill="none" xmlns="http://www.w3.org/2000/svg">
<path fill-rule="evenodd" clip-rule="evenodd" d="M221.634 74.7336C222.652 75.1626 223.52 75.8393 224.343 76.5611L224.886 77.0467L224.9 76.4169L224.904 75.1341C224.906 74.9187 224.91 74.7028 224.918 74.4869L226.52 74.5004L229.737 74.5043C230.276 74.5062 230.816 74.51 231.358 74.5177V101.72C231.326 105.821 230.242 110.17 227.181 113.162C223.834 116.462 218.702 117.479 214.079 116.801C209.138 116.092 204.834 112.607 202.921 108.196C204.834 107.302 206.843 106.593 208.819 105.76C209.935 108.289 212.198 110.448 215.036 110.941C217.873 111.435 221.156 110.756 223.005 108.474C224.709 106.453 224.944 103.791 224.915 101.257L224.904 100.652L224.886 100.054C223.506 101.36 221.928 102.53 220.046 103.049L219.69 103.138C215.259 104.341 210.381 102.861 206.97 99.9617C203.618 97.1389 201.595 92.8249 201.668 88.5002L201.678 88.1495C201.774 83.1224 204.707 78.2804 209.138 75.6589C212.804 73.4383 217.681 72.8215 221.634 74.7336ZM158.928 76.3991C161.983 78.4883 164.141 81.7329 164.884 85.2942L164.954 85.6514C165.79 89.8158 164.791 94.3586 162.103 97.7248L161.861 98.0187C158.769 101.812 153.7 103.848 148.759 103.539C144.232 103.293 139.833 101.103 137.155 97.5252C134.199 93.6715 133.43 88.4072 134.937 83.8551L135.051 83.5234C136.709 78.5579 141.395 74.7645 146.687 73.8701C150.895 73.0991 155.454 73.9626 158.928 76.3991ZM110.09 57C115.955 57.1234 121.726 59.4056 125.87 63.4458C124.34 64.957 122.778 66.4065 121.279 67.9178C119.053 65.9707 116.39 64.447 113.484 63.8323L113.086 63.7542C108.697 62.857 103.977 63.6128 100.236 65.9373L99.8884 66.1598C95.7442 68.7813 92.9388 73.2224 92.3331 77.972C91.6636 82.6598 93.0344 87.5944 96.1905 91.2336C99.1371 94.6845 103.593 96.8799 108.236 97.1381L108.623 97.1551C113.086 97.4018 117.741 96.0757 120.992 93.0533C123.543 90.9252 124.722 87.6869 125.105 84.5411C119.813 84.5411 114.521 84.572 109.229 84.5411V78.1878H131.512C132.639 84.8798 131.062 92.4042 125.935 97.2875L125.647 97.5561C122.076 101.01 117.135 103.046 112.098 103.447C107.221 103.909 102.184 103.015 97.8482 100.733C92.6519 98.0495 88.5076 93.5159 86.4674 88.1804C84.5546 83.2766 84.5227 77.7252 86.308 72.7906C87.9338 68.2878 91.0579 64.3093 95.0747 61.5336C98.9321 58.7888 103.618 57.2776 108.4 57H110.09ZM193.882 77.2987L194.155 77.5402C199.935 82.5552 200.638 91.8836 195.867 97.7616L195.653 98.0187C192.698 101.629 187.954 103.655 183.224 103.551L182.87 103.539C178.247 103.416 173.688 101.195 170.947 97.5252C167.855 93.485 167.185 87.9336 168.938 83.2149C170.655 78.504 175.092 74.8871 180.155 73.9277L180.479 73.8701C185.172 72.9981 190.29 74.2076 193.882 77.2987ZM265.883 74.4252C270.537 76.1215 273.502 80.4084 275 84.8187C268.082 87.5944 261.196 90.3392 254.279 93.1149C255.235 94.8729 256.701 96.4766 258.678 97.1243C261.451 98.0804 264.767 97.7411 267.094 95.9523C267.813 95.4246 268.416 94.7663 268.979 94.0934L269.453 93.5159C271.206 94.657 272.96 95.7673 274.713 96.9084C272.292 100.422 268.269 102.912 263.91 103.411L263.555 103.447C258.695 104.019 253.531 102.265 250.293 98.6732L250.071 98.4196C244.779 92.4981 245.289 82.5673 251.25 77.2318C255.076 73.7776 260.973 72.6056 265.883 74.4252ZM243.057 58.6037V102.645L240.33 102.652C238.963 102.655 237.593 102.651 236.235 102.614C236.267 87.9645 236.235 73.2841 236.235 58.6037H243.057ZM215.737 79.6065C213.792 79.9149 211.975 80.9635 210.732 82.4131C207.735 85.8673 207.735 91.3878 210.764 94.7804C212.485 96.785 215.259 97.8953 217.937 97.6177C220.455 97.371 222.782 95.829 224.025 93.7009C226.129 90.0925 225.779 85.1888 222.942 82.043C221.188 80.1 218.383 79.1439 215.737 79.6065ZM181.435 79.7299C179.714 80.1617 178.12 81.1177 176.972 82.4439C173.912 85.9598 174.039 91.6962 177.323 95.0579C179.267 97.0626 182.296 98.0495 185.101 97.4944C187.588 97.0318 189.819 95.428 191.031 93.2691C193.103 89.5682 192.497 84.5103 189.245 81.642C187.173 79.7916 184.145 79.0514 181.435 79.7299ZM147.643 79.7299C145.922 80.1617 144.328 81.1177 143.18 82.4748C140.088 86.0523 140.279 91.8813 143.69 95.2121C145.635 97.1243 148.568 98.0187 151.277 97.4944C153.796 97.0626 155.996 95.428 157.207 93.2691C159.311 89.5991 158.705 84.5411 155.485 81.6729C153.413 79.8224 150.385 79.0514 147.643 79.7299ZM254.661 82.9374C253.577 84.4486 253.131 86.2991 253.163 88.1187C257.785 86.2682 262.408 84.4177 267.03 82.5364C266.265 80.8093 264.416 79.7607 262.535 79.4832C259.507 78.9589 256.351 80.5318 254.661 82.9374Z" fill="white"/>
</svg>
