<svg width="360" height="174" viewBox="0 0 360 174" fill="none" xmlns="http://www.w3.org/2000/svg">
<path d="M182.563 66.064L175.321 86.3708H168.031L176 64.0298H172.245L164.276 86.3722H156.912L173.674 39.414H181.037L173.651 60.1087H178.615C182.175 60.1087 183.63 62.8931 182.563 66.064ZM191.792 83.4418H188.11L195.038 63.9581H198.744L191.792 83.4418ZM201.068 59.9884H189.103L172.125 107.622H179.488L186.729 87.3156H194.068C195.69 87.3156 197.752 86.8317 198.598 84.4096C199.447 81.9902 204.047 69.2835 205.333 65.4598C206.59 61.6347 203.564 59.9884 201.068 59.9884ZM185.227 102.709C200.512 102.709 212.914 89.5904 212.914 73.3979C212.914 57.1811 200.512 44.0609 185.227 44.0609C184.646 44.0609 184.089 44.0609 183.532 44.1095L185.033 39.3896H228.9C232.799 39.3896 235.973 42.6822 235.973 46.7492V100.264C235.973 104.33 232.799 107.622 228.9 107.622H183.532L185.227 102.709ZM169.945 39.3896H133.272C129.371 39.3896 126.199 42.6822 126.199 46.7492V100.264C126.199 104.33 129.371 107.622 133.272 107.622H168.442L170.5 102.152C158.026 99.2464 148.678 87.1939 148.678 72.7924C148.678 59.3586 156.842 47.9833 168.081 44.1582L169.945 39.3896ZM246.728 44.7637V42.7065H248.106C248.834 42.7065 249.585 42.8512 249.585 43.6757C249.585 44.6907 248.811 44.7637 247.939 44.7637H246.728ZM246.728 45.6112H247.89L249.658 48.5145H250.796L248.907 45.5625C249.876 45.4666 250.603 44.934 250.603 43.7473C250.603 42.4403 249.853 41.8347 248.278 41.8347H245.733V48.5145H246.728V45.6112ZM247.962 50.9596C251.111 50.9596 253.801 48.5145 253.801 45.1746C253.801 41.8361 251.111 39.3896 247.962 39.3896C244.789 39.3896 242.101 41.8361 242.101 45.1746C242.101 48.5145 244.791 50.9596 247.962 50.9596ZM243.262 45.1746C243.262 42.4403 245.322 40.3588 247.962 40.3588C250.577 40.3588 252.638 42.4403 252.638 45.1746C252.638 47.959 250.577 49.9918 247.962 49.9918C245.322 49.9918 243.262 47.959 243.262 45.1746ZM190.484 127.712C191.211 127.712 191.841 128.341 192.107 129.262H188.861C189.128 128.341 189.757 127.712 190.484 127.712ZM190.484 132.772C189.612 132.772 188.861 131.852 188.74 130.616H194.431C194.458 130.52 194.458 130.423 194.458 130.301C194.458 127.931 192.64 126.017 190.411 126.017C188.159 126.017 186.342 127.931 186.342 130.301C186.342 132.673 188.159 134.61 190.411 134.61C192.107 134.61 193.585 133.472 194.166 131.875H191.817C191.502 132.431 191.016 132.772 190.484 132.772ZM230.958 126.284H229.481V123.5H227.108V126.284H226.307V128.148H227.108V134.175H229.481V128.147H230.958V126.284ZM133.756 124.347C134.555 124.347 135.209 123.695 135.209 122.896C135.209 122.097 134.555 121.443 133.756 121.443C132.957 121.443 132.303 122.097 132.303 122.896C132.303 123.693 132.957 124.347 133.756 124.347ZM132.569 126.284H134.943V134.175H132.569V126.284ZM211.437 125.919C210.346 125.919 209.716 126.501 209.353 127.082V126.284H206.979V134.175H209.353V128.704C209.57 128.22 210.007 127.906 210.685 127.906C211.654 127.906 212.042 128.51 212.042 129.238V134.175H214.414V129.238C214.414 127.591 213.398 125.919 211.437 125.919ZM152.503 125.919C151.414 125.919 150.784 126.501 150.422 127.082V126.284H148.047V134.175H150.42V128.704C150.639 128.22 151.075 127.906 151.753 127.906C152.722 127.906 153.11 128.51 153.11 129.238V134.175H155.484V129.238C155.484 127.591 154.466 125.919 152.503 125.919ZM175.467 126.284H173.093L171.3 130.642L169.459 126.284H167.086L170.428 134.175H172.221L175.467 126.284Z" fill="white"/>
</svg>
