<svg width="360" height="174" viewBox="0 0 360 174" fill="none" xmlns="http://www.w3.org/2000/svg">
<path opacity="0.525" d="M165.251 92.2556C154.17 92.2556 145.216 83.3013 145.216 72.2204C145.216 61.1395 154.17 52.1852 165.251 52.1852C176.332 52.1852 185.286 61.1395 185.286 72.2204C185.286 83.3013 176.332 92.2556 165.251 92.2556Z" fill="white" stroke="white" stroke-width="1.05416"/>
<path opacity="0.749" fill-rule="evenodd" clip-rule="evenodd" d="M154.238 55.4739C148.808 59.0586 145.216 65.218 145.216 72.2205C145.216 83.2862 154.185 92.2556 165.251 92.2556C165.669 92.2556 166.079 92.2405 166.489 92.2177C157.603 87.5393 151.542 78.2128 151.542 67.4737C151.542 63.1826 152.514 59.1118 154.238 55.4739Z" fill="white" stroke="white" stroke-width="1.05416"/>
<path opacity="0.51" d="M203.218 71.1648C196.215 71.1648 190.565 65.5067 190.565 58.5118C190.565 51.5094 196.215 45.8588 203.218 45.8588C210.213 45.8588 215.871 51.5094 215.871 58.5118C215.871 65.5067 210.213 71.1648 203.218 71.1648Z" fill="white" stroke="white" stroke-width="1.05416"/>
<path opacity="0.612" d="M196.891 92.2556C186.972 92.2556 178.959 84.243 178.959 74.3242C178.959 64.4129 186.972 56.4004 196.891 56.4004C206.802 56.4004 214.815 64.4129 214.815 74.3242C214.815 84.243 206.802 92.2556 196.891 92.2556Z" fill="white" stroke="white" stroke-width="1.05416"/>
<path opacity="0.749" d="M179.491 95.4151C164.036 95.4151 151.542 82.9292 151.542 67.4737C151.542 52.0182 164.036 39.5247 179.491 39.5247C194.939 39.5247 207.433 52.0182 207.433 67.4737C207.433 82.9292 194.939 95.4151 179.491 95.4151Z" fill="white" stroke="white" stroke-width="1.05416"/>
<path opacity="0.749" fill-rule="evenodd" clip-rule="evenodd" d="M198.327 46.831C199.83 46.2006 201.486 45.8588 203.218 45.8588C210.205 45.8588 215.871 51.517 215.871 58.5118C215.871 64.0788 212.271 68.8104 207.273 70.4965C207.38 69.5091 207.433 68.499 207.433 67.4737C207.433 59.3017 203.924 51.9423 198.327 46.831Z" fill="white" stroke="white" stroke-width="1.05416"/>
<path opacity="0.749" fill-rule="evenodd" clip-rule="evenodd" d="M193.139 91.8607C194.347 92.119 195.6 92.2557 196.891 92.2557C206.787 92.2557 214.815 84.2279 214.815 74.3243C214.815 67.8003 211.329 62.089 206.111 58.9523C206.969 61.6409 207.433 64.5042 207.433 67.4737C207.433 77.947 201.668 87.076 193.139 91.8607Z" fill="white" stroke="white" stroke-width="1.05416"/>
<path fill-rule="evenodd" clip-rule="evenodd" d="M121.049 134.004V119.962L120.745 117.03H124.079L124.421 119.157C125.53 117.47 127.186 116.521 129.312 116.521C131.439 116.521 133.056 117.334 134.006 119.225C135.016 117.47 136.808 116.521 138.927 116.521C142.337 116.521 144.297 118.511 144.297 122.498V134.004H140.279V123.303C140.279 121.313 139.945 119.627 137.712 119.627C135.859 119.627 134.682 121.177 134.682 122.931V134.004H130.664V123.303C130.664 121.481 130.429 119.627 128.097 119.627C126.206 119.627 125.059 121.245 125.059 123.068V134.004H121.049ZM148.512 134.004V117.03H152.529V134.004H148.512ZM150.502 109.906C151.892 109.906 152.833 110.924 152.833 112.169C152.833 113.453 151.854 114.395 150.502 114.395C149.089 114.395 148.178 113.453 148.178 112.169C148.178 110.924 149.119 109.906 150.502 109.906ZM157.117 134.004V119.764L156.881 117.227H159.076L159.38 119.627C160.565 117.774 162.486 116.757 164.545 116.757C166.77 116.757 168.456 117.668 169.367 119.893C170.446 117.805 172.474 116.757 174.6 116.757C178.079 116.757 180 118.853 180 122.696V134.004H177.403V123.41C177.403 121.01 176.894 118.853 173.924 118.853C171.593 118.853 169.876 120.805 169.876 122.863V134.004H167.279V123.44C167.279 121.283 166.937 118.853 163.8 118.853C161.408 118.853 159.714 120.911 159.714 123.037V134.004H157.117ZM191.84 116.757C194.985 116.757 196.769 118.443 196.769 120.941C196.769 125.939 190.762 126.744 187.489 126.744C187.154 126.744 186.881 126.713 186.615 126.713C186.744 129.478 188.096 132.379 191.673 132.379C193.937 132.379 195.349 131.301 195.995 130.83L197.005 132.554C196.162 133.26 194.202 134.475 191.506 134.475C186.243 134.475 184.018 130.898 184.018 125.87C184.018 120.873 186.714 116.757 191.84 116.757ZM194.309 121.245C194.309 119.658 193.23 118.716 191.711 118.716C188.096 118.716 186.714 122.126 186.615 124.792C186.813 124.792 187.018 124.822 187.291 124.822C189.585 124.822 194.309 124.283 194.309 121.245ZM207.265 116.757C208.617 116.757 209.658 116.992 210.744 117.364V110.552H213.341V130.966L213.607 134.004H211.283L211.048 131.977L210.911 131.946C209.589 133.799 207.736 134.475 205.952 134.475C201.022 134.475 199.367 130.594 199.367 126.106C199.367 120.44 202.2 116.757 207.265 116.757ZM210.744 128.84V119.589C209.962 119.187 208.716 118.784 207.167 118.784C203.483 118.784 201.964 121.853 201.964 125.802C201.964 129.28 202.914 132.447 206.354 132.447C209.119 132.447 210.744 130.526 210.744 128.84ZM218.331 134.004V117.227H220.967V134.004H218.331ZM219.653 110.681C220.625 110.681 221.407 111.463 221.407 112.435C221.407 113.483 220.625 114.227 219.615 114.227C218.605 114.227 217.891 113.483 217.891 112.435C217.891 111.463 218.635 110.681 219.653 110.681ZM238.981 117.835V131.065L239.255 134.004H236.893L236.688 132.015L236.589 131.977C235.746 133.192 234.295 134.475 231.66 134.475C226.974 134.475 224.984 131.232 224.984 126.341C224.984 120.372 227.847 116.757 233.452 116.757C234.501 116.757 236.825 117.03 238.981 117.835ZM236.384 128.673V119.392C235.776 119.119 234.432 118.815 233.012 118.815C228.964 118.815 227.582 122.126 227.582 126.44C227.582 129.379 228.455 132.516 232.002 132.516C234.835 132.516 236.384 130.556 236.384 128.673Z" fill="white"/>
</svg>
