<svg width="360" height="174" viewBox="0 0 360 174" fill="none" xmlns="http://www.w3.org/2000/svg">
<path fill-rule="evenodd" clip-rule="evenodd" d="M207.321 46.5625V60.8838L197.54 51.3959L207.321 46.5625ZM139.5 31H172.614V59.0125L139.5 31ZM174.206 31L207.321 62.8167L174.206 114V31ZM208.754 47.201L219.5 57.975H208.754V47.201Z" fill="white"/>
<path fill-rule="evenodd" clip-rule="evenodd" d="M138.895 121C145.494 121 150.229 125.892 150.229 131.939V132C150.229 138.047 145.433 143 138.834 143C132.235 143 127.5 138.108 127.5 132.061V132C127.5 125.953 132.296 121 138.895 121ZM197.032 121C200.881 121 203.203 122.033 205.433 123.917L202.469 127.472C200.82 126.105 199.353 125.315 196.879 125.315C193.457 125.315 190.738 128.323 190.738 131.939V132C190.738 135.89 193.427 138.746 197.215 138.746C198.926 138.746 200.453 138.32 201.645 137.47V134.431H196.909V130.39H206.197V139.627C203.997 141.481 200.973 143 197.062 143C190.402 143 185.82 138.351 185.82 132.061V132C185.82 125.953 190.555 121 197.032 121ZM221.166 121C227.765 121 232.5 125.892 232.5 131.939V132C232.5 138.047 227.704 143 221.105 143C214.506 143 209.771 138.108 209.771 132.061V132C209.771 125.953 214.567 121 221.166 121ZM164.19 121.365C166.909 121.365 169.017 122.124 170.423 123.522C171.614 124.707 172.256 126.378 172.256 128.384V128.445C172.256 131.878 170.392 134.036 167.673 135.039L172.897 142.635H167.398L162.816 135.829H159.119V142.635H154.414V121.365H164.19ZM181.421 121.365V142.635H176.716V121.365H181.421ZM138.834 125.315C135.046 125.315 132.419 128.293 132.419 131.939V132C132.419 135.646 135.107 138.685 138.895 138.685C142.683 138.685 145.311 135.707 145.311 132.061V132C145.311 128.354 142.622 125.315 138.834 125.315ZM221.105 125.315C217.317 125.315 214.689 128.293 214.689 131.939V132C214.689 135.646 217.378 138.685 221.166 138.685C224.954 138.685 227.581 135.707 227.581 132.061V132C227.581 128.354 224.893 125.315 221.105 125.315ZM163.793 125.588H159.119V131.696H163.885C166.176 131.696 167.49 130.481 167.49 128.688V128.627C167.49 126.622 166.085 125.588 163.793 125.588Z" fill="white"/>
</svg>
