<svg width="360" height="174" viewBox="0 0 360 174" fill="none" xmlns="http://www.w3.org/2000/svg">
<path fill-rule="evenodd" clip-rule="evenodd" d="M196.103 85.9833C198.866 80.2422 212.944 75.3263 216.891 62.5044C216.735 70.6018 211.102 77.0487 206.628 81.7492C205.372 83.0769 202.275 85.2537 203.865 86.6651C205.456 88.0645 208.171 87.0598 209.905 86.2943C213.458 84.7394 217.704 81.9406 221.89 77.874C220.527 80.8163 217.249 84.8351 215.802 87.012C215.563 87.3708 215.336 87.7416 215.18 88.1363C214.391 90.0978 212.896 92.6216 215.324 93.8535C217.919 95.1572 219.833 89.0333 220.036 88.6267C221.759 90.8514 222.369 92.9086 222.369 97.4537C222.369 103.853 215.312 111.496 207.095 111.496C198.878 111.496 196.127 108.194 193.531 105.623C183.771 115.323 167.086 112.309 160.28 100.958C158.869 98.6139 157.912 96.0304 157.458 93.3392C156.991 90.648 157.051 87.8851 157.613 85.2179C158.175 82.5386 159.24 80.003 160.747 77.7185C162.254 75.434 164.168 73.4604 166.404 71.8936C175.674 65.3391 188.113 66.9897 195.828 75.9363L189.919 80.1585C188.795 79.2973 187.742 78.3883 186.594 77.6347C180.542 73.6997 172.875 74.824 168.294 80.2781C163.378 86.1269 163.629 94.32 168.892 99.8339C173.928 105.133 181.367 105.731 187.276 101.413C188.161 100.755 189.5 99.1641 189.5 99.1641C189.5 99.1641 189.345 97.8604 189.201 96.8676C187.958 88.7822 193.34 79.4408 203.435 76.7736C196.964 80.8881 196.187 83.9739 196.103 85.9833ZM95.2617 87.299V109.977H88.4321C88.3245 109.259 88.1211 108.553 88.1211 107.836C88.0972 99.0804 88.0135 90.3251 88.1331 81.5698C88.2647 71.3912 95.1541 62.5044 106.361 62.5044C106.361 67.7193 105.955 68.8197 102.199 70.3626C97.6897 72.2046 95.3335 75.8406 95.5966 80.8641H104.46V87.299H95.2617ZM98.4313 88.9975H105.081V109.103H98.4313V88.9975ZM155.293 92.3704C157.135 99.5827 151.824 107.836 144.062 110.096C135.223 112.668 126.264 107.848 123.417 98.9966C120.642 90.3969 125.259 81.1273 133.716 78.3045C142.088 75.5297 151.083 79.9192 154.384 88.6506L133.727 101.281C138.165 105.659 145.27 103.398 147.53 98.9129C147.997 98.0039 148.631 96.3174 148.631 96.3174C148.631 96.3174 153.068 93.722 155.293 92.3704ZM134.337 85.9235C130.929 87.9928 129.35 91.5092 130.175 95.7672L144.887 86.7967C141.167 84.0696 137.686 83.8783 134.337 85.9235ZM239.975 78.6275C239.975 78.6275 239.891 83.5553 239.891 85.8518C234.64 85.8518 232.727 88.818 232.691 93.2555C232.655 98.4464 232.691 104.116 232.691 109.462H225.072V79.8475L232.057 79.7877C232.057 79.7877 232.045 82.9094 232.152 83.1606C233.839 78.6753 239.975 78.6275 239.975 78.6275ZM122.544 78.6275C122.544 78.6275 122.46 83.5553 122.46 85.8518C117.222 85.8518 115.296 88.818 115.272 93.2555C115.236 98.4464 115.26 104.116 115.26 109.462H107.641V79.8475L114.638 79.7877C114.638 79.7877 114.614 82.9094 114.734 83.1606C116.408 78.6753 122.544 78.6275 122.544 78.6275ZM271.563 92.3704C273.405 99.5827 268.095 107.836 260.344 110.096C251.505 112.668 242.534 107.848 239.688 98.9966C236.913 90.3969 241.542 81.1273 249.998 78.3045C258.358 75.5297 267.353 79.9192 270.666 88.6506L249.998 101.281C254.435 105.659 261.552 103.398 263.813 98.9129C264.267 98.0039 264.901 96.3174 264.901 96.3174C264.901 96.3174 269.35 93.722 271.563 92.3704ZM250.62 85.9235C247.199 87.9928 245.62 91.5092 246.446 95.7672L261.157 86.7967C257.438 84.0696 253.957 83.8783 250.62 85.9235Z" fill="white"/>
</svg>
