<svg width="360" height="174" viewBox="0 0 360 174" fill="none" xmlns="http://www.w3.org/2000/svg">
<path fill-rule="evenodd" clip-rule="evenodd" d="M127.345 62.301C131.425 63.251 134.375 66.581 134.815 70.741C134.865 71.241 134.895 71.731 134.895 72.231C134.905 82.221 134.935 92.221 134.885 102.221C134.865 106.011 133.115 108.901 129.825 110.801C128.395 111.621 126.825 112.001 125.185 112.001C114.985 112.011 104.785 112.041 94.5951 111.991C89.7351 111.961 85.9851 108.391 85.1851 104.061C85.1151 103.671 85.0351 103.291 84.9551 102.911V71.121C85.0051 70.871 85.0651 70.621 85.1051 70.361C85.6351 66.501 88.6651 63.191 92.4551 62.321C92.9951 62.191 93.5351 62.091 94.0851 61.981H125.815C126.325 62.091 126.845 62.181 127.345 62.301ZM112.315 95.971C112.925 95.971 117.315 95.961 117.905 95.841C121.085 95.221 123.105 93.261 124.155 90.261C124.255 89.981 124.345 89.701 124.435 89.421C124.525 89.151 124.615 88.871 124.695 88.591C124.785 88.301 124.865 88.021 124.935 87.741C125.015 87.461 125.095 87.181 125.165 86.891C126.305 82.431 127.425 77.961 128.535 73.501C128.695 72.881 128.845 72.251 128.925 71.611C128.985 71.031 128.725 70.781 128.145 70.791C127.705 70.791 127.245 70.811 126.815 70.901C125.375 71.181 124.205 71.811 123.815 73.391C123.675 73.951 123.535 74.511 123.395 75.071C123.255 75.631 123.115 76.191 122.975 76.751C122.835 77.311 122.685 77.871 122.545 78.431C122.395 78.991 122.245 79.551 122.105 80.101C121.405 82.741 120.695 85.361 119.935 87.981C119.535 89.351 118.675 90.361 117.245 90.791C116.085 91.141 114.895 91.101 113.705 91.001C112.905 90.941 112.095 90.581 112.015 89.601C112.015 89.431 111.865 89.391 111.715 89.391C110.575 89.371 109.435 89.381 108.295 89.381C108.015 89.381 107.855 89.451 107.815 89.791C107.745 90.471 107.405 90.851 106.725 90.931C106.005 91.021 105.275 91.041 104.555 91.041C102.255 91.051 100.925 90.051 100.265 87.841C99.3651 84.801 98.4951 81.751 97.5851 78.721C97.5451 78.591 97.5051 78.471 97.4651 78.351C97.4151 78.241 97.3651 78.121 97.3051 78.001C97.2551 77.891 97.1951 77.781 97.1351 77.671C97.0651 77.561 96.9951 77.451 96.9251 77.351C96.0851 76.191 94.8251 75.941 93.5051 75.871C92.3751 75.811 92.1251 76.111 92.4351 77.221C92.7451 78.361 93.0451 79.501 93.3551 80.631C93.6751 81.771 93.9851 82.911 94.2951 84.051C94.6051 85.191 94.9251 86.321 95.2351 87.461C95.5451 88.601 95.8651 89.741 96.1851 90.871C97.1051 94.171 100.045 95.701 102.545 95.881C104.235 96.011 105.945 95.981 107.635 95.961C109.145 95.961 109.875 94.801 109.875 94.801C109.875 94.801 110.515 95.971 112.315 95.971ZM101.955 78.131C101.885 79.271 102.695 80.231 103.925 80.261C104.995 80.281 105.905 79.341 105.915 78.271C105.925 77.201 105.005 76.271 103.945 76.261C102.895 76.241 102.025 77.111 101.955 78.131ZM114.365 85.081C114.365 86.211 115.255 87.121 116.355 87.111C116.615 87.111 116.875 87.061 117.105 86.961C117.345 86.861 117.565 86.711 117.745 86.521C117.935 86.341 118.075 86.121 118.175 85.881C118.275 85.641 118.325 85.381 118.325 85.121C118.325 84.861 118.275 84.601 118.175 84.361C118.085 84.121 117.935 83.901 117.755 83.711C117.575 83.531 117.355 83.381 117.115 83.271C116.875 83.171 116.625 83.111 116.365 83.111C115.285 83.091 114.375 84.001 114.365 85.081ZM108.265 79.021C108.355 79.261 108.505 79.481 108.685 79.671C108.865 79.851 109.085 80.001 109.325 80.101C109.565 80.201 109.815 80.261 110.075 80.261C111.145 80.281 112.065 79.381 112.075 78.291C112.085 77.171 111.185 76.251 110.085 76.261C109.825 76.261 109.565 76.311 109.325 76.421C109.085 76.521 108.875 76.671 108.685 76.851C108.505 77.041 108.365 77.261 108.265 77.501C108.165 77.741 108.115 78.001 108.125 78.261C108.115 78.521 108.165 78.781 108.265 79.021ZM118.325 78.271C118.325 78.011 118.275 77.751 118.185 77.511C118.085 77.271 117.945 77.051 117.755 76.861C117.575 76.681 117.365 76.531 117.125 76.421C116.885 76.321 116.625 76.261 116.365 76.261C115.285 76.241 114.375 77.141 114.365 78.231C114.365 79.351 115.245 80.271 116.345 80.261C117.435 80.261 118.315 79.361 118.325 78.271ZM98.8851 100.781C98.8851 98.591 97.1851 96.841 95.0351 96.831C92.8951 96.821 91.1051 98.551 91.1151 100.731C91.1251 103.181 93.0851 104.651 95.0051 104.641C97.1651 104.641 98.8851 102.931 98.8851 100.781ZM125.015 96.811C122.855 96.811 121.095 98.561 121.145 100.731C121.185 102.821 122.705 104.591 125.035 104.591C127.505 104.601 128.945 102.621 128.935 100.681C128.935 98.511 127.205 96.811 125.015 96.811ZM112.075 85.121C112.075 84.861 112.025 84.601 111.925 84.361C111.835 84.121 111.685 83.901 111.505 83.711C111.325 83.531 111.105 83.381 110.865 83.281C110.635 83.171 110.375 83.121 110.115 83.111C109.045 83.091 108.125 83.991 108.125 85.081C108.115 86.221 108.985 87.121 110.095 87.111C110.355 87.111 110.615 87.061 110.855 86.961C111.095 86.861 111.315 86.711 111.495 86.521C111.675 86.341 111.825 86.121 111.925 85.881C112.025 85.641 112.075 85.381 112.075 85.121ZM101.975 85.111C101.965 86.251 102.845 87.141 103.955 87.111C105.035 87.091 105.935 86.171 105.915 85.101C105.905 84.021 104.975 83.101 103.915 83.111C102.825 83.121 101.975 84.001 101.975 85.111ZM273.145 67.641C273.145 66.661 273.505 66.331 274.485 66.391C274.845 66.411 275.035 66.581 275.045 66.951V95.461C275.045 96.541 274.615 96.901 273.555 96.721C273.185 96.661 273.155 96.371 273.145 96.081C273.135 95.371 273.145 94.661 273.145 93.951V93.361C272.965 93.521 272.865 93.591 272.785 93.681C268.825 98.561 260.705 98.741 256.885 92.331C254.065 87.611 255.215 80.991 260.285 77.791C263.785 75.591 269.225 75.881 272.405 79.391C272.615 79.621 272.795 79.871 272.995 80.111L273.145 80.081V67.641ZM257.685 87.791C257.705 89.261 258.565 91.381 260.365 93.111C262.665 95.321 265.955 95.791 268.625 94.171C271.375 92.521 273.855 89.421 273.065 85.031C272.255 80.521 268.065 77.881 263.825 78.801C260.265 79.581 257.685 83.001 257.685 87.791ZM228.375 93.371C230.005 88.201 231.645 83.041 233.265 77.871C233.535 77.021 234.095 76.501 234.975 76.351C235.655 76.231 235.885 76.501 235.685 77.141C233.855 82.921 232.035 88.701 230.195 94.481C230.065 94.881 229.895 95.281 229.695 95.661C228.965 96.991 227.155 97.141 226.265 95.911C225.895 95.421 225.655 94.821 225.445 94.231C224.105 90.551 222.785 86.861 221.465 83.181C221.405 83.021 221.325 82.871 221.185 82.561C220.825 83.581 220.515 84.441 220.205 85.301C219.105 88.451 218.005 91.601 216.895 94.751C216.645 95.451 216.335 96.141 215.615 96.511C214.485 97.081 213.225 96.601 212.675 95.331C212.305 94.471 212.045 93.561 211.755 92.661C210.085 87.511 208.415 82.361 206.745 77.201C206.535 76.531 206.795 76.231 207.515 76.341C208.415 76.481 208.995 76.971 209.275 77.861C210.555 81.941 211.845 86.021 213.125 90.101C213.535 91.391 213.935 92.681 214.345 93.971C214.405 94.161 214.495 94.331 214.615 94.641C214.765 94.361 214.875 94.181 214.945 94.001C216.585 89.341 218.235 84.691 219.875 80.031C219.895 79.971 219.915 79.901 219.945 79.841C220.185 79.211 220.585 78.911 221.195 78.911C221.805 78.901 222.145 79.141 222.395 79.811C223.615 83.111 224.835 86.411 226.055 89.721C226.585 91.161 227.115 92.601 227.645 94.041C227.705 94.221 227.795 94.391 227.935 94.711C228.115 94.171 228.245 93.771 228.375 93.371ZM156.775 87.971C156.185 87.971 156.155 88.011 156.285 88.601C157.145 92.341 160.225 94.791 164.075 94.821C165.495 94.831 166.895 94.721 168.145 94.001C168.785 93.631 169.385 93.131 169.915 92.601C170.705 91.801 171.665 91.661 172.695 91.741C173.075 91.781 172.935 92.051 172.815 92.261C172.085 93.571 171.125 94.671 169.875 95.501C168.025 96.731 165.975 97.311 163.775 97.191C158.475 96.911 154.945 93.361 153.975 89.121C152.655 83.371 156.495 77.561 162.305 76.651C168.245 75.711 173.005 80.101 173.845 84.741C173.975 85.471 173.955 86.221 173.975 86.961C173.995 87.461 173.705 87.771 173.225 87.861C173.155 87.881 173.085 87.891 173.025 87.901C172.955 87.921 172.885 87.931 172.815 87.931C172.745 87.941 172.675 87.951 172.605 87.951C172.535 87.961 172.465 87.961 172.395 87.961C169.815 87.971 167.235 87.971 164.655 87.971H156.775ZM156.155 85.741C156.375 85.751 156.545 85.771 156.725 85.771C160.065 85.771 163.395 85.771 166.735 85.761C168.215 85.761 169.705 85.751 171.195 85.751C171.525 85.751 171.725 85.691 171.655 85.271C171.105 81.951 167.925 78.981 164.585 78.741C161.365 78.521 158.925 79.871 157.235 82.591C157.085 82.831 156.955 83.071 156.835 83.331C156.715 83.581 156.605 83.841 156.515 84.101C156.425 84.371 156.345 84.641 156.285 84.911C156.225 85.191 156.185 85.461 156.155 85.741ZM189.745 76.561C193.815 75.671 198.505 77.691 200.525 81.321C200.765 81.751 200.675 81.911 200.165 81.921C200.055 81.931 199.935 81.911 199.825 81.931C198.675 82.091 197.845 81.641 197.025 80.821C193.695 77.521 188.385 78.131 185.555 82.071C181.865 87.231 185.315 93.591 190.075 94.631C192.545 95.171 194.905 94.951 196.865 93.101C197.055 92.921 197.245 92.731 197.405 92.521C197.935 91.781 198.675 91.511 199.545 91.511C199.595 91.511 199.645 91.501 199.695 91.511C200.045 91.571 200.385 91.631 200.725 91.691C200.585 91.991 200.495 92.331 200.305 92.601C198.565 95.171 196.175 96.721 193.075 97.121C187.265 97.871 182.685 93.441 181.915 88.551C181.825 87.991 181.805 87.401 181.765 86.831C181.715 81.391 185.755 77.441 189.745 76.561ZM244.565 86.971C244.565 83.911 244.555 80.851 244.565 77.791C244.565 77.061 244.745 76.881 245.475 76.931C246.585 77.001 246.775 77.201 246.775 78.321V96.331C246.775 97.211 246.575 97.331 245.705 97.261C244.755 97.181 244.545 96.751 244.555 95.901C244.575 92.921 244.565 89.941 244.565 86.971ZM245.705 73.471C244.585 73.471 243.985 72.881 243.965 71.781C243.935 70.551 244.635 70.001 245.665 69.991C246.575 69.991 247.405 70.421 247.385 71.721C247.395 72.841 246.795 73.461 245.705 73.471Z" fill="white"/>
</svg>
