<svg width="360" height="174" viewBox="0 0 360 174" fill="none" xmlns="http://www.w3.org/2000/svg">
<path fill-rule="evenodd" clip-rule="evenodd" d="M245.644 67.0306L244.395 74.6607H238.301L238.7 72.1822H234.122L233.549 75.7566H238.916L237.953 81.6353H232.607L231.88 85.9881H236.734L237.226 82.9053H243.483L242.091 91.4264H222.621L223.512 85.9881H225.366L227.639 72.1822H225.816L226.666 67.0306H245.644ZM192.295 72.1822H190.482L191.322 67.0306H201.543L200.704 72.1822H198.881L195.726 91.4264H190.226L183.262 77.764L181.931 85.9881H183.754L182.873 91.4264H172.57L173.45 85.9881H175.263L177.537 72.1822H175.714L176.543 67.0306H184.778L191.158 79.1466L192.295 72.1822ZM149.208 91.4264L150.089 85.9881H151.912L151.656 83.9705H145.286L144.364 85.9881H146.218L145.306 91.4264H135.013L135.914 85.9881H137.717L144.835 72.1822H143.002L143.842 67.0306H155.599L158.846 85.9881H160.679L159.788 91.4264H149.208ZM151.052 78.8291L150.54 73.0937L148.041 78.8291H151.052ZM129.933 81.6149L132.504 85.9881H134.788L133.887 91.4264H127.762L122.866 82.7312L122.334 85.9881H123.727L122.826 91.4264H112.86L113.741 85.9881H115.585L117.838 72.1822H116.025L116.855 67.0306H129.073C131.889 67.2252 134.931 68.8332 135.802 71.6906C136.693 74.7529 135.454 77.7025 133.2 79.7406C132.217 80.6009 131.152 81.3281 129.933 81.6149ZM129.554 74.0462C128.878 71.9774 126.369 72.5304 124.536 72.4895L123.665 77.8357C125.273 77.764 127.117 78.1839 128.305 77.0982C129.298 76.3404 129.718 75.224 129.554 74.0462ZM171.484 91.4162L160.894 91.4264L161.775 85.9778H163.608L165.861 72.1822H164.038L164.888 67.0204H175.458L174.628 72.1822H172.805L170.532 85.9778H172.365L171.484 91.4162ZM109.245 68.3723L109.47 67.0306H114.54L113.198 75.2957H107.422C107.104 73.9643 105.732 72.7148 104.38 72.428C101.912 71.8852 99.4744 72.6431 97.9074 74.6197C96.1765 77.0061 95.603 80.857 97.2314 83.4584C98.358 85.2097 100.283 85.9778 102.301 85.6603C103.868 85.3736 105.404 84.1241 106.08 82.6698L99.6587 82.6595L100.458 77.7128H113.997L111.754 91.4264H106.531L106.879 89.3781C104.708 91.1294 101.758 91.4469 99.034 91.3445C95.3162 90.7095 91.4039 87.8828 90.1851 84.165C88.741 79.4231 90.0622 74.3023 93.1347 70.6767C96.6886 66.6926 102.363 65.1974 107.36 67.0409C107.873 67.2355 108.385 67.4915 108.835 67.8704L109.245 68.3723ZM109.245 68.3928L109.255 68.3825L109.245 68.3723V68.3928ZM219.026 68.3825L219.241 67.0306H224.321L222.969 75.2957H217.203C216.886 73.9643 215.503 72.7045 214.161 72.428C211.693 71.8852 209.256 72.6431 207.689 74.6197C205.958 77.0061 205.384 80.857 207.013 83.4584C208.139 85.2097 210.054 85.9778 212.072 85.6603C213.649 85.3736 215.185 84.1241 215.861 82.6698L209.43 82.6595L210.239 77.7128H223.778L221.525 91.4264H216.312L216.66 89.3781C214.479 91.1294 211.529 91.4469 208.805 91.3445C205.087 90.7095 201.185 87.8828 199.966 84.165C198.522 79.4231 199.843 74.3023 202.916 70.6767C206.47 66.6926 212.144 65.1974 217.142 67.0409C217.654 67.2355 218.166 67.4915 218.616 67.8704L219.026 68.3825ZM260.27 81.6149L262.83 85.9881H265.124L264.223 91.4264H258.088L253.193 82.7312L252.67 85.9881H254.053L253.152 91.4264H243.186L244.077 85.9881H245.911L248.174 72.1822H246.351L247.181 67.0306H259.399C262.226 67.2252 265.268 68.8229 266.128 71.6906C267.029 74.7426 265.78 77.7025 263.537 79.7406C262.543 80.5907 261.488 81.3281 260.27 81.6149ZM258.631 77.0982C259.624 76.3301 260.044 75.224 259.891 74.0462C259.215 71.9774 256.695 72.5304 254.872 72.4895L253.991 77.8254C255.599 77.7537 257.453 78.1736 258.631 77.0982ZM124.761 96.8648H263.332L261.55 107.742H122.989L124.761 96.8648ZM134.89 99.9168H131.152L130.353 104.679H131.562L131.889 102.754H134.204L134.368 101.832H132.043L132.207 100.828H134.737L134.89 99.9168ZM139.438 103.911C139.571 103.768 139.694 103.614 139.806 103.44C139.909 103.266 140.001 103.092 140.073 102.897C140.144 102.713 140.206 102.518 140.236 102.324C140.298 101.996 140.462 100.408 139.059 99.9066C138.997 99.8861 138.926 99.8656 138.854 99.8451C138.782 99.8247 138.71 99.8144 138.639 99.8042C138.567 99.7837 138.495 99.7837 138.413 99.7734C138.342 99.7734 138.27 99.7632 138.198 99.7632C136.631 99.7632 135.597 100.982 135.372 102.272C135.146 103.645 135.822 104.812 137.369 104.812C137.871 104.812 138.444 104.7 138.977 104.311C139.141 104.198 139.294 104.065 139.438 103.911ZM139.007 102.406C138.803 103.399 138.116 103.809 137.533 103.809C136.959 103.809 136.386 103.389 136.58 102.252C136.724 101.392 137.297 100.757 138.034 100.757C138.372 100.757 138.659 100.89 138.833 101.105C139.059 101.402 139.11 101.904 139.007 102.406ZM142.162 104.679L142.449 102.979H143.217L143.893 104.679H145.234L144.436 102.774C144.784 102.651 145.49 102.416 145.654 101.463C145.726 101.023 145.634 100.654 145.45 100.398C145.081 99.9271 144.446 99.9271 143.944 99.9168H141.752L140.943 104.679H142.162ZM143.852 100.808C144.108 100.808 144.548 100.828 144.446 101.443C144.343 102.078 143.78 102.088 143.606 102.088H142.602L142.817 100.808H143.852ZM148.614 100.849H149.874L149.229 104.679H150.447L151.093 100.849H152.352L152.516 99.9066H148.768L148.614 100.849ZM156.408 99.9168L156.121 101.637H154.339L154.636 99.9168H153.407L152.598 104.679H153.827L154.165 102.651H155.947L155.609 104.679H156.828L157.627 99.9168H156.408ZM159.204 99.9168L158.405 104.679H162.021L162.174 103.737H159.767L159.962 102.61H162.184L162.338 101.699H160.116L160.259 100.839H162.645L162.799 99.9168H159.204ZM172.006 99.9168L171.197 104.679H172.365L172.836 101.678C172.877 101.812 172.928 101.934 172.969 102.057C173.02 102.19 173.061 102.313 173.112 102.436C173.164 102.559 173.215 102.682 173.276 102.805C173.328 102.928 173.379 103.051 173.44 103.174L174.096 104.679H175.284L176.093 99.9168H174.925L174.464 102.969C174.311 102.549 174.229 102.334 173.952 101.668L173.194 99.9168H172.006ZM177.67 99.9168L176.861 104.679H180.486L180.64 103.737H178.233L178.428 102.61H180.65L180.804 101.699H178.582L178.725 100.839H181.111L181.265 99.9168H177.67ZM182.709 103.245L181.685 103.819C181.931 104.167 182.371 104.782 183.743 104.782C184.419 104.782 185.146 104.638 185.679 104.147C185.751 104.075 185.812 104.003 185.874 103.921C185.935 103.85 185.986 103.768 186.037 103.686C186.078 103.594 186.119 103.501 186.15 103.409C186.191 103.317 186.212 103.225 186.232 103.133C186.324 102.59 186.119 102.17 185.587 101.965C185.331 101.873 184.655 101.74 184.153 101.678C183.948 101.658 183.539 101.596 183.6 101.238C183.641 101.002 183.928 100.736 184.409 100.736C184.481 100.736 184.542 100.746 184.614 100.757C184.675 100.767 184.737 100.777 184.808 100.798C184.87 100.808 184.931 100.828 184.993 100.859C185.054 100.88 185.106 100.91 185.167 100.951C185.208 100.972 185.249 101.002 185.28 101.033C185.321 101.064 185.362 101.084 185.392 101.125C185.423 101.156 185.464 101.187 185.495 101.218C185.525 101.259 185.556 101.289 185.587 101.33L186.591 100.705C186.232 100.337 185.72 99.8042 184.593 99.8042C183.754 99.8042 182.576 100.163 182.371 101.392C182.197 102.416 183.17 102.631 183.457 102.682C183.713 102.744 183.969 102.774 184.235 102.805C184.583 102.856 185.065 102.918 185.003 103.297C184.942 103.624 184.491 103.85 184.01 103.85C183.733 103.85 183.405 103.788 183.119 103.614C182.893 103.491 182.811 103.379 182.709 103.245ZM192.398 99.9168L191.752 101.381C191.332 102.324 191.261 102.508 190.913 103.45C190.954 102.426 190.933 102.17 190.79 99.9168H189.581L190.011 104.679H191.261L191.998 103.071C192.428 102.16 192.449 102.119 192.674 101.525C192.705 102.19 192.715 102.231 192.828 103.102C192.899 103.624 192.961 104.147 193.022 104.679H194.272L196.31 99.9168H195.101C194.927 100.398 194.733 100.88 194.548 101.361C194.159 102.334 194.098 102.498 193.79 103.44C193.801 102.518 193.77 102.365 193.657 101.453C193.586 100.941 193.534 100.429 193.473 99.9168H192.398ZM201.359 99.9168H200.14L199.854 101.637H198.072L198.369 99.9168H197.14L196.33 104.679H197.559L197.897 102.651H199.679L199.342 104.679H200.56L201.359 99.9168ZM206.275 103.911C206.408 103.768 206.531 103.614 206.644 103.44C206.746 103.266 206.838 103.092 206.91 102.897C206.992 102.713 207.043 102.518 207.074 102.324C207.135 101.996 207.299 100.408 205.896 99.9066C205.835 99.8861 205.763 99.8656 205.691 99.8451C205.62 99.8247 205.548 99.8144 205.476 99.8042C205.405 99.7837 205.333 99.7837 205.261 99.7734C205.179 99.7734 205.108 99.7632 205.036 99.7632C203.479 99.7632 202.435 100.982 202.219 102.272C201.984 103.645 202.66 104.812 204.206 104.812C204.708 104.812 205.282 104.7 205.825 104.311C205.978 104.198 206.132 104.065 206.275 103.911ZM204.38 103.809C203.807 103.809 203.223 103.389 203.418 102.252C203.561 101.392 204.135 100.757 204.872 100.757C205.21 100.757 205.497 100.89 205.671 101.105C205.896 101.402 205.947 101.904 205.845 102.406C205.64 103.399 204.954 103.809 204.38 103.809ZM213.434 104.679H214.387L214.827 102.037H212.717L212.564 102.938H213.649C213.578 103.184 213.485 103.44 213.137 103.645C212.922 103.768 212.656 103.829 212.441 103.829C212.072 103.829 211.765 103.676 211.611 103.481C211.417 103.245 211.335 102.805 211.427 102.272C211.56 101.474 212.041 100.726 212.963 100.726C213.639 100.726 213.854 101.146 213.977 101.402L214.991 100.849C214.817 100.562 214.325 99.753 213.035 99.753C211.652 99.753 210.464 100.767 210.208 102.303C209.972 103.706 210.628 104.782 211.98 104.782C212.799 104.782 213.281 104.413 213.506 104.229L213.434 104.679ZM216.609 99.9168L215.8 104.679H219.426L219.579 103.737H217.172L217.367 102.61H219.589L219.743 101.699H217.521L217.664 100.839H220.05L220.204 99.9168H216.609ZM220.818 100.849H222.088L221.443 104.679H222.662L223.307 100.849H224.577L224.731 99.9066H220.982L220.818 100.849ZM229.032 99.9168H227.824L227.015 104.679H228.233L229.032 99.9168ZM229.749 100.849H231.019L230.374 104.679H231.593L232.238 100.849H233.498L233.662 99.9066H229.913L229.749 100.849ZM235.945 104.679H237.861C238.373 104.669 239.735 104.638 240.431 103.174C240.462 103.102 240.493 103.02 240.524 102.948C240.554 102.877 240.575 102.795 240.605 102.723C240.626 102.641 240.646 102.569 240.667 102.488C240.677 102.416 240.698 102.334 240.708 102.252C240.821 101.586 240.739 100.921 240.319 100.47C239.786 99.9373 238.895 99.9168 238.301 99.9168H236.755L235.945 104.679ZM245.747 103.911C245.89 103.768 246.013 103.614 246.116 103.44C246.228 103.266 246.32 103.092 246.392 102.897C246.464 102.713 246.515 102.518 246.556 102.324C246.607 101.996 246.781 100.408 245.378 99.9066C245.306 99.8861 245.235 99.8656 245.163 99.8451C245.091 99.8247 245.02 99.8144 244.948 99.8042C244.876 99.7837 244.805 99.7837 244.733 99.7734C244.661 99.7734 244.59 99.7632 244.518 99.7632C242.951 99.7632 241.906 100.982 241.691 102.272C241.456 103.645 242.142 104.812 243.678 104.812C244.18 104.812 244.753 104.7 245.296 104.311C245.46 104.198 245.614 104.065 245.747 103.911ZM243.852 103.809C243.279 103.809 242.705 103.389 242.889 102.252C243.043 101.392 243.617 100.757 244.354 100.757C244.682 100.757 244.979 100.89 245.143 101.105C245.378 101.402 245.429 101.904 245.317 102.406C245.122 103.399 244.426 103.809 243.852 103.809ZM248.061 99.9168L247.263 104.679H248.42L248.891 101.678C249.116 102.313 249.178 102.467 249.495 103.174L250.151 104.679H251.339L252.148 99.9168H250.98L250.519 102.969C250.366 102.549 250.284 102.334 250.007 101.668L249.249 99.9168H248.061ZM253.725 99.9168L252.926 104.679H256.542L256.695 103.737H254.288L254.483 102.61H256.705L256.859 101.699H254.637L254.78 100.839H257.166L257.32 99.9168H253.725ZM169.692 103.911C169.825 103.768 169.958 103.614 170.06 103.44C170.173 103.266 170.255 103.092 170.337 102.897C170.409 102.713 170.46 102.518 170.501 102.324C170.552 101.996 170.726 100.408 169.323 99.9066C169.251 99.8861 169.18 99.8656 169.108 99.8451C169.036 99.8247 168.965 99.8144 168.893 99.8042C168.821 99.7837 168.749 99.7837 168.678 99.7734C168.606 99.7734 168.524 99.7632 168.452 99.7632C166.896 99.7632 165.851 100.982 165.636 102.272C165.4 103.645 166.076 104.812 167.623 104.812C168.125 104.812 168.698 104.7 169.241 104.311C169.405 104.198 169.548 104.065 169.692 103.911ZM167.797 103.809C167.223 103.809 166.65 103.389 166.834 102.252C166.978 101.392 167.561 100.757 168.299 100.757C168.627 100.757 168.924 100.89 169.087 101.105C169.313 101.402 169.374 101.904 169.262 102.406C169.057 103.399 168.371 103.809 167.797 103.809ZM238.301 100.921C238.67 100.921 239.141 100.91 239.397 101.34C239.561 101.637 239.54 101.975 239.489 102.303C239.254 103.676 238.352 103.706 237.707 103.717H237.338L237.809 100.921H238.301ZM99.3822 96.8648L97.6001 107.742H95.1421L96.9139 96.8648H99.3822ZM107.35 96.8648L105.578 107.742H102.117L103.889 96.8648H107.36H107.35ZM91.4039 96.8648L89.6218 107.742H88.1675L89.9393 96.8648H91.4039ZM123.317 96.8648L121.535 107.742H116.056L117.838 96.8648H123.317ZM115.339 96.8648L113.557 107.742H109.081L110.863 96.8648H115.339ZM271.833 88.8046C271.822 90.2486 270.675 91.3957 269.19 91.3957C267.828 91.3957 266.579 90.3306 266.579 88.7943C266.579 87.2888 267.787 86.1929 269.2 86.1929C270.716 86.1929 271.833 87.381 271.833 88.8046ZM271.423 87.8828C271.3 87.596 271.126 87.3297 270.901 87.1147C270.685 86.8893 270.419 86.7152 270.132 86.5923C269.835 86.4797 269.528 86.4182 269.211 86.4285C267.859 86.4285 266.814 87.4936 266.814 88.7943C266.814 89.1016 266.876 89.4088 266.998 89.7058C267.121 89.9926 267.295 90.2486 267.511 90.474C267.736 90.689 268.002 90.8631 268.289 90.986C268.576 91.0987 268.893 91.1602 269.2 91.1602C270.552 91.1602 271.587 90.1155 271.597 88.7943C271.597 88.4871 271.535 88.1798 271.423 87.8828ZM268.145 87.1556H269.159C269.538 87.1556 269.723 87.1556 269.917 87.2273C270.255 87.3605 270.419 87.6575 270.419 87.9647C270.419 88.4154 270.091 88.6817 269.692 88.7431C270.04 88.8762 270.153 89.0708 270.214 89.46C270.286 89.9414 270.317 90.1155 270.46 90.4023H269.907C269.835 90.2589 269.805 90.1155 269.774 89.9619C269.764 89.8902 269.712 89.5215 269.692 89.4395C269.6 88.9582 269.334 88.907 268.862 88.8967H268.627V90.4023H268.145V87.1556ZM268.637 87.5243V88.5178H269.19C269.395 88.5178 269.938 88.5178 269.938 88.0057C269.938 87.8521 269.876 87.7292 269.784 87.6472C269.641 87.5243 269.477 87.5243 269.077 87.5243H268.637Z" fill="white"/>
</svg>
