<svg width="360" height="174" viewBox="0 0 360 174" fill="none" xmlns="http://www.w3.org/2000/svg">
<path fill-rule="evenodd" clip-rule="evenodd" d="M214.99 127.857H211.772V120.089H214.99C215.931 120.089 216.716 120.481 217.264 121.266C217.893 121.972 218.205 122.914 218.205 124.012C218.205 125.032 217.893 125.974 217.264 126.758C216.716 127.466 215.931 127.857 214.99 127.857ZM215.302 137.823H212.793C212.243 137.823 211.851 137.431 211.772 136.724V128.799H215.302C216.323 128.799 217.186 129.27 217.893 130.133C218.598 130.997 218.99 132.095 218.99 133.35C218.99 134.606 218.675 135.625 217.971 136.489C217.264 137.352 216.401 137.823 215.302 137.823ZM207.223 138.529H216.401C217.656 138.529 218.755 137.98 219.619 136.96C220.56 135.94 221.03 134.763 221.03 133.35C221.03 132.017 220.638 130.839 219.853 129.898C219.146 128.955 218.205 128.407 217.108 128.171C217.971 127.936 218.755 127.386 219.304 126.601C219.931 125.818 220.246 124.954 220.246 123.934C220.246 122.679 219.775 121.58 218.912 120.716C218.127 119.853 217.108 119.383 215.931 119.383H207.223V119.931H208.4C209.105 120.01 209.497 120.481 209.497 121.109V136.724C209.497 137.431 209.105 137.823 208.4 137.98H207.223V138.529ZM201.618 131.336H207.503V130.395H201.618V131.336ZM245.663 136.646V129.113C245.663 128.171 245.271 127.308 244.564 126.366C243.859 125.425 242.84 124.954 241.584 124.954C240.722 124.954 239.937 125.189 239.152 125.66C238.368 126.131 237.897 126.68 237.819 127.308V124.797L234.523 125.267V125.738C235.701 125.738 236.249 126.21 236.249 127.073V136.646C236.249 137.116 236.015 137.509 235.622 137.745C235.23 137.98 234.759 138.059 234.209 138.059V138.529H240.093V138.059C239.623 138.059 239.152 137.98 238.76 137.745C238.289 137.509 238.053 137.116 238.053 136.646V129.348C238.053 128.72 238.368 128.014 238.838 127.308C239.388 126.68 240.171 126.288 241.112 126.288C242.055 126.288 242.76 126.601 243.231 127.151C243.701 127.779 243.938 128.485 243.938 129.348V136.646C243.938 137.116 243.701 137.509 243.311 137.745C242.918 137.98 242.448 138.059 241.897 138.059V138.529H247.704V138.059C247.233 138.059 246.762 137.98 246.292 137.745C245.9 137.509 245.663 137.116 245.663 136.646ZM251.234 137.588L259 124.954H249.744L249.271 128.799H249.744C249.744 128.407 249.978 127.857 250.448 127.073C250.841 126.288 251.39 125.896 252.097 125.738H256.177L248.488 138.529H258.373L259 134.763H258.451C258.451 134.919 258.451 135.155 258.293 135.469C258.215 135.705 258.059 136.018 257.823 136.332C257.588 136.646 257.352 136.96 257.118 137.195C256.803 137.509 256.489 137.588 256.097 137.588H251.234ZM200.083 135.155C200.083 134.371 199.927 133.743 199.691 133.271C199.456 132.879 198.986 132.488 198.357 132.252L193.964 130.211C193.65 130.054 193.338 129.819 193.179 129.584C192.945 129.348 192.865 128.955 192.865 128.407C192.865 127.779 193.101 127.151 193.65 126.68C194.12 126.131 194.749 125.818 195.376 125.818C196.397 125.818 197.26 126.21 197.809 126.916C198.436 127.622 198.75 128.329 198.828 129.113H199.298V125.032L197.965 126.288C197.809 125.974 197.494 125.738 197.102 125.425C196.632 125.189 196.161 125.032 195.534 125.032C194.357 125.032 193.416 125.425 192.553 126.053C191.768 126.68 191.376 127.622 191.376 128.799C191.376 129.662 191.532 130.211 191.846 130.682C192.16 131.075 192.553 131.31 193.023 131.546L197.024 133.35C197.494 133.586 197.887 133.821 198.123 134.057C198.357 134.371 198.516 134.841 198.516 135.469C198.516 136.175 198.201 136.803 197.652 137.352C197.024 137.901 196.317 138.137 195.454 138.137C194.278 138.137 193.338 137.745 192.709 136.881C192.002 136.018 191.612 135.312 191.612 134.684H191.141V138.765L192.239 137.509C192.709 138.137 193.179 138.529 193.728 138.686C194.278 138.922 194.827 139 195.454 139C196.79 139 197.887 138.686 198.75 137.98C199.613 137.274 200.083 136.332 200.083 135.155ZM231.464 131.075H224.716C224.716 129.427 225.109 128.171 225.737 127.229C226.442 126.288 227.305 125.818 228.327 125.818C229.504 125.818 230.286 126.366 230.757 127.308C231.228 128.329 231.464 129.584 231.464 131.075ZM233.112 134.136H232.641C232.405 135.39 231.934 136.253 231.228 136.724C230.601 137.274 229.738 137.509 228.719 137.509C227.463 137.509 226.522 137.038 225.815 136.018C225.109 135.077 224.716 133.664 224.716 131.859H233.112C233.112 129.819 232.797 128.171 232.09 126.916C231.386 125.66 230.208 125.032 228.483 125.032C226.756 125.032 225.345 125.66 224.326 126.916C223.305 128.093 222.756 129.898 222.756 132.33C222.756 134.136 223.305 135.783 224.326 137.038C225.345 138.372 226.835 139 228.639 139C229.582 139 230.523 138.607 231.464 137.745C232.483 136.803 233.033 135.625 233.112 134.136ZM187.846 131.075H181.176C181.176 129.427 181.491 128.171 182.198 127.229C182.824 126.288 183.687 125.818 184.708 125.818C185.883 125.818 186.746 126.366 187.217 127.308C187.687 128.329 187.846 129.584 187.846 131.075ZM162.27 131.075H155.524C155.524 129.427 155.915 128.171 156.543 127.229C157.25 126.288 158.113 125.818 159.132 125.818C160.309 125.818 161.094 126.366 161.565 127.308C162.035 128.329 162.27 129.584 162.27 131.075ZM163.917 134.136H163.447C163.211 135.39 162.741 136.253 162.035 136.724C161.407 137.274 160.545 137.509 159.524 137.509C158.269 137.509 157.328 137.038 156.621 136.018C155.915 135.077 155.524 133.664 155.524 131.859H163.917C163.917 129.819 163.526 128.171 162.898 126.916C162.191 125.66 161.015 125.032 159.289 125.032C157.564 125.032 156.151 125.66 155.131 126.916C154.032 128.093 153.562 129.898 153.562 132.33C153.562 134.136 154.032 135.783 155.131 137.038C156.151 138.372 157.643 139 159.446 139C160.387 139 161.328 138.607 162.27 137.745C163.29 136.803 163.839 135.625 163.917 134.136ZM111.278 134.999L105.472 119.383H101V119.853C101.629 119.853 102.177 120.01 102.57 120.324C103.04 120.638 103.276 121.109 103.276 121.737V136.41C103.276 137.038 103.04 137.509 102.57 137.823C102.177 138.137 101.629 138.294 101 138.294V138.765H106.57V138.294C105.943 138.294 105.394 138.137 104.923 137.823C104.53 137.509 104.296 137.038 104.296 136.41V122.286L110.492 138.765H110.807L117.083 122.286V136.41C117.083 137.038 116.926 137.509 116.455 137.823C116.062 138.137 115.514 138.294 114.886 138.294V138.765H121.555V138.294C120.927 138.294 120.377 138.137 119.907 137.823C119.515 137.509 119.28 137.038 119.28 136.41V121.737C119.28 121.109 119.515 120.638 119.907 120.324C120.377 120.01 120.927 119.853 121.555 119.853V119.383H117.396L111.278 134.999ZM137.95 137.038V128.642C138.029 128.093 138.343 127.622 138.892 127.229C139.362 126.758 139.832 126.523 140.304 126.523C140.618 126.523 140.854 126.68 141.089 126.916C141.402 127.229 141.481 127.544 141.481 128.014H142.266L141.795 124.954C140.461 124.954 139.519 125.189 138.97 125.66C138.499 126.131 138.107 126.523 137.95 126.838V124.954L134.342 125.503V126.053C135.597 126.053 136.225 126.523 136.225 127.622V137.038C136.225 137.352 135.989 137.667 135.597 137.901C135.284 138.216 134.734 138.294 134.107 138.294V138.765H140.069V138.294C139.362 138.294 138.892 138.216 138.499 137.901C138.107 137.667 137.95 137.352 137.95 137.038ZM150.739 126.288C150.503 125.974 150.11 125.66 149.64 125.347C149.247 125.111 148.699 124.954 148.149 124.954C146.658 124.954 145.403 125.66 144.384 126.916C143.364 128.171 142.814 129.976 142.814 132.252C142.814 134.057 143.284 135.705 144.306 137.038C145.325 138.372 146.58 139 148.149 139C149.405 139 150.425 138.607 151.131 137.745C151.836 136.803 152.229 135.704 152.229 134.371H151.523C151.523 135.469 151.209 136.332 150.503 137.038C149.797 137.745 149.091 138.059 148.384 138.059C147.757 138.059 147.208 137.823 146.736 137.431C146.266 136.96 145.873 136.41 145.639 135.783C145.325 135.155 145.089 134.449 145.01 133.586C144.854 132.801 144.854 132.017 144.854 131.153C144.854 129.74 145.168 128.564 145.717 127.386C146.345 126.288 147.129 125.738 148.149 125.738C149.169 125.738 149.954 126.131 150.425 126.758C150.895 127.466 151.209 128.249 151.523 129.191H151.993V124.954L150.739 126.288ZM131.125 131.075H124.458C124.458 129.427 124.771 128.171 125.399 127.229C126.105 126.288 126.968 125.818 127.988 125.818C129.164 125.818 129.948 126.366 130.419 127.308C130.89 128.329 131.125 129.584 131.125 131.075ZM132.773 134.136H132.38C132.066 135.39 131.595 136.253 130.89 136.724C130.262 137.274 129.399 137.509 128.458 137.509C127.203 137.509 126.184 137.038 125.477 136.018C124.771 135.077 124.458 133.664 124.458 131.859H132.773C132.773 129.819 132.458 128.171 131.754 126.916C131.047 125.66 129.869 125.032 128.223 125.032C126.418 125.032 125.085 125.66 123.986 126.916C122.966 128.093 122.417 129.898 122.417 132.33C122.417 134.136 122.966 135.783 123.986 137.038C125.085 138.372 126.496 139 128.38 139C129.321 139 130.262 138.607 131.203 137.745C132.145 136.803 132.695 135.625 132.773 134.136ZM174.431 133.899C174.431 135.312 174.117 136.41 173.489 137.116C172.783 137.823 171.998 138.137 171.135 138.137C169.958 138.137 169.017 137.509 168.389 136.332C167.761 135.077 167.528 133.743 167.528 132.252C167.528 130.446 167.839 128.877 168.625 127.622C169.409 126.366 170.272 125.738 171.213 125.738C172.313 125.738 173.097 126.21 173.646 127.229C174.195 128.171 174.431 129.191 174.431 130.368V133.899ZM174.431 121.737V127.073C174.195 126.601 173.724 126.131 173.254 125.66C172.705 125.189 171.998 124.954 171.135 124.954C169.644 124.954 168.389 125.66 167.369 126.994C166.35 128.329 165.801 130.054 165.801 132.095C165.801 134.136 166.272 135.783 167.213 137.116C168.154 138.372 169.409 139 171.057 139C171.998 139 172.705 138.765 173.254 138.372C173.802 137.901 174.195 137.352 174.431 136.724C174.431 137.352 174.587 137.901 174.98 138.372C175.293 138.765 175.606 139 175.921 139L178.195 138.607V138.059C177.882 138.059 177.49 137.98 177.176 137.823C176.783 137.667 176.627 137.352 176.627 136.96V119.697H175.921L172.705 119.931V120.324C173.176 120.324 173.568 120.481 173.961 120.796C174.273 121.031 174.431 121.345 174.431 121.737ZM184.942 125.032C186.59 125.032 187.767 125.66 188.473 126.916C189.179 128.171 189.572 129.819 189.572 131.859H181.176C181.176 133.664 181.491 135.077 182.198 136.018C182.902 137.038 183.923 137.509 185.179 137.509C186.198 137.509 186.983 137.274 187.687 136.724C188.316 136.253 188.787 135.39 189.101 134.136H189.572C189.413 135.625 188.865 136.803 187.924 137.745C186.983 138.607 186.041 139 185.099 139C183.217 139 181.805 138.372 180.706 137.038C179.686 135.783 179.137 134.136 179.137 132.33C179.137 129.898 179.686 128.093 180.706 126.916C181.805 125.66 183.138 125.032 184.942 125.032ZM180.16 35C201.153 35 218.171 52.0217 218.171 73.0192C218.171 94.0167 201.153 111.038 180.16 111.038C159.168 111.038 142.15 94.0165 142.15 73.0192C142.15 52.0219 159.168 35 180.16 35ZM180.16 37.9819C160.815 37.9819 145.132 53.6688 145.132 73.0192C145.132 79.6731 146.986 85.8938 150.206 91.1925L180.001 74.0167L179.929 80.7617L150.211 91.201C156.357 101.307 167.471 108.057 180.16 108.057C192.542 108.057 203.423 101.631 209.653 91.9324L209.966 91.4353L181.077 80.5286V74.1961L210.004 91.3744C210.144 91.1466 210.282 90.917 210.417 90.6857L184.466 71.9895L186.6 70.6978L210.424 90.6735C213.454 85.4894 215.189 79.4571 215.189 73.0192C215.189 54.0843 200.173 38.6575 181.402 38.0035L186.493 69.8728L181.005 72.9223L181.38 38.0027C181.185 37.9961 180.99 37.991 180.795 37.9875L177.275 71.0924L174.979 69.7655L180.759 37.9869C180.56 37.9836 180.36 37.9819 180.16 37.9819ZM174.477 70.5542L176.719 71.9L149.799 90.5031L174.477 70.5542ZM183.085 72.8507L203.89 86.9144L181.651 73.9267L183.085 72.8507ZM178.207 72.635L179.498 73.7836L172.109 77.7296L178.207 72.635ZM180.539 47.5747L180.073 72.7787L178.638 72.2047L180.539 47.5747Z" fill="white"/>
</svg>
