<svg width="28" height="20" viewBox="0 0 28 20" fill="none" xmlns="http://www.w3.org/2000/svg">
<rect width="28" height="20" rx="2" fill="white"/>
<mask id="mask0_1519_7100" style="mask-type:alpha" maskUnits="userSpaceOnUse" x="0" y="0" width="28" height="20">
<rect width="28" height="20" rx="2" fill="white"/>
</mask>
<g mask="url(#mask0_1519_7100)">
<rect width="28" height="20" fill="#30C6E0"/>
<path fill-rule="evenodd" clip-rule="evenodd" d="M14 14C16.2091 14 18 12.2091 18 10C18 7.79086 16.2091 6 14 6C11.7909 6 10 7.79086 10 10C10 12.2091 11.7909 14 14 14Z" fill="#FFCD4B"/>
<path fill-rule="evenodd" clip-rule="evenodd" d="M12.3685 17.1498L14.0003 14.7139L15.6321 17.1498L16.0455 14.2471L18.5726 15.7337L17.6856 12.9392L20.6074 13.1821L18.5958 11.0492L21.3337 10.0003L18.5958 8.95142L20.6074 6.81849L17.6856 7.06141L18.5726 4.26687L16.0455 5.75348L15.6321 2.85083L14.0003 5.28669L12.3685 2.85083L11.9552 5.75348L9.42807 4.26687L10.3151 7.06141L7.39322 6.81849L9.40489 8.95142L6.66699 10.0003L9.40489 11.0492L7.39322 13.1821L10.3151 12.9392L9.42807 15.7337L11.9552 14.2471L12.3685 17.1498ZM18.6673 9.99965C18.6673 12.577 16.578 14.6663 14.0007 14.6663C11.4233 14.6663 9.33398 12.577 9.33398 9.99965C9.33398 7.42232 11.4233 5.33298 14.0007 5.33298C16.578 5.33298 18.6673 7.42232 18.6673 9.99965Z" fill="#FFCD4B"/>
<path fill-rule="evenodd" clip-rule="evenodd" d="M1.33301 1.66634C1.33301 1.48225 1.48225 1.33301 1.66634 1.33301H2.33301C2.5171 1.33301 2.66634 1.48225 2.66634 1.66634V2.33301C2.66634 2.5171 2.5171 2.66634 2.33301 2.66634H1.66634C1.48225 2.66634 1.33301 2.5171 1.33301 2.33301V1.66634ZM1.33301 4.33333C1.33301 4.14924 1.48225 4 1.66634 4H2.33301C2.5171 4 2.66634 4.14924 2.66634 4.33333V5C2.66634 5.18409 2.5171 5.33333 2.33301 5.33333H1.66634C1.48225 5.33333 1.33301 5.18409 1.33301 5V4.33333ZM1.66634 6.66602C1.48225 6.66602 1.33301 6.81525 1.33301 6.99935V7.66602C1.33301 7.85011 1.48225 7.99935 1.66634 7.99935H2.33301C2.5171 7.99935 2.66634 7.85011 2.66634 7.66602V6.99935C2.66634 6.81525 2.5171 6.66602 2.33301 6.66602H1.66634ZM1.33301 9.66634C1.33301 9.48225 1.48225 9.33301 1.66634 9.33301H2.33301C2.5171 9.33301 2.66634 9.48225 2.66634 9.66634V10.333C2.66634 10.5171 2.5171 10.6663 2.33301 10.6663H1.66634C1.48225 10.6663 1.33301 10.5171 1.33301 10.333V9.66634ZM1.66634 12C1.48225 12 1.33301 12.1492 1.33301 12.3333V13C1.33301 13.1841 1.48225 13.3333 1.66634 13.3333H2.33301C2.5171 13.3333 2.66634 13.1841 2.66634 13V12.3333C2.66634 12.1492 2.5171 12 2.33301 12H1.66634ZM1.33301 14.9993C1.33301 14.8153 1.48225 14.666 1.66634 14.666H2.33301C2.5171 14.666 2.66634 14.8153 2.66634 14.9993V15.666C2.66634 15.8501 2.5171 15.9993 2.33301 15.9993H1.66634C1.48225 15.9993 1.33301 15.8501 1.33301 15.666V14.9993ZM1.66634 17.333C1.48225 17.333 1.33301 17.4822 1.33301 17.6663V18.333C1.33301 18.5171 1.48225 18.6663 1.66634 18.6663H2.33301C2.5171 18.6663 2.66634 18.5171 2.66634 18.333V17.6663C2.66634 17.4822 2.5171 17.333 2.33301 17.333H1.66634ZM2.66602 16.3333C2.66602 16.1492 2.81525 16 2.99935 16H3.66602C3.85011 16 3.99935 16.1492 3.99935 16.3333V17C3.99935 17.1841 3.85011 17.3333 3.66602 17.3333H2.99935C2.81525 17.3333 2.66602 17.1841 2.66602 17V16.3333ZM2.99935 13.333C2.81525 13.333 2.66602 13.4822 2.66602 13.6663V14.333C2.66602 14.5171 2.81525 14.6663 2.99935 14.6663H3.66602C3.85011 14.6663 3.99935 14.5171 3.99935 14.333V13.6663C3.99935 13.4822 3.85011 13.333 3.66602 13.333H2.99935ZM2.66602 10.9993C2.66602 10.8153 2.81525 10.666 2.99935 10.666H3.66602C3.85011 10.666 3.99935 10.8153 3.99935 10.9993V11.666C3.99935 11.8501 3.85011 11.9993 3.66602 11.9993H2.99935C2.81525 11.9993 2.66602 11.8501 2.66602 11.666V10.9993ZM2.99935 8C2.81525 8 2.66602 8.14924 2.66602 8.33333V9C2.66602 9.18409 2.81525 9.33333 2.99935 9.33333H3.66602C3.85011 9.33333 3.99935 9.18409 3.99935 9V8.33333C3.99935 8.14924 3.85011 8 3.66602 8H2.99935ZM2.66602 5.66634C2.66602 5.48225 2.81525 5.33301 2.99935 5.33301H3.66602C3.85011 5.33301 3.99935 5.48225 3.99935 5.66634V6.33301C3.99935 6.5171 3.85011 6.66634 3.66602 6.66634H2.99935C2.81525 6.66634 2.66602 6.5171 2.66602 6.33301V5.66634ZM2.99935 2.66602C2.81525 2.66602 2.66602 2.81525 2.66602 2.99935V3.66602C2.66602 3.85011 2.81525 3.99935 2.99935 3.99935H3.66602C3.85011 3.99935 3.99935 3.85011 3.99935 3.66602V2.99935C3.99935 2.81525 3.85011 2.66602 3.66602 2.66602H2.99935Z" fill="#FFCD4B"/>
</g>
</svg>
